<?xml version="1.0" encoding="utf-8"?>
<!-- Generator: Adobe Illustrator 23.0.6, SVG Export Plug-In . SVG Version: 6.00 Build 0)  -->
<svg version="1.1" id="Layer_1" xmlns="http://www.w3.org/2000/svg" xmlns:xlink="http://www.w3.org/1999/xlink" x="0px" y="0px"
	 viewBox="0 0 332 338.3" style="enable-background:new 0 0 332 338.3;" xml:space="preserve">
<style type="text/css">
	.st0{fill:none;}
	.st1{fill:#BE1E2D;}
	.st2{clip-path:url(#SVGID_2_);}
	.st3{opacity:0.3;}
	.st4{clip-path:url(#SVGID_4_);}
	.st5{fill:#FFFFFF;}
	.st6{fill:#F299C1;}
	.st7{fill:#6ECEF5;}
	.st8{fill:#FDF49B;}
	.st9{fill:#7D644D;}
	.st10{fill:#4890A6;}
	.st11{fill:#E572A7;}
	.st12{fill:#594734;}
	.st13{opacity:0.7;}
	.st14{fill:#846F2C;}
	.st15{clip-path:url(#SVGID_6_);fill:#FFFFFF;}
	.st16{clip-path:url(#SVGID_6_);fill:#F299C1;}
	.st17{clip-path:url(#SVGID_6_);fill:#6ECEF5;}
	.st18{clip-path:url(#SVGID_6_);fill:#FDF49B;}
	.st19{clip-path:url(#SVGID_8_);fill:#FFFFFF;}
	.st20{clip-path:url(#SVGID_8_);fill:#F299C1;}
	.st21{clip-path:url(#SVGID_8_);fill:#6ECEF5;}
	.st22{clip-path:url(#SVGID_8_);fill:#FDF49B;}
	.st23{clip-path:url(#SVGID_8_);}
	.st24{clip-path:url(#SVGID_10_);}
	.st25{fill:none;stroke:#000000;stroke-width:4;stroke-miterlimit:10;}
	.st26{clip-path:url(#SVGID_12_);}
	.st27{clip-path:url(#SVGID_14_);fill:#FFFFFF;}
	.st28{clip-path:url(#SVGID_14_);fill:#F299C1;}
	.st29{clip-path:url(#SVGID_14_);fill:#6ECEF5;}
	.st30{clip-path:url(#SVGID_14_);fill:#FDF49B;}
	.st31{clip-path:url(#SVGID_16_);}
	.st32{clip-path:url(#SVGID_18_);fill:#FFFFFF;}
	.st33{clip-path:url(#SVGID_18_);fill:#F299C1;}
	.st34{clip-path:url(#SVGID_18_);fill:#6ECEF5;}
	.st35{clip-path:url(#SVGID_18_);fill:#FDF49B;}
	.st36{clip-path:url(#SVGID_20_);fill:#FFFFFF;}
	.st37{clip-path:url(#SVGID_20_);fill:#F299C1;}
	.st38{clip-path:url(#SVGID_20_);fill:#6ECEF5;}
	.st39{clip-path:url(#SVGID_20_);fill:#FDF49B;}
	.st40{clip-path:url(#SVGID_20_);}
	.st41{clip-path:url(#SVGID_22_);}
	.st42{clip-path:url(#SVGID_24_);fill:#FFFFFF;}
	.st43{clip-path:url(#SVGID_24_);fill:#F299C1;}
	.st44{clip-path:url(#SVGID_24_);fill:#6ECEF5;}
	.st45{clip-path:url(#SVGID_24_);fill:#FDF49B;}
	.st46{opacity:0.92;fill:url(#SVGID_25_);}
	.st47{fill:#231F20;}
	.st48{fill:#FCEE23;}
	.st49{fill:none;stroke:#FFFFFF;stroke-width:0.275;stroke-miterlimit:10;}
	.st50{fill:#FCEE1F;}
	.st51{opacity:0.92;fill:url(#SVGID_26_);}
	.st52{fill:url(#SVGID_27_);}
	.st53{opacity:0.92;fill:url(#SVGID_28_);}
	.st54{opacity:0.92;fill:url(#SVGID_29_);}
	.st55{opacity:0.92;fill:url(#SVGID_30_);}
	.st56{opacity:0.92;fill:url(#SVGID_31_);}
	.st57{opacity:0.92;fill:url(#SVGID_32_);}
	.st58{opacity:0.92;fill:url(#SVGID_33_);}
	.st59{opacity:0.92;fill:url(#SVGID_35_);}
	.st60{fill:#EEEDEE;}
	.st61{opacity:0.92;fill:url(#SVGID_36_);}
	.st62{opacity:0.92;fill:url(#SVGID_37_);}
	.st63{clip-path:url(#SVGID_38_);}
	.st64{opacity:0.92;fill:url(#SVGID_39_);}
	.st65{opacity:0.92;fill:url(#SVGID_40_);}
	.st66{opacity:0.92;fill:url(#SVGID_41_);}
	.st67{opacity:0.92;fill:url(#SVGID_42_);}
	.st68{opacity:0.92;fill:url(#SVGID_43_);}
	.st69{fill:none;stroke:#000000;stroke-width:6;stroke-miterlimit:10;}
</style>
<rect class="st0" width="332" height="338.3"/>
<g>
	<g>
		<g>
			<path d="M106.4,300.4h1.1v1.7h0c0.7-1.1,1.7-1.9,3.5-1.9h0.2l-0.1,1.1c0,0-0.3,0-0.3,0c-1.4,0-2.6,0.8-3.2,2.2v5.7h-1.1V300.4z"
				/>
			<path d="M112,304.7c0-3.1,2-4.5,3.8-4.5c2,0,3.6,1.6,3.6,4.6v0.2h-6.3c0,2.2,1.2,3.4,2.8,3.4c1.3,0,2.1-0.6,2.7-1.6l0.7,0.6
				c-0.8,1.2-1.8,2-3.5,2C113.8,309.3,112,307.7,112,304.7z M118.3,304.1c-0.1-1.7-0.9-2.9-2.5-2.9c-1.3,0-2.4,0.9-2.7,2.9H118.3z"
				/>
			<path d="M120.8,307.7l0.7-0.7c0.7,0.8,1.5,1.3,2.7,1.3c1.5,0,2.3-0.5,2.3-1.5c0-1-0.7-1.3-2.4-1.7c-2-0.5-3-1-3-2.6
				c0-1.2,1.1-2.3,3-2.3c1.5,0,2.5,0.5,3.2,1.3l-0.6,0.8c-0.7-0.7-1.5-1.1-2.6-1.1c-1.4,0-1.9,0.6-1.9,1.3c0,0.8,0.6,1.2,2.1,1.6
				c2.2,0.5,3.3,1.1,3.3,2.8c0,1.6-1.4,2.5-3.4,2.5C122.7,309.3,121.5,308.6,120.8,307.7z"/>
			<path d="M130,297.1h1.2v1.2H130V297.1z M130,300.4h1.1v8.8H130V300.4z"/>
			<path d="M133.3,307.7l0.7-0.7c0.7,0.8,1.5,1.3,2.7,1.3c1.5,0,2.3-0.5,2.3-1.5c0-1-0.7-1.3-2.4-1.7c-2-0.5-3-1-3-2.6
				c0-1.2,1.1-2.3,3-2.3c1.5,0,2.5,0.5,3.2,1.3l-0.6,0.8c-0.7-0.7-1.5-1.1-2.6-1.1c-1.4,0-1.9,0.6-1.9,1.3c0,0.8,0.6,1.2,2.1,1.6
				c2.2,0.5,3.3,1.1,3.3,2.8c0,1.6-1.4,2.5-3.4,2.5C135.2,309.3,133.9,308.6,133.3,307.7z"/>
			<path d="M142.8,307.1v-5.7h-1.5v-1h1.5v-3.1h1.1v3.1h2.3v1h-2.3v5.5c0,0.9,0.3,1.4,1.4,1.4c0.3,0,0.7,0,0.9-0.1v1
				c-0.3,0-0.7,0.1-1.1,0.1C143.4,309.3,142.8,308.6,142.8,307.1z"/>
			<path d="M147.6,307.1c0-1.7,1.5-3,5.9-3.7V303c0-1.2-0.6-1.8-1.8-1.8c-1.4,0-2.4,0.6-3.3,1.4l-0.6-0.7c1-1,2.3-1.6,4-1.6
				c2,0,2.8,1.1,2.8,2.8v4c0,1.1,0.1,1.7,0.2,2.2h-1.2c-0.1-0.4-0.2-0.7-0.2-1.3c-1,0.9-2.1,1.4-3.5,1.4
				C148.5,309.3,147.6,308.5,147.6,307.1z M153.6,307v-2.7c-3.8,0.6-4.8,1.6-4.8,2.7c0,0.9,0.6,1.4,1.6,1.4
				C151.6,308.3,152.7,307.8,153.6,307z"/>
			<path d="M157.3,300.4h1.1v1.4c0.8-0.8,2-1.5,3.3-1.5c1.7,0,2.6,1,2.6,2.6v6.3h-1.1V303c0-1.2-0.5-1.8-1.7-1.8
				c-1.1,0-2.1,0.6-3.1,1.5v6.4h-1.1V300.4z"/>
			<path d="M166.5,304.8c0-3.1,1.9-4.6,3.9-4.6c1.9,0,2.8,1.1,3.4,2.4l-1,0.4c-0.5-1.2-1.2-1.8-2.4-1.8c-1.3,0-2.7,0.9-2.7,3.6
				c0,2.3,1.2,3.6,2.7,3.6c1.2,0,1.9-0.6,2.5-1.9l0.9,0.4c-0.7,1.5-1.7,2.4-3.5,2.4C168.2,309.3,166.5,307.7,166.5,304.8z"/>
			<path d="M175.1,304.7c0-3.1,2-4.5,3.8-4.5c2,0,3.6,1.6,3.6,4.6v0.2h-6.3c0,2.2,1.2,3.4,2.8,3.4c1.3,0,2.1-0.6,2.7-1.6l0.7,0.6
				c-0.8,1.2-1.8,2-3.5,2C176.9,309.3,175.1,307.7,175.1,304.7z M181.5,304.1c-0.1-1.7-0.9-2.9-2.5-2.9c-1.3,0-2.4,0.9-2.7,2.9
				H181.5z"/>
		</g>
	</g>
	<g>
		<path d="M204.4,301.3h-1.5v-1h1.5V299c0-1.5,0.8-2.2,2.5-2.2c0.2,0,0.5,0,0.7,0v1c-0.1,0-0.4,0-0.6,0c-0.8,0-1.4,0.3-1.4,1.3v1.3
			h1.9v1h-1.9v7.8h-1.1V301.3z"/>
		<path d="M209.3,300.4h1.1v1.7h0c0.7-1.1,1.7-1.9,3.5-1.9h0.2l-0.1,1.1c0,0-0.3,0-0.3,0c-1.4,0-2.6,0.8-3.2,2.2v5.7h-1.1V300.4z"/>
		<path d="M214.8,304.7c0-3.1,2-4.5,3.8-4.5c2,0,3.6,1.6,3.6,4.6v0.2H216c0,2.2,1.2,3.4,2.8,3.4c1.3,0,2.1-0.6,2.7-1.6l0.7,0.6
			c-0.8,1.2-1.8,2-3.5,2C216.6,309.3,214.8,307.7,214.8,304.7z M221.2,304.1c-0.1-1.7-0.9-2.9-2.5-2.9c-1.3,0-2.4,0.9-2.7,2.9H221.2
			z"/>
		<path d="M223.9,304.7c0-3.1,2-4.5,3.8-4.5c2,0,3.6,1.6,3.6,4.6v0.2h-6.3c0,2.2,1.2,3.4,2.8,3.4c1.3,0,2.1-0.6,2.7-1.6l0.7,0.6
			c-0.8,1.2-1.8,2-3.5,2C225.7,309.3,223.9,307.7,223.9,304.7z M230.3,304.1c-0.1-1.7-0.9-2.9-2.5-2.9c-1.3,0-2.4,0.9-2.7,2.9H230.3
			z"/>
		<path d="M233.1,304.8c0-3.1,1.6-4.6,3.7-4.6c1.1,0,2.1,0.6,2.8,1.4v-4.7h1.1V307c0,1.1,0.1,1.7,0.3,2.2h-1.2
			c-0.1-0.3-0.2-0.8-0.2-1.3c-0.7,0.8-1.6,1.4-2.9,1.4C234.7,309.3,233.1,307.8,233.1,304.8z M239.6,306.9v-4.3
			c-0.9-0.9-1.7-1.4-2.7-1.4c-1.5,0-2.7,1.1-2.7,3.6c0,2.4,1.2,3.5,2.7,3.5C238,308.3,238.8,307.8,239.6,306.9z"/>
		<path d="M242.9,304.8c0-2.9,1.8-4.6,4-4.6c2.1,0,4,1.6,4,4.6c0,2.9-1.8,4.6-4,4.6C244.7,309.3,242.9,307.7,242.9,304.8z
			 M249.7,304.7c0-1.9-1-3.6-2.8-3.6c-1.8,0-2.8,1.5-2.8,3.6c0,1.9,0.9,3.6,2.8,3.6C248.7,308.3,249.7,306.9,249.7,304.7z"/>
		<path d="M253,300.4h1.1v1.4c0.9-0.9,1.9-1.5,3.2-1.5c1.5,0,2.1,0.6,2.4,1.6c0.9-0.9,2-1.6,3.3-1.6c1.8,0,2.5,1,2.5,2.6v6.3h-1.1
			V303c0-1.2-0.4-1.8-1.6-1.8c-1.1,0-1.9,0.6-2.9,1.5v6.4h-1.1V303c0-1.2-0.4-1.8-1.7-1.8c-1,0-1.9,0.6-2.9,1.5v6.4H253V300.4z"/>
	</g>
	<g>
		<path d="M85.3,171.1H78L65.7,206h7l2.7-7.7h11.8l2.6,7.7h7.7L85.3,171.1z M77.3,192.7l4.1-11.8h0.1l4,11.8H77.3z"/>
		<path d="M121.4,191.9c4.6-1.4,7.2-4.4,7.2-9.9c0-7.7-5.1-10.7-13.6-10.7h-13V206h7.5v-13.1h4.4l7.2,13.1h8.1L121.4,191.9z
			 M114.6,187h-5.2v-9.5h5.2c4.4,0,6.5,1.3,6.5,4.7C121.2,185.7,119.1,187,114.6,187z"/>
		<path d="M131.6,171.3v6.4h10.3V206h7.7v-28.3h10.4v-6.4H131.6z"/>
		<path d="M198.7,177.7v-6.4h-22.9V206h7.6v-13.8h10.9v-6.1h-10.9v-8.4H198.7z"/>
		<path d="M217.1,170.6c-8.4,0-16.4,5.8-16.4,18s8,18,16.4,18c8.4,0,16.3-5.8,16.3-18S225.5,170.6,217.1,170.6z M217.1,200.5
			c-5.4,0-8.7-4.6-8.7-11.9c0-7.3,3.3-11.7,8.7-11.7c5.3,0,8.7,4.4,8.7,11.7C225.8,195.9,222.5,200.5,217.1,200.5z"/>
		<path d="M258.5,191.9c4.6-1.4,7.2-4.4,7.2-9.9c0-7.7-5.1-10.7-13.7-10.7h-13V206h7.5v-13.1h4.4l7.2,13.1h8.1L258.5,191.9z
			 M251.7,187h-5.2v-9.5h5.2c4.4,0,6.5,1.3,6.5,4.7C258.2,185.7,256.1,187,251.7,187z"/>
	</g>
	<g>
		<path d="M48.5,221.8v11h17.7v48.7h13.2v-48.7h17.8v-11H48.5z"/>
		<path d="M105.8,221.8v59.7h13.1v-59.7H105.8z"/>
		<path d="M165.6,250.4v-0.2c6-1.2,11.4-5.2,11.4-13.7c0-12.1-10.3-14.8-21.3-14.8h-23.9v59.7h25.1c11.1,0,21.7-4.4,21.7-16.5
			C178.6,255.5,172.8,251.7,165.6,250.4z M144.7,231.9h9.8c7,0,9.8,2.6,9.8,7.3c0,4.6-3.1,7.2-10,7.2h-9.7V231.9z M155.2,271.5
			h-10.6v-15.8h10c7.3,0,11.1,2.6,11.1,7.8C165.7,268.6,162.5,271.5,155.2,271.5z"/>
		<path d="M200.8,270.8V256h19.9v-10.4h-19.9v-12.8h27.5v-11h-40.7v59.7h42.1v-10.6H200.8z"/>
		<path d="M234.8,221.8v11h17.7v48.7h13.2v-48.7h17.8v-11H234.8z"/>
	</g>
	<path d="M227.2,131.1c-0.1,0,0,0.3,0,0.4c0,0.4-0.2,0.8-0.4,1c-0.2,0.2-0.6,0.4-0.9,0.3c-0.6-0.1-0.9-0.4-1.1-0.5
		c-0.4-0.2-0.8-0.4-1.3-0.4c-0.1,0-0.3,0-0.4,0c-0.4,0.1-0.9,0.3-1.2,0.6c-0.3,0.4-0.5,0.6-0.6,1.4c0,0.1,0,0.4-0.1,0.8
		c-0.1,0.4-0.4,0.8-0.4,0.8c-0.5,0.7-1.2,1.2-2.2,1.5c-1,0.2-1.9,0.1-2.7-0.2c0,0,0,0-0.1,0c-2.1-1.1-1.8-4.3,0.2-5.3
		c3.5-1.8,6.9-1.2,8.9-3.4c2-2.2,1-4.5,1-4.5s2.2-1.9,1.7-4.2c-0.4-2.3-2.9-3.2-2.2-2.1c0.1,0.1,0.2,0.2,0.2,0.3
		c0.2,0.3,0.2,0.6,0.2,0.9c0,0.9-0.7,1.6-1.5,1.6c-0.8,0-1.5-0.7-1.5-1.6c0-0.4,0.1-0.7,0.3-1.1c0.1-0.4,1.2-1.8,1.9-2.9
		c1.3-1.9-1.6-3.6-2.2-5c-1.3-2.9,0.9-3.6,1.4-3.5c0.3,0,0.2-0.1,0.2-0.1c-0.4-0.5-2.5-0.2-3.9,1.6c-1.1,1.6-0.8,4-0.1,6.2
		c0.2,0.8,0.8,2.2-0.9,2.8c-0.5,0.2-0.8,0-1,0c-0.5-0.2-0.9-0.8-0.9-1.4c0-0.8,0.6-1.6,1.5-1.5c0.5,0.1-0.6-1.2-2.1-0.5
		c-1.2,0.6-0.9,1.5-1.3,3.1c-1.4,5.9-5.6,4.2-6.6,2.2c-2.4-5,3.2-5.4,5.2-9.2c1.4-2.7,0.3-5,0.3-5s1.3-0.5,1.2-3.4
		c0-3.2-4.4-4-3.8-3.4c0.8,0.8,1.3,4.2-1.5,4.3c-2,0-3.5-2-0.7-4.3c2-1.6,3.1-3,3.1-6.1c0-4.6-5.6-6.6-5.7-8.9
		c-0.1-2.5,2.8-3.1,2.2-3.3c-1.6-0.4-3.7,0.2-5,2.9c-1.2,2.5,1.3,6.3,1.7,7.4c0.4,1.1,0.8,2.7,0.4,3.6c-0.4,0.9-1.1,1.1-1.9,1.1
		c-0.8,0-1.6-0.8-1.8-1.7c-0.1-0.6,0-1.7,1-1.8c0.5-0.1,0.6-0.2,0.5-0.3c-0.1-0.1-1.8-1.3-3.6,0.8c-2.5,2.8,0.3,5.5-1.7,5.7
		c-5,0.6-5-7.3-2.1-11.2c2.4-3.3,7.2-5.7,7.2-9.2c0-3-1.7-3.5-1.8-3.1c-0.1,0.3,0.6,1.2-0.2,2.6c-0.3,0.5-1.6,1.9-2.4,1.1
		c-0.2-0.2-0.2-0.4-0.1-0.6c0,0,0,0,0,0c0.3-0.5,0.9-1,1-3.1c0-3.3-2.7-4.2-2.4-3.8c0.3,0.4,0.2,1.1-0.3,1.7
		c-0.5,0.6-1.5,0.9-2.3,0.2c-1.4-1.4,1.5-3.5,1.5-6.6c0-3-3-2.9-3.4-5.4c-0.2-1.2,0.9-2.5,1.4-2.8c0.6-0.3,0-0.3,0-0.3
		s-2.5,0.3-3.3,2.1c-1.5,3.2,2.6,5.1,0.9,8.2c-0.6,1.2-1.8,0.9-2.1-0.6c-0.3-1.7,1.4-2.3-0.3-1.9c-0.8,0.2-1,0.8-1.2,1.9
		c-0.2,1.9,0.1,1.6-2.4,2.7c-2.1,0.9-2.7,3.2-2.7,4c0,0.4,0,0.8,0.2,1.2c0.1,0.1,0.1,0.2,0.1,0c0.1-0.9,0.8-2.9,3.1-3.1
		c6-0.6,5.2,5,3.6,7c-3,3.8-7.8,2.2-9.3-0.8c-1.7-3.4-0.9-6,1.5-8.7c1.1-1.3,3.8-2.6,4.1-5.6c0.3-2.3-0.8-3.8-2.3-5.3
		c-1.1-1.2-1.4-2.1-0.7-3c0.6-0.8,0.9-1.1,0.9-2c0-1.1-0.5-2.1-1.5-2.5c-1-0.4-1.7-0.9-1.8-1.6c-0.1-0.5,0-1,0.4-1.4
		c0.3-0.4,0.9-0.8,1.2-0.7c0.2,0,0.2,0,0.1-0.1c-0.1,0-1.3-0.7-2.7,0.6c-1.8,1.7-1.2,3.8-0.3,5.5c0.9,1.7,1.9,3.9,0,4.3
		c-2.4,0.5-2.5-2.4-1.8-3.1c0.3-0.3,0.1-0.4,0.1-0.4s-2.1-0.4-2.4,2.2c-0.3,2.8,1.7,3.3,2,4.3c0.6,2.6-2.2,4.7-4.6,3.3
		c-2.7-1.7-1-5.3,1.7-9.2c3.4-4.9-1.7-7.4-2.1-7.6c0,0-0.5-0.3-0.2,0.2c0.1,0.1,0.2,0.3,0.2,0.5c0.4,3-1.4,3.7-2.4,3.6
		c-1.2,0-2.3-1-2.3-2.3c0-0.9,0.4-1.7,1.2-2.1c1-0.5,1.8-0.9,2.3-2c1.8-3.5-0.7-6-2.4-7c-1.6-0.9-0.8,0.4-0.8,1.6
		c0.1,1.9-1.4,2.7-2.4,2.4c-0.4-0.1-0.8-0.2-1.2-1c-0.2-0.3-0.2-0.6-0.2-0.9c0.1-0.8,0.6-1.7,1.1-3.1c0.1-0.4,0.3-0.9,0.4-1.4
		c0.9-4.3-3.3-6-3.6-5.5c-0.3,0.5,2.1,1.4,1.4,3.3c-0.3,0.8-0.9,0.8-1.2,0.9c-0.6,0.1-0.9,0.2-1.1,0.4c-0.9,0.4-1.5,1.3-1.7,2.4
		c-0.1,0.6,0,1.2,0.1,1.7c0.7,2.1,0.7,3.5-1,3.7c-2.4,0.2-2.3-3.1-1.5-3.6c0.3-0.2,0.1-0.3,0.1-0.3s-0.7-0.3-1.9,0.4
		c-0.5,0.3-1.3,1-1.9,2.9c-0.5,1.7-0.6,3.9,0.7,6.1c1.4,2.4,3.2,2.3,5,3c4.7,2,2.7,6.1,0.4,6.4c-1.7,0.2-2.7-0.8-3.3-2.3
		c-0.4-0.8-0.4-0.9-0.7-1.8c-0.9-3.2-3.6-0.8-6.2-1.8c-2-0.9-2-2.2-1.6-3.3c0.4-1.1,1.8-2.2,1.9-2.2c0.1-0.1,0.1-0.1-0.1-0.1
		c-3.3,0.7-5.5,3.8-3.8,7.5c0.8,1.7,3.6,2.8,3.6,2.8c1.2,0.4,2.4,1.7,2.4,2.8c0,1.4-1.1,2.5-2.4,2.5c-1.6,0-2.2-1.1-2.5-1.6
		c-0.5-1.1-0.7-2.8-0.4-3.3c0.2-0.3,0-0.3,0-0.3s-1.4,0.2-1.6,3.9c-0.1,3.4,2,5.9,5.5,9.1c2.8,2.5,3,5.2,2.8,6.7
		c-0.3,2.8-2.3,5.7-7.3,5c-6.1-0.8-5.2-10.4,0.3-9.8c2.9,0.3,4.2,2.6,4.3,2.8c0.1,0.2,0.1,0,0.1-0.1c0-1.3-1.4-4-3.7-5.1
		c-2.2-1.1-4.6-0.3-5.8,0.1c-0.4,0.1-1.9,0.2-2.5-1.3c-0.9-2.2,0.9-2.5,1.6-4.2c0.7-1.6,0.9-3.6-0.2-5.2c-1.4-1.9-4.2-1.7-4.2-1.7
		s-0.5,0.1-0.3,0.3c0.4,0.4,2.7,1.8,2.1,3.1c-1.1,2.5-3.4,2.1-3.4,4.6c0,2.5,1.7,5.7,0,6.3c-3,1.2-1.7-3.1-1.7-3.1s0-0.1,0-0.1
		c-0.4,0-2.2,0-3.1,2.9c-1,3,1.4,4.2,1.8,6.1c0.4,1.9-0.3,1-0.4,4.1c-0.2,3,1.1,5.2,3.2,8c3.5,4.6,0.9,9.1-2.2,8.8
		c-5.1-0.5-1.2-5.6-1.9-8.1c-0.6-1.9-1.9-2.3-3-2.3c-0.8,0-1.4,0.1-1.4,0.1s-0.1,0.1,0.1,0.1c0.4,0,1.7,0.6,1.6,1.9
		c-0.2,1.3-2,1.9-3.3,0.5c-1.2-1.3,0.8-2.8,2-4.2c0.3-0.3,2.2-2.5,0.4-5.3c-1.3-1.9-4.9-1.7-5.4-1.6c-0.2,0-0.1,0.1-0.1,0.1
		s2.2,0.8,2,2.9c-0.1,1.2-1.6,2-2.7,2.6c-0.6,0.3-2.8,1.2-2.9,4.6c0,1.3,0.5,2.5,1.4,3.5c0.2,0.2,1.1,0.9,1.2,1
		c2.3,1.8,3.3,3.8,2.3,5.1c-0.2,0.3-0.5,0.5-0.9,0.7h0c-0.2,0.1-0.4,0.2-0.7,0.3c-0.8,0.2-1.5,0.2-2-0.1c-2.3-1.4-1.4-3.5-0.9-3.9
		c0.1,0,0.1-0.1,0-0.1c-2,0.2-3.6,2-3.6,4.1c0,0.5,0.1,1,0.2,1.3c0.1,0.3,0.4,0.8,0.6,1.1c0.1,0.2,0.2,0.3,0.2,0.3c0,0,0,0,0,0
		s-0.1,0.1-0.1,0.2c0,0.1-0.1,0.2-0.1,0.3c0,0.1-0.1,0.1-0.1,0.2c-0.1,0.3-0.2,0.6-0.3,1c0,0,0,0.1,0,0.1c-0.1,0.4-0.1,0.8-0.1,1.2
		c0,2,0.9,3.7,2.4,4.9c0,0,0,0,0,0c0.3,0.2,0.7,0.4,1,0.6c0,0,0,0,0,0c2,1.2,4.2,2.3,4.6,4.3c0.5,2.3-0.5,5.3-3.2,5.4
		c-3,0.2-4.1-1.4-4.7-5.2c-0.7-4.3-3.1-4.4-3.7-4.1c0,0-0.1,0.1,0.1,0c0.2,0,0.6,0.2,0.9,0.9c0.4,1.1-1,1.8-2.1,1.5
		c-0.3-0.1-0.5-0.2-0.7-0.4c-1.4-1.3-0.4-2.5,0.5-3.6c0.5-0.8,1-1.6,0.7-2.6c-0.6-1.9-2.1-2-2.6-2c-0.2,0-0.2,0-0.1,0.1
		c0.8,0.3,1.4,0.9,1.4,1.7c0,0.5-0.3,1-0.7,1.3c-0.4,0.3-0.9,0.4-1.4,0.5c-1.1,0.2-2.1,1.1-2.4,2.2c-0.1,0.4-0.2,0.7-0.2,1
		c0,0.7,0.2,1.2,0.5,1.6c0.1,0.2,0.3,0.4,0.5,0.6c0.2,0.2,0.3,0.3,0.5,0.5c1.3,1.2,0.7,2.4,0.6,2.7c-0.4,0.9-1.4,1.1-2.2,0.8
		c-0.8-0.3-1.1-1.3-0.7-2.2c0.1-0.3,0.2-0.4,0.4-0.6c0,0,0.1-0.1,0.1-0.1c0,0,0-0.1,0-0.1s-1.7-0.5-2,1.9c-0.3,2.2,2.2,3.8,2.2,3.8
		s-0.7,2,0.8,4.1c0.6,0.8,1.4,1.3,2.6,1.6c1.3,0.3,1.5,1.4,1.4,2.2c-0.1,0.7-1.3,1.4-2.5,1.2c-1.2-0.2-2.1-1-2-2
		c0,0,0.1-0.7,0.1-0.7c0-0.4-0.2-0.3-0.3-0.2c0,0-2.5,3.4,1.5,4.7c1.9,0.6,6.4,0.1,9.4,1.4c1.5,0.7,2.2,2.2,1.8,3.5
		c-0.8,2.6-3.6,2.7-5,1.4c-0.5-0.5-0.8-1.3-1-2c-0.9-3.1-4.1-0.5-4.2-0.3c-0.1,0.2,0.2,0.1,0.3,0.1c0.1,0,0.4-0.3,0.7-0.3
		c0.8,0,1,0.5,1,1.1c0,0.7-1,1.4-2.5,0.6c-0.5-0.3-0.9-0.9-1.2-1.4c0,0-0.1-0.1-0.1-0.1c-0.4-0.6-1.2-1-2.2-1c0,0-0.7,0-1.5,0.4
		c-0.9,0.4-1.2-0.6-1.1-1c0-0.2-0.1-0.1-0.1-0.1s-0.2,0.1-0.4,0.4c-0.1,0.3-0.2,0.6-0.2,0.8c0,0.8,0.5,1.5,1.3,1.6
		c0.5,0,0.5,0,0.9,0c0.6,0.1,0.9,0.5,0.9,0.5c0.7,0.8,0.5,1.1,0.7,1.8c0.4,1.8,1.6,3.8,4.1,5.4c1.4,0.9,12.6,9.1,27.8,11.7
		c5.4,0.9,11.5,1,15.3,1c0,0,3.4,0,3.7,0c3.9,0,7.1,0.6,9.1,1.8c0.5,0.3,1,0.7,1.4,1.1c0.1,0.1,0.2,0.2,0.2,0.2
		c0.1-0.1,0.1-0.2,0.2-0.3c0.1-0.1,1.8-2.5,8.2-2.8c0.4,0,9.4,0,13-0.1c2.7-0.1,5.5-0.3,8.1-0.7c13.7-2.4,24-8.5,27.8-11.8
		c1.8-1.5,2.6-4,2.2-5c-0.4-1-0.6-1.5-0.4-2.2c0.1-0.3,0.3-0.7,0.6-0.9l0,0c0.3-0.3,0.6-0.5,1-0.7
		C228.2,133.4,227.4,131.1,227.2,131.1z"/>
	<g id="XMLID_19_">
		<g>
			<path class="st47" d="M199.8,137.1c0.1,0.1,0.2,0.3,0.2,0.5c0,0.5-0.4,0.8-0.8,0.8c0,0,0,0,0,0H166c0,0,0,0,0,0h-33.2
				c-0.3,0-0.6-0.2-0.7-0.4c-0.1-0.3-0.1-0.6,0-0.8l16.6-28.8l16.6-28.8c0.1-0.3,0.4-0.4,0.7-0.4c0.3,0,0.6,0.2,0.7,0.4l16.5,28.6
				c0.1,0.1,0.1,0.2,0.2,0.3L199.8,137.1z M197.7,136.8l-15.2-26.3l-15.2,26.3H197.7z M181.1,108.1l-15.2-26.3l-15.2,26.3H181.1z
				 M165.9,136l15.2-26.3h-30.3L165.9,136z M164.5,136.8l-15.2-26.3l-15.2,26.3H164.5z"/>
			<polygon class="st6" points="182.6,110.6 197.7,136.8 167.4,136.8 			"/>
			<polygon class="st8" points="165.9,81.8 181.1,108.1 150.8,108.1 			"/>
			<polygon class="st7" points="149.3,110.6 164.5,136.8 134.2,136.8 			"/>
		</g>
	</g>
	<path d="M65.5,307.1c0-1.7,1.5-3,5.9-3.7V303c0-1.2-0.6-1.8-1.8-1.8c-1.4,0-2.4,0.6-3.3,1.4l-0.6-0.7c1-1,2.3-1.6,4-1.6
		c2,0,2.8,1,2.8,2.8v4c0,1.1,0.1,1.7,0.2,2.2h-1.2c-0.1-0.4-0.2-0.7-0.2-1.2c-1,0.9-2.1,1.4-3.5,1.4
		C66.4,309.3,65.5,308.5,65.5,307.1z M71.4,307v-2.7c-3.8,0.6-4.8,1.6-4.8,2.7c0,0.9,0.6,1.4,1.6,1.4
		C69.4,308.3,70.5,307.8,71.4,307z"/>
	<path d="M75.1,300.4h1.1v1.7h0c0.7-1.1,1.7-1.9,3.5-1.9H80l-0.1,1.1c0,0-0.3,0-0.3,0c-1.4,0-2.6,0.8-3.2,2.2v5.7h-1.1V300.4z"/>
	<path d="M82.8,307.1v-5.7h-1.5v-1h1.5v-3.1h1.1v3.1h2.3v1h-2.3v5.5c0,0.9,0.3,1.4,1.4,1.4c0.3,0,0.7,0,0.9-0.1v1
		c-0.3,0-0.7,0.1-1.1,0.1C83.4,309.3,82.8,308.6,82.8,307.1z"/>
	<rect x="94.6" y="302.5" width="3.3" height="3.3"/>
	<rect x="191.6" y="302.5" width="3.3" height="3.3"/>
</g>
</svg>
