<?xml version="1.0" encoding="utf-8"?>
<!-- Generator: Adobe Illustrator 23.0.6, SVG Export Plug-In . SVG Version: 6.00 Build 0)  -->
<svg version="1.1" id="Layer_1" xmlns="http://www.w3.org/2000/svg" xmlns:xlink="http://www.w3.org/1999/xlink" x="0px" y="0px"
	 viewBox="0 0 1326.8 502.5" style="enable-background:new 0 0 1326.8 502.5;" xml:space="preserve">
<style type="text/css">
	.st0{fill:none;}
	.st1{fill:#BE1E2D;}
	.st2{clip-path:url(#SVGID_2_);}
	.st3{opacity:0.3;}
	.st4{clip-path:url(#SVGID_4_);}
	.st5{fill:#FFFFFF;}
	.st6{fill:#F299C1;}
	.st7{fill:#6ECEF5;}
	.st8{fill:#FDF49B;}
	.st9{fill:#7D644D;}
	.st10{fill:#4890A6;}
	.st11{fill:#E572A7;}
	.st12{fill:#594734;}
	.st13{opacity:0.7;}
	.st14{fill:#846F2C;}
	.st15{clip-path:url(#SVGID_6_);fill:#FFFFFF;}
	.st16{clip-path:url(#SVGID_6_);fill:#F299C1;}
	.st17{clip-path:url(#SVGID_6_);fill:#6ECEF5;}
	.st18{clip-path:url(#SVGID_6_);fill:#FDF49B;}
	.st19{clip-path:url(#SVGID_8_);fill:#FFFFFF;}
	.st20{clip-path:url(#SVGID_8_);fill:#F299C1;}
	.st21{clip-path:url(#SVGID_8_);fill:#6ECEF5;}
	.st22{clip-path:url(#SVGID_8_);fill:#FDF49B;}
	.st23{clip-path:url(#SVGID_8_);}
	.st24{clip-path:url(#SVGID_10_);}
	.st25{fill:none;stroke:#000000;stroke-width:4;stroke-miterlimit:10;}
	.st26{clip-path:url(#SVGID_12_);}
	.st27{clip-path:url(#SVGID_14_);fill:#FFFFFF;}
	.st28{clip-path:url(#SVGID_14_);fill:#F299C1;}
	.st29{clip-path:url(#SVGID_14_);fill:#6ECEF5;}
	.st30{clip-path:url(#SVGID_14_);fill:#FDF49B;}
	.st31{clip-path:url(#SVGID_16_);}
	.st32{clip-path:url(#SVGID_18_);fill:#FFFFFF;}
	.st33{clip-path:url(#SVGID_18_);fill:#F299C1;}
	.st34{clip-path:url(#SVGID_18_);fill:#6ECEF5;}
	.st35{clip-path:url(#SVGID_18_);fill:#FDF49B;}
	.st36{clip-path:url(#SVGID_20_);fill:#FFFFFF;}
	.st37{clip-path:url(#SVGID_20_);fill:#F299C1;}
	.st38{clip-path:url(#SVGID_20_);fill:#6ECEF5;}
	.st39{clip-path:url(#SVGID_20_);fill:#FDF49B;}
	.st40{clip-path:url(#SVGID_20_);}
	.st41{clip-path:url(#SVGID_22_);}
	.st42{clip-path:url(#SVGID_24_);fill:#FFFFFF;}
	.st43{clip-path:url(#SVGID_24_);fill:#F299C1;}
	.st44{clip-path:url(#SVGID_24_);fill:#6ECEF5;}
	.st45{clip-path:url(#SVGID_24_);fill:#FDF49B;}
	.st46{opacity:0.92;fill:url(#SVGID_25_);}
	.st47{fill:#231F20;}
	.st48{fill:#FCEE23;}
	.st49{fill:none;stroke:#FFFFFF;stroke-width:0.275;stroke-miterlimit:10;}
	.st50{fill:#FCEE1F;}
	.st51{opacity:0.92;fill:url(#SVGID_26_);}
	.st52{fill:url(#SVGID_27_);}
	.st53{opacity:0.92;fill:url(#SVGID_28_);}
	.st54{opacity:0.92;fill:url(#SVGID_29_);}
	.st55{opacity:0.92;fill:url(#SVGID_30_);}
	.st56{opacity:0.92;fill:url(#SVGID_31_);}
	.st57{opacity:0.92;fill:url(#SVGID_32_);}
	.st58{opacity:0.92;fill:url(#SVGID_33_);}
	.st59{opacity:0.92;fill:url(#SVGID_35_);}
	.st60{fill:#EEEDEE;}
	.st61{opacity:0.92;fill:url(#SVGID_36_);}
	.st62{opacity:0.92;fill:url(#SVGID_37_);}
	.st63{clip-path:url(#SVGID_38_);}
	.st64{opacity:0.92;fill:url(#SVGID_39_);}
	.st65{opacity:0.92;fill:url(#SVGID_40_);}
	.st66{opacity:0.92;fill:url(#SVGID_41_);}
	.st67{opacity:0.92;fill:url(#SVGID_42_);}
	.st68{opacity:0.92;fill:url(#SVGID_43_);}
	.st69{fill:none;stroke:#000000;stroke-width:6;stroke-miterlimit:10;}
</style>
<g>
	<defs>
		<rect id="SVGID_1_" x="1174.9" y="-1124.7" width="723" height="786.3"/>
	</defs>
	<clipPath id="SVGID_2_">
		<use xlink:href="#SVGID_1_"  style="overflow:visible;"/>
	</clipPath>
	<g id="fP5HP7_3_" class="st2">
		
			<image style="overflow:visible;" width="2205" height="2972" id="fP5HP7_4_" xlink:href="E9DA7F42D458A302.png"  transform="matrix(0.3913 0 0 0.3913 1099.7294 -1161.8279)">
		</image>
	</g>
</g>
<g>
	<g>
		<defs>
			<rect id="SVGID_7_" width="1326.8" height="502.5"/>
		</defs>
		<clipPath id="SVGID_4_">
			<use xlink:href="#SVGID_7_"  style="overflow:visible;"/>
		</clipPath>
		<path style="clip-path:url(#SVGID_4_);fill:#FFFFFF;" d="M660.6,356.5c0-7.4-4.4-11.4-15.4-11.4h-15.5v22.7h15.2
			C655.7,367.8,660.6,363.7,660.6,356.5z"/>
		<path style="clip-path:url(#SVGID_4_);fill:#FFFFFF;" d="M645.4,382.3h-15.7v24.8h16.6c11.4,0,16.5-4.6,16.5-12.5
			C662.8,386.4,656.8,382.3,645.4,382.3z"/>
		<polygon style="clip-path:url(#SVGID_4_);fill:#F299C1;" points="713,195.8 689.2,154.5 665.4,195.8 		"/>
		<polygon style="clip-path:url(#SVGID_4_);fill:#6ECEF5;" points="637,154.5 613.2,195.8 660.8,195.8 		"/>
		<path style="clip-path:url(#SVGID_4_);fill:#FFFFFF;" d="M582.6,259.7h-8.2v14.9h8.2c6.9,0,10.2-2,10.2-7.5
			C592.8,261.7,589.5,259.7,582.6,259.7z"/>
		<polygon style="clip-path:url(#SVGID_4_);fill:#FDF49B;" points="663.1,109.4 639.3,150.6 686.9,150.6 		"/>
		<path style="clip-path:url(#SVGID_4_);fill:#FFFFFF;" d="M808,267c0-5.4-3.3-7.4-10.2-7.4h-8.2v14.9h8.2
			C804.7,274.5,808,272.5,808,267z"/>
		<polygon style="clip-path:url(#SVGID_4_);fill:#FFFFFF;" points="530.5,265 530.4,265 523.9,283.5 536.8,283.5 		"/>
		<path style="clip-path:url(#SVGID_4_);fill:#FFFFFF;" d="M729.8,277.1c0,11.4,5.2,18.6,13.7,18.6c8.4,0,13.7-7.2,13.7-18.6
			c0-11.4-5.3-18.3-13.7-18.3C735,258.8,729.8,265.7,729.8,277.1z"/>
		<path style="clip-path:url(#SVGID_4_);fill:#FFFFFF;" d="M-109.6-91.4v689.5H1836V-91.4H-109.6z M777.8,249.9h20.5
			c13.4,0,21.4,4.8,21.4,16.9c0,8.6-4,13.3-11.3,15.5l12.1,22.1h-12.7l-11.3-20.5h-6.9v20.5h-11.8V249.9z M769.1,277.1
			c0,19.1-12.5,28.3-25.6,28.3c-13.2,0-25.7-9.1-25.7-28.3c0-19.1,12.5-28.3,25.7-28.3C756.6,248.8,769.1,258,769.1,277.1z
			 M525,249.6h11.4l19.3,54.7h-12.2l-4-12.1H521l-4.2,12.1h-11L525,249.6z M478.7,329.2h76.5v17.2h-28v76.5h-20.6v-76.5h-27.9V329.2
			z M560.7,190.5c0-0.4,0.1-0.9,0.4-1.3c0.3-0.5,0.6-0.7,0.6-0.7s0.2-0.2,0.1,0.2c-0.1,0.5,0.4,2.1,1.7,1.5c1.3-0.5,2.3-0.6,2.4-0.6
			c1.4,0,2.7,0.6,3.4,1.6c0,0.1,0.1,0.1,0.1,0.2c0.5,0.8,1.1,1.8,1.8,2.2c2.4,1.3,4,0.2,4-0.9c0-0.8-0.4-1.7-1.6-1.7
			c-0.5,0-1,0.4-1.1,0.5c-0.2,0.1-0.6,0.1-0.4-0.2c0.2-0.3,5.3-4.3,6.6,0.5c0.3,1.1,0.8,2.3,1.6,3.1c2.2,2,6.6,1.9,7.8-2.2
			c0.6-2-0.5-4.4-2.9-5.5c-4.7-2-11.7-1.2-14.7-2.1c-6.2-2-2.3-7.4-2.3-7.4c0.1-0.2,0.5-0.4,0.5,0.3c0,0-0.2,1.1-0.2,1.1
			c-0.2,1.5,1.2,2.9,3.1,3.2c1.9,0.3,3.8-0.8,3.9-1.9c0.2-1.2-0.2-3-2.2-3.4c-1.9-0.4-3.1-1.1-4-2.4c-2.4-3.3-1.3-6.4-1.3-6.4
			s-3.9-2.5-3.4-6c0.5-3.6,3.2-2.9,3.2-2.9s0.1,0,0,0.1c0,0-0.2,0.1-0.2,0.2c-0.3,0.3-0.5,0.5-0.7,1c-0.6,1.4-0.1,2.9,1.2,3.5
			c1.3,0.5,2.9,0.1,3.5-1.3c0.1-0.4,1.1-2.3-1-4.2c-0.3-0.2-0.5-0.5-0.8-0.7c-0.3-0.3-0.5-0.6-0.7-0.9c-0.5-0.7-0.8-1.5-0.8-2.5
			c0-0.5,0.1-1,0.3-1.6c0.6-1.7,2-3,3.8-3.4c0.9-0.2,1.7-0.3,2.2-0.8c0.7-0.5,1.1-1.3,1.1-2.1c0-1.2-0.9-2.1-2.2-2.6
			c-0.1,0-0.2-0.1,0.2-0.1c0.8,0,3.1,0.1,4.1,3.1c0.5,1.6-0.3,2.9-1.1,4.1c-1.3,1.8-3,3.7-0.7,5.7c0.3,0.3,0.7,0.5,1.1,0.6
			c1.7,0.6,3.9-0.6,3.3-2.3c-0.4-1.1-1-1.4-1.4-1.4c-0.3,0-0.2-0.1-0.2-0.1c0.9-0.4,4.7-0.3,5.8,6.4c1,6,2.7,8.5,7.4,8.2
			c4.1-0.3,5.7-5,4.9-8.5c-0.7-3.3-4.2-5-7.3-6.8c0,0,0,0,0,0c-0.5-0.3-1.1-0.6-1.6-0.9c0,0,0,0,0,0c-2.3-1.7-3.8-4.5-3.8-7.6
			c0-0.6,0.1-1.2,0.2-1.8c0-0.1,0-0.1,0-0.2c0.1-0.6,0.3-1.2,0.5-1.6c0-0.1,0.1-0.2,0.1-0.3c0.1-0.2,0.2-0.3,0.2-0.5
			c0.1-0.2,0.2-0.4,0.2-0.4s0,0,0,0c0-0.1-0.1-0.2-0.3-0.5c-0.2-0.4-0.7-1.2-0.9-1.7c-0.2-0.5-0.4-1.4-0.4-2.1c0-3.3,2.5-6,5.7-6.4
			c0.1,0,0,0.1-0.1,0.2c-0.8,0.6-2.2,3.9,1.4,6.1c0.8,0.5,1.9,0.5,3.1,0.1c0.4-0.1,0.8-0.3,1.1-0.4h0c0.6-0.3,1.1-0.7,1.4-1.1
			c1.6-2.1-0.1-5.3-3.6-8.1c-0.2-0.2-1.5-1.1-1.9-1.5c-1.3-1.4-2.2-3.3-2.2-5.4c0.2-5.3,3.8-6.7,4.6-7.2c1.8-1,4.1-2.3,4.3-4.1
			c0.3-3.3-3.1-4.6-3.1-4.6s-0.2-0.1,0.1-0.2c0.8-0.1,6.4-0.4,8.5,2.6c2.9,4.3-0.1,7.8-0.6,8.3c-2,2.4-5,4.6-3.2,6.7
			c2,2.3,4.9,1.3,5.2-0.8c0.3-2.2-1.8-3-2.4-3c-0.3,0-0.1-0.2-0.1-0.2s0.9-0.2,2.1-0.2c1.7,0,3.8,0.6,4.7,3.6c1.2,3.9-5,12,3.1,12.7
			c4.8,0.4,8.9-6.6,3.4-13.9c-3.3-4.3-5.2-7.8-5-12.6c0.3-4.8,1.4-3.4,0.7-6.4c-0.6-3-4.4-4.9-2.9-9.7c1.4-4.5,4.1-4.6,4.8-4.5
			c0.1,0,0.1,0.2,0.1,0.2s-2.1,6.8,2.7,4.9c2.6-1,0-6,0-9.9c0-3.9,3.5-3.2,5.3-7.2c0.9-2-2.7-4.2-3.4-4.9c-0.3-0.3,0.4-0.5,0.4-0.5
			s4.4-0.4,6.7,2.6c1.8,2.5,1.5,5.6,0.4,8.1c-1.2,2.6-4,3.1-2.6,6.5c1,2.3,3.2,2.2,3.9,2c1.8-0.6,5.5-1.8,9-0.2
			c3.6,1.7,5.8,5.9,5.8,8c0,0.2,0,0.4-0.2,0.2c-0.1-0.3-2.2-4-6.7-4.4c-8.7-0.9-10.1,14.1-0.5,15.4c7.8,1.1,11-3.5,11.5-7.8
			c0.2-2.4,0-6.5-4.5-10.5c-5.5-4.9-8.8-8.9-8.6-14.2c0.2-5.9,2.4-6.2,2.4-6.2s0.3,0,0,0.5c-0.4,0.9-0.1,3.4,0.7,5.2
			c0.4,0.8,1.4,2.5,3.9,2.6c2.1,0,3.8-1.7,3.8-3.9c0-1.7-1.9-3.7-3.7-4.4c0,0-4.4-1.6-5.6-4.4c-2.6-5.8,0.7-10.6,5.9-11.8
			c0.4-0.1,0.4,0,0.2,0.1c-0.2,0.1-2.3,1.9-3,3.5c-0.7,1.7-0.7,3.9,2.4,5.2c4,1.7,8.2-2.1,9.7,2.9c0.4,1.5,0.5,1.6,1.1,2.9
			c1,2.3,2.4,3.9,5.2,3.6c3.7-0.5,6.8-6.9-0.6-10c-2.8-1.2-5.6-1-7.9-4.7c-2-3.4-1.9-6.9-1.1-9.5c0.8-3,2.1-4.1,2.9-4.6
			c2-1.1,3-0.7,3-0.7s0.3,0.1-0.1,0.4c-1.3,0.8-1.4,6,2.4,5.7c2.8-0.3,2.8-2.4,1.6-5.8c-0.3-0.8-0.4-1.7-0.2-2.7
			c0.3-1.7,1.2-3.1,2.6-3.8c0.4-0.2,0.9-0.4,1.8-0.6c0.6-0.1,1.6-0.2,2-1.4c1.1-3-2.6-4.5-2.2-5.3c0.5-0.8,7.2,1.8,5.7,8.6
			c-0.2,0.8-0.4,1.5-0.6,2.2c-0.7,2.3-1.6,3.7-1.7,4.9c-0.1,0.5,0,1,0.2,1.5c0.6,1.2,1.3,1.4,1.9,1.5c1.6,0.4,3.9-0.8,3.8-3.8
			c0-1.8-1.3-3.9,1.3-2.5c2.7,1.4,6.5,5.4,3.8,10.9c-0.8,1.7-2,2.3-3.6,3.1c-1.2,0.6-1.9,1.9-1.9,3.3c0,2,1.6,3.5,3.5,3.5
			c1.6,0,4.4-1.1,3.8-5.7c0-0.3-0.2-0.6-0.3-0.7c-0.5-0.7,0.2-0.3,0.3-0.3c0.8,0.3,8.6,4.3,3.4,12c-4.2,6.2-7,11.8-2.7,14.5
			c3.7,2.3,8.2-1,7.3-5.1c-0.4-1.6-3.6-2.3-3.1-6.8c0.5-4.1,3.7-3.4,3.7-3.4s0.3,0.2-0.2,0.6c-1.2,1.1-0.9,5.7,2.8,4.9
			c3-0.6,1.5-4.2,0-6.8c-1.4-2.6-2.4-5.9,0.4-8.6c2.1-2,4.1-1.1,4.2-1c0.1,0.1,0.1,0.2-0.2,0.1c-0.5-0.1-1.4,0.6-1.9,1.1
			c-0.6,0.7-0.7,1.5-0.6,2.3c0.2,1,1.3,1.8,2.8,2.4c1.5,0.6,2.4,2.2,2.4,3.9c0,1.4-0.5,1.9-1.4,3.1c-1,1.3-0.7,2.8,1.1,4.6
			c2.3,2.4,4,4.6,3.6,8.2c-0.6,4.6-4.8,6.7-6.5,8.8c-3.7,4.3-5.1,8.3-2.4,13.7c2.4,4.7,9.9,7.2,14.6,1.3c2.5-3.1,3.7-11.9-5.7-11
			c-3.5,0.3-4.7,3.5-4.8,4.9c0,0.3-0.1,0.2-0.2,0c-0.3-0.6-0.3-1.1-0.3-1.8c0-1.3,0.9-4.9,4.2-6.3c3.9-1.7,3.4-1.3,3.7-4.2
			c0.2-1.8,0.6-2.8,1.8-3c2.7-0.6,0,0.4,0.5,3c0.4,2.4,2.3,2.8,3.3,1c2.6-4.9-3.7-7.9-1.4-12.9c1.3-2.7,5.2-3.3,5.2-3.3
			s0.9-0.1-0.1,0.4c-0.8,0.5-2.5,2.5-2.2,4.3c0.6,3.9,5.3,3.8,5.3,8.4c0,4.8-4.6,8-2.3,10.3c1.2,1.2,2.8,0.8,3.5-0.3
			c0.7-0.9,0.8-2.1,0.4-2.7c-0.5-0.7,3.7,0.7,3.7,5.9c0,3.3-1.1,4.2-1.5,4.9c0,0,0,0,0,0c-0.1,0.3-0.2,0.6,0.1,1
			c1.2,1.2,3.3-0.9,3.8-1.7c1.3-2.2,0.2-3.5,0.3-4c0.1-0.5,2.8,0.2,2.8,4.9c0,5.4-7.5,9.2-11.3,14.4c-4.5,6.2-4.6,18.5,3.3,17.6
			c3.2-0.4-1.2-4.6,2.7-9c2.9-3.2,5.5-1.3,5.7-1.2c0.2,0.1,0,0.4-0.7,0.5c-1.5,0.3-1.7,1.9-1.5,2.9c0.2,1.4,1.5,2.8,2.8,2.7
			c1.2,0,2.3-0.4,2.9-1.8c0.7-1.5,0-4-0.6-5.7c-0.6-1.7-4.4-7.6-2.6-11.5c2-4.3,5.3-5.1,7.8-4.5c1,0.3-3.6,1.2-3.4,5.2
			c0.1,3.6,8.9,6.7,8.9,13.9c0,5-1.7,7.1-4.8,9.6c-4.4,3.5-2,6.8,1.1,6.7c4.4-0.1,3.6-5.5,2.4-6.7c-1-0.9,6,0.3,6,5.3
			c0.1,4.6-1.9,5.3-1.9,5.3s1.7,3.6-0.5,7.8c-3.1,5.9-12,6.6-8.2,14.4c1.6,3.2,8.1,5.8,10.4-3.4c0.6-2.5,0.1-3.9,2-4.9
			c2.3-1.2,4,0.8,3.2,0.7c-1.5-0.2-2.4,1-2.4,2.3c0,1,0.6,1.8,1.5,2.2c0.3,0.1,0.8,0.3,1.6,0.1c2.6-0.9,1.8-3.2,1.4-4.4
			c-1.1-3.5-1.6-7.3,0.2-9.7c2-2.8,5.4-3.2,6-2.5c0,0,0.1,0.1-0.3,0.1c-0.9-0.1-4.2,1-2.2,5.5c0.9,2.1,5.5,4.9,3.5,7.8
			c-1.2,1.8-2.8,3.9-3,4.5c-0.2,0.6-0.4,1-0.4,1.7c0,1.4,1.1,2.6,2.4,2.6c1.3,0,2.4-1.2,2.4-2.6c0-0.5,0-1-0.3-1.4
			c-0.1-0.2-0.2-0.4-0.4-0.5c-1.1-1.7,2.7-0.2,3.4,3.3c0.7,3.6-2.7,6.6-2.7,6.6s1.6,3.6-1.5,7.1c-3.1,3.5-8.6,2.5-14,5.4
			c-3.1,1.7-3.7,6.7-0.4,8.4c0,0,0.1,0,0.1,0.1c1.1,0.6,2.6,0.8,4.2,0.4c1.5-0.4,2.7-1.3,3.5-2.3c0,0,0.4-0.7,0.6-1.3
			c0.2-0.6,0.2-1.1,0.2-1.2c0.1-1.3,0.4-1.6,0.9-2.3c0.5-0.5,1.2-0.9,1.9-1c0.2,0,0.4-0.1,0.7-0.1c0.7,0,1.4,0.3,2,0.6
			c0.3,0.2,0.8,0.7,1.8,0.9c0.5,0.1,1.1-0.2,1.4-0.5c0.3-0.4,0.6-1,0.6-1.6c0-0.2-0.1-0.6,0-0.7c0.3-0.1,1.5,3.5-0.9,4.6
			c-0.6,0.3-1.2,0.7-1.6,1.1l0,0c-0.4,0.4-0.7,0.9-0.9,1.5c-0.3,1,0.1,1.9,0.6,3.4c0.6,1.7-0.6,5.6-3.4,7.9
			c-6.1,5.1-22.3,14.7-43.7,18.5c-4.1,0.7-8.6,1-12.7,1.2c-5.6,0.2-19.7,0.2-20.3,0.2c-10.2,0.6-12.8,4.3-12.9,4.5
			c-0.1,0.1-0.2,0.3-0.3,0.4c0,0-0.2-0.2-0.3-0.4c-0.6-0.7-1.3-1.3-2.1-1.8c-3.1-1.9-8.2-2.8-14.3-2.8c-0.4,0-5.7-0.1-5.7-0.1
			c-6,0-15.4-0.1-24-1.5c-23.8-4.1-41.5-17-43.6-18.4c-3.9-2.6-5.8-5.7-6.4-8.5c-0.2-1.1,0-1.6-1.1-2.9c0,0-0.5-0.6-1.5-0.7
			c-0.7-0.1-0.6,0-1.4,0C561.5,192.8,560.7,191.8,560.7,190.5z M568.7,422.9v-93.7h20.5v93.7H568.7z M592.7,304.4l-11.3-20.5h-6.9
			v20.5h-11.8v-54.5h20.5c13.4,0,21.4,4.8,21.4,16.9c0,8.6-4,13.3-11.3,15.5l12.2,22.1H592.7z M609.1,249.9h44.5v10h-16.3v44.5h-12
			v-44.5h-16.2V249.9z M648.9,422.9h-39.4v-93.7H647c17.2,0,33.4,4.2,33.4,23.2c0,13.3-8.4,19.6-17.9,21.5v0.3
			c11.4,2,20.4,8,20.4,22.9C682.9,415.9,666.3,422.9,648.9,422.9z M690.5,304.4h-12v-54.5h36v10h-24v13.3h17.1v9.5h-17.1V304.4z
			 M697.2,329.2H761v17.2h-43.2v20.1h31.3v16.3h-31.3v23.3h45.5v16.7h-66.1V329.2z M847.7,346.4h-28v76.5H799v-76.5h-27.9v-17.2
			h76.5V346.4z M388,508c-8.5,9.6-23.3,6.8-38.1,14.7c-8.5,4.5-10,18.2-1,22.8c0.1,0,0.2,0.1,0.3,0.2c3.1,1.6,7.2,2.1,11.3,1
			c4.2-1.1,7.5-3.5,9.4-6.3c0,0,1.2-2,1.6-3.5c0.4-1.5,0.5-3.1,0.6-3.4c0.3-3.5,1-4.5,2.5-6.1c1.4-1.3,3.2-2.4,5.1-2.7
			c0.6-0.1,1.2-0.2,1.8-0.2c2,0,3.8,0.7,5.4,1.8c0.9,0.6,2.3,2,4.8,2.3c1.4,0.2,2.9-0.4,3.8-1.4c0.9-1,1.7-2.6,1.6-4.2
			c0-0.5-0.2-1.7,0.1-1.8c0.8-0.3,4.2,9.5-2.3,12.6c-1.8,0.8-3.2,1.9-4.3,3l0,0c-1.2,1.2-2,2.5-2.4,4c-0.8,2.8,0.2,5.1,1.7,9.3
			c1.7,4.5-1.7,15.1-9.3,21.4c-16.6,13.8-60.6,40-119,50.4c-11.2,2-23.3,2.9-34.7,3.2c-15.2,0.5-53.5,0.5-55.4,0.6
			c-27.7,1.5-34.9,11.8-35.2,12.1c-0.3,0.4-0.6,0.8-0.9,1.2c0,0-0.6-0.7-0.8-1c-1.5-1.8-3.5-3.5-5.8-4.9c-8.5-5.2-22.2-7.7-39-7.7
			c-1.2,0-15.6-0.1-15.6-0.1c-16.3,0-42-0.2-65.3-4.2c-64.7-11.1-112.9-46.2-118.7-50.1c-10.6-7.1-15.7-15.6-17.4-23.2
			c-0.6-3,0.1-4.2-2.9-7.8c0,0-1.4-1.7-4-1.9c-1.9-0.2-1.7,0.1-3.9-0.1c-3.3-0.6-5.5-3.5-5.5-6.8c0-1.1,0.3-2.4,1-3.6
			c0.7-1.3,1.5-1.9,1.5-1.9s0.6-0.5,0.4,0.5c-0.3,1.5,1.1,5.7,4.7,4.2c3.6-1.5,6.4-1.6,6.6-1.6c3.9,0,7.3,1.7,9.2,4.3
			c0.1,0.2,0.2,0.3,0.3,0.5c1.3,2,3,4.9,5,6.1c6.4,3.6,10.8,0.4,10.9-2.5c0-2.2-1.1-4.5-4.5-4.5c-1.4,0-2.7,1.1-3,1.3
			c-0.5,0.2-1.7,0.4-1.1-0.4c0.5-0.7,14.3-11.8,18.1,1.4c0.9,2.9,2.1,6.3,4.4,8.5c5.9,5.6,17.9,5.3,21.2-6
			c1.5-5.4-1.5-12.1-7.9-14.9c-12.7-5.6-31.9-3.2-40-5.8c-16.8-5.5-6.3-20.1-6.3-20.1c0.4-0.5,1.5-1.2,1.3,0.7c0,0.1-0.6,3-0.6,3
			c-0.6,4.2,3.2,7.9,8.4,8.6c5.2,0.8,10.2-2.1,10.7-5.3c0.4-3.1-0.5-8.2-5.9-9.3c-5.2-1.1-8.5-3.1-11-6.7
			c-6.4-8.9-3.6-17.5-3.6-17.5s-10.6-6.9-9.2-16.4c1.5-9.9,8.6-7.9,8.6-7.9s0.2,0.1,0.1,0.2c-0.1,0.1-0.5,0.4-0.6,0.4
			c-0.9,0.7-1.3,1.4-1.9,2.6c-1.6,3.8-0.3,8,3.1,9.5c3.5,1.5,7.8,0.4,9.4-3.4c0.4-1,2.9-6.2-2.7-11.3c-0.7-0.6-1.5-1.3-2.2-2
			c-0.7-0.7-1.4-1.5-2-2.4c-1.2-1.8-2.1-4-2-6.9c0-1.3,0.2-2.8,0.7-4.4c1.5-4.5,5.6-8.3,10.4-9.3c2.4-0.5,4.5-0.7,6.1-2
			c1.9-1.4,3.1-3.5,3.1-5.6c0-3.2-2.5-5.7-6.1-7.1c-0.2-0.1-0.5-0.3,0.4-0.3c2.1-0.1,8.5,0.2,11.1,8.3c1.4,4.2-0.7,7.8-3.1,11
			c-3.6,4.9-8.1,10.1-2,15.6c0.9,0.8,2,1.4,3.1,1.8c4.7,1.6,10.5-1.5,8.9-6.2c-1-3-2.8-3.8-3.7-3.7c-0.8,0-0.4-0.2-0.4-0.2
			c2.5-1.2,12.8-0.7,15.7,17.5c2.6,16.2,7.4,23.1,20,22.3c11.2-0.8,15.6-13.5,13.5-23.2c-1.9-8.9-11.3-13.5-19.9-18.5
			c0,0-0.1,0-0.1,0c-1.5-0.8-2.9-1.7-4.3-2.6c0,0-0.1-0.1-0.1-0.1c-6.3-4.8-10.4-12.3-10.4-20.8c0-1.7,0.2-3.4,0.5-4.9
			c0.1-0.2,0.1-0.4,0.1-0.5c0.4-1.7,0.9-3.2,1.3-4.3c0.1-0.2,0.2-0.5,0.3-0.8c0.3-0.5,0.4-0.9,0.6-1.3c0.3-0.7,0.6-1,0.6-1s0,0,0,0
			c-0.1-0.2-0.4-0.6-0.8-1.3c-0.7-1.1-1.9-3.4-2.4-4.7c-0.5-1.3-1.1-3.7-1.1-5.7c0-9,6.8-16.4,15.5-17.4c0.3,0,0.1,0.3-0.2,0.5
			c-2.2,1.6-6,10.6,3.9,16.6c2.2,1.3,5.2,1.4,8.4,0.4c1.2-0.4,2.2-0.8,3-1.2h0c1.6-0.9,2.9-1.9,3.7-3.1c4.2-5.6-0.2-14.4-9.9-21.9
			c-0.6-0.4-4.2-3.1-5.2-4.1c-3.7-3.9-6.1-9.1-5.9-14.7c0.5-14.5,10.2-18.4,12.6-19.7c5-2.8,11.2-6.2,11.7-11.3
			c0.9-9.1-8.4-12.5-8.4-12.5s-0.6-0.4,0.3-0.5c2.1-0.3,17.5-1.2,23,7c7.9,11.8-0.4,21.3-1.5,22.6c-5.5,6.4-13.7,12.5-8.8,18.2
			c5.4,6.2,13.3,3.5,14-2c0.7-5.9-4.9-8.2-6.7-8.3c-0.7,0-0.3-0.4-0.3-0.4s2.5-0.6,5.8-0.6c4.5,0,10.5,1.8,12.8,9.8
			c3.2,10.7-13.5,32.6,8.3,34.6c13,1.2,24.2-18,9.3-37.8c-8.9-11.8-14.3-21.2-13.6-34.2c0.7-13,3.7-9.3,1.9-17.5
			c-1.7-8.2-11.9-13.4-7.8-26.3c3.8-12.3,11.2-12.5,13.1-12.3c0.3,0,0.2,0.6,0.2,0.6s-5.6,18.5,7.4,13.4c7.1-2.8-0.1-16.3-0.1-27
			c0-10.7,9.6-8.8,14.5-19.6c2.5-5.5-7.4-11.4-9.1-13.3c-0.8-0.9,1.2-1.3,1.2-1.3s12.1-1.1,18.1,7.1c5,6.8,4.1,15.1,1,22.1
			c-3.2,7.1-10.8,8.5-7,17.8c2.6,6.4,8.8,6.1,10.6,5.6c4.8-1.5,15-4.9,24.6-0.4c9.8,4.6,15.7,16.1,15.7,21.7c0,0.4-0.1,1.2-0.5,0.4
			c-0.4-0.9-5.9-10.8-18.2-12c-23.6-2.4-27.5,38.4-1.3,42c21.2,2.9,30-9.5,31.2-21.3c0.6-6.5,0-17.7-12.1-28.6
			c-14.9-13.4-23.9-24.3-23.3-38.7c0.6-16,6.6-16.9,6.6-16.9s0.8,0,0.1,1.2c-1.2,2.4-0.3,9.3,1.9,14.2c1,2.2,3.7,6.9,10.6,7
			c5.7,0.1,10.3-4.8,10.3-10.6c0-4.7-5.1-10-10.1-11.9c-0.1,0-12-4.5-15.4-11.9c-7.2-15.8,1.9-28.9,16.1-32c1.1-0.3,1.1,0,0.6,0.4
			c-0.5,0.3-6.3,5.1-8.1,9.6c-2,4.8-2,10.5,6.6,14.2c10.8,4.6,22.4-5.6,26.3,7.8c1.2,4,1.5,4.3,3,7.9c2.7,6.2,6.7,10.7,14.1,9.8
			c10-1.4,18.5-18.9-1.5-27.3c-7.6-3.2-15.4-2.6-21.4-12.9c-5.5-9.4-5.1-18.8-3.1-25.9c2.3-8.1,5.8-11.3,8-12.5
			c5.3-2.9,8.3-1.8,8.3-1.8s0.9,0.4-0.3,1.1c-3.5,2.1-3.7,16.4,6.5,15.5c7.6-0.7,7.6-6.6,4.5-15.7c-0.8-2.2-1.1-4.7-0.6-7.3
			c0.8-4.8,3.3-8.4,7.2-10.2c1-0.5,2.4-1,4.9-1.6c1.6-0.4,4.2-0.6,5.3-3.8c2.9-8.2-7.2-12.2-5.9-14.3c1.3-2.1,19.5,4.8,15.5,23.4
			c-0.5,2.2-1,4.2-1.6,5.9c-2,6.3-4.3,10.2-4.7,13.5c-0.2,1.4,0,2.7,0.7,4c1.7,3.2,3.6,3.8,5.2,4.2c4.4,1.1,10.7-2.3,10.4-10.3
			c0-5-3.5-10.6,3.5-6.8c7.2,3.9,17.8,14.7,10.3,29.7c-2.3,4.5-5.5,6.2-9.9,8.5c-3.2,1.6-5.2,5.1-5.2,8.9c0,5.3,4.3,9.6,9.7,9.6
			c4.2,0.1,12-2.9,10.4-15.6c-0.1-0.9-0.5-1.5-0.9-2c-1.3-1.8,0.6-0.8,0.7-0.8c2.1,0.9,23.5,11.6,9.1,32.7
			c-11.5,16.8-19,32.2-7.4,39.3c10.2,6.2,22.4-2.8,19.8-14c-1-4.4-9.8-6.4-8.4-18.5c1.3-11.1,10.1-9.2,10.1-9.2s0.9,0.5-0.5,1.7
			c-3.1,3-2.4,15.5,7.7,13.3c8.1-1.8,4-11.4,0.1-18.5c-3.9-7.1-6.6-16.1,1.1-23.4c5.8-5.5,11.1-2.9,11.4-2.7
			c0.3,0.2,0.2,0.5-0.6,0.4c-1.4-0.2-3.9,1.6-5.1,3.1c-1.6,2-2,3.9-1.7,6.1c0.4,2.8,3.5,4.9,7.7,6.6c4.2,1.7,6.5,5.9,6.5,10.6
			c0,3.7-1.3,5.2-3.9,8.5c-2.8,3.5-1.9,7.6,3,12.7c6.2,6.4,11,12.5,9.7,22.5c-1.6,12.6-13,18.4-17.7,23.9
			c-10.2,11.8-13.9,22.7-6.5,37.3c6.5,12.8,27,19.5,39.8,3.4c6.8-8.5,9.9-32.4-15.6-30c-9.5,0.9-12.7,9.6-13,13.3
			c-0.1,0.9-0.3,0.6-0.6,0.1c-0.7-1.6-0.8-3.1-0.8-5c0-3.5,2.5-13.4,11.5-17.2c10.7-4.5,9.2-3.5,10.1-11.4c0.5-4.9,1.5-7.6,5-8.3
			c7.2-1.5-0.1,1,1.3,8.3c1.2,6.4,6.3,7.7,9,2.7c7-13.3-10.2-21.6-3.9-35.1c3.5-7.5,14-9,14-9s2.3-0.2-0.2,1.2
			c-2.3,1.2-6.9,6.8-6.1,11.8c1.6,10.6,14.4,10.3,14.4,23c0,13-12.5,21.9-6.3,28.1c3.2,3.2,7.6,2.1,9.6-0.7c1.9-2.5,2.3-5.6,1.2-7.4
			c-1.3-2,10.2,2,10.1,16.1c0,9.1-3,11.3-4.1,13.3c0,0,0,0,0,0.1c-0.4,0.8-0.7,1.7,0.3,2.6c3.2,3.2,8.9-2.4,10.2-4.7
			c3.6-6,0.6-9.5,0.9-10.9c0.3-1.4,7.7,0.5,7.6,13.4c0,14.7-20.4,25.1-30.8,39.2c-12.2,16.8-12.4,50.5,9,48c8.8-1-3.4-12.5,7.3-24.4
			c7.9-8.8,15.1-3.6,15.5-3.3c0.4,0.3,0.1,1-2,1.4c-4.1,0.8-4.6,5.2-4.2,7.8c0.6,3.9,4.1,7.5,7.6,7.4c3.3-0.1,6.3-1,8-4.9
			c1.8-4,0.1-10.8-1.6-15.4c-1.7-4.7-12.1-20.7-7.1-31.4c5.4-11.6,14.4-13.9,21.3-12.3c2.8,0.7-9.7,3.4-9.4,14
			c0.3,9.9,24.3,18.3,24.3,37.9c0,13.5-4.5,19.3-13.1,26.2c-12,9.5-5.4,18.4,3,18.3c12-0.2,9.9-15,6.6-18.2
			c-2.6-2.5,16.2,0.8,16.4,14.5c0.2,12.6-5.2,14.5-5.2,14.5s4.6,9.9-1.4,21.3c-8.3,16-32.7,17.9-22.2,39.2
			c4.3,8.8,22.2,15.8,28.2-9.2c1.6-6.8,0.4-10.7,5.5-13.2c6.3-3.2,10.9,2.2,8.8,2c-4-0.5-6.6,2.8-6.6,6.3c0,2.7,1.7,5,4.1,5.9
			c0.9,0.3,2.3,0.8,4.3,0.2c7.1-2.4,4.8-8.6,3.7-11.9c-3.1-9.5-4.5-19.7,0.4-26.5c5.6-7.7,14.7-8.8,16.5-6.7c0,0,0.3,0.4-0.8,0.2
			c-2.4-0.3-11.4,2.7-6.1,15.1c2.5,5.8,15,13.2,9.5,21.3c-3.2,4.8-7.6,10.7-8.2,12.3c-0.6,1.6-1.2,2.8-1.2,4.5c0,3.9,2.9,7,6.5,7
			c3.6,0,6.5-3.2,6.5-7c0-1.4-0.1-2.7-0.8-3.8c-0.3-0.5-0.7-1-1-1.5c-2.9-4.6,7.3-0.6,9.3,9.1c2,9.7-7.3,17.9-7.3,17.9
			S396.6,498.4,388,508z"/>
		<g class="st4">
			<path class="st14" d="M514,464.7c-0.2-0.6-0.3-1.2-0.3-2c-1.6,1.4-3.4,2.2-5.4,2.2c-2.5,0-3.9-1.3-3.9-3.5c0-2.7,2.3-4.7,9.3-5.8
				V455c0-1.9-1-2.8-2.8-2.8c-2.2,0-3.7,0.9-5.2,2.2l-1-1.1c1.6-1.5,3.6-2.6,6.3-2.6c3.1,0,4.4,1.6,4.4,4.4v6.3
				c0,1.7,0.1,2.7,0.4,3.4H514z M527,452.3c0,0-0.5,0-0.5,0c-2.2,0-4,1.3-5.1,3.4v9h-1.8v-13.8h1.8v2.7h0.1c1.1-1.7,2.7-3,5.5-3h0.3
				L527,452.3z M536.9,464.7c-0.4,0.1-1.2,0.2-1.8,0.2c-2.6,0-3.6-1-3.6-3.4v-9h-2.4v-1.5h2.4V446h1.8v4.9h3.6v1.5h-3.6v8.7
				c0,1.5,0.5,2.2,2.2,2.2c0.5,0,1-0.1,1.4-0.2V464.7z M555.2,459.4h-5.1v-5.1h5.1V459.4z M576.2,452.3c0,0-0.5,0-0.5,0
				c-2.2,0-4,1.3-5.1,3.4v9h-1.8v-13.8h1.8v2.7h0.1c1.1-1.7,2.7-3,5.5-3h0.3L576.2,452.3z M589.2,458.1h-9.9c0,3.4,2,5.3,4.3,5.3
				c2.1,0,3.2-0.9,4.3-2.5l1.1,0.9c-1.2,1.9-2.9,3.1-5.5,3.1c-3.2,0-6-2.5-6-7.2c0-4.9,3.1-7.1,6-7.1c3.2,0,5.6,2.5,5.6,7.2V458.1z
				 M596.7,464.9c-2.5,0-4.4-1-5.4-2.5l1.2-1c1,1.2,2.4,2,4.3,2c2.4,0,3.6-0.9,3.6-2.4c0-1.5-1.1-2.1-3.8-2.7
				c-3.2-0.8-4.8-1.6-4.8-4c0-2,1.7-3.6,4.7-3.6c2.4,0,3.9,0.8,5.1,2l-1,1.2c-1-1-2.4-1.7-4-1.7c-2.1,0-3,1-3,2
				c0,1.3,0.9,1.9,3.3,2.5c3.5,0.8,5.2,1.7,5.2,4.4C602.1,463.5,599.8,464.9,596.7,464.9z M607.5,464.7h-1.8v-13.8h1.8V464.7z
				 M607.5,447.7h-1.9v-1.9h1.9V447.7z M616.2,464.9c-2.5,0-4.4-1-5.4-2.5l1.2-1c1,1.2,2.4,2,4.3,2c2.4,0,3.6-0.9,3.6-2.4
				c0-1.5-1.1-2.1-3.8-2.7c-3.2-0.8-4.8-1.6-4.8-4c0-2,1.7-3.6,4.7-3.6c2.4,0,3.9,0.8,5.1,2l-1,1.2c-1-1-2.4-1.7-4-1.7
				c-2.1,0-3,1-3,2c0,1.3,0.9,1.9,3.3,2.5c3.5,0.8,5.2,1.7,5.2,4.4C621.6,463.5,619.4,464.9,616.2,464.9z M631.1,464.7
				c-0.4,0.1-1.2,0.2-1.8,0.2c-2.6,0-3.6-1-3.6-3.4v-9h-2.4v-1.5h2.4V446h1.8v4.9h3.6v1.5h-3.6v8.7c0,1.5,0.5,2.3,2.2,2.3
				c0.5,0,1-0.1,1.4-0.2V464.7z M643,464.7c-0.2-0.6-0.3-1.2-0.3-2c-1.6,1.4-3.4,2.2-5.4,2.2c-2.5,0-3.9-1.3-3.9-3.5
				c0-2.7,2.3-4.7,9.3-5.8V455c0-1.9-1-2.8-2.8-2.8c-2.2,0-3.7,0.9-5.2,2.2l-1-1.1c1.6-1.5,3.6-2.6,6.3-2.6c3.1,0,4.4,1.6,4.4,4.4
				v6.3c0,1.7,0.1,2.7,0.4,3.4H643z M659.7,464.7h-1.8v-9.6c0-1.9-0.9-2.9-2.7-2.9c-1.8,0-3.3,0.9-4.8,2.4v10.1h-1.8v-13.8h1.8v2.2
				c1.3-1.3,3.1-2.4,5.3-2.4c2.7,0,4.1,1.5,4.1,4.1V464.7z M668.9,465c-3.2,0-6-2.6-6-7.2c0-4.9,3.1-7.2,6.1-7.2
				c3,0,4.4,1.8,5.3,3.8l-1.5,0.7c-0.8-1.9-1.9-2.9-3.8-2.9c-2,0-4.3,1.5-4.3,5.6c0,3.6,1.8,5.6,4.2,5.6c1.9,0,3-0.9,3.9-2.9
				l1.5,0.6C673.3,463.5,671.7,465,668.9,465z M688.2,458.1h-9.9c0,3.4,2,5.3,4.3,5.3c2.1,0,3.2-0.9,4.3-2.5l1.1,0.9
				c-1.2,1.9-2.9,3.1-5.5,3.1c-3.2,0-6-2.5-6-7.2c0-4.9,3.1-7.1,6-7.1c3.2,0,5.6,2.5,5.6,7.2V458.1z M707.5,459.4h-5.1v-5.1h5.1
				V459.4z M727.5,446.9c-0.2,0-0.6-0.1-0.9-0.1c-1.3,0-2.3,0.5-2.3,2v2.1h3v1.5h-3v12.2h-1.8v-12.2h-2.4v-1.5h2.4v-2.1
				c0-2.3,1.3-3.5,3.9-3.5c0.3,0,0.8,0,1,0.1V446.9z M737.6,452.3c0,0-0.5,0-0.5,0c-2.2,0-4,1.3-5.1,3.4v9h-1.8v-13.8h1.8v2.7h0.1
				c1.1-1.7,2.7-3,5.5-3h0.3L737.6,452.3z M750.6,458.1h-9.9c0,3.4,2,5.3,4.3,5.3c2.1,0,3.2-0.9,4.3-2.5l1.1,0.9
				c-1.2,1.9-2.9,3.1-5.5,3.1c-3.2,0-6-2.5-6-7.2c0-4.9,3.1-7.1,6-7.1c3.2,0,5.6,2.5,5.6,7.2V458.1z M764.8,458.1H755
				c0,3.4,2,5.3,4.3,5.3c2.1,0,3.2-0.9,4.3-2.5l1.1,0.9c-1.2,1.9-2.9,3.1-5.5,3.1c-3.2,0-6-2.5-6-7.2c0-4.9,3.1-7.1,6-7.1
				c3.2,0,5.6,2.5,5.6,7.2V458.1z M778.1,464.7c-0.2-0.5-0.3-1.3-0.3-2c-1.1,1.2-2.5,2.2-4.6,2.2c-3.2,0-5.7-2.3-5.7-7.1
				c0-4.8,2.5-7.2,5.8-7.2c1.8,0,3.4,0.9,4.4,2.1v-7.5h1.8v16c0,1.7,0.1,2.7,0.4,3.4H778.1z M789.2,465c-3.4,0-6.3-2.6-6.3-7.2
				c0-4.6,2.9-7.2,6.3-7.2c3.4,0,6.2,2.6,6.2,7.2C795.4,462.4,792.6,465,789.2,465z M818.6,464.7h-1.8v-9.6c0-1.9-0.7-2.9-2.6-2.9
				c-1.7,0-3.1,0.9-4.6,2.4v10.1h-1.8v-9.6c0-1.9-0.7-2.9-2.6-2.9c-1.6,0-3.1,0.9-4.6,2.4v10.1h-1.8v-13.8h1.8v2.2
				c1.4-1.4,3-2.4,5-2.4c2.3,0,3.4,1,3.8,2.5c1.4-1.4,3.2-2.5,5.2-2.5c2.8,0,4,1.6,4,4.1V464.7z M682.6,452.2c-2,0-3.8,1.4-4.2,4.6
				h8.1C686.3,454.1,685,452.2,682.6,452.2z M506.2,461.2c0,1.4,1,2.2,2.5,2.2c1.9,0,3.6-0.8,5-2.2V457
				C507.8,458,506.2,459.4,506.2,461.2z M744.9,452.2c-2,0-3.8,1.4-4.2,4.6h8.1C748.6,454.1,747.4,452.2,744.9,452.2z M635.1,461.2
				c0,1.4,1,2.2,2.5,2.2c1.9,0,3.6-0.8,5-2.2V457C636.8,458,635.1,459.4,635.1,461.2z M583.5,452.2c-2,0-3.8,1.4-4.2,4.6h8.1
				C587.2,454.1,586,452.2,583.5,452.2z M759.2,452.2c-2,0-3.8,1.4-4.2,4.6h8.1C762.9,454.1,761.6,452.2,759.2,452.2z M789.2,452.2
				c-2.8,0-4.4,2.4-4.4,5.6c0,3.1,1.5,5.6,4.4,5.6c2.8,0,4.4-2.3,4.4-5.6C793.6,454.8,792.1,452.2,789.2,452.2z M773.5,452.2
				c-2.4,0-4.2,1.8-4.2,5.7c0,3.8,1.9,5.5,4.2,5.5c1.7,0,3-0.9,4.3-2.2v-6.7C776.4,453,775.1,452.2,773.5,452.2z"/>
		</g>
	</g>
</g>
<g>
	<g>
		<rect x="904.1" y="230.6" class="st0" width="387.9" height="341.1"/>
		<path class="st9" d="M916.4,245.1h-1.6v-6.4h-7.2v6.4H906v-13.7h1.6v5.8h7.2v-5.8h1.6V245.1z"/>
		<path class="st9" d="M928.7,240c0,1.7-0.4,3-1.3,3.9c-0.8,0.9-2,1.4-3.5,1.4c-0.9,0-1.7-0.2-2.4-0.6c-0.7-0.4-1.3-1-1.6-1.9
			c-0.4-0.8-0.6-1.7-0.6-2.8c0-1.7,0.4-3,1.3-3.9c0.8-0.9,2-1.4,3.5-1.4c1.4,0,2.6,0.5,3.4,1.4C928.3,237.1,928.7,238.4,928.7,240z
			 M920.9,240c0,1.3,0.3,2.3,0.8,3c0.5,0.7,1.3,1,2.3,1c1,0,1.8-0.3,2.3-1s0.8-1.7,0.8-3c0-1.3-0.3-2.3-0.8-3c-0.5-0.7-1.3-1-2.3-1
			c-1,0-1.8,0.3-2.3,1C921.2,237.7,920.9,238.7,920.9,240z"/>
		<path class="st9" d="M938.5,245.1v-6.6c0-0.8-0.2-1.5-0.6-1.9c-0.4-0.4-1-0.6-1.8-0.6c-1.1,0-1.9,0.3-2.4,0.9
			c-0.5,0.6-0.7,1.5-0.7,2.9v5.4h-1.6v-10.2h1.3l0.3,1.4h0.1c0.3-0.5,0.8-0.9,1.3-1.2c0.6-0.3,1.2-0.4,1.9-0.4
			c1.2,0,2.2,0.3,2.8,0.9c0.6,0.6,0.9,1.5,0.9,2.9v6.7H938.5z"/>
		<path class="st9" d="M952.1,240c0,1.7-0.4,3-1.3,3.9c-0.8,0.9-2,1.4-3.5,1.4c-0.9,0-1.7-0.2-2.4-0.6c-0.7-0.4-1.3-1-1.6-1.9
			c-0.4-0.8-0.6-1.7-0.6-2.8c0-1.7,0.4-3,1.3-3.9c0.8-0.9,2-1.4,3.5-1.4c1.4,0,2.6,0.5,3.4,1.4C951.6,237.1,952.1,238.4,952.1,240z
			 M944.2,240c0,1.3,0.3,2.3,0.8,3c0.5,0.7,1.3,1,2.3,1c1,0,1.8-0.3,2.3-1s0.8-1.7,0.8-3c0-1.3-0.3-2.3-0.8-3c-0.5-0.7-1.3-1-2.3-1
			c-1,0-1.8,0.3-2.3,1C944.5,237.7,944.2,238.7,944.2,240z"/>
		<path class="st9" d="M959.4,234.7c0.5,0,0.9,0,1.2,0.1l-0.2,1.4c-0.4-0.1-0.8-0.1-1.1-0.1c-0.8,0-1.5,0.3-2.1,1
			c-0.6,0.7-0.9,1.5-0.9,2.5v5.5h-1.6v-10.2h1.3l0.2,1.9h0.1c0.4-0.7,0.8-1.2,1.4-1.5C958.2,234.9,958.8,234.7,959.4,234.7z"/>
		<path class="st9" d="M968.9,245.1l-0.3-1.5h-0.1c-0.5,0.6-1,1.1-1.5,1.3c-0.5,0.2-1.1,0.3-1.9,0.3c-1,0-1.8-0.3-2.4-0.8
			s-0.9-1.3-0.9-2.2c0-2.1,1.7-3.2,5-3.3l1.7-0.1v-0.6c0-0.8-0.2-1.4-0.5-1.8c-0.3-0.4-0.9-0.6-1.7-0.6c-0.9,0-1.8,0.3-2.9,0.8
			l-0.5-1.2c0.5-0.3,1.1-0.5,1.7-0.6c0.6-0.2,1.2-0.2,1.8-0.2c1.2,0,2.1,0.3,2.7,0.8s0.9,1.4,0.9,2.6v7H968.9z M965.4,244
			c1,0,1.7-0.3,2.3-0.8c0.6-0.5,0.8-1.3,0.8-2.2v-0.9l-1.6,0.1c-1.2,0-2.1,0.2-2.7,0.6s-0.8,0.9-0.8,1.6c0,0.6,0.2,1,0.5,1.3
			C964.3,243.9,964.8,244,965.4,244z"/>
		<path class="st9" d="M977.9,234.7c0.5,0,0.9,0,1.2,0.1l-0.2,1.4c-0.4-0.1-0.8-0.1-1.1-0.1c-0.8,0-1.5,0.3-2.1,1
			c-0.6,0.7-0.9,1.5-0.9,2.5v5.5h-1.6v-10.2h1.3l0.2,1.9h0.1c0.4-0.7,0.8-1.2,1.4-1.5C976.7,234.9,977.3,234.7,977.9,234.7z"/>
		<path class="st9" d="M979.4,234.9h1.7l2.2,5.8c0.5,1.3,0.8,2.3,0.9,2.9h0.1c0.1-0.3,0.3-0.9,0.5-1.6c0.3-0.8,1.1-3.1,2.5-7.1h1.7
			l-4.4,11.7c-0.4,1.2-0.9,2-1.5,2.5c-0.6,0.5-1.3,0.7-2.1,0.7c-0.5,0-0.9-0.1-1.4-0.2v-1.2c0.3,0.1,0.7,0.1,1.2,0.1
			c1.1,0,1.8-0.6,2.3-1.8l0.6-1.5L979.4,234.9z"/>
		<path class="st9" d="M999.8,245.3c-1.5,0-2.6-0.5-3.4-1.4s-1.2-2.2-1.2-3.9c0-1.7,0.4-3,1.2-4c0.8-0.9,2-1.4,3.5-1.4
			c0.5,0,1,0.1,1.5,0.2c0.5,0.1,0.9,0.2,1.2,0.4l-0.5,1.3c-0.3-0.1-0.7-0.3-1.1-0.3c-0.4-0.1-0.8-0.1-1.1-0.1c-2.1,0-3.1,1.3-3.1,4
			c0,1.3,0.3,2.2,0.8,2.9c0.5,0.7,1.3,1,2.3,1c0.9,0,1.7-0.2,2.6-0.6v1.4C1001.7,245.1,1000.8,245.3,999.8,245.3z"/>
		<path class="st9" d="M1011.8,245.1v-6.6c0-0.8-0.2-1.5-0.6-1.9c-0.4-0.4-1-0.6-1.8-0.6c-1.1,0-1.9,0.3-2.4,0.9s-0.7,1.5-0.7,2.9
			v5.4h-1.6v-14.5h1.6v4.4c0,0.5,0,1-0.1,1.3h0.1c0.3-0.5,0.7-0.9,1.3-1.2c0.6-0.3,1.2-0.4,1.9-0.4c1.3,0,2.2,0.3,2.8,0.9
			c0.6,0.6,0.9,1.5,0.9,2.8v6.7H1011.8z"/>
		<path class="st9" d="M1022.9,245.1l-0.3-1.5h-0.1c-0.5,0.6-1,1.1-1.5,1.3c-0.5,0.2-1.1,0.3-1.9,0.3c-1,0-1.8-0.3-2.4-0.8
			s-0.9-1.3-0.9-2.2c0-2.1,1.7-3.2,5-3.3l1.7-0.1v-0.6c0-0.8-0.2-1.4-0.5-1.8c-0.3-0.4-0.9-0.6-1.7-0.6c-0.9,0-1.8,0.3-2.9,0.8
			l-0.5-1.2c0.5-0.3,1.1-0.5,1.7-0.6c0.6-0.2,1.2-0.2,1.8-0.2c1.2,0,2.1,0.3,2.7,0.8s0.9,1.4,0.9,2.6v7H1022.9z M1019.3,244
			c1,0,1.7-0.3,2.3-0.8c0.6-0.5,0.8-1.3,0.8-2.2v-0.9l-1.6,0.1c-1.2,0-2.1,0.2-2.7,0.6s-0.8,0.9-0.8,1.6c0,0.6,0.2,1,0.5,1.3
			C1018.3,243.9,1018.7,244,1019.3,244z"/>
		<path class="st9" d="M1027.1,232.1c0-0.4,0.1-0.6,0.3-0.8c0.2-0.2,0.4-0.2,0.7-0.2c0.2,0,0.5,0.1,0.6,0.3c0.2,0.2,0.3,0.4,0.3,0.8
			c0,0.3-0.1,0.6-0.3,0.8c-0.2,0.2-0.4,0.3-0.6,0.3c-0.3,0-0.5-0.1-0.7-0.3C1027.2,232.7,1027.1,232.4,1027.1,232.1z M1028.8,245.1
			h-1.6v-10.2h1.6V245.1z"/>
		<path class="st9" d="M1036.7,234.7c0.5,0,0.9,0,1.2,0.1l-0.2,1.4c-0.4-0.1-0.8-0.1-1.1-0.1c-0.8,0-1.5,0.3-2.1,1
			c-0.6,0.7-0.9,1.5-0.9,2.5v5.5h-1.6v-10.2h1.3l0.2,1.9h0.1c0.4-0.7,0.8-1.2,1.4-1.5C1035.5,234.9,1036.1,234.7,1036.7,234.7z"/>
		<path class="st9" d="M1044.6,245.3c-0.7,0-1.3-0.1-1.8-0.4c-0.6-0.2-1-0.6-1.4-1.1h-0.1c0.1,0.6,0.1,1.2,0.1,1.7v4.2h-1.6v-14.8
			h1.3l0.2,1.4h0.1c0.4-0.6,0.9-1,1.4-1.2s1.1-0.4,1.8-0.4c1.4,0,2.4,0.5,3.1,1.4c0.7,0.9,1.1,2.2,1.1,3.9c0,1.7-0.4,3-1.1,3.9
			S1046,245.3,1044.6,245.3z M1044.4,236c-1,0-1.8,0.3-2.3,0.9c-0.5,0.6-0.7,1.5-0.7,2.8v0.3c0,1.4,0.2,2.5,0.7,3.1s1.2,0.9,2.3,0.9
			c0.9,0,1.6-0.4,2.1-1.1c0.5-0.7,0.8-1.7,0.8-3c0-1.3-0.3-2.3-0.8-2.9C1046,236.3,1045.3,236,1044.4,236z"/>
		<path class="st9" d="M1055.9,245.3c-1.5,0-2.7-0.5-3.6-1.4c-0.9-0.9-1.3-2.2-1.3-3.8c0-1.7,0.4-3,1.2-3.9c0.8-1,1.9-1.5,3.3-1.5
			c1.3,0,2.3,0.4,3,1.3s1.1,2,1.1,3.3v1h-7.1c0,1.2,0.3,2.1,0.9,2.7c0.6,0.6,1.4,0.9,2.4,0.9c1.1,0,2.2-0.2,3.3-0.7v1.4
			c-0.5,0.2-1.1,0.4-1.6,0.5C1057.2,245.3,1056.6,245.3,1055.9,245.3z M1055.5,236c-0.8,0-1.5,0.3-2,0.8c-0.5,0.5-0.8,1.3-0.9,2.2
			h5.4c0-1-0.2-1.7-0.7-2.2C1056.9,236.2,1056.3,236,1055.5,236z"/>
		<path class="st9" d="M1067,234.7c0.5,0,0.9,0,1.2,0.1l-0.2,1.4c-0.4-0.1-0.8-0.1-1.1-0.1c-0.8,0-1.5,0.3-2.1,1
			c-0.6,0.7-0.9,1.5-0.9,2.5v5.5h-1.6v-10.2h1.3l0.2,1.9h0.1c0.4-0.7,0.8-1.2,1.4-1.5C1065.8,234.9,1066.4,234.7,1067,234.7z"/>
		<path class="st9" d="M1076.8,242.3c0,1-0.4,1.7-1.1,2.2c-0.7,0.5-1.7,0.8-3,0.8c-1.4,0-2.4-0.2-3.2-0.6v-1.4
			c0.5,0.2,1,0.4,1.6,0.6c0.6,0.1,1.1,0.2,1.6,0.2c0.8,0,1.4-0.1,1.9-0.4c0.4-0.3,0.7-0.7,0.7-1.2c0-0.4-0.2-0.7-0.5-1
			c-0.3-0.3-1-0.6-2-1c-1-0.4-1.6-0.7-2-0.9c-0.4-0.3-0.7-0.6-0.9-0.9s-0.3-0.7-0.3-1.2c0-0.8,0.3-1.5,1-2c0.7-0.5,1.6-0.7,2.8-0.7
			c1.1,0,2.2,0.2,3.2,0.7l-0.6,1.3c-1-0.4-2-0.6-2.8-0.6c-0.7,0-1.3,0.1-1.7,0.3s-0.6,0.5-0.6,1c0,0.3,0.1,0.5,0.2,0.7
			s0.4,0.4,0.7,0.6c0.3,0.2,0.9,0.4,1.8,0.8c1.2,0.4,2,0.9,2.5,1.3C1076.5,241.1,1076.8,241.6,1076.8,242.3z"/>
		<path class="st9" d="M1088.1,240c0,1.7-0.4,3-1.3,3.9c-0.8,0.9-2,1.4-3.5,1.4c-0.9,0-1.7-0.2-2.4-0.6c-0.7-0.4-1.3-1-1.6-1.9
			c-0.4-0.8-0.6-1.7-0.6-2.8c0-1.7,0.4-3,1.3-3.9c0.8-0.9,2-1.4,3.5-1.4c1.4,0,2.6,0.5,3.4,1.4
			C1087.7,237.1,1088.1,238.4,1088.1,240z M1080.3,240c0,1.3,0.3,2.3,0.8,3c0.5,0.7,1.3,1,2.3,1c1,0,1.8-0.3,2.3-1s0.8-1.7,0.8-3
			c0-1.3-0.3-2.3-0.8-3c-0.5-0.7-1.3-1-2.3-1c-1,0-1.8,0.3-2.3,1C1080.6,237.7,1080.3,238.7,1080.3,240z"/>
		<path class="st9" d="M1097.9,245.1v-6.6c0-0.8-0.2-1.5-0.6-1.9c-0.4-0.4-1-0.6-1.8-0.6c-1.1,0-1.9,0.3-2.4,0.9
			c-0.5,0.6-0.7,1.5-0.7,2.9v5.4h-1.6v-10.2h1.3l0.3,1.4h0.1c0.3-0.5,0.8-0.9,1.3-1.2c0.6-0.3,1.2-0.4,1.9-0.4
			c1.2,0,2.2,0.3,2.8,0.9c0.6,0.6,0.9,1.5,0.9,2.9v6.7H1097.9z"/>
		<path class="st9" d="M1109.2,242.3c0,1-0.4,1.7-1.1,2.2c-0.7,0.5-1.7,0.8-3,0.8c-1.4,0-2.4-0.2-3.2-0.6v-1.4
			c0.5,0.2,1,0.4,1.6,0.6c0.6,0.1,1.1,0.2,1.6,0.2c0.8,0,1.4-0.1,1.9-0.4c0.4-0.3,0.7-0.7,0.7-1.2c0-0.4-0.2-0.7-0.5-1
			c-0.3-0.3-1-0.6-2-1c-1-0.4-1.6-0.7-2-0.9c-0.4-0.3-0.7-0.6-0.9-0.9s-0.3-0.7-0.3-1.2c0-0.8,0.3-1.5,1-2c0.7-0.5,1.6-0.7,2.8-0.7
			c1.1,0,2.2,0.2,3.2,0.7l-0.6,1.3c-1-0.4-2-0.6-2.8-0.6c-0.7,0-1.3,0.1-1.7,0.3s-0.6,0.5-0.6,1c0,0.3,0.1,0.5,0.2,0.7
			s0.4,0.4,0.7,0.6c0.3,0.2,0.9,0.4,1.8,0.8c1.2,0.4,2,0.9,2.5,1.3C1109,241.1,1109.2,241.6,1109.2,242.3z"/>
		<path class="st9" d="M1116.6,232.1c0-0.4,0.1-0.6,0.3-0.8c0.2-0.2,0.4-0.2,0.7-0.2c0.2,0,0.5,0.1,0.6,0.3c0.2,0.2,0.3,0.4,0.3,0.8
			c0,0.3-0.1,0.6-0.3,0.8c-0.2,0.2-0.4,0.3-0.6,0.3c-0.3,0-0.5-0.1-0.7-0.3C1116.7,232.7,1116.6,232.4,1116.6,232.1z M1118.3,245.1
			h-1.6v-10.2h1.6V245.1z"/>
		<path class="st9" d="M1128.6,245.1v-6.6c0-0.8-0.2-1.5-0.6-1.9c-0.4-0.4-1-0.6-1.8-0.6c-1.1,0-1.9,0.3-2.4,0.9
			c-0.5,0.6-0.7,1.5-0.7,2.9v5.4h-1.6v-10.2h1.3l0.3,1.4h0.1c0.3-0.5,0.8-0.9,1.3-1.2c0.6-0.3,1.2-0.4,1.9-0.4
			c1.2,0,2.2,0.3,2.8,0.9c0.6,0.6,0.9,1.5,0.9,2.9v6.7H1128.6z"/>
		<path class="st9" d="M1137.4,245.3c-1.5,0-2.6-0.5-3.4-1.4s-1.2-2.2-1.2-3.9c0-1.7,0.4-3,1.2-4c0.8-0.9,2-1.4,3.5-1.4
			c0.5,0,1,0.1,1.5,0.2c0.5,0.1,0.9,0.2,1.2,0.4l-0.5,1.3c-0.3-0.1-0.7-0.3-1.1-0.3c-0.4-0.1-0.8-0.1-1.1-0.1c-2.1,0-3.1,1.3-3.1,4
			c0,1.3,0.3,2.2,0.8,2.9c0.5,0.7,1.3,1,2.3,1c0.9,0,1.7-0.2,2.6-0.6v1.4C1139.3,245.1,1138.4,245.3,1137.4,245.3z"/>
		<path class="st9" d="M1144,245.1h-1.6v-14.5h1.6V245.1z"/>
		<path class="st9" d="M1148.7,234.9v6.6c0,0.8,0.2,1.5,0.6,1.9c0.4,0.4,1,0.6,1.8,0.6c1.1,0,1.9-0.3,2.4-0.9s0.7-1.5,0.7-2.9v-5.4
			h1.6v10.2h-1.3l-0.2-1.4h-0.1c-0.3,0.5-0.8,0.9-1.3,1.2c-0.6,0.3-1.2,0.4-1.9,0.4c-1.2,0-2.2-0.3-2.8-0.9
			c-0.6-0.6-0.9-1.5-0.9-2.8v-6.7H1148.7z"/>
		<path class="st9" d="M1166,243.7L1166,243.7c-0.8,1-1.9,1.6-3.3,1.6c-1.3,0-2.4-0.5-3.1-1.4c-0.7-0.9-1.1-2.2-1.1-3.9
			s0.4-3,1.1-3.9c0.7-0.9,1.8-1.4,3.1-1.4c1.4,0,2.5,0.5,3.2,1.5h0.1l-0.1-0.7l0-0.7v-4.2h1.6v14.5h-1.3L1166,243.7z M1162.9,244
			c1.1,0,1.8-0.3,2.3-0.9c0.5-0.6,0.7-1.5,0.7-2.8V240c0-1.5-0.2-2.5-0.7-3.1c-0.5-0.6-1.3-0.9-2.3-0.9c-0.9,0-1.6,0.4-2.1,1.1
			c-0.5,0.7-0.7,1.7-0.7,3c0,1.3,0.2,2.3,0.7,3S1162,244,1162.9,244z"/>
		<path class="st9" d="M1175.1,245.3c-1.5,0-2.7-0.5-3.6-1.4c-0.9-0.9-1.3-2.2-1.3-3.8c0-1.7,0.4-3,1.2-3.9c0.8-1,1.9-1.5,3.3-1.5
			c1.3,0,2.3,0.4,3,1.3s1.1,2,1.1,3.3v1h-7.1c0,1.2,0.3,2.1,0.9,2.7c0.6,0.6,1.4,0.9,2.4,0.9c1.1,0,2.2-0.2,3.3-0.7v1.4
			c-0.5,0.2-1.1,0.4-1.6,0.5C1176.4,245.3,1175.8,245.3,1175.1,245.3z M1174.7,236c-0.8,0-1.5,0.3-2,0.8c-0.5,0.5-0.8,1.3-0.9,2.2
			h5.4c0-1-0.2-1.7-0.7-2.2C1176.1,236.2,1175.5,236,1174.7,236z"/>
		<path class="st9" d="M1181.3,235.9c0-0.8,0.4-1.3,1.1-1.3c0.8,0,1.1,0.4,1.1,1.3c0,0.4-0.1,0.7-0.3,0.9c-0.2,0.2-0.5,0.3-0.8,0.3
			c-0.3,0-0.6-0.1-0.8-0.3S1181.3,236.3,1181.3,235.9z M1181.3,244.1c0-0.4,0.1-0.7,0.3-0.9c0.2-0.2,0.5-0.3,0.8-0.3
			c0.4,0,0.6,0.1,0.8,0.3c0.2,0.2,0.3,0.5,0.3,0.9c0,0.4-0.1,0.7-0.3,0.9c-0.2,0.2-0.5,0.3-0.8,0.3c-0.3,0-0.6-0.1-0.8-0.3
			S1181.3,244.6,1181.3,244.1z"/>
		<path class="st9" d="M911.6,256.6c-1.1,0-1.9,0.4-2.5,1.2c-0.6,0.8-0.9,2-0.9,3.4c0,3,1.1,4.6,3.4,4.6c1,0,2.1-0.2,3.5-0.7v2.4
			c-1.1,0.5-2.4,0.7-3.8,0.7c-2,0-3.5-0.6-4.6-1.8c-1.1-1.2-1.6-2.9-1.6-5.2c0-1.4,0.3-2.7,0.8-3.7c0.5-1.1,1.3-1.9,2.2-2.5
			s2.1-0.9,3.4-0.9c1.3,0,2.7,0.3,4,1l-0.9,2.4c-0.5-0.2-1-0.5-1.5-0.6C912.7,256.7,912.1,256.6,911.6,256.6z"/>
		<path class="st9" d="M922.5,268.3c-1.7,0-3-0.5-3.9-1.4c-0.9-0.9-1.4-2.2-1.4-3.9c0-1.8,0.4-3.1,1.3-4.1c0.9-1,2.1-1.4,3.6-1.4
			c1.5,0,2.6,0.4,3.5,1.3c0.8,0.8,1.2,2,1.2,3.5v1.4h-6.7c0,0.8,0.3,1.4,0.7,1.9s1.1,0.7,1.9,0.7c0.6,0,1.2-0.1,1.8-0.2
			c0.6-0.1,1.1-0.3,1.8-0.6v2.2c-0.5,0.2-1,0.4-1.6,0.6C924.1,268.2,923.4,268.3,922.5,268.3z M922.1,259.5c-0.6,0-1.1,0.2-1.4,0.6
			c-0.3,0.4-0.5,0.9-0.6,1.6h4c0-0.7-0.2-1.2-0.6-1.6C923.2,259.7,922.7,259.5,922.1,259.5z"/>
		<path class="st9" d="M927.6,257.6h3.1l2,5.9c0.2,0.5,0.3,1.1,0.3,1.8h0.1c0.1-0.6,0.2-1.2,0.4-1.8l1.9-5.9h3.1l-4.4,11.8
			c-0.4,1.1-1,1.9-1.7,2.5c-0.8,0.5-1.6,0.8-2.6,0.8c-0.5,0-1-0.1-1.4-0.2v-2.3c0.3,0.1,0.7,0.1,1.1,0.1c0.5,0,0.9-0.2,1.3-0.5
			c0.4-0.3,0.7-0.8,0.9-1.4l0.2-0.5L927.6,257.6z"/>
		<path class="st9" d="M953.6,268.1l-1-3.3h-5l-1,3.3h-3.1l4.8-13.7h3.5l4.8,13.7H953.6z M951.9,262.4c-0.9-2.9-1.4-4.6-1.5-5
			c-0.1-0.4-0.2-0.7-0.2-0.9c-0.2,0.8-0.8,2.8-1.8,5.9H951.9z"/>
		<path class="st9" d="M961.5,268.3c-1.2,0-2.2-0.5-2.9-1.4c-0.7-1-1.1-2.3-1.1-4c0-1.7,0.4-3,1.1-4c0.7-1,1.7-1.4,3-1.4
			c1.3,0,2.3,0.5,3,1.5h0.1c-0.1-0.8-0.2-1.5-0.2-2.1v-3.3h2.9v14.5h-2.2l-0.6-1.4h-0.1C963.8,267.8,962.8,268.3,961.5,268.3z
			 M962.5,266c0.7,0,1.3-0.2,1.6-0.6s0.5-1.1,0.6-2.2v-0.3c0-1.1-0.2-1.9-0.5-2.4c-0.3-0.5-0.9-0.7-1.7-0.7c-0.6,0-1.1,0.3-1.5,0.8
			c-0.4,0.5-0.5,1.3-0.5,2.4c0,1,0.2,1.8,0.5,2.3S961.9,266,962.5,266z"/>
		<path class="st9" d="M977,268.1l-0.6-1.4h-0.1c-0.5,0.6-1,1-1.5,1.3c-0.5,0.2-1.2,0.4-2,0.4c-1,0-1.8-0.3-2.4-0.9
			c-0.6-0.6-0.9-1.4-0.9-2.5c0-1.1,0.4-1.9,1.2-2.5c0.8-0.5,1.9-0.8,3.5-0.9l1.8-0.1v-0.5c0-1.1-0.5-1.6-1.6-1.6
			c-0.8,0-1.8,0.3-2.9,0.8l-0.9-1.9c1.2-0.6,2.5-0.9,4-0.9c1.4,0,2.5,0.3,3.2,0.9s1.1,1.5,1.1,2.8v7H977z M976.1,263.3l-1.1,0
			c-0.8,0-1.4,0.2-1.9,0.4c-0.4,0.3-0.6,0.7-0.6,1.3c0,0.8,0.5,1.2,1.4,1.2c0.7,0,1.2-0.2,1.6-0.6c0.4-0.4,0.6-0.9,0.6-1.5V263.3z"
			/>
		<path class="st9" d="M991.2,268.1h-2.9V262c0-0.8-0.1-1.3-0.4-1.7s-0.6-0.6-1.2-0.6c-0.7,0-1.3,0.3-1.6,0.8
			c-0.3,0.5-0.5,1.4-0.5,2.6v4.9h-2.9v-10.5h2.2l0.4,1.3h0.2c0.3-0.5,0.7-0.9,1.2-1.1c0.5-0.3,1.1-0.4,1.8-0.4
			c1.6,0,2.6,0.5,3.2,1.5h0.3c0.3-0.5,0.7-0.9,1.2-1.1c0.5-0.3,1.2-0.4,1.8-0.4c1.2,0,2.1,0.3,2.7,0.9c0.6,0.6,0.9,1.6,0.9,2.9v6.8
			h-2.9V262c0-0.8-0.1-1.3-0.4-1.7s-0.6-0.6-1.2-0.6c-0.7,0-1.2,0.2-1.6,0.7c-0.3,0.5-0.5,1.3-0.5,2.4V268.1z"/>
		<path class="st9" d="M1008,265c0,1.1-0.4,1.9-1.1,2.5c-0.7,0.6-1.9,0.8-3.3,0.8c-0.8,0-1.4-0.1-1.9-0.2c-0.5-0.1-1-0.3-1.5-0.5
			v-2.4c0.5,0.2,1.1,0.5,1.8,0.6c0.7,0.2,1.2,0.3,1.8,0.3c1,0,1.6-0.3,1.6-0.9c0-0.2-0.1-0.4-0.2-0.5c-0.1-0.1-0.4-0.3-0.7-0.5
			c-0.3-0.2-0.8-0.4-1.3-0.6c-0.8-0.3-1.4-0.6-1.8-0.9c-0.4-0.3-0.7-0.6-0.8-1c-0.2-0.4-0.3-0.8-0.3-1.4c0-0.9,0.4-1.6,1.1-2.2
			c0.7-0.5,1.7-0.8,3.1-0.8c1.3,0,2.5,0.3,3.7,0.8l-0.9,2.1c-0.5-0.2-1-0.4-1.5-0.6s-0.9-0.2-1.4-0.2c-0.8,0-1.3,0.2-1.3,0.7
			c0,0.3,0.1,0.5,0.4,0.7c0.3,0.2,0.9,0.5,1.8,0.8c0.8,0.3,1.4,0.6,1.8,0.9c0.4,0.3,0.7,0.6,0.8,1C1007.9,264,1008,264.5,1008,265z"
			/>
		<path class="st9" d="M1012,265.9l0.1,0.2c-0.2,0.6-0.4,1.3-0.7,2.2c-0.3,0.8-0.6,1.6-1,2.3h-1.2c0.2-0.6,0.4-1.4,0.6-2.4
			c0.2-1,0.3-1.7,0.4-2.3H1012z"/>
		<path class="st9" d="M1025.9,268.1l-3.3-10.7h-0.1c0.1,2.2,0.2,3.6,0.2,4.4v6.4h-2.6v-13.7h3.9l3.2,10.5h0.1l3.4-10.5h3.9v13.7
			h-2.7v-6.5c0-0.3,0-0.7,0-1.1c0-0.4,0.1-1.5,0.1-3.2h-0.1l-3.5,10.7H1025.9z"/>
		<path class="st9" d="M1044.6,268.1l-0.6-1.4h-0.1c-0.5,0.6-1,1-1.5,1.3c-0.5,0.2-1.2,0.4-2,0.4c-1,0-1.8-0.3-2.4-0.9
			c-0.6-0.6-0.9-1.4-0.9-2.5c0-1.1,0.4-1.9,1.2-2.5c0.8-0.5,1.9-0.8,3.5-0.9l1.8-0.1v-0.5c0-1.1-0.5-1.6-1.6-1.6
			c-0.8,0-1.8,0.3-2.9,0.8l-0.9-1.9c1.2-0.6,2.5-0.9,4-0.9c1.4,0,2.5,0.3,3.2,0.9s1.1,1.5,1.1,2.8v7H1044.6z M1043.7,263.3l-1.1,0
			c-0.8,0-1.4,0.2-1.9,0.4c-0.4,0.3-0.6,0.7-0.6,1.3c0,0.8,0.5,1.2,1.4,1.2c0.7,0,1.2-0.2,1.6-0.6c0.4-0.4,0.6-0.9,0.6-1.5V263.3z"
			/>
		<path class="st9" d="M1055.3,257.4c0.4,0,0.7,0,1,0.1l-0.2,2.7c-0.2-0.1-0.5-0.1-0.8-0.1c-0.9,0-1.6,0.2-2.1,0.7
			c-0.5,0.5-0.8,1.1-0.8,2v5.3h-2.9v-10.5h2.2l0.4,1.8h0.1c0.3-0.6,0.8-1.1,1.3-1.4C1054.1,257.6,1054.7,257.4,1055.3,257.4z"/>
		<path class="st9" d="M1058.1,254.9c0-0.9,0.5-1.4,1.6-1.4c1,0,1.6,0.5,1.6,1.4c0,0.4-0.1,0.8-0.4,1c-0.3,0.2-0.6,0.4-1.2,0.4
			C1058.6,256.3,1058.1,255.9,1058.1,254.9z M1061,268.1h-2.9v-10.5h2.9V268.1z"/>
		<path class="st9" d="M1068.8,268.3c-1.7,0-3-0.5-3.9-1.4c-0.9-0.9-1.4-2.2-1.4-3.9c0-1.8,0.4-3.1,1.3-4.1c0.9-1,2.1-1.4,3.6-1.4
			c1.5,0,2.6,0.4,3.5,1.3c0.8,0.8,1.2,2,1.2,3.5v1.4h-6.7c0,0.8,0.3,1.4,0.7,1.9s1.1,0.7,1.9,0.7c0.6,0,1.2-0.1,1.8-0.2
			c0.6-0.1,1.1-0.3,1.8-0.6v2.2c-0.5,0.2-1,0.4-1.6,0.6C1070.3,268.2,1069.6,268.3,1068.8,268.3z M1068.4,259.5
			c-0.6,0-1.1,0.2-1.4,0.6c-0.3,0.4-0.5,0.9-0.6,1.6h4c0-0.7-0.2-1.2-0.6-1.6C1069.5,259.7,1069,259.5,1068.4,259.5z"/>
		<path class="st9" d="M1074.4,264.1v-2.3h5v2.3H1074.4z"/>
		<path class="st9" d="M1093.1,261.1c0,2.2-0.6,4-1.9,5.2c-1.3,1.2-3.1,1.8-5.5,1.8h-3.9v-13.7h4.3c2.2,0,4,0.6,5.2,1.8
			C1092.5,257.4,1093.1,259,1093.1,261.1z M1090.1,261.2c0-2.9-1.3-4.4-3.9-4.4h-1.5v8.9h1.2
			C1088.7,265.7,1090.1,264.2,1090.1,261.2z"/>
		<path class="st9" d="M1105.2,262.8c0,1.7-0.4,3-1.3,4c-0.9,1-2.1,1.4-3.7,1.4c-1,0-1.9-0.2-2.7-0.7c-0.8-0.4-1.4-1.1-1.8-1.9
			c-0.4-0.8-0.6-1.8-0.6-2.9c0-1.7,0.4-3,1.3-4c0.9-0.9,2.1-1.4,3.8-1.4c1,0,1.9,0.2,2.7,0.7s1.4,1.1,1.8,1.9
			C1105,260.8,1105.2,261.8,1105.2,262.8z M1098,262.8c0,1,0.2,1.8,0.5,2.3c0.3,0.5,0.9,0.8,1.7,0.8c0.8,0,1.3-0.3,1.6-0.8
			c0.3-0.5,0.5-1.3,0.5-2.4c0-1-0.2-1.8-0.5-2.3c-0.3-0.5-0.9-0.8-1.7-0.8c-0.8,0-1.3,0.3-1.6,0.8S1098,261.8,1098,262.8z"/>
		<path class="st9" d="M1110.4,268.1h-2.9v-14.5h2.9V268.1z"/>
		<path class="st9" d="M1122.7,268.1h-2.9V262c0-0.8-0.1-1.3-0.4-1.7s-0.6-0.6-1.2-0.6c-0.7,0-1.3,0.3-1.6,0.8
			c-0.3,0.5-0.5,1.4-0.5,2.6v4.9h-2.9v-10.5h2.2l0.4,1.3h0.2c0.3-0.5,0.7-0.9,1.2-1.1c0.5-0.3,1.1-0.4,1.8-0.4
			c1.6,0,2.6,0.5,3.2,1.5h0.3c0.3-0.5,0.7-0.9,1.2-1.1c0.5-0.3,1.2-0.4,1.8-0.4c1.2,0,2.1,0.3,2.7,0.9c0.6,0.6,0.9,1.6,0.9,2.9v6.8
			h-2.9V262c0-0.8-0.1-1.3-0.4-1.7s-0.6-0.6-1.2-0.6c-0.7,0-1.2,0.2-1.6,0.7c-0.3,0.5-0.5,1.3-0.5,2.4V268.1z"/>
		<path class="st9" d="M1138.8,268.1l-0.6-1.4h-0.1c-0.5,0.6-1,1-1.5,1.3c-0.5,0.2-1.2,0.4-2,0.4c-1,0-1.8-0.3-2.4-0.9
			c-0.6-0.6-0.9-1.4-0.9-2.5c0-1.1,0.4-1.9,1.2-2.5c0.8-0.5,1.9-0.8,3.5-0.9l1.8-0.1v-0.5c0-1.1-0.5-1.6-1.6-1.6
			c-0.8,0-1.8,0.3-2.9,0.8l-0.9-1.9c1.2-0.6,2.5-0.9,4-0.9c1.4,0,2.5,0.3,3.2,0.9s1.1,1.5,1.1,2.8v7H1138.8z M1138,263.3l-1.1,0
			c-0.8,0-1.4,0.2-1.9,0.4c-0.4,0.3-0.6,0.7-0.6,1.3c0,0.8,0.5,1.2,1.4,1.2c0.7,0,1.2-0.2,1.6-0.6c0.4-0.4,0.6-0.9,0.6-1.5V263.3z"
			/>
		<path class="st9" d="M1154.8,256.6c-1.1,0-1.9,0.4-2.5,1.2c-0.6,0.8-0.9,2-0.9,3.4c0,3,1.1,4.6,3.4,4.6c1,0,2.1-0.2,3.5-0.7v2.4
			c-1.1,0.5-2.4,0.7-3.8,0.7c-2,0-3.5-0.6-4.6-1.8c-1.1-1.2-1.6-2.9-1.6-5.2c0-1.4,0.3-2.7,0.8-3.7c0.5-1.1,1.3-1.9,2.2-2.5
			s2.1-0.9,3.4-0.9c1.3,0,2.7,0.3,4,1l-0.9,2.4c-0.5-0.2-1-0.5-1.5-0.6C1155.8,256.7,1155.3,256.6,1154.8,256.6z"/>
		<path class="st9" d="M1170.6,268.1h-2.9V262c0-1.5-0.6-2.3-1.7-2.3c-0.8,0-1.4,0.3-1.7,0.8c-0.4,0.5-0.5,1.4-0.5,2.6v4.9h-2.9
			v-14.5h2.9v3c0,0.2,0,0.8-0.1,1.6l-0.1,0.8h0.1c0.6-1,1.6-1.5,3-1.5c1.2,0,2.2,0.3,2.8,1c0.6,0.7,1,1.6,1,2.8V268.1z"/>
		<path class="st9" d="M1183,262.8c0,1.7-0.4,3-1.3,4c-0.9,1-2.1,1.4-3.7,1.4c-1,0-1.9-0.2-2.7-0.7c-0.8-0.4-1.4-1.1-1.8-1.9
			c-0.4-0.8-0.6-1.8-0.6-2.9c0-1.7,0.4-3,1.3-4c0.9-0.9,2.1-1.4,3.8-1.4c1,0,1.9,0.2,2.7,0.7s1.4,1.1,1.8,1.9
			C1182.8,260.8,1183,261.8,1183,262.8z M1175.8,262.8c0,1,0.2,1.8,0.5,2.3c0.3,0.5,0.9,0.8,1.7,0.8c0.8,0,1.3-0.3,1.6-0.8
			c0.3-0.5,0.5-1.3,0.5-2.4c0-1-0.2-1.8-0.5-2.3c-0.3-0.5-0.9-0.8-1.7-0.8c-0.8,0-1.3,0.3-1.6,0.8S1175.8,261.8,1175.8,262.8z"/>
		<path class="st9" d="M1191.1,268.3c-1.2,0-2.2-0.4-2.9-1.3h-0.1c0.1,0.9,0.1,1.4,0.1,1.5v4.2h-2.9v-15.1h2.3l0.4,1.4h0.1
			c0.7-1,1.7-1.6,3-1.6c1.2,0,2.2,0.5,2.9,1.4c0.7,1,1,2.3,1,4c0,1.1-0.2,2.1-0.5,2.9c-0.3,0.8-0.8,1.4-1.4,1.9
			C1192.6,268.1,1191.9,268.3,1191.1,268.3z M1190.3,259.7c-0.7,0-1.2,0.2-1.5,0.6c-0.3,0.4-0.5,1.1-0.5,2.1v0.3
			c0,1.1,0.2,1.9,0.5,2.4c0.3,0.5,0.9,0.7,1.6,0.7c1.3,0,1.9-1.1,1.9-3.2c0-1-0.2-1.8-0.5-2.3C1191.4,260,1190.9,259.7,1190.3,259.7
			z"/>
		<path class="st9" d="M1207.1,268.1h-2.9V262c0-1.5-0.6-2.3-1.7-2.3c-0.8,0-1.4,0.3-1.7,0.8c-0.4,0.5-0.5,1.4-0.5,2.6v4.9h-2.9
			v-14.5h2.9v3c0,0.2,0,0.8-0.1,1.6l-0.1,0.8h0.1c0.6-1,1.6-1.5,3-1.5c1.2,0,2.2,0.3,2.8,1c0.6,0.7,1,1.6,1,2.8V268.1z"/>
		<path class="st9" d="M1214.8,268.3c-1.7,0-3-0.5-3.9-1.4c-0.9-0.9-1.4-2.2-1.4-3.9c0-1.8,0.4-3.1,1.3-4.1c0.9-1,2.1-1.4,3.6-1.4
			c1.5,0,2.6,0.4,3.5,1.3c0.8,0.8,1.2,2,1.2,3.5v1.4h-6.7c0,0.8,0.3,1.4,0.7,1.9s1.1,0.7,1.9,0.7c0.6,0,1.2-0.1,1.8-0.2
			c0.6-0.1,1.1-0.3,1.8-0.6v2.2c-0.5,0.2-1,0.4-1.6,0.6C1216.3,268.2,1215.6,268.3,1214.8,268.3z M1214.4,259.5
			c-0.6,0-1.1,0.2-1.4,0.6c-0.3,0.4-0.5,0.9-0.6,1.6h4c0-0.7-0.2-1.2-0.6-1.6C1215.5,259.7,1215,259.5,1214.4,259.5z"/>
		<path class="st9" d="M1224.2,268.1h-2.9v-14.5h2.9V268.1z"/>
		<path class="st9" d="M1229,265.9l0.1,0.2c-0.2,0.6-0.4,1.3-0.7,2.2c-0.3,0.8-0.6,1.6-1,2.3h-1.2c0.2-0.6,0.4-1.4,0.6-2.4
			c0.2-1,0.3-1.7,0.4-2.3H1229z"/>
		<path class="st9" d="M913.9,287.3c0,1.2-0.4,2.2-1.3,2.9s-2.1,1.1-3.7,1.1c-1.5,0-2.7-0.3-3.9-0.8v-2.7c0.9,0.4,1.7,0.7,2.3,0.9
			c0.6,0.2,1.2,0.3,1.8,0.3c0.6,0,1.1-0.1,1.5-0.4c0.3-0.2,0.5-0.6,0.5-1.1c0-0.3-0.1-0.5-0.2-0.7c-0.1-0.2-0.4-0.4-0.7-0.6
			c-0.3-0.2-0.9-0.5-1.8-0.9c-0.8-0.4-1.5-0.8-1.9-1.1s-0.8-0.8-1-1.3c-0.2-0.5-0.4-1-0.4-1.7c0-1.2,0.4-2.2,1.2-2.9
			c0.8-0.7,2-1,3.4-1c0.7,0,1.4,0.1,2,0.3c0.6,0.2,1.3,0.4,2,0.7l-0.9,2.3c-0.7-0.3-1.3-0.5-1.8-0.6c-0.5-0.1-0.9-0.2-1.4-0.2
			c-0.5,0-1,0.1-1.3,0.4c-0.3,0.3-0.4,0.6-0.4,1c0,0.3,0.1,0.5,0.2,0.7c0.1,0.2,0.3,0.4,0.6,0.6c0.3,0.2,0.9,0.5,1.8,1
			c1.3,0.6,2.2,1.2,2.6,1.8C913.7,285.6,913.9,286.4,913.9,287.3z"/>
		<path class="st9" d="M925.8,291.1H923V285c0-1.5-0.6-2.3-1.7-2.3c-0.8,0-1.4,0.3-1.7,0.8c-0.4,0.5-0.5,1.4-0.5,2.6v4.9h-2.9v-14.5
			h2.9v3c0,0.2,0,0.8-0.1,1.6l-0.1,0.8h0.1c0.6-1,1.6-1.5,3-1.5c1.2,0,2.2,0.3,2.8,1c0.6,0.7,1,1.6,1,2.8V291.1z"/>
		<path class="st9" d="M933.5,291.3c-1.7,0-3-0.5-3.9-1.4c-0.9-0.9-1.4-2.2-1.4-3.9c0-1.8,0.4-3.1,1.3-4.1c0.9-1,2.1-1.4,3.6-1.4
			c1.5,0,2.6,0.4,3.5,1.3c0.8,0.8,1.2,2,1.2,3.5v1.4H931c0,0.8,0.3,1.4,0.7,1.9s1.1,0.7,1.9,0.7c0.6,0,1.2-0.1,1.8-0.2
			c0.6-0.1,1.1-0.3,1.8-0.6v2.2c-0.5,0.2-1,0.4-1.6,0.6C935,291.2,934.3,291.3,933.5,291.3z M933.1,282.5c-0.6,0-1.1,0.2-1.4,0.6
			c-0.3,0.4-0.5,0.9-0.6,1.6h4c0-0.7-0.2-1.2-0.6-1.6C934.2,282.6,933.7,282.5,933.1,282.5z"/>
		<path class="st9" d="M945.8,291.3c-1.2,0-2.2-0.4-2.9-1.3h-0.1c0.1,0.9,0.1,1.4,0.1,1.5v4.2h-2.9v-15.1h2.3l0.4,1.4h0.1
			c0.7-1,1.7-1.6,3-1.6c1.2,0,2.2,0.5,2.9,1.4c0.7,1,1,2.3,1,4c0,1.1-0.2,2.1-0.5,2.9c-0.3,0.8-0.8,1.4-1.4,1.9
			C947.3,291,946.6,291.3,945.8,291.3z M945,282.7c-0.7,0-1.2,0.2-1.5,0.6c-0.3,0.4-0.5,1.1-0.5,2.1v0.3c0,1.1,0.2,1.9,0.5,2.4
			c0.3,0.5,0.9,0.7,1.6,0.7c1.3,0,1.9-1.1,1.9-3.2c0-1-0.2-1.8-0.5-2.3C946.1,283,945.6,282.7,945,282.7z"/>
		<path class="st9" d="M958.8,291.1l-0.6-1.4h-0.1c-0.5,0.6-1,1-1.5,1.3c-0.5,0.2-1.2,0.4-2,0.4c-1,0-1.8-0.3-2.4-0.9
			c-0.6-0.6-0.9-1.4-0.9-2.5c0-1.1,0.4-1.9,1.2-2.5c0.8-0.5,1.9-0.8,3.5-0.9l1.8-0.1v-0.5c0-1.1-0.5-1.6-1.6-1.6
			c-0.8,0-1.8,0.3-2.9,0.8l-0.9-1.9c1.2-0.6,2.5-0.9,4-0.9c1.4,0,2.5,0.3,3.2,0.9s1.1,1.5,1.1,2.8v7H958.8z M958,286.2l-1.1,0
			c-0.8,0-1.4,0.2-1.9,0.4c-0.4,0.3-0.6,0.7-0.6,1.3c0,0.8,0.5,1.2,1.4,1.2c0.7,0,1.2-0.2,1.6-0.6c0.4-0.4,0.6-0.9,0.6-1.5V286.2z"
			/>
		<path class="st9" d="M969.6,280.4c0.4,0,0.7,0,1,0.1l-0.2,2.7c-0.2-0.1-0.5-0.1-0.8-0.1c-0.9,0-1.6,0.2-2.1,0.7
			c-0.5,0.5-0.8,1.1-0.8,2v5.3h-2.9v-10.5h2.2l0.4,1.8h0.1c0.3-0.6,0.8-1.1,1.3-1.4C968.3,280.6,968.9,280.4,969.6,280.4z"/>
		<path class="st9" d="M975.7,291.3c-1.2,0-2.2-0.5-2.9-1.4c-0.7-1-1.1-2.3-1.1-4c0-1.7,0.4-3,1.1-4c0.7-1,1.7-1.4,3-1.4
			c1.3,0,2.3,0.5,3,1.5h0.1c-0.1-0.8-0.2-1.5-0.2-2.1v-3.3h2.9v14.5h-2.2l-0.6-1.4h-0.1C978.1,290.7,977.1,291.3,975.7,291.3z
			 M976.7,289c0.7,0,1.3-0.2,1.6-0.6s0.5-1.1,0.6-2.2v-0.3c0-1.1-0.2-1.9-0.5-2.4c-0.3-0.5-0.9-0.7-1.7-0.7c-0.6,0-1.1,0.3-1.5,0.8
			c-0.4,0.5-0.5,1.3-0.5,2.4c0,1,0.2,1.8,0.5,2.3S976.1,289,976.7,289z"/>
		<path class="st9" d="M992.6,291.1h-2.9v-13.7h7.8v2.4h-5v3.5h4.6v2.4h-4.6V291.1z"/>
		<path class="st9" d="M1006.7,291.1l-0.6-1.4h-0.1c-0.5,0.6-1,1-1.5,1.3c-0.5,0.2-1.2,0.4-2,0.4c-1,0-1.8-0.3-2.4-0.9
			c-0.6-0.6-0.9-1.4-0.9-2.5c0-1.1,0.4-1.9,1.2-2.5c0.8-0.5,1.9-0.8,3.5-0.9l1.8-0.1v-0.5c0-1.1-0.5-1.6-1.6-1.6
			c-0.8,0-1.8,0.3-2.9,0.8l-0.9-1.9c1.2-0.6,2.5-0.9,4-0.9c1.4,0,2.5,0.3,3.2,0.9s1.1,1.5,1.1,2.8v7H1006.7z M1005.8,286.2l-1.1,0
			c-0.8,0-1.4,0.2-1.9,0.4c-0.4,0.3-0.6,0.7-0.6,1.3c0,0.8,0.5,1.2,1.4,1.2c0.7,0,1.2-0.2,1.6-0.6c0.4-0.4,0.6-0.9,0.6-1.5V286.2z"
			/>
		<path class="st9" d="M1011.5,277.9c0-0.9,0.5-1.4,1.6-1.4c1,0,1.6,0.5,1.6,1.4c0,0.4-0.1,0.8-0.4,1c-0.3,0.2-0.6,0.4-1.2,0.4
			C1012,279.3,1011.5,278.9,1011.5,277.9z M1014.5,291.1h-2.9v-10.5h2.9V291.1z"/>
		<path class="st9" d="M1023.3,280.4c0.4,0,0.7,0,1,0.1l-0.2,2.7c-0.2-0.1-0.5-0.1-0.8-0.1c-0.9,0-1.6,0.2-2.1,0.7
			c-0.5,0.5-0.8,1.1-0.8,2v5.3h-2.9v-10.5h2.2l0.4,1.8h0.1c0.3-0.6,0.8-1.1,1.3-1.4C1022,280.6,1022.6,280.4,1023.3,280.4z"/>
		<path class="st9" d="M1030.9,291.3c-1.7,0-3-0.5-3.9-1.4c-0.9-0.9-1.4-2.2-1.4-3.9c0-1.8,0.4-3.1,1.3-4.1c0.9-1,2.1-1.4,3.6-1.4
			c1.5,0,2.6,0.4,3.5,1.3c0.8,0.8,1.2,2,1.2,3.5v1.4h-6.7c0,0.8,0.3,1.4,0.7,1.9s1.1,0.7,1.9,0.7c0.6,0,1.2-0.1,1.8-0.2
			c0.6-0.1,1.1-0.3,1.8-0.6v2.2c-0.5,0.2-1,0.4-1.6,0.6C1032.4,291.2,1031.7,291.3,1030.9,291.3z M1030.5,282.5
			c-0.6,0-1.1,0.2-1.4,0.6c-0.3,0.4-0.5,0.9-0.6,1.6h4c0-0.7-0.2-1.2-0.6-1.6C1031.6,282.6,1031.1,282.5,1030.5,282.5z"/>
		<path class="st9" d="M1036,280.6h3.1l2,5.9c0.2,0.5,0.3,1.1,0.3,1.8h0.1c0.1-0.6,0.2-1.2,0.4-1.8l1.9-5.9h3.1l-4.4,11.8
			c-0.4,1.1-1,1.9-1.7,2.5c-0.8,0.5-1.6,0.8-2.6,0.8c-0.5,0-1-0.1-1.4-0.2v-2.3c0.3,0.1,0.7,0.1,1.1,0.1c0.5,0,0.9-0.2,1.3-0.5
			c0.4-0.3,0.7-0.8,0.9-1.4l0.2-0.5L1036,280.6z"/>
		<path class="st9" d="M1052.9,287.5c0-0.8,0.2-1.5,0.6-2.2c0.4-0.6,1.2-1.3,2.3-1.9c-0.5-0.6-0.9-1-1.1-1.3c-0.2-0.3-0.3-0.6-0.5-1
			s-0.2-0.7-0.2-1c0-0.9,0.3-1.7,0.9-2.2c0.6-0.5,1.5-0.8,2.6-0.8c1,0,1.8,0.3,2.4,0.8c0.6,0.5,0.9,1.2,0.9,2.2
			c0,0.7-0.2,1.3-0.6,1.8c-0.4,0.6-1.1,1.1-2.1,1.7l3.8,3.7c0.3-0.4,0.6-0.8,0.8-1.4c0.2-0.5,0.4-1.1,0.5-1.7h1.6
			c-0.4,1.8-1.1,3.1-1.9,4.1l2.8,2.7h-2.1l-1.7-1.7c-0.7,0.7-1.5,1.1-2.2,1.4c-0.8,0.3-1.6,0.4-2.5,0.4c-1.3,0-2.4-0.3-3.1-1
			C1053.3,289.6,1052.9,288.7,1052.9,287.5z M1057.1,289.9c1.5,0,2.7-0.5,3.7-1.4l-4.1-4c-0.7,0.4-1.2,0.8-1.5,1.1
			c-0.3,0.3-0.5,0.6-0.6,0.9c-0.1,0.3-0.2,0.7-0.2,1.1c0,0.7,0.2,1.3,0.7,1.7C1055.7,289.7,1056.3,289.9,1057.1,289.9z
			 M1055.7,280.1c0,0.4,0.1,0.8,0.3,1.2c0.2,0.4,0.6,0.9,1.1,1.4c0.8-0.5,1.4-0.9,1.7-1.3c0.3-0.4,0.5-0.9,0.5-1.4
			c0-0.5-0.2-0.9-0.5-1.2c-0.3-0.3-0.7-0.5-1.3-0.5c-0.6,0-1,0.1-1.4,0.4C1055.9,279.2,1055.7,279.6,1055.7,280.1z"/>
		<path class="st9" d="M1081.9,281.7c0,1.5-0.5,2.6-1.4,3.4c-0.9,0.8-2.2,1.2-3.9,1.2h-1.2v4.9h-2.9v-13.7h4.4
			c1.7,0,2.9,0.4,3.8,1.1C1081.5,279.2,1081.9,280.3,1081.9,281.7z M1075.4,283.8h1c0.9,0,1.6-0.2,2-0.5c0.4-0.4,0.7-0.9,0.7-1.5
			c0-0.7-0.2-1.2-0.6-1.5c-0.4-0.3-1-0.5-1.7-0.5h-1.3V283.8z"/>
		<path class="st9" d="M1090.1,280.4c0.4,0,0.7,0,1,0.1l-0.2,2.7c-0.2-0.1-0.5-0.1-0.8-0.1c-0.9,0-1.6,0.2-2.1,0.7
			c-0.5,0.5-0.8,1.1-0.8,2v5.3h-2.9v-10.5h2.2l0.4,1.8h0.1c0.3-0.6,0.8-1.1,1.3-1.4C1088.9,280.6,1089.5,280.4,1090.1,280.4z"/>
		<path class="st9" d="M1102.5,285.8c0,1.7-0.4,3-1.3,4c-0.9,1-2.1,1.4-3.7,1.4c-1,0-1.9-0.2-2.7-0.7c-0.8-0.4-1.4-1.1-1.8-1.9
			c-0.4-0.8-0.6-1.8-0.6-2.9c0-1.7,0.4-3,1.3-4c0.9-0.9,2.1-1.4,3.8-1.4c1,0,1.9,0.2,2.7,0.7s1.4,1.1,1.8,1.9
			C1102.3,283.8,1102.5,284.7,1102.5,285.8z M1095.3,285.8c0,1,0.2,1.8,0.5,2.3c0.3,0.5,0.9,0.8,1.7,0.8c0.8,0,1.3-0.3,1.6-0.8
			c0.3-0.5,0.5-1.3,0.5-2.4c0-1-0.2-1.8-0.5-2.3c-0.3-0.5-0.9-0.8-1.7-0.8c-0.8,0-1.3,0.3-1.6,0.8S1095.3,284.8,1095.3,285.8z"/>
		<path class="st9" d="M1110.6,282.8h-2.5v8.3h-2.9v-8.3h-1.6v-1.4l1.6-0.8v-0.8c0-1.2,0.3-2.1,0.9-2.6c0.6-0.5,1.5-0.8,2.8-0.8
			c1,0,1.9,0.1,2.6,0.4l-0.7,2.1c-0.6-0.2-1.1-0.3-1.6-0.3c-0.4,0-0.7,0.1-0.9,0.4c-0.2,0.2-0.3,0.5-0.3,0.9v0.7h2.5V282.8z"/>
		<path class="st9" d="M1111.9,289.7c0-0.5,0.1-0.9,0.4-1.2c0.3-0.3,0.7-0.4,1.2-0.4c0.5,0,0.9,0.1,1.2,0.4c0.3,0.3,0.4,0.7,0.4,1.2
			c0,0.5-0.1,0.9-0.4,1.2c-0.3,0.3-0.7,0.4-1.2,0.4c-0.5,0-0.9-0.1-1.2-0.4C1112,290.6,1111.9,290.2,1111.9,289.7z"/>
		<path class="st9" d="M1125.8,285.8v5.2h-2.9v-13.7h4c1.9,0,3.2,0.3,4.1,1c0.9,0.7,1.3,1.7,1.3,3.1c0,0.8-0.2,1.5-0.7,2.1
			c-0.4,0.6-1.1,1.1-1.9,1.5c2.1,3.1,3.4,5.1,4,6h-3.2l-3.3-5.2H1125.8z M1125.8,283.5h0.9c0.9,0,1.6-0.2,2-0.5
			c0.4-0.3,0.7-0.8,0.7-1.4c0-0.6-0.2-1.1-0.7-1.4c-0.4-0.3-1.1-0.4-2.1-0.4h-0.9V283.5z"/>
		<path class="st9" d="M1144.8,285.8c0,1.7-0.4,3-1.3,4c-0.9,1-2.1,1.4-3.7,1.4c-1,0-1.9-0.2-2.7-0.7c-0.8-0.4-1.4-1.1-1.8-1.9
			c-0.4-0.8-0.6-1.8-0.6-2.9c0-1.7,0.4-3,1.3-4c0.9-0.9,2.1-1.4,3.8-1.4c1,0,1.9,0.2,2.7,0.7s1.4,1.1,1.8,1.9
			C1144.6,283.8,1144.8,284.7,1144.8,285.8z M1137.6,285.8c0,1,0.2,1.8,0.5,2.3c0.3,0.5,0.9,0.8,1.7,0.8c0.8,0,1.3-0.3,1.6-0.8
			c0.3-0.5,0.5-1.3,0.5-2.4c0-1-0.2-1.8-0.5-2.3c-0.3-0.5-0.9-0.8-1.7-0.8c-0.8,0-1.3,0.3-1.6,0.8S1137.6,284.8,1137.6,285.8z"/>
		<path class="st9" d="M1153,280.4c1.2,0,2.2,0.5,2.9,1.4s1,2.3,1,4c0,1.7-0.4,3.1-1.1,4c-0.7,0.9-1.7,1.4-2.9,1.4
			c-1.2,0-2.2-0.4-2.9-1.3h-0.2l-0.5,1.2h-2.2v-14.5h2.9v3.4c0,0.4,0,1.1-0.1,2.1h0.1C1150.7,280.9,1151.7,280.4,1153,280.4z
			 M1152.1,282.7c-0.7,0-1.2,0.2-1.5,0.6c-0.3,0.4-0.5,1.1-0.5,2.1v0.3c0,1.1,0.2,1.9,0.5,2.4c0.3,0.5,0.9,0.7,1.6,0.7
			c0.6,0,1.1-0.3,1.4-0.8c0.3-0.5,0.5-1.3,0.5-2.4c0-1-0.2-1.8-0.5-2.3C1153.2,283,1152.7,282.7,1152.1,282.7z"/>
		<path class="st9" d="M1164,291.3c-1.7,0-3-0.5-3.9-1.4c-0.9-0.9-1.4-2.2-1.4-3.9c0-1.8,0.4-3.1,1.3-4.1c0.9-1,2.1-1.4,3.6-1.4
			c1.5,0,2.6,0.4,3.5,1.3c0.8,0.8,1.2,2,1.2,3.5v1.4h-6.7c0,0.8,0.3,1.4,0.7,1.9s1.1,0.7,1.9,0.7c0.6,0,1.2-0.1,1.8-0.2
			c0.6-0.1,1.1-0.3,1.8-0.6v2.2c-0.5,0.2-1,0.4-1.6,0.6C1165.6,291.2,1164.9,291.3,1164,291.3z M1163.6,282.5
			c-0.6,0-1.1,0.2-1.4,0.6c-0.3,0.4-0.5,0.9-0.6,1.6h4c0-0.7-0.2-1.2-0.6-1.6C1164.7,282.6,1164.2,282.5,1163.6,282.5z"/>
		<path class="st9" d="M1176.5,280.4c0.4,0,0.7,0,1,0.1l-0.2,2.7c-0.2-0.1-0.5-0.1-0.8-0.1c-0.9,0-1.6,0.2-2.1,0.7
			c-0.5,0.5-0.8,1.1-0.8,2v5.3h-2.9v-10.5h2.2l0.4,1.8h0.1c0.3-0.6,0.8-1.1,1.3-1.4C1175.2,280.6,1175.8,280.4,1176.5,280.4z"/>
		<path class="st9" d="M1183.7,289c0.5,0,1.1-0.1,1.8-0.3v2.1c-0.7,0.3-1.6,0.5-2.6,0.5c-1.1,0-2-0.3-2.5-0.9
			c-0.5-0.6-0.8-1.4-0.8-2.6v-5h-1.4v-1.2l1.6-1l0.8-2.2h1.8v2.2h2.9v2.1h-2.9v5c0,0.4,0.1,0.7,0.3,0.9S1183.4,289,1183.7,289z"/>
		<path class="st9" d="M1198.1,291.1h-2.9v-11.3h-3.7v-2.4h10.3v2.4h-3.7V291.1z"/>
		<path class="st9" d="M1213.3,291.1h-2.9V285c0-1.5-0.6-2.3-1.7-2.3c-0.8,0-1.4,0.3-1.7,0.8c-0.4,0.5-0.5,1.4-0.5,2.6v4.9h-2.9
			v-14.5h2.9v3c0,0.2,0,0.8-0.1,1.6l-0.1,0.8h0.1c0.6-1,1.6-1.5,3-1.5c1.2,0,2.2,0.3,2.8,1c0.6,0.7,1,1.6,1,2.8V291.1z"/>
		<path class="st9" d="M1223.7,291.1l-0.4-1.3h-0.1c-0.3,0.5-0.7,0.9-1.3,1.1c-0.6,0.3-1.2,0.4-1.9,0.4c-1.2,0-2.2-0.3-2.8-1
			c-0.6-0.7-0.9-1.6-0.9-2.8v-6.8h2.9v6.1c0,0.8,0.1,1.3,0.4,1.7c0.3,0.4,0.7,0.6,1.3,0.6c0.8,0,1.4-0.3,1.7-0.8
			c0.4-0.5,0.5-1.4,0.5-2.7v-4.9h2.9v10.5H1223.7z"/>
		<path class="st9" d="M1234.7,280.4c0.4,0,0.7,0,1,0.1l-0.2,2.7c-0.2-0.1-0.5-0.1-0.8-0.1c-0.9,0-1.6,0.2-2.1,0.7
			c-0.5,0.5-0.8,1.1-0.8,2v5.3h-2.9v-10.5h2.2l0.4,1.8h0.1c0.3-0.6,0.8-1.1,1.3-1.4C1233.5,280.6,1234.1,280.4,1234.7,280.4z"/>
		<path class="st9" d="M1246.9,291.1h-2.9V285c0-0.8-0.1-1.3-0.4-1.7s-0.6-0.6-1.2-0.6c-0.7,0-1.3,0.3-1.6,0.8
			c-0.3,0.5-0.5,1.4-0.5,2.6v4.9h-2.9v-10.5h2.2l0.4,1.3h0.2c0.3-0.5,0.7-0.9,1.2-1.1c0.5-0.3,1.1-0.4,1.8-0.4
			c1.6,0,2.6,0.5,3.2,1.5h0.3c0.3-0.5,0.7-0.9,1.2-1.1c0.5-0.3,1.2-0.4,1.8-0.4c1.2,0,2.1,0.3,2.7,0.9c0.6,0.6,0.9,1.6,0.9,2.9v6.8
			h-2.9V285c0-0.8-0.1-1.3-0.4-1.7s-0.6-0.6-1.2-0.6c-0.7,0-1.2,0.2-1.6,0.7c-0.3,0.5-0.5,1.3-0.5,2.4V291.1z"/>
		<path class="st9" d="M1263,291.1l-0.6-1.4h-0.1c-0.5,0.6-1,1-1.5,1.3c-0.5,0.2-1.2,0.4-2,0.4c-1,0-1.8-0.3-2.4-0.9
			c-0.6-0.6-0.9-1.4-0.9-2.5c0-1.1,0.4-1.9,1.2-2.5c0.8-0.5,1.9-0.8,3.5-0.9l1.8-0.1v-0.5c0-1.1-0.5-1.6-1.6-1.6
			c-0.8,0-1.8,0.3-2.9,0.8l-0.9-1.9c1.2-0.6,2.5-0.9,4-0.9c1.4,0,2.5,0.3,3.2,0.9s1.1,1.5,1.1,2.8v7H1263z M1262.2,286.2l-1.1,0
			c-0.8,0-1.4,0.2-1.9,0.4c-0.4,0.3-0.6,0.7-0.6,1.3c0,0.8,0.5,1.2,1.4,1.2c0.7,0,1.2-0.2,1.6-0.6c0.4-0.4,0.6-0.9,0.6-1.5V286.2z"
			/>
		<path class="st9" d="M1277.6,291.1h-2.9V285c0-0.8-0.1-1.3-0.4-1.7s-0.7-0.6-1.3-0.6c-0.8,0-1.4,0.3-1.7,0.8
			c-0.4,0.5-0.5,1.4-0.5,2.7v4.9h-2.9v-10.5h2.2l0.4,1.3h0.2c0.3-0.5,0.8-0.9,1.3-1.1c0.6-0.3,1.2-0.4,1.9-0.4c1.2,0,2.1,0.3,2.8,1
			c0.6,0.7,0.9,1.6,0.9,2.8V291.1z"/>
		<path class="st9" d="M1280.1,289.7c0-0.5,0.1-0.9,0.4-1.2c0.3-0.3,0.7-0.4,1.2-0.4c0.5,0,0.9,0.1,1.2,0.4c0.3,0.3,0.4,0.7,0.4,1.2
			c0,0.5-0.1,0.9-0.4,1.2c-0.3,0.3-0.7,0.4-1.2,0.4c-0.5,0-0.9-0.1-1.2-0.4C1280.3,290.6,1280.1,290.2,1280.1,289.7z"/>
		<path class="st10" d="M919.5,354.6h-7.5v-21.8h-6.8v-6.2h21.2v6.2h-6.8V354.6z"/>
		<path class="st10" d="M954.2,354.6h-7.6v-11.4h-8.8v11.4h-7.6v-27.9h7.6V337h8.8v-10.4h7.6V354.6z"/>
		<path class="st10" d="M984,326.7v16.8c0,3.7-1,6.5-3.1,8.5c-2.1,2-5.1,3-9,3c-3.8,0-6.7-1-8.8-2.9c-2-1.9-3.1-4.8-3.1-8.4v-17h7.6
			v16.4c0,2,0.4,3.4,1.1,4.3c0.7,0.9,1.8,1.3,3.3,1.3c1.5,0,2.7-0.4,3.4-1.3c0.7-0.9,1-2.3,1-4.3v-16.4H984z"/>
		<path class="st10" d="M996.3,348.9l0.3,0.4c-1.2,4.9-2.4,8.4-3.4,10.7h-5.3c0.4-1.8,0.7-3.7,1.1-5.9c0.4-2.2,0.6-3.9,0.8-5.2
			H996.3z"/>
		<path class="st10" d="M1038.7,354.6h-9.9l-10.2-19.7h-0.2c0.2,3.1,0.4,5.5,0.4,7.1v12.6h-6.7v-27.9h9.9l10.2,19.4h0.1
			c-0.2-2.8-0.3-5.1-0.3-6.8v-12.6h6.7V354.6z"/>
		<path class="st10" d="M1070.9,340.6c0,4.7-1.2,8.3-3.5,10.7c-2.3,2.4-5.7,3.7-10.1,3.7c-4.4,0-7.7-1.2-10.1-3.7
			c-2.3-2.5-3.5-6-3.5-10.7c0-4.6,1.2-8.2,3.5-10.7c2.3-2.5,5.7-3.7,10.1-3.7c4.4,0,7.8,1.2,10.1,3.6
			C1069.7,332.3,1070.9,335.9,1070.9,340.6z M1051.7,340.6c0,5.4,1.9,8.1,5.6,8.1c1.9,0,3.3-0.7,4.3-2c0.9-1.3,1.4-3.4,1.4-6.1
			c0-2.8-0.5-4.8-1.4-6.2c-0.9-1.3-2.3-2-4.2-2C1053.5,332.4,1051.7,335.2,1051.7,340.6z"/>
		<path class="st10" d="M1091.6,326.7h8.4l-9.2,27.9h-8.9l-9.1-27.9h8.5l3.8,14.2c0.8,3.1,1.2,5.3,1.3,6.6c0.1-0.9,0.3-2,0.5-3.3
			c0.3-1.3,0.5-2.4,0.7-3.2L1091.6,326.7z"/>
		<path class="st10" d="M1119.7,354.6h-16.6v-27.9h16.6v6.1h-9v4.4h8.4v6.1h-8.4v5.3h9V354.6z"/>
		<path class="st10" d="M1136.7,354.6l-5.7-20.1h-0.2c0.3,3.4,0.4,6.1,0.4,8v12.1h-6.7v-27.9h10l5.8,19.8h0.2l5.7-19.8h10.1v27.9
			h-6.9v-12.2c0-0.6,0-1.3,0-2.1c0-0.8,0.1-2.7,0.3-5.7h-0.2l-5.6,20.1H1136.7z"/>
		<path class="st10" d="M1162.4,326.7h9.7c3.8,0,6.6,0.6,8.5,1.7c1.8,1.1,2.8,2.9,2.8,5.3c0,1.6-0.4,2.9-1.2,4
			c-0.8,1.1-1.9,1.8-3.2,2.1v0.2c1.7,0.5,3,1.2,3.8,2.3c0.8,1.1,1.2,2.5,1.2,4.2c0,2.5-1,4.5-2.9,6c-1.9,1.5-4.5,2.2-7.8,2.2h-10.9
			V326.7z M1169.9,337.4h2.3c1.1,0,1.9-0.2,2.5-0.7c0.6-0.4,0.9-1.1,0.9-2c0-1.6-1.2-2.3-3.6-2.3h-2.1V337.4z M1169.9,342.9v5.9h2.7
			c2.4,0,3.5-1,3.5-3c0-0.9-0.3-1.6-0.9-2.1c-0.6-0.5-1.5-0.7-2.7-0.7H1169.9z"/>
		<path class="st10" d="M1205.3,354.6h-16.6v-27.9h16.6v6.1h-9v4.4h8.4v6.1h-8.4v5.3h9V354.6z"/>
		<path class="st10" d="M1217.8,344.5v10.2h-7.5v-27.9h9.2c7.6,0,11.4,2.8,11.4,8.3c0,3.2-1.6,5.7-4.7,7.5l8.1,12.2h-8.6l-5.9-10.2
			H1217.8z M1217.8,338.8h1.4c2.6,0,4-1.2,4-3.5c0-1.9-1.3-2.9-3.9-2.9h-1.5V338.8z"/>
		<path class="st10" d="M1247.8,354.6l9.6-21.6h-12.1v-6.2h20.2v4.5l-9.8,23.4H1247.8z"/>
		<path class="st10" d="M905.5,385.3c0-3.9,0.6-7.1,1.7-9.5c1.1-2.4,2.8-4.2,4.9-5.3s4.9-1.7,8-1.7c1.1,0,2.5,0.1,4,0.3v5.9
			c-1.3-0.2-2.7-0.4-4.1-0.4c-2.5,0-4.4,0.6-5.6,1.7c-1.2,1.1-1.9,2.9-2,5.4h0.2c1.1-2.2,3-3.2,5.5-3.2c2.5,0,4.4,0.8,5.8,2.4
			c1.4,1.6,2.1,3.8,2.1,6.7c0,3.1-0.9,5.5-2.6,7.3c-1.7,1.8-4.2,2.7-7.3,2.7c-3.3,0-5.9-1.1-7.7-3.2
			C906.4,392.1,905.5,389.1,905.5,385.3z M915.8,391.5c0.8,0,1.5-0.3,2-0.9c0.5-0.6,0.8-1.6,0.8-2.9c0-2.3-0.9-3.4-2.6-3.4
			c-0.9,0-1.6,0.3-2.1,0.9c-0.5,0.6-0.8,1.3-0.8,2.1c0,1.2,0.3,2.2,0.8,3S915,391.5,915.8,391.5z"/>
		<path class="st10" d="M950.3,378.1c0,3.1-0.9,5.5-2.8,7.2c-1.8,1.7-4.5,2.6-7.8,2.6h-2.1v9.3h-7.5v-27.9h9.7
			c3.5,0,6.2,0.8,7.9,2.3C949.5,373,950.3,375.2,950.3,378.1z M937.6,381.7h1.4c1.1,0,2-0.3,2.7-1s1-1.5,1-2.6c0-1.9-1-2.8-3.1-2.8
			h-1.9V381.7z"/>
		<path class="st10" d="M967,397.1l-5.7-20.1h-0.2c0.3,3.4,0.4,6.1,0.4,8v12.1h-6.7v-27.9h10l5.8,19.8h0.2l5.7-19.8h10.1v27.9h-6.9
			v-12.2c0-0.6,0-1.3,0-2.1c0-0.8,0.1-2.7,0.3-5.7h-0.2l-5.6,20.1H967z"/>
		<path class="st10" d="M1001.2,389.2v-5.3h16.7v5.3H1001.2z"/>
		<path class="st10" d="M1051.1,381.9c0,5.5-1.2,9.4-3.5,11.9c-2.4,2.4-6.1,3.7-11.3,3.7c-1.7,0-3-0.1-3.9-0.2v-6
			c1.1,0.2,2.2,0.3,3.3,0.3c2.7,0,4.8-0.6,6.2-1.7c1.5-1.1,2.3-2.9,2.4-5.3h-0.2c-0.5,0.9-1,1.6-1.5,2c-0.5,0.4-1.1,0.7-1.8,0.9
			c-0.7,0.2-1.6,0.3-2.6,0.3c-2.4,0-4.3-0.8-5.7-2.4c-1.4-1.6-2-3.8-2-6.7c0-3.1,0.9-5.5,2.6-7.3s4.2-2.6,7.3-2.6
			c3.4,0,6.1,1.1,7.9,3.4S1051.1,377.8,1051.1,381.9z M1040.6,374.9c-0.8,0-1.5,0.3-2,0.9c-0.5,0.6-0.8,1.6-0.8,2.9
			c0,1,0.2,1.9,0.7,2.5c0.4,0.6,1.1,0.9,2,0.9c0.8,0,1.5-0.3,2.2-0.9c0.6-0.6,0.9-1.3,0.9-2.2c0-1.1-0.3-2.1-0.9-2.9
			C1042.2,375.3,1041.5,374.9,1040.6,374.9z"/>
		<path class="st10" d="M1075.7,378.1c0,3.1-0.9,5.5-2.8,7.2c-1.8,1.7-4.5,2.6-7.8,2.6h-2.1v9.3h-7.5v-27.9h9.7
			c3.5,0,6.2,0.8,7.9,2.3C1074.8,373,1075.7,375.2,1075.7,378.1z M1063,381.7h1.4c1.1,0,2-0.3,2.7-1s1-1.5,1-2.6
			c0-1.9-1-2.8-3.1-2.8h-1.9V381.7z"/>
		<path class="st10" d="M1092.3,397.1l-5.7-20.1h-0.2c0.3,3.4,0.4,6.1,0.4,8v12.1h-6.7v-27.9h10l5.8,19.8h0.2l5.7-19.8h10.1v27.9
			h-6.9v-12.2c0-0.6,0-1.3,0-2.1c0-0.8,0.1-2.7,0.3-5.7h-0.2l-5.6,20.1H1092.3z"/>
		<path class="st10" d="M918.4,423.2h12.1v15.1c-3.3,1.1-6.9,1.7-10.8,1.7c-4.3,0-7.6-1.2-10-3.7c-2.4-2.5-3.5-6.1-3.5-10.7
			c0-4.5,1.3-8,3.9-10.5c2.6-2.5,6.2-3.8,10.8-3.8c1.8,0,3.4,0.2,5,0.5c1.6,0.3,2.9,0.8,4.1,1.3l-2.4,5.9c-2-1-4.2-1.5-6.6-1.5
			c-2.2,0-3.9,0.7-5.1,2.1c-1.2,1.4-1.8,3.5-1.8,6.1c0,2.6,0.5,4.6,1.6,6c1.1,1.4,2.7,2.1,4.7,2.1c1.1,0,2.2-0.1,3.1-0.3V429h-5
			V423.2z"/>
		<path class="st10" d="M953.2,439.6l-1.4-5.2h-9.1l-1.4,5.2h-8.3l9.1-28h10.1l9.2,28H953.2z M950.3,428.2l-1.2-4.6
			c-0.3-1-0.6-2.3-1-4c-0.4-1.6-0.7-2.8-0.8-3.5c-0.1,0.6-0.3,1.7-0.7,3.2c-0.3,1.5-1.1,4.4-2.2,8.8H950.3z"/>
		<path class="st10" d="M964.5,439.6v-27.9h7.5v21.8h10.8v6.1H964.5z"/>
		<path class="st10" d="M987.3,439.6v-27.9h7.5v21.8h10.8v6.1H987.3z"/>
		<path class="st10" d="M1026.6,439.6h-16.6v-27.9h16.6v6.1h-9v4.4h8.4v6.1h-8.4v5.3h9V439.6z"/>
		<path class="st10" d="M1039.1,429.4v10.2h-7.5v-27.9h9.2c7.6,0,11.4,2.8,11.4,8.3c0,3.2-1.6,5.7-4.7,7.5l8.1,12.2h-8.6l-5.9-10.2
			H1039.1z M1039.1,423.7h1.4c2.6,0,4-1.2,4-3.5c0-1.9-1.3-2.9-3.9-2.9h-1.5V423.7z"/>
		<path class="st10" d="M1068,422l4.8-10.4h8.2l-9.2,17v10.9h-7.6v-10.7l-9.2-17.3h8.2L1068,422z"/>
		<path class="st10" d="M1102.7,411.2c2.9,0,5.2,0.6,6.9,1.8c1.6,1.2,2.5,2.9,2.5,5c0,1.5-0.4,2.8-1.2,3.9c-0.8,1.1-2,2.1-3.7,2.9
			c2.1,1.2,3.5,2.3,4.4,3.5c0.8,1.2,1.3,2.4,1.3,3.8c0,2.5-0.9,4.4-2.7,5.8s-4.3,2-7.5,2c-3.3,0-5.8-0.7-7.5-2
			c-1.7-1.3-2.6-3.2-2.6-5.7c0-1.6,0.4-3,1.2-4.1c0.8-1.1,2.1-2.2,3.9-3.1c-1.5-1-2.6-2.1-3.2-3.2c-0.7-1.1-1-2.4-1-3.8
			c0-2.1,0.8-3.8,2.5-5C1097.4,411.8,1099.7,411.2,1102.7,411.2z M1099.4,431.9c0,0.8,0.3,1.4,0.8,1.9c0.6,0.5,1.3,0.7,2.3,0.7
			c2.2,0,3.4-0.8,3.4-2.5c0-0.6-0.2-1.2-0.7-1.8c-0.5-0.6-1.4-1.3-2.6-2c-1.1,0.6-1.9,1.2-2.4,1.8
			C1099.6,430.6,1099.4,431.2,1099.4,431.9z M1102.7,416.7c-0.6,0-1.2,0.2-1.6,0.6c-0.4,0.4-0.7,0.9-0.7,1.5c0,1.1,0.7,2.1,2.2,2.9
			c0.9-0.5,1.5-1,1.9-1.4c0.3-0.4,0.5-0.9,0.5-1.5c0-0.6-0.2-1.1-0.7-1.5C1103.8,416.9,1103.3,416.7,1102.7,416.7z"/>
		<path class="st10" d="M1123.6,433.9l0.3,0.4c-1.2,4.9-2.4,8.4-3.4,10.7h-5.3c0.4-1.8,0.7-3.7,1.1-5.9c0.4-2.2,0.6-3.9,0.8-5.2
			H1123.6z"/>
		<path class="st10" d="M1166,439.6h-9.9l-10.2-19.7h-0.2c0.2,3.1,0.4,5.5,0.4,7.1v12.6h-6.7v-27.9h9.9l10.2,19.4h0.1
			c-0.2-2.8-0.3-5.1-0.3-6.8v-12.6h6.7V439.6z"/>
		<path class="st10" d="M1182,422l4.8-10.4h8.2l-9.2,17v10.9h-7.6v-10.7l-9.2-17.3h8.2L1182,422z"/>
		<path class="st10" d="M1210.4,417.4c-1.8,0-3.2,0.7-4.2,2.2c-1,1.5-1.5,3.5-1.5,6.1c0,5.4,2,8.1,6.1,8.1c1.2,0,2.4-0.2,3.6-0.5
			c1.2-0.3,2.3-0.8,3.5-1.2v6.4c-2.3,1-5,1.5-7.9,1.5c-4.2,0-7.4-1.2-9.7-3.7c-2.2-2.4-3.4-6-3.4-10.6c0-2.9,0.5-5.4,1.6-7.6
			c1.1-2.2,2.7-3.9,4.7-5.1c2-1.2,4.4-1.8,7.2-1.8c3,0,5.9,0.7,8.7,2l-2.3,5.9c-1-0.5-2.1-0.9-3.1-1.2S1211.6,417.4,1210.4,417.4z"
			/>
		<path class="st10" d="M912.4,462h-7.6v-1.6l2.7-2.8c0.8-0.8,1.3-1.4,1.6-1.7c0.2-0.3,0.4-0.6,0.5-0.9s0.2-0.6,0.2-0.8
			c0-0.4-0.1-0.8-0.4-1s-0.6-0.3-1-0.3c-0.4,0-0.8,0.1-1.2,0.3c-0.4,0.2-0.8,0.5-1.2,0.8l-1.3-1.5c0.5-0.5,1-0.8,1.3-1
			c0.4-0.2,0.7-0.3,1.2-0.4c0.4-0.1,0.9-0.2,1.4-0.2c0.7,0,1.3,0.1,1.8,0.4c0.5,0.2,0.9,0.6,1.2,1c0.3,0.4,0.4,1,0.4,1.5
			c0,0.5-0.1,1-0.3,1.4c-0.2,0.4-0.5,0.9-0.8,1.4c-0.4,0.5-1,1.1-2,2l-1.4,1.3v0.1h4.8V462z"/>
		<path class="st10" d="M913.4,457.4c0-2.2,0.5-3.8,1.4-4.8c0.9-1.1,2.3-1.6,4.1-1.6c0.6,0,1.1,0,1.5,0.1v1.8
			c-0.4-0.1-0.9-0.1-1.3-0.1c-0.8,0-1.4,0.1-1.9,0.4c-0.5,0.2-0.9,0.6-1.1,1.1c-0.2,0.5-0.4,1.1-0.4,2h0.1c0.5-0.8,1.3-1.3,2.4-1.3
			c1,0,1.7,0.3,2.3,0.9s0.8,1.5,0.8,2.5c0,1.2-0.3,2.1-1,2.8s-1.6,1-2.7,1c-0.8,0-1.5-0.2-2.1-0.6s-1.1-0.9-1.4-1.6
			C913.5,459.3,913.4,458.4,913.4,457.4z M917.3,460.3c0.5,0,0.9-0.2,1.1-0.5c0.3-0.3,0.4-0.8,0.4-1.4c0-0.5-0.1-1-0.4-1.3
			c-0.2-0.3-0.6-0.5-1.1-0.5c-0.5,0-0.9,0.2-1.2,0.5c-0.3,0.3-0.5,0.7-0.5,1.1c0,0.6,0.2,1.1,0.5,1.5
			C916.4,460.1,916.8,460.3,917.3,460.3z"/>
		<path class="st10" d="M929.7,456.6c0,1.9-0.3,3.3-0.9,4.2c-0.6,0.9-1.6,1.4-2.9,1.4c-1.3,0-2.2-0.5-2.8-1.4c-0.6-0.9-1-2.3-1-4.2
			c0-1.9,0.3-3.3,0.9-4.3c0.6-0.9,1.6-1.4,2.9-1.4c1.3,0,2.2,0.5,2.9,1.4C929.4,453.4,929.7,454.8,929.7,456.6z M924.4,456.6
			c0,1.3,0.1,2.3,0.3,2.9c0.2,0.6,0.6,0.9,1.2,0.9c0.5,0,0.9-0.3,1.2-0.9c0.2-0.6,0.4-1.5,0.4-2.9c0-1.3-0.1-2.3-0.4-2.9
			s-0.6-0.9-1.2-0.9c-0.5,0-0.9,0.3-1.2,0.9S924.4,455.3,924.4,456.6z"/>
		<path class="st10" d="M938.5,462h-7.6v-1.6l2.7-2.8c0.8-0.8,1.3-1.4,1.6-1.7c0.2-0.3,0.4-0.6,0.5-0.9s0.2-0.6,0.2-0.8
			c0-0.4-0.1-0.8-0.4-1s-0.6-0.3-1-0.3c-0.4,0-0.8,0.1-1.2,0.3c-0.4,0.2-0.8,0.5-1.2,0.8l-1.3-1.5c0.5-0.5,1-0.8,1.3-1
			c0.4-0.2,0.7-0.3,1.2-0.4c0.4-0.1,0.9-0.2,1.4-0.2c0.7,0,1.3,0.1,1.8,0.4c0.5,0.2,0.9,0.6,1.2,1c0.3,0.4,0.4,1,0.4,1.5
			c0,0.5-0.1,1-0.3,1.4c-0.2,0.4-0.5,0.9-0.8,1.4c-0.4,0.5-1,1.1-2,2l-1.4,1.3v0.1h4.8V462z"/>
		<path class="st10" d="M946.6,462h-2.3v-10.9h6.2v1.9h-4v2.8h3.7v1.9h-3.7V462z"/>
		<path class="st10" d="M957.2,453.5c0.3,0,0.6,0,0.8,0.1l-0.2,2.1c-0.2,0-0.4-0.1-0.7-0.1c-0.7,0-1.3,0.2-1.7,0.6s-0.6,0.9-0.6,1.6
			v4.2h-2.3v-8.3h1.7l0.3,1.4h0.1c0.3-0.5,0.6-0.8,1-1.1C956.2,453.7,956.7,453.5,957.2,453.5z"/>
		<path class="st10" d="M963.2,462.2c-1.3,0-2.4-0.4-3.1-1.1c-0.8-0.7-1.1-1.8-1.1-3.1c0-1.4,0.3-2.5,1-3.2c0.7-0.8,1.7-1.1,2.9-1.1
			c1.2,0,2.1,0.3,2.8,1c0.7,0.7,1,1.6,1,2.8v1.1h-5.4c0,0.6,0.2,1.2,0.6,1.5c0.4,0.4,0.9,0.5,1.5,0.5c0.5,0,1-0.1,1.4-0.2
			c0.4-0.1,0.9-0.3,1.4-0.5v1.8c-0.4,0.2-0.8,0.3-1.3,0.4S963.9,462.2,963.2,462.2z M962.9,455.2c-0.5,0-0.9,0.2-1.1,0.5
			c-0.3,0.3-0.4,0.7-0.5,1.3h3.2c0-0.6-0.2-1-0.4-1.3C963.8,455.3,963.4,455.2,962.9,455.2z"/>
		<path class="st10" d="M971.1,462.2c-1,0-1.7-0.4-2.3-1.1c-0.6-0.8-0.8-1.8-0.8-3.2c0-1.4,0.3-2.4,0.9-3.2c0.6-0.8,1.4-1.1,2.4-1.1
			c1,0,1.8,0.4,2.4,1.2h0.1c-0.1-0.6-0.2-1.2-0.2-1.7v-2.7h2.3V462H974l-0.4-1.1h-0.1C973,461.8,972.2,462.2,971.1,462.2z
			 M971.9,460.4c0.6,0,1-0.2,1.3-0.5c0.3-0.3,0.4-0.9,0.4-1.7v-0.2c0-0.9-0.1-1.5-0.4-1.9c-0.3-0.4-0.7-0.6-1.3-0.6
			c-0.5,0-0.9,0.2-1.2,0.6c-0.3,0.4-0.4,1.1-0.4,1.9s0.1,1.4,0.4,1.8C971,460.2,971.4,460.4,971.9,460.4z"/>
		<path class="st10" d="M981.9,462.2c-1.3,0-2.4-0.4-3.1-1.1c-0.8-0.7-1.1-1.8-1.1-3.1c0-1.4,0.3-2.5,1-3.2c0.7-0.8,1.7-1.1,2.9-1.1
			c1.2,0,2.1,0.3,2.8,1c0.7,0.7,1,1.6,1,2.8v1.1H980c0,0.6,0.2,1.2,0.6,1.5c0.4,0.4,0.9,0.5,1.5,0.5c0.5,0,1-0.1,1.4-0.2
			c0.4-0.1,0.9-0.3,1.4-0.5v1.8c-0.4,0.2-0.8,0.3-1.3,0.4S982.6,462.2,981.9,462.2z M981.6,455.2c-0.5,0-0.9,0.2-1.1,0.5
			c-0.3,0.3-0.4,0.7-0.5,1.3h3.2c0-0.6-0.2-1-0.4-1.3C982.5,455.3,982.1,455.2,981.6,455.2z"/>
		<path class="st10" d="M991.8,453.5c0.3,0,0.6,0,0.8,0.1l-0.2,2.1c-0.2,0-0.4-0.1-0.7-0.1c-0.7,0-1.3,0.2-1.7,0.6s-0.6,0.9-0.6,1.6
			v4.2h-2.3v-8.3h1.7l0.3,1.4h0.1c0.3-0.5,0.6-0.8,1-1.1C990.8,453.7,991.3,453.5,991.8,453.5z"/>
		<path class="st10" d="M994,451.5c0-0.7,0.4-1.1,1.2-1.1c0.8,0,1.2,0.4,1.2,1.1c0,0.4-0.1,0.6-0.3,0.8c-0.2,0.2-0.5,0.3-0.9,0.3
			C994.4,452.7,994,452.3,994,451.5z M996.4,462h-2.3v-8.3h2.3V462z"/>
		<path class="st10" d="M1002.2,462.2c-2.6,0-3.9-1.4-3.9-4.3c0-1.4,0.4-2.5,1.1-3.2s1.7-1.1,3-1.1c1,0,1.8,0.2,2.6,0.6l-0.7,1.8
			c-0.4-0.1-0.7-0.3-1-0.4c-0.3-0.1-0.6-0.1-0.9-0.1c-1.2,0-1.8,0.8-1.8,2.5c0,1.6,0.6,2.4,1.8,2.4c0.4,0,0.8-0.1,1.2-0.2
			s0.7-0.3,1.1-0.5v1.9c-0.4,0.2-0.7,0.4-1.1,0.5C1003.2,462.1,1002.7,462.2,1002.2,462.2z"/>
		<path class="st10" d="M1008.8,457.5l1-1.3l2.3-2.5h2.6l-3.3,3.6l3.5,4.7h-2.6l-2.4-3.4l-1,0.8v2.6h-2.3v-11.6h2.3v5.2
			L1008.8,457.5L1008.8,457.5z"/>
		<path class="st10" d="M1029.3,456.5c0,1.8-0.5,3.2-1.5,4.1c-1,1-2.5,1.4-4.4,1.4h-3.1v-10.9h3.4c1.8,0,3.2,0.5,4.1,1.4
			S1029.3,454.8,1029.3,456.5z M1026.9,456.5c0-2.3-1-3.5-3.1-3.5h-1.2v7.1h1C1025.8,460.1,1026.9,458.9,1026.9,456.5z"/>
		<path class="st10" d="M1039,457.9c0,1.4-0.4,2.4-1.1,3.2c-0.7,0.8-1.7,1.1-3,1.1c-0.8,0-1.5-0.2-2.1-0.5s-1.1-0.9-1.4-1.5
			s-0.5-1.4-0.5-2.3c0-1.4,0.4-2.4,1.1-3.2s1.7-1.1,3-1.1c0.8,0,1.5,0.2,2.1,0.5c0.6,0.3,1.1,0.8,1.4,1.5S1039,457,1039,457.9z
			 M1033.2,457.9c0,0.8,0.1,1.4,0.4,1.9c0.3,0.4,0.7,0.6,1.3,0.6c0.6,0,1-0.2,1.3-0.6c0.3-0.4,0.4-1,0.4-1.9c0-0.8-0.1-1.4-0.4-1.9
			c-0.3-0.4-0.7-0.6-1.3-0.6c-0.6,0-1,0.2-1.3,0.6S1033.2,457,1033.2,457.9z"/>
		<path class="st10" d="M1046.7,462l-0.3-1.1h-0.1c-0.2,0.4-0.6,0.7-1,0.9c-0.4,0.2-1,0.3-1.5,0.3c-1,0-1.7-0.3-2.2-0.8
			c-0.5-0.5-0.7-1.3-0.7-2.3v-5.4h2.3v4.9c0,0.6,0.1,1.1,0.3,1.4s0.6,0.5,1,0.5c0.6,0,1.1-0.2,1.4-0.6c0.3-0.4,0.4-1.1,0.4-2.1v-3.9
			h2.3v8.3H1046.7z"/>
		<path class="st10" d="M1058.1,453.7v1.2l-1.3,0.3c0.2,0.4,0.4,0.8,0.4,1.3c0,0.9-0.3,1.6-0.9,2.1c-0.6,0.5-1.5,0.8-2.6,0.8l-0.4,0
			l-0.3,0c-0.2,0.2-0.4,0.4-0.4,0.6c0,0.3,0.4,0.5,1.3,0.5h1.4c0.9,0,1.6,0.2,2.1,0.6c0.5,0.4,0.7,1,0.7,1.7c0,1-0.4,1.7-1.2,2.3
			c-0.8,0.5-2,0.8-3.5,0.8c-1.2,0-2.1-0.2-2.7-0.6c-0.6-0.4-0.9-1-0.9-1.7c0-0.5,0.2-0.9,0.5-1.3c0.3-0.3,0.8-0.6,1.4-0.7
			c-0.2-0.1-0.4-0.3-0.6-0.5c-0.2-0.2-0.3-0.5-0.3-0.7c0-0.3,0.1-0.6,0.3-0.8c0.2-0.2,0.4-0.4,0.8-0.6c-0.4-0.2-0.8-0.5-1-0.9
			c-0.3-0.4-0.4-0.9-0.4-1.5c0-0.9,0.3-1.6,0.9-2.1s1.4-0.7,2.5-0.7c0.2,0,0.5,0,0.8,0.1c0.3,0,0.5,0.1,0.6,0.1H1058.1z
			 M1051.7,463.2c0,0.3,0.2,0.6,0.5,0.7c0.3,0.2,0.7,0.3,1.3,0.3c0.8,0,1.5-0.1,1.9-0.3s0.7-0.5,0.7-0.9c0-0.3-0.1-0.5-0.4-0.6
			c-0.3-0.1-0.7-0.2-1.3-0.2h-1.2c-0.4,0-0.8,0.1-1,0.3C1051.8,462.6,1051.7,462.9,1051.7,463.2z M1052.5,456.4
			c0,0.5,0.1,0.8,0.3,1.1c0.2,0.3,0.5,0.4,0.9,0.4c0.4,0,0.7-0.1,0.9-0.4c0.2-0.3,0.3-0.6,0.3-1.1c0-1-0.4-1.5-1.2-1.5
			C1052.9,454.9,1052.5,455.4,1052.5,456.4z"/>
		<path class="st10" d="M1061.8,462h-2.3v-11.6h2.3V462z"/>
		<path class="st10" d="M1069.5,462l-0.4-1.1h-0.1c-0.4,0.5-0.8,0.8-1.2,1s-0.9,0.3-1.6,0.3c-0.8,0-1.4-0.2-1.9-0.7
			c-0.5-0.5-0.7-1.1-0.7-2c0-0.9,0.3-1.5,0.9-2c0.6-0.4,1.6-0.7,2.8-0.7l1.4,0v-0.4c0-0.8-0.4-1.3-1.3-1.3c-0.7,0-1.4,0.2-2.3,0.6
			l-0.8-1.5c1-0.5,2-0.8,3.2-0.8c1.1,0,2,0.2,2.6,0.7s0.9,1.2,0.9,2.2v5.6H1069.5z M1068.8,458.2l-0.9,0c-0.7,0-1.2,0.1-1.5,0.4
			s-0.5,0.6-0.5,1c0,0.6,0.4,1,1.1,1c0.5,0,0.9-0.2,1.3-0.5c0.3-0.3,0.5-0.7,0.5-1.2V458.2z"/>
		<path class="st10" d="M1079.2,459.6c0,0.9-0.3,1.5-0.9,2c-0.6,0.4-1.5,0.7-2.7,0.7c-0.6,0-1.1,0-1.6-0.1c-0.4-0.1-0.8-0.2-1.2-0.4
			v-1.9c0.4,0.2,0.9,0.4,1.4,0.5c0.5,0.1,1,0.2,1.4,0.2c0.8,0,1.2-0.2,1.2-0.7c0-0.2-0.1-0.3-0.2-0.4c-0.1-0.1-0.3-0.2-0.6-0.4
			s-0.6-0.3-1.1-0.5c-0.6-0.3-1.1-0.5-1.4-0.7s-0.5-0.5-0.7-0.8s-0.2-0.7-0.2-1.1c0-0.7,0.3-1.3,0.9-1.7s1.4-0.6,2.4-0.6
			c1,0,2,0.2,2.9,0.7l-0.7,1.6c-0.4-0.2-0.8-0.3-1.2-0.4c-0.4-0.1-0.7-0.2-1.1-0.2c-0.7,0-1,0.2-1,0.5c0,0.2,0.1,0.4,0.3,0.5
			c0.2,0.1,0.7,0.4,1.4,0.7c0.7,0.3,1.1,0.5,1.4,0.7s0.5,0.5,0.7,0.8C1079.1,458.8,1079.2,459.2,1079.2,459.6z"/>
		<path class="st10" d="M1086.8,459.6c0,0.9-0.3,1.5-0.9,2c-0.6,0.4-1.5,0.7-2.7,0.7c-0.6,0-1.1,0-1.6-0.1c-0.4-0.1-0.8-0.2-1.2-0.4
			v-1.9c0.4,0.2,0.9,0.4,1.4,0.5c0.5,0.1,1,0.2,1.4,0.2c0.8,0,1.2-0.2,1.2-0.7c0-0.2-0.1-0.3-0.2-0.4c-0.1-0.1-0.3-0.2-0.6-0.4
			s-0.6-0.3-1.1-0.5c-0.6-0.3-1.1-0.5-1.4-0.7s-0.5-0.5-0.7-0.8s-0.2-0.7-0.2-1.1c0-0.7,0.3-1.3,0.9-1.7s1.4-0.6,2.4-0.6
			c1,0,2,0.2,2.9,0.7l-0.7,1.6c-0.4-0.2-0.8-0.3-1.2-0.4c-0.4-0.1-0.7-0.2-1.1-0.2c-0.7,0-1,0.2-1,0.5c0,0.2,0.1,0.4,0.3,0.5
			c0.2,0.1,0.7,0.4,1.4,0.7c0.7,0.3,1.1,0.5,1.4,0.7s0.5,0.5,0.7,0.8C1086.7,458.8,1086.8,459.2,1086.8,459.6z"/>
		<path class="st10" d="M1092.7,451.1h3.4c1.5,0,2.7,0.2,3.4,0.7c0.7,0.4,1,1.1,1,2.1c0,0.7-0.2,1.2-0.5,1.6
			c-0.3,0.4-0.7,0.7-1.2,0.8v0.1c0.7,0.2,1.2,0.4,1.5,0.9s0.5,1,0.5,1.7c0,1-0.4,1.8-1.1,2.3s-1.7,0.8-2.9,0.8h-4.1V451.1z
			 M1095,455.5h1.3c0.6,0,1.1-0.1,1.4-0.3c0.3-0.2,0.4-0.5,0.4-1c0-0.4-0.2-0.7-0.5-0.9c-0.3-0.2-0.8-0.3-1.5-0.3h-1.2V455.5z
			 M1095,457.3v2.8h1.5c0.6,0,1.1-0.1,1.4-0.4c0.3-0.2,0.5-0.6,0.5-1.1c0-0.9-0.6-1.4-1.9-1.4H1095z"/>
		<path class="st10" d="M1105.1,462h-2.3v-11.6h2.3V462z"/>
		<path class="st10" d="M1109.4,462l-3.2-8.3h2.4l1.6,4.8c0.2,0.6,0.3,1.2,0.3,1.7h0c0-0.5,0.1-1,0.3-1.7l1.6-4.8h2.4l-3.2,8.3
			H1109.4z"/>
		<path class="st10" d="M1118.8,462.2c-1,0-1.7-0.4-2.3-1.1c-0.6-0.8-0.8-1.8-0.8-3.2c0-1.4,0.3-2.4,0.9-3.2
			c0.6-0.8,1.4-1.1,2.4-1.1c1,0,1.8,0.4,2.4,1.2h0.1c-0.1-0.6-0.2-1.2-0.2-1.7v-2.7h2.3V462h-1.7l-0.4-1.1h-0.1
			C1120.6,461.8,1119.9,462.2,1118.8,462.2z M1119.6,460.4c0.6,0,1-0.2,1.3-0.5c0.3-0.3,0.4-0.9,0.4-1.7v-0.2c0-0.9-0.1-1.5-0.4-1.9
			c-0.3-0.4-0.7-0.6-1.3-0.6c-0.5,0-0.9,0.2-1.2,0.6c-0.3,0.4-0.4,1.1-0.4,1.9s0.1,1.4,0.4,1.8
			C1118.7,460.2,1119.1,460.4,1119.6,460.4z"/>
		<path class="st10" d="M1128,460.4c-0.3,1-0.7,2.2-1.3,3.6h-1.6c0.3-1.3,0.6-2.6,0.8-3.7h2.1L1128,460.4z"/>
		<path class="st10" d="M1144.1,462h-2.9l-4.7-8.2h-0.1c0.1,1.5,0.1,2.5,0.1,3.1v5.1h-2.1v-10.9h2.9l4.7,8.2h0.1
			c-0.1-1.4-0.1-2.4-0.1-3v-5.2h2.1V462z"/>
		<path class="st10" d="M1150.4,462.2c-1.3,0-2.4-0.4-3.1-1.1c-0.8-0.7-1.1-1.8-1.1-3.1c0-1.4,0.3-2.5,1-3.2
			c0.7-0.8,1.7-1.1,2.9-1.1c1.2,0,2.1,0.3,2.8,1c0.7,0.7,1,1.6,1,2.8v1.1h-5.4c0,0.6,0.2,1.2,0.6,1.5c0.4,0.4,0.9,0.5,1.5,0.5
			c0.5,0,1-0.1,1.4-0.2c0.4-0.1,0.9-0.3,1.4-0.5v1.8c-0.4,0.2-0.8,0.3-1.3,0.4S1151.1,462.2,1150.4,462.2z M1150.1,455.2
			c-0.5,0-0.9,0.2-1.1,0.5c-0.3,0.3-0.4,0.7-0.5,1.3h3.2c0-0.6-0.2-1-0.4-1.3C1151,455.3,1150.6,455.2,1150.1,455.2z"/>
		<path class="st10" d="M1162.5,462l-0.6-2.9l-0.9-3.7h-0.1l-1.5,6.6h-2.4l-2.4-8.3h2.3l1,3.7c0.2,0.7,0.3,1.6,0.5,2.7h0
			c0-0.4,0.1-1,0.3-1.8l0.1-0.6l1-4h2.5l1,4c0,0.1,0.1,0.3,0.1,0.5c0,0.2,0.1,0.4,0.1,0.7c0,0.2,0.1,0.5,0.1,0.7s0.1,0.4,0.1,0.6h0
			c0-0.4,0.1-0.8,0.2-1.5c0.1-0.6,0.2-1,0.2-1.3l1-3.7h2.2l-2.4,8.3H1162.5z"/>
		<path class="st10" d="M1176.3,455.6l2.3-4.5h2.5l-3.6,6.7v4.2h-2.3v-4.2l-3.6-6.7h2.5L1176.3,455.6z"/>
		<path class="st10" d="M1189.8,457.9c0,1.4-0.4,2.4-1.1,3.2c-0.7,0.8-1.7,1.1-3,1.1c-0.8,0-1.5-0.2-2.1-0.5s-1.1-0.9-1.4-1.5
			s-0.5-1.4-0.5-2.3c0-1.4,0.4-2.4,1.1-3.2s1.7-1.1,3-1.1c0.8,0,1.5,0.2,2.1,0.5c0.6,0.3,1.1,0.8,1.4,1.5S1189.8,457,1189.8,457.9z
			 M1184,457.9c0,0.8,0.1,1.4,0.4,1.9c0.3,0.4,0.7,0.6,1.3,0.6c0.6,0,1-0.2,1.3-0.6c0.3-0.4,0.4-1,0.4-1.9c0-0.8-0.1-1.4-0.4-1.9
			c-0.3-0.4-0.7-0.6-1.3-0.6c-0.6,0-1,0.2-1.3,0.6S1184,457,1184,457.9z"/>
		<path class="st10" d="M1196.3,453.5c0.3,0,0.6,0,0.8,0.1l-0.2,2.1c-0.2,0-0.4-0.1-0.7-0.1c-0.7,0-1.3,0.2-1.7,0.6
			s-0.6,0.9-0.6,1.6v4.2h-2.3v-8.3h1.7l0.3,1.4h0.1c0.3-0.5,0.6-0.8,1-1.1C1195.3,453.7,1195.8,453.5,1196.3,453.5z"/>
		<path class="st10" d="M1200.8,457.5l1-1.3l2.3-2.5h2.6l-3.3,3.6l3.5,4.7h-2.6l-2.4-3.4l-1,0.8v2.6h-2.3v-11.6h2.3v5.2
			L1200.8,457.5L1200.8,457.5z"/>
		<path class="st10" d="M1210.3,460.4c-0.3,1-0.7,2.2-1.3,3.6h-1.6c0.3-1.3,0.6-2.6,0.8-3.7h2.1L1210.3,460.4z"/>
		<path class="st10" d="M1226.3,462h-2.9l-4.7-8.2h-0.1c0.1,1.5,0.1,2.5,0.1,3.1v5.1h-2.1v-10.9h2.9l4.7,8.2h0.1
			c-0.1-1.4-0.1-2.4-0.1-3v-5.2h2.1V462z"/>
		<path class="st10" d="M1232.5,455.6l2.3-4.5h2.5l-3.6,6.7v4.2h-2.3v-4.2l-3.6-6.7h2.5L1232.5,455.6z"/>
		<path class="st10" d="M1247.5,462h-2.3v-6.3l0-1l0-1.1c-0.4,0.4-0.6,0.6-0.8,0.8l-1.3,1l-1.1-1.4l3.5-2.8h1.9V462z"/>
		<path class="st10" d="M1258.1,456.6c0,1.9-0.3,3.3-0.9,4.2c-0.6,0.9-1.6,1.4-2.9,1.4c-1.3,0-2.2-0.5-2.8-1.4c-0.6-0.9-1-2.3-1-4.2
			c0-1.9,0.3-3.3,0.9-4.3c0.6-0.9,1.6-1.4,2.9-1.4c1.3,0,2.2,0.5,2.9,1.4C1257.8,453.4,1258.1,454.8,1258.1,456.6z M1252.8,456.6
			c0,1.3,0.1,2.3,0.3,2.9c0.2,0.6,0.6,0.9,1.2,0.9c0.5,0,0.9-0.3,1.2-0.9c0.2-0.6,0.4-1.5,0.4-2.9c0-1.3-0.1-2.3-0.4-2.9
			s-0.6-0.9-1.2-0.9c-0.5,0-0.9,0.3-1.2,0.9S1252.8,455.3,1252.8,456.6z"/>
		<path class="st10" d="M1266.8,456.6c0,1.9-0.3,3.3-0.9,4.2c-0.6,0.9-1.6,1.4-2.9,1.4c-1.3,0-2.2-0.5-2.8-1.4c-0.6-0.9-1-2.3-1-4.2
			c0-1.9,0.3-3.3,0.9-4.3c0.6-0.9,1.6-1.4,2.9-1.4c1.3,0,2.2,0.5,2.9,1.4C1266.5,453.4,1266.8,454.8,1266.8,456.6z M1261.5,456.6
			c0,1.3,0.1,2.3,0.3,2.9c0.2,0.6,0.6,0.9,1.2,0.9c0.5,0,0.9-0.3,1.2-0.9c0.2-0.6,0.4-1.5,0.4-2.9c0-1.3-0.1-2.3-0.4-2.9
			s-0.6-0.9-1.2-0.9c-0.5,0-0.9,0.3-1.2,0.9S1261.5,455.3,1261.5,456.6z"/>
		<path class="st10" d="M1275.2,453.6c0,0.7-0.2,1.3-0.6,1.7c-0.4,0.5-1,0.8-1.7,1v0c0.9,0.1,1.5,0.4,2,0.8c0.5,0.4,0.7,1,0.7,1.7
			c0,1-0.4,1.9-1.1,2.4c-0.8,0.6-1.8,0.9-3.3,0.9c-1.2,0-2.2-0.2-3.1-0.6v-2c0.4,0.2,0.9,0.4,1.4,0.5c0.5,0.1,1,0.2,1.5,0.2
			c0.8,0,1.3-0.1,1.7-0.4c0.4-0.3,0.5-0.7,0.5-1.2c0-0.5-0.2-0.9-0.6-1.1c-0.4-0.2-1.1-0.3-2-0.3h-0.8v-1.8h0.8
			c0.8,0,1.5-0.1,1.9-0.3c0.4-0.2,0.6-0.6,0.6-1.1c0-0.8-0.5-1.2-1.6-1.2c-0.4,0-0.7,0.1-1.1,0.2c-0.4,0.1-0.8,0.3-1.2,0.6l-1.1-1.6
			c1-0.7,2.2-1.1,3.6-1.1c1.1,0,2,0.2,2.7,0.7S1275.2,452.8,1275.2,453.6z"/>
		<path class="st10" d="M1284.3,456.6c0,1.9-0.3,3.3-0.9,4.2c-0.6,0.9-1.6,1.4-2.9,1.4c-1.3,0-2.2-0.5-2.8-1.4c-0.6-0.9-1-2.3-1-4.2
			c0-1.9,0.3-3.3,0.9-4.3c0.6-0.9,1.6-1.4,2.9-1.4c1.3,0,2.2,0.5,2.9,1.4C1283.9,453.4,1284.3,454.8,1284.3,456.6z M1278.9,456.6
			c0,1.3,0.1,2.3,0.3,2.9c0.2,0.6,0.6,0.9,1.2,0.9c0.5,0,0.9-0.3,1.2-0.9c0.2-0.6,0.4-1.5,0.4-2.9c0-1.3-0.1-2.3-0.4-2.9
			s-0.6-0.9-1.2-0.9c-0.5,0-0.9,0.3-1.2,0.9S1278.9,455.3,1278.9,456.6z"/>
	</g>
</g>
<g>
	<path class="st14" d="M906,168.7c0.7-2.1,1.6-4,3-5.5c1.3-1.6,3-2.8,5-3.7c2-0.9,4.3-1.3,6.9-1.3c2,0,3.8,0.3,5.6,0.9
		c1.8,0.6,3.4,1.5,4.7,2.6c1.4,1.1,2.4,2.6,3.2,4.2c0.8,1.7,1.2,3.6,1.2,5.7c0,2.2-0.3,4-1,5.6s-1.6,2.9-2.8,4.2
		c-1.1,1.2-2.5,2.3-3.9,3.3c-1.5,1-2.9,2-4.4,2.9c-1.5,1-2.9,2-4.3,3.1c-1.4,1.1-2.6,2.4-3.7,3.9h20.4v7.5h-31.6
		c0-2.5,0.4-4.7,1.1-6.5c0.7-1.8,1.7-3.5,2.9-5c1.2-1.5,2.7-2.8,4.3-4s3.4-2.5,5.3-3.8c0.9-0.7,1.9-1.3,3-2c1.1-0.7,2-1.4,2.9-2.2
		c0.9-0.8,1.6-1.7,2.2-2.8c0.6-1,0.9-2.2,0.9-3.5c0-2.1-0.6-3.7-1.8-4.9c-1.2-1.2-2.8-1.8-4.6-1.8c-1.3,0-2.3,0.3-3.2,0.9
		c-0.9,0.6-1.6,1.4-2.1,2.3c-0.5,1-0.9,2-1.1,3.2s-0.3,2.3-0.3,3.5h-8.4C905,173.1,905.3,170.8,906,168.7z"/>
	<path class="st14" d="M954.4,169.8c0.8-2.9,2-5.1,3.4-6.9c1.4-1.7,3.1-3,5-3.7c1.9-0.7,3.9-1.1,6.1-1.1c2.2,0,4.2,0.4,6.1,1.1
		c1.9,0.7,3.6,2,5,3.7c1.5,1.7,2.6,4,3.4,6.9c0.8,2.9,1.3,6.4,1.3,10.6c0,4.3-0.4,7.9-1.3,10.8c-0.8,2.9-2,5.2-3.4,6.9
		c-1.5,1.7-3.1,3-5,3.7c-1.9,0.7-3.9,1.1-6.1,1.1c-2.1,0-4.2-0.4-6.1-1.1c-1.9-0.7-3.6-2-5-3.7c-1.4-1.7-2.6-4-3.4-6.9
		c-0.8-2.9-1.3-6.5-1.3-10.8C953.1,176.2,953.5,172.6,954.4,169.8z M962,184.8c0.1,1.7,0.3,3.4,0.8,5c0.4,1.6,1.1,3,2.1,4.2
		c0.9,1.1,2.3,1.7,4.1,1.7c1.8,0,3.2-0.6,4.2-1.7c1-1.1,1.7-2.5,2.1-4.2c0.4-1.6,0.7-3.3,0.8-5c0.1-1.7,0.1-3.2,0.1-4.5
		c0-0.7,0-1.6,0-2.7c0-1-0.1-2.1-0.2-3.2s-0.3-2.2-0.6-3.3c-0.3-1.1-0.7-2.1-1.2-2.9c-0.5-0.9-1.2-1.6-2-2.1c-0.8-0.5-1.8-0.8-3-0.8
		c-1.2,0-2.2,0.3-3,0.8c-0.8,0.5-1.5,1.2-2,2.1c-0.5,0.9-0.9,1.8-1.2,2.9c-0.3,1.1-0.5,2.2-0.6,3.3s-0.2,2.2-0.2,3.2
		c0,1,0,1.9,0,2.7C961.8,181.6,961.9,183.1,962,184.8z"/>
	<path class="st14" d="M1016.2,202.1v-27.9h-10.8v-6.6c1.5,0,3-0.1,4.4-0.3c1.4-0.3,2.7-0.7,3.8-1.4c1.1-0.7,2.1-1.6,2.9-2.7
		c0.8-1.1,1.3-2.5,1.5-4.1h7v43.1H1016.2z"/>
	<path class="st14" d="M1062.1,194.7c1,1.1,2.3,1.6,3.8,1.6c1.6,0,2.9-0.5,3.9-1.4c1-0.9,1.8-2.1,2.5-3.4c0.6-1.3,1.1-2.8,1.3-4.3
		c0.3-1.5,0.4-2.9,0.5-4.1l-0.1-0.1c-1.2,1.7-2.6,3-4.2,3.7c-1.6,0.7-3.4,1.1-5.5,1.1c-1.8,0-3.7-0.4-5.4-1.2
		c-1.8-0.8-3.3-1.9-4.5-3.2c-1.1-1.3-2-2.8-2.5-4.5c-0.5-1.7-0.8-3.4-0.8-5.1c0-2.2,0.4-4.3,1.1-6.2c0.7-1.9,1.7-3.6,3.1-5
		c1.3-1.4,2.9-2.5,4.8-3.4c1.8-0.8,3.9-1.2,6.2-1.2c3.3,0,6,0.6,8.1,1.9c2.1,1.3,3.8,3,5.1,5.1c1.3,2.1,2.2,4.5,2.6,7.2
		s0.7,5.4,0.7,8.1c0,2.7-0.3,5.3-0.9,8c-0.6,2.7-1.6,5.1-3,7.2c-1.4,2.2-3.1,3.9-5.2,5.2c-2.1,1.3-4.7,2-7.8,2
		c-1.8,0-3.6-0.3-5.2-0.8c-1.6-0.5-3-1.3-4.2-2.3c-1.2-1-2.2-2.3-3-3.8c-0.8-1.5-1.3-3.2-1.5-5h8.3
		C1060.4,192.4,1061.1,193.7,1062.1,194.7z M1069.5,180.7c0.9-0.4,1.6-1,2.2-1.8s1-1.6,1.3-2.6c0.3-1,0.4-2,0.4-3c0-1-0.2-2-0.5-2.9
		c-0.3-1-0.8-1.8-1.4-2.6c-0.6-0.8-1.3-1.4-2.2-1.8c-0.9-0.5-1.8-0.7-3-0.7c-1,0-1.9,0.2-2.8,0.7c-0.8,0.5-1.5,1-2.1,1.8
		c-0.6,0.7-1,1.6-1.3,2.5c-0.3,0.9-0.4,1.9-0.4,2.9c0,1,0.1,2,0.4,3c0.3,1,0.7,1.8,1.2,2.6c0.5,0.8,1.2,1.4,2.1,1.8
		c0.8,0.5,1.8,0.7,2.9,0.7C1067.6,181.3,1068.6,181.1,1069.5,180.7z"/>
</g>
</svg>
