<?xml version="1.0" encoding="utf-8"?>
<!-- Generator: Adobe Illustrator 23.0.6, SVG Export Plug-In . SVG Version: 6.00 Build 0)  -->
<svg version="1.1" id="Layer_1" xmlns="http://www.w3.org/2000/svg" xmlns:xlink="http://www.w3.org/1999/xlink" x="0px" y="0px"
	 viewBox="0 0 149.5 162.2" style="enable-background:new 0 0 149.5 162.2;" xml:space="preserve">
<style type="text/css">
	.st0{fill:#FFFFFF;}
	.st1{fill:#F299C1;}
	.st2{fill:#FDF49B;}
	.st3{fill:#6ECEF5;}
</style>
<g>
	<path class="st0" d="M106.3,61.5v0.2c0,0.2-0.1,0.4-0.2,0.5s-0.3,0.2-0.5,0.2c-0.3,0-0.5-0.2-0.6-0.3c-0.2-0.1-0.4-0.2-0.6-0.2
		c-0.1,0-0.2,0-0.2,0c-0.2,0-0.5,0.2-0.6,0.3c-0.2,0.2-0.3,0.3-0.3,0.7c0,0,0,0.2-0.1,0.4s-0.2,0.4-0.2,0.4
		c-0.2,0.3-0.6,0.6-1.1,0.8c-0.5,0.1-1,0.1-1.4-0.1l0,0c-1.1-0.6-0.9-2.2,0.1-2.7c1.8-1,3.6-0.6,4.6-1.8s0.5-2.3,0.5-2.3
		s1.1-1,0.9-2.2s-1.5-1.6-1.1-1.1c0,0.1,0.1,0.1,0.1,0.2c0.1,0.1,0.1,0.3,0.1,0.5c0,0.5-0.3,0.8-0.8,0.8c-0.4,0-0.8-0.4-0.8-0.8
		c0-0.2,0.1-0.4,0.1-0.5c0.1-0.2,0.6-0.9,1-1.5c0.7-1-0.8-1.9-1.2-2.6c-0.6-1.5,0.4-1.9,0.7-1.8c0.1,0,0.1,0,0.1,0
		c-0.2-0.3-1.3-0.1-2,0.8c-0.6,0.8-0.4,2-0.1,3.2c0.1,0.4,0.4,1.1-0.4,1.4c-0.2,0.1-0.4,0-0.5,0c-0.3-0.1-0.5-0.4-0.5-0.7
		c0-0.4,0.3-0.8,0.8-0.8c0.3,0-0.3-0.6-1.1-0.2c-0.6,0.3-0.5,0.8-0.7,1.6c-0.7,3-2.9,2.2-3.4,1.1c-1.3-2.6,1.7-2.8,2.7-4.7
		c0.7-1.4,0.2-2.6,0.2-2.6s0.6-0.2,0.6-1.8s-2.3-2.1-2-1.7c0.4,0.4,0.7,2.2-0.8,2.2c-1,0-1.8-1.1-0.4-2.2c1-0.8,1.6-1.5,1.6-3.2
		c0-2.4-2.9-3.4-2.9-4.6c0-1.3,1.5-1.6,1.1-1.7c-0.8-0.2-1.9,0.1-2.6,1.5c-0.6,1.3,0.6,3.2,0.9,3.8c0.2,0.6,0.4,1.4,0.2,1.9
		c-0.2,0.5-0.6,0.6-1,0.6s-0.8-0.4-0.9-0.9c0-0.3,0-0.9,0.5-0.9c0.2,0,0.3-0.1,0.2-0.2c0,0-0.9-0.7-1.9,0.4
		c-1.3,1.4,0.2,2.8-0.9,2.9c-2.6,0.3-2.6-3.8-1.1-5.8c1.2-1.7,3.7-3,3.7-4.7c0-1.6-0.9-1.8-0.9-1.6c0,0.2,0.3,0.6-0.1,1.3
		c-0.2,0.3-0.8,1-1.2,0.6c-0.1-0.1-0.1-0.2,0-0.3l0,0c0.1-0.2,0.5-0.5,0.5-1.6c0-1.7-1.4-2.2-1.2-1.9c0.1,0.2,0.1,0.6-0.1,0.9
		s-0.8,0.5-1.2,0.1c-0.7-0.7,0.8-1.8,0.8-3.4c0-1.5-1.5-1.5-1.7-2.8c-0.1-0.6,0.5-1.3,0.7-1.4c0.3-0.2,0-0.1,0-0.1s-1.3,0.2-1.7,1.1
		c-0.8,1.6,1.3,2.6,0.5,4.2c-0.3,0.6-0.9,0.5-1.1-0.3c-0.2-0.9,0.7-1.2-0.2-1c-0.4,0.1-0.5,0.4-0.6,1c-0.1,1,0.1,0.8-1.2,1.4
		C84.3,30,84,31.1,84,31.6c0,0.2,0,0.4,0.1,0.6c0,0.1,0.1,0.1,0.1,0c0-0.4,0.4-1.5,1.6-1.6c3.1-0.3,2.7,2.6,1.9,3.6
		c-1.5,1.9-4,1.1-4.8-0.4c-0.9-1.8-0.4-3.1,0.8-4.5c0.6-0.7,1.9-1.4,2.1-2.9c0.1-1.2-0.4-1.9-1.2-2.7c-0.6-0.6-0.7-1.1-0.4-1.5
		c0.3-0.4,0.5-0.6,0.5-1c0-0.6-0.3-1.1-0.8-1.3c-0.5-0.2-0.9-0.5-0.9-0.8s0-0.5,0.2-0.7s0.4-0.4,0.6-0.4c0.1,0,0.1,0,0.1,0
		s-0.7-0.3-1.4,0.3c-0.9,0.9-0.6,2-0.1,2.8c0.5,0.9,1,2,0,2.2c-1.2,0.3-1.3-1.2-0.9-1.6c0.2-0.2,0.1-0.2,0.1-0.2s-1.1-0.2-1.2,1.1
		c-0.2,1.5,0.9,1.7,1,2.2c0.3,1.3-1.2,2.4-2.4,1.7c-1.4-0.9-0.5-2.7,0.9-4.7c1.7-2.5-0.9-3.8-1.1-3.9c0,0-0.2-0.1-0.1,0.1
		c0,0.1,0.1,0.1,0.1,0.2c0.2,1.5-0.7,1.9-1.3,1.9c-0.6,0-1.2-0.5-1.2-1.2c0-0.5,0.2-0.9,0.6-1.1c0.5-0.3,0.9-0.5,1.2-1
		c0.9-1.8-0.4-3.1-1.2-3.6c-0.8-0.5-0.4,0.2-0.4,0.8c0,1-0.7,1.4-1.2,1.2c-0.2,0-0.4-0.1-0.6-0.5c-0.1-0.2-0.1-0.3-0.1-0.5
		c0-0.4,0.3-0.9,0.6-1.6c0.1-0.2,0.1-0.4,0.2-0.7c0.5-2.2-1.7-3.1-1.9-2.8c-0.2,0.3,1.1,0.7,0.7,1.7c-0.1,0.4-0.5,0.4-0.6,0.5
		c-0.3,0.1-0.5,0.1-0.6,0.2c-0.5,0.2-0.8,0.7-0.9,1.2c-0.1,0.3,0,0.6,0.1,0.9c0.4,1.1,0.4,1.8-0.5,1.9c-1.2,0.1-1.2-1.6-0.8-1.9
		c0.2-0.1,0-0.1,0-0.1s-0.4-0.1-1,0.2c-0.3,0.1-0.7,0.5-1,1.5c-0.2,0.9-0.3,2,0.4,3.1c0.7,1.2,1.7,1.2,2.6,1.6
		c2.4,1,1.4,3.1,0.2,3.3c-0.9,0.1-1.4-0.4-1.7-1.2c-0.2-0.4-0.2-0.5-0.4-0.9c-0.5-1.6-1.9-0.4-3.2-0.9c-1-0.4-1-1.1-0.8-1.7
		c0.2-0.5,0.9-1.1,1-1.2c0.1,0,0.1-0.1-0.1,0c-1.7,0.4-2.8,2-1.9,3.9c0.4,0.9,1.8,1.4,1.9,1.4c0.6,0.2,1.2,0.9,1.2,1.4
		c0,0.7-0.6,1.3-1.2,1.3c-0.8,0-1.2-0.6-1.3-0.8c-0.3-0.6-0.4-1.4-0.2-1.7c0.1-0.2,0-0.2,0-0.2s-0.7,0.1-0.8,2
		c-0.1,1.7,1,3.1,2.8,4.7c1.5,1.3,1.5,2.7,1.5,3.4c-0.1,1.4-1.2,2.9-3.8,2.6c-3.2-0.4-2.7-5.3,0.2-5.1c1.5,0.1,2.1,1.3,2.2,1.5
		c0.1,0.1,0.1,0,0.1-0.1c0-0.7-0.7-2.1-1.9-2.6c-1.2-0.5-2.4-0.1-3,0c-0.2,0.1-1,0.1-1.3-0.7c-0.5-1.1,0.5-1.3,0.8-2.1
		c0.4-0.8,0.5-1.8-0.1-2.7c-0.7-1-2.2-0.9-2.2-0.9s-0.2,0-0.1,0.2c0.2,0.2,1.4,0.9,1.1,1.6c-0.6,1.3-1.7,1.1-1.7,2.4s0.9,2.9,0,3.3
		c-1.6,0.6-0.9-1.6-0.9-1.6v-0.1c-0.2,0-1.1,0-1.6,1.5c-0.5,1.6,0.7,2.2,0.9,3.2s-0.1,0.5-0.2,2.1c-0.1,1.6,0.6,2.7,1.6,4.1
		c1.8,2.4,0.5,4.7-1.1,4.6c-2.6-0.3-0.6-2.9-1-4.2c-0.3-1-1-1.2-1.5-1.2c-0.4,0-0.7,0.1-0.7,0.1l0,0c0.2,0,0.9,0.3,0.8,1
		c-0.1,0.7-1,1-1.7,0.2c-0.6-0.7,0.4-1.4,1.1-2.2c0.1-0.2,1.1-1.3,0.2-2.7c-0.7-1-2.5-0.9-2.8-0.8c-0.1,0,0,0.1,0,0.1s1.1,0.4,1,1.5
		c-0.1,0.6-0.8,1-1.4,1.4c-0.3,0.2-1.5,0.6-1.5,2.4c0,0.7,0.3,1.3,0.7,1.8c0.1,0.1,0.6,0.4,0.6,0.5c1.2,0.9,1.7,2,1.2,2.6
		c-0.1,0.1-0.3,0.3-0.5,0.4l0,0c-0.1,0.1-0.2,0.1-0.4,0.1c-0.4,0.1-0.8,0.1-1,0c-1.2-0.7-0.7-1.8-0.5-2c0,0,0.1-0.1,0-0.1
		c-1.1,0.1-1.9,1-1.9,2.1c0,0.2,0.1,0.5,0.1,0.7s0.2,0.4,0.3,0.6c0,0.1,0.1,0.1,0.1,0.2l0,0c0,0,0,0-0.1,0.1c0,0,0,0.1-0.1,0.2v0.1
		c-0.1,0.1-0.1,0.3-0.2,0.5c0,0,0,0,0,0.1c0,0.2-0.1,0.4-0.1,0.6c0,1,0.5,1.9,1.3,2.5l0,0c0.2,0.1,0.3,0.2,0.5,0.3l0,0
		c1,0.6,2.2,1.2,2.4,2.2c0.3,1.2-0.3,2.7-1.6,2.8c-1.5,0.1-2.1-0.7-2.4-2.7c-0.4-2.2-1.6-2.3-1.9-2.1c0,0,0,0,0.1,0s0.3,0.1,0.5,0.5
		c0.2,0.6-0.5,0.9-1.1,0.7c-0.1,0-0.3-0.1-0.4-0.2c-0.7-0.7-0.2-1.3,0.2-1.9c0.3-0.4,0.5-0.8,0.4-1.3c-0.3-1-1.1-1-1.3-1
		c-0.1,0-0.1,0,0,0c0.4,0.2,0.7,0.5,0.7,0.9c0,0.3-0.1,0.5-0.4,0.7c-0.2,0.2-0.4,0.2-0.7,0.2c-0.6,0.1-1.1,0.6-1.3,1.1
		c-0.1,0.2-0.1,0.4-0.1,0.5c0,0.3,0.1,0.6,0.2,0.8c0.1,0.1,0.2,0.2,0.2,0.3c0.1,0.1,0.2,0.2,0.3,0.2c0.7,0.6,0.4,1.2,0.3,1.4
		c-0.2,0.5-0.7,0.6-1.1,0.4c-0.4-0.2-0.6-0.7-0.4-1.1c0.1-0.1,0.1-0.2,0.2-0.3c0,0,0.1,0,0.1-0.1l0,0c0,0-0.9-0.2-1,1
		c-0.2,1.1,1.1,2,1.1,2s-0.3,1,0.4,2.1c0.3,0.4,0.7,0.7,1.3,0.8s0.8,0.7,0.7,1.1c-0.1,0.4-0.7,0.7-1.3,0.6c-0.6-0.1-1.1-0.5-1-1
		l0.1-0.4c0-0.2-0.1-0.1-0.2-0.1c0,0-1.3,1.7,0.8,2.4c1,0.3,3.3,0,4.8,0.7c0.8,0.3,1.1,1.1,1,1.8c-0.4,1.4-1.8,1.4-2.6,0.7
		c-0.3-0.3-0.4-0.7-0.5-1c-0.5-1.6-2.1-0.2-2.2-0.2c-0.1,0.1,0.1,0.1,0.1,0c0,0,0.2-0.2,0.4-0.2c0.4,0,0.5,0.3,0.5,0.5
		c0,0.3-0.5,0.7-1.3,0.3c-0.2-0.1-0.4-0.5-0.6-0.7c0,0,0,0,0-0.1c-0.2-0.3-0.6-0.5-1.1-0.5c0,0-0.4,0-0.8,0.2
		c-0.4,0.2-0.6-0.3-0.6-0.5c0-0.1,0-0.1,0-0.1s-0.1,0.1-0.2,0.2C41,62.5,41,62.7,41,62.8c0,0.4,0.3,0.8,0.7,0.8c0.3,0,0.2,0,0.5,0
		s0.5,0.2,0.5,0.2c0.4,0.4,0.3,0.6,0.4,0.9c0.2,0.9,0.8,1.9,2.1,2.8c0.7,0.5,6.5,4.7,14.3,6c2.8,0.5,5.9,0.5,7.9,0.5
		c0,0,1.7,0,1.9,0c2,0,3.7,0.3,4.7,0.9c0.3,0.2,0.5,0.4,0.7,0.6l0.1,0.1l0.1-0.1c0,0,0.9-1.3,4.3-1.5c0.2,0,4.9,0,6.7-0.1
		c1.4,0,2.8-0.1,4.2-0.4c7-1.3,12.4-4.4,14.4-6.1c0.9-0.8,1.3-2,1.1-2.6c-0.2-0.5-0.3-0.8-0.2-1.1c0.1-0.2,0.1-0.3,0.3-0.5l0,0
		c0.1-0.1,0.3-0.3,0.5-0.4C106.8,62.7,106.4,61.5,106.3,61.5z"/>
	<polygon class="st0" points="91.1,64.5 83.3,51 75.5,64.5 	"/>
	<polygon class="st0" points="82.5,49.6 74.7,36.1 66.9,49.6 	"/>
	<polygon class="st0" points="74,64.5 66.2,51 58.4,64.5 	"/>
	<g>
		<g>
			<path class="st0" d="M44,148.8h0.6v0.9l0,0c0.4-0.6,0.9-1,1.8-1h0.1l-0.1,0.5h-0.2c-0.7,0-1.3,0.4-1.7,1.1v2.9H44V148.8z"/>
			<path class="st0" d="M46.9,151c0-1.6,1-2.3,2-2.3c1.1,0,1.8,0.8,1.8,2.4v0.1h-3.2c0,1.1,0.6,1.7,1.4,1.7c0.7,0,1.1-0.3,1.4-0.8
				l0.4,0.3c-0.4,0.6-1,1-1.8,1C47.9,153.4,46.9,152.6,46.9,151z M50.2,150.7c-0.1-0.9-0.5-1.5-1.3-1.5c-0.7,0-1.3,0.5-1.4,1.5H50.2
				z"/>
			<path class="st0" d="M51.5,152.6l0.4-0.3c0.3,0.4,0.8,0.7,1.4,0.7c0.8,0,1.2-0.3,1.2-0.8s-0.4-0.7-1.2-0.9
				c-1-0.3-1.6-0.5-1.6-1.3c0-0.6,0.6-1.2,1.5-1.2c0.8,0,1.3,0.3,1.7,0.7l-0.3,0.4c-0.3-0.3-0.8-0.6-1.3-0.6c-0.7,0-1,0.3-1,0.7
				s0.3,0.6,1.1,0.8c1.1,0.3,1.7,0.5,1.7,1.4c0,0.8-0.7,1.3-1.8,1.3C52.4,153.4,51.8,153,51.5,152.6z"/>
			<path class="st0" d="M56.2,147.1h0.6v0.6h-0.6V147.1z M56.2,148.8h0.6v4.5h-0.6V148.8z"/>
			<path class="st0" d="M57.9,152.6l0.4-0.3c0.3,0.4,0.8,0.7,1.4,0.7c0.8,0,1.2-0.3,1.2-0.8s-0.4-0.7-1.2-0.9
				c-1-0.3-1.6-0.5-1.6-1.3c0-0.6,0.6-1.2,1.5-1.2c0.8,0,1.3,0.3,1.7,0.7l-0.3,0.4c-0.3-0.3-0.8-0.6-1.3-0.6c-0.7,0-1,0.3-1,0.7
				s0.3,0.6,1.1,0.8c1.1,0.3,1.7,0.5,1.7,1.4c0,0.8-0.7,1.3-1.8,1.3C58.8,153.4,58.2,153,57.9,152.6z"/>
			<path class="st0" d="M62.8,152.2v-3H62v-0.5h0.8v-1.6h0.6v1.6h1.2v0.5h-1.2v2.8c0,0.5,0.2,0.7,0.7,0.7c0.2,0,0.3,0,0.5-0.1v0.5
				c-0.1,0-0.4,0.1-0.6,0.1C63.1,153.3,62.8,153,62.8,152.2z"/>
			<path class="st0" d="M65.3,152.2c0-0.9,0.8-1.5,3.1-1.9v-0.2c0-0.6-0.3-0.9-0.9-0.9c-0.7,0-1.2,0.3-1.7,0.7l-0.3-0.4
				c0.5-0.5,1.2-0.8,2.1-0.8c1,0,1.5,0.5,1.5,1.4v2.1c0,0.5,0,0.9,0.1,1.1h-0.6c-0.1-0.2-0.1-0.4-0.1-0.6c-0.5,0.5-1.1,0.7-1.8,0.7
				C65.8,153.4,65.3,152.9,65.3,152.2z M68.3,152.2v-1.4c-1.9,0.3-2.5,0.8-2.5,1.4c0,0.5,0.3,0.7,0.8,0.7
				C67.3,152.9,67.9,152.6,68.3,152.2z"/>
			<path class="st0" d="M70.3,148.8h0.6v0.7c0.4-0.4,1-0.8,1.7-0.8c0.9,0,1.3,0.5,1.3,1.3v3.3h-0.6v-3.2c0-0.6-0.3-0.9-0.9-0.9
				s-1.1,0.3-1.6,0.8v3.3h-0.6L70.3,148.8L70.3,148.8z"/>
			<path class="st0" d="M75,151c0-1.6,1-2.4,2-2.4s1.5,0.6,1.7,1.2l-0.5,0.2c-0.2-0.6-0.6-1-1.2-1c-0.7,0-1.4,0.5-1.4,1.8
				c0,1.2,0.6,1.9,1.4,1.9c0.6,0,1-0.3,1.3-1l0.5,0.2c-0.4,0.8-0.9,1.3-1.8,1.3C75.9,153.4,75,152.5,75,151z"/>
			<path class="st0" d="M79.5,151c0-1.6,1-2.3,2-2.3c1.1,0,1.8,0.8,1.8,2.4v0.1h-3.2c0,1.1,0.6,1.7,1.4,1.7c0.7,0,1.1-0.3,1.4-0.8
				l0.4,0.3c-0.4,0.6-1,1-1.8,1C80.4,153.4,79.5,152.6,79.5,151z M82.7,150.7c-0.1-0.9-0.5-1.5-1.3-1.5c-0.7,0-1.3,0.5-1.4,1.5H82.7
				z"/>
		</g>
	</g>
	<g>
		<path class="st0" d="M94.6,149.3h-0.8v-0.5h0.8v-0.7c0-0.8,0.4-1.2,1.3-1.2c0.1,0,0.3,0,0.3,0v0.5c-0.1,0-0.2,0-0.3,0
			c-0.4,0-0.7,0.2-0.7,0.7v0.7h1v0.5h-1v4h-0.6C94.6,153.3,94.6,149.3,94.6,149.3z"/>
		<path class="st0" d="M97,148.8h0.6v0.9l0,0c0.4-0.6,0.9-1,1.8-1h0.1l-0.1,0.5h-0.2c-0.7,0-1.3,0.4-1.7,1.1v2.9H97V148.8z"/>
		<path class="st0" d="M99.9,151c0-1.6,1-2.3,2-2.3c1.1,0,1.8,0.8,1.8,2.4v0.1h-3.2c0,1.1,0.6,1.7,1.4,1.7c0.7,0,1.1-0.3,1.4-0.8
			l0.4,0.3c-0.4,0.6-1,1-1.8,1C100.9,153.4,99.9,152.6,99.9,151z M103.2,150.7c-0.1-0.9-0.5-1.5-1.3-1.5c-0.7,0-1.3,0.5-1.4,1.5
			H103.2z"/>
		<path class="st0" d="M104.6,151c0-1.6,1-2.3,2-2.3c1.1,0,1.8,0.8,1.8,2.4v0.1h-3.2c0,1.1,0.6,1.7,1.4,1.7c0.7,0,1.1-0.3,1.4-0.8
			l0.4,0.3c-0.4,0.6-1,1-1.8,1C105.6,153.4,104.6,152.6,104.6,151z M107.9,150.7c-0.1-0.9-0.5-1.5-1.3-1.5c-0.7,0-1.3,0.5-1.4,1.5
			H107.9z"/>
		<path class="st0" d="M109.3,151c0-1.6,0.8-2.4,1.9-2.4c0.6,0,1.1,0.3,1.5,0.7v-2.4h0.6v5.2c0,0.5,0,0.9,0.1,1.1h-0.6
			c-0.1-0.2-0.1-0.4-0.1-0.7c-0.4,0.4-0.8,0.7-1.5,0.7C110.1,153.4,109.3,152.6,109.3,151z M112.7,152.1v-2.2
			c-0.4-0.5-0.9-0.7-1.4-0.7c-0.8,0-1.4,0.6-1.4,1.9c0,1.2,0.6,1.8,1.4,1.8C111.8,152.9,112.3,152.6,112.7,152.1z"/>
		<path class="st0" d="M114.4,151c0-1.5,0.9-2.4,2.1-2.4c1.1,0,2,0.8,2,2.4c0,1.5-0.9,2.4-2,2.4C115.3,153.4,114.4,152.5,114.4,151z
			 M117.9,151c0-1-0.5-1.8-1.5-1.8c-0.9,0-1.5,0.8-1.5,1.8s0.5,1.9,1.5,1.9S117.9,152.1,117.9,151z"/>
		<path class="st0" d="M119.6,148.8h0.6v0.7c0.5-0.4,1-0.8,1.7-0.8c0.8,0,1.1,0.3,1.2,0.8c0.5-0.4,1-0.8,1.7-0.8
			c0.9,0,1.3,0.5,1.3,1.3v3.3h-0.6v-3.2c0-0.6-0.2-0.9-0.9-0.9c-0.5,0-1,0.3-1.5,0.8v3.3h-0.6v-3.2c0-0.6-0.2-0.9-0.9-0.9
			c-0.5,0-1,0.3-1.5,0.8v3.3h-0.6v-4.5H119.6z"/>
	</g>
	<g>
		<path class="st0" d="M33.1,82.1h-3.7l-6.3,18h3.6l1.4-4h6.1l1.3,4h4L33.1,82.1z M29,93.3l2.1-6.1l0,0l2.1,6.1H29z"/>
		<path class="st0" d="M51.8,92.9c2.4-0.7,3.7-2.3,3.7-5.1c0-4-2.6-5.5-7-5.5h-6.7v17.9h3.9v-6.7H48l3.7,6.7h4.2L51.8,92.9z
			 M48.3,90.3h-2.7v-4.9h2.7c2.3,0,3.4,0.7,3.4,2.4C51.6,89.7,50.5,90.3,48.3,90.3z"/>
		<path class="st0" d="M57,82.2v3.3h5.3v14.6h3.9V85.5h5.3v-3.3H57z"/>
		<path class="st0" d="M91.6,85.5v-3.3H79.8v17.9h3.9V93h5.6v-3.1h-5.6v-4.4H91.6z"/>
		<path class="st0" d="M101.1,81.9c-4.3,0-8.4,3-8.4,9.3s4.1,9.3,8.4,9.3s8.4-3,8.4-9.3S105.4,81.9,101.1,81.9z M101.1,97.3
			c-2.8,0-4.5-2.4-4.5-6.1c0-3.8,1.7-6,4.5-6s4.5,2.3,4.5,6S103.9,97.3,101.1,97.3z"/>
		<path class="st0" d="M122.4,92.9c2.4-0.7,3.7-2.3,3.7-5.1c0-4-2.6-5.5-7-5.5h-6.7v17.9h3.9v-6.7h2.3l3.7,6.7h4.2L122.4,92.9z
			 M118.9,90.3h-2.7v-4.9h2.7c2.3,0,3.4,0.7,3.4,2.4C122.3,89.7,121.2,90.3,118.9,90.3z"/>
	</g>
	<g>
		<path class="st0" d="M14.2,108.3v5.7h9.1v25h6.8v-25.1h9.2v-5.7L14.2,108.3L14.2,108.3z"/>
		<path class="st0" d="M43.7,108.3V139h6.7v-30.8h-6.7V108.3z"/>
		<path class="st0" d="M74.5,123L74.5,123c3.1-0.7,5.9-2.8,5.9-7.2c0-6.2-5.3-7.6-11-7.6H57.1V139H70c5.7,0,11.2-2.3,11.2-8.5
			C81.2,125.6,78.3,123.7,74.5,123z M63.8,113.5h5.1c3.6,0,5.1,1.3,5.1,3.7c0,2.4-1.6,3.7-5.2,3.7h-5
			C63.8,120.9,63.8,113.5,63.8,113.5z M69.2,133.9h-5.4v-8.1H69c3.7,0,5.7,1.3,5.7,4C74.6,132.4,73,133.9,69.2,133.9z"/>
		<path class="st0" d="M92.7,133.5v-7.7H103v-5.4H92.7v-6.6h14.2v-5.7h-21V139h21.7v-5.5H92.7z"/>
		<path class="st0" d="M110.2,108.3v5.7h9.1v25h6.8v-25.1h9.2v-5.7L110.2,108.3L110.2,108.3z"/>
	</g>
	<g id="XMLID_16_">
		<g>
			<polygon class="st1" points="83.3,50.9 91.1,64.5 75.5,64.5 			"/>
			<polygon class="st2" points="74.7,36.1 82.5,49.6 66.9,49.6 			"/>
			<polygon class="st3" points="66.2,50.9 74,64.5 58.3,64.5 			"/>
		</g>
	</g>
	<path class="st0" d="M22.9,152.2c0-0.9,0.8-1.5,3.1-1.9v-0.2c0-0.6-0.3-0.9-0.9-0.9c-0.7,0-1.2,0.3-1.7,0.7l-0.3-0.4
		c0.5-0.5,1.2-0.8,2.1-0.8c1,0,1.5,0.5,1.5,1.4v2.1c0,0.5,0,0.9,0.1,1.1h-0.6c-0.1-0.2-0.1-0.4-0.1-0.6c-0.5,0.5-1.1,0.7-1.8,0.7
		C23.4,153.4,22.9,152.9,22.9,152.2z M26,152.2v-1.4c-1.9,0.3-2.5,0.8-2.5,1.4c0,0.5,0.3,0.7,0.8,0.7C25,152.9,25.5,152.6,26,152.2z
		"/>
	<path class="st0" d="M27.9,148.8h0.6v0.9l0,0c0.4-0.6,0.9-1,1.8-1h0.1l-0.1,0.5h-0.2c-0.7,0-1.3,0.4-1.7,1.1v2.9h-0.6v-4.4H27.9z"
		/>
	<path class="st0" d="M31.8,152.2v-3H31v-0.5h0.8v-1.6h0.6v1.6h1.2v0.5h-1.2v2.8c0,0.5,0.2,0.7,0.7,0.7c0.2,0,0.3,0,0.5-0.1v0.5
		c-0.1,0-0.4,0.1-0.6,0.1C32.2,153.3,31.8,153,31.8,152.2z"/>
	<rect x="37.9" y="149.9" class="st0" width="1.7" height="1.7"/>
	<rect x="87.9" y="149.9" class="st0" width="1.7" height="1.7"/>
</g>
</svg>
