<?xml version="1.0" encoding="utf-8"?>
<!-- Generator: Adobe Illustrator 23.0.2, SVG Export Plug-In . SVG Version: 6.00 Build 0)  -->
<svg version="1.1" id="Layer_1" xmlns="http://www.w3.org/2000/svg" xmlns:xlink="http://www.w3.org/1999/xlink" x="0px" y="0px"
	 viewBox="0 0 1326.8 502.5" style="enable-background:new 0 0 1326.8 502.5;" xml:space="preserve">
<style type="text/css">
	.st0{clip-path:url(#SVGID_2_);}
	.st1{clip-path:url(#SVGID_4_);}
	.st2{opacity:0.3;}
	.st3{clip-path:url(#SVGID_6_);}
	.st4{fill:#FFFFFF;}
	.st5{fill:#F299C1;}
	.st6{fill:#6ECEF5;}
	.st7{fill:#FDF49B;}
	.st8{fill:#846F2C;}
	.st9{clip-path:url(#SVGID_8_);fill:#FFFFFF;}
	.st10{clip-path:url(#SVGID_8_);fill:#F299C1;}
	.st11{clip-path:url(#SVGID_8_);fill:#6ECEF5;}
	.st12{clip-path:url(#SVGID_8_);fill:#FDF49B;}
	.st13{clip-path:url(#SVGID_10_);fill:#FFFFFF;}
	.st14{clip-path:url(#SVGID_10_);fill:#F299C1;}
	.st15{clip-path:url(#SVGID_10_);fill:#6ECEF5;}
	.st16{clip-path:url(#SVGID_10_);fill:#FDF49B;}
	.st17{clip-path:url(#SVGID_12_);}
	.st18{fill:#7D644D;}
	.st19{fill:#4890A6;}
	.st20{fill:#E572A7;}
	.st21{fill:#594734;}
	.st22{fill:none;stroke:#000000;stroke-width:4;stroke-miterlimit:10;}
	.st23{clip-path:url(#SVGID_14_);}
	.st24{clip-path:url(#SVGID_16_);fill:#FFFFFF;}
	.st25{clip-path:url(#SVGID_16_);fill:#F299C1;}
	.st26{clip-path:url(#SVGID_16_);fill:#6ECEF5;}
	.st27{clip-path:url(#SVGID_16_);fill:#FDF49B;}
	.st28{clip-path:url(#SVGID_18_);}
	.st29{clip-path:url(#SVGID_20_);fill:#FFFFFF;}
	.st30{clip-path:url(#SVGID_20_);fill:#F299C1;}
	.st31{clip-path:url(#SVGID_20_);fill:#6ECEF5;}
	.st32{clip-path:url(#SVGID_20_);fill:#FDF49B;}
	.st33{clip-path:url(#SVGID_22_);}
	.st34{clip-path:url(#SVGID_24_);fill:#FFFFFF;}
	.st35{clip-path:url(#SVGID_24_);fill:#F299C1;}
	.st36{clip-path:url(#SVGID_24_);fill:#6ECEF5;}
	.st37{clip-path:url(#SVGID_24_);fill:#FDF49B;}
	.st38{opacity:0.92;fill:url(#SVGID_25_);}
	.st39{fill:#231F20;}
	.st40{fill:none;stroke:#FFFFFF;stroke-width:0.275;stroke-miterlimit:10;}
	.st41{opacity:0.92;fill:url(#SVGID_26_);}
	.st42{fill:url(#SVGID_27_);}
	.st43{opacity:0.92;fill:url(#SVGID_28_);}
	.st44{opacity:0.92;fill:url(#SVGID_29_);}
	.st45{fill:#EEEDEE;}
	.st46{opacity:0.92;fill:url(#SVGID_30_);}
	.st47{opacity:0.92;fill:url(#SVGID_31_);}
	.st48{clip-path:url(#SVGID_33_);}
	.st49{opacity:0.92;fill:url(#SVGID_34_);}
	.st50{opacity:0.92;fill:url(#SVGID_35_);}
	.st51{opacity:0.92;fill:url(#SVGID_36_);}
	.st52{opacity:0.92;fill:url(#SVGID_37_);}
</style>
<g>
	<g>
		<defs>
			<rect id="SVGID_9_" width="1326.8" height="502.5"/>
		</defs>
		<clipPath id="SVGID_2_">
			<use xlink:href="#SVGID_9_"  style="overflow:visible;"/>
		</clipPath>
		<path style="clip-path:url(#SVGID_2_);fill:#FFFFFF;" d="M661,352.5c0-7-4.2-10.9-14.7-10.9h-14.7v21.6h14.5
			C656.3,363.2,661,359.3,661,352.5z"/>
		<path style="clip-path:url(#SVGID_2_);fill:#FFFFFF;" d="M646.6,377h-14.9v23.6h15.8c10.9,0,15.7-4.3,15.7-11.9
			C663.1,380.9,657.4,377,646.6,377z"/>
		<polygon style="clip-path:url(#SVGID_2_);fill:#F299C1;" points="710.8,199.6 688.2,160.3 665.6,199.6 		"/>
		<polygon style="clip-path:url(#SVGID_2_);fill:#6ECEF5;" points="638.6,160.3 615.9,199.6 661.2,199.6 		"/>
		<path style="clip-path:url(#SVGID_2_);fill:#FFFFFF;" d="M586.8,260.3H579v14.2h7.8c6.6,0,9.7-1.9,9.7-7.2
			C596.5,262.2,593.4,260.3,586.8,260.3z"/>
		<polygon style="clip-path:url(#SVGID_2_);fill:#FDF49B;" points="663.4,117.4 640.7,156.6 686,156.6 		"/>
		<path style="clip-path:url(#SVGID_2_);fill:#FFFFFF;" d="M801.2,267.3c0-5.1-3.2-7-9.7-7h-7.8v14.2h7.8
			C798.1,274.5,801.2,272.6,801.2,267.3z"/>
		<polygon style="clip-path:url(#SVGID_2_);fill:#FFFFFF;" points="537.2,265.4 537.1,265.4 531,283 543.2,283 		"/>
		<path style="clip-path:url(#SVGID_2_);fill:#FFFFFF;" d="M726.8,277c0,10.9,5,17.7,13,17.7c8,0,13-6.9,13-17.7
			c0-10.9-5-17.4-13-17.4C731.8,259.5,726.8,266.1,726.8,277z"/>
		<path style="clip-path:url(#SVGID_2_);fill:#FFFFFF;" d="M-71.7-73.6v656h1851v-656H-71.7z M772.5,251H792
			c12.8,0,20.4,4.6,20.4,16c0,8.2-3.9,12.7-10.8,14.8l11.6,21h-12.1l-10.8-19.5h-6.6v19.5h-11.2V251z M764.2,277
			c0,18.2-11.9,26.9-24.4,26.9c-12.5,0-24.5-8.7-24.5-26.9c0-18.2,11.9-26.9,24.5-26.9C752.3,250,764.2,258.7,764.2,277z M532,250.8
			h10.9l18.4,52.1h-11.6l-3.9-11.6h-17.7l-4,11.6h-10.5L532,250.8z M488,326.5h72.8v16.4h-26.6v72.8h-19.6v-72.8H488V326.5z
			 M522.5,456.9c-0.2-0.5-0.3-1.1-0.3-1.9c-1.5,1.4-3.2,2.1-5.2,2.1c-2.3,0-3.7-1.2-3.7-3.3c0-2.6,2.2-4.5,8.9-5.5v-0.7
			c0-1.8-0.9-2.7-2.7-2.7c-2.1,0-3.5,0.9-4.9,2.1l-0.9-1.1c1.6-1.4,3.4-2.4,6-2.4c2.9,0,4.2,1.6,4.2,4.2v5.9c0,1.6,0.1,2.6,0.4,3.2
			H522.5z M534.8,445.1c0,0-0.5,0-0.5,0c-2.1,0-3.8,1.2-4.9,3.3v8.5h-1.7v-13.1h1.7v2.6h0c1-1.6,2.6-2.8,5.2-2.8h0.3L534.8,445.1z
			 M544.3,456.9c-0.4,0.1-1.1,0.1-1.7,0.1c-2.5,0-3.5-1-3.5-3.2v-8.6h-2.3v-1.5h2.3v-4.7h1.7v4.7h3.4v1.5h-3.4v8.2
			c0,1.4,0.4,2.1,2.1,2.1c0.5,0,1-0.1,1.4-0.2V456.9z M561.7,451.9h-4.9V447h4.9V451.9z M565.9,194.6c0-0.4,0.1-0.8,0.3-1.2
			c0.2-0.4,0.5-0.7,0.5-0.7s0.2-0.2,0.1,0.2c-0.1,0.5,0.4,2,1.6,1.5c1.3-0.5,2.2-0.6,2.3-0.6c1.4,0,2.6,0.6,3.2,1.5
			c0,0.1,0.1,0.1,0.1,0.2c0.5,0.7,1,1.7,1.8,2.1c2.2,1.3,3.8,0.2,3.8-0.9c0-0.8-0.4-1.6-1.6-1.6c-0.5,0-0.9,0.4-1.1,0.4
			c-0.2,0.1-0.6,0.1-0.4-0.1c0.2-0.2,5-4.1,6.3,0.5c0.3,1,0.7,2.2,1.5,3c2.1,1.9,6.3,1.8,7.4-2.1c0.5-1.9-0.5-4.2-2.8-5.2
			c-4.4-1.9-11.2-1.1-14-2c-5.9-1.9-2.2-7-2.2-7c0.1-0.2,0.5-0.4,0.4,0.2c0,0-0.2,1-0.2,1.1c-0.2,1.5,1.1,2.7,3,3
			c1.8,0.3,3.6-0.7,3.7-1.8c0.2-1.1-0.2-2.8-2.1-3.2c-1.8-0.4-3-1.1-3.9-2.3c-2.2-3.1-1.2-6.1-1.2-6.1s-3.7-2.4-3.2-5.7
			c0.5-3.4,3-2.8,3-2.8s0.1,0,0,0.1c0,0-0.2,0.1-0.2,0.2c-0.3,0.3-0.5,0.5-0.6,0.9c-0.6,1.3-0.1,2.8,1.1,3.3
			c1.2,0.5,2.7,0.1,3.3-1.2c0.1-0.3,1-2.2-1-4c-0.2-0.2-0.5-0.4-0.8-0.7c-0.3-0.3-0.5-0.5-0.7-0.8c-0.4-0.6-0.7-1.4-0.7-2.4
			c0-0.5,0.1-1,0.2-1.5c0.5-1.6,1.9-2.9,3.6-3.2c0.8-0.2,1.6-0.3,2.1-0.7c0.7-0.5,1.1-1.2,1.1-2c0-1.1-0.9-2-2.1-2.5
			c-0.1,0-0.2-0.1,0.1-0.1c0.7,0,3,0.1,3.9,2.9c0.5,1.5-0.3,2.7-1.1,3.9c-1.2,1.7-2.8,3.5-0.7,5.4c0.3,0.3,0.7,0.5,1.1,0.6
			c1.6,0.6,3.7-0.5,3.1-2.2c-0.3-1-1-1.3-1.3-1.3c-0.3,0-0.2-0.1-0.2-0.1c0.9-0.4,4.5-0.3,5.5,6.1c0.9,5.7,2.6,8.1,7,7.8
			c3.9-0.3,5.4-4.7,4.7-8.1c-0.7-3.1-4-4.7-6.9-6.5c0,0,0,0,0,0c-0.5-0.3-1-0.6-1.5-0.9c0,0,0,0,0,0c-2.2-1.7-3.6-4.3-3.6-7.3
			c0-0.6,0.1-1.2,0.2-1.7c0-0.1,0-0.1,0-0.2c0.1-0.6,0.3-1.1,0.5-1.5c0-0.1,0.1-0.2,0.1-0.3c0.1-0.2,0.2-0.3,0.2-0.4
			c0.1-0.2,0.2-0.3,0.2-0.3s0,0,0,0c0-0.1-0.1-0.2-0.3-0.4c-0.2-0.4-0.7-1.2-0.8-1.6c-0.2-0.5-0.4-1.3-0.4-2c0-3.1,2.4-5.7,5.4-6.1
			c0.1,0,0,0.1-0.1,0.2c-0.8,0.5-2.1,3.7,1.4,5.8c0.8,0.5,1.8,0.5,3,0.1c0.4-0.1,0.8-0.3,1.1-0.4h0c0.6-0.3,1-0.7,1.3-1.1
			c1.5-2-0.1-5-3.4-7.7c-0.2-0.1-1.5-1.1-1.8-1.4c-1.3-1.4-2.1-3.2-2-5.2c0.2-5.1,3.6-6.4,4.4-6.9c1.7-1,3.9-2.2,4.1-3.9
			c0.3-3.2-2.9-4.4-2.9-4.4s-0.2-0.1,0.1-0.2c0.7-0.1,6.1-0.4,8,2.5c2.8,4.1-0.1,7.5-0.5,7.9c-1.9,2.2-4.8,4.4-3.1,6.3
			c1.9,2.2,4.7,1.2,4.9-0.7c0.3-2-1.7-2.9-2.3-2.9c-0.2,0-0.1-0.1-0.1-0.1s0.9-0.2,2-0.2c1.6,0,3.7,0.6,4.5,3.4
			c1.1,3.8-4.7,11.4,2.9,12.1c4.6,0.4,8.5-6.3,3.2-13.2c-3.1-4.1-5-7.4-4.8-12c0.2-4.5,1.3-3.2,0.7-6.1c-0.6-2.9-4.1-4.7-2.7-9.2
			c1.3-4.3,3.9-4.4,4.6-4.3c0.1,0,0.1,0.2,0.1,0.2s-2,6.5,2.6,4.7c2.5-1,0-5.7,0-9.4c0-3.7,3.3-3.1,5.1-6.9c0.9-1.9-2.6-4-3.2-4.6
			c-0.3-0.3,0.4-0.4,0.4-0.4s4.2-0.4,6.3,2.5c1.7,2.4,1.4,5.3,0.3,7.7c-1.1,2.5-3.8,3-2.4,6.2c0.9,2.2,3.1,2.1,3.7,1.9
			c1.7-0.5,5.3-1.7,8.6-0.1c3.4,1.6,5.5,5.6,5.5,7.6c0,0.1,0,0.4-0.2,0.1c-0.1-0.3-2.1-3.8-6.4-4.2c-8.2-0.8-9.6,13.4-0.5,14.7
			c7.4,1,10.5-3.3,10.9-7.4c0.2-2.3,0-6.2-4.2-10c-5.2-4.7-8.3-8.5-8.1-13.5c0.2-5.6,2.3-5.9,2.3-5.9s0.3,0,0,0.4
			c-0.4,0.8-0.1,3.3,0.7,5c0.3,0.8,1.3,2.4,3.7,2.4c2,0,3.6-1.7,3.6-3.7c0-1.6-1.8-3.5-3.5-4.2c0,0-4.2-1.6-5.4-4.1
			c-2.5-5.5,0.7-10.1,5.6-11.2c0.4-0.1,0.4,0,0.2,0.1c-0.2,0.1-2.2,1.8-2.8,3.3c-0.7,1.7-0.7,3.7,2.3,5c3.8,1.6,7.8-2,9.2,2.7
			c0.4,1.4,0.5,1.5,1.1,2.7c0.9,2.2,2.3,3.7,4.9,3.4c3.5-0.5,6.5-6.6-0.5-9.5c-2.7-1.1-5.4-0.9-7.5-4.5c-1.9-3.3-1.8-6.6-1.1-9.1
			c0.8-2.8,2-3.9,2.8-4.4c1.9-1,2.9-0.6,2.9-0.6s0.3,0.1-0.1,0.4c-1.2,0.7-1.3,5.7,2.3,5.4c2.6-0.2,2.7-2.3,1.6-5.5
			c-0.3-0.8-0.4-1.6-0.2-2.5c0.3-1.7,1.2-2.9,2.5-3.6c0.4-0.2,0.9-0.3,1.7-0.6c0.6-0.1,1.5-0.2,1.9-1.3c1-2.9-2.5-4.3-2.1-5
			c0.4-0.7,6.8,1.7,5.4,8.2c-0.2,0.8-0.3,1.5-0.6,2.1c-0.7,2.2-1.5,3.6-1.6,4.7c-0.1,0.5,0,0.9,0.2,1.4c0.6,1.1,1.3,1.3,1.8,1.5
			c1.5,0.4,3.7-0.8,3.6-3.6c0-1.8-1.2-3.7,1.2-2.4c2.5,1.4,6.2,5.1,3.6,10.4c-0.8,1.6-1.9,2.2-3.5,3c-1.1,0.5-1.8,1.8-1.8,3.1
			c0,1.9,1.5,3.3,3.4,3.4c1.5,0,4.2-1,3.6-5.4c0-0.3-0.2-0.5-0.3-0.7c-0.5-0.6,0.2-0.3,0.2-0.3c0.7,0.3,8.2,4.1,3.2,11.4
			c-4,5.9-6.7,11.3-2.6,13.7c3.6,2.2,7.8-1,6.9-4.9c-0.3-1.5-3.4-2.2-2.9-6.5c0.4-3.9,3.5-3.2,3.5-3.2s0.3,0.2-0.2,0.6
			c-1.1,1-0.8,5.4,2.7,4.6c2.8-0.6,1.4-4,0-6.5c-1.3-2.5-2.3-5.6,0.4-8.2c2-1.9,3.9-1,4-0.9c0.1,0.1,0.1,0.2-0.2,0.1
			c-0.5-0.1-1.3,0.5-1.8,1.1c-0.6,0.7-0.7,1.4-0.6,2.1c0.1,1,1.2,1.7,2.7,2.3c1.5,0.6,2.3,2.1,2.3,3.7c0,1.3-0.4,1.8-1.4,3
			c-1,1.2-0.7,2.7,1,4.4c2.2,2.2,3.8,4.4,3.4,7.8c-0.5,4.4-4.5,6.4-6.2,8.3c-3.6,4.1-4.9,7.9-2.3,13c2.3,4.5,9.4,6.8,13.9,1.2
			c2.4-3,3.5-11.3-5.4-10.5c-3.3,0.3-4.4,3.4-4.6,4.7c0,0.3-0.1,0.2-0.2,0c-0.2-0.6-0.3-1.1-0.3-1.7c0-1.2,0.9-4.7,4-6
			c3.8-1.6,3.2-1.2,3.5-4c0.2-1.7,0.5-2.6,1.7-2.9c2.5-0.5,0,0.3,0.4,2.9c0.4,2.3,2.2,2.7,3.1,0.9c2.5-4.7-3.6-7.5-1.3-12.3
			c1.2-2.6,4.9-3.1,4.9-3.1s0.8-0.1-0.1,0.4c-0.8,0.4-2.4,2.4-2.1,4.1c0.6,3.7,5,3.6,5,8c0,4.6-4.4,7.7-2.2,9.8
			c1.1,1.1,2.6,0.7,3.4-0.2c0.7-0.9,0.8-2,0.4-2.6c-0.4-0.7,3.6,0.7,3.5,5.6c0,3.2-1,4-1.4,4.6c0,0,0,0,0,0
			c-0.1,0.3-0.2,0.6,0.1,0.9c1.1,1.1,3.1-0.8,3.6-1.6c1.2-2.1,0.2-3.3,0.3-3.8c0.1-0.5,2.7,0.2,2.7,4.7c0,5.1-7.1,8.8-10.7,13.7
			c-4.3,5.9-4.3,17.6,3.2,16.8c3.1-0.4-1.2-4.4,2.6-8.5c2.8-3.1,5.3-1.3,5.4-1.2c0.1,0.1,0,0.3-0.7,0.5c-1.4,0.3-1.6,1.8-1.5,2.7
			c0.2,1.4,1.4,2.6,2.6,2.6c1.2,0,2.2-0.3,2.8-1.7c0.6-1.4,0-3.8-0.6-5.4c-0.6-1.6-4.2-7.2-2.5-11c1.9-4.1,5-4.9,7.4-4.3
			c1,0.2-3.4,1.2-3.3,4.9c0.1,3.5,8.5,6.4,8.5,13.3c0,4.7-1.6,6.8-4.6,9.2c-4.2,3.3-1.9,6.4,1.1,6.4c4.2-0.1,3.4-5.3,2.3-6.4
			c-0.9-0.9,5.7,0.3,5.7,5.1c0.1,4.4-1.8,5.1-1.8,5.1s1.6,3.4-0.5,7.4c-2.9,5.6-11.4,6.3-7.8,13.7c1.5,3.1,7.8,5.5,9.9-3.2
			c0.6-2.4,0.1-3.7,1.9-4.6c2.2-1.1,3.8,0.8,3.1,0.7c-1.4-0.2-2.3,1-2.3,2.2c0,0.9,0.6,1.7,1.4,2.1c0.3,0.1,0.8,0.3,1.5,0.1
			c2.5-0.8,1.7-3,1.3-4.1c-1.1-3.3-1.6-6.9,0.1-9.3c1.9-2.7,5.1-3.1,5.8-2.3c0,0,0.1,0.1-0.3,0.1c-0.8-0.1-4,1-2.1,5.3
			c0.9,2,5.2,4.6,3.3,7.5c-1.1,1.7-2.7,3.7-2.9,4.3c-0.2,0.6-0.4,1-0.4,1.6c0,1.3,1,2.5,2.3,2.5c1.3,0,2.3-1.1,2.3-2.5
			c0-0.5,0-0.9-0.3-1.3c-0.1-0.2-0.2-0.4-0.3-0.5c-1-1.6,2.6-0.2,3.2,3.2c0.7,3.4-2.5,6.2-2.5,6.2s1.6,3.4-1.4,6.8
			c-3,3.3-8.2,2.4-13.3,5.1c-3,1.6-3.5,6.4-0.3,8c0,0,0.1,0,0.1,0.1c1.1,0.6,2.5,0.7,4,0.4c1.5-0.4,2.6-1.2,3.3-2.2
			c0,0,0.4-0.7,0.6-1.2c0.1-0.5,0.2-1.1,0.2-1.2c0.1-1.2,0.3-1.6,0.9-2.1c0.5-0.5,1.1-0.8,1.8-1c0.2,0,0.4-0.1,0.6-0.1
			c0.7,0,1.3,0.2,1.9,0.6c0.3,0.2,0.8,0.7,1.7,0.8c0.5,0.1,1-0.2,1.3-0.5c0.3-0.3,0.6-0.9,0.6-1.5c0-0.2-0.1-0.6,0-0.6
			c0.3-0.1,1.5,3.3-0.8,4.4c-0.6,0.3-1.1,0.6-1.5,1l0,0c-0.4,0.4-0.7,0.9-0.8,1.4c-0.3,1,0.1,1.8,0.6,3.2c0.6,1.6-0.6,5.3-3.2,7.5
			c-5.8,4.8-21.2,14-41.6,17.6c-3.9,0.7-8.2,1-12.1,1.1c-5.3,0.2-18.7,0.2-19.4,0.2c-9.7,0.5-12.2,4.1-12.3,4.2
			c-0.1,0.1-0.2,0.3-0.3,0.4c0,0-0.2-0.2-0.3-0.3c-0.5-0.6-1.2-1.2-2-1.7c-3-1.8-7.8-2.7-13.6-2.7c-0.4,0-5.5,0-5.5,0
			c-5.7,0-14.7-0.1-22.8-1.5c-22.6-3.9-39.4-16.1-41.5-17.5c-3.7-2.5-5.5-5.4-6.1-8.1c-0.2-1.1,0-1.5-1-2.7c0,0-0.5-0.6-1.4-0.7
			c-0.7-0.1-0.6,0-1.4,0C566.7,196.8,565.9,195.8,565.9,194.6z M581.6,445.1c0,0-0.5,0-0.5,0c-2.1,0-3.8,1.2-4.9,3.3v8.5h-1.7v-13.1
			h1.7v2.6h0c1-1.6,2.6-2.8,5.2-2.8h0.3L581.6,445.1z M573.6,415.6v-89.1h19.5v89.1H573.6z M594,450.7h-9.4c0,3.2,1.9,5.1,4.1,5.1
			c2,0,3.1-0.8,4.1-2.4l1.1,0.8c-1.1,1.8-2.8,3-5.3,3c-3.1,0-5.7-2.4-5.7-6.8c0-4.7,3-6.8,5.7-6.8c3.1,0,5.3,2.3,5.3,6.8V450.7z
			 M601.2,457.2c-2.3,0-4.2-1-5.2-2.3l1.1-1c1,1.1,2.3,1.9,4.1,1.9c2.2,0,3.4-0.8,3.4-2.3c0-1.4-1-2-3.6-2.6c-3-0.7-4.6-1.5-4.6-3.8
			c0-1.9,1.6-3.4,4.5-3.4c2.2,0,3.7,0.7,4.9,1.9l-1,1.1c-1-1-2.2-1.6-3.8-1.6c-2,0-2.8,0.9-2.8,1.9c0,1.3,0.9,1.8,3.2,2.3
			c3.3,0.8,5,1.6,5,4.2C606.3,455.8,604.1,457.2,601.2,457.2z M596.4,302.9l-10.8-19.5H579v19.5h-11.2V251h19.5
			c12.7,0,20.4,4.6,20.4,16c0,8.2-3.8,12.7-10.8,14.8l11.6,21H596.4z M611.4,456.9h-1.7v-13.1h1.7V456.9z M611.5,440.8h-1.8v-1.8
			h1.8V440.8z M612,251h42.3v9.5h-15.5v42.3h-11.4v-42.3H612V251z M619.7,457.2c-2.3,0-4.2-1-5.2-2.3l1.1-1c1,1.1,2.3,1.9,4.1,1.9
			c2.2,0,3.4-0.8,3.4-2.3c0-1.4-1-2-3.6-2.6c-3-0.7-4.6-1.5-4.6-3.8c0-1.9,1.6-3.4,4.5-3.4c2.2,0,3.7,0.7,4.9,1.9l-1,1.1
			c-1-1-2.2-1.6-3.8-1.6c-2,0-2.8,0.9-2.8,1.9c0,1.3,0.9,1.8,3.2,2.3c3.3,0.8,5,1.6,5,4.2C624.8,455.8,622.7,457.2,619.7,457.2z
			 M633.9,456.9c-0.4,0.1-1.1,0.1-1.7,0.1c-2.5,0-3.5-1-3.5-3.2v-8.6h-2.3v-1.5h2.3v-4.7h1.7v4.7h3.4v1.5h-3.4v8.2
			c0,1.4,0.4,2.1,2.1,2.1c0.5,0,1-0.1,1.4-0.2V456.9z M645.2,456.9c-0.2-0.5-0.3-1.1-0.3-1.9c-1.5,1.4-3.2,2.1-5.2,2.1
			c-2.3,0-3.7-1.2-3.7-3.3c0-2.6,2.2-4.5,8.9-5.5v-0.7c0-1.8-0.9-2.7-2.7-2.7c-2.1,0-3.5,0.9-4.9,2.1l-0.9-1.1
			c1.6-1.4,3.4-2.4,6-2.4c2.9,0,4.2,1.6,4.2,4.2v5.9c0,1.6,0.1,2.6,0.4,3.2H645.2z M661.1,456.9h-1.7v-9.2c0-1.8-0.8-2.7-2.6-2.7
			c-1.7,0-3.1,0.9-4.6,2.3v9.6h-1.7v-13.1h1.7v2.1c1.3-1.2,2.9-2.3,5-2.3c2.6,0,3.9,1.4,3.9,3.9V456.9z M669.8,457.2
			c-3,0-5.7-2.5-5.7-6.8c0-4.7,2.9-6.8,5.8-6.8c2.8,0,4.2,1.7,5,3.6l-1.5,0.6c-0.7-1.8-1.8-2.8-3.6-2.8c-1.9,0-4.1,1.4-4.1,5.3
			c0,3.4,1.7,5.4,4,5.4c1.8,0,2.8-0.8,3.8-2.8l1.4,0.6C674,455.7,672.5,457.2,669.8,457.2z M649.8,415.6h-37.5v-89.1H648
			c16.4,0,31.8,4,31.8,22c0,12.7-8,18.7-17,20.5v0.2c10.9,1.9,19.4,7.6,19.4,21.8C682.2,409,666.5,415.6,649.8,415.6z M688.2,450.7
			h-9.4c0,3.2,1.9,5.1,4.1,5.1c2,0,3.1-0.8,4.1-2.4l1.1,0.8c-1.1,1.8-2.8,3-5.3,3c-3.1,0-5.7-2.4-5.7-6.8c0-4.7,3-6.8,5.7-6.8
			c3.1,0,5.3,2.3,5.3,6.8V450.7z M689.4,302.9H678V251h34.3v9.5h-22.8v12.6h16.3v9h-16.3V302.9z M695.8,326.5h60.7v16.4h-41.1V362
			h29.8v15.5h-29.8v22.2h43.2v15.9h-62.9V326.5z M706.6,451.9h-4.9V447h4.9V451.9z M725.6,440c-0.2,0-0.6,0-0.9,0
			c-1.3,0-2.2,0.5-2.2,1.9v2h2.9v1.5h-2.9v11.6h-1.7v-11.6h-2.3v-1.5h2.3v-2c0-2.2,1.3-3.4,3.8-3.4c0.3,0,0.8,0,1,0V440z
			 M735.2,445.1c0,0-0.5,0-0.5,0c-2.1,0-3.8,1.2-4.9,3.3v8.5h-1.7v-13.1h1.7v2.6h0c1-1.6,2.6-2.8,5.2-2.8h0.3L735.2,445.1z
			 M747.5,450.7h-9.4c0,3.2,1.9,5.1,4.1,5.1c2,0,3.1-0.8,4.1-2.4l1.1,0.8c-1.1,1.8-2.8,3-5.3,3c-3.1,0-5.7-2.4-5.7-6.8
			c0-4.7,3-6.8,5.7-6.8c3.1,0,5.3,2.3,5.3,6.8V450.7z M761.1,450.7h-9.4c0,3.2,1.9,5.1,4.1,5.1c2,0,3.1-0.8,4.1-2.4l1.1,0.8
			c-1.1,1.8-2.8,3-5.3,3c-3.1,0-5.7-2.4-5.7-6.8c0-4.7,3-6.8,5.7-6.8c3.1,0,5.3,2.3,5.3,6.8V450.7z M773.7,456.9
			c-0.1-0.4-0.3-1.2-0.3-1.9c-1.1,1.1-2.4,2.1-4.4,2.1c-3,0-5.4-2.2-5.4-6.8c0-4.6,2.4-6.8,5.5-6.8c1.7,0,3.2,0.9,4.2,2v-7.1h1.7
			v15.2c0,1.6,0.1,2.6,0.4,3.2H773.7z M784.3,457.2c-3.2,0-5.9-2.5-5.9-6.8c0-4.4,2.7-6.8,5.9-6.8c3.2,0,5.9,2.4,5.9,6.8
			C790.2,454.7,787.5,457.2,784.3,457.2z M812.3,456.9h-1.7v-9.2c0-1.8-0.6-2.7-2.5-2.7c-1.6,0-2.9,0.9-4.4,2.3v9.6H802v-9.2
			c0-1.8-0.6-2.7-2.5-2.7c-1.6,0-2.9,0.9-4.4,2.3v9.6h-1.7v-13.1h1.7v2.1c1.3-1.3,2.8-2.3,4.8-2.3c2.2,0,3.2,1,3.6,2.4
			c1.4-1.3,3-2.4,5-2.4c2.7,0,3.8,1.5,3.8,3.9V456.9z M838.9,342.8h-26.6v72.8h-19.6v-72.8h-26.5v-16.4h72.8V342.8z M432.1,507.2
			c-9.6,10.8-26.2,7.6-42.8,16.5c-9.5,5.1-11.2,20.4-1.1,25.6c0.1,0,0.3,0.1,0.3,0.2c3.4,1.8,8.1,2.3,12.7,1.1
			c4.7-1.2,8.4-3.9,10.6-7.1c0,0,1.3-2.2,1.8-3.9c0.5-1.7,0.6-3.4,0.6-3.8c0.3-4,1.1-5,2.8-6.9c1.5-1.5,3.6-2.7,5.8-3.1
			c0.6-0.1,1.3-0.2,2-0.2c2.3,0,4.3,0.8,6,2c1,0.7,2.6,2.2,5.4,2.6c1.5,0.2,3.3-0.5,4.3-1.6c1-1.1,1.9-2.9,1.8-4.7
			c0-0.6-0.3-1.9,0.1-2.1c0.9-0.3,4.7,10.6-2.6,14.2c-2,0.9-3.6,2.1-4.8,3.4l0,0c-1.3,1.3-2.2,2.9-2.7,4.5
			c-0.9,3.1,0.2,5.8,1.9,10.4c1.9,5.1-2,17-10.4,24.1c-18.7,15.5-68,44.9-133.6,56.5c-12.6,2.2-26.2,3.2-39,3.6
			c-17,0.5-60.1,0.6-62.2,0.7c-31.1,1.7-39.2,13.2-39.6,13.6c-0.4,0.4-0.7,0.8-1,1.3c0,0-0.6-0.7-0.9-1.1c-1.7-2.1-3.9-3.9-6.5-5.5
			c-9.6-5.9-24.9-8.7-43.7-8.7c-1.3,0-17.5-0.2-17.5-0.2c-18.3,0-47.2-0.2-73.2-4.7c-72.7-12.5-126.7-51.9-133.2-56.2
			c-11.9-8-17.6-17.5-19.5-26c-0.7-3.4,0.1-4.8-3.3-8.7c0,0-1.6-1.9-4.5-2.2c-2.1-0.2-1.9,0.1-4.4-0.1c-3.7-0.6-6.2-3.9-6.2-7.6
			c0-1.2,0.4-2.7,1.1-4c0.8-1.4,1.7-2.1,1.7-2.1s0.7-0.5,0.4,0.5c-0.3,1.7,1.2,6.4,5.3,4.7c4-1.7,7.1-1.8,7.4-1.8
			c4.4,0,8.2,1.9,10.3,4.8c0.1,0.2,0.2,0.4,0.4,0.5c1.5,2.3,3.3,5.5,5.6,6.8c7.2,4,12.2,0.5,12.2-2.8c0-2.5-1.3-5-5-5
			c-1.6,0-3,1.3-3.4,1.4c-0.5,0.2-1.9,0.5-1.3-0.5c0.5-0.8,16-13.3,20.3,1.5c1,3.3,2.4,7.1,5,9.6c6.6,6.3,20.1,5.9,23.8-6.7
			c1.7-6-1.6-13.5-8.8-16.7c-14.2-6.2-35.8-3.6-44.9-6.6c-18.9-6.2-7.1-22.5-7.1-22.5c0.4-0.6,1.7-1.3,1.4,0.8
			c0,0.1-0.7,3.3-0.7,3.4c-0.7,4.7,3.6,8.8,9.5,9.7c5.9,0.8,11.5-2.4,12-5.9c0.5-3.5-0.6-9.2-6.6-10.4c-5.9-1.2-9.5-3.5-12.4-7.5
			c-7.2-9.9-4-19.6-4-19.6s-11.9-7.8-10.4-18.4c1.6-11.1,9.7-8.9,9.7-8.9s0.2,0.1,0.1,0.3c-0.1,0.1-0.6,0.4-0.7,0.5
			c-1,0.8-1.5,1.6-2.1,2.9c-1.8,4.2-0.3,9,3.5,10.6c3.9,1.6,8.8,0.4,10.6-3.8c0.4-1.1,3.3-7-3.1-12.7c-0.8-0.7-1.6-1.4-2.4-2.3
			c-0.8-0.8-1.6-1.7-2.2-2.7c-1.4-2-2.4-4.5-2.3-7.7c0-1.5,0.3-3.2,0.8-5c1.7-5,6.2-9.3,11.6-10.4c2.7-0.5,5-0.8,6.8-2.3
			c2.1-1.6,3.4-3.9,3.4-6.3c0-3.6-2.8-6.4-6.9-8c-0.3-0.1-0.6-0.3,0.5-0.3c2.4-0.1,9.5,0.2,12.4,9.4c1.5,4.8-0.8,8.7-3.4,12.4
			c-4,5.5-9.1,11.4-2.2,17.5c1.1,0.9,2.3,1.6,3.5,2c5.3,1.8,11.8-1.7,10-7c-1.1-3.3-3.1-4.3-4.2-4.2c-0.8,0-0.5-0.2-0.5-0.2
			c2.9-1.3,14.4-0.8,17.7,19.7c2.9,18.2,8.3,26,22.5,25c12.6-0.8,17.5-15.2,15.1-26c-2.1-9.9-12.7-15.2-22.3-20.8c0,0-0.1,0-0.1,0
			c-1.6-0.9-3.2-1.9-4.8-2.9c0,0-0.1-0.1-0.1-0.1c-7.1-5.3-11.6-13.8-11.6-23.3c0-1.9,0.2-3.8,0.5-5.5c0.1-0.2,0.1-0.4,0.1-0.6
			c0.4-1.9,1-3.5,1.5-4.9c0.1-0.3,0.2-0.6,0.4-0.9c0.3-0.5,0.5-1,0.7-1.4c0.4-0.8,0.7-1.1,0.7-1.1s0,0,0,0c-0.1-0.2-0.4-0.7-0.8-1.4
			c-0.7-1.2-2.1-3.8-2.7-5.3c-0.6-1.5-1.2-4.2-1.2-6.4c0-10.1,7.6-18.4,17.4-19.5c0.3,0,0.1,0.3-0.2,0.5c-2.5,1.8-6.7,11.9,4.4,18.7
			c2.5,1.5,5.8,1.6,9.5,0.4c1.3-0.4,2.4-0.9,3.4-1.4h0c1.8-1,3.2-2.1,4.2-3.4c4.8-6.3-0.2-16.2-11.1-24.6c-0.7-0.5-4.7-3.5-5.8-4.6
			c-4.1-4.4-6.8-10.2-6.6-16.6c0.6-16.3,11.5-20.6,14.1-22.1c5.6-3.1,12.6-7,13.1-12.7c1-10.2-9.4-14.1-9.4-14.1s-0.7-0.4,0.4-0.6
			c2.4-0.4,19.7-1.3,25.8,7.9c8.9,13.2-0.5,23.9-1.7,25.4c-6.2,7.2-15.4,14.1-9.8,20.4c6.1,6.9,15,3.9,15.7-2.3
			c0.8-6.6-5.5-9.2-7.5-9.3c-0.8,0-0.3-0.5-0.3-0.5s2.8-0.7,6.5-0.7c5.1,0,11.7,2,14.4,11c3.6,12.1-15.2,36.5,9.3,38.9
			c14.6,1.4,27.1-20.2,10.4-42.4c-10-13.3-16-23.8-15.3-38.4c0.8-14.6,4.1-10.4,2.2-19.6c-1.9-9.2-13.3-15-8.7-29.5
			c4.3-13.8,12.6-14,14.7-13.8c0.3,0,0.2,0.7,0.2,0.7s-6.3,20.8,8.3,15c8-3.2-0.1-18.3-0.1-30.3c0-12,10.8-9.8,16.3-22
			c2.8-6.2-8.3-12.8-10.3-14.9c-0.9-1,1.4-1.4,1.4-1.4s13.6-1.2,20.3,8c5.6,7.6,4.6,17,1.1,24.8c-3.6,8-12.2,9.5-7.8,20
			c3,7.2,9.9,6.9,11.9,6.2c5.4-1.7,16.9-5.5,27.6-0.5c10.9,5.1,17.7,18,17.7,24.3c0,0.5-0.1,1.3-0.6,0.5c-0.4-1-6.6-12.1-20.4-13.5
			c-26.5-2.6-30.9,43.1-1.5,47.1c23.7,3.3,33.7-10.7,35-23.9c0.7-7.2,0-19.9-13.6-32.1c-16.7-15-26.8-27.3-26.1-43.5
			c0.7-17.9,7.5-18.9,7.5-18.9s0.9,0,0.1,1.4c-1.4,2.7-0.3,10.5,2.1,15.9c1.1,2.5,4.2,7.7,11.8,7.8c6.4,0.1,11.6-5.3,11.6-11.9
			c0-5.3-5.7-11.2-11.3-13.3c-0.1,0-13.5-5-17.2-13.3c-8.1-17.8,2.1-32.4,18.1-36c1.3-0.3,1.2,0,0.7,0.4c-0.5,0.4-7,5.7-9.1,10.8
			c-2.2,5.3-2.2,11.8,7.4,15.9c12.1,5.1,25.1-6.3,29.5,8.8c1.3,4.5,1.6,4.8,3.4,8.8c3,7,7.5,12,15.8,10.9
			c11.2-1.5,20.8-21.2-1.7-30.6c-8.5-3.5-17.3-2.9-24.1-14.5C92.6,107.6,93,97,95.3,89c2.6-9.1,6.5-12.7,9-14c6-3.3,9.3-2,9.3-2
			s1,0.4-0.4,1.3c-3.9,2.4-4.2,18.4,7.3,17.3c8.5-0.8,8.5-7.4,5-17.6c-0.9-2.5-1.2-5.3-0.7-8.2c0.9-5.3,3.7-9.4,8-11.5
			c1.2-0.6,2.7-1.1,5.5-1.8c1.8-0.4,4.7-0.7,6-4.3c3.3-9.2-8.1-13.7-6.6-16.1c1.4-2.3,21.9,5.4,17.4,26.2c-0.5,2.5-1.1,4.7-1.8,6.6
			c-2.3,7.1-4.8,11.4-5.2,15.1c-0.2,1.6,0,3,0.8,4.5c1.9,3.6,4.1,4.3,5.9,4.7c4.9,1.2,12-2.6,11.6-11.6c0-5.6-3.9-11.9,3.9-7.7
			c8.1,4.4,19.9,16.5,11.5,33.4c-2.5,5.1-6.2,7-11.1,9.6c-3.6,1.8-5.8,5.7-5.8,10c0,6,4.9,10.7,10.8,10.8
			c4.7,0.1,13.5-3.3,11.7-17.5c-0.1-1-0.6-1.7-1-2.3c-1.5-2.1,0.7-0.9,0.8-0.9c2.3,1.1,26.4,13.1,10.3,36.7
			c-12.9,18.8-21.4,36.2-8.3,44.2c11.4,7,25.1-3.2,22.2-15.7c-1.1-5-11-7.2-9.4-20.8c1.4-12.4,11.4-10.3,11.4-10.3s1,0.5-0.5,2
			c-3.5,3.3-2.7,17.4,8.7,14.9c9.1-2,4.5-12.8,0.1-20.8c-4.3-7.9-7.4-18.1,1.3-26.3c6.6-6.2,12.5-3.3,12.8-3
			c0.3,0.2,0.3,0.6-0.7,0.4c-1.6-0.2-4.3,1.8-5.8,3.5c-1.8,2.2-2.2,4.4-1.9,6.9c0.5,3.1,3.9,5.5,8.6,7.4c4.7,1.9,7.3,6.6,7.3,11.9
			c0,4.2-1.4,5.9-4.4,9.5c-3.2,4-2.1,8.5,3.4,14.2c7,7.2,12.3,14.1,10.9,25.2c-1.8,14.1-14.5,20.6-19.9,26.8
			c-11.4,13.2-15.6,25.5-7.3,41.9c7.3,14.4,30.3,21.8,44.7,3.9c7.6-9.5,11.2-36.4-17.5-33.6c-10.7,1.1-14.2,10.8-14.6,15
			c-0.1,1-0.3,0.7-0.7,0.1c-0.8-1.8-0.9-3.4-0.9-5.6c0-4,2.8-15,12.9-19.3c12.1-5.1,10.3-3.9,11.3-12.8c0.6-5.5,1.7-8.5,5.6-9.3
			c8.1-1.7-0.1,1.1,1.4,9.3c1.3,7.2,7.1,8.6,10.1,3c7.9-15-11.4-24.2-4.3-39.4c3.9-8.4,15.7-10.1,15.7-10.1s2.6-0.2-0.2,1.3
			c-2.6,1.4-7.7,7.6-6.8,13.2c1.8,11.9,16.2,11.5,16.2,25.8c0,14.6-14,24.6-7.1,31.5c3.6,3.6,8.5,2.3,10.8-0.8
			c2.2-2.8,2.6-6.3,1.3-8.3c-1.4-2.2,11.4,2.3,11.4,18.1c0,10.2-3.4,12.7-4.6,14.9c0,0,0,0,0,0.1c-0.4,0.8-0.7,1.9,0.3,3
			c3.6,3.6,10-2.7,11.5-5.3c4-6.7,0.7-10.7,1.1-12.3c0.4-1.6,8.6,0.5,8.6,15c0,16.5-22.9,28.2-34.5,44
			c-13.7,18.8-13.9,56.7,10.2,53.8c9.9-1.2-3.8-14,8.2-27.4c8.9-9.9,16.9-4.1,17.3-3.7c0.5,0.4,0.1,1.1-2.2,1.5
			c-4.6,0.8-5.1,5.8-4.7,8.8c0.7,4.4,4.6,8.4,8.5,8.4c3.7-0.1,7-1.1,9-5.5c2-4.5,0.1-12.1-1.8-17.3c-1.9-5.2-13.6-23.2-7.9-35.3
			c6-13,16.2-15.6,23.9-13.8c3.1,0.8-10.9,3.8-10.5,15.8c0.3,11.1,27.2,20.6,27.2,42.6c0,15.2-5.1,21.7-14.7,29.4
			c-13.5,10.7-6,20.7,3.4,20.5c13.5-0.2,11.1-16.9,7.4-20.5c-2.9-2.9,18.2,0.9,18.4,16.2c0.2,14.1-5.8,16.3-5.8,16.3
			s5.1,11.1-1.6,23.9c-9.4,17.9-36.7,20.1-25,44c4.8,9.9,24.9,17.8,31.7-10.3c1.8-7.6,0.4-12,6.1-14.9c7.1-3.6,12.2,2.5,9.9,2.2
			c-4.5-0.6-7.4,3.2-7.4,7.1c0,3,1.9,5.6,4.5,6.6c1,0.4,2.6,0.9,4.8,0.2c8-2.7,5.4-9.7,4.2-13.3c-3.5-10.7-5-22.2,0.5-29.7
			c6.3-8.6,16.5-9.9,18.5-7.5c0,0,0.4,0.4-0.9,0.3c-2.7-0.3-12.8,3.1-6.8,16.9c2.9,6.5,16.8,14.8,10.7,23.9
			c-3.6,5.4-8.5,12-9.2,13.8c-0.7,1.8-1.4,3.2-1.4,5.1c0,4.3,3.3,7.9,7.3,7.9c4,0,7.3-3.6,7.3-7.9c0-1.6-0.1-3-0.9-4.3
			c-0.3-0.6-0.8-1.1-1.1-1.6c-3.3-5.1,8.2-0.7,10.4,10.2c2.2,10.8-8.2,20-8.2,20S441.7,496.4,432.1,507.2z"/>
	</g>
</g>
<g>
	<g>
		<path class="st18" d="M929.7,177.4h-1.5v-5.9h-6.6v5.9h-1.5v-12.6h1.5v5.3h6.6v-5.3h1.5V177.4z"/>
		<path class="st18" d="M941.1,172.7c0,1.5-0.4,2.7-1.2,3.6c-0.8,0.9-1.8,1.3-3.2,1.3c-0.8,0-1.6-0.2-2.2-0.6
			c-0.7-0.4-1.2-1-1.5-1.7s-0.5-1.6-0.5-2.6c0-1.5,0.4-2.7,1.2-3.6c0.8-0.9,1.8-1.3,3.2-1.3c1.3,0,2.4,0.4,3.1,1.3
			C940.7,170,941.1,171.2,941.1,172.7z M933.9,172.7c0,1.2,0.2,2.1,0.7,2.8c0.5,0.6,1.2,0.9,2.1,0.9s1.6-0.3,2.1-0.9
			s0.7-1.5,0.7-2.8c0-1.2-0.2-2.1-0.7-2.7c-0.5-0.6-1.2-0.9-2.1-0.9c-0.9,0-1.6,0.3-2.1,0.9S933.9,171.5,933.9,172.7z"/>
		<path class="st18" d="M950,177.4v-6.1c0-0.8-0.2-1.3-0.5-1.7c-0.3-0.4-0.9-0.6-1.6-0.6c-1,0-1.7,0.3-2.2,0.8s-0.7,1.4-0.7,2.6v4.9
			h-1.4V168h1.2l0.2,1.3h0.1c0.3-0.5,0.7-0.8,1.2-1.1s1.1-0.4,1.8-0.4c1.1,0,2,0.3,2.6,0.8c0.6,0.5,0.9,1.4,0.9,2.6v6.1H950z"/>
		<path class="st18" d="M962.5,172.7c0,1.5-0.4,2.7-1.2,3.6c-0.8,0.9-1.8,1.3-3.2,1.3c-0.8,0-1.6-0.2-2.2-0.6
			c-0.7-0.4-1.2-1-1.5-1.7s-0.5-1.6-0.5-2.6c0-1.5,0.4-2.7,1.2-3.6c0.8-0.9,1.8-1.3,3.2-1.3c1.3,0,2.4,0.4,3.1,1.3
			C962.1,170,962.5,171.2,962.5,172.7z M955.4,172.7c0,1.2,0.2,2.1,0.7,2.8c0.5,0.6,1.2,0.9,2.1,0.9s1.6-0.3,2.1-0.9
			s0.7-1.5,0.7-2.8c0-1.2-0.2-2.1-0.7-2.7c-0.5-0.6-1.2-0.9-2.1-0.9c-0.9,0-1.6,0.3-2.1,0.9S955.4,171.5,955.4,172.7z"/>
		<path class="st18" d="M969.3,167.8c0.4,0,0.8,0,1.1,0.1l-0.2,1.3c-0.4-0.1-0.7-0.1-1-0.1c-0.8,0-1.4,0.3-2,0.9s-0.8,1.4-0.8,2.3
			v5.1H965V168h1.2l0.2,1.7h0.1c0.3-0.6,0.8-1.1,1.3-1.4C968.2,168,968.7,167.8,969.3,167.8z"/>
		<path class="st18" d="M978,177.4l-0.3-1.3h-0.1c-0.5,0.6-0.9,1-1.4,1.2c-0.5,0.2-1.1,0.3-1.8,0.3c-0.9,0-1.7-0.2-2.2-0.7
			c-0.5-0.5-0.8-1.2-0.8-2.1c0-1.9,1.5-2.9,4.6-3l1.6-0.1v-0.6c0-0.7-0.2-1.3-0.5-1.6s-0.8-0.5-1.5-0.5c-0.8,0-1.7,0.2-2.7,0.7
			l-0.4-1.1c0.5-0.3,1-0.5,1.5-0.6c0.6-0.1,1.1-0.2,1.7-0.2c1.1,0,2,0.2,2.5,0.7s0.8,1.3,0.8,2.4v6.4H978z M974.8,176.4
			c0.9,0,1.6-0.2,2.1-0.7c0.5-0.5,0.8-1.2,0.8-2v-0.9l-1.4,0.1c-1.1,0-2,0.2-2.5,0.5c-0.5,0.3-0.8,0.8-0.8,1.5
			c0,0.5,0.2,0.9,0.5,1.2S974.2,176.4,974.8,176.4z"/>
		<path class="st18" d="M986.3,167.8c0.4,0,0.8,0,1.1,0.1l-0.2,1.3c-0.4-0.1-0.7-0.1-1-0.1c-0.8,0-1.4,0.3-2,0.9s-0.8,1.4-0.8,2.3
			v5.1H982V168h1.2l0.2,1.7h0.1c0.3-0.6,0.8-1.1,1.3-1.4C985.2,168,985.7,167.8,986.3,167.8z"/>
		<path class="st18" d="M987.7,168h1.5l2.1,5.4c0.5,1.2,0.7,2.1,0.8,2.7h0.1c0.1-0.3,0.2-0.8,0.5-1.5c0.2-0.7,1-2.9,2.3-6.5h1.5
			l-4,10.7c-0.4,1.1-0.9,1.8-1.4,2.3s-1.2,0.7-2,0.7c-0.4,0-0.9,0-1.3-0.1v-1.1c0.3,0.1,0.7,0.1,1.1,0.1c1,0,1.7-0.5,2.1-1.7
			l0.5-1.3L987.7,168z"/>
		<path class="st18" d="M1006.4,177.6c-1.4,0-2.4-0.4-3.2-1.3s-1.1-2-1.1-3.6c0-1.6,0.4-2.8,1.1-3.7c0.8-0.9,1.8-1.3,3.2-1.3
			c0.5,0,0.9,0,1.4,0.1s0.8,0.2,1.1,0.3l-0.4,1.2c-0.3-0.1-0.7-0.2-1-0.3c-0.4-0.1-0.7-0.1-1-0.1c-1.9,0-2.9,1.2-2.9,3.7
			c0,1.2,0.2,2,0.7,2.7c0.5,0.6,1.2,0.9,2.1,0.9c0.8,0,1.6-0.2,2.4-0.5v1.3C1008.2,177.4,1007.4,177.6,1006.4,177.6z"/>
		<path class="st18" d="M1017.5,177.4v-6.1c0-0.8-0.2-1.3-0.5-1.7c-0.3-0.4-0.9-0.6-1.6-0.6c-1,0-1.7,0.3-2.2,0.8
			c-0.5,0.5-0.7,1.4-0.7,2.6v4.9h-1.4V164h1.4v4c0,0.5,0,0.9-0.1,1.2h0.1c0.3-0.5,0.7-0.8,1.2-1.1c0.5-0.3,1.1-0.4,1.8-0.4
			c1.2,0,2,0.3,2.6,0.8s0.9,1.4,0.9,2.6v6.1H1017.5z"/>
		<path class="st18" d="M1027.6,177.4l-0.3-1.3h-0.1c-0.5,0.6-0.9,1-1.4,1.2c-0.5,0.2-1.1,0.3-1.8,0.3c-0.9,0-1.7-0.2-2.2-0.7
			c-0.5-0.5-0.8-1.2-0.8-2.1c0-1.9,1.5-2.9,4.6-3l1.6-0.1v-0.6c0-0.7-0.2-1.3-0.5-1.6s-0.8-0.5-1.5-0.5c-0.8,0-1.7,0.2-2.7,0.7
			l-0.4-1.1c0.5-0.3,1-0.5,1.5-0.6c0.6-0.1,1.1-0.2,1.7-0.2c1.1,0,2,0.2,2.5,0.7s0.8,1.3,0.8,2.4v6.4H1027.6z M1024.4,176.4
			c0.9,0,1.6-0.2,2.1-0.7c0.5-0.5,0.8-1.2,0.8-2v-0.9l-1.4,0.1c-1.1,0-2,0.2-2.5,0.5c-0.5,0.3-0.8,0.8-0.8,1.5
			c0,0.5,0.2,0.9,0.5,1.2S1023.9,176.4,1024.4,176.4z"/>
		<path class="st18" d="M1031.5,165.4c0-0.3,0.1-0.6,0.2-0.7c0.2-0.2,0.4-0.2,0.6-0.2c0.2,0,0.4,0.1,0.6,0.2
			c0.2,0.2,0.2,0.4,0.2,0.7s-0.1,0.6-0.2,0.7c-0.2,0.2-0.4,0.2-0.6,0.2c-0.2,0-0.4-0.1-0.6-0.2
			C1031.6,166,1031.5,165.8,1031.5,165.4z M1033.1,177.4h-1.4V168h1.4V177.4z"/>
		<path class="st18" d="M1040.4,167.8c0.4,0,0.8,0,1.1,0.1l-0.2,1.3c-0.4-0.1-0.7-0.1-1-0.1c-0.8,0-1.4,0.3-2,0.9s-0.8,1.4-0.8,2.3
			v5.1h-1.4V168h1.2l0.2,1.7h0.1c0.3-0.6,0.8-1.1,1.3-1.4C1039.3,168,1039.8,167.8,1040.4,167.8z"/>
		<path class="st18" d="M1047.7,177.6c-0.6,0-1.2-0.1-1.7-0.3c-0.5-0.2-0.9-0.6-1.3-1h-0.1c0.1,0.6,0.1,1.1,0.1,1.6v3.9h-1.4V168
			h1.2l0.2,1.3h0.1c0.4-0.5,0.8-0.9,1.3-1.1c0.5-0.2,1-0.3,1.7-0.3c1.2,0,2.2,0.4,2.9,1.3c0.7,0.9,1,2.1,1,3.6c0,1.5-0.3,2.8-1,3.6
			C1049.9,177.2,1048.9,177.6,1047.7,177.6z M1047.5,169c-1,0-1.7,0.3-2.1,0.8c-0.4,0.5-0.7,1.4-0.7,2.5v0.3c0,1.3,0.2,2.3,0.7,2.8
			s1.1,0.9,2.1,0.9c0.8,0,1.5-0.3,1.9-1c0.5-0.7,0.7-1.6,0.7-2.7c0-1.2-0.2-2.1-0.7-2.7C1049,169.3,1048.3,169,1047.5,169z"/>
		<path class="st18" d="M1058.1,177.6c-1.4,0-2.5-0.4-3.3-1.3s-1.2-2-1.2-3.5c0-1.5,0.4-2.7,1.1-3.6s1.8-1.3,3-1.3
			c1.2,0,2.1,0.4,2.8,1.2c0.7,0.8,1,1.8,1,3.1v0.9h-6.5c0,1.1,0.3,1.9,0.8,2.5s1.3,0.9,2.2,0.9c1,0,2-0.2,3-0.6v1.3
			c-0.5,0.2-1,0.4-1.4,0.5S1058.7,177.6,1058.1,177.6z M1057.7,169c-0.8,0-1.4,0.2-1.8,0.7s-0.7,1.2-0.8,2h4.9
			c0-0.9-0.2-1.6-0.6-2.1S1058.4,169,1057.7,169z"/>
		<path class="st18" d="M1068.3,167.8c0.4,0,0.8,0,1.1,0.1l-0.2,1.3c-0.4-0.1-0.7-0.1-1-0.1c-0.8,0-1.4,0.3-2,0.9s-0.8,1.4-0.8,2.3
			v5.1h-1.4V168h1.2l0.2,1.7h0.1c0.3-0.6,0.8-1.1,1.3-1.4C1067.1,168,1067.7,167.8,1068.3,167.8z"/>
		<path class="st18" d="M1077.2,174.8c0,0.9-0.3,1.6-1,2c-0.7,0.5-1.6,0.7-2.8,0.7c-1.2,0-2.2-0.2-2.9-0.6v-1.3
			c0.5,0.2,0.9,0.4,1.5,0.5c0.5,0.1,1,0.2,1.5,0.2c0.7,0,1.3-0.1,1.7-0.4c0.4-0.2,0.6-0.6,0.6-1.1c0-0.4-0.2-0.7-0.5-0.9
			s-0.9-0.6-1.9-0.9c-0.9-0.3-1.5-0.6-1.9-0.9c-0.4-0.2-0.6-0.5-0.8-0.8s-0.3-0.7-0.3-1.1c0-0.8,0.3-1.4,0.9-1.8s1.5-0.7,2.6-0.7
			c1,0,2,0.2,3,0.6l-0.5,1.2c-0.9-0.4-1.8-0.6-2.6-0.6c-0.7,0-1.2,0.1-1.5,0.3s-0.5,0.5-0.5,0.9c0,0.3,0.1,0.5,0.2,0.6
			s0.3,0.3,0.6,0.5c0.3,0.2,0.8,0.4,1.7,0.7c1.1,0.4,1.9,0.8,2.3,1.2C1077,173.7,1077.2,174.2,1077.2,174.8z"/>
		<path class="st18" d="M1087.7,172.7c0,1.5-0.4,2.7-1.2,3.6c-0.8,0.9-1.8,1.3-3.2,1.3c-0.8,0-1.6-0.2-2.2-0.6
			c-0.7-0.4-1.2-1-1.5-1.7s-0.5-1.6-0.5-2.6c0-1.5,0.4-2.7,1.2-3.6c0.8-0.9,1.8-1.3,3.2-1.3c1.3,0,2.4,0.4,3.1,1.3
			C1087.3,170,1087.7,171.2,1087.7,172.7z M1080.5,172.7c0,1.2,0.2,2.1,0.7,2.8c0.5,0.6,1.2,0.9,2.1,0.9s1.6-0.3,2.1-0.9
			s0.7-1.5,0.7-2.8c0-1.2-0.2-2.1-0.7-2.7c-0.5-0.6-1.2-0.9-2.1-0.9c-0.9,0-1.6,0.3-2.1,0.9S1080.5,171.5,1080.5,172.7z"/>
		<path class="st18" d="M1096.6,177.4v-6.1c0-0.8-0.2-1.3-0.5-1.7c-0.3-0.4-0.9-0.6-1.6-0.6c-1,0-1.7,0.3-2.2,0.8s-0.7,1.4-0.7,2.6
			v4.9h-1.4V168h1.2l0.2,1.3h0.1c0.3-0.5,0.7-0.8,1.2-1.1s1.1-0.4,1.8-0.4c1.1,0,2,0.3,2.6,0.8c0.6,0.5,0.9,1.4,0.9,2.6v6.1H1096.6z
			"/>
		<path class="st18" d="M1107.1,174.8c0,0.9-0.3,1.6-1,2c-0.7,0.5-1.6,0.7-2.8,0.7c-1.2,0-2.2-0.2-2.9-0.6v-1.3
			c0.5,0.2,0.9,0.4,1.5,0.5c0.5,0.1,1,0.2,1.5,0.2c0.7,0,1.3-0.1,1.7-0.4c0.4-0.2,0.6-0.6,0.6-1.1c0-0.4-0.2-0.7-0.5-0.9
			s-0.9-0.6-1.9-0.9c-0.9-0.3-1.5-0.6-1.9-0.9c-0.4-0.2-0.6-0.5-0.8-0.8s-0.3-0.7-0.3-1.1c0-0.8,0.3-1.4,0.9-1.8s1.5-0.7,2.6-0.7
			c1,0,2,0.2,3,0.6l-0.5,1.2c-0.9-0.4-1.8-0.6-2.6-0.6c-0.7,0-1.2,0.1-1.5,0.3s-0.5,0.5-0.5,0.9c0,0.3,0.1,0.5,0.2,0.6
			s0.3,0.3,0.6,0.5c0.3,0.2,0.8,0.4,1.7,0.7c1.1,0.4,1.9,0.8,2.3,1.2C1106.9,173.7,1107.1,174.2,1107.1,174.8z"/>
		<path class="st18" d="M1113.9,165.4c0-0.3,0.1-0.6,0.2-0.7c0.2-0.2,0.4-0.2,0.6-0.2c0.2,0,0.4,0.1,0.6,0.2
			c0.2,0.2,0.2,0.4,0.2,0.7s-0.1,0.6-0.2,0.7c-0.2,0.2-0.4,0.2-0.6,0.2c-0.2,0-0.4-0.1-0.6-0.2
			C1113.9,166,1113.9,165.8,1113.9,165.4z M1115.4,177.4h-1.4V168h1.4V177.4z"/>
		<path class="st18" d="M1124.9,177.4v-6.1c0-0.8-0.2-1.3-0.5-1.7c-0.3-0.4-0.9-0.6-1.6-0.6c-1,0-1.7,0.3-2.2,0.8s-0.7,1.4-0.7,2.6
			v4.9h-1.4V168h1.2l0.2,1.3h0.1c0.3-0.5,0.7-0.8,1.2-1.1s1.1-0.4,1.8-0.4c1.1,0,2,0.3,2.6,0.8c0.6,0.5,0.9,1.4,0.9,2.6v6.1H1124.9z
			"/>
		<path class="st18" d="M1133,177.6c-1.4,0-2.4-0.4-3.2-1.3s-1.1-2-1.1-3.6c0-1.6,0.4-2.8,1.1-3.7c0.8-0.9,1.8-1.3,3.2-1.3
			c0.5,0,0.9,0,1.4,0.1s0.8,0.2,1.1,0.3l-0.4,1.2c-0.3-0.1-0.7-0.2-1-0.3c-0.4-0.1-0.7-0.1-1-0.1c-1.9,0-2.9,1.2-2.9,3.7
			c0,1.2,0.2,2,0.7,2.7c0.5,0.6,1.2,0.9,2.1,0.9c0.8,0,1.6-0.2,2.4-0.5v1.3C1134.8,177.4,1134,177.6,1133,177.6z"/>
		<path class="st18" d="M1139.1,177.4h-1.4V164h1.4V177.4z"/>
		<path class="st18" d="M1143.4,168v6.1c0,0.8,0.2,1.3,0.5,1.7c0.3,0.4,0.9,0.6,1.6,0.6c1,0,1.7-0.3,2.2-0.8
			c0.5-0.5,0.7-1.4,0.7-2.6v-5h1.4v9.4h-1.2l-0.2-1.3h-0.1c-0.3,0.5-0.7,0.8-1.2,1.1c-0.5,0.2-1.1,0.4-1.8,0.4c-1.1,0-2-0.3-2.6-0.8
			c-0.6-0.5-0.9-1.4-0.9-2.6V168H1143.4z"/>
		<path class="st18" d="M1159.3,176.1L1159.3,176.1c-0.7,1-1.7,1.4-3,1.4c-1.2,0-2.2-0.4-2.9-1.3c-0.7-0.8-1-2-1-3.6s0.3-2.8,1-3.6
			c0.7-0.9,1.6-1.3,2.9-1.3c1.3,0,2.3,0.5,2.9,1.4h0.1l-0.1-0.7l0-0.7V164h1.4v13.4h-1.2L1159.3,176.1z M1156.5,176.4
			c1,0,1.7-0.3,2.1-0.8c0.4-0.5,0.7-1.4,0.7-2.6v-0.3c0-1.3-0.2-2.3-0.7-2.9c-0.4-0.6-1.2-0.9-2.1-0.9c-0.8,0-1.5,0.3-1.9,1
			s-0.7,1.6-0.7,2.8c0,1.2,0.2,2.1,0.7,2.7S1155.6,176.4,1156.5,176.4z"/>
		<path class="st18" d="M1167.7,177.6c-1.4,0-2.5-0.4-3.3-1.3s-1.2-2-1.2-3.5c0-1.5,0.4-2.7,1.1-3.6s1.8-1.3,3-1.3
			c1.2,0,2.1,0.4,2.8,1.2c0.7,0.8,1,1.8,1,3.1v0.9h-6.5c0,1.1,0.3,1.9,0.8,2.5s1.3,0.9,2.2,0.9c1,0,2-0.2,3-0.6v1.3
			c-0.5,0.2-1,0.4-1.4,0.5S1168.3,177.6,1167.7,177.6z M1167.3,169c-0.8,0-1.4,0.2-1.8,0.7s-0.7,1.2-0.8,2h4.9
			c0-0.9-0.2-1.6-0.6-2.1S1168,169,1167.3,169z"/>
		<path class="st18" d="M1173.4,168.9c0-0.8,0.3-1.2,1-1.2c0.7,0,1.1,0.4,1.1,1.2c0,0.4-0.1,0.7-0.3,0.9c-0.2,0.2-0.4,0.3-0.8,0.3
			c-0.3,0-0.5-0.1-0.7-0.3C1173.5,169.6,1173.4,169.3,1173.4,168.9z M1173.4,176.5c0-0.4,0.1-0.7,0.3-0.9c0.2-0.2,0.4-0.3,0.8-0.3
			c0.3,0,0.6,0.1,0.8,0.3c0.2,0.2,0.3,0.5,0.3,0.9c0,0.4-0.1,0.7-0.3,0.9c-0.2,0.2-0.4,0.3-0.8,0.3c-0.3,0-0.5-0.1-0.7-0.3
			C1173.5,177.2,1173.4,176.9,1173.4,176.5z"/>
		<path class="st18" d="M925.4,188c-1,0-1.8,0.4-2.3,1.1c-0.5,0.8-0.8,1.8-0.8,3.2c0,2.8,1.1,4.2,3.2,4.2c0.9,0,2-0.2,3.2-0.7v2.2
			c-1,0.4-2.2,0.6-3.5,0.6c-1.8,0-3.2-0.6-4.2-1.7s-1.5-2.7-1.5-4.8c0-1.3,0.2-2.5,0.7-3.4c0.5-1,1.2-1.7,2.1-2.3s1.9-0.8,3.1-0.8
			c1.2,0,2.4,0.3,3.7,0.9l-0.9,2.2c-0.5-0.2-0.9-0.4-1.4-0.6C926.3,188.1,925.8,188,925.4,188z"/>
		<path class="st18" d="M935.4,198.7c-1.5,0-2.8-0.4-3.6-1.3c-0.9-0.9-1.3-2.1-1.3-3.6c0-1.6,0.4-2.9,1.2-3.7
			c0.8-0.9,1.9-1.3,3.3-1.3c1.4,0,2.4,0.4,3.2,1.2c0.8,0.8,1.1,1.8,1.1,3.2v1.3h-6.2c0,0.7,0.2,1.3,0.7,1.7c0.4,0.4,1,0.6,1.7,0.6
			c0.6,0,1.1-0.1,1.6-0.2s1.1-0.3,1.6-0.6v2c-0.5,0.2-0.9,0.4-1.5,0.5C936.8,198.7,936.1,198.7,935.4,198.7z M935,190.6
			c-0.6,0-1,0.2-1.3,0.5c-0.3,0.4-0.5,0.9-0.5,1.5h3.7c0-0.6-0.2-1.1-0.5-1.5C936,190.8,935.6,190.6,935,190.6z"/>
		<path class="st18" d="M940.1,188.9h2.9l1.8,5.4c0.2,0.5,0.3,1,0.3,1.7h0.1c0.1-0.6,0.2-1.1,0.4-1.7l1.8-5.4h2.8l-4.1,10.8
			c-0.4,1-0.9,1.8-1.6,2.3c-0.7,0.5-1.5,0.7-2.4,0.7c-0.5,0-0.9,0-1.3-0.1v-2.1c0.3,0.1,0.7,0.1,1,0.1c0.5,0,0.9-0.1,1.2-0.4
			c0.3-0.3,0.6-0.7,0.8-1.3l0.2-0.5L940.1,188.9z"/>
		<path class="st18" d="M963.9,198.5l-0.9-3h-4.6l-0.9,3h-2.9l4.4-12.6h3.3l4.5,12.6H963.9z M962.4,193.3c-0.8-2.7-1.3-4.2-1.4-4.6
			c-0.1-0.4-0.2-0.6-0.2-0.8c-0.2,0.7-0.7,2.5-1.6,5.4H962.4z"/>
		<path class="st18" d="M971.2,198.7c-1.1,0-2-0.4-2.7-1.3c-0.6-0.9-1-2.1-1-3.6c0-1.6,0.3-2.8,1-3.7c0.7-0.9,1.6-1.3,2.7-1.3
			c1.2,0,2.1,0.5,2.8,1.4h0.1c-0.1-0.7-0.2-1.4-0.2-1.9v-3.1h2.6v13.4h-2l-0.5-1.2H974C973.4,198.2,972.5,198.7,971.2,198.7z
			 M972.2,196.6c0.7,0,1.2-0.2,1.5-0.6c0.3-0.4,0.5-1.1,0.5-2v-0.3c0-1-0.2-1.8-0.5-2.2c-0.3-0.4-0.8-0.7-1.6-0.7
			c-0.6,0-1,0.2-1.4,0.7c-0.3,0.5-0.5,1.2-0.5,2.2s0.2,1.7,0.5,2.1C971.1,196.4,971.5,196.6,972.2,196.6z"/>
		<path class="st18" d="M985.4,198.5l-0.5-1.3h-0.1c-0.4,0.6-0.9,0.9-1.4,1.2c-0.5,0.2-1.1,0.3-1.8,0.3c-0.9,0-1.6-0.3-2.2-0.8
			s-0.8-1.3-0.8-2.3c0-1,0.4-1.8,1.1-2.3s1.8-0.8,3.2-0.8l1.7-0.1v-0.4c0-1-0.5-1.5-1.5-1.5c-0.8,0-1.7,0.2-2.7,0.7l-0.9-1.8
			c1.1-0.6,2.3-0.9,3.7-0.9c1.3,0,2.3,0.3,3,0.8c0.7,0.6,1,1.4,1,2.6v6.4H985.4z M984.7,194.1l-1,0c-0.8,0-1.3,0.2-1.7,0.4
			c-0.4,0.3-0.6,0.6-0.6,1.2c0,0.7,0.4,1.1,1.3,1.1c0.6,0,1.1-0.2,1.5-0.5c0.4-0.3,0.5-0.8,0.5-1.4V194.1z"/>
		<path class="st18" d="M998.6,198.5H996v-5.6c0-0.7-0.1-1.2-0.3-1.6c-0.2-0.3-0.6-0.5-1.1-0.5c-0.7,0-1.2,0.2-1.5,0.7
			c-0.3,0.5-0.5,1.3-0.5,2.4v4.5H990v-9.6h2l0.4,1.2h0.1c0.3-0.4,0.6-0.8,1.1-1c0.5-0.2,1-0.4,1.7-0.4c1.4,0,2.4,0.5,2.9,1.4h0.2
			c0.3-0.4,0.6-0.8,1.1-1c0.5-0.2,1.1-0.4,1.7-0.4c1.1,0,1.9,0.3,2.5,0.8c0.6,0.6,0.8,1.5,0.8,2.7v6.3h-2.6v-5.6
			c0-0.7-0.1-1.2-0.3-1.6c-0.2-0.3-0.6-0.5-1.1-0.5c-0.6,0-1.1,0.2-1.4,0.7c-0.3,0.5-0.5,1.2-0.5,2.2V198.5z"/>
		<path class="st18" d="M1014,195.7c0,1-0.3,1.7-1,2.3c-0.7,0.5-1.7,0.8-3.1,0.8c-0.7,0-1.3,0-1.8-0.1c-0.5-0.1-1-0.2-1.4-0.4V196
			c0.5,0.2,1,0.4,1.6,0.6c0.6,0.2,1.1,0.2,1.6,0.2c1,0,1.4-0.3,1.4-0.8c0-0.2-0.1-0.4-0.2-0.5s-0.3-0.3-0.7-0.4
			c-0.3-0.2-0.7-0.4-1.2-0.6c-0.7-0.3-1.3-0.6-1.6-0.9c-0.3-0.3-0.6-0.6-0.8-0.9c-0.2-0.3-0.2-0.8-0.2-1.3c0-0.9,0.3-1.5,1-2
			c0.7-0.5,1.6-0.7,2.8-0.7c1.2,0,2.3,0.3,3.4,0.8l-0.8,1.9c-0.5-0.2-0.9-0.4-1.4-0.5c-0.4-0.1-0.8-0.2-1.3-0.2
			c-0.8,0-1.2,0.2-1.2,0.6c0,0.2,0.1,0.4,0.4,0.6c0.2,0.2,0.8,0.4,1.6,0.8c0.8,0.3,1.3,0.6,1.7,0.9s0.6,0.6,0.8,0.9
			C1013.9,194.8,1014,195.2,1014,195.7z"/>
		<path class="st18" d="M1017.7,196.5l0.1,0.2c-0.1,0.6-0.4,1.2-0.6,2c-0.3,0.8-0.6,1.5-0.9,2.1h-1.1c0.2-0.6,0.3-1.3,0.5-2.2
			c0.2-0.9,0.3-1.6,0.4-2.1H1017.7z"/>
		<path class="st18" d="M1030.4,198.5l-3-9.9h-0.1c0.1,2,0.2,3.3,0.2,4v5.8h-2.4V186h3.6l3,9.6h0.1l3.2-9.6h3.6v12.6h-2.5v-6
			c0-0.3,0-0.6,0-1c0-0.4,0-1.3,0.1-2.9h-0.1l-3.2,9.8H1030.4z"/>
		<path class="st18" d="M1047.6,198.5l-0.5-1.3h-0.1c-0.4,0.6-0.9,0.9-1.4,1.2c-0.5,0.2-1.1,0.3-1.8,0.3c-0.9,0-1.6-0.3-2.2-0.8
			s-0.8-1.3-0.8-2.3c0-1,0.4-1.8,1.1-2.3s1.8-0.8,3.2-0.8l1.7-0.1v-0.4c0-1-0.5-1.5-1.5-1.5c-0.8,0-1.7,0.2-2.7,0.7l-0.9-1.8
			c1.1-0.6,2.3-0.9,3.7-0.9c1.3,0,2.3,0.3,3,0.8c0.7,0.6,1,1.4,1,2.6v6.4H1047.6z M1046.9,194.1l-1,0c-0.8,0-1.3,0.2-1.7,0.4
			c-0.4,0.3-0.6,0.6-0.6,1.2c0,0.7,0.4,1.1,1.3,1.1c0.6,0,1.1-0.2,1.5-0.5c0.4-0.3,0.5-0.8,0.5-1.4V194.1z"/>
		<path class="st18" d="M1057.5,188.8c0.4,0,0.7,0,0.9,0.1l-0.2,2.5c-0.2-0.1-0.5-0.1-0.8-0.1c-0.8,0-1.5,0.2-2,0.6
			c-0.5,0.4-0.7,1-0.7,1.8v4.9h-2.6v-9.6h2l0.4,1.6h0.1c0.3-0.5,0.7-1,1.2-1.3C1056.4,188.9,1056.9,188.8,1057.5,188.8z"/>
		<path class="st18" d="M1060,186.4c0-0.9,0.5-1.3,1.4-1.3c1,0,1.4,0.4,1.4,1.3c0,0.4-0.1,0.7-0.4,1c-0.2,0.2-0.6,0.3-1.1,0.3
			C1060.5,187.7,1060,187.3,1060,186.4z M1062.8,198.5h-2.6v-9.6h2.6V198.5z"/>
		<path class="st18" d="M1069.9,198.7c-1.5,0-2.8-0.4-3.6-1.3c-0.9-0.9-1.3-2.1-1.3-3.6c0-1.6,0.4-2.9,1.2-3.7
			c0.8-0.9,1.9-1.3,3.3-1.3c1.4,0,2.4,0.4,3.2,1.2c0.8,0.8,1.1,1.8,1.1,3.2v1.3h-6.2c0,0.7,0.2,1.3,0.7,1.7c0.4,0.4,1,0.6,1.7,0.6
			c0.6,0,1.1-0.1,1.6-0.2s1.1-0.3,1.6-0.6v2c-0.5,0.2-0.9,0.4-1.5,0.5C1071.3,198.7,1070.6,198.7,1069.9,198.7z M1069.5,190.6
			c-0.6,0-1,0.2-1.3,0.5c-0.3,0.4-0.5,0.9-0.5,1.5h3.7c0-0.6-0.2-1.1-0.5-1.5C1070.5,190.8,1070.1,190.6,1069.5,190.6z"/>
		<path class="st18" d="M1075.1,194.9v-2.1h4.6v2.1H1075.1z"/>
		<path class="st18" d="M1092.2,192.1c0,2.1-0.6,3.7-1.8,4.8c-1.2,1.1-2.9,1.7-5.1,1.7h-3.6V186h3.9c2.1,0,3.6,0.5,4.8,1.6
			C1091.7,188.7,1092.2,190.2,1092.2,192.1z M1089.5,192.2c0-2.7-1.2-4.1-3.6-4.1h-1.4v8.2h1.1
			C1088.2,196.3,1089.5,195,1089.5,192.2z"/>
		<path class="st18" d="M1103.4,193.7c0,1.6-0.4,2.8-1.2,3.7s-2,1.3-3.4,1.3c-0.9,0-1.7-0.2-2.4-0.6s-1.2-1-1.6-1.7
			c-0.4-0.8-0.6-1.6-0.6-2.6c0-1.6,0.4-2.8,1.2-3.7c0.8-0.9,2-1.3,3.5-1.3c0.9,0,1.7,0.2,2.4,0.6c0.7,0.4,1.2,1,1.6,1.7
			C1103.2,191.8,1103.4,192.7,1103.4,193.7z M1096.7,193.7c0,1,0.2,1.7,0.5,2.2s0.8,0.7,1.5,0.7c0.7,0,1.2-0.2,1.5-0.7
			c0.3-0.5,0.5-1.2,0.5-2.2c0-1-0.2-1.7-0.5-2.1s-0.8-0.7-1.5-0.7c-0.7,0-1.2,0.2-1.5,0.7C1096.9,192.1,1096.7,192.8,1096.7,193.7z"
			/>
		<path class="st18" d="M1108.2,198.5h-2.6v-13.4h2.6V198.5z"/>
		<path class="st18" d="M1119.5,198.5h-2.6v-5.6c0-0.7-0.1-1.2-0.3-1.6c-0.2-0.3-0.6-0.5-1.1-0.5c-0.7,0-1.2,0.2-1.5,0.7
			c-0.3,0.5-0.5,1.3-0.5,2.4v4.5h-2.6v-9.6h2l0.4,1.2h0.1c0.3-0.4,0.6-0.8,1.1-1c0.5-0.2,1-0.4,1.7-0.4c1.4,0,2.4,0.5,2.9,1.4h0.2
			c0.3-0.4,0.6-0.8,1.1-1c0.5-0.2,1.1-0.4,1.7-0.4c1.1,0,1.9,0.3,2.5,0.8c0.6,0.6,0.8,1.5,0.8,2.7v6.3h-2.6v-5.6
			c0-0.7-0.1-1.2-0.3-1.6c-0.2-0.3-0.6-0.5-1.1-0.5c-0.6,0-1.1,0.2-1.4,0.7c-0.3,0.5-0.5,1.2-0.5,2.2V198.5z"/>
		<path class="st18" d="M1134.3,198.5l-0.5-1.3h-0.1c-0.4,0.6-0.9,0.9-1.4,1.2c-0.5,0.2-1.1,0.3-1.8,0.3c-0.9,0-1.6-0.3-2.2-0.8
			s-0.8-1.3-0.8-2.3c0-1,0.4-1.8,1.1-2.3s1.8-0.8,3.2-0.8l1.7-0.1v-0.4c0-1-0.5-1.5-1.5-1.5c-0.8,0-1.7,0.2-2.7,0.7l-0.9-1.8
			c1.1-0.6,2.3-0.9,3.7-0.9c1.3,0,2.3,0.3,3,0.8c0.7,0.6,1,1.4,1,2.6v6.4H1134.3z M1133.5,194.1l-1,0c-0.8,0-1.3,0.2-1.7,0.4
			c-0.4,0.3-0.6,0.6-0.6,1.2c0,0.7,0.4,1.1,1.3,1.1c0.6,0,1.1-0.2,1.5-0.5c0.4-0.3,0.5-0.8,0.5-1.4V194.1z"/>
		<path class="st18" d="M1149,188c-1,0-1.8,0.4-2.3,1.1c-0.5,0.8-0.8,1.8-0.8,3.2c0,2.8,1.1,4.2,3.2,4.2c0.9,0,2-0.2,3.2-0.7v2.2
			c-1,0.4-2.2,0.6-3.5,0.6c-1.8,0-3.2-0.6-4.2-1.7s-1.5-2.7-1.5-4.8c0-1.3,0.2-2.5,0.7-3.4c0.5-1,1.2-1.7,2.1-2.3s1.9-0.8,3.1-0.8
			c1.2,0,2.4,0.3,3.7,0.9l-0.9,2.2c-0.5-0.2-0.9-0.4-1.4-0.6C1149.9,188.1,1149.4,188,1149,188z"/>
		<path class="st18" d="M1163.5,198.5h-2.6v-5.6c0-1.4-0.5-2.1-1.5-2.1c-0.7,0-1.3,0.2-1.6,0.7c-0.3,0.5-0.5,1.3-0.5,2.4v4.5h-2.6
			v-13.4h2.6v2.7c0,0.2,0,0.7-0.1,1.5l-0.1,0.8h0.1c0.6-0.9,1.5-1.4,2.8-1.4c1.1,0,2,0.3,2.6,0.9c0.6,0.6,0.9,1.5,0.9,2.6V198.5z"/>
		<path class="st18" d="M1175,193.7c0,1.6-0.4,2.8-1.2,3.7s-2,1.3-3.4,1.3c-0.9,0-1.7-0.2-2.4-0.6s-1.2-1-1.6-1.7
			c-0.4-0.8-0.6-1.6-0.6-2.6c0-1.6,0.4-2.8,1.2-3.7c0.8-0.9,2-1.3,3.5-1.3c0.9,0,1.7,0.2,2.4,0.6c0.7,0.4,1.2,1,1.6,1.7
			C1174.8,191.8,1175,192.7,1175,193.7z M1168.3,193.7c0,1,0.2,1.7,0.5,2.2s0.8,0.7,1.5,0.7c0.7,0,1.2-0.2,1.5-0.7
			c0.3-0.5,0.5-1.2,0.5-2.2c0-1-0.2-1.7-0.5-2.1s-0.8-0.7-1.5-0.7c-0.7,0-1.2,0.2-1.5,0.7C1168.5,192.1,1168.3,192.8,1168.3,193.7z"
			/>
		<path class="st18" d="M1182.4,198.7c-1.1,0-2-0.4-2.7-1.2h-0.1c0.1,0.8,0.1,1.3,0.1,1.4v3.9h-2.6v-13.8h2.1l0.4,1.2h0.1
			c0.6-1,1.5-1.4,2.7-1.4c1.1,0,2,0.4,2.7,1.3c0.6,0.9,1,2.1,1,3.7c0,1-0.2,1.9-0.5,2.7c-0.3,0.8-0.7,1.3-1.3,1.7
			C1183.8,198.5,1183.2,198.7,1182.4,198.7z M1181.6,190.9c-0.6,0-1.1,0.2-1.4,0.6c-0.3,0.4-0.5,1.1-0.5,2v0.3c0,1,0.2,1.8,0.5,2.2
			s0.8,0.7,1.5,0.7c1.2,0,1.8-1,1.8-2.9c0-0.9-0.1-1.7-0.4-2.1C1182.7,191.1,1182.3,190.9,1181.6,190.9z"/>
		<path class="st18" d="M1197.1,198.5h-2.6v-5.6c0-1.4-0.5-2.1-1.5-2.1c-0.7,0-1.3,0.2-1.6,0.7c-0.3,0.5-0.5,1.3-0.5,2.4v4.5h-2.6
			v-13.4h2.6v2.7c0,0.2,0,0.7-0.1,1.5l-0.1,0.8h0.1c0.6-0.9,1.5-1.4,2.8-1.4c1.1,0,2,0.3,2.6,0.9c0.6,0.6,0.9,1.5,0.9,2.6V198.5z"/>
		<path class="st18" d="M1204.2,198.7c-1.5,0-2.8-0.4-3.6-1.3c-0.9-0.9-1.3-2.1-1.3-3.6c0-1.6,0.4-2.9,1.2-3.7
			c0.8-0.9,1.9-1.3,3.3-1.3c1.4,0,2.4,0.4,3.2,1.2c0.8,0.8,1.1,1.8,1.1,3.2v1.3h-6.2c0,0.7,0.2,1.3,0.7,1.7c0.4,0.4,1,0.6,1.7,0.6
			c0.6,0,1.1-0.1,1.6-0.2s1.1-0.3,1.6-0.6v2c-0.5,0.2-0.9,0.4-1.5,0.5C1205.6,198.7,1205,198.7,1204.2,198.7z M1203.8,190.6
			c-0.6,0-1,0.2-1.3,0.5c-0.3,0.4-0.5,0.9-0.5,1.5h3.7c0-0.6-0.2-1.1-0.5-1.5C1204.8,190.8,1204.4,190.6,1203.8,190.6z"/>
		<path class="st18" d="M1212.9,198.5h-2.6v-13.4h2.6V198.5z"/>
		<path class="st18" d="M1217.3,196.5l0.1,0.2c-0.1,0.6-0.4,1.2-0.6,2c-0.3,0.8-0.6,1.5-0.9,2.1h-1.1c0.2-0.6,0.3-1.3,0.5-2.2
			c0.2-0.9,0.3-1.6,0.4-2.1H1217.3z"/>
		<path class="st18" d="M927.4,216.2c0,1.1-0.4,2-1.2,2.7c-0.8,0.7-2,1-3.4,1c-1.3,0-2.5-0.3-3.6-0.8v-2.5c0.8,0.4,1.6,0.6,2.2,0.8
			c0.6,0.2,1.1,0.2,1.6,0.2c0.6,0,1-0.1,1.3-0.3s0.5-0.6,0.5-1c0-0.2-0.1-0.5-0.2-0.7c-0.1-0.2-0.3-0.4-0.6-0.6s-0.8-0.5-1.6-0.9
			c-0.8-0.4-1.3-0.7-1.7-1c-0.4-0.3-0.7-0.7-0.9-1.2c-0.2-0.4-0.3-1-0.3-1.5c0-1.1,0.4-2,1.1-2.6s1.8-1,3.1-1c0.7,0,1.3,0.1,1.9,0.2
			c0.6,0.2,1.2,0.4,1.9,0.7l-0.9,2.1c-0.7-0.3-1.2-0.5-1.7-0.6c-0.4-0.1-0.9-0.2-1.3-0.2c-0.5,0-0.9,0.1-1.2,0.4
			c-0.3,0.2-0.4,0.5-0.4,0.9c0,0.2,0.1,0.4,0.2,0.6c0.1,0.2,0.3,0.3,0.5,0.5c0.2,0.2,0.8,0.5,1.7,0.9c1.2,0.6,2,1.1,2.4,1.7
			S927.4,215.4,927.4,216.2z"/>
		<path class="st18" d="M938.4,219.7h-2.6v-5.6c0-1.4-0.5-2.1-1.5-2.1c-0.7,0-1.3,0.2-1.6,0.7c-0.3,0.5-0.5,1.3-0.5,2.4v4.5h-2.6
			v-13.4h2.6v2.7c0,0.2,0,0.7-0.1,1.5l-0.1,0.8h0.1c0.6-0.9,1.5-1.4,2.8-1.4c1.1,0,2,0.3,2.6,0.9c0.6,0.6,0.9,1.5,0.9,2.6V219.7z"/>
		<path class="st18" d="M945.4,219.9c-1.5,0-2.8-0.4-3.6-1.3c-0.9-0.9-1.3-2.1-1.3-3.6c0-1.6,0.4-2.9,1.2-3.7
			c0.8-0.9,1.9-1.3,3.3-1.3c1.4,0,2.4,0.4,3.2,1.2c0.8,0.8,1.1,1.8,1.1,3.2v1.3h-6.2c0,0.7,0.2,1.3,0.7,1.7c0.4,0.4,1,0.6,1.7,0.6
			c0.6,0,1.1-0.1,1.6-0.2s1.1-0.3,1.6-0.6v2c-0.5,0.2-0.9,0.4-1.5,0.5C946.8,219.8,946.2,219.9,945.4,219.9z M945.1,211.8
			c-0.6,0-1,0.2-1.3,0.5c-0.3,0.4-0.5,0.9-0.5,1.5h3.7c0-0.6-0.2-1.1-0.5-1.5C946.1,211.9,945.6,211.8,945.1,211.8z"/>
		<path class="st18" d="M956.8,219.9c-1.1,0-2-0.4-2.7-1.2H954c0.1,0.8,0.1,1.3,0.1,1.4v3.9h-2.6v-13.8h2.1l0.4,1.2h0.1
			c0.6-1,1.5-1.4,2.7-1.4c1.1,0,2,0.4,2.7,1.3c0.6,0.9,1,2.1,1,3.7c0,1-0.2,1.9-0.5,2.7c-0.3,0.8-0.7,1.3-1.3,1.7
			C958.2,219.7,957.5,219.9,956.8,219.9z M956,212c-0.6,0-1.1,0.2-1.4,0.6c-0.3,0.4-0.5,1.1-0.5,2v0.3c0,1,0.2,1.8,0.5,2.2
			s0.8,0.7,1.5,0.7c1.2,0,1.8-1,1.8-2.9c0-0.9-0.1-1.7-0.4-2.1C957.1,212.2,956.6,212,956,212z"/>
		<path class="st18" d="M968.7,219.7l-0.5-1.3h-0.1c-0.4,0.6-0.9,0.9-1.4,1.2c-0.5,0.2-1.1,0.3-1.8,0.3c-0.9,0-1.6-0.3-2.2-0.8
			s-0.8-1.3-0.8-2.3c0-1,0.4-1.8,1.1-2.3s1.8-0.8,3.2-0.8l1.7-0.1v-0.4c0-1-0.5-1.5-1.5-1.5c-0.8,0-1.7,0.2-2.7,0.7l-0.9-1.8
			c1.1-0.6,2.3-0.9,3.7-0.9c1.3,0,2.3,0.3,3,0.8c0.7,0.6,1,1.4,1,2.6v6.4H968.7z M968,215.2l-1,0c-0.8,0-1.3,0.2-1.7,0.4
			c-0.4,0.3-0.6,0.6-0.6,1.2c0,0.7,0.4,1.1,1.3,1.1c0.6,0,1.1-0.2,1.5-0.5c0.4-0.3,0.5-0.8,0.5-1.4V215.2z"/>
		<path class="st18" d="M978.6,209.9c0.4,0,0.7,0,0.9,0.1l-0.2,2.5c-0.2-0.1-0.5-0.1-0.8-0.1c-0.8,0-1.5,0.2-2,0.6
			c-0.5,0.4-0.7,1-0.7,1.8v4.9h-2.6v-9.6h2l0.4,1.6h0.1c0.3-0.5,0.7-1,1.2-1.3C977.5,210.1,978.1,209.9,978.6,209.9z"/>
		<path class="st18" d="M984.3,219.9c-1.1,0-2-0.4-2.7-1.3c-0.6-0.9-1-2.1-1-3.6c0-1.6,0.3-2.8,1-3.7c0.7-0.9,1.6-1.3,2.7-1.3
			c1.2,0,2.1,0.5,2.8,1.4h0.1c-0.1-0.7-0.2-1.4-0.2-1.9v-3.1h2.6v13.4h-2l-0.5-1.2H987C986.5,219.4,985.5,219.9,984.3,219.9z
			 M985.2,217.8c0.7,0,1.2-0.2,1.5-0.6c0.3-0.4,0.5-1.1,0.5-2v-0.3c0-1-0.2-1.8-0.5-2.2c-0.3-0.4-0.8-0.7-1.6-0.7
			c-0.6,0-1,0.2-1.4,0.7c-0.3,0.5-0.5,1.2-0.5,2.2s0.2,1.7,0.5,2.1C984.2,217.5,984.6,217.8,985.2,217.8z"/>
		<path class="st18" d="M999.8,219.7h-2.6v-12.6h7.2v2.2h-4.6v3.2h4.3v2.2h-4.3V219.7z"/>
		<path class="st18" d="M1012.8,219.7l-0.5-1.3h-0.1c-0.4,0.6-0.9,0.9-1.4,1.2c-0.5,0.2-1.1,0.3-1.8,0.3c-0.9,0-1.6-0.3-2.2-0.8
			s-0.8-1.3-0.8-2.3c0-1,0.4-1.8,1.1-2.3s1.8-0.8,3.2-0.8l1.7-0.1v-0.4c0-1-0.5-1.5-1.5-1.5c-0.8,0-1.7,0.2-2.7,0.7l-0.9-1.8
			c1.1-0.6,2.3-0.9,3.7-0.9c1.3,0,2.3,0.3,3,0.8c0.7,0.6,1,1.4,1,2.6v6.4H1012.8z M1012,215.2l-1,0c-0.8,0-1.3,0.2-1.7,0.4
			c-0.4,0.3-0.6,0.6-0.6,1.2c0,0.7,0.4,1.1,1.3,1.1c0.6,0,1.1-0.2,1.5-0.5c0.4-0.3,0.5-0.8,0.5-1.4V215.2z"/>
		<path class="st18" d="M1017.2,207.6c0-0.9,0.5-1.3,1.4-1.3c1,0,1.4,0.4,1.4,1.3c0,0.4-0.1,0.7-0.4,1c-0.2,0.2-0.6,0.3-1.1,0.3
			C1017.7,208.9,1017.2,208.4,1017.2,207.6z M1019.9,219.7h-2.6v-9.6h2.6V219.7z"/>
		<path class="st18" d="M1028,209.9c0.4,0,0.7,0,0.9,0.1l-0.2,2.5c-0.2-0.1-0.5-0.1-0.8-0.1c-0.8,0-1.5,0.2-2,0.6
			c-0.5,0.4-0.7,1-0.7,1.8v4.9h-2.6v-9.6h2l0.4,1.6h0.1c0.3-0.5,0.7-1,1.2-1.3C1026.9,210.1,1027.4,209.9,1028,209.9z"/>
		<path class="st18" d="M1035,219.9c-1.5,0-2.8-0.4-3.6-1.3c-0.9-0.9-1.3-2.1-1.3-3.6c0-1.6,0.4-2.9,1.2-3.7
			c0.8-0.9,1.9-1.3,3.3-1.3c1.4,0,2.4,0.4,3.2,1.2c0.8,0.8,1.1,1.8,1.1,3.2v1.3h-6.2c0,0.7,0.2,1.3,0.7,1.7c0.4,0.4,1,0.6,1.7,0.6
			c0.6,0,1.1-0.1,1.6-0.2s1.1-0.3,1.6-0.6v2c-0.5,0.2-0.9,0.4-1.5,0.5C1036.4,219.8,1035.8,219.9,1035,219.9z M1034.7,211.8
			c-0.6,0-1,0.2-1.3,0.5c-0.3,0.4-0.5,0.9-0.5,1.5h3.7c0-0.6-0.2-1.1-0.5-1.5C1035.7,211.9,1035.2,211.8,1034.7,211.8z"/>
		<path class="st18" d="M1039.7,210.1h2.9l1.8,5.4c0.2,0.5,0.3,1,0.3,1.7h0.1c0.1-0.6,0.2-1.1,0.4-1.7l1.8-5.4h2.8l-4.1,10.8
			c-0.4,1-0.9,1.8-1.6,2.3c-0.7,0.5-1.5,0.7-2.4,0.7c-0.5,0-0.9,0-1.3-0.1v-2.1c0.3,0.1,0.7,0.1,1,0.1c0.5,0,0.9-0.1,1.2-0.4
			c0.3-0.3,0.6-0.7,0.8-1.3l0.2-0.5L1039.7,210.1z"/>
		<path class="st18" d="M1055.3,216.4c0-0.7,0.2-1.4,0.6-2s1.1-1.2,2.1-1.7c-0.5-0.5-0.8-1-1-1.2c-0.2-0.3-0.3-0.6-0.4-0.9
			s-0.2-0.6-0.2-0.9c0-0.9,0.3-1.5,0.8-2c0.6-0.5,1.3-0.7,2.3-0.7c0.9,0,1.7,0.2,2.2,0.7s0.8,1.1,0.8,2c0,0.6-0.2,1.2-0.6,1.7
			s-1,1-1.9,1.6l3.5,3.4c0.3-0.4,0.6-0.8,0.8-1.3s0.4-1,0.5-1.6h1.4c-0.4,1.6-1,2.9-1.8,3.7l2.6,2.5h-2l-1.6-1.5
			c-0.7,0.6-1.4,1-2.1,1.3c-0.7,0.3-1.5,0.4-2.3,0.4c-1.2,0-2.2-0.3-2.9-0.9C1055.6,218.3,1055.3,217.5,1055.3,216.4z M1059.2,218.6
			c1.4,0,2.5-0.4,3.4-1.3l-3.8-3.6c-0.6,0.4-1.1,0.7-1.4,1s-0.5,0.5-0.6,0.8c-0.1,0.3-0.2,0.6-0.2,1c0,0.7,0.2,1.2,0.7,1.6
			S1058.5,218.6,1059.2,218.6z M1057.9,209.6c0,0.4,0.1,0.8,0.3,1.1c0.2,0.4,0.6,0.8,1.1,1.3c0.7-0.4,1.3-0.8,1.5-1.2
			c0.3-0.4,0.4-0.8,0.4-1.3c0-0.4-0.1-0.8-0.4-1.1c-0.3-0.3-0.7-0.4-1.2-0.4c-0.5,0-0.9,0.1-1.2,0.4
			C1058,208.8,1057.9,209.1,1057.9,209.6z"/>
		<path class="st18" d="M1082,211c0,1.4-0.4,2.4-1.3,3.1c-0.8,0.7-2,1.1-3.6,1.1h-1.1v4.5h-2.7v-12.6h4c1.5,0,2.7,0.3,3.5,1
			S1082,209.7,1082,211z M1076,213h0.9c0.8,0,1.4-0.2,1.8-0.5c0.4-0.3,0.6-0.8,0.6-1.4c0-0.6-0.2-1.1-0.5-1.4s-0.9-0.4-1.6-0.4h-1.2
			V213z"/>
		<path class="st18" d="M1089.5,209.9c0.4,0,0.7,0,0.9,0.1l-0.2,2.5c-0.2-0.1-0.5-0.1-0.8-0.1c-0.8,0-1.5,0.2-2,0.6
			c-0.5,0.4-0.7,1-0.7,1.8v4.9h-2.6v-9.6h2l0.4,1.6h0.1c0.3-0.5,0.7-1,1.2-1.3C1088.4,210.1,1088.9,209.9,1089.5,209.9z"/>
		<path class="st18" d="M1100.9,214.9c0,1.6-0.4,2.8-1.2,3.7s-2,1.3-3.4,1.3c-0.9,0-1.7-0.2-2.4-0.6s-1.2-1-1.6-1.7
			c-0.4-0.8-0.6-1.6-0.6-2.6c0-1.6,0.4-2.8,1.2-3.7c0.8-0.9,2-1.3,3.5-1.3c0.9,0,1.7,0.2,2.4,0.6c0.7,0.4,1.2,1,1.6,1.7
			C1100.7,213,1100.9,213.8,1100.9,214.9z M1094.3,214.9c0,1,0.2,1.7,0.5,2.2s0.8,0.7,1.5,0.7c0.7,0,1.2-0.2,1.5-0.7
			c0.3-0.5,0.5-1.2,0.5-2.2c0-1-0.2-1.7-0.5-2.1s-0.8-0.7-1.5-0.7c-0.7,0-1.2,0.2-1.5,0.7C1094.4,213.2,1094.3,213.9,1094.3,214.9z"
			/>
		<path class="st18" d="M1108.4,212h-2.3v7.6h-2.6V212h-1.4v-1.3l1.4-0.7v-0.7c0-1.1,0.3-1.9,0.8-2.4c0.5-0.5,1.4-0.8,2.6-0.8
			c0.9,0,1.7,0.1,2.4,0.4l-0.7,1.9c-0.5-0.2-1-0.2-1.5-0.2c-0.4,0-0.6,0.1-0.8,0.3c-0.2,0.2-0.2,0.5-0.2,0.8v0.6h2.3V212z"/>
		<path class="st18" d="M1109.5,218.5c0-0.5,0.1-0.8,0.4-1.1c0.3-0.2,0.6-0.4,1.1-0.4c0.5,0,0.8,0.1,1.1,0.4
			c0.3,0.3,0.4,0.6,0.4,1.1c0,0.5-0.1,0.8-0.4,1.1s-0.6,0.4-1.1,0.4c-0.5,0-0.9-0.1-1.1-0.4S1109.5,218.9,1109.5,218.5z"/>
		<path class="st18" d="M1122.4,214.9v4.8h-2.7v-12.6h3.7c1.7,0,3,0.3,3.8,0.9c0.8,0.6,1.2,1.6,1.2,2.8c0,0.7-0.2,1.4-0.6,2
			s-1,1-1.7,1.4c1.9,2.8,3.1,4.7,3.7,5.5h-3l-3-4.8H1122.4z M1122.4,212.7h0.9c0.8,0,1.5-0.1,1.9-0.4s0.6-0.7,0.6-1.3
			c0-0.6-0.2-1-0.6-1.3c-0.4-0.3-1-0.4-1.9-0.4h-0.8V212.7z"/>
		<path class="st18" d="M1139.8,214.9c0,1.6-0.4,2.8-1.2,3.7s-2,1.3-3.4,1.3c-0.9,0-1.7-0.2-2.4-0.6s-1.2-1-1.6-1.7
			c-0.4-0.8-0.6-1.6-0.6-2.6c0-1.6,0.4-2.8,1.2-3.7c0.8-0.9,2-1.3,3.5-1.3c0.9,0,1.7,0.2,2.4,0.6c0.7,0.4,1.2,1,1.6,1.7
			C1139.7,213,1139.8,213.8,1139.8,214.9z M1133.2,214.9c0,1,0.2,1.7,0.5,2.2s0.8,0.7,1.5,0.7c0.7,0,1.2-0.2,1.5-0.7
			c0.3-0.5,0.5-1.2,0.5-2.2c0-1-0.2-1.7-0.5-2.1s-0.8-0.7-1.5-0.7c-0.7,0-1.2,0.2-1.5,0.7C1133.4,213.2,1133.2,213.9,1133.2,214.9z"
			/>
		<path class="st18" d="M1147.4,209.9c1.1,0,2,0.4,2.7,1.3c0.6,0.9,1,2.1,1,3.6c0,1.6-0.3,2.8-1,3.7c-0.7,0.9-1.6,1.3-2.7,1.3
			c-1.1,0-2-0.4-2.7-1.2h-0.2l-0.4,1.1h-2v-13.4h2.6v3.1c0,0.4,0,1-0.1,1.9h0.1C1145.3,210.4,1146.2,209.9,1147.4,209.9z
			 M1146.5,212c-0.6,0-1.1,0.2-1.4,0.6c-0.3,0.4-0.5,1.1-0.5,2v0.3c0,1,0.2,1.8,0.5,2.2s0.8,0.7,1.5,0.7c0.5,0,1-0.2,1.3-0.7
			c0.3-0.5,0.5-1.2,0.5-2.2c0-0.9-0.2-1.7-0.5-2.1C1147.5,212.2,1147.1,212,1146.5,212z"/>
		<path class="st18" d="M1157.5,219.9c-1.5,0-2.8-0.4-3.6-1.3c-0.9-0.9-1.3-2.1-1.3-3.6c0-1.6,0.4-2.9,1.2-3.7
			c0.8-0.9,1.9-1.3,3.3-1.3c1.4,0,2.4,0.4,3.2,1.2c0.8,0.8,1.1,1.8,1.1,3.2v1.3h-6.2c0,0.7,0.2,1.3,0.7,1.7c0.4,0.4,1,0.6,1.7,0.6
			c0.6,0,1.1-0.1,1.6-0.2s1.1-0.3,1.6-0.6v2c-0.5,0.2-0.9,0.4-1.5,0.5C1158.9,219.8,1158.3,219.9,1157.5,219.9z M1157.1,211.8
			c-0.6,0-1,0.2-1.3,0.5c-0.3,0.4-0.5,0.9-0.5,1.5h3.7c0-0.6-0.2-1.1-0.5-1.5C1158.1,211.9,1157.7,211.8,1157.1,211.8z"/>
		<path class="st18" d="M1168.9,209.9c0.4,0,0.7,0,0.9,0.1l-0.2,2.5c-0.2-0.1-0.5-0.1-0.8-0.1c-0.8,0-1.5,0.2-2,0.6
			c-0.5,0.4-0.7,1-0.7,1.8v4.9h-2.6v-9.6h2l0.4,1.6h0.1c0.3-0.5,0.7-1,1.2-1.3C1167.8,210.1,1168.3,209.9,1168.9,209.9z"/>
		<path class="st18" d="M1175.6,217.8c0.5,0,1-0.1,1.7-0.3v2c-0.7,0.3-1.5,0.4-2.4,0.4c-1,0-1.8-0.3-2.3-0.8s-0.7-1.3-0.7-2.4V212
			h-1.3v-1.1l1.4-0.9l0.8-2h1.7v2h2.7v2h-2.7v4.6c0,0.4,0.1,0.6,0.3,0.8C1175,217.7,1175.3,217.8,1175.6,217.8z"/>
		<path class="st18" d="M1188.8,219.7h-2.7v-10.4h-3.4v-2.2h9.5v2.2h-3.4V219.7z"/>
		<path class="st18" d="M1202.9,219.7h-2.6v-5.6c0-1.4-0.5-2.1-1.5-2.1c-0.7,0-1.3,0.2-1.6,0.7c-0.3,0.5-0.5,1.3-0.5,2.4v4.5h-2.6
			v-13.4h2.6v2.7c0,0.2,0,0.7-0.1,1.5l-0.1,0.8h0.1c0.6-0.9,1.5-1.4,2.8-1.4c1.1,0,2,0.3,2.6,0.9c0.6,0.6,0.9,1.5,0.9,2.6V219.7z"/>
		<path class="st18" d="M1212.4,219.7l-0.4-1.2h-0.1c-0.3,0.4-0.7,0.8-1.2,1c-0.5,0.2-1.1,0.4-1.8,0.4c-1.1,0-2-0.3-2.6-0.9
			c-0.6-0.6-0.9-1.5-0.9-2.6v-6.3h2.6v5.6c0,0.7,0.1,1.2,0.4,1.6c0.2,0.3,0.6,0.5,1.2,0.5c0.7,0,1.3-0.2,1.6-0.7
			c0.3-0.5,0.5-1.3,0.5-2.4v-4.5h2.6v9.6H1212.4z"/>
		<path class="st18" d="M1222.5,209.9c0.4,0,0.7,0,0.9,0.1l-0.2,2.5c-0.2-0.1-0.5-0.1-0.8-0.1c-0.8,0-1.5,0.2-2,0.6
			c-0.5,0.4-0.7,1-0.7,1.8v4.9h-2.6v-9.6h2l0.4,1.6h0.1c0.3-0.5,0.7-1,1.2-1.3C1221.4,210.1,1221.9,209.9,1222.5,209.9z"/>
		<path class="st18" d="M1233.7,219.7h-2.6v-5.6c0-0.7-0.1-1.2-0.3-1.6c-0.2-0.3-0.6-0.5-1.1-0.5c-0.7,0-1.2,0.2-1.5,0.7
			c-0.3,0.5-0.5,1.3-0.5,2.4v4.5h-2.6v-9.6h2l0.4,1.2h0.1c0.3-0.4,0.6-0.8,1.1-1c0.5-0.2,1-0.4,1.7-0.4c1.4,0,2.4,0.5,2.9,1.4h0.2
			c0.3-0.4,0.6-0.8,1.1-1c0.5-0.2,1.1-0.4,1.7-0.4c1.1,0,1.9,0.3,2.5,0.8c0.6,0.6,0.8,1.5,0.8,2.7v6.3h-2.6v-5.6
			c0-0.7-0.1-1.2-0.3-1.6c-0.2-0.3-0.6-0.5-1.1-0.5c-0.6,0-1.1,0.2-1.4,0.7c-0.3,0.5-0.5,1.2-0.5,2.2V219.7z"/>
		<path class="st18" d="M1248.5,219.7l-0.5-1.3h-0.1c-0.4,0.6-0.9,0.9-1.4,1.2c-0.5,0.2-1.1,0.3-1.8,0.3c-0.9,0-1.6-0.3-2.2-0.8
			s-0.8-1.3-0.8-2.3c0-1,0.4-1.8,1.1-2.3s1.8-0.8,3.2-0.8l1.7-0.1v-0.4c0-1-0.5-1.5-1.5-1.5c-0.8,0-1.7,0.2-2.7,0.7l-0.9-1.8
			c1.1-0.6,2.3-0.9,3.7-0.9c1.3,0,2.3,0.3,3,0.8c0.7,0.6,1,1.4,1,2.6v6.4H1248.5z M1247.8,215.2l-1,0c-0.8,0-1.3,0.2-1.7,0.4
			c-0.4,0.3-0.6,0.6-0.6,1.2c0,0.7,0.4,1.1,1.3,1.1c0.6,0,1.1-0.2,1.5-0.5c0.4-0.3,0.5-0.8,0.5-1.4V215.2z"/>
		<path class="st18" d="M1261.9,219.7h-2.6v-5.6c0-0.7-0.1-1.2-0.4-1.6c-0.2-0.3-0.6-0.5-1.2-0.5c-0.7,0-1.3,0.2-1.6,0.7
			c-0.3,0.5-0.5,1.3-0.5,2.4v4.5h-2.6v-9.6h2l0.4,1.2h0.1c0.3-0.5,0.7-0.8,1.2-1.1c0.5-0.2,1.1-0.4,1.8-0.4c1.1,0,2,0.3,2.5,0.9
			c0.6,0.6,0.9,1.5,0.9,2.6V219.7z"/>
		<path class="st18" d="M1264.3,218.5c0-0.5,0.1-0.8,0.4-1.1c0.3-0.2,0.6-0.4,1.1-0.4c0.5,0,0.8,0.1,1.1,0.4
			c0.3,0.3,0.4,0.6,0.4,1.1c0,0.5-0.1,0.8-0.4,1.1s-0.6,0.4-1.1,0.4c-0.5,0-0.9-0.1-1.1-0.4S1264.3,218.9,1264.3,218.5z"/>
		<path class="st19" d="M928.1,278.1h-6.8v-25.7h15.2v5.6h-8.3v4.9h7.7v5.6h-7.7V278.1z"/>
		<path class="st19" d="M947.6,268.8v9.3h-6.9v-25.7h8.4c7,0,10.5,2.5,10.5,7.6c0,3-1.5,5.3-4.4,6.9l7.5,11.2h-7.9l-5.4-9.3H947.6z
			 M947.6,263.6h1.3c2.4,0,3.6-1.1,3.6-3.2c0-1.8-1.2-2.7-3.6-2.7h-1.4V263.6z"/>
		<path class="st19" d="M965,278.1v-25.7h7v25.7H965z"/>
		<path class="st19" d="M983.5,272.9l0.2,0.4c-1.1,4.5-2.2,7.8-3.1,9.9h-4.9c0.3-1.6,0.7-3.4,1-5.4s0.6-3.6,0.7-4.8H983.5z"/>
		<path class="st19" d="M1022.4,278.1h-9.1L1004,260h-0.2c0.2,2.8,0.3,5,0.3,6.5v11.6H998v-25.7h9.1l9.3,17.9h0.1
			c-0.2-2.6-0.2-4.7-0.2-6.2v-11.6h6.2V278.1z"/>
		<path class="st19" d="M1052,265.3c0,4.3-1.1,7.6-3.2,9.9c-2.1,2.2-5.2,3.4-9.3,3.4c-4,0-7.1-1.1-9.3-3.4c-2.2-2.3-3.2-5.6-3.2-9.9
			c0-4.3,1.1-7.5,3.2-9.8c2.1-2.3,5.2-3.4,9.3-3.4c4.1,0,7.2,1.1,9.3,3.4C1051,257.6,1052,260.9,1052,265.3z M1034.4,265.3
			c0,5,1.7,7.5,5.2,7.5c1.8,0,3.1-0.6,3.9-1.8s1.3-3.1,1.3-5.6c0-2.6-0.4-4.5-1.3-5.7c-0.9-1.2-2.1-1.8-3.9-1.8
			C1036.1,257.7,1034.4,260.2,1034.4,265.3z"/>
		<path class="st19" d="M1071.1,252.4h7.8l-8.4,25.7h-8.2l-8.4-25.7h7.8l3.5,13c0.7,2.9,1.1,4.9,1.2,6c0.1-0.8,0.2-1.8,0.5-3.1
			c0.2-1.2,0.5-2.2,0.7-2.9L1071.1,252.4z"/>
		<path class="st19" d="M1096.9,278.1h-15.3v-25.7h15.3v5.6h-8.3v4h7.7v5.6h-7.7v4.9h8.3V278.1z"/>
		<path class="st19" d="M1112.6,278.1l-5.3-18.5h-0.2c0.2,3.2,0.4,5.6,0.4,7.3v11.2h-6.2v-25.7h9.2l5.4,18.2h0.1l5.3-18.2h9.3v25.7
			h-6.4v-11.3c0-0.6,0-1.2,0-2c0-0.7,0.1-2.5,0.2-5.3h-0.2l-5.2,18.5H1112.6z"/>
		<path class="st19" d="M1136.2,252.4h9c3.5,0,6.1,0.5,7.8,1.6c1.7,1,2.5,2.7,2.5,4.8c0,1.4-0.4,2.7-1.1,3.7s-1.7,1.7-2.9,2v0.2
			c1.6,0.4,2.7,1.1,3.5,2.1s1.1,2.3,1.1,3.8c0,2.3-0.9,4.2-2.6,5.5c-1.8,1.3-4.1,2-7.2,2h-10V252.4z M1143.1,262.3h2.1
			c1,0,1.8-0.2,2.3-0.6c0.5-0.4,0.8-1,0.8-1.8c0-1.4-1.1-2.2-3.3-2.2h-2V262.3z M1143.1,267.4v5.4h2.4c2.2,0,3.3-0.9,3.3-2.7
			c0-0.9-0.3-1.5-0.9-2s-1.4-0.7-2.5-0.7H1143.1z"/>
		<path class="st19" d="M1175.7,278.1h-15.3v-25.7h15.3v5.6h-8.3v4h7.7v5.6h-7.7v4.9h8.3V278.1z"/>
		<path class="st19" d="M1187.1,268.8v9.3h-6.9v-25.7h8.4c7,0,10.5,2.5,10.5,7.6c0,3-1.5,5.3-4.4,6.9l7.5,11.2h-7.9l-5.4-9.3H1187.1
			z M1187.1,263.6h1.3c2.4,0,3.6-1.1,3.6-3.2c0-1.8-1.2-2.7-3.6-2.7h-1.4V263.6z"/>
		<path class="st19" d="M1227.7,278.1h-7v-13.6c0-1.7,0-3.2,0.1-4.5c-0.4,0.5-1,1.1-1.6,1.7l-2.9,2.4l-3.6-4.4l8.8-7.2h6.3V278.1z"
			/>
		<path class="st19" d="M1243.9,261.3c1.5,0,2.8,0.3,4,1c1.2,0.7,2.1,1.7,2.8,2.9c0.7,1.3,1,2.7,1,4.3c0,2.9-0.9,5.1-2.6,6.6
			c-1.7,1.5-4.3,2.3-7.8,2.3c-3,0-5.4-0.5-7.3-1.4v-5.7c1,0.5,2.2,0.9,3.5,1.2c1.3,0.3,2.4,0.5,3.3,0.5c1.3,0,2.3-0.3,3-0.8
			c0.7-0.5,1-1.4,1-2.4c0-1-0.4-1.8-1.1-2.3s-1.8-0.8-3.2-0.8c-1.1,0-2.3,0.2-3.5,0.6l-2.5-1.3l1-13.6h14.7v5.8h-8.8l-0.3,3.4
			c0.9-0.2,1.6-0.3,2-0.3S1243.6,261.3,1243.9,261.3z"/>
		<path class="st19" d="M919.7,306.3c0-3.6,0.5-6.5,1.5-8.7c1-2.2,2.5-3.9,4.5-4.9c2-1.1,4.5-1.6,7.4-1.6c1,0,2.3,0.1,3.7,0.3v5.4
			c-1.2-0.2-2.4-0.3-3.8-0.3c-2.3,0-4,0.5-5.2,1.5c-1.1,1-1.8,2.7-1.9,5h0.2c1.1-2,2.7-3,5.1-3c2.3,0,4.1,0.7,5.3,2.2
			c1.3,1.5,1.9,3.5,1.9,6.1c0,2.8-0.8,5.1-2.4,6.7c-1.6,1.6-3.8,2.5-6.7,2.5c-3,0-5.4-1-7.1-3C920.5,312.6,919.7,309.9,919.7,306.3z
			 M929.2,312.1c0.7,0,1.3-0.3,1.8-0.8s0.7-1.4,0.7-2.7c0-2.1-0.8-3.1-2.4-3.1c-0.8,0-1.4,0.3-1.9,0.8c-0.5,0.5-0.7,1.2-0.7,2
			c0,1.1,0.2,2,0.7,2.8C927.8,311.7,928.4,312.1,929.2,312.1z"/>
		<path class="st19" d="M961,299.7c0,2.9-0.8,5.1-2.5,6.7c-1.7,1.6-4.1,2.3-7.2,2.3h-2v8.5h-6.9v-25.7h8.9c3.2,0,5.7,0.7,7.3,2.1
			C960.1,295.1,961,297.1,961,299.7z M949.2,303h1.3c1,0,1.9-0.3,2.5-0.9s0.9-1.4,0.9-2.4c0-1.7-1-2.6-2.9-2.6h-1.8V303z"/>
		<path class="st19" d="M976.2,317.2l-5.3-18.5h-0.2c0.2,3.2,0.4,5.6,0.4,7.3v11.2H965v-25.7h9.2l5.4,18.2h0.1l5.3-18.2h9.3v25.7
			h-6.4v-11.3c0-0.6,0-1.2,0-2c0-0.7,0.1-2.5,0.2-5.3H988l-5.2,18.5H976.2z"/>
		<path class="st19" d="M1007.7,309.9v-4.9h15.4v4.9H1007.7z"/>
		<path class="st19" d="M1053.7,303.3c0,5-1.1,8.7-3.3,10.9c-2.2,2.2-5.6,3.4-10.4,3.4c-1.6,0-2.8-0.1-3.6-0.2v-5.5
			c1,0.2,2,0.3,3,0.3c2.5,0,4.4-0.5,5.7-1.5c1.3-1,2.1-2.6,2.2-4.9h-0.2c-0.5,0.8-0.9,1.5-1.4,1.8c-0.4,0.4-1,0.7-1.6,0.9
			c-0.6,0.2-1.4,0.3-2.4,0.3c-2.2,0-4-0.7-5.2-2.2s-1.9-3.5-1.9-6.2c0-2.8,0.8-5.1,2.4-6.7c1.6-1.6,3.8-2.4,6.7-2.4
			c3.1,0,5.6,1,7.3,3.1C1052.8,296.5,1053.7,299.4,1053.7,303.3z M1044,296.8c-0.8,0-1.4,0.3-1.9,0.8c-0.5,0.6-0.7,1.4-0.7,2.7
			c0,1,0.2,1.7,0.6,2.3c0.4,0.6,1,0.9,1.9,0.9c0.8,0,1.4-0.3,2-0.8c0.6-0.6,0.8-1.2,0.8-2c0-1-0.3-1.9-0.8-2.7
			C1045.4,297.2,1044.8,296.8,1044,296.8z"/>
		<path class="st19" d="M1076.3,299.7c0,2.9-0.8,5.1-2.5,6.7c-1.7,1.6-4.1,2.3-7.2,2.3h-2v8.5h-6.9v-25.7h8.9c3.2,0,5.7,0.7,7.3,2.1
			C1075.5,295.1,1076.3,297.1,1076.3,299.7z M1064.6,303h1.3c1,0,1.9-0.3,2.5-0.9s0.9-1.4,0.9-2.4c0-1.7-1-2.6-2.9-2.6h-1.8V303z"/>
		<path class="st19" d="M1091.6,317.2l-5.3-18.5h-0.2c0.2,3.2,0.4,5.6,0.4,7.3v11.2h-6.2v-25.7h9.2l5.4,18.2h0.1l5.3-18.2h9.3v25.7
			h-6.4v-11.3c0-0.6,0-1.2,0-2c0-0.7,0.1-2.5,0.2-5.3h-0.2l-5.2,18.5H1091.6z"/>
		<path class="st19" d="M945.7,356.3h-9.1l-9.4-18.1H927c0.2,2.8,0.3,5,0.3,6.5v11.6h-6.2v-25.7h9.1l9.3,17.9h0.1
			c-0.2-2.6-0.2-4.7-0.2-6.2v-11.6h6.2V356.3z"/>
		<path class="st19" d="M966.5,356.3h-15.3v-25.7h15.3v5.6h-8.3v4h7.7v5.6h-7.7v4.9h8.3V356.3z"/>
		<path class="st19" d="M998.7,356.3h-8.2l-2.5-11.2c-0.1-0.5-0.3-1.4-0.6-2.8c-0.3-1.4-0.4-2.6-0.6-3.5c-0.1,0.8-0.2,1.7-0.5,2.8
			s-0.4,2.2-0.6,3.1s-1.1,4.8-2.6,11.5h-8.2l-6.4-25.7h6.7l2.8,12.9c0.6,2.8,1.1,5.1,1.3,6.8c0.2-1.2,0.4-2.8,0.8-4.9
			c0.4-2,0.8-3.7,1.1-5.1l2.3-9.7h6.4l2.2,9.7c0.4,1.6,0.8,3.4,1.1,5.4c0.4,2,0.6,3.6,0.8,4.6c0.2-1.3,0.6-3.6,1.2-6.8l2.8-12.9h6.7
			L998.7,356.3z"/>
		<path class="st19" d="M1026.9,340.1l4.4-9.5h7.5l-8.5,15.7v10h-7v-9.8l-8.5-15.9h7.6L1026.9,340.1z"/>
		<path class="st19" d="M1065.7,343.4c0,4.3-1.1,7.6-3.2,9.9c-2.1,2.2-5.2,3.4-9.3,3.4c-4,0-7.1-1.1-9.3-3.4
			c-2.2-2.3-3.2-5.6-3.2-9.9c0-4.3,1.1-7.5,3.2-9.8c2.1-2.3,5.2-3.4,9.3-3.4c4.1,0,7.2,1.1,9.3,3.4
			C1064.6,335.8,1065.7,339.1,1065.7,343.4z M1048,343.4c0,5,1.7,7.5,5.2,7.5c1.8,0,3.1-0.6,3.9-1.8s1.3-3.1,1.3-5.6
			c0-2.6-0.4-4.5-1.3-5.7c-0.9-1.2-2.1-1.8-3.9-1.8C1049.7,335.9,1048,338.4,1048,343.4z"/>
		<path class="st19" d="M1077.3,346.9v9.3h-6.9v-25.7h8.4c7,0,10.5,2.5,10.5,7.6c0,3-1.5,5.3-4.4,6.9l7.5,11.2h-7.9l-5.4-9.3H1077.3
			z M1077.3,341.7h1.3c2.4,0,3.6-1.1,3.6-3.2c0-1.8-1.2-2.7-3.6-2.7h-1.4V341.7z"/>
		<path class="st19" d="M1116.6,356.3h-7.8l-5.1-9.8l-2.1,1.2v8.6h-7v-25.7h7v11.2c0.4-0.7,1.1-1.8,2.1-3.3l5.4-7.9h7.6l-8.1,11.5
			L1116.6,356.3z"/>
		<path class="st19" d="M1140.2,335.9c-1.7,0-2.9,0.7-3.9,2s-1.4,3.2-1.4,5.6c0,4.9,1.9,7.4,5.6,7.4c1.1,0,2.2-0.2,3.3-0.5
			c1.1-0.3,2.1-0.7,3.2-1.1v5.9c-2.1,0.9-4.6,1.4-7.3,1.4c-3.9,0-6.9-1.1-8.9-3.4c-2.1-2.2-3.1-5.5-3.1-9.8c0-2.7,0.5-5,1.5-7
			c1-2,2.4-3.6,4.3-4.6c1.9-1.1,4.1-1.6,6.6-1.6c2.8,0,5.4,0.6,8,1.8l-2.1,5.5c-0.9-0.4-1.9-0.8-2.8-1.1
			C1142.3,336.1,1141.3,335.9,1140.2,335.9z"/>
		<path class="st19" d="M1152.1,356.3v-25.7h7v25.7H1152.1z"/>
		<path class="st19" d="M1176,356.3h-6.9v-20h-6.3v-5.7h19.5v5.7h-6.3V356.3z"/>
		<path class="st19" d="M1195.1,340.1l4.4-9.5h7.5l-8.5,15.7v10h-7v-9.8l-8.5-15.9h7.6L1195.1,340.1z"/>
		<path class="st19" d="M924.9,378.8h-2.7v-10.5h-3.4v-2.2h9.6v2.2h-3.4V378.8z"/>
		<path class="st19" d="M930.3,378.8v-12.7h2.7v12.7H930.3z"/>
		<path class="st19" d="M936.2,366.1h4c1.8,0,3.1,0.3,3.9,0.8c0.8,0.5,1.2,1.3,1.2,2.4c0,0.8-0.2,1.4-0.5,1.9
			c-0.4,0.5-0.8,0.8-1.4,0.9v0.1c0.8,0.2,1.4,0.5,1.7,1c0.4,0.5,0.5,1.1,0.5,2c0,1.2-0.4,2.1-1.3,2.7s-2,1-3.4,1h-4.8V366.1z
			 M938.9,371.1h1.6c0.7,0,1.3-0.1,1.6-0.3s0.5-0.6,0.5-1.1c0-0.5-0.2-0.8-0.5-1c-0.4-0.2-0.9-0.3-1.7-0.3h-1.4V371.1z M938.9,373.2
			v3.3h1.8c0.7,0,1.3-0.1,1.6-0.4c0.4-0.3,0.5-0.7,0.5-1.3c0-1.1-0.8-1.6-2.3-1.6H938.9z"/>
		<path class="st19" d="M955.5,378.8h-7.3v-12.7h7.3v2.2h-4.6v2.8h4.3v2.2h-4.3v3.3h4.6V378.8z"/>
		<path class="st19" d="M963,378.8h-2.7v-10.5h-3.4v-2.2h9.6v2.2H963V378.8z"/>
		<path class="st19" d="M983.5,378.8h-2.7v-5.5h-5v5.5h-2.7v-12.7h2.7v5h5v-5h2.7V378.8z"/>
		<path class="st19" d="M998.2,372.4c0,2.1-0.5,3.7-1.6,4.8c-1,1.1-2.5,1.7-4.5,1.7c-1.9,0-3.4-0.6-4.5-1.7c-1-1.1-1.6-2.8-1.6-4.9
			c0-2.1,0.5-3.7,1.6-4.8c1-1.1,2.5-1.7,4.5-1.7s3.4,0.6,4.5,1.7C997.7,368.7,998.2,370.3,998.2,372.4z M988.9,372.4
			c0,1.4,0.3,2.5,0.8,3.2c0.5,0.7,1.3,1.1,2.4,1.1c2.1,0,3.2-1.4,3.2-4.3c0-2.9-1.1-4.3-3.2-4.3c-1.1,0-1.9,0.4-2.4,1.1
			C989.2,369.9,988.9,371,988.9,372.4z"/>
		<path class="st19" d="M1011.2,366.1v8.2c0,0.9-0.2,1.8-0.6,2.5c-0.4,0.7-1,1.2-1.8,1.6c-0.8,0.4-1.7,0.6-2.8,0.6
			c-1.6,0-2.9-0.4-3.8-1.3s-1.4-2-1.4-3.4v-8.2h2.7v7.8c0,1,0.2,1.7,0.6,2.2c0.4,0.5,1,0.7,2,0.7c0.9,0,1.5-0.2,1.9-0.7
			c0.4-0.5,0.6-1.2,0.6-2.2v-7.8H1011.2z"/>
		<path class="st19" d="M1021.8,375.2c0,1.1-0.4,2-1.2,2.7s-2,1-3.4,1c-1.4,0-2.6-0.3-3.6-0.8v-2.5c0.9,0.4,1.6,0.7,2.2,0.8
			s1.1,0.2,1.6,0.2c0.6,0,1-0.1,1.4-0.3s0.5-0.6,0.5-1c0-0.2-0.1-0.5-0.2-0.7c-0.1-0.2-0.3-0.4-0.6-0.6s-0.8-0.5-1.6-0.9
			c-0.8-0.4-1.4-0.7-1.7-1.1c-0.4-0.3-0.7-0.7-0.9-1.2c-0.2-0.4-0.3-1-0.3-1.6c0-1.1,0.4-2,1.1-2.6c0.8-0.6,1.8-1,3.2-1
			c0.7,0,1.3,0.1,1.9,0.2s1.2,0.4,1.9,0.7l-0.9,2.1c-0.7-0.3-1.2-0.5-1.7-0.6s-0.9-0.2-1.3-0.2c-0.5,0-0.9,0.1-1.2,0.4
			c-0.3,0.2-0.4,0.5-0.4,0.9c0,0.2,0.1,0.4,0.2,0.6c0.1,0.2,0.3,0.3,0.5,0.5c0.2,0.2,0.8,0.5,1.7,0.9c1.2,0.6,2,1.1,2.4,1.7
			C1021.6,373.7,1021.8,374.4,1021.8,375.2z"/>
		<path class="st19" d="M1031.4,378.8h-7.3v-12.7h7.3v2.2h-4.6v2.8h4.3v2.2h-4.3v3.3h4.6V378.8z"/>
		<path class="st19" d="M1036.4,376.9c-0.3,1.2-0.8,2.6-1.5,4.2h-1.9c0.4-1.5,0.7-3,0.9-4.4h2.4L1036.4,376.9z"/>
		<path class="st19" d="M1051.8,378.8h-8.9v-1.9l3.2-3.2c0.9-1,1.6-1.6,1.8-2c0.3-0.4,0.5-0.7,0.6-1c0.1-0.3,0.2-0.6,0.2-1
			c0-0.5-0.1-0.9-0.4-1.1s-0.7-0.4-1.1-0.4c-0.5,0-1,0.1-1.4,0.3c-0.5,0.2-0.9,0.5-1.5,1l-1.5-1.7c0.6-0.5,1.1-0.9,1.6-1.1
			c0.4-0.2,0.9-0.4,1.3-0.5c0.5-0.1,1-0.2,1.6-0.2c0.8,0,1.5,0.1,2.1,0.4c0.6,0.3,1.1,0.7,1.4,1.2s0.5,1.1,0.5,1.8
			c0,0.6-0.1,1.1-0.3,1.6c-0.2,0.5-0.5,1-1,1.6c-0.4,0.5-1.2,1.3-2.3,2.3l-1.6,1.5v0.1h5.5V378.8z"/>
		<path class="st19" d="M1062,378.8h-8.9v-1.9l3.2-3.2c0.9-1,1.6-1.6,1.8-2c0.3-0.4,0.5-0.7,0.6-1c0.1-0.3,0.2-0.6,0.2-1
			c0-0.5-0.1-0.9-0.4-1.1s-0.7-0.4-1.1-0.4c-0.5,0-1,0.1-1.4,0.3c-0.5,0.2-0.9,0.5-1.5,1l-1.5-1.7c0.6-0.5,1.1-0.9,1.6-1.1
			c0.4-0.2,0.9-0.4,1.3-0.5c0.5-0.1,1-0.2,1.6-0.2c0.8,0,1.5,0.1,2.1,0.4c0.6,0.3,1.1,0.7,1.4,1.2s0.5,1.1,0.5,1.8
			c0,0.6-0.1,1.1-0.3,1.6c-0.2,0.5-0.5,1-1,1.6c-0.4,0.5-1.2,1.3-2.3,2.3l-1.6,1.5v0.1h5.5V378.8z"/>
		<path class="st19" d="M1076.5,378.8h-3.1l-1.7-6.7c-0.1-0.2-0.2-0.7-0.3-1.5s-0.2-1.2-0.3-1.5c0,0.3-0.1,0.8-0.3,1.5
			c-0.1,0.7-0.2,1.2-0.3,1.5l-1.7,6.7h-3.1l-3.2-12.7h2.6l1.6,6.9c0.3,1.3,0.5,2.4,0.6,3.3c0-0.3,0.1-0.8,0.2-1.5
			c0.1-0.7,0.2-1.2,0.4-1.6l1.8-7.1h2.5l1.9,7.1c0.1,0.3,0.2,0.8,0.3,1.5c0.1,0.7,0.2,1.2,0.3,1.7c0.1-0.5,0.2-1,0.3-1.7
			c0.1-0.7,0.2-1.2,0.3-1.6l1.6-6.9h2.6L1076.5,378.8z"/>
		<path class="st19" d="M1091.7,378.8h-2.7v-7.3l0-1.2l0-1.3c-0.4,0.4-0.8,0.7-0.9,0.9l-1.5,1.2l-1.3-1.6l4.1-3.3h2.2V378.8z"/>
		<path class="st19" d="M1099.8,370.7c1.2,0,2.2,0.3,2.9,1s1.1,1.6,1.1,2.8c0,1.4-0.4,2.5-1.3,3.3c-0.9,0.8-2.1,1.1-3.8,1.1
			c-1.4,0-2.6-0.2-3.4-0.7v-2.3c0.5,0.2,1,0.4,1.6,0.6s1.2,0.2,1.7,0.2c1.6,0,2.5-0.7,2.5-2c0-1.3-0.8-1.9-2.5-1.9
			c-0.3,0-0.6,0-1,0.1c-0.4,0.1-0.7,0.1-0.9,0.2l-1.1-0.6l0.5-6.5h6.9v2.3h-4.5l-0.2,2.5l0.3-0.1
			C1098.9,370.7,1099.3,370.7,1099.8,370.7z"/>
		<path class="st19" d="M1108.5,372.8h-1.6v-6.1h-2v-1.3h5.6v1.3h-2V372.8z"/>
		<path class="st19" d="M1117.7,372.8h-1.6v-3.2h-2.9v3.2h-1.6v-7.4h1.6v2.9h2.9v-2.9h1.6V372.8z"/>
		<path class="st19" d="M1132.3,375.2c0,1.1-0.4,2-1.2,2.7s-2,1-3.4,1c-1.4,0-2.6-0.3-3.6-0.8v-2.5c0.9,0.4,1.6,0.7,2.2,0.8
			s1.1,0.2,1.6,0.2c0.6,0,1-0.1,1.4-0.3s0.5-0.6,0.5-1c0-0.2-0.1-0.5-0.2-0.7c-0.1-0.2-0.3-0.4-0.6-0.6s-0.8-0.5-1.6-0.9
			c-0.8-0.4-1.4-0.7-1.7-1.1c-0.4-0.3-0.7-0.7-0.9-1.2c-0.2-0.4-0.3-1-0.3-1.6c0-1.1,0.4-2,1.1-2.6c0.8-0.6,1.8-1,3.2-1
			c0.7,0,1.3,0.1,1.9,0.2s1.2,0.4,1.9,0.7l-0.9,2.1c-0.7-0.3-1.2-0.5-1.7-0.6s-0.9-0.2-1.3-0.2c-0.5,0-0.9,0.1-1.2,0.4
			c-0.3,0.2-0.4,0.5-0.4,0.9c0,0.2,0.1,0.4,0.2,0.6c0.1,0.2,0.3,0.3,0.5,0.5c0.2,0.2,0.8,0.5,1.7,0.9c1.2,0.6,2,1.1,2.4,1.7
			C1132.1,373.7,1132.3,374.4,1132.3,375.2z"/>
		<path class="st19" d="M1139.5,378.8h-2.7v-10.5h-3.4v-2.2h9.6v2.2h-3.4V378.8z"/>
		<path class="st19" d="M1144.3,377.5c0-0.5,0.1-0.9,0.4-1.1c0.3-0.2,0.6-0.4,1.1-0.4c0.5,0,0.9,0.1,1.1,0.4s0.4,0.6,0.4,1.1
			c0,0.5-0.1,0.8-0.4,1.1c-0.3,0.3-0.6,0.4-1.1,0.4c-0.5,0-0.9-0.1-1.1-0.4C1144.5,378.4,1144.3,378,1144.3,377.5z"/>
		<path class="st19" d="M1165.9,378.8h-3.4l-5.5-9.6h-0.1c0.1,1.7,0.2,2.9,0.2,3.6v6h-2.4v-12.7h3.4l5.5,9.5h0.1
			c-0.1-1.7-0.1-2.8-0.1-3.5v-6h2.4V378.8z"/>
		<path class="st19" d="M1173,371.3l2.6-5.2h2.9l-4.2,7.8v4.9h-2.7v-4.9l-4.2-7.8h2.9L1173,371.3z"/>
		<path class="st20" d="M934,407.3c0,2.5-0.6,4.4-1.8,5.7c-1.2,1.3-3,2-5.3,2c-2.3,0-4.1-0.7-5.3-2c-1.2-1.3-1.8-3.3-1.8-5.7
			c0-2.5,0.6-4.4,1.9-5.7s3-2,5.3-2c2.3,0,4.1,0.7,5.3,2C933.3,402.9,934,404.9,934,407.3z M923,407.3c0,1.7,0.3,2.9,1,3.8
			c0.6,0.8,1.6,1.3,2.9,1.3c2.5,0,3.8-1.7,3.8-5.1c0-3.4-1.3-5.1-3.8-5.1c-1.3,0-2.2,0.4-2.9,1.3C923.3,404.4,923,405.7,923,407.3z"
			/>
		<path class="st20" d="M950.4,414.9h-4l-6.5-11.4h-0.1c0.1,2,0.2,3.4,0.2,4.3v7.1h-2.8v-15h4l6.5,11.2h0.1c-0.1-2-0.2-3.3-0.2-4.1
			v-7.1h2.9V414.9z"/>
		<path class="st20" d="M954.2,414.9v-15h3.2v12.4h6.1v2.6H954.2z"/>
		<path class="st20" d="M966,414.9v-15h3.2v15H966z"/>
		<path class="st20" d="M986.3,414.9h-4l-6.5-11.4h-0.1c0.1,2,0.2,3.4,0.2,4.3v7.1H973v-15h4l6.5,11.2h0.1c-0.1-2-0.2-3.3-0.2-4.1
			v-7.1h2.9V414.9z"/>
		<path class="st20" d="M998.7,414.9h-8.6v-15h8.6v2.6h-5.5v3.3h5.1v2.6h-5.1v3.9h5.5V414.9z"/>
		<path class="st20" d="M1007.3,399.9h4.7c2.1,0,3.7,0.3,4.6,0.9c1,0.6,1.4,1.6,1.4,2.9c0,0.9-0.2,1.6-0.6,2.2c-0.4,0.6-1,0.9-1.7,1
			v0.1c1,0.2,1.6,0.6,2.1,1.2c0.4,0.6,0.6,1.4,0.6,2.3c0,1.4-0.5,2.4-1.5,3.2c-1,0.8-2.3,1.1-4,1.1h-5.6V399.9z M1010.5,405.8h1.8
			c0.9,0,1.5-0.1,1.9-0.4c0.4-0.3,0.6-0.7,0.6-1.3c0-0.6-0.2-1-0.6-1.2s-1.1-0.4-2-0.4h-1.7V405.8z M1010.5,408.3v3.9h2.1
			c0.9,0,1.5-0.2,1.9-0.5c0.4-0.3,0.6-0.8,0.6-1.5c0-1.2-0.9-1.9-2.7-1.9H1010.5z"/>
		<path class="st20" d="M1021.4,414.9v-15h3.2v15H1021.4z"/>
		<path class="st20" d="M1040.8,407.2c0,2.5-0.7,4.4-2.1,5.7c-1.4,1.3-3.4,2-6.1,2h-4.2v-15h4.7c2.4,0,4.4,0.6,5.7,1.9
			C1040.2,403.1,1040.8,404.9,1040.8,407.2z M1037.5,407.3c0-3.2-1.4-4.8-4.3-4.8h-1.7v9.8h1.4
			C1036,412.2,1037.5,410.6,1037.5,407.3z"/>
		<path class="st20" d="M1056.4,407.2c0,2.5-0.7,4.4-2.1,5.7c-1.4,1.3-3.4,2-6.1,2h-4.2v-15h4.7c2.4,0,4.4,0.6,5.7,1.9
			C1055.7,403.1,1056.4,404.9,1056.4,407.2z M1053.1,407.3c0-3.2-1.4-4.8-4.3-4.8h-1.7v9.8h1.4
			C1051.6,412.2,1053.1,410.6,1053.1,407.3z"/>
		<path class="st20" d="M1059.5,414.9v-15h3.2v15H1059.5z"/>
		<path class="st20" d="M1079.8,414.9h-4l-6.5-11.4h-0.1c0.1,2,0.2,3.4,0.2,4.3v7.1h-2.8v-15h4l6.5,11.2h0.1c-0.1-2-0.2-3.3-0.2-4.1
			v-7.1h2.9V414.9z"/>
		<path class="st20" d="M1089.3,406.4h6v7.8c-1,0.3-1.9,0.5-2.7,0.7c-0.9,0.1-1.7,0.2-2.6,0.2c-2.3,0-4-0.7-5.2-2s-1.8-3.2-1.8-5.7
			c0-2.4,0.7-4.3,2.1-5.7c1.4-1.4,3.3-2,5.8-2c1.5,0,3,0.3,4.5,0.9l-1.1,2.5c-1.1-0.5-2.2-0.8-3.4-0.8c-1.4,0-2.5,0.5-3.3,1.4
			c-0.8,0.9-1.2,2.2-1.2,3.7c0,1.6,0.3,2.9,1,3.7c0.7,0.9,1.6,1.3,2.9,1.3c0.7,0,1.3-0.1,2-0.2v-3.1h-2.8V406.4z"/>
		<path class="st20" d="M1113.1,410.7c0,1.4-0.5,2.4-1.5,3.2c-1,0.8-2.3,1.2-4.1,1.2c-1.6,0-3-0.3-4.2-0.9v-3c1,0.5,1.9,0.8,2.6,1
			c0.7,0.2,1.3,0.3,1.9,0.3c0.7,0,1.2-0.1,1.6-0.4c0.4-0.3,0.6-0.7,0.6-1.2c0-0.3-0.1-0.6-0.2-0.8c-0.2-0.2-0.4-0.5-0.7-0.7
			c-0.3-0.2-1-0.6-1.9-1c-0.9-0.4-1.6-0.8-2.1-1.2c-0.5-0.4-0.8-0.9-1.1-1.4c-0.3-0.5-0.4-1.1-0.4-1.8c0-1.3,0.4-2.4,1.3-3.1
			c0.9-0.8,2.1-1.1,3.7-1.1c0.8,0,1.5,0.1,2.2,0.3c0.7,0.2,1.4,0.4,2.2,0.8l-1,2.5c-0.8-0.3-1.5-0.6-2-0.7c-0.5-0.1-1-0.2-1.5-0.2
			c-0.6,0-1.1,0.1-1.4,0.4c-0.3,0.3-0.5,0.6-0.5,1.1c0,0.3,0.1,0.5,0.2,0.7s0.3,0.4,0.6,0.6s1,0.5,2,1.1c1.4,0.7,2.4,1.3,2.9,2
			C1112.9,408.9,1113.1,409.7,1113.1,410.7z"/>
		<path class="st20" d="M1121.6,414.9h-3.2v-12.4h-4.1v-2.6h11.3v2.6h-4.1V414.9z"/>
		<path class="st20" d="M1137.2,414.9l-1.1-3.6h-5.5l-1.1,3.6h-3.4l5.3-15.1h3.9l5.3,15.1H1137.2z M1135.3,408.6
			c-1-3.2-1.6-5.1-1.7-5.5c-0.1-0.4-0.2-0.8-0.3-1c-0.2,0.9-0.9,3-1.9,6.5H1135.3z"/>
		<path class="st20" d="M1145.7,409.1v5.8h-3.2v-15h4.4c2,0,3.5,0.4,4.5,1.1c1,0.7,1.5,1.9,1.5,3.4c0,0.9-0.2,1.7-0.7,2.4
			c-0.5,0.7-1.2,1.2-2.1,1.6c2.3,3.4,3.7,5.6,4.4,6.5h-3.5l-3.6-5.8H1145.7z M1145.7,406.5h1c1,0,1.7-0.2,2.2-0.5
			c0.5-0.3,0.7-0.9,0.7-1.6c0-0.7-0.2-1.2-0.7-1.5s-1.2-0.5-2.3-0.5h-1V406.5z"/>
		<path class="st20" d="M1162.2,414.9h-3.2v-12.4h-4.1v-2.6h11.3v2.6h-4.1V414.9z"/>
		<path class="st20" d="M1177.4,410.7c0,1.4-0.5,2.4-1.5,3.2c-1,0.8-2.3,1.2-4.1,1.2c-1.6,0-3-0.3-4.2-0.9v-3c1,0.5,1.9,0.8,2.6,1
			c0.7,0.2,1.3,0.3,1.9,0.3c0.7,0,1.2-0.1,1.6-0.4c0.4-0.3,0.6-0.7,0.6-1.2c0-0.3-0.1-0.6-0.2-0.8c-0.2-0.2-0.4-0.5-0.7-0.7
			c-0.3-0.2-1-0.6-1.9-1c-0.9-0.4-1.6-0.8-2.1-1.2c-0.5-0.4-0.8-0.9-1.1-1.4c-0.3-0.5-0.4-1.1-0.4-1.8c0-1.3,0.4-2.4,1.3-3.1
			c0.9-0.8,2.1-1.1,3.7-1.1c0.8,0,1.5,0.1,2.2,0.3c0.7,0.2,1.4,0.4,2.2,0.8l-1,2.5c-0.8-0.3-1.5-0.6-2-0.7c-0.5-0.1-1-0.2-1.5-0.2
			c-0.6,0-1.1,0.1-1.4,0.4c-0.3,0.3-0.5,0.6-0.5,1.1c0,0.3,0.1,0.5,0.2,0.7s0.3,0.4,0.6,0.6s1,0.5,2,1.1c1.4,0.7,2.4,1.3,2.9,2
			C1177.2,408.9,1177.4,409.7,1177.4,410.7z"/>
		<path class="st20" d="M1198.9,414.9h-4l-6.5-11.4h-0.1c0.1,2,0.2,3.4,0.2,4.3v7.1h-2.8v-15h4l6.5,11.2h0.1c-0.1-2-0.2-3.3-0.2-4.1
			v-7.1h2.9V414.9z"/>
		<path class="st20" d="M1216.3,407.3c0,2.5-0.6,4.4-1.8,5.7c-1.2,1.3-3,2-5.3,2c-2.3,0-4.1-0.7-5.3-2c-1.2-1.3-1.8-3.3-1.8-5.7
			c0-2.5,0.6-4.4,1.9-5.7s3-2,5.3-2c2.3,0,4.1,0.7,5.3,2C1215.7,402.9,1216.3,404.9,1216.3,407.3z M1205.4,407.3
			c0,1.7,0.3,2.9,1,3.8c0.6,0.8,1.6,1.3,2.9,1.3c2.5,0,3.8-1.7,3.8-5.1c0-3.4-1.3-5.1-3.8-5.1c-1.3,0-2.2,0.4-2.9,1.3
			C1205.7,404.4,1205.4,405.7,1205.4,407.3z"/>
		<path class="st20" d="M1228,399.9h3.2l-5.1,15h-3.5l-5.1-15h3.2l2.8,8.9c0.2,0.5,0.3,1.1,0.5,1.8c0.2,0.7,0.3,1.2,0.3,1.5
			c0.1-0.6,0.3-1.7,0.8-3.3L1228,399.9z"/>
		<path class="st20" d="M1232.4,413.4c0-0.6,0.2-1,0.5-1.3c0.3-0.3,0.8-0.4,1.3-0.4c0.6,0,1,0.2,1.3,0.5c0.3,0.3,0.5,0.7,0.5,1.3
			c0,0.5-0.2,1-0.5,1.3c-0.3,0.3-0.8,0.5-1.3,0.5c-0.6,0-1-0.2-1.3-0.5C1232.6,414.4,1232.4,414,1232.4,413.4z"/>
		<path class="st20" d="M1251.3,414.9h-3.2v-8.7l0-1.4l0.1-1.6c-0.5,0.5-0.9,0.9-1.1,1l-1.7,1.4l-1.5-1.9l4.8-3.8h2.6V414.9z"/>
		<path class="st21" d="M931.8,453.1h-2.9l-1.7-6.4c-0.1-0.2-0.2-0.7-0.3-1.4s-0.2-1.2-0.3-1.4c0,0.3-0.1,0.8-0.2,1.4
			c-0.1,0.7-0.2,1.1-0.3,1.4l-1.6,6.4h-2.9l-3.1-12.2h2.5l1.6,6.7c0.3,1.2,0.5,2.3,0.6,3.2c0-0.3,0.1-0.8,0.2-1.5
			c0.1-0.7,0.2-1.2,0.3-1.5l1.8-6.8h2.4l1.8,6.8c0.1,0.3,0.2,0.8,0.3,1.4c0.1,0.6,0.2,1.2,0.3,1.6c0.1-0.4,0.1-1,0.3-1.6
			c0.1-0.6,0.2-1.2,0.3-1.6l1.5-6.7h2.5L931.8,453.1z"/>
		<path class="st21" d="M953.1,453.1h-2.9l-1.7-6.4c-0.1-0.2-0.2-0.7-0.3-1.4s-0.2-1.2-0.3-1.4c0,0.3-0.1,0.8-0.2,1.4
			c-0.1,0.7-0.2,1.1-0.3,1.4l-1.6,6.4h-2.9l-3.1-12.2h2.5l1.6,6.7c0.3,1.2,0.5,2.3,0.6,3.2c0-0.3,0.1-0.8,0.2-1.5
			c0.1-0.7,0.2-1.2,0.3-1.5l1.8-6.8h2.4l1.8,6.8c0.1,0.3,0.2,0.8,0.3,1.4c0.1,0.6,0.2,1.2,0.3,1.6c0.1-0.4,0.1-1,0.3-1.6
			c0.1-0.6,0.2-1.2,0.3-1.6l1.5-6.7h2.5L953.1,453.1z"/>
		<path class="st21" d="M974.4,453.1h-2.9l-1.7-6.4c-0.1-0.2-0.2-0.7-0.3-1.4s-0.2-1.2-0.3-1.4c0,0.3-0.1,0.8-0.2,1.4
			c-0.1,0.7-0.2,1.1-0.3,1.4l-1.6,6.4h-2.9l-3.1-12.2h2.5l1.6,6.7c0.3,1.2,0.5,2.3,0.6,3.2c0-0.3,0.1-0.8,0.2-1.5
			c0.1-0.7,0.2-1.2,0.3-1.5l1.8-6.8h2.4l1.8,6.8c0.1,0.3,0.2,0.8,0.3,1.4c0.1,0.6,0.2,1.2,0.3,1.6c0.1-0.4,0.1-1,0.3-1.6
			c0.1-0.6,0.2-1.2,0.3-1.6l1.5-6.7h2.5L974.4,453.1z"/>
		<path class="st21" d="M983.3,451.9c0-0.5,0.1-0.8,0.4-1.1c0.2-0.2,0.6-0.4,1.1-0.4c0.5,0,0.8,0.1,1.1,0.4c0.3,0.2,0.4,0.6,0.4,1.1
			c0,0.4-0.1,0.8-0.4,1s-0.6,0.4-1.1,0.4c-0.5,0-0.8-0.1-1.1-0.4S983.3,452.3,983.3,451.9z"/>
		<path class="st21" d="M1000.9,453.1l-0.9-2.9h-4.4l-0.9,2.9h-2.8l4.3-12.2h3.2l4.3,12.2H1000.9z M999.4,448
			c-0.8-2.6-1.3-4.1-1.4-4.5s-0.2-0.6-0.2-0.8c-0.2,0.7-0.7,2.5-1.6,5.3H999.4z"/>
		<path class="st21" d="M1012.6,448.4v4.7h-2.6v-12.2h3.6c1.7,0,2.9,0.3,3.7,0.9c0.8,0.6,1.2,1.5,1.2,2.7c0,0.7-0.2,1.4-0.6,1.9
			s-1,1-1.7,1.3c1.8,2.7,3,4.5,3.6,5.3h-2.9l-2.9-4.7H1012.6z M1012.6,446.3h0.8c0.8,0,1.4-0.1,1.8-0.4c0.4-0.3,0.6-0.7,0.6-1.3
			c0-0.6-0.2-1-0.6-1.2c-0.4-0.2-1-0.4-1.8-0.4h-0.8V446.3z"/>
		<path class="st21" d="M1030.8,453.1h-2.6v-10h-3.3v-2.2h9.2v2.2h-3.3V453.1z"/>
		<path class="st21" d="M1043.3,453.1h-2.5v-12.2h7v2.1h-4.4v3.1h4.1v2.1h-4.1V453.1z"/>
		<path class="st21" d="M1065.9,447c0,2-0.5,3.6-1.5,4.7c-1,1.1-2.4,1.6-4.3,1.6c-1.9,0-3.3-0.5-4.3-1.6c-1-1.1-1.5-2.6-1.5-4.7
			s0.5-3.6,1.5-4.6s2.4-1.6,4.3-1.6c1.9,0,3.3,0.5,4.3,1.6C1065.4,443.4,1065.9,444.9,1065.9,447z M1057,447c0,1.4,0.3,2.4,0.8,3.1
			c0.5,0.7,1.3,1,2.3,1c2.1,0,3.1-1.4,3.1-4.1c0-2.7-1-4.1-3.1-4.1c-1,0-1.8,0.3-2.3,1C1057.3,444.6,1057,445.6,1057,447z"/>
		<path class="st21" d="M1075.8,448.4v4.7h-2.6v-12.2h3.6c1.7,0,2.9,0.3,3.7,0.9c0.8,0.6,1.2,1.5,1.2,2.7c0,0.7-0.2,1.4-0.6,1.9
			s-1,1-1.7,1.3c1.8,2.7,3,4.5,3.6,5.3h-2.9l-2.9-4.7H1075.8z M1075.8,446.3h0.8c0.8,0,1.4-0.1,1.8-0.4c0.4-0.3,0.6-0.7,0.6-1.3
			c0-0.6-0.2-1-0.6-1.2c-0.4-0.2-1-0.4-1.8-0.4h-0.8V446.3z"/>
		<path class="st21" d="M1094,453.1h-2.6v-10h-3.3v-2.2h9.2v2.2h-3.3V453.1z"/>
		<path class="st21" d="M1104,453.1v-12.2h2.6v12.2H1104z"/>
		<path class="st21" d="M1114.4,440.9h3.8c1.7,0,3,0.2,3.8,0.7c0.8,0.5,1.2,1.3,1.2,2.3c0,0.7-0.2,1.3-0.5,1.8s-0.8,0.7-1.4,0.8v0.1
			c0.8,0.2,1.3,0.5,1.7,1c0.3,0.5,0.5,1.1,0.5,1.9c0,1.1-0.4,2-1.2,2.6c-0.8,0.6-1.9,0.9-3.3,0.9h-4.6V440.9z M1117,445.7h1.5
			c0.7,0,1.2-0.1,1.5-0.3c0.3-0.2,0.5-0.6,0.5-1.1c0-0.5-0.2-0.8-0.5-1c-0.3-0.2-0.9-0.3-1.6-0.3h-1.4V445.7z M1117,447.8v3.2h1.7
			c0.7,0,1.2-0.1,1.6-0.4s0.5-0.7,0.5-1.2c0-1-0.7-1.5-2.2-1.5H1117z"/>
		<path class="st21" d="M1137.7,453.1h-7v-12.2h7v2.1h-4.4v2.7h4.1v2.1h-4.1v3.1h4.4V453.1z"/>
		<path class="st21" d="M1149.7,453.1h-2.6v-10h-3.3v-2.2h9.2v2.2h-3.3V453.1z"/>
		<path class="st21" d="M1159.1,451.9c0-0.5,0.1-0.8,0.4-1.1c0.2-0.2,0.6-0.4,1.1-0.4c0.5,0,0.8,0.1,1.1,0.4
			c0.3,0.2,0.4,0.6,0.4,1.1c0,0.4-0.1,0.8-0.4,1s-0.6,0.4-1.1,0.4c-0.5,0-0.8-0.1-1.1-0.4S1159.1,452.3,1159.1,451.9z"/>
		<path class="st21" d="M1180.3,447c0,2-0.5,3.6-1.5,4.7c-1,1.1-2.4,1.6-4.3,1.6c-1.9,0-3.3-0.5-4.3-1.6c-1-1.1-1.5-2.6-1.5-4.7
			s0.5-3.6,1.5-4.6s2.4-1.6,4.3-1.6c1.9,0,3.3,0.5,4.3,1.6C1179.8,443.4,1180.3,444.9,1180.3,447z M1171.5,447
			c0,1.4,0.3,2.4,0.8,3.1c0.5,0.7,1.3,1,2.3,1c2.1,0,3.1-1.4,3.1-4.1c0-2.7-1-4.1-3.1-4.1c-1,0-1.8,0.3-2.3,1
			C1171.7,444.6,1171.5,445.6,1171.5,447z"/>
		<path class="st21" d="M1190.2,448.4v4.7h-2.6v-12.2h3.6c1.7,0,2.9,0.3,3.7,0.9c0.8,0.6,1.2,1.5,1.2,2.7c0,0.7-0.2,1.4-0.6,1.9
			s-1,1-1.7,1.3c1.8,2.7,3,4.5,3.6,5.3h-2.9l-2.9-4.7H1190.2z M1190.2,446.3h0.8c0.8,0,1.4-0.1,1.8-0.4c0.4-0.3,0.6-0.7,0.6-1.3
			c0-0.6-0.2-1-0.6-1.2c-0.4-0.2-1-0.4-1.8-0.4h-0.8V446.3z"/>
		<path class="st21" d="M1208.3,446.2h4.8v6.3c-0.8,0.3-1.5,0.4-2.2,0.5s-1.4,0.2-2.1,0.2c-1.8,0-3.2-0.5-4.2-1.6
			c-1-1.1-1.5-2.6-1.5-4.7c0-2,0.6-3.5,1.7-4.6s2.7-1.7,4.7-1.7c1.2,0,2.5,0.2,3.6,0.8l-0.9,2.1c-0.9-0.4-1.8-0.7-2.8-0.7
			c-1.1,0-2,0.4-2.7,1.1c-0.7,0.8-1,1.8-1,3c0,1.3,0.3,2.3,0.8,3s1.3,1,2.4,1c0.5,0,1.1-0.1,1.6-0.2v-2.5h-2.3V446.2z"/>
	</g>
</g>
<g>
	<rect x="508.9" y="437.4" class="st4" width="313.3" height="34.2"/>
	<path class="st8" d="M523.7,455.4c-0.2-0.5-0.3-1.1-0.3-1.9c-1.5,1.4-3.2,2.1-5.2,2.1c-2.3,0-3.7-1.2-3.7-3.3
		c0-2.6,2.2-4.5,8.9-5.5v-0.7c0-1.8-0.9-2.7-2.7-2.7c-2.1,0-3.5,0.9-4.9,2.1l-0.9-1.1c1.6-1.4,3.4-2.4,6-2.4c2.9,0,4.2,1.6,4.2,4.2
		v5.9c0,1.6,0.1,2.6,0.4,3.2H523.7z M536,443.6c0,0-0.5,0-0.5,0c-2.1,0-3.8,1.2-4.9,3.3v8.5h-1.7v-13.1h1.7v2.6h0
		c1-1.6,2.6-2.8,5.2-2.8h0.3L536,443.6z M545.4,455.4c-0.4,0.1-1.1,0.1-1.7,0.1c-2.5,0-3.5-1-3.5-3.2v-8.6H538v-1.5h2.3v-4.7h1.7
		v4.7h3.4v1.5H542v8.2c0,1.4,0.4,2.1,2.1,2.1c0.5,0,1-0.1,1.4-0.2V455.4z M562.8,450.3h-4.9v-4.9h4.9V450.3z M582.7,443.6
		c0,0-0.5,0-0.5,0c-2.1,0-3.8,1.2-4.9,3.3v8.5h-1.7v-13.1h1.7v2.6h0c1-1.6,2.6-2.8,5.2-2.8h0.3L582.7,443.6z M595.1,449.2h-9.4
		c0,3.2,1.9,5.1,4.1,5.1c2,0,3.1-0.8,4.1-2.4l1.1,0.8c-1.1,1.8-2.8,3-5.3,3c-3.1,0-5.7-2.4-5.7-6.8c0-4.7,3-6.8,5.7-6.8
		c3.1,0,5.3,2.3,5.3,6.8V449.2z M602.3,455.6c-2.3,0-4.2-1-5.2-2.3l1.1-1c1,1.1,2.3,1.9,4.1,1.9c2.2,0,3.4-0.8,3.4-2.3
		c0-1.4-1-2-3.6-2.6c-3-0.7-4.6-1.5-4.6-3.8c0-1.9,1.6-3.4,4.5-3.4c2.2,0,3.7,0.7,4.9,1.9l-1,1.1c-1-1-2.2-1.6-3.8-1.6
		c-2,0-2.8,0.9-2.8,1.9c0,1.3,0.9,1.8,3.2,2.3c3.3,0.8,5,1.6,5,4.2C607.4,454.3,605.3,455.6,602.3,455.6z M612.5,455.4h-1.7v-13.1
		h1.7V455.4z M612.6,439.2h-1.8v-1.8h1.8V439.2z M620.9,455.6c-2.3,0-4.2-1-5.2-2.3l1.1-1c1,1.1,2.3,1.9,4.1,1.9
		c2.2,0,3.4-0.8,3.4-2.3c0-1.4-1-2-3.6-2.6c-3-0.7-4.6-1.5-4.6-3.8c0-1.9,1.6-3.4,4.5-3.4c2.2,0,3.7,0.7,4.9,1.9l-1,1.1
		c-1-1-2.2-1.6-3.8-1.6c-2,0-2.8,0.9-2.8,1.9c0,1.3,0.9,1.8,3.2,2.3c3.3,0.8,5,1.6,5,4.2C626,454.3,623.8,455.6,620.9,455.6z
		 M635,455.4c-0.4,0.1-1.1,0.1-1.7,0.1c-2.5,0-3.5-1-3.5-3.2v-8.6h-2.3v-1.5h2.3v-4.7h1.7v4.7h3.4v1.5h-3.4v8.2
		c0,1.4,0.4,2.1,2.1,2.1c0.5,0,1-0.1,1.4-0.2V455.4z M646.3,455.4c-0.2-0.5-0.3-1.1-0.3-1.9c-1.5,1.4-3.2,2.1-5.2,2.1
		c-2.3,0-3.7-1.2-3.7-3.3c0-2.6,2.2-4.5,8.9-5.5v-0.7c0-1.8-0.9-2.7-2.7-2.7c-2.1,0-3.5,0.9-4.9,2.1l-0.9-1.1c1.6-1.4,3.4-2.4,6-2.4
		c2.9,0,4.2,1.6,4.2,4.2v5.9c0,1.6,0.1,2.6,0.4,3.2H646.3z M662.2,455.4h-1.7v-9.2c0-1.8-0.8-2.7-2.6-2.7c-1.7,0-3.1,0.9-4.6,2.3
		v9.6h-1.7v-13.1h1.7v2.1c1.3-1.2,2.9-2.3,5-2.3c2.6,0,3.9,1.4,3.9,3.9V455.4z M671,455.7c-3,0-5.7-2.5-5.7-6.8
		c0-4.7,2.9-6.8,5.8-6.8c2.8,0,4.2,1.7,5,3.6l-1.5,0.6c-0.7-1.8-1.8-2.8-3.6-2.8c-1.9,0-4.1,1.4-4.1,5.3c0,3.4,1.7,5.4,4,5.4
		c1.8,0,2.8-0.8,3.8-2.8l1.4,0.6C675.1,454.2,673.6,455.7,671,455.7z M689.4,449.2H680c0,3.2,1.9,5.1,4.1,5.1c2,0,3.1-0.8,4.1-2.4
		l1.1,0.8c-1.1,1.8-2.8,3-5.3,3c-3.1,0-5.7-2.4-5.7-6.8c0-4.7,3-6.8,5.7-6.8c3.1,0,5.3,2.3,5.3,6.8V449.2z M707.7,450.3h-4.9v-4.9
		h4.9V450.3z M726.7,438.4c-0.2,0-0.6,0-0.9,0c-1.3,0-2.2,0.5-2.2,1.9v2h2.9v1.5h-2.9v11.6H722v-11.6h-2.3v-1.5h2.3v-2
		c0-2.2,1.3-3.4,3.8-3.4c0.3,0,0.8,0,1,0V438.4z M736.3,443.6c0,0-0.5,0-0.5,0c-2.1,0-3.8,1.2-4.9,3.3v8.5h-1.7v-13.1h1.7v2.6h0
		c1-1.6,2.6-2.8,5.2-2.8h0.3L736.3,443.6z M748.7,449.2h-9.4c0,3.2,1.9,5.1,4.1,5.1c2,0,3.1-0.8,4.1-2.4l1.1,0.8
		c-1.1,1.8-2.8,3-5.3,3c-3.1,0-5.7-2.4-5.7-6.8c0-4.7,3-6.8,5.7-6.8c3.1,0,5.3,2.3,5.3,6.8V449.2z M762.2,449.2h-9.4
		c0,3.2,1.9,5.1,4.1,5.1c2,0,3.1-0.8,4.1-2.4l1.1,0.8c-1.1,1.8-2.8,3-5.3,3c-3.1,0-5.7-2.4-5.7-6.8c0-4.7,3-6.8,5.7-6.8
		c3.1,0,5.3,2.3,5.3,6.8V449.2z M774.8,455.4c-0.1-0.4-0.3-1.2-0.3-1.9c-1.1,1.1-2.4,2.1-4.4,2.1c-3,0-5.4-2.2-5.4-6.8
		c0-4.6,2.4-6.8,5.5-6.8c1.7,0,3.2,0.9,4.2,2V437h1.7v15.2c0,1.6,0.1,2.6,0.4,3.2H774.8z M785.4,455.7c-3.2,0-5.9-2.5-5.9-6.8
		c0-4.4,2.7-6.8,5.9-6.8c3.2,0,5.9,2.4,5.9,6.8C791.3,453.2,788.6,455.7,785.4,455.7z M813.4,455.4h-1.7v-9.2c0-1.8-0.6-2.7-2.5-2.7
		c-1.6,0-2.9,0.9-4.4,2.3v9.6h-1.7v-9.2c0-1.8-0.6-2.7-2.5-2.7c-1.6,0-2.9,0.9-4.4,2.3v9.6h-1.7v-13.1h1.7v2.1
		c1.3-1.3,2.8-2.3,4.8-2.3c2.2,0,3.2,1,3.6,2.4c1.4-1.3,3-2.4,5-2.4c2.7,0,3.8,1.5,3.8,3.9V455.4z M684,443.5c-1.9,0-3.7,1.4-4,4.3
		h7.7C687.5,445.3,686.3,443.5,684,443.5z M516.2,452.1c0,1.4,0.9,2.1,2.4,2.1c1.8,0,3.5-0.8,4.8-2.1v-4.1
		C517.7,449,516.2,450.4,516.2,452.1z M743.3,443.5c-1.9,0-3.7,1.4-4,4.3h7.7C746.8,445.3,745.6,443.5,743.3,443.5z M638.9,452.1
		c0,1.4,0.9,2.1,2.4,2.1c1.8,0,3.5-0.8,4.8-2.1v-4.1C640.4,449,638.9,450.4,638.9,452.1z M589.7,443.5c-1.9,0-3.7,1.4-4,4.3h7.7
		C593.3,445.3,592.1,443.5,589.7,443.5z M756.9,443.5c-1.9,0-3.7,1.4-4,4.3h7.7C760.4,445.3,759.2,443.5,756.9,443.5z M785.4,443.5
		c-2.7,0-4.2,2.2-4.2,5.3c0,2.9,1.4,5.4,4.2,5.4c2.6,0,4.2-2.2,4.2-5.4C789.6,446,788.2,443.5,785.4,443.5z M770.4,443.5
		c-2.3,0-4,1.7-4,5.4c0,3.6,1.8,5.3,4,5.3c1.6,0,2.8-0.8,4.1-2.1v-6.4C773.2,444.2,772,443.5,770.4,443.5z"/>
</g>
<g>
	<path class="st8" d="M923.6,99.5c0.7-2.2,1.7-4.1,3.1-5.8c1.4-1.6,3.1-2.9,5.1-3.8c2.1-0.9,4.4-1.4,7.1-1.4c2,0,4,0.3,5.8,1
		c1.9,0.6,3.5,1.6,4.9,2.7c1.4,1.2,2.5,2.7,3.4,4.4c0.8,1.7,1.2,3.7,1.2,5.9c0,2.3-0.4,4.2-1.1,5.8c-0.7,1.6-1.7,3.1-2.9,4.3
		c-1.2,1.3-2.5,2.4-4.1,3.4c-1.5,1-3,2-4.6,3c-1.5,1-3,2.1-4.5,3.2s-2.7,2.5-3.8,4h21.2v7.8h-32.8c0-2.6,0.4-4.9,1.1-6.8
		s1.8-3.6,3-5.1s2.8-2.9,4.5-4.2s3.5-2.6,5.5-3.9c1-0.7,2-1.4,3.1-2.1c1.1-0.7,2.1-1.5,3-2.3c0.9-0.9,1.7-1.8,2.3-2.9
		c0.6-1.1,0.9-2.3,0.9-3.6c0-2.2-0.6-3.9-1.9-5.1c-1.3-1.2-2.9-1.8-4.8-1.8c-1.3,0-2.4,0.3-3.4,0.9c-0.9,0.6-1.7,1.4-2.2,2.4
		c-0.6,1-0.9,2.1-1.2,3.3c-0.2,1.2-0.4,2.4-0.4,3.6h-8.7C922.6,104.1,922.9,101.7,923.6,99.5z"/>
	<path class="st8" d="M973.8,100.7c0.9-3,2.1-5.3,3.5-7.1c1.5-1.8,3.2-3.1,5.2-3.8c2-0.8,4.1-1.2,6.3-1.2c2.3,0,4.4,0.4,6.4,1.2
		c2,0.8,3.7,2,5.2,3.8c1.5,1.8,2.7,4.2,3.6,7.1c0.9,3,1.3,6.6,1.3,11c0,4.5-0.4,8.2-1.3,11.2c-0.9,3-2.1,5.4-3.6,7.2
		c-1.5,1.8-3.3,3.1-5.2,3.8s-4.1,1.2-6.4,1.2c-2.2,0-4.3-0.4-6.3-1.2c-2-0.8-3.7-2-5.2-3.8c-1.5-1.8-2.7-4.2-3.5-7.2
		c-0.9-3-1.3-6.7-1.3-11.2C972.5,107.3,972.9,103.6,973.8,100.7z M981.7,116.3c0.1,1.8,0.4,3.6,0.8,5.2s1.2,3.1,2.1,4.3
		c1,1.2,2.4,1.8,4.2,1.8c1.9,0,3.3-0.6,4.3-1.8c1-1.2,1.7-2.6,2.2-4.3s0.7-3.4,0.8-5.2c0.1-1.8,0.1-3.4,0.1-4.6c0-0.8,0-1.7,0-2.8
		c0-1.1-0.1-2.2-0.3-3.4c-0.1-1.2-0.4-2.3-0.6-3.4c-0.3-1.1-0.7-2.1-1.2-3c-0.6-0.9-1.3-1.6-2.1-2.2c-0.9-0.6-1.9-0.8-3.1-0.8
		c-1.2,0-2.3,0.3-3.1,0.8c-0.8,0.6-1.5,1.3-2,2.2c-0.5,0.9-0.9,1.9-1.2,3c-0.3,1.1-0.5,2.3-0.6,3.4s-0.2,2.3-0.2,3.4
		c0,1.1,0,2,0,2.8C981.6,112.9,981.6,114.4,981.7,116.3z"/>
	<path class="st8" d="M1038,134.2v-29h-11.2v-6.8c1.6,0,3.1-0.1,4.6-0.4c1.5-0.3,2.8-0.8,4-1.5c1.2-0.7,2.2-1.6,3-2.8
		c0.8-1.2,1.3-2.6,1.6-4.3h7.2v44.7H1038z"/>
	<path class="st8" d="M1085.7,126.6c1.1,1.1,2.4,1.7,4,1.7c1.7,0,3-0.5,4.1-1.4c1.1-1,1.9-2.1,2.6-3.5c0.6-1.4,1.1-2.9,1.4-4.4
		c0.3-1.6,0.5-3,0.5-4.2l-0.1-0.1c-1.2,1.8-2.7,3.1-4.3,3.8c-1.7,0.8-3.6,1.2-5.8,1.2c-1.9,0-3.8-0.4-5.6-1.2
		c-1.8-0.8-3.4-1.9-4.7-3.4c-1.2-1.4-2.1-2.9-2.6-4.7c-0.6-1.7-0.8-3.5-0.8-5.3c0-2.3,0.4-4.4,1.1-6.4c0.7-2,1.8-3.7,3.2-5.2
		c1.4-1.5,3-2.6,5-3.5c1.9-0.9,4-1.3,6.4-1.3c3.4,0,6.2,0.7,8.4,2c2.2,1.3,4,3.1,5.3,5.3c1.3,2.2,2.2,4.7,2.7,7.4
		c0.5,2.8,0.8,5.6,0.8,8.4c0,2.8-0.3,5.5-1,8.3c-0.6,2.8-1.7,5.3-3.1,7.5c-1.4,2.2-3.2,4-5.4,5.4c-2.2,1.4-4.9,2.1-8.1,2.1
		c-1.9,0-3.7-0.3-5.4-0.8c-1.7-0.5-3.1-1.3-4.4-2.4c-1.3-1.1-2.3-2.4-3.1-3.9c-0.8-1.5-1.3-3.3-1.6-5.2h8.6
		C1083.9,124.2,1084.6,125.5,1085.7,126.6z M1093.4,112c0.9-0.4,1.6-1.1,2.2-1.8c0.6-0.8,1-1.7,1.3-2.7c0.3-1,0.4-2.1,0.4-3.2
		c0-1-0.2-2-0.5-3c-0.3-1-0.8-1.9-1.4-2.7c-0.6-0.8-1.4-1.4-2.3-1.9c-0.9-0.5-1.9-0.7-3.1-0.7c-1.1,0-2,0.2-2.9,0.7
		c-0.9,0.5-1.6,1.1-2.2,1.9c-0.6,0.8-1,1.6-1.3,2.6c-0.3,1-0.4,2-0.4,3c0,1.1,0.1,2.1,0.4,3.1c0.3,1,0.7,1.9,1.2,2.7
		c0.6,0.8,1.3,1.4,2.1,1.9c0.9,0.5,1.9,0.7,3,0.7C1091.4,112.6,1092.5,112.4,1093.4,112z"/>
</g>
<g>
	<defs>
		<rect id="SVGID_17_" x="553.6" y="-931.5" width="844.6" height="374.4"/>
	</defs>
	<clipPath id="SVGID_4_">
		<use xlink:href="#SVGID_17_"  style="overflow:visible;"/>
	</clipPath>
	<g id="fP5HP7_9_" class="st1">
		
			<image style="overflow:visible;" width="2205" height="2972" id="fP5HP7_10_" xlink:href="E8F734EB34D5BF52.png"  transform="matrix(0.4102 0 0 0.4102 525.8949 -1202.0653)">
		</image>
	</g>
</g>
</svg>
