<?xml version="1.0" encoding="utf-8"?>
<!-- Generator: Adobe Illustrator 23.0.6, SVG Export Plug-In . SVG Version: 6.00 Build 0)  -->
<svg version="1.1" id="Layer_1" xmlns="http://www.w3.org/2000/svg" xmlns:xlink="http://www.w3.org/1999/xlink" x="0px" y="0px"
	 viewBox="0 0 376.5 233.7" style="enable-background:new 0 0 376.5 233.7;" xml:space="preserve">
<style type="text/css">
	.st0{fill:none;}
	.st1{fill:#BE1E2D;}
	.st2{clip-path:url(#SVGID_2_);}
	.st3{opacity:0.3;}
	.st4{clip-path:url(#SVGID_4_);}
	.st5{fill:#FFFFFF;}
	.st6{fill:#F299C1;}
	.st7{fill:#6ECEF5;}
	.st8{fill:#FDF49B;}
	.st9{fill:#7D644D;}
	.st10{fill:#4890A6;}
	.st11{fill:#E572A7;}
	.st12{fill:#594734;}
	.st13{opacity:0.7;}
	.st14{fill:#846F2C;}
	.st15{clip-path:url(#SVGID_6_);fill:#FFFFFF;}
	.st16{clip-path:url(#SVGID_6_);fill:#F299C1;}
	.st17{clip-path:url(#SVGID_6_);fill:#6ECEF5;}
	.st18{clip-path:url(#SVGID_6_);fill:#FDF49B;}
	.st19{clip-path:url(#SVGID_8_);fill:#FFFFFF;}
	.st20{clip-path:url(#SVGID_8_);fill:#F299C1;}
	.st21{clip-path:url(#SVGID_8_);fill:#6ECEF5;}
	.st22{clip-path:url(#SVGID_8_);fill:#FDF49B;}
	.st23{clip-path:url(#SVGID_8_);}
	.st24{clip-path:url(#SVGID_10_);}
	.st25{fill:none;stroke:#000000;stroke-width:4;stroke-miterlimit:10;}
	.st26{clip-path:url(#SVGID_12_);}
	.st27{clip-path:url(#SVGID_14_);fill:#FFFFFF;}
	.st28{clip-path:url(#SVGID_14_);fill:#F299C1;}
	.st29{clip-path:url(#SVGID_14_);fill:#6ECEF5;}
	.st30{clip-path:url(#SVGID_14_);fill:#FDF49B;}
	.st31{clip-path:url(#SVGID_16_);}
	.st32{clip-path:url(#SVGID_18_);fill:#FFFFFF;}
	.st33{clip-path:url(#SVGID_18_);fill:#F299C1;}
	.st34{clip-path:url(#SVGID_18_);fill:#6ECEF5;}
	.st35{clip-path:url(#SVGID_18_);fill:#FDF49B;}
	.st36{clip-path:url(#SVGID_20_);fill:#FFFFFF;}
	.st37{clip-path:url(#SVGID_20_);fill:#F299C1;}
	.st38{clip-path:url(#SVGID_20_);fill:#6ECEF5;}
	.st39{clip-path:url(#SVGID_20_);fill:#FDF49B;}
	.st40{clip-path:url(#SVGID_20_);}
	.st41{clip-path:url(#SVGID_22_);}
	.st42{clip-path:url(#SVGID_24_);fill:#FFFFFF;}
	.st43{clip-path:url(#SVGID_24_);fill:#F299C1;}
	.st44{clip-path:url(#SVGID_24_);fill:#6ECEF5;}
	.st45{clip-path:url(#SVGID_24_);fill:#FDF49B;}
	.st46{opacity:0.92;fill:url(#SVGID_25_);}
	.st47{fill:#231F20;}
	.st48{fill:#FCEE23;}
	.st49{fill:none;stroke:#FFFFFF;stroke-width:0.275;stroke-miterlimit:10;}
	.st50{fill:#FCEE1F;}
	.st51{opacity:0.92;fill:url(#SVGID_26_);}
	.st52{fill:url(#SVGID_27_);}
	.st53{opacity:0.92;fill:url(#SVGID_28_);}
	.st54{opacity:0.92;fill:url(#SVGID_29_);}
	.st55{opacity:0.92;fill:url(#SVGID_30_);}
	.st56{opacity:0.92;fill:url(#SVGID_31_);}
	.st57{opacity:0.92;fill:url(#SVGID_32_);}
	.st58{opacity:0.92;fill:url(#SVGID_33_);}
	.st59{opacity:0.92;fill:url(#SVGID_35_);}
	.st60{fill:#EEEDEE;}
	.st61{opacity:0.92;fill:url(#SVGID_36_);}
	.st62{opacity:0.92;fill:url(#SVGID_37_);}
	.st63{clip-path:url(#SVGID_38_);}
	.st64{opacity:0.92;fill:url(#SVGID_39_);}
	.st65{opacity:0.92;fill:url(#SVGID_40_);}
	.st66{opacity:0.92;fill:url(#SVGID_41_);}
	.st67{opacity:0.92;fill:url(#SVGID_42_);}
	.st68{opacity:0.92;fill:url(#SVGID_43_);}
	.st69{fill:none;stroke:#000000;stroke-width:6;stroke-miterlimit:10;}
</style>
<g>
	<defs>
		<rect id="SVGID_1_" x="-395.4" y="-1023.8" width="723" height="786.3"/>
	</defs>
	<clipPath id="SVGID_2_">
		<use xlink:href="#SVGID_1_"  style="overflow:visible;"/>
	</clipPath>
	<g id="fP5HP7_3_" class="st2">
		
			<image style="overflow:visible;" width="2205" height="2972" id="fP5HP7_4_" xlink:href="1E6114F8019D8488.png"  transform="matrix(0.3913 0 0 0.3913 -470.6003 -1060.9163)">
		</image>
	</g>
</g>
<g>
	<g>
		<defs>
			<rect id="SVGID_7_" x="-1570.3" y="100.9" width="1326.8" height="502.5"/>
		</defs>
		<clipPath id="SVGID_4_">
			<use xlink:href="#SVGID_7_"  style="overflow:visible;"/>
		</clipPath>
		<path style="clip-path:url(#SVGID_4_);fill:#FFFFFF;" d="M-1679.9,9.5V699H265.7V9.5H-1679.9z M-792.5,350.8h20.5
			c13.4,0,21.4,4.8,21.4,16.9c0,8.6-4,13.3-11.3,15.5l12.1,22.1h-12.7l-11.3-20.5h-6.9v20.5h-11.8V350.8z M-801.2,378
			c0,19.1-12.5,28.3-25.6,28.3c-13.2,0-25.7-9.1-25.7-28.3c0-19.1,12.5-28.3,25.7-28.3C-813.8,349.7-801.2,358.9-801.2,378z
			 M-1045.3,350.6h11.4l19.3,54.7h-12.2l-4-12.1h-18.6l-4.2,12.1h-11L-1045.3,350.6z M-1091.6,430.1h76.5v17.2h-28v76.5h-20.6v-76.5
			h-27.9V430.1z M-1009.7,291.5c0-0.4,0.1-0.9,0.4-1.3c0.3-0.5,0.6-0.7,0.6-0.7s0.2-0.2,0.1,0.2c-0.1,0.5,0.4,2.1,1.7,1.5
			c1.3-0.5,2.3-0.6,2.4-0.6c1.4,0,2.7,0.6,3.4,1.6c0,0.1,0.1,0.1,0.1,0.2c0.5,0.8,1.1,1.8,1.8,2.2c2.4,1.3,4,0.2,4-0.9
			c0-0.8-0.4-1.7-1.6-1.7c-0.5,0-1,0.4-1.1,0.5c-0.2,0.1-0.6,0.1-0.4-0.2c0.2-0.3,5.3-4.3,6.6,0.5c0.3,1.1,0.8,2.3,1.6,3.1
			c2.2,2,6.6,1.9,7.8-2.2c0.6-2-0.5-4.4-2.9-5.5c-4.7-2-11.7-1.2-14.7-2.1c-6.2-2-2.3-7.4-2.3-7.4c0.1-0.2,0.5-0.4,0.5,0.3
			c0,0-0.2,1.1-0.2,1.1c-0.2,1.5,1.2,2.9,3.1,3.2c1.9,0.3,3.8-0.8,3.9-1.9c0.2-1.2-0.2-3-2.2-3.4c-1.9-0.4-3.1-1.1-4-2.4
			c-2.4-3.3-1.3-6.4-1.3-6.4s-3.9-2.5-3.4-6c0.5-3.6,3.2-2.9,3.2-2.9s0.1,0,0,0.1c0,0-0.2,0.1-0.2,0.2c-0.3,0.3-0.5,0.5-0.7,1
			c-0.6,1.4-0.1,2.9,1.2,3.5c1.3,0.5,2.9,0.1,3.5-1.3c0.1-0.4,1.1-2.3-1-4.2c-0.3-0.2-0.5-0.5-0.8-0.7c-0.3-0.3-0.5-0.6-0.7-0.9
			c-0.5-0.7-0.8-1.5-0.8-2.5c0-0.5,0.1-1,0.3-1.6c0.6-1.7,2-3,3.8-3.4c0.9-0.2,1.7-0.3,2.2-0.8c0.7-0.5,1.1-1.3,1.1-2.1
			c0-1.2-0.9-2.1-2.2-2.6c-0.1,0-0.2-0.1,0.2-0.1c0.8,0,3.1,0.1,4.1,3.1c0.5,1.6-0.3,2.9-1.1,4.1c-1.3,1.8-3,3.7-0.7,5.7
			c0.3,0.3,0.7,0.5,1.1,0.6c1.7,0.6,3.9-0.6,3.3-2.3c-0.4-1.1-1-1.4-1.4-1.4c-0.3,0-0.2-0.1-0.2-0.1c0.9-0.4,4.7-0.3,5.8,6.4
			c1,6,2.7,8.5,7.4,8.2c4.1-0.3,5.7-5,4.9-8.5c-0.7-3.3-4.2-5-7.3-6.8c0,0,0,0,0,0c-0.5-0.3-1.1-0.6-1.6-0.9c0,0,0,0,0,0
			c-2.3-1.7-3.8-4.5-3.8-7.6c0-0.6,0.1-1.2,0.2-1.8c0-0.1,0-0.1,0-0.2c0.1-0.6,0.3-1.2,0.5-1.6c0-0.1,0.1-0.2,0.1-0.3
			c0.1-0.2,0.2-0.3,0.2-0.5c0.1-0.2,0.2-0.4,0.2-0.4s0,0,0,0c0-0.1-0.1-0.2-0.3-0.5c-0.2-0.4-0.7-1.2-0.9-1.7
			c-0.2-0.5-0.4-1.4-0.4-2.1c0-3.3,2.5-6,5.7-6.4c0.1,0,0,0.1-0.1,0.2c-0.8,0.6-2.2,3.9,1.4,6.1c0.8,0.5,1.9,0.5,3.1,0.1
			c0.4-0.1,0.8-0.3,1.1-0.4h0c0.6-0.3,1.1-0.7,1.4-1.1c1.6-2.1-0.1-5.3-3.6-8.1c-0.2-0.2-1.5-1.1-1.9-1.5c-1.3-1.4-2.2-3.3-2.2-5.4
			c0.2-5.3,3.8-6.7,4.6-7.2c1.8-1,4.1-2.3,4.3-4.1c0.3-3.3-3.1-4.6-3.1-4.6s-0.2-0.1,0.1-0.2c0.8-0.1,6.4-0.4,8.5,2.6
			c2.9,4.3-0.1,7.8-0.6,8.3c-2,2.4-5,4.6-3.2,6.7c2,2.3,4.9,1.3,5.2-0.8c0.3-2.2-1.8-3-2.4-3c-0.3,0-0.1-0.2-0.1-0.2
			s0.9-0.2,2.1-0.2c1.7,0,3.8,0.6,4.7,3.6c1.2,3.9-5,12,3.1,12.7c4.8,0.4,8.9-6.6,3.4-13.9c-3.3-4.3-5.2-7.8-5-12.6
			c0.3-4.8,1.4-3.4,0.7-6.4c-0.6-3-4.4-4.9-2.9-9.7c1.4-4.5,4.1-4.6,4.8-4.5c0.1,0,0.1,0.2,0.1,0.2s-2.1,6.8,2.7,4.9
			c2.6-1,0-6,0-9.9c0-3.9,3.5-3.2,5.3-7.2c0.9-2-2.7-4.2-3.4-4.9c-0.3-0.3,0.4-0.5,0.4-0.5s4.4-0.4,6.7,2.6c1.8,2.5,1.5,5.6,0.4,8.1
			c-1.2,2.6-4,3.1-2.6,6.5c1,2.3,3.2,2.2,3.9,2c1.8-0.6,5.5-1.8,9-0.2c3.6,1.7,5.8,5.9,5.8,8c0,0.2,0,0.4-0.2,0.2
			c-0.1-0.3-2.2-4-6.7-4.4c-8.7-0.9-10.1,14.1-0.5,15.4c7.8,1.1,11-3.5,11.5-7.8c0.2-2.4,0-6.5-4.5-10.5c-5.5-4.9-8.8-8.9-8.6-14.2
			c0.2-5.9,2.4-6.2,2.4-6.2s0.3,0,0,0.5c-0.4,0.9-0.1,3.4,0.7,5.2c0.4,0.8,1.4,2.5,3.9,2.6c2.1,0,3.8-1.7,3.8-3.9
			c0-1.7-1.9-3.7-3.7-4.4c0,0-4.4-1.6-5.6-4.4c-2.6-5.8,0.7-10.6,5.9-11.8c0.4-0.1,0.4,0,0.2,0.1c-0.2,0.1-2.3,1.9-3,3.5
			c-0.7,1.7-0.7,3.9,2.4,5.2c4,1.7,8.2-2.1,9.7,2.9c0.4,1.5,0.5,1.6,1.1,2.9c1,2.3,2.4,3.9,5.2,3.6c3.7-0.5,6.8-6.9-0.6-10
			c-2.8-1.2-5.6-1-7.9-4.7c-2-3.4-1.9-6.9-1.1-9.5c0.8-3,2.1-4.1,2.9-4.6c2-1.1,3-0.7,3-0.7s0.3,0.1-0.1,0.4c-1.3,0.8-1.4,6,2.4,5.7
			c2.8-0.3,2.8-2.4,1.6-5.8c-0.3-0.8-0.4-1.7-0.2-2.7c0.3-1.7,1.2-3.1,2.6-3.8c0.4-0.2,0.9-0.4,1.8-0.6c0.6-0.1,1.6-0.2,2-1.4
			c1.1-3-2.6-4.5-2.2-5.3c0.5-0.8,7.2,1.8,5.7,8.6c-0.2,0.8-0.4,1.5-0.6,2.2c-0.7,2.3-1.6,3.7-1.7,4.9c-0.1,0.5,0,1,0.2,1.5
			c0.6,1.2,1.3,1.4,1.9,1.5c1.6,0.4,3.9-0.8,3.8-3.8c0-1.8-1.3-3.9,1.3-2.5c2.7,1.4,6.5,5.4,3.8,10.9c-0.8,1.7-2,2.3-3.6,3.1
			c-1.2,0.6-1.9,1.9-1.9,3.3c0,2,1.6,3.5,3.5,3.5c1.6,0,4.4-1.1,3.8-5.7c0-0.3-0.2-0.6-0.3-0.7c-0.5-0.7,0.2-0.3,0.3-0.3
			c0.8,0.3,8.6,4.3,3.4,12c-4.2,6.2-7,11.8-2.7,14.5c3.7,2.3,8.2-1,7.3-5.1c-0.4-1.6-3.6-2.3-3.1-6.8c0.5-4.1,3.7-3.4,3.7-3.4
			s0.3,0.2-0.2,0.6c-1.2,1.1-0.9,5.7,2.8,4.9c3-0.6,1.5-4.2,0-6.8c-1.4-2.6-2.4-5.9,0.4-8.6c2.1-2,4.1-1.1,4.2-1
			c0.1,0.1,0.1,0.2-0.2,0.1c-0.5-0.1-1.4,0.6-1.9,1.1c-0.6,0.7-0.7,1.5-0.6,2.3c0.2,1,1.3,1.8,2.8,2.4c1.5,0.6,2.4,2.2,2.4,3.9
			c0,1.4-0.5,1.9-1.4,3.1c-1,1.3-0.7,2.8,1.1,4.6c2.3,2.4,4,4.6,3.6,8.2c-0.6,4.6-4.8,6.7-6.5,8.8c-3.7,4.3-5.1,8.3-2.4,13.7
			c2.4,4.7,9.9,7.2,14.6,1.3c2.5-3.1,3.7-11.9-5.7-11c-3.5,0.3-4.7,3.5-4.8,4.9c0,0.3-0.1,0.2-0.2,0c-0.3-0.6-0.3-1.1-0.3-1.8
			c0-1.3,0.9-4.9,4.2-6.3c3.9-1.7,3.4-1.3,3.7-4.2c0.2-1.8,0.6-2.8,1.8-3c2.7-0.6,0,0.4,0.5,3c0.4,2.4,2.3,2.8,3.3,1
			c2.6-4.9-3.7-7.9-1.4-12.9c1.3-2.7,5.2-3.3,5.2-3.3s0.9-0.1-0.1,0.4c-0.8,0.5-2.5,2.5-2.2,4.3c0.6,3.9,5.3,3.8,5.3,8.4
			c0,4.8-4.6,8-2.3,10.3c1.2,1.2,2.8,0.8,3.5-0.3c0.7-0.9,0.8-2.1,0.4-2.7c-0.5-0.7,3.7,0.7,3.7,5.9c0,3.3-1.1,4.2-1.5,4.9
			c0,0,0,0,0,0c-0.1,0.3-0.2,0.6,0.1,1c1.2,1.2,3.3-0.9,3.8-1.7c1.3-2.2,0.2-3.5,0.3-4c0.1-0.5,2.8,0.2,2.8,4.9
			c0,5.4-7.5,9.2-11.3,14.4c-4.5,6.2-4.6,18.5,3.3,17.6c3.2-0.4-1.2-4.6,2.7-9c2.9-3.2,5.5-1.3,5.7-1.2c0.2,0.1,0,0.4-0.7,0.5
			c-1.5,0.3-1.7,1.9-1.5,2.9c0.2,1.4,1.5,2.8,2.8,2.7c1.2,0,2.3-0.4,2.9-1.8c0.7-1.5,0-4-0.6-5.7c-0.6-1.7-4.4-7.6-2.6-11.5
			c2-4.3,5.3-5.1,7.8-4.5c1,0.3-3.6,1.2-3.4,5.2c0.1,3.6,8.9,6.7,8.9,13.9c0,5-1.7,7.1-4.8,9.6c-4.4,3.5-2,6.8,1.1,6.7
			c4.4-0.1,3.6-5.5,2.4-6.7c-1-0.9,6,0.3,6,5.3c0.1,4.6-1.9,5.3-1.9,5.3s1.7,3.6-0.5,7.8c-3.1,5.9-12,6.6-8.2,14.4
			c1.6,3.2,8.1,5.8,10.4-3.4c0.6-2.5,0.1-3.9,2-4.9c2.3-1.2,4,0.8,3.2,0.7c-1.5-0.2-2.4,1-2.4,2.3c0,1,0.6,1.8,1.5,2.2
			c0.3,0.1,0.8,0.3,1.6,0.1c2.6-0.9,1.8-3.2,1.4-4.4c-1.1-3.5-1.6-7.3,0.2-9.7c2-2.8,5.4-3.2,6-2.5c0,0,0.1,0.1-0.3,0.1
			c-0.9-0.1-4.2,1-2.2,5.5c0.9,2.1,5.5,4.9,3.5,7.8c-1.2,1.8-2.8,3.9-3,4.5c-0.2,0.6-0.4,1-0.4,1.7c0,1.4,1.1,2.6,2.4,2.6
			c1.3,0,2.4-1.2,2.4-2.6c0-0.5,0-1-0.3-1.4c-0.1-0.2-0.2-0.4-0.4-0.5c-1.1-1.7,2.7-0.2,3.4,3.3c0.7,3.6-2.7,6.6-2.7,6.6
			s1.6,3.6-1.5,7.1c-3.1,3.5-8.6,2.5-14,5.4c-3.1,1.7-3.7,6.7-0.4,8.4c0,0,0.1,0,0.1,0.1c1.1,0.6,2.6,0.8,4.2,0.4
			c1.5-0.4,2.7-1.3,3.5-2.3c0,0,0.4-0.7,0.6-1.3c0.2-0.6,0.2-1.1,0.2-1.2c0.1-1.3,0.4-1.6,0.9-2.3c0.5-0.5,1.2-0.9,1.9-1
			c0.2,0,0.4-0.1,0.7-0.1c0.7,0,1.4,0.3,2,0.6c0.3,0.2,0.8,0.7,1.8,0.9c0.5,0.1,1.1-0.2,1.4-0.5c0.3-0.4,0.6-1,0.6-1.6
			c0-0.2-0.1-0.6,0-0.7c0.3-0.1,1.5,3.5-0.9,4.6c-0.6,0.3-1.2,0.7-1.6,1.1l0,0c-0.4,0.4-0.7,0.9-0.9,1.5c-0.3,1,0.1,1.9,0.6,3.4
			c0.6,1.7-0.6,5.6-3.4,7.9c-6.1,5.1-22.3,14.7-43.7,18.5c-4.1,0.7-8.6,1-12.7,1.2c-5.6,0.2-19.7,0.2-20.3,0.2
			c-10.2,0.6-12.8,4.3-12.9,4.5c-0.1,0.1-0.2,0.3-0.3,0.4c0,0-0.2-0.2-0.3-0.4c-0.6-0.7-1.3-1.3-2.1-1.8c-3.1-1.9-8.2-2.8-14.3-2.8
			c-0.4,0-5.7-0.1-5.7-0.1c-6,0-15.4-0.1-24-1.5c-23.8-4.1-41.5-17-43.6-18.4c-3.9-2.6-5.8-5.7-6.4-8.5c-0.2-1.1,0-1.6-1.1-2.9
			c0,0-0.5-0.6-1.5-0.7c-0.7-0.1-0.6,0-1.4,0C-1008.8,293.7-1009.7,292.7-1009.7,291.5z M-1001.6,523.8v-93.7h20.5v93.7H-1001.6z
			 M-977.6,405.3l-11.3-20.5h-6.9v20.5h-11.8v-54.5h20.5c13.4,0,21.4,4.8,21.4,16.9c0,8.6-4,13.3-11.3,15.5l12.2,22.1H-977.6z
			 M-961.2,350.8h44.5v10H-933v44.5h-12v-44.5h-16.2V350.8z M-921.5,523.8h-39.4v-93.7h37.5c17.2,0,33.4,4.2,33.4,23.2
			c0,13.3-8.4,19.6-17.9,21.5v0.3c11.4,2,20.4,8,20.4,22.9C-887.4,516.8-904,523.8-921.5,523.8z M-879.8,405.3h-12v-54.5h36v10h-24
			V374h17.1v9.5h-17.1V405.3z M-873.2,430.1h63.8v17.2h-43.2v20.1h31.3v16.3h-31.3V507h45.5v16.7h-66.1V430.1z M-722.7,447.3h-28
			v76.5h-20.6v-76.5h-27.9v-17.2h76.5V447.3z M-1182.3,608.9c-8.5,9.6-23.3,6.8-38.1,14.7c-8.5,4.5-10,18.2-1,22.8
			c0.1,0,0.2,0.1,0.3,0.2c3.1,1.6,7.2,2.1,11.3,1c4.2-1.1,7.5-3.5,9.4-6.3c0,0,1.2-2,1.6-3.5c0.4-1.5,0.5-3.1,0.6-3.4
			c0.3-3.5,1-4.5,2.5-6.1c1.4-1.3,3.2-2.4,5.1-2.7c0.6-0.1,1.2-0.2,1.8-0.2c2,0,3.8,0.7,5.4,1.8c0.9,0.6,2.3,2,4.8,2.3
			c1.4,0.2,2.9-0.4,3.8-1.4c0.9-1,1.7-2.6,1.6-4.2c0-0.5-0.2-1.7,0.1-1.8c0.8-0.3,4.2,9.5-2.3,12.6c-1.8,0.8-3.2,1.9-4.3,3l0,0
			c-1.2,1.2-2,2.5-2.4,4c-0.8,2.8,0.2,5.1,1.7,9.3c1.7,4.5-1.7,15.1-9.3,21.4c-16.6,13.8-60.6,40-119,50.4
			c-11.2,2-23.3,2.9-34.7,3.2c-15.2,0.5-53.5,0.5-55.4,0.6c-27.7,1.5-34.9,11.8-35.2,12.1c-0.3,0.4-0.6,0.8-0.9,1.2
			c0,0-0.6-0.7-0.8-1c-1.5-1.8-3.5-3.5-5.8-4.9c-8.5-5.2-22.2-7.7-39-7.7c-1.2,0-15.6-0.1-15.6-0.1c-16.3,0-42-0.2-65.3-4.2
			c-64.7-11.1-112.9-46.2-118.7-50.1c-10.6-7.1-15.7-15.6-17.4-23.2c-0.6-3,0.1-4.2-2.9-7.8c0,0-1.4-1.7-4-1.9
			c-1.9-0.2-1.7,0.1-3.9-0.1c-3.3-0.6-5.5-3.5-5.5-6.8c0-1.1,0.3-2.4,1-3.6c0.7-1.3,1.5-1.9,1.5-1.9s0.6-0.5,0.4,0.5
			c-0.3,1.5,1.1,5.7,4.7,4.2c3.6-1.5,6.4-1.6,6.6-1.6c3.9,0,7.3,1.7,9.2,4.3c0.1,0.2,0.2,0.3,0.3,0.5c1.3,2,3,4.9,5,6.1
			c6.4,3.6,10.8,0.4,10.9-2.5c0-2.2-1.1-4.5-4.5-4.5c-1.4,0-2.7,1.1-3,1.3c-0.5,0.2-1.7,0.4-1.1-0.4c0.5-0.7,14.3-11.8,18.1,1.4
			c0.9,2.9,2.1,6.3,4.4,8.5c5.9,5.6,17.9,5.3,21.2-6c1.5-5.4-1.5-12.1-7.9-14.9c-12.7-5.6-31.9-3.2-40-5.8
			c-16.8-5.5-6.3-20.1-6.3-20.1c0.4-0.5,1.5-1.2,1.3,0.7c0,0.1-0.6,3-0.6,3c-0.6,4.2,3.2,7.9,8.4,8.6c5.2,0.8,10.2-2.1,10.7-5.3
			c0.4-3.1-0.5-8.2-5.9-9.3c-5.2-1.1-8.5-3.1-11-6.7c-6.4-8.9-3.6-17.5-3.6-17.5s-10.6-6.9-9.2-16.4c1.5-9.9,8.6-7.9,8.6-7.9
			s0.2,0.1,0.1,0.2c-0.1,0.1-0.5,0.4-0.6,0.4c-0.9,0.7-1.3,1.4-1.9,2.6c-1.6,3.8-0.3,8,3.1,9.5c3.5,1.5,7.8,0.4,9.4-3.4
			c0.4-1,2.9-6.2-2.7-11.3c-0.7-0.6-1.5-1.3-2.2-2c-0.7-0.7-1.4-1.5-2-2.4c-1.2-1.8-2.1-4-2-6.9c0-1.3,0.2-2.8,0.7-4.4
			c1.5-4.5,5.6-8.3,10.4-9.3c2.4-0.5,4.5-0.7,6.1-2c1.9-1.4,3.1-3.5,3.1-5.6c0-3.2-2.5-5.7-6.1-7.1c-0.2-0.1-0.5-0.3,0.4-0.3
			c2.1-0.1,8.5,0.2,11.1,8.3c1.4,4.2-0.7,7.8-3.1,11c-3.6,4.9-8.1,10.1-2,15.6c0.9,0.8,2,1.4,3.1,1.8c4.7,1.6,10.5-1.5,8.9-6.2
			c-1-3-2.8-3.8-3.7-3.7c-0.8,0-0.4-0.2-0.4-0.2c2.5-1.2,12.8-0.7,15.7,17.5c2.6,16.2,7.4,23.1,20,22.3
			c11.2-0.8,15.6-13.5,13.5-23.2c-1.9-8.9-11.3-13.5-19.9-18.5c0,0-0.1,0-0.1,0c-1.5-0.8-2.9-1.7-4.3-2.6c0,0-0.1-0.1-0.1-0.1
			c-6.3-4.8-10.4-12.3-10.4-20.8c0-1.7,0.2-3.4,0.5-4.9c0.1-0.2,0.1-0.4,0.1-0.5c0.4-1.7,0.9-3.2,1.3-4.3c0.1-0.2,0.2-0.5,0.3-0.8
			c0.3-0.5,0.4-0.9,0.6-1.3c0.3-0.7,0.6-1,0.6-1s0,0,0,0c-0.1-0.2-0.4-0.6-0.8-1.3c-0.7-1.1-1.9-3.4-2.4-4.7
			c-0.5-1.3-1.1-3.7-1.1-5.7c0-9,6.8-16.4,15.5-17.4c0.3,0,0.1,0.3-0.2,0.5c-2.2,1.6-6,10.6,3.9,16.6c2.2,1.3,5.2,1.4,8.4,0.4
			c1.2-0.4,2.2-0.8,3-1.2h0c1.6-0.9,2.9-1.9,3.7-3.1c4.2-5.6-0.2-14.4-9.9-21.9c-0.6-0.4-4.2-3.1-5.2-4.1c-3.7-3.9-6.1-9.1-5.9-14.7
			c0.5-14.5,10.2-18.4,12.6-19.7c5-2.8,11.2-6.2,11.7-11.3c0.9-9.1-8.4-12.5-8.4-12.5s-0.6-0.4,0.3-0.5c2.1-0.3,17.5-1.2,23,7
			c7.9,11.8-0.4,21.3-1.5,22.6c-5.5,6.4-13.7,12.5-8.8,18.2c5.4,6.2,13.3,3.5,14-2c0.7-5.9-4.9-8.2-6.7-8.3c-0.7,0-0.3-0.4-0.3-0.4
			s2.5-0.6,5.8-0.6c4.5,0,10.5,1.8,12.8,9.8c3.2,10.7-13.5,32.6,8.3,34.6c13,1.2,24.2-18,9.3-37.8c-8.9-11.8-14.3-21.2-13.6-34.2
			c0.7-13,3.7-9.3,1.9-17.5c-1.7-8.2-11.9-13.4-7.8-26.3c3.8-12.3,11.2-12.5,13.1-12.3c0.3,0,0.2,0.6,0.2,0.6s-5.6,18.5,7.4,13.4
			c7.1-2.8-0.1-16.3-0.1-27c0-10.7,9.6-8.8,14.5-19.6c2.5-5.5-7.4-11.4-9.1-13.3c-0.8-0.9,1.2-1.3,1.2-1.3s12.1-1.1,18.1,7.1
			c5,6.8,4.1,15.1,1,22.1c-3.2,7.1-10.8,8.5-7,17.8c2.6,6.4,8.8,6.1,10.6,5.6c4.8-1.5,15-4.9,24.6-0.4c9.8,4.6,15.7,16.1,15.7,21.7
			c0,0.4-0.1,1.2-0.5,0.4c-0.4-0.9-5.9-10.8-18.2-12c-23.6-2.4-27.5,38.4-1.3,42c21.2,2.9,30-9.5,31.2-21.3
			c0.6-6.5,0-17.7-12.1-28.6c-14.9-13.4-23.9-24.3-23.3-38.7c0.6-16,6.6-16.9,6.6-16.9s0.8,0,0.1,1.2c-1.2,2.4-0.3,9.3,1.9,14.2
			c1,2.2,3.7,6.9,10.6,7c5.7,0.1,10.3-4.8,10.3-10.6c0-4.7-5.1-10-10.1-11.9c-0.1,0-12-4.5-15.4-11.9c-7.2-15.8,1.9-28.9,16.1-32
			c1.1-0.3,1.1,0,0.6,0.4c-0.5,0.3-6.3,5.1-8.1,9.6c-2,4.8-2,10.5,6.6,14.2c10.8,4.6,22.4-5.6,26.3,7.8c1.2,4,1.5,4.3,3,7.9
			c2.7,6.2,6.7,10.7,14.1,9.8c10-1.4,18.5-18.9-1.5-27.3c-7.6-3.2-15.4-2.6-21.4-12.9c-5.5-9.4-5.1-18.8-3.1-25.9
			c2.3-8.1,5.8-11.3,8-12.5c5.3-2.9,8.3-1.8,8.3-1.8s0.9,0.4-0.3,1.1c-3.5,2.1-3.7,16.4,6.5,15.5c7.6-0.7,7.6-6.6,4.5-15.7
			c-0.8-2.2-1.1-4.7-0.6-7.3c0.8-4.8,3.3-8.4,7.2-10.2c1-0.5,2.4-1,4.9-1.6c1.6-0.4,4.2-0.6,5.3-3.8c2.9-8.2-7.2-12.2-5.9-14.3
			c1.3-2.1,19.5,4.8,15.5,23.4c-0.5,2.2-1,4.2-1.6,5.9c-2,6.3-4.3,10.2-4.7,13.5c-0.2,1.4,0,2.7,0.7,4c1.7,3.2,3.6,3.8,5.2,4.2
			c4.4,1.1,10.7-2.3,10.4-10.3c0-5-3.5-10.6,3.5-6.8c7.2,3.9,17.8,14.7,10.3,29.7c-2.3,4.5-5.5,6.2-9.9,8.5
			c-3.2,1.6-5.2,5.1-5.2,8.9c0,5.3,4.3,9.6,9.7,9.6c4.2,0.1,12-2.9,10.4-15.6c-0.1-0.9-0.5-1.5-0.9-2c-1.3-1.8,0.6-0.8,0.7-0.8
			c2.1,0.9,23.5,11.6,9.1,32.7c-11.5,16.8-19,32.2-7.4,39.3c10.2,6.2,22.4-2.8,19.8-14c-1-4.4-9.8-6.4-8.4-18.5
			c1.3-11.1,10.1-9.2,10.1-9.2s0.9,0.5-0.5,1.7c-3.1,3-2.4,15.5,7.7,13.3c8.1-1.8,4-11.4,0.1-18.5c-3.9-7.1-6.6-16.1,1.1-23.4
			c5.8-5.5,11.1-2.9,11.4-2.7c0.3,0.2,0.2,0.5-0.6,0.4c-1.4-0.2-3.9,1.6-5.1,3.1c-1.6,2-2,3.9-1.7,6.1c0.4,2.8,3.5,4.9,7.7,6.6
			c4.2,1.7,6.5,5.9,6.5,10.6c0,3.7-1.3,5.2-3.9,8.5c-2.8,3.5-1.9,7.6,3,12.7c6.2,6.4,11,12.5,9.7,22.5c-1.6,12.6-13,18.4-17.7,23.9
			c-10.2,11.8-13.9,22.7-6.5,37.3c6.5,12.8,27,19.5,39.8,3.4c6.8-8.5,9.9-32.4-15.6-30c-9.5,0.9-12.7,9.6-13,13.3
			c-0.1,0.9-0.3,0.6-0.6,0.1c-0.7-1.6-0.8-3.1-0.8-5c0-3.5,2.5-13.4,11.5-17.2c10.7-4.5,9.2-3.5,10.1-11.4c0.5-4.9,1.5-7.6,5-8.3
			c7.2-1.5-0.1,1,1.3,8.3c1.2,6.4,6.3,7.7,9,2.7c7-13.3-10.2-21.6-3.9-35.1c3.5-7.5,14-9,14-9s2.3-0.2-0.2,1.2
			c-2.3,1.2-6.9,6.8-6.1,11.8c1.6,10.6,14.4,10.3,14.4,23c0,13-12.5,21.9-6.3,28.1c3.2,3.2,7.6,2.1,9.6-0.7c1.9-2.5,2.3-5.6,1.2-7.4
			c-1.3-2,10.2,2,10.1,16.1c0,9.1-3,11.3-4.1,13.3c0,0,0,0,0,0.1c-0.4,0.8-0.7,1.7,0.3,2.6c3.2,3.2,8.9-2.4,10.2-4.7
			c3.6-6,0.6-9.5,0.9-10.9c0.3-1.4,7.7,0.5,7.6,13.4c0,14.7-20.4,25.1-30.8,39.2c-12.2,16.8-12.4,50.5,9,48c8.8-1-3.4-12.5,7.3-24.4
			c7.9-8.8,15.1-3.6,15.5-3.3c0.4,0.3,0.1,1-2,1.4c-4.1,0.8-4.6,5.2-4.2,7.8c0.6,3.9,4.1,7.5,7.6,7.4c3.3-0.1,6.3-1,8-4.9
			c1.8-4,0.1-10.8-1.6-15.4c-1.7-4.7-12.1-20.7-7.1-31.4c5.4-11.6,14.4-13.9,21.3-12.3c2.8,0.7-9.7,3.4-9.4,14
			c0.3,9.9,24.3,18.3,24.3,37.9c0,13.5-4.5,19.3-13.1,26.2c-12,9.5-5.4,18.4,3,18.3c12-0.2,9.9-15,6.6-18.2
			c-2.6-2.5,16.2,0.8,16.4,14.5c0.2,12.6-5.2,14.5-5.2,14.5s4.6,9.9-1.4,21.3c-8.3,16-32.7,17.9-22.2,39.2
			c4.3,8.8,22.2,15.8,28.2-9.2c1.6-6.8,0.4-10.7,5.5-13.2c6.3-3.2,10.9,2.2,8.8,2c-4-0.5-6.6,2.8-6.6,6.3c0,2.7,1.7,5,4.1,5.9
			c0.9,0.3,2.3,0.8,4.3,0.2c7.1-2.4,4.8-8.6,3.7-11.9c-3.1-9.5-4.5-19.7,0.4-26.5c5.6-7.7,14.7-8.8,16.5-6.7c0,0,0.3,0.4-0.8,0.2
			c-2.4-0.3-11.4,2.7-6.1,15.1c2.5,5.8,15,13.2,9.5,21.3c-3.2,4.8-7.6,10.7-8.2,12.3c-0.6,1.6-1.2,2.8-1.2,4.5c0,3.9,2.9,7,6.5,7
			c3.6,0,6.5-3.2,6.5-7c0-1.4-0.1-2.7-0.8-3.8c-0.3-0.5-0.7-1-1-1.5c-2.9-4.6,7.3-0.6,9.3,9.1c2,9.7-7.3,17.9-7.3,17.9
			S-1173.7,599.3-1182.3,608.9z"/>
	</g>
</g>
<g>
	<g>
		<defs>
			<rect id="SVGID_19_" width="376.5" height="233.7"/>
		</defs>
		<clipPath id="SVGID_6_">
			<use xlink:href="#SVGID_19_"  style="overflow:visible;"/>
		</clipPath>
		<path class="st15" d="M76.8,124.5c0-2.5-1.5-3.8-5.2-3.8h-5.2v7.6h5.1C75.1,128.3,76.8,126.9,76.8,124.5z"/>
		<path class="st15" d="M71.7,133.2h-5.3v8.3H72c3.8,0,5.5-1.5,5.5-4.2C77.5,134.5,75.5,133.2,71.7,133.2z"/>
		<polygon class="st16" points="94.3,70.7 86.3,56.9 78.4,70.7 		"/>
		<polygon class="st17" points="68.9,56.9 60.9,70.7 76.8,70.7 		"/>
		<path class="st15" d="M50.7,92.1h-2.7v5h2.7c2.3,0,3.4-0.7,3.4-2.5C54.1,92.8,53,92.1,50.7,92.1z"/>
		<polygon class="st18" points="77.6,41.8 69.6,55.6 85.6,55.6 		"/>
		<path class="st15" d="M126.1,94.6c0-1.8-1.1-2.5-3.4-2.5h-2.7v5h2.7C125,97.1,126.1,96.4,126.1,94.6z"/>
		<polygon class="st15" points="33.2,93.9 33.2,93.9 31,100.1 35.3,100.1 		"/>
		<path class="st15" d="M99.9,97.9c0,3.8,1.8,6.2,4.6,6.2c2.8,0,4.6-2.4,4.6-6.2c0-3.8-1.8-6.1-4.6-6.1
			C101.7,91.8,99.9,94.1,99.9,97.9z"/>
		<path class="st15" d="M-181-25.4v263.9h651.2V-25.4H-181z M116,88.8h6.9c4.5,0,7.2,1.6,7.2,5.6c0,2.9-1.4,4.5-3.8,5.2l4.1,7.4
			h-4.2l-3.8-6.9h-2.3v6.9H116V88.8z M113.1,97.9c0,6.4-4.2,9.5-8.6,9.5c-4.4,0-8.6-3.1-8.6-9.5c0-6.4,4.2-9.5,8.6-9.5
			C108.9,88.5,113.1,91.5,113.1,97.9z M31.4,88.8h3.8l6.5,18.3h-4.1l-1.4-4.1H30l-1.4,4.1h-3.7L31.4,88.8z M15.9,115.4h25.6v5.8
			h-9.4v25.6h-6.9v-25.6h-9.3V115.4z M28,161.3c-0.1-0.2-0.1-0.4-0.1-0.7c-0.5,0.5-1.1,0.7-1.8,0.7c-0.8,0-1.3-0.4-1.3-1.2
			c0-0.9,0.8-1.6,3.1-1.9V158c0-0.6-0.3-0.9-0.9-0.9c-0.7,0-1.2,0.3-1.7,0.7l-0.3-0.4c0.6-0.5,1.2-0.9,2.1-0.9c1,0,1.5,0.6,1.5,1.5
			v2.1c0,0.6,0,0.9,0.1,1.1H28z M32.4,157.1c0,0-0.2,0-0.2,0c-0.8,0-1.3,0.4-1.7,1.1v3h-0.6v-4.6h0.6v0.9h0c0.4-0.6,0.9-1,1.8-1h0.1
			L32.4,157.1z M35.7,161.3c-0.1,0-0.4,0.1-0.6,0.1c-0.9,0-1.2-0.3-1.2-1.1v-3h-0.8v-0.5h0.8V155h0.6v1.7h1.2v0.5h-1.2v2.9
			c0,0.5,0.2,0.8,0.7,0.8c0.2,0,0.4,0,0.5-0.1V161.3z M41.8,159.5h-1.7v-1.7h1.7V159.5z M43.3,69c0-0.1,0-0.3,0.1-0.4
			c0.1-0.2,0.2-0.2,0.2-0.2s0.1-0.1,0,0.1c0,0.2,0.1,0.7,0.6,0.5c0.4-0.2,0.8-0.2,0.8-0.2c0.5,0,0.9,0.2,1.1,0.5c0,0,0,0,0,0.1
			c0.2,0.3,0.4,0.6,0.6,0.7c0.8,0.4,1.3,0.1,1.3-0.3c0-0.3-0.1-0.6-0.6-0.6c-0.2,0-0.3,0.1-0.4,0.2c-0.1,0-0.2,0-0.1-0.1
			c0.1-0.1,1.8-1.5,2.2,0.2c0.1,0.4,0.3,0.8,0.5,1c0.7,0.7,2.2,0.6,2.6-0.7c0.2-0.7-0.2-1.5-1-1.8c-1.6-0.7-3.9-0.4-4.9-0.7
			c-2.1-0.7-0.8-2.5-0.8-2.5c0-0.1,0.2-0.1,0.2,0.1c0,0-0.1,0.4-0.1,0.4c-0.1,0.5,0.4,1,1,1.1c0.6,0.1,1.3-0.3,1.3-0.7
			c0.1-0.4-0.1-1-0.7-1.1c-0.6-0.1-1-0.4-1.4-0.8c-0.8-1.1-0.4-2.2-0.4-2.2s-1.3-0.9-1.1-2c0.2-1.2,1.1-1,1.1-1s0,0,0,0
			c0,0-0.1,0-0.1,0.1c-0.1,0.1-0.2,0.2-0.2,0.3c-0.2,0.5,0,1,0.4,1.2c0.4,0.2,1,0,1.2-0.4c0-0.1,0.4-0.8-0.3-1.4
			c-0.1-0.1-0.2-0.2-0.3-0.2c-0.1-0.1-0.2-0.2-0.2-0.3c-0.2-0.2-0.3-0.5-0.3-0.8c0-0.2,0-0.3,0.1-0.5c0.2-0.6,0.7-1,1.3-1.1
			c0.3-0.1,0.6-0.1,0.7-0.3c0.2-0.2,0.4-0.4,0.4-0.7c0-0.4-0.3-0.7-0.8-0.9c0,0-0.1,0,0.1,0c0.3,0,1,0,1.4,1c0.2,0.5-0.1,1-0.4,1.4
			c-0.4,0.6-1,1.2-0.2,1.9c0.1,0.1,0.2,0.2,0.4,0.2c0.6,0.2,1.3-0.2,1.1-0.8c-0.1-0.4-0.3-0.5-0.5-0.5c-0.1,0-0.1,0-0.1,0
			c0.3-0.1,1.6-0.1,1.9,2.2c0.3,2,0.9,2.8,2.5,2.7c1.4-0.1,1.9-1.7,1.7-2.9c-0.2-1.1-1.4-1.7-2.4-2.3c0,0,0,0,0,0
			c-0.2-0.1-0.4-0.2-0.5-0.3c0,0,0,0,0,0c-0.8-0.6-1.3-1.5-1.3-2.6c0-0.2,0-0.4,0.1-0.6c0,0,0,0,0-0.1c0-0.2,0.1-0.4,0.2-0.5
			c0,0,0-0.1,0-0.1c0-0.1,0.1-0.1,0.1-0.2c0-0.1,0.1-0.1,0.1-0.1s0,0,0,0c0,0,0-0.1-0.1-0.2c-0.1-0.1-0.2-0.4-0.3-0.6
			C51.1,51,51,50.7,51,50.4c0-1.1,0.8-2,1.9-2.1c0,0,0,0,0,0.1c-0.3,0.2-0.7,1.3,0.5,2c0.3,0.2,0.6,0.2,1,0c0.1,0,0.3-0.1,0.4-0.1h0
			c0.2-0.1,0.4-0.2,0.5-0.4c0.5-0.7,0-1.8-1.2-2.7c-0.1-0.1-0.5-0.4-0.6-0.5c-0.4-0.5-0.7-1.1-0.7-1.8c0.1-1.8,1.3-2.3,1.5-2.4
			c0.6-0.3,1.4-0.8,1.4-1.4c0.1-1.1-1-1.5-1-1.5s-0.1,0,0-0.1c0.3,0,2.2-0.1,2.8,0.9c1,1.4,0,2.6-0.2,2.8c-0.7,0.8-1.7,1.5-1.1,2.2
			c0.7,0.8,1.6,0.4,1.7-0.3c0.1-0.7-0.6-1-0.8-1c-0.1,0,0-0.1,0-0.1s0.3-0.1,0.7-0.1c0.6,0,1.3,0.2,1.6,1.2c0.4,1.3-1.7,4,1,4.3
			c1.6,0.1,3-2.2,1.1-4.6c-1.1-1.5-1.8-2.6-1.7-4.2c0.1-1.6,0.5-1.1,0.2-2.1c-0.2-1-1.5-1.6-1-3.2c0.5-1.5,1.4-1.5,1.6-1.5
			c0,0,0,0.1,0,0.1s-0.7,2.3,0.9,1.6c0.9-0.3,0-2,0-3.3c0-1.3,1.2-1.1,1.8-2.4c0.3-0.7-0.9-1.4-1.1-1.6c-0.1-0.1,0.1-0.2,0.1-0.2
			s1.5-0.1,2.2,0.9c0.6,0.8,0.5,1.9,0.1,2.7c-0.4,0.9-1.3,1-0.9,2.2c0.3,0.8,1.1,0.8,1.3,0.7c0.6-0.2,1.8-0.6,3-0.1
			c1.2,0.6,1.9,2,1.9,2.7c0,0.1,0,0.1-0.1,0.1c0-0.1-0.7-1.3-2.2-1.5c-2.9-0.3-3.4,4.7-0.2,5.2c2.6,0.4,3.7-1.2,3.8-2.6
			c0.1-0.8,0-2.2-1.5-3.5c-1.8-1.6-2.9-3-2.9-4.8c0.1-2,0.8-2.1,0.8-2.1s0.1,0,0,0.2c-0.1,0.3,0,1.1,0.2,1.7
			c0.1,0.3,0.5,0.8,1.3,0.9c0.7,0,1.3-0.6,1.3-1.3c0-0.6-0.6-1.2-1.2-1.5c0,0-1.5-0.5-1.9-1.5c-0.9-1.9,0.2-3.5,2-3.9
			c0.1,0,0.1,0,0.1,0c-0.1,0-0.8,0.6-1,1.2c-0.2,0.6-0.2,1.3,0.8,1.7c1.3,0.6,2.8-0.7,3.2,1c0.1,0.5,0.2,0.5,0.4,1
			c0.3,0.8,0.8,1.3,1.7,1.2c1.2-0.2,2.3-2.3-0.2-3.4c-0.9-0.4-1.9-0.3-2.6-1.6c-0.7-1.2-0.6-2.3-0.4-3.2c0.3-1,0.7-1.4,1-1.5
			c0.7-0.4,1-0.2,1-0.2s0.1,0,0,0.1c-0.4,0.3-0.5,2,0.8,1.9c0.9-0.1,0.9-0.8,0.5-1.9C75,18.4,75,18.1,75,17.8c0.1-0.6,0.4-1,0.9-1.3
			c0.1-0.1,0.3-0.1,0.6-0.2c0.2,0,0.5-0.1,0.7-0.5c0.4-1-0.9-1.5-0.7-1.8c0.2-0.3,2.4,0.6,1.9,2.9c-0.1,0.3-0.1,0.5-0.2,0.7
			c-0.2,0.8-0.5,1.3-0.6,1.7c0,0.2,0,0.3,0.1,0.5c0.2,0.4,0.4,0.5,0.6,0.5c0.5,0.1,1.3-0.3,1.3-1.3c0-0.6-0.4-1.3,0.4-0.8
			c0.9,0.5,2.2,1.8,1.3,3.7c-0.3,0.6-0.7,0.8-1.2,1c-0.4,0.2-0.6,0.6-0.6,1.1c0,0.7,0.5,1.2,1.2,1.2c0.5,0,1.5-0.4,1.3-1.9
			c0-0.1-0.1-0.2-0.1-0.3c-0.2-0.2,0.1-0.1,0.1-0.1c0.3,0.1,2.9,1.4,1.1,4c-1.4,2.1-2.3,4-0.9,4.8c1.3,0.8,2.8-0.3,2.4-1.7
			c-0.1-0.5-1.2-0.8-1-2.3c0.2-1.4,1.2-1.1,1.2-1.1s0.1,0.1-0.1,0.2c-0.4,0.4-0.3,1.9,1,1.6c1-0.2,0.5-1.4,0-2.3
			c-0.5-0.9-0.8-2,0.1-2.9c0.7-0.7,1.4-0.4,1.4-0.3c0,0,0,0.1-0.1,0c-0.2,0-0.5,0.2-0.6,0.4c-0.2,0.2-0.2,0.5-0.2,0.8
			c0.1,0.3,0.4,0.6,0.9,0.8c0.5,0.2,0.8,0.7,0.8,1.3c0,0.5-0.2,0.6-0.5,1c-0.3,0.4-0.2,0.9,0.4,1.6c0.8,0.8,1.3,1.5,1.2,2.8
			c-0.2,1.5-1.6,2.3-2.2,2.9c-1.2,1.4-1.7,2.8-0.8,4.6c0.8,1.6,3.3,2.4,4.9,0.4c0.8-1,1.2-4-1.9-3.7c-1.2,0.1-1.6,1.2-1.6,1.6
			c0,0.1,0,0.1-0.1,0c-0.1-0.2-0.1-0.4-0.1-0.6c0-0.4,0.3-1.6,1.4-2.1c1.3-0.6,1.1-0.4,1.2-1.4c0.1-0.6,0.2-0.9,0.6-1
			c0.9-0.2,0,0.1,0.2,1c0.1,0.8,0.8,0.9,1.1,0.3c0.9-1.6-1.3-2.7-0.5-4.3c0.4-0.9,1.7-1.1,1.7-1.1s0.3,0,0,0.1
			c-0.3,0.2-0.8,0.8-0.7,1.4c0.2,1.3,1.8,1.3,1.8,2.8c0,1.6-1.5,2.7-0.8,3.5c0.4,0.4,0.9,0.3,1.2-0.1c0.2-0.3,0.3-0.7,0.1-0.9
			c-0.2-0.2,1.3,0.2,1.2,2c0,1.1-0.4,1.4-0.5,1.6c0,0,0,0,0,0c0,0.1-0.1,0.2,0,0.3c0.4,0.4,1.1-0.3,1.3-0.6c0.4-0.7,0.1-1.2,0.1-1.3
			c0-0.2,0.9,0.1,0.9,1.6c0,1.8-2.5,3.1-3.8,4.8c-1.5,2.1-1.5,6.2,1.1,5.9c1.1-0.1-0.4-1.5,0.9-3c1-1.1,1.9-0.4,1.9-0.4
			c0.1,0,0,0.1-0.2,0.2c-0.5,0.1-0.6,0.6-0.5,1c0.1,0.5,0.5,0.9,0.9,0.9c0.4,0,0.8-0.1,1-0.6c0.2-0.5,0-1.3-0.2-1.9
			c-0.2-0.6-1.5-2.5-0.9-3.9c0.7-1.4,1.8-1.7,2.6-1.5c0.3,0.1-1.2,0.4-1.2,1.7c0,1.2,3,2.3,3,4.7c0,1.7-0.6,2.4-1.6,3.2
			c-1.5,1.2-0.7,2.3,0.4,2.2c1.5,0,1.2-1.8,0.8-2.2c-0.3-0.3,2,0.1,2,1.8c0,1.5-0.6,1.8-0.6,1.8s0.6,1.2-0.2,2.6c-1,2-4,2.2-2.7,4.8
			c0.5,1.1,2.7,1.9,3.5-1.1c0.2-0.8,0-1.3,0.7-1.6c0.8-0.4,1.3,0.3,1.1,0.2c-0.5-0.1-0.8,0.3-0.8,0.8c0,0.3,0.2,0.6,0.5,0.7
			c0.1,0,0.3,0.1,0.5,0c0.9-0.3,0.6-1.1,0.5-1.5c-0.4-1.2-0.6-2.4,0.1-3.3c0.7-0.9,1.8-1.1,2-0.8c0,0,0,0-0.1,0
			c-0.3,0-1.4,0.3-0.7,1.9c0.3,0.7,1.8,1.6,1.2,2.6c-0.4,0.6-0.9,1.3-1,1.5c-0.1,0.2-0.1,0.3-0.1,0.6c0,0.5,0.4,0.9,0.8,0.9
			c0.4,0,0.8-0.4,0.8-0.9c0-0.2,0-0.3-0.1-0.5c0-0.1-0.1-0.1-0.1-0.2c-0.4-0.6,0.9-0.1,1.1,1.1c0.2,1.2-0.9,2.2-0.9,2.2
			s0.6,1.2-0.5,2.4c-1,1.2-2.9,0.8-4.7,1.8c-1,0.6-1.2,2.2-0.1,2.8c0,0,0,0,0,0c0.4,0.2,0.9,0.3,1.4,0.1c0.5-0.1,0.9-0.4,1.2-0.8
			c0,0,0.1-0.2,0.2-0.4c0.1-0.2,0.1-0.4,0.1-0.4c0-0.4,0.1-0.6,0.3-0.8c0.2-0.2,0.4-0.3,0.6-0.3c0.1,0,0.1,0,0.2,0
			c0.2,0,0.5,0.1,0.7,0.2c0.1,0.1,0.3,0.2,0.6,0.3c0.2,0,0.4-0.1,0.5-0.2c0.1-0.1,0.2-0.3,0.2-0.5c0-0.1,0-0.2,0-0.2
			c0.1,0,0.5,1.2-0.3,1.6c-0.2,0.1-0.4,0.2-0.5,0.4l0,0c-0.1,0.1-0.2,0.3-0.3,0.5c-0.1,0.3,0,0.6,0.2,1.1c0.2,0.6-0.2,1.9-1.1,2.6
			c-2,1.7-7.5,4.9-14.6,6.2c-1.4,0.2-2.9,0.4-4.3,0.4c-1.9,0.1-6.6,0.1-6.8,0.1c-3.4,0.2-4.3,1.4-4.3,1.5c0,0-0.1,0.1-0.1,0.1
			c0,0-0.1-0.1-0.1-0.1c-0.2-0.2-0.4-0.4-0.7-0.6c-1.1-0.6-2.7-0.9-4.8-0.9c-0.1,0-1.9,0-1.9,0c-2,0-5.2,0-8-0.5
			c-8-1.4-13.9-5.7-14.6-6.2c-1.3-0.9-1.9-1.9-2.1-2.8c-0.1-0.4,0-0.5-0.4-1c0,0-0.2-0.2-0.5-0.2c-0.2,0-0.2,0-0.5,0
			C43.6,69.7,43.3,69.4,43.3,69z M48.8,157.1c0,0-0.2,0-0.2,0c-0.8,0-1.3,0.4-1.7,1.1v3h-0.6v-4.6h0.6v0.9h0c0.4-0.6,0.9-1,1.8-1
			h0.1L48.8,157.1z M46,146.7v-31.4h6.9v31.4H46z M53.2,159.1h-3.3c0,1.1,0.7,1.8,1.5,1.8c0.7,0,1.1-0.3,1.4-0.8l0.4,0.3
			c-0.4,0.6-1,1.1-1.8,1.1c-1.1,0-2-0.8-2-2.4c0-1.6,1.1-2.4,2-2.4c1.1,0,1.9,0.8,1.9,2.4V159.1z M55.7,161.3
			c-0.8,0-1.5-0.4-1.8-0.8l0.4-0.4c0.4,0.4,0.8,0.7,1.4,0.7c0.8,0,1.2-0.3,1.2-0.8c0-0.5-0.4-0.7-1.3-0.9c-1.1-0.3-1.6-0.5-1.6-1.3
			c0-0.7,0.6-1.2,1.6-1.2c0.8,0,1.3,0.3,1.7,0.7l-0.3,0.4c-0.4-0.4-0.8-0.6-1.3-0.6c-0.7,0-1,0.3-1,0.7c0,0.4,0.3,0.6,1.1,0.8
			c1.2,0.3,1.8,0.6,1.8,1.5C57.5,160.9,56.8,161.3,55.7,161.3z M54,107.1l-3.8-6.9h-2.3v6.9H44V88.8h6.9c4.5,0,7.2,1.6,7.2,5.6
			c0,2.9-1.4,4.5-3.8,5.2l4.1,7.4H54z M59.3,161.3h-0.6v-4.6h0.6V161.3z M59.3,155.6h-0.6v-0.6h0.6V155.6z M59.5,88.8h14.9v3.4H69
			v14.9h-4V92.2h-5.4V88.8z M62.3,161.3c-0.8,0-1.5-0.4-1.8-0.8l0.4-0.4c0.4,0.4,0.8,0.7,1.4,0.7c0.8,0,1.2-0.3,1.2-0.8
			c0-0.5-0.4-0.7-1.3-0.9c-1.1-0.3-1.6-0.5-1.6-1.3c0-0.7,0.6-1.2,1.6-1.2c0.8,0,1.3,0.3,1.7,0.7l-0.3,0.4c-0.4-0.4-0.8-0.6-1.3-0.6
			c-0.7,0-1,0.3-1,0.7c0,0.4,0.3,0.6,1.1,0.8c1.2,0.3,1.8,0.6,1.8,1.5C64,160.9,63.3,161.3,62.3,161.3z M67.2,161.3
			c-0.1,0-0.4,0.1-0.6,0.1c-0.9,0-1.2-0.3-1.2-1.1v-3h-0.8v-0.5h0.8V155H66v1.7h1.2v0.5H66v2.9c0,0.5,0.2,0.8,0.7,0.8
			c0.2,0,0.4,0,0.5-0.1V161.3z M71.2,161.3c-0.1-0.2-0.1-0.4-0.1-0.7c-0.5,0.5-1.1,0.7-1.8,0.7c-0.8,0-1.3-0.4-1.3-1.2
			c0-0.9,0.8-1.6,3.1-1.9V158c0-0.6-0.3-0.9-0.9-0.9c-0.7,0-1.2,0.3-1.7,0.7l-0.3-0.4c0.6-0.5,1.2-0.9,2.1-0.9c1,0,1.5,0.6,1.5,1.5
			v2.1c0,0.6,0,0.9,0.1,1.1H71.2z M76.8,161.3h-0.6V158c0-0.6-0.3-1-0.9-1c-0.6,0-1.1,0.3-1.6,0.8v3.4h-0.6v-4.6h0.6v0.7
			c0.4-0.4,1-0.8,1.8-0.8c0.9,0,1.4,0.5,1.4,1.4V161.3z M79.9,161.4c-1.1,0-2-0.9-2-2.4c0-1.7,1-2.4,2.1-2.4c1,0,1.5,0.6,1.8,1.3
			l-0.5,0.2c-0.3-0.6-0.6-1-1.3-1c-0.7,0-1.4,0.5-1.4,1.9c0,1.2,0.6,1.9,1.4,1.9c0.6,0,1-0.3,1.3-1l0.5,0.2
			C81.3,160.9,80.8,161.4,79.9,161.4z M72.8,146.7H59.7v-31.4h12.5c5.8,0,11.2,1.4,11.2,7.8c0,4.5-2.8,6.6-6,7.2v0.1
			c3.8,0.7,6.8,2.7,6.8,7.7C84.2,144.4,78.7,146.7,72.8,146.7z M86.3,159.1H83c0,1.1,0.7,1.8,1.5,1.8c0.7,0,1.1-0.3,1.4-0.8l0.4,0.3
			c-0.4,0.6-1,1.1-1.8,1.1c-1.1,0-2-0.8-2-2.4c0-1.6,1.1-2.4,2-2.4c1.1,0,1.9,0.8,1.9,2.4V159.1z M86.8,107.1h-4V88.8h12.1v3.4h-8
			v4.4h5.7v3.2h-5.7V107.1z M89,115.4h21.4v5.8H95.9v6.7h10.5v5.5H95.9v7.8h15.2v5.6H89V115.4z M92.8,159.5h-1.7v-1.7h1.7V159.5z
			 M99.5,155.3c-0.1,0-0.2,0-0.3,0c-0.4,0-0.8,0.2-0.8,0.7v0.7h1v0.5h-1v4.1h-0.6v-4.1H97v-0.5h0.8V156c0-0.8,0.4-1.2,1.3-1.2
			c0.1,0,0.3,0,0.4,0V155.3z M102.9,157.1c0,0-0.2,0-0.2,0c-0.8,0-1.3,0.4-1.7,1.1v3h-0.6v-4.6h0.6v0.9h0c0.4-0.6,0.9-1,1.8-1h0.1
			L102.9,157.1z M107.2,159.1h-3.3c0,1.1,0.7,1.8,1.5,1.8c0.7,0,1.1-0.3,1.4-0.8l0.4,0.3c-0.4,0.6-1,1.1-1.8,1.1c-1.1,0-2-0.8-2-2.4
			c0-1.6,1.1-2.4,2-2.4c1.1,0,1.9,0.8,1.9,2.4V159.1z M112,159.1h-3.3c0,1.1,0.7,1.8,1.5,1.8c0.7,0,1.1-0.3,1.4-0.8l0.4,0.3
			c-0.4,0.6-1,1.1-1.8,1.1c-1.1,0-2-0.8-2-2.4c0-1.6,1.1-2.4,2-2.4c1.1,0,1.9,0.8,1.9,2.4V159.1z M116.4,161.3
			c-0.1-0.2-0.1-0.4-0.1-0.7c-0.4,0.4-0.8,0.8-1.5,0.8c-1.1,0-1.9-0.8-1.9-2.4c0-1.6,0.8-2.4,2-2.4c0.6,0,1.1,0.3,1.5,0.7v-2.5h0.6
			v5.3c0,0.6,0,0.9,0.1,1.1H116.4z M120.1,161.4c-1.1,0-2.1-0.9-2.1-2.4c0-1.5,1-2.4,2.1-2.4c1.1,0,2.1,0.9,2.1,2.4
			C122.2,160.5,121.3,161.4,120.1,161.4z M130,161.3h-0.6V158c0-0.6-0.2-1-0.9-1c-0.6,0-1,0.3-1.5,0.8v3.4h-0.6V158
			c0-0.6-0.2-1-0.9-1c-0.6,0-1,0.3-1.5,0.8v3.4h-0.6v-4.6h0.6v0.7c0.5-0.5,1-0.8,1.7-0.8c0.8,0,1.1,0.3,1.3,0.8
			c0.5-0.5,1.1-0.8,1.7-0.8c0.9,0,1.3,0.5,1.3,1.4V161.3z M139.4,121.1H130v25.6h-6.9v-25.6h-9.3v-5.8h25.6V121.1z"/>
		<g style="clip-path:url(#SVGID_6_);">
			<rect x="23.5" y="154.8" class="st5" width="110.2" height="12"/>
			<path class="st14" d="M28.7,161.1c-0.1-0.2-0.1-0.4-0.1-0.7c-0.5,0.5-1.1,0.7-1.8,0.7c-0.8,0-1.3-0.4-1.3-1.2
				c0-0.9,0.8-1.6,3.1-1.9v-0.2c0-0.6-0.3-0.9-0.9-0.9c-0.7,0-1.2,0.3-1.7,0.7l-0.3-0.4c0.6-0.5,1.2-0.9,2.1-0.9
				c1,0,1.5,0.6,1.5,1.5v2.1c0,0.6,0,0.9,0.1,1.1H28.7z M33.1,157c0,0-0.2,0-0.2,0c-0.8,0-1.3,0.4-1.7,1.1v3h-0.6v-4.6h0.6v0.9h0
				c0.4-0.6,0.9-1,1.8-1h0.1L33.1,157z M36.4,161.1c-0.1,0-0.4,0.1-0.6,0.1c-0.9,0-1.2-0.3-1.2-1.1v-3h-0.8v-0.5h0.8v-1.7h0.6v1.7
				h1.2v0.5h-1.2v2.9c0,0.5,0.2,0.8,0.7,0.8c0.2,0,0.4,0,0.5-0.1V161.1z M42.5,159.4h-1.7v-1.7h1.7V159.4z M49.5,157
				c0,0-0.2,0-0.2,0c-0.8,0-1.3,0.4-1.7,1.1v3H47v-4.6h0.6v0.9h0c0.4-0.6,0.9-1,1.8-1h0.1L49.5,157z M53.9,158.9h-3.3
				c0,1.1,0.7,1.8,1.5,1.8c0.7,0,1.1-0.3,1.4-0.8l0.4,0.3c-0.4,0.6-1,1.1-1.8,1.1c-1.1,0-2-0.8-2-2.4c0-1.6,1.1-2.4,2-2.4
				c1.1,0,1.9,0.8,1.9,2.4V158.9z M56.4,161.2c-0.8,0-1.5-0.4-1.8-0.8L55,160c0.4,0.4,0.8,0.7,1.4,0.7c0.8,0,1.2-0.3,1.2-0.8
				c0-0.5-0.4-0.7-1.3-0.9c-1.1-0.3-1.6-0.5-1.6-1.3c0-0.7,0.6-1.2,1.6-1.2c0.8,0,1.3,0.3,1.7,0.7l-0.3,0.4
				c-0.4-0.4-0.8-0.6-1.3-0.6c-0.7,0-1,0.3-1,0.7c0,0.4,0.3,0.6,1.1,0.8c1.2,0.3,1.8,0.6,1.8,1.5C58.2,160.7,57.4,161.2,56.4,161.2z
				 M60,161.1h-0.6v-4.6H60V161.1z M60,155.4h-0.6v-0.6H60V155.4z M62.9,161.2c-0.8,0-1.5-0.4-1.8-0.8l0.4-0.4
				c0.4,0.4,0.8,0.7,1.4,0.7c0.8,0,1.2-0.3,1.2-0.8c0-0.5-0.4-0.7-1.3-0.9c-1.1-0.3-1.6-0.5-1.6-1.3c0-0.7,0.6-1.2,1.6-1.2
				c0.8,0,1.3,0.3,1.7,0.7l-0.3,0.4c-0.4-0.4-0.8-0.6-1.3-0.6c-0.7,0-1,0.3-1,0.7c0,0.4,0.3,0.6,1.1,0.8c1.2,0.3,1.8,0.6,1.8,1.5
				C64.7,160.7,64,161.2,62.9,161.2z M67.9,161.1c-0.1,0-0.4,0.1-0.6,0.1c-0.9,0-1.2-0.3-1.2-1.1v-3h-0.8v-0.5h0.8v-1.7h0.6v1.7h1.2
				v0.5h-1.2v2.9c0,0.5,0.2,0.8,0.7,0.8c0.2,0,0.4,0,0.5-0.1V161.1z M71.9,161.1c-0.1-0.2-0.1-0.4-0.1-0.7c-0.5,0.5-1.1,0.7-1.8,0.7
				c-0.8,0-1.3-0.4-1.3-1.2c0-0.9,0.8-1.6,3.1-1.9v-0.2c0-0.6-0.3-0.9-0.9-0.9c-0.7,0-1.2,0.3-1.7,0.7l-0.3-0.4
				c0.6-0.5,1.2-0.9,2.1-0.9c1,0,1.5,0.6,1.5,1.5v2.1c0,0.6,0,0.9,0.1,1.1H71.9z M77.5,161.1h-0.6v-3.2c0-0.6-0.3-1-0.9-1
				c-0.6,0-1.1,0.3-1.6,0.8v3.4h-0.6v-4.6h0.6v0.7c0.4-0.4,1-0.8,1.8-0.8c0.9,0,1.4,0.5,1.4,1.4V161.1z M80.6,161.2
				c-1.1,0-2-0.9-2-2.4c0-1.7,1-2.4,2.1-2.4c1,0,1.5,0.6,1.8,1.3l-0.5,0.2c-0.3-0.6-0.6-1-1.3-1c-0.7,0-1.4,0.5-1.4,1.9
				c0,1.2,0.6,1.9,1.4,1.9c0.6,0,1-0.3,1.3-1l0.5,0.2C82,160.7,81.5,161.2,80.6,161.2z M87,158.9h-3.3c0,1.1,0.7,1.8,1.5,1.8
				c0.7,0,1.1-0.3,1.4-0.8l0.4,0.3c-0.4,0.6-1,1.1-1.8,1.1c-1.1,0-2-0.8-2-2.4c0-1.6,1.1-2.4,2-2.4c1.1,0,1.9,0.8,1.9,2.4V158.9z
				 M93.5,159.4h-1.7v-1.7h1.7V159.4z M100.2,155.2c-0.1,0-0.2,0-0.3,0c-0.4,0-0.8,0.2-0.8,0.7v0.7h1v0.5h-1v4.1h-0.6V157h-0.8v-0.5
				h0.8v-0.7c0-0.8,0.4-1.2,1.3-1.2c0.1,0,0.3,0,0.4,0V155.2z M103.5,157c0,0-0.2,0-0.2,0c-0.8,0-1.3,0.4-1.7,1.1v3H101v-4.6h0.6
				v0.9h0c0.4-0.6,0.9-1,1.8-1h0.1L103.5,157z M107.9,158.9h-3.3c0,1.1,0.7,1.8,1.5,1.8c0.7,0,1.1-0.3,1.4-0.8l0.4,0.3
				c-0.4,0.6-1,1.1-1.8,1.1c-1.1,0-2-0.8-2-2.4c0-1.6,1.1-2.4,2-2.4c1.1,0,1.9,0.8,1.9,2.4V158.9z M112.7,158.9h-3.3
				c0,1.1,0.7,1.8,1.5,1.8c0.7,0,1.1-0.3,1.4-0.8l0.4,0.3c-0.4,0.6-1,1.1-1.8,1.1c-1.1,0-2-0.8-2-2.4c0-1.6,1.1-2.4,2-2.4
				c1.1,0,1.9,0.8,1.9,2.4V158.9z M117.1,161.1c-0.1-0.2-0.1-0.4-0.1-0.7c-0.4,0.4-0.8,0.8-1.5,0.8c-1.1,0-1.9-0.8-1.9-2.4
				c0-1.6,0.8-2.4,2-2.4c0.6,0,1.1,0.3,1.5,0.7v-2.5h0.6v5.3c0,0.6,0,0.9,0.1,1.1H117.1z M120.8,161.2c-1.1,0-2.1-0.9-2.1-2.4
				c0-1.5,1-2.4,2.1-2.4c1.1,0,2.1,0.9,2.1,2.4C122.9,160.4,122,161.2,120.8,161.2z M130.7,161.1h-0.6v-3.2c0-0.6-0.2-1-0.9-1
				c-0.6,0-1,0.3-1.5,0.8v3.4h-0.6v-3.2c0-0.6-0.2-1-0.9-1c-0.6,0-1,0.3-1.5,0.8v3.4H124v-4.6h0.6v0.7c0.5-0.5,1-0.8,1.7-0.8
				c0.8,0,1.1,0.3,1.3,0.8c0.5-0.5,1.1-0.8,1.7-0.8c0.9,0,1.3,0.5,1.3,1.4V161.1z M85.1,156.9c-0.7,0-1.3,0.5-1.4,1.5h2.7
				C86.4,157.6,86,156.9,85.1,156.9z M26.1,160c0,0.5,0.3,0.7,0.8,0.7c0.6,0,1.2-0.3,1.7-0.7v-1.4C26.6,158.9,26.1,159.4,26.1,160z
				 M106,156.9c-0.7,0-1.3,0.5-1.4,1.5h2.7C107.2,157.6,106.8,156.9,106,156.9z M69.3,160c0,0.5,0.3,0.7,0.8,0.7
				c0.6,0,1.2-0.3,1.7-0.7v-1.4C69.8,158.9,69.3,159.4,69.3,160z M52,156.9c-0.7,0-1.3,0.5-1.4,1.5h2.7
				C53.2,157.6,52.8,156.9,52,156.9z M110.8,156.9c-0.7,0-1.3,0.5-1.4,1.5h2.7C112,157.6,111.6,156.9,110.8,156.9z M120.8,156.9
				c-0.9,0-1.5,0.8-1.5,1.9c0,1,0.5,1.9,1.5,1.9c0.9,0,1.5-0.8,1.5-1.9C122.3,157.8,121.8,156.9,120.8,156.9z M115.6,156.9
				c-0.8,0-1.4,0.6-1.4,1.9c0,1.3,0.6,1.9,1.4,1.9c0.6,0,1-0.3,1.4-0.8v-2.2C116.5,157.2,116.1,156.9,115.6,156.9z"/>
		</g>
	</g>
</g>
<g>
	<path class="st14" d="M152.3,48.7c0.4-1.3,1-2.4,1.8-3.3c0.8-0.9,1.8-1.7,3-2.2c1.2-0.5,2.6-0.8,4.1-0.8c1.2,0,2.3,0.2,3.4,0.6
		c1.1,0.4,2,0.9,2.8,1.6c0.8,0.7,1.5,1.5,1.9,2.5c0.5,1,0.7,2.1,0.7,3.4c0,1.3-0.2,2.4-0.6,3.3c-0.4,0.9-1,1.8-1.7,2.5
		c-0.7,0.7-1.5,1.4-2.3,2c-0.9,0.6-1.7,1.2-2.6,1.7s-1.7,1.2-2.6,1.9c-0.8,0.7-1.6,1.4-2.2,2.3h12.2v4.5h-18.9
		c0-1.5,0.2-2.8,0.6-3.9c0.4-1.1,1-2.1,1.7-3s1.6-1.7,2.6-2.4c1-0.7,2-1.5,3.1-2.2c0.6-0.4,1.2-0.8,1.8-1.2c0.6-0.4,1.2-0.9,1.7-1.3
		c0.5-0.5,1-1,1.3-1.7c0.4-0.6,0.5-1.3,0.5-2.1c0-1.2-0.4-2.2-1.1-2.9c-0.7-0.7-1.6-1-2.8-1c-0.8,0-1.4,0.2-1.9,0.5
		c-0.5,0.4-0.9,0.8-1.3,1.4c-0.3,0.6-0.5,1.2-0.7,1.9c-0.1,0.7-0.2,1.4-0.2,2.1h-5C151.8,51.3,151.9,49.9,152.3,48.7z"/>
	<path class="st14" d="M181.2,49.3c0.5-1.7,1.2-3.1,2-4.1c0.9-1,1.9-1.8,3-2.2c1.1-0.4,2.3-0.7,3.6-0.7c1.3,0,2.5,0.2,3.7,0.7
		c1.1,0.4,2.1,1.2,3,2.2c0.9,1,1.6,2.4,2.1,4.1c0.5,1.7,0.8,3.8,0.8,6.3c0,2.6-0.3,4.7-0.8,6.4c-0.5,1.7-1.2,3.1-2.1,4.1
		c-0.9,1-1.9,1.8-3,2.2c-1.1,0.4-2.4,0.7-3.7,0.7c-1.3,0-2.5-0.2-3.6-0.7c-1.1-0.4-2.1-1.2-3-2.2c-0.9-1-1.5-2.4-2-4.1
		c-0.5-1.7-0.8-3.9-0.8-6.4C180.5,53.1,180.7,51,181.2,49.3z M185.8,58.3c0,1,0.2,2,0.5,3c0.3,1,0.7,1.8,1.2,2.5
		c0.6,0.7,1.4,1,2.4,1c1.1,0,1.9-0.3,2.5-1c0.6-0.7,1-1.5,1.2-2.5c0.3-1,0.4-2,0.5-3c0-1,0.1-1.9,0.1-2.7c0-0.4,0-1,0-1.6
		c0-0.6-0.1-1.3-0.1-1.9c-0.1-0.7-0.2-1.3-0.4-2c-0.2-0.6-0.4-1.2-0.7-1.7c-0.3-0.5-0.7-0.9-1.2-1.2c-0.5-0.3-1.1-0.5-1.8-0.5
		c-0.7,0-1.3,0.2-1.8,0.5c-0.5,0.3-0.9,0.7-1.2,1.2c-0.3,0.5-0.5,1.1-0.7,1.7c-0.2,0.6-0.3,1.3-0.4,2c-0.1,0.7-0.1,1.3-0.1,1.9
		c0,0.6,0,1.2,0,1.6C185.7,56.4,185.7,57.3,185.8,58.3z"/>
	<path class="st14" d="M218.2,68.6V51.9h-6.5V48c0.9,0,1.8,0,2.6-0.2c0.8-0.2,1.6-0.4,2.3-0.8c0.7-0.4,1.2-0.9,1.7-1.6
		c0.5-0.7,0.8-1.5,0.9-2.5h4.2v25.7H218.2z"/>
	<path class="st14" d="M245.6,64.2c0.6,0.6,1.4,1,2.3,1c1,0,1.7-0.3,2.4-0.8c0.6-0.6,1.1-1.2,1.5-2c0.4-0.8,0.6-1.6,0.8-2.6
		c0.2-0.9,0.3-1.7,0.3-2.4l-0.1-0.1c-0.7,1-1.5,1.8-2.5,2.2s-2.1,0.7-3.3,0.7c-1.1,0-2.2-0.2-3.2-0.7c-1.1-0.5-1.9-1.1-2.7-1.9
		c-0.7-0.8-1.2-1.7-1.5-2.7c-0.3-1-0.5-2-0.5-3.1c0-1.3,0.2-2.6,0.6-3.7s1-2.1,1.8-3c0.8-0.8,1.7-1.5,2.8-2c1.1-0.5,2.3-0.7,3.7-0.7
		c2,0,3.6,0.4,4.8,1.2c1.3,0.8,2.3,1.8,3,3.1c0.8,1.3,1.3,2.7,1.6,4.3s0.4,3.2,0.4,4.8c0,1.6-0.2,3.2-0.6,4.8c-0.4,1.6-1,3-1.8,4.3
		c-0.8,1.3-1.8,2.3-3.1,3.1c-1.3,0.8-2.8,1.2-4.7,1.2c-1.1,0-2.1-0.2-3.1-0.5c-1-0.3-1.8-0.8-2.5-1.4c-0.7-0.6-1.3-1.4-1.8-2.2
		c-0.5-0.9-0.8-1.9-0.9-3h5C244.6,62.9,245,63.6,245.6,64.2z M250,55.8c0.5-0.3,0.9-0.6,1.3-1s0.6-0.9,0.8-1.5
		c0.2-0.6,0.3-1.2,0.3-1.8c0-0.6-0.1-1.2-0.3-1.7c-0.2-0.6-0.5-1.1-0.8-1.5c-0.4-0.5-0.8-0.8-1.3-1.1c-0.5-0.3-1.1-0.4-1.8-0.4
		c-0.6,0-1.2,0.1-1.7,0.4c-0.5,0.3-0.9,0.6-1.2,1.1c-0.3,0.4-0.6,0.9-0.8,1.5c-0.2,0.6-0.3,1.1-0.3,1.7c0,0.6,0.1,1.2,0.2,1.8
		c0.2,0.6,0.4,1.1,0.7,1.5c0.3,0.5,0.7,0.8,1.2,1.1c0.5,0.3,1.1,0.4,1.7,0.4C248.9,56.2,249.5,56.1,250,55.8z"/>
</g>
<g>
	<g>
		<rect x="152.2" y="80.8" class="st0" width="215.4" height="189.4"/>
		<path class="st9" d="M159,88.9h-0.9v-3.6h-4v3.6h-0.9v-7.6h0.9v3.2h4v-3.2h0.9V88.9z"/>
		<path class="st9" d="M165.9,86c0,0.9-0.2,1.7-0.7,2.2c-0.5,0.5-1.1,0.8-1.9,0.8c-0.5,0-1-0.1-1.4-0.4c-0.4-0.2-0.7-0.6-0.9-1
			c-0.2-0.4-0.3-1-0.3-1.6c0-0.9,0.2-1.7,0.7-2.2s1.1-0.8,1.9-0.8c0.8,0,1.4,0.3,1.9,0.8C165.7,84.4,165.9,85.1,165.9,86z M161.6,86
			c0,0.7,0.1,1.3,0.4,1.7c0.3,0.4,0.7,0.6,1.3,0.6c0.6,0,1-0.2,1.3-0.6s0.4-0.9,0.4-1.7c0-0.7-0.1-1.3-0.4-1.6s-0.7-0.6-1.3-0.6
			c-0.6,0-1,0.2-1.3,0.6C161.7,84.7,161.6,85.3,161.6,86z"/>
		<path class="st9" d="M171.3,88.9v-3.7c0-0.5-0.1-0.8-0.3-1s-0.5-0.3-1-0.3c-0.6,0-1,0.2-1.3,0.5c-0.3,0.3-0.4,0.9-0.4,1.6v3h-0.9
			v-5.7h0.7l0.1,0.8h0c0.2-0.3,0.4-0.5,0.7-0.7s0.7-0.2,1.1-0.2c0.7,0,1.2,0.2,1.5,0.5c0.3,0.3,0.5,0.9,0.5,1.6v3.7H171.3z"/>
		<path class="st9" d="M178.9,86c0,0.9-0.2,1.7-0.7,2.2c-0.5,0.5-1.1,0.8-1.9,0.8c-0.5,0-1-0.1-1.4-0.4c-0.4-0.2-0.7-0.6-0.9-1
			c-0.2-0.4-0.3-1-0.3-1.6c0-0.9,0.2-1.7,0.7-2.2s1.1-0.8,1.9-0.8c0.8,0,1.4,0.3,1.9,0.8C178.6,84.4,178.9,85.1,178.9,86z M174.5,86
			c0,0.7,0.1,1.3,0.4,1.7c0.3,0.4,0.7,0.6,1.3,0.6c0.6,0,1-0.2,1.3-0.6s0.4-0.9,0.4-1.7c0-0.7-0.1-1.3-0.4-1.6s-0.7-0.6-1.3-0.6
			c-0.6,0-1,0.2-1.3,0.6C174.7,84.7,174.5,85.3,174.5,86z"/>
		<path class="st9" d="M183,83.1c0.3,0,0.5,0,0.7,0.1l-0.1,0.8c-0.2-0.1-0.4-0.1-0.6-0.1c-0.5,0-0.9,0.2-1.2,0.6
			c-0.3,0.4-0.5,0.8-0.5,1.4v3.1h-0.9v-5.7h0.7l0.1,1.1h0c0.2-0.4,0.5-0.7,0.8-0.9C182.3,83.2,182.6,83.1,183,83.1z"/>
		<path class="st9" d="M188.2,88.9l-0.2-0.8h0c-0.3,0.4-0.6,0.6-0.8,0.7c-0.3,0.1-0.6,0.2-1.1,0.2c-0.6,0-1-0.1-1.3-0.4
			c-0.3-0.3-0.5-0.7-0.5-1.2c0-1.1,0.9-1.8,2.8-1.8l1,0v-0.4c0-0.4-0.1-0.8-0.3-1c-0.2-0.2-0.5-0.3-0.9-0.3c-0.5,0-1,0.1-1.6,0.4
			l-0.3-0.7c0.3-0.2,0.6-0.3,0.9-0.4s0.7-0.1,1-0.1c0.7,0,1.2,0.2,1.5,0.5c0.3,0.3,0.5,0.8,0.5,1.4v3.9H188.2z M186.3,88.3
			c0.5,0,1-0.1,1.3-0.4c0.3-0.3,0.5-0.7,0.5-1.2v-0.5l-0.9,0c-0.7,0-1.2,0.1-1.5,0.3c-0.3,0.2-0.5,0.5-0.5,0.9
			c0,0.3,0.1,0.5,0.3,0.7C185.7,88.2,185.9,88.3,186.3,88.3z"/>
		<path class="st9" d="M193.2,83.1c0.3,0,0.5,0,0.7,0.1l-0.1,0.8c-0.2-0.1-0.4-0.1-0.6-0.1c-0.5,0-0.9,0.2-1.2,0.6
			c-0.3,0.4-0.5,0.8-0.5,1.4v3.1h-0.9v-5.7h0.7l0.1,1.1h0c0.2-0.4,0.5-0.7,0.8-0.9C192.5,83.2,192.9,83.1,193.2,83.1z"/>
		<path class="st9" d="M194.1,83.2h0.9l1.2,3.2c0.3,0.7,0.4,1.3,0.5,1.6h0c0-0.2,0.1-0.5,0.3-0.9s0.6-1.7,1.4-3.9h0.9l-2.4,6.5
			c-0.2,0.6-0.5,1.1-0.8,1.4c-0.3,0.3-0.7,0.4-1.2,0.4c-0.3,0-0.5,0-0.8-0.1v-0.7c0.2,0,0.4,0.1,0.6,0.1c0.6,0,1-0.3,1.3-1l0.3-0.8
			L194.1,83.2z"/>
		<path class="st9" d="M205.4,89c-0.8,0-1.5-0.3-1.9-0.8c-0.5-0.5-0.7-1.2-0.7-2.2c0-1,0.2-1.7,0.7-2.2c0.5-0.5,1.1-0.8,2-0.8
			c0.3,0,0.5,0,0.8,0.1c0.3,0.1,0.5,0.1,0.6,0.2l-0.3,0.7c-0.2-0.1-0.4-0.1-0.6-0.2c-0.2,0-0.4-0.1-0.6-0.1c-1.2,0-1.7,0.7-1.7,2.2
			c0,0.7,0.1,1.2,0.4,1.6c0.3,0.4,0.7,0.6,1.3,0.6c0.5,0,1-0.1,1.5-0.3v0.8C206.4,88.9,205.9,89,205.4,89z"/>
		<path class="st9" d="M212,88.9v-3.7c0-0.5-0.1-0.8-0.3-1s-0.5-0.3-1-0.3c-0.6,0-1,0.2-1.3,0.5c-0.3,0.3-0.4,0.9-0.4,1.6v3h-0.9
			v-8.1h0.9v2.4c0,0.3,0,0.5,0,0.7h0.1c0.2-0.3,0.4-0.5,0.7-0.6c0.3-0.2,0.7-0.2,1.1-0.2c0.7,0,1.2,0.2,1.6,0.5
			c0.3,0.3,0.5,0.9,0.5,1.6v3.7H212z"/>
		<path class="st9" d="M218.2,88.9l-0.2-0.8h0c-0.3,0.4-0.6,0.6-0.8,0.7c-0.3,0.1-0.6,0.2-1.1,0.2c-0.6,0-1-0.1-1.3-0.4
			c-0.3-0.3-0.5-0.7-0.5-1.2c0-1.1,0.9-1.8,2.8-1.8l1,0v-0.4c0-0.4-0.1-0.8-0.3-1c-0.2-0.2-0.5-0.3-0.9-0.3c-0.5,0-1,0.1-1.6,0.4
			l-0.3-0.7c0.3-0.2,0.6-0.3,0.9-0.4s0.7-0.1,1-0.1c0.7,0,1.2,0.2,1.5,0.5c0.3,0.3,0.5,0.8,0.5,1.4v3.9H218.2z M216.2,88.3
			c0.5,0,1-0.1,1.3-0.4c0.3-0.3,0.5-0.7,0.5-1.2v-0.5l-0.9,0c-0.7,0-1.2,0.1-1.5,0.3c-0.3,0.2-0.5,0.5-0.5,0.9
			c0,0.3,0.1,0.5,0.3,0.7C215.6,88.2,215.9,88.3,216.2,88.3z"/>
		<path class="st9" d="M220.5,81.6c0-0.2,0-0.3,0.1-0.4c0.1-0.1,0.2-0.1,0.4-0.1c0.1,0,0.3,0,0.4,0.1c0.1,0.1,0.2,0.2,0.2,0.4
			c0,0.2-0.1,0.3-0.2,0.4c-0.1,0.1-0.2,0.1-0.4,0.1c-0.1,0-0.3,0-0.4-0.1C220.6,82,220.5,81.8,220.5,81.6z M221.4,88.9h-0.9v-5.7
			h0.9V88.9z"/>
		<path class="st9" d="M225.9,83.1c0.3,0,0.5,0,0.7,0.1l-0.1,0.8c-0.2-0.1-0.4-0.1-0.6-0.1c-0.5,0-0.9,0.2-1.2,0.6
			c-0.3,0.4-0.5,0.8-0.5,1.4v3.1h-0.9v-5.7h0.7l0.1,1.1h0c0.2-0.4,0.5-0.7,0.8-0.9C225.2,83.2,225.5,83.1,225.9,83.1z"/>
		<path class="st9" d="M230.3,89c-0.4,0-0.7-0.1-1-0.2c-0.3-0.1-0.6-0.3-0.8-0.6h-0.1c0,0.3,0.1,0.6,0.1,0.9v2.3h-0.9v-8.2h0.7
			l0.1,0.8h0c0.2-0.3,0.5-0.5,0.8-0.7c0.3-0.1,0.6-0.2,1-0.2c0.8,0,1.3,0.3,1.7,0.8c0.4,0.5,0.6,1.2,0.6,2.2c0,0.9-0.2,1.7-0.6,2.2
			C231.6,88.7,231,89,230.3,89z M230.1,83.8c-0.6,0-1,0.2-1.3,0.5c-0.3,0.3-0.4,0.8-0.4,1.5V86c0,0.8,0.1,1.4,0.4,1.7
			c0.3,0.3,0.7,0.5,1.3,0.5c0.5,0,0.9-0.2,1.2-0.6s0.4-0.9,0.4-1.6c0-0.7-0.1-1.3-0.4-1.6S230.6,83.8,230.1,83.8z"/>
		<path class="st9" d="M236.5,89c-0.8,0-1.5-0.3-2-0.8c-0.5-0.5-0.7-1.2-0.7-2.1c0-0.9,0.2-1.6,0.7-2.2c0.5-0.5,1.1-0.8,1.8-0.8
			c0.7,0,1.3,0.2,1.7,0.7c0.4,0.5,0.6,1.1,0.6,1.9v0.5h-3.9c0,0.7,0.2,1.2,0.5,1.5c0.3,0.3,0.8,0.5,1.4,0.5c0.6,0,1.2-0.1,1.8-0.4
			v0.8c-0.3,0.1-0.6,0.2-0.9,0.3C237.2,88.9,236.9,89,236.5,89z M236.3,83.8c-0.5,0-0.8,0.1-1.1,0.4c-0.3,0.3-0.4,0.7-0.5,1.2h3
			c0-0.5-0.1-1-0.4-1.2S236.8,83.8,236.3,83.8z"/>
		<path class="st9" d="M242.7,83.1c0.3,0,0.5,0,0.7,0.1l-0.1,0.8c-0.2-0.1-0.4-0.1-0.6-0.1c-0.5,0-0.9,0.2-1.2,0.6
			c-0.3,0.4-0.5,0.8-0.5,1.4v3.1h-0.9v-5.7h0.7l0.1,1.1h0c0.2-0.4,0.5-0.7,0.8-0.9C242,83.2,242.3,83.1,242.7,83.1z"/>
		<path class="st9" d="M248.1,87.3c0,0.5-0.2,0.9-0.6,1.2s-0.9,0.4-1.7,0.4c-0.8,0-1.3-0.1-1.8-0.4v-0.8c0.3,0.1,0.6,0.2,0.9,0.3
			c0.3,0.1,0.6,0.1,0.9,0.1c0.5,0,0.8-0.1,1-0.2s0.4-0.4,0.4-0.7c0-0.2-0.1-0.4-0.3-0.6c-0.2-0.2-0.6-0.3-1.1-0.6
			c-0.5-0.2-0.9-0.4-1.1-0.5s-0.4-0.3-0.5-0.5c-0.1-0.2-0.2-0.4-0.2-0.7c0-0.5,0.2-0.8,0.6-1.1c0.4-0.3,0.9-0.4,1.6-0.4
			c0.6,0,1.2,0.1,1.8,0.4l-0.3,0.7c-0.6-0.2-1.1-0.4-1.6-0.4c-0.4,0-0.7,0.1-0.9,0.2c-0.2,0.1-0.3,0.3-0.3,0.5c0,0.2,0,0.3,0.1,0.4
			c0.1,0.1,0.2,0.2,0.4,0.3c0.2,0.1,0.5,0.2,1,0.4c0.7,0.2,1.1,0.5,1.4,0.7S248.1,86.9,248.1,87.3z"/>
		<path class="st9" d="M254.4,86c0,0.9-0.2,1.7-0.7,2.2c-0.5,0.5-1.1,0.8-1.9,0.8c-0.5,0-1-0.1-1.4-0.4c-0.4-0.2-0.7-0.6-0.9-1
			c-0.2-0.4-0.3-1-0.3-1.6c0-0.9,0.2-1.7,0.7-2.2s1.1-0.8,1.9-0.8c0.8,0,1.4,0.3,1.9,0.8C254.2,84.4,254.4,85.1,254.4,86z M250.1,86
			c0,0.7,0.1,1.3,0.4,1.7c0.3,0.4,0.7,0.6,1.3,0.6c0.6,0,1-0.2,1.3-0.6s0.4-0.9,0.4-1.7c0-0.7-0.1-1.3-0.4-1.6s-0.7-0.6-1.3-0.6
			c-0.6,0-1,0.2-1.3,0.6C250.2,84.7,250.1,85.3,250.1,86z"/>
		<path class="st9" d="M259.8,88.9v-3.7c0-0.5-0.1-0.8-0.3-1s-0.5-0.3-1-0.3c-0.6,0-1,0.2-1.3,0.5c-0.3,0.3-0.4,0.9-0.4,1.6v3h-0.9
			v-5.7h0.7l0.1,0.8h0c0.2-0.3,0.4-0.5,0.7-0.7s0.7-0.2,1.1-0.2c0.7,0,1.2,0.2,1.5,0.5c0.3,0.3,0.5,0.9,0.5,1.6v3.7H259.8z"/>
		<path class="st9" d="M266.1,87.3c0,0.5-0.2,0.9-0.6,1.2s-0.9,0.4-1.7,0.4c-0.8,0-1.3-0.1-1.8-0.4v-0.8c0.3,0.1,0.6,0.2,0.9,0.3
			c0.3,0.1,0.6,0.1,0.9,0.1c0.5,0,0.8-0.1,1-0.2s0.4-0.4,0.4-0.7c0-0.2-0.1-0.4-0.3-0.6c-0.2-0.2-0.6-0.3-1.1-0.6
			c-0.5-0.2-0.9-0.4-1.1-0.5s-0.4-0.3-0.5-0.5c-0.1-0.2-0.2-0.4-0.2-0.7c0-0.5,0.2-0.8,0.6-1.1c0.4-0.3,0.9-0.4,1.6-0.4
			c0.6,0,1.2,0.1,1.8,0.4l-0.3,0.7c-0.6-0.2-1.1-0.4-1.6-0.4c-0.4,0-0.7,0.1-0.9,0.2c-0.2,0.1-0.3,0.3-0.3,0.5c0,0.2,0,0.3,0.1,0.4
			c0.1,0.1,0.2,0.2,0.4,0.3c0.2,0.1,0.5,0.2,1,0.4c0.7,0.2,1.1,0.5,1.4,0.7S266.1,86.9,266.1,87.3z"/>
		<path class="st9" d="M270.2,81.6c0-0.2,0-0.3,0.1-0.4c0.1-0.1,0.2-0.1,0.4-0.1c0.1,0,0.3,0,0.4,0.1c0.1,0.1,0.2,0.2,0.2,0.4
			c0,0.2-0.1,0.3-0.2,0.4c-0.1,0.1-0.2,0.1-0.4,0.1c-0.1,0-0.3,0-0.4-0.1C270.3,82,270.2,81.8,270.2,81.6z M271.2,88.9h-0.9v-5.7
			h0.9V88.9z"/>
		<path class="st9" d="M276.9,88.9v-3.7c0-0.5-0.1-0.8-0.3-1s-0.5-0.3-1-0.3c-0.6,0-1,0.2-1.3,0.5c-0.3,0.3-0.4,0.9-0.4,1.6v3H273
			v-5.7h0.7l0.1,0.8h0c0.2-0.3,0.4-0.5,0.7-0.7s0.7-0.2,1.1-0.2c0.7,0,1.2,0.2,1.5,0.5c0.3,0.3,0.5,0.9,0.5,1.6v3.7H276.9z"/>
		<path class="st9" d="M281.8,89c-0.8,0-1.5-0.3-1.9-0.8c-0.5-0.5-0.7-1.2-0.7-2.2c0-1,0.2-1.7,0.7-2.2c0.5-0.5,1.1-0.8,2-0.8
			c0.3,0,0.5,0,0.8,0.1c0.3,0.1,0.5,0.1,0.6,0.2l-0.3,0.7c-0.2-0.1-0.4-0.1-0.6-0.2c-0.2,0-0.4-0.1-0.6-0.1c-1.2,0-1.7,0.7-1.7,2.2
			c0,0.7,0.1,1.2,0.4,1.6c0.3,0.4,0.7,0.6,1.3,0.6c0.5,0,1-0.1,1.5-0.3v0.8C282.8,88.9,282.4,89,281.8,89z"/>
		<path class="st9" d="M285.4,88.9h-0.9v-8.1h0.9V88.9z"/>
		<path class="st9" d="M288.1,83.2v3.7c0,0.5,0.1,0.8,0.3,1s0.5,0.3,1,0.3c0.6,0,1-0.2,1.3-0.5c0.3-0.3,0.4-0.9,0.4-1.6v-3h0.9v5.7
			h-0.7l-0.1-0.8h0c-0.2,0.3-0.4,0.5-0.7,0.6c-0.3,0.1-0.7,0.2-1.1,0.2c-0.7,0-1.2-0.2-1.6-0.5c-0.3-0.3-0.5-0.9-0.5-1.6v-3.7H288.1
			z"/>
		<path class="st9" d="M297.7,88.1L297.7,88.1c-0.4,0.6-1,0.9-1.8,0.9c-0.7,0-1.3-0.3-1.7-0.8c-0.4-0.5-0.6-1.2-0.6-2.2
			c0-0.9,0.2-1.7,0.6-2.2s1-0.8,1.7-0.8c0.8,0,1.4,0.3,1.8,0.8h0.1l0-0.4l0-0.4v-2.3h0.9v8.1h-0.7L297.7,88.1z M295.9,88.3
			c0.6,0,1-0.2,1.3-0.5c0.3-0.3,0.4-0.8,0.4-1.5V86c0-0.8-0.1-1.4-0.4-1.7c-0.3-0.3-0.7-0.5-1.3-0.5c-0.5,0-0.9,0.2-1.2,0.6
			s-0.4,0.9-0.4,1.7c0,0.7,0.1,1.3,0.4,1.6C295,88.1,295.4,88.3,295.9,88.3z"/>
		<path class="st9" d="M302.7,89c-0.8,0-1.5-0.3-2-0.8c-0.5-0.5-0.7-1.2-0.7-2.1c0-0.9,0.2-1.6,0.7-2.2c0.5-0.5,1.1-0.8,1.8-0.8
			c0.7,0,1.3,0.2,1.7,0.7c0.4,0.5,0.6,1.1,0.6,1.9v0.5h-3.9c0,0.7,0.2,1.2,0.5,1.5c0.3,0.3,0.8,0.5,1.4,0.5c0.6,0,1.2-0.1,1.8-0.4
			v0.8c-0.3,0.1-0.6,0.2-0.9,0.3C303.4,88.9,303.1,89,302.7,89z M302.5,83.8c-0.5,0-0.8,0.1-1.1,0.4c-0.3,0.3-0.4,0.7-0.5,1.2h3
			c0-0.5-0.1-1-0.4-1.2S302.9,83.8,302.5,83.8z"/>
		<path class="st9" d="M306.1,83.7c0-0.5,0.2-0.7,0.6-0.7c0.4,0,0.6,0.2,0.6,0.7c0,0.2-0.1,0.4-0.2,0.5s-0.3,0.2-0.5,0.2
			c-0.2,0-0.3-0.1-0.4-0.2C306.2,84.2,306.1,84,306.1,83.7z M306.1,88.3c0-0.2,0.1-0.4,0.2-0.5c0.1-0.1,0.3-0.2,0.5-0.2
			c0.2,0,0.4,0.1,0.5,0.2c0.1,0.1,0.2,0.3,0.2,0.5c0,0.2-0.1,0.4-0.2,0.5S307,89,306.8,89c-0.2,0-0.3-0.1-0.4-0.2
			C306.2,88.7,306.1,88.6,306.1,88.3z"/>
		<path class="st9" d="M156.4,95.3c-0.6,0-1.1,0.2-1.4,0.7c-0.3,0.5-0.5,1.1-0.5,1.9c0,1.7,0.6,2.5,1.9,2.5c0.5,0,1.2-0.1,1.9-0.4
			v1.4c-0.6,0.3-1.3,0.4-2.1,0.4c-1.1,0-1.9-0.3-2.5-1c-0.6-0.7-0.9-1.6-0.9-2.9c0-0.8,0.1-1.5,0.4-2.1s0.7-1,1.2-1.4
			c0.5-0.3,1.2-0.5,1.9-0.5c0.7,0,1.5,0.2,2.2,0.5l-0.5,1.3c-0.3-0.1-0.6-0.3-0.9-0.4C157,95.3,156.7,95.3,156.4,95.3z"/>
		<path class="st9" d="M162.5,101.7c-0.9,0-1.7-0.3-2.2-0.8c-0.5-0.5-0.8-1.2-0.8-2.2c0-1,0.2-1.7,0.7-2.3s1.2-0.8,2-0.8
			c0.8,0,1.5,0.2,1.9,0.7c0.5,0.5,0.7,1.1,0.7,1.9v0.8h-3.7c0,0.5,0.2,0.8,0.4,1.1c0.2,0.3,0.6,0.4,1,0.4c0.3,0,0.7,0,1-0.1
			c0.3-0.1,0.6-0.2,1-0.3v1.2c-0.3,0.1-0.6,0.2-0.9,0.3S162.9,101.7,162.5,101.7z M162.2,96.8c-0.3,0-0.6,0.1-0.8,0.3
			c-0.2,0.2-0.3,0.5-0.3,0.9h2.2c0-0.4-0.1-0.7-0.3-0.9S162.6,96.8,162.2,96.8z"/>
		<path class="st9" d="M165.3,95.8h1.7l1.1,3.3c0.1,0.3,0.2,0.6,0.2,1h0c0-0.4,0.1-0.7,0.2-1l1.1-3.3h1.7l-2.5,6.5
			c-0.2,0.6-0.5,1.1-1,1.4c-0.4,0.3-0.9,0.5-1.5,0.5c-0.3,0-0.5,0-0.8-0.1v-1.3c0.2,0,0.4,0.1,0.6,0.1c0.3,0,0.5-0.1,0.7-0.3
			c0.2-0.2,0.4-0.4,0.5-0.8l0.1-0.3L165.3,95.8z"/>
		<path class="st9" d="M179.7,101.6l-0.6-1.8h-2.8l-0.6,1.8h-1.7l2.7-7.6h2l2.7,7.6H179.7z M178.8,98.5c-0.5-1.6-0.8-2.6-0.9-2.8
			s-0.1-0.4-0.1-0.5c-0.1,0.4-0.4,1.5-1,3.3H178.8z"/>
		<path class="st9" d="M184.1,101.7c-0.7,0-1.2-0.3-1.6-0.8c-0.4-0.5-0.6-1.3-0.6-2.2c0-1,0.2-1.7,0.6-2.2s0.9-0.8,1.6-0.8
			c0.7,0,1.3,0.3,1.7,0.9h0.1c-0.1-0.4-0.1-0.8-0.1-1.2v-1.9h1.6v8.1h-1.2l-0.3-0.8h-0.1C185.4,101.4,184.8,101.7,184.1,101.7z
			 M184.7,100.5c0.4,0,0.7-0.1,0.9-0.4c0.2-0.2,0.3-0.6,0.3-1.2v-0.2c0-0.6-0.1-1.1-0.3-1.3c-0.2-0.3-0.5-0.4-0.9-0.4
			c-0.4,0-0.6,0.1-0.8,0.4c-0.2,0.3-0.3,0.7-0.3,1.3s0.1,1,0.3,1.3C184,100.3,184.3,100.5,184.7,100.5z"/>
		<path class="st9" d="M192.7,101.6l-0.3-0.8h0c-0.3,0.3-0.5,0.6-0.8,0.7c-0.3,0.1-0.6,0.2-1.1,0.2c-0.6,0-1-0.2-1.3-0.5
			s-0.5-0.8-0.5-1.4c0-0.6,0.2-1.1,0.6-1.4c0.4-0.3,1.1-0.5,1.9-0.5l1,0v-0.3c0-0.6-0.3-0.9-0.9-0.9c-0.5,0-1,0.1-1.6,0.4l-0.5-1.1
			c0.7-0.3,1.4-0.5,2.2-0.5c0.8,0,1.4,0.2,1.8,0.5c0.4,0.3,0.6,0.9,0.6,1.5v3.9H192.7z M192.2,98.9l-0.6,0c-0.5,0-0.8,0.1-1,0.2
			s-0.3,0.4-0.3,0.7c0,0.4,0.3,0.7,0.8,0.7c0.4,0,0.7-0.1,0.9-0.3c0.2-0.2,0.3-0.5,0.3-0.8V98.9z"/>
		<path class="st9" d="M200.6,101.6H199v-3.4c0-0.4-0.1-0.7-0.2-0.9c-0.1-0.2-0.4-0.3-0.7-0.3c-0.4,0-0.7,0.1-0.9,0.4
			s-0.3,0.8-0.3,1.5v2.7h-1.6v-5.8h1.2l0.2,0.7h0.1c0.2-0.3,0.4-0.5,0.7-0.6c0.3-0.2,0.6-0.2,1-0.2c0.9,0,1.5,0.3,1.8,0.9h0.1
			c0.2-0.3,0.4-0.5,0.7-0.6c0.3-0.1,0.6-0.2,1-0.2c0.7,0,1.2,0.2,1.5,0.5c0.3,0.3,0.5,0.9,0.5,1.6v3.8h-1.6v-3.4
			c0-0.4-0.1-0.7-0.2-0.9c-0.1-0.2-0.4-0.3-0.7-0.3c-0.4,0-0.7,0.1-0.9,0.4c-0.2,0.3-0.3,0.7-0.3,1.3V101.6z"/>
		<path class="st9" d="M209.9,99.9c0,0.6-0.2,1-0.6,1.4s-1,0.5-1.9,0.5c-0.4,0-0.8,0-1.1-0.1c-0.3-0.1-0.6-0.1-0.8-0.3v-1.3
			c0.3,0.1,0.6,0.3,1,0.3s0.7,0.1,1,0.1c0.6,0,0.9-0.2,0.9-0.5c0-0.1,0-0.2-0.1-0.3s-0.2-0.2-0.4-0.3s-0.4-0.2-0.7-0.3
			c-0.4-0.2-0.8-0.4-1-0.5s-0.4-0.3-0.5-0.5s-0.1-0.5-0.1-0.8c0-0.5,0.2-0.9,0.6-1.2c0.4-0.3,1-0.4,1.7-0.4c0.7,0,1.4,0.2,2,0.5
			l-0.5,1.1c-0.3-0.1-0.6-0.2-0.8-0.3c-0.3-0.1-0.5-0.1-0.8-0.1c-0.5,0-0.7,0.1-0.7,0.4c0,0.1,0.1,0.3,0.2,0.4
			c0.2,0.1,0.5,0.3,1,0.5c0.5,0.2,0.8,0.4,1,0.5c0.2,0.2,0.4,0.3,0.5,0.5C209.9,99.4,209.9,99.6,209.9,99.9z"/>
		<path class="st9" d="M212.1,100.4l0.1,0.1c-0.1,0.3-0.2,0.7-0.4,1.2c-0.2,0.5-0.3,0.9-0.5,1.3h-0.6c0.1-0.4,0.2-0.8,0.3-1.3
			c0.1-0.5,0.2-1,0.2-1.3H212.1z"/>
		<path class="st9" d="M219.9,101.6l-1.8-6h0c0.1,1.2,0.1,2,0.1,2.4v3.5h-1.4V94h2.2l1.8,5.8h0l1.9-5.8h2.2v7.6h-1.5V98
			c0-0.2,0-0.4,0-0.6s0-0.8,0.1-1.8h0l-2,5.9H219.9z"/>
		<path class="st9" d="M230.2,101.6l-0.3-0.8h0c-0.3,0.3-0.5,0.6-0.8,0.7c-0.3,0.1-0.6,0.2-1.1,0.2c-0.6,0-1-0.2-1.3-0.5
			s-0.5-0.8-0.5-1.4c0-0.6,0.2-1.1,0.6-1.4c0.4-0.3,1.1-0.5,1.9-0.5l1,0v-0.3c0-0.6-0.3-0.9-0.9-0.9c-0.5,0-1,0.1-1.6,0.4l-0.5-1.1
			c0.7-0.3,1.4-0.5,2.2-0.5c0.8,0,1.4,0.2,1.8,0.5c0.4,0.3,0.6,0.9,0.6,1.5v3.9H230.2z M229.8,98.9l-0.6,0c-0.5,0-0.8,0.1-1,0.2
			s-0.3,0.4-0.3,0.7c0,0.4,0.3,0.7,0.8,0.7c0.4,0,0.7-0.1,0.9-0.3c0.2-0.2,0.3-0.5,0.3-0.8V98.9z"/>
		<path class="st9" d="M236.2,95.7c0.2,0,0.4,0,0.5,0l-0.1,1.5c-0.1,0-0.3-0.1-0.5-0.1c-0.5,0-0.9,0.1-1.2,0.4s-0.4,0.6-0.4,1.1v3
			H233v-5.8h1.2l0.2,1h0.1c0.2-0.3,0.4-0.6,0.7-0.8C235.5,95.8,235.8,95.7,236.2,95.7z"/>
		<path class="st9" d="M237.7,94.3c0-0.5,0.3-0.8,0.9-0.8s0.9,0.3,0.9,0.8c0,0.2-0.1,0.4-0.2,0.6s-0.4,0.2-0.6,0.2
			C238,95.1,237.7,94.8,237.7,94.3z M239.4,101.6h-1.6v-5.8h1.6V101.6z"/>
		<path class="st9" d="M243.7,101.7c-0.9,0-1.7-0.3-2.2-0.8c-0.5-0.5-0.8-1.2-0.8-2.2c0-1,0.2-1.7,0.7-2.3s1.2-0.8,2-0.8
			c0.8,0,1.5,0.2,1.9,0.7c0.5,0.5,0.7,1.1,0.7,1.9v0.8h-3.7c0,0.5,0.2,0.8,0.4,1.1c0.2,0.3,0.6,0.4,1,0.4c0.3,0,0.7,0,1-0.1
			c0.3-0.1,0.6-0.2,1-0.3v1.2c-0.3,0.1-0.6,0.2-0.9,0.3S244.1,101.7,243.7,101.7z M243.4,96.8c-0.3,0-0.6,0.1-0.8,0.3
			c-0.2,0.2-0.3,0.5-0.3,0.9h2.2c0-0.4-0.1-0.7-0.3-0.9S243.8,96.8,243.4,96.8z"/>
		<path class="st9" d="M246.8,99.4v-1.3h2.8v1.3H246.8z"/>
		<path class="st9" d="M257.2,97.8c0,1.2-0.4,2.2-1.1,2.9c-0.7,0.7-1.7,1-3.1,1h-2.1V94h2.4c1.2,0,2.2,0.3,2.9,1
			C256.8,95.7,257.2,96.6,257.2,97.8z M255.5,97.8c0-1.6-0.7-2.4-2.2-2.4h-0.9v4.9h0.7C254.7,100.3,255.5,99.5,255.5,97.8z"/>
		<path class="st9" d="M263.9,98.7c0,0.9-0.2,1.7-0.7,2.2c-0.5,0.5-1.2,0.8-2.1,0.8c-0.6,0-1-0.1-1.5-0.4c-0.4-0.2-0.8-0.6-1-1.1
			s-0.3-1-0.3-1.6c0-0.9,0.2-1.7,0.7-2.2s1.2-0.8,2.1-0.8c0.6,0,1,0.1,1.5,0.4s0.8,0.6,1,1C263.8,97.6,263.9,98.1,263.9,98.7z
			 M259.9,98.7c0,0.6,0.1,1,0.3,1.3c0.2,0.3,0.5,0.4,0.9,0.4c0.4,0,0.7-0.1,0.9-0.4c0.2-0.3,0.3-0.7,0.3-1.3c0-0.6-0.1-1-0.3-1.3
			c-0.2-0.3-0.5-0.4-0.9-0.4c-0.4,0-0.7,0.1-0.9,0.4C260,97.7,259.9,98.1,259.9,98.7z"/>
		<path class="st9" d="M266.8,101.6h-1.6v-8.1h1.6V101.6z"/>
		<path class="st9" d="M273.6,101.6h-1.6v-3.4c0-0.4-0.1-0.7-0.2-0.9c-0.1-0.2-0.4-0.3-0.7-0.3c-0.4,0-0.7,0.1-0.9,0.4
			s-0.3,0.8-0.3,1.5v2.7h-1.6v-5.8h1.2l0.2,0.7h0.1c0.2-0.3,0.4-0.5,0.7-0.6c0.3-0.2,0.6-0.2,1-0.2c0.9,0,1.5,0.3,1.8,0.9h0.1
			c0.2-0.3,0.4-0.5,0.7-0.6c0.3-0.1,0.6-0.2,1-0.2c0.7,0,1.2,0.2,1.5,0.5c0.3,0.3,0.5,0.9,0.5,1.6v3.8h-1.6v-3.4
			c0-0.4-0.1-0.7-0.2-0.9c-0.1-0.2-0.4-0.3-0.7-0.3c-0.4,0-0.7,0.1-0.9,0.4c-0.2,0.3-0.3,0.7-0.3,1.3V101.6z"/>
		<path class="st9" d="M282.6,101.6l-0.3-0.8h0c-0.3,0.3-0.5,0.6-0.8,0.7c-0.3,0.1-0.6,0.2-1.1,0.2c-0.6,0-1-0.2-1.3-0.5
			s-0.5-0.8-0.5-1.4c0-0.6,0.2-1.1,0.6-1.4c0.4-0.3,1.1-0.5,1.9-0.5l1,0v-0.3c0-0.6-0.3-0.9-0.9-0.9c-0.5,0-1,0.1-1.6,0.4l-0.5-1.1
			c0.7-0.3,1.4-0.5,2.2-0.5c0.8,0,1.4,0.2,1.8,0.5c0.4,0.3,0.6,0.9,0.6,1.5v3.9H282.6z M282.1,98.9l-0.6,0c-0.5,0-0.8,0.1-1,0.2
			s-0.3,0.4-0.3,0.7c0,0.4,0.3,0.7,0.8,0.7c0.4,0,0.7-0.1,0.9-0.3c0.2-0.2,0.3-0.5,0.3-0.8V98.9z"/>
		<path class="st9" d="M291.4,95.3c-0.6,0-1.1,0.2-1.4,0.7c-0.3,0.5-0.5,1.1-0.5,1.9c0,1.7,0.6,2.5,1.9,2.5c0.5,0,1.2-0.1,1.9-0.4
			v1.4c-0.6,0.3-1.3,0.4-2.1,0.4c-1.1,0-1.9-0.3-2.5-1c-0.6-0.7-0.9-1.6-0.9-2.9c0-0.8,0.1-1.5,0.4-2.1s0.7-1,1.2-1.4
			c0.5-0.3,1.2-0.5,1.9-0.5c0.7,0,1.5,0.2,2.2,0.5l-0.5,1.3c-0.3-0.1-0.6-0.3-0.9-0.4C292,95.3,291.7,95.3,291.4,95.3z"/>
		<path class="st9" d="M300.2,101.6h-1.6v-3.4c0-0.8-0.3-1.3-0.9-1.3c-0.4,0-0.8,0.2-1,0.5s-0.3,0.8-0.3,1.5v2.7h-1.6v-8.1h1.6v1.6
			c0,0.1,0,0.4,0,0.9l0,0.5h0.1c0.4-0.6,0.9-0.9,1.7-0.9c0.7,0,1.2,0.2,1.6,0.6c0.4,0.4,0.5,0.9,0.5,1.6V101.6z"/>
		<path class="st9" d="M307.1,98.7c0,0.9-0.2,1.7-0.7,2.2c-0.5,0.5-1.2,0.8-2.1,0.8c-0.6,0-1-0.1-1.5-0.4c-0.4-0.2-0.8-0.6-1-1.1
			s-0.3-1-0.3-1.6c0-0.9,0.2-1.7,0.7-2.2s1.2-0.8,2.1-0.8c0.6,0,1,0.1,1.5,0.4s0.8,0.6,1,1C307,97.6,307.1,98.1,307.1,98.7z
			 M303.1,98.7c0,0.6,0.1,1,0.3,1.3c0.2,0.3,0.5,0.4,0.9,0.4c0.4,0,0.7-0.1,0.9-0.4c0.2-0.3,0.3-0.7,0.3-1.3c0-0.6-0.1-1-0.3-1.3
			c-0.2-0.3-0.5-0.4-0.9-0.4c-0.4,0-0.7,0.1-0.9,0.4C303.2,97.7,303.1,98.1,303.1,98.7z"/>
		<path class="st9" d="M311.6,101.7c-0.7,0-1.2-0.2-1.6-0.7h-0.1c0.1,0.5,0.1,0.8,0.1,0.8v2.4h-1.6v-8.4h1.3l0.2,0.8h0.1
			c0.4-0.6,0.9-0.9,1.6-0.9c0.7,0,1.2,0.3,1.6,0.8c0.4,0.5,0.6,1.3,0.6,2.2c0,0.6-0.1,1.2-0.3,1.6s-0.4,0.8-0.8,1
			C312.5,101.6,312.1,101.7,311.6,101.7z M311.1,97c-0.4,0-0.7,0.1-0.9,0.4c-0.2,0.2-0.3,0.6-0.3,1.2v0.2c0,0.6,0.1,1.1,0.3,1.3
			c0.2,0.3,0.5,0.4,0.9,0.4c0.7,0,1.1-0.6,1.1-1.8c0-0.6-0.1-1-0.3-1.3S311.5,97,311.1,97z"/>
		<path class="st9" d="M320.5,101.6h-1.6v-3.4c0-0.8-0.3-1.3-0.9-1.3c-0.4,0-0.8,0.2-1,0.5s-0.3,0.8-0.3,1.5v2.7h-1.6v-8.1h1.6v1.6
			c0,0.1,0,0.4,0,0.9l0,0.5h0.1c0.4-0.6,0.9-0.9,1.7-0.9c0.7,0,1.2,0.2,1.6,0.6c0.4,0.4,0.5,0.9,0.5,1.6V101.6z"/>
		<path class="st9" d="M324.8,101.7c-0.9,0-1.7-0.3-2.2-0.8c-0.5-0.5-0.8-1.2-0.8-2.2c0-1,0.2-1.7,0.7-2.3s1.2-0.8,2-0.8
			c0.8,0,1.5,0.2,1.9,0.7c0.5,0.5,0.7,1.1,0.7,1.9v0.8h-3.7c0,0.5,0.2,0.8,0.4,1.1c0.2,0.3,0.6,0.4,1,0.4c0.3,0,0.7,0,1-0.1
			c0.3-0.1,0.6-0.2,1-0.3v1.2c-0.3,0.1-0.6,0.2-0.9,0.3S325.2,101.7,324.8,101.7z M324.5,96.8c-0.3,0-0.6,0.1-0.8,0.3
			c-0.2,0.2-0.3,0.5-0.3,0.9h2.2c0-0.4-0.1-0.7-0.3-0.9S324.9,96.8,324.5,96.8z"/>
		<path class="st9" d="M330,101.6h-1.6v-8.1h1.6V101.6z"/>
		<path class="st9" d="M332.7,100.4l0.1,0.1c-0.1,0.3-0.2,0.7-0.4,1.2c-0.2,0.5-0.3,0.9-0.5,1.3h-0.6c0.1-0.4,0.2-0.8,0.3-1.3
			c0.1-0.5,0.2-1,0.2-1.3H332.7z"/>
		<path class="st9" d="M157.7,112.3c0,0.7-0.2,1.2-0.7,1.6s-1.2,0.6-2.1,0.6c-0.8,0-1.5-0.2-2.1-0.5v-1.5c0.5,0.2,0.9,0.4,1.3,0.5
			c0.4,0.1,0.7,0.1,1,0.1c0.4,0,0.6-0.1,0.8-0.2c0.2-0.1,0.3-0.3,0.3-0.6c0-0.1,0-0.3-0.1-0.4c-0.1-0.1-0.2-0.2-0.4-0.3
			c-0.2-0.1-0.5-0.3-1-0.5c-0.5-0.2-0.8-0.4-1-0.6c-0.2-0.2-0.4-0.4-0.6-0.7c-0.1-0.3-0.2-0.6-0.2-0.9c0-0.7,0.2-1.2,0.7-1.6
			c0.5-0.4,1.1-0.6,1.9-0.6c0.4,0,0.8,0,1.1,0.1c0.4,0.1,0.7,0.2,1.1,0.4l-0.5,1.3c-0.4-0.2-0.7-0.3-1-0.3s-0.5-0.1-0.8-0.1
			c-0.3,0-0.5,0.1-0.7,0.2c-0.2,0.1-0.2,0.3-0.2,0.6c0,0.1,0,0.3,0.1,0.4c0.1,0.1,0.2,0.2,0.3,0.3c0.1,0.1,0.5,0.3,1,0.5
			c0.7,0.3,1.2,0.7,1.5,1C157.5,111.4,157.7,111.8,157.7,112.3z"/>
		<path class="st9" d="M164.3,114.4h-1.6V111c0-0.8-0.3-1.3-0.9-1.3c-0.4,0-0.8,0.2-1,0.5s-0.3,0.8-0.3,1.5v2.7h-1.6v-8.1h1.6v1.6
			c0,0.1,0,0.4,0,0.9l0,0.5h0.1c0.4-0.6,0.9-0.9,1.7-0.9c0.7,0,1.2,0.2,1.6,0.6c0.4,0.4,0.5,0.9,0.5,1.6V114.4z"/>
		<path class="st9" d="M168.5,114.5c-0.9,0-1.7-0.3-2.2-0.8c-0.5-0.5-0.8-1.2-0.8-2.2c0-1,0.2-1.7,0.7-2.3s1.2-0.8,2-0.8
			c0.8,0,1.5,0.2,1.9,0.7c0.5,0.5,0.7,1.1,0.7,1.9v0.8h-3.7c0,0.5,0.2,0.8,0.4,1.1c0.2,0.3,0.6,0.4,1,0.4c0.3,0,0.7,0,1-0.1
			c0.3-0.1,0.6-0.2,1-0.3v1.2c-0.3,0.1-0.6,0.2-0.9,0.3S169,114.5,168.5,114.5z M168.3,109.6c-0.3,0-0.6,0.1-0.8,0.3
			c-0.2,0.2-0.3,0.5-0.3,0.9h2.2c0-0.4-0.1-0.7-0.3-0.9S168.6,109.6,168.3,109.6z"/>
		<path class="st9" d="M175.4,114.5c-0.7,0-1.2-0.2-1.6-0.7h-0.1c0.1,0.5,0.1,0.8,0.1,0.8v2.4h-1.6v-8.4h1.3l0.2,0.8h0.1
			c0.4-0.6,0.9-0.9,1.6-0.9c0.7,0,1.2,0.3,1.6,0.8c0.4,0.5,0.6,1.3,0.6,2.2c0,0.6-0.1,1.2-0.3,1.6s-0.4,0.8-0.8,1
			C176.2,114.4,175.8,114.5,175.4,114.5z M174.9,109.7c-0.4,0-0.7,0.1-0.9,0.4c-0.2,0.2-0.3,0.6-0.3,1.2v0.2c0,0.6,0.1,1.1,0.3,1.3
			c0.2,0.3,0.5,0.4,0.9,0.4c0.7,0,1.1-0.6,1.1-1.8c0-0.6-0.1-1-0.3-1.3S175.3,109.7,174.9,109.7z"/>
		<path class="st9" d="M182.6,114.4l-0.3-0.8h0c-0.3,0.3-0.5,0.6-0.8,0.7c-0.3,0.1-0.6,0.2-1.1,0.2c-0.6,0-1-0.2-1.3-0.5
			s-0.5-0.8-0.5-1.4c0-0.6,0.2-1.1,0.6-1.4c0.4-0.3,1.1-0.5,1.9-0.5l1,0v-0.3c0-0.6-0.3-0.9-0.9-0.9c-0.5,0-1,0.1-1.6,0.4l-0.5-1.1
			c0.7-0.3,1.4-0.5,2.2-0.5c0.8,0,1.4,0.2,1.8,0.5c0.4,0.3,0.6,0.9,0.6,1.5v3.9H182.6z M182.1,111.7l-0.6,0c-0.5,0-0.8,0.1-1,0.2
			s-0.3,0.4-0.3,0.7c0,0.4,0.3,0.7,0.8,0.7c0.4,0,0.7-0.1,0.9-0.3c0.2-0.2,0.3-0.5,0.3-0.8V111.7z"/>
		<path class="st9" d="M188.6,108.5c0.2,0,0.4,0,0.5,0L189,110c-0.1,0-0.3-0.1-0.5-0.1c-0.5,0-0.9,0.1-1.2,0.4s-0.4,0.6-0.4,1.1v3
			h-1.6v-5.8h1.2l0.2,1h0.1c0.2-0.3,0.4-0.6,0.7-0.8C187.9,108.6,188.2,108.5,188.6,108.5z"/>
		<path class="st9" d="M192,114.5c-0.7,0-1.2-0.3-1.6-0.8c-0.4-0.5-0.6-1.3-0.6-2.2c0-1,0.2-1.7,0.6-2.2s0.9-0.8,1.6-0.8
			c0.7,0,1.3,0.3,1.7,0.9h0.1c-0.1-0.4-0.1-0.8-0.1-1.2v-1.9h1.6v8.1H194l-0.3-0.8h-0.1C193.3,114.2,192.7,114.5,192,114.5z
			 M192.6,113.2c0.4,0,0.7-0.1,0.9-0.4c0.2-0.2,0.3-0.6,0.3-1.2v-0.2c0-0.6-0.1-1.1-0.3-1.3c-0.2-0.3-0.5-0.4-0.9-0.4
			c-0.4,0-0.6,0.1-0.8,0.4c-0.2,0.3-0.3,0.7-0.3,1.3s0.1,1,0.3,1.3C191.9,113.1,192.2,113.2,192.6,113.2z"/>
		<path class="st9" d="M201.4,114.4h-1.6v-7.6h4.4v1.3h-2.8v2h2.6v1.3h-2.6V114.4z"/>
		<path class="st9" d="M209.2,114.4l-0.3-0.8h0c-0.3,0.3-0.5,0.6-0.8,0.7c-0.3,0.1-0.6,0.2-1.1,0.2c-0.6,0-1-0.2-1.3-0.5
			s-0.5-0.8-0.5-1.4c0-0.6,0.2-1.1,0.6-1.4c0.4-0.3,1.1-0.5,1.9-0.5l1,0v-0.3c0-0.6-0.3-0.9-0.9-0.9c-0.5,0-1,0.1-1.6,0.4l-0.5-1.1
			c0.7-0.3,1.4-0.5,2.2-0.5c0.8,0,1.4,0.2,1.8,0.5c0.4,0.3,0.6,0.9,0.6,1.5v3.9H209.2z M208.7,111.7l-0.6,0c-0.5,0-0.8,0.1-1,0.2
			s-0.3,0.4-0.3,0.7c0,0.4,0.3,0.7,0.8,0.7c0.4,0,0.7-0.1,0.9-0.3c0.2-0.2,0.3-0.5,0.3-0.8V111.7z"/>
		<path class="st9" d="M211.9,107.1c0-0.5,0.3-0.8,0.9-0.8s0.9,0.3,0.9,0.8c0,0.2-0.1,0.4-0.2,0.6s-0.4,0.2-0.6,0.2
			C212.1,107.9,211.9,107.6,211.9,107.1z M213.5,114.4h-1.6v-5.8h1.6V114.4z"/>
		<path class="st9" d="M218.4,108.5c0.2,0,0.4,0,0.5,0l-0.1,1.5c-0.1,0-0.3-0.1-0.5-0.1c-0.5,0-0.9,0.1-1.2,0.4s-0.4,0.6-0.4,1.1v3
			h-1.6v-5.8h1.2l0.2,1h0.1c0.2-0.3,0.4-0.6,0.7-0.8C217.7,108.6,218,108.5,218.4,108.5z"/>
		<path class="st9" d="M222.6,114.5c-0.9,0-1.7-0.3-2.2-0.8c-0.5-0.5-0.8-1.2-0.8-2.2c0-1,0.2-1.7,0.7-2.3s1.2-0.8,2-0.8
			c0.8,0,1.5,0.2,1.9,0.7c0.5,0.5,0.7,1.1,0.7,1.9v0.8h-3.7c0,0.5,0.2,0.8,0.4,1.1c0.2,0.3,0.6,0.4,1,0.4c0.3,0,0.7,0,1-0.1
			c0.3-0.1,0.6-0.2,1-0.3v1.2c-0.3,0.1-0.6,0.2-0.9,0.3S223.1,114.5,222.6,114.5z M222.4,109.6c-0.3,0-0.6,0.1-0.8,0.3
			c-0.2,0.2-0.3,0.5-0.3,0.9h2.2c0-0.4-0.1-0.7-0.3-0.9S222.7,109.6,222.4,109.6z"/>
		<path class="st9" d="M225.4,108.6h1.7l1.1,3.3c0.1,0.3,0.2,0.6,0.2,1h0c0-0.4,0.1-0.7,0.2-1l1.1-3.3h1.7l-2.5,6.5
			c-0.2,0.6-0.5,1.1-1,1.4c-0.4,0.3-0.9,0.5-1.5,0.5c-0.3,0-0.5,0-0.8-0.1v-1.3c0.2,0,0.4,0.1,0.6,0.1c0.3,0,0.5-0.1,0.7-0.3
			c0.2-0.2,0.4-0.4,0.5-0.8l0.1-0.3L225.4,108.6z"/>
		<path class="st9" d="M234.8,112.4c0-0.5,0.1-0.8,0.4-1.2c0.2-0.3,0.7-0.7,1.3-1c-0.3-0.3-0.5-0.6-0.6-0.7
			c-0.1-0.2-0.2-0.3-0.3-0.5c-0.1-0.2-0.1-0.4-0.1-0.6c0-0.5,0.2-0.9,0.5-1.2c0.3-0.3,0.8-0.4,1.4-0.4c0.6,0,1,0.1,1.3,0.4
			s0.5,0.7,0.5,1.2c0,0.4-0.1,0.7-0.4,1c-0.2,0.3-0.6,0.6-1.2,1l2.1,2c0.2-0.2,0.3-0.5,0.5-0.8c0.1-0.3,0.2-0.6,0.3-0.9h0.9
			c-0.2,1-0.6,1.7-1.1,2.3l1.6,1.5h-1.2l-1-0.9c-0.4,0.4-0.8,0.6-1.2,0.8s-0.9,0.2-1.4,0.2c-0.7,0-1.3-0.2-1.7-0.5
			S234.8,113.1,234.8,112.4z M237.2,113.7c0.8,0,1.5-0.3,2.1-0.8l-2.3-2.2c-0.4,0.2-0.7,0.4-0.8,0.6c-0.2,0.2-0.3,0.3-0.4,0.5
			c-0.1,0.2-0.1,0.4-0.1,0.6c0,0.4,0.1,0.7,0.4,1C236.4,113.6,236.8,113.7,237.2,113.7z M236.4,108.3c0,0.2,0.1,0.5,0.2,0.7
			c0.1,0.2,0.3,0.5,0.6,0.8c0.4-0.3,0.8-0.5,0.9-0.7s0.3-0.5,0.3-0.8c0-0.3-0.1-0.5-0.3-0.7s-0.4-0.3-0.7-0.3
			c-0.3,0-0.6,0.1-0.8,0.2C236.5,107.8,236.4,108,236.4,108.3z"/>
		<path class="st9" d="M251,109.2c0,0.8-0.3,1.4-0.8,1.9s-1.2,0.6-2.2,0.6h-0.7v2.7h-1.6v-7.6h2.4c0.9,0,1.6,0.2,2.1,0.6
			C250.7,107.8,251,108.4,251,109.2z M247.3,110.4h0.5c0.5,0,0.9-0.1,1.1-0.3c0.2-0.2,0.4-0.5,0.4-0.9c0-0.4-0.1-0.7-0.3-0.8
			c-0.2-0.2-0.5-0.3-1-0.3h-0.7V110.4z"/>
		<path class="st9" d="M255.5,108.5c0.2,0,0.4,0,0.5,0l-0.1,1.5c-0.1,0-0.3-0.1-0.5-0.1c-0.5,0-0.9,0.1-1.2,0.4s-0.4,0.6-0.4,1.1v3
			h-1.6v-5.8h1.2l0.2,1h0.1c0.2-0.3,0.4-0.6,0.7-0.8C254.8,108.6,255.2,108.5,255.5,108.5z"/>
		<path class="st9" d="M262.4,111.5c0,0.9-0.2,1.7-0.7,2.2c-0.5,0.5-1.2,0.8-2.1,0.8c-0.6,0-1-0.1-1.5-0.4c-0.4-0.2-0.8-0.6-1-1.1
			s-0.3-1-0.3-1.6c0-0.9,0.2-1.7,0.7-2.2s1.2-0.8,2.1-0.8c0.6,0,1,0.1,1.5,0.4s0.8,0.6,1,1C262.3,110.3,262.4,110.9,262.4,111.5z
			 M258.4,111.5c0,0.6,0.1,1,0.3,1.3c0.2,0.3,0.5,0.4,0.9,0.4c0.4,0,0.7-0.1,0.9-0.4c0.2-0.3,0.3-0.7,0.3-1.3c0-0.6-0.1-1-0.3-1.3
			c-0.2-0.3-0.5-0.4-0.9-0.4c-0.4,0-0.7,0.1-0.9,0.4C258.5,110.5,258.4,110.9,258.4,111.5z"/>
		<path class="st9" d="M266.9,109.8h-1.4v4.6H264v-4.6h-0.9V109l0.9-0.4v-0.4c0-0.7,0.2-1.1,0.5-1.4s0.8-0.5,1.6-0.5
			c0.5,0,1,0.1,1.5,0.2l-0.4,1.2c-0.3-0.1-0.6-0.2-0.9-0.2c-0.2,0-0.4,0.1-0.5,0.2c-0.1,0.1-0.2,0.3-0.2,0.5v0.4h1.4V109.8z"/>
		<path class="st9" d="M267.6,113.6c0-0.3,0.1-0.5,0.2-0.7c0.2-0.1,0.4-0.2,0.7-0.2c0.3,0,0.5,0.1,0.7,0.2s0.2,0.4,0.2,0.7
			c0,0.3-0.1,0.5-0.2,0.6c-0.2,0.2-0.4,0.2-0.7,0.2c-0.3,0-0.5-0.1-0.7-0.2S267.6,113.9,267.6,113.6z"/>
		<path class="st9" d="M275.4,111.5v2.9h-1.6v-7.6h2.2c1,0,1.8,0.2,2.3,0.6c0.5,0.4,0.7,0.9,0.7,1.7c0,0.4-0.1,0.8-0.4,1.2
			c-0.2,0.3-0.6,0.6-1,0.8c1.1,1.7,1.9,2.8,2.2,3.3H278l-1.8-2.9H275.4z M275.4,110.2h0.5c0.5,0,0.9-0.1,1.1-0.3s0.4-0.4,0.4-0.8
			c0-0.4-0.1-0.6-0.4-0.8s-0.6-0.2-1.1-0.2h-0.5V110.2z"/>
		<path class="st9" d="M285.9,111.5c0,0.9-0.2,1.7-0.7,2.2c-0.5,0.5-1.2,0.8-2.1,0.8c-0.6,0-1-0.1-1.5-0.4c-0.4-0.2-0.8-0.6-1-1.1
			s-0.3-1-0.3-1.6c0-0.9,0.2-1.7,0.7-2.2s1.2-0.8,2.1-0.8c0.6,0,1,0.1,1.5,0.4s0.8,0.6,1,1C285.8,110.3,285.9,110.9,285.9,111.5z
			 M281.9,111.5c0,0.6,0.1,1,0.3,1.3c0.2,0.3,0.5,0.4,0.9,0.4c0.4,0,0.7-0.1,0.9-0.4c0.2-0.3,0.3-0.7,0.3-1.3c0-0.6-0.1-1-0.3-1.3
			c-0.2-0.3-0.5-0.4-0.9-0.4c-0.4,0-0.7,0.1-0.9,0.4C282,110.5,281.9,110.9,281.9,111.5z"/>
		<path class="st9" d="M290.5,108.5c0.7,0,1.2,0.3,1.6,0.8c0.4,0.5,0.6,1.3,0.6,2.2c0,1-0.2,1.7-0.6,2.2s-0.9,0.8-1.6,0.8
			c-0.7,0-1.2-0.2-1.6-0.7h-0.1l-0.3,0.6h-1.2v-8.1h1.6v1.9c0,0.2,0,0.6-0.1,1.1h0.1C289.2,108.8,289.7,108.5,290.5,108.5z
			 M289.9,109.7c-0.4,0-0.7,0.1-0.9,0.4c-0.2,0.2-0.3,0.6-0.3,1.2v0.2c0,0.6,0.1,1.1,0.3,1.3c0.2,0.3,0.5,0.4,0.9,0.4
			c0.3,0,0.6-0.1,0.8-0.4c0.2-0.3,0.3-0.7,0.3-1.3s-0.1-1-0.3-1.3S290.3,109.7,289.9,109.7z"/>
		<path class="st9" d="M296.6,114.5c-0.9,0-1.7-0.3-2.2-0.8c-0.5-0.5-0.8-1.2-0.8-2.2c0-1,0.2-1.7,0.7-2.3s1.2-0.8,2-0.8
			c0.8,0,1.5,0.2,1.9,0.7c0.5,0.5,0.7,1.1,0.7,1.9v0.8h-3.7c0,0.5,0.2,0.8,0.4,1.1c0.2,0.3,0.6,0.4,1,0.4c0.3,0,0.7,0,1-0.1
			c0.3-0.1,0.6-0.2,1-0.3v1.2c-0.3,0.1-0.6,0.2-0.9,0.3S297,114.5,296.6,114.5z M296.4,109.6c-0.3,0-0.6,0.1-0.8,0.3
			c-0.2,0.2-0.3,0.5-0.3,0.9h2.2c0-0.4-0.1-0.7-0.3-0.9S296.7,109.6,296.4,109.6z"/>
		<path class="st9" d="M303.5,108.5c0.2,0,0.4,0,0.5,0l-0.1,1.5c-0.1,0-0.3-0.1-0.5-0.1c-0.5,0-0.9,0.1-1.2,0.4s-0.4,0.6-0.4,1.1v3
			h-1.6v-5.8h1.2l0.2,1h0.1c0.2-0.3,0.4-0.6,0.7-0.8C302.8,108.6,303.1,108.5,303.5,108.5z"/>
		<path class="st9" d="M307.5,113.2c0.3,0,0.6-0.1,1-0.2v1.2c-0.4,0.2-0.9,0.3-1.5,0.3c-0.6,0-1.1-0.2-1.4-0.5
			c-0.3-0.3-0.4-0.8-0.4-1.4v-2.8h-0.8v-0.7l0.9-0.5l0.5-1.2h1v1.2h1.6v1.2h-1.6v2.8c0,0.2,0.1,0.4,0.2,0.5
			C307.1,113.2,307.3,113.2,307.5,113.2z"/>
		<path class="st9" d="M315.5,114.4h-1.6v-6.3h-2.1v-1.3h5.7v1.3h-2.1V114.4z"/>
		<path class="st9" d="M324,114.4h-1.6V111c0-0.8-0.3-1.3-0.9-1.3c-0.4,0-0.8,0.2-1,0.5s-0.3,0.8-0.3,1.5v2.7h-1.6v-8.1h1.6v1.6
			c0,0.1,0,0.4,0,0.9l0,0.5h0.1c0.4-0.6,0.9-0.9,1.7-0.9c0.7,0,1.2,0.2,1.6,0.6c0.4,0.4,0.5,0.9,0.5,1.6V114.4z"/>
		<path class="st9" d="M329.7,114.4l-0.2-0.7h-0.1c-0.2,0.3-0.4,0.5-0.7,0.6c-0.3,0.1-0.7,0.2-1.1,0.2c-0.7,0-1.2-0.2-1.5-0.5
			s-0.5-0.9-0.5-1.6v-3.8h1.6v3.4c0,0.4,0.1,0.7,0.2,0.9c0.1,0.2,0.4,0.3,0.7,0.3c0.4,0,0.8-0.1,1-0.4s0.3-0.8,0.3-1.5v-2.7h1.6v5.8
			H329.7z"/>
		<path class="st9" d="M335.8,108.5c0.2,0,0.4,0,0.5,0l-0.1,1.5c-0.1,0-0.3-0.1-0.5-0.1c-0.5,0-0.9,0.1-1.2,0.4s-0.4,0.6-0.4,1.1v3
			h-1.6v-5.8h1.2l0.2,1h0.1c0.2-0.3,0.4-0.6,0.7-0.8C335.1,108.6,335.5,108.5,335.8,108.5z"/>
		<path class="st9" d="M342.6,114.4H341V111c0-0.4-0.1-0.7-0.2-0.9c-0.1-0.2-0.4-0.3-0.7-0.3c-0.4,0-0.7,0.1-0.9,0.4
			s-0.3,0.8-0.3,1.5v2.7h-1.6v-5.8h1.2l0.2,0.7h0.1c0.2-0.3,0.4-0.5,0.7-0.6c0.3-0.2,0.6-0.2,1-0.2c0.9,0,1.5,0.3,1.8,0.9h0.1
			c0.2-0.3,0.4-0.5,0.7-0.6c0.3-0.1,0.6-0.2,1-0.2c0.7,0,1.2,0.2,1.5,0.5c0.3,0.3,0.5,0.9,0.5,1.6v3.8h-1.6V111
			c0-0.4-0.1-0.7-0.2-0.9c-0.1-0.2-0.4-0.3-0.7-0.3c-0.4,0-0.7,0.1-0.9,0.4c-0.2,0.3-0.3,0.7-0.3,1.3V114.4z"/>
		<path class="st9" d="M351.5,114.4l-0.3-0.8h0c-0.3,0.3-0.5,0.6-0.8,0.7c-0.3,0.1-0.6,0.2-1.1,0.2c-0.6,0-1-0.2-1.3-0.5
			s-0.5-0.8-0.5-1.4c0-0.6,0.2-1.1,0.6-1.4c0.4-0.3,1.1-0.5,1.9-0.5l1,0v-0.3c0-0.6-0.3-0.9-0.9-0.9c-0.5,0-1,0.1-1.6,0.4L348,109
			c0.7-0.3,1.4-0.5,2.2-0.5c0.8,0,1.4,0.2,1.8,0.5c0.4,0.3,0.6,0.9,0.6,1.5v3.9H351.5z M351.1,111.7l-0.6,0c-0.5,0-0.8,0.1-1,0.2
			s-0.3,0.4-0.3,0.7c0,0.4,0.3,0.7,0.8,0.7c0.4,0,0.7-0.1,0.9-0.3c0.2-0.2,0.3-0.5,0.3-0.8V111.7z"/>
		<path class="st9" d="M359.6,114.4H358V111c0-0.4-0.1-0.7-0.2-0.9c-0.1-0.2-0.4-0.3-0.7-0.3c-0.4,0-0.8,0.1-1,0.4s-0.3,0.8-0.3,1.5
			v2.7h-1.6v-5.8h1.2l0.2,0.7h0.1c0.2-0.3,0.4-0.5,0.7-0.6c0.3-0.1,0.7-0.2,1.1-0.2c0.7,0,1.2,0.2,1.5,0.5s0.5,0.9,0.5,1.6V114.4z"
			/>
		<path class="st9" d="M361,113.6c0-0.3,0.1-0.5,0.2-0.7c0.2-0.1,0.4-0.2,0.7-0.2c0.3,0,0.5,0.1,0.7,0.2s0.2,0.4,0.2,0.7
			c0,0.3-0.1,0.5-0.2,0.6c-0.2,0.2-0.4,0.2-0.7,0.2c-0.3,0-0.5-0.1-0.7-0.2S361,113.9,361,113.6z"/>
		<path class="st10" d="M160.8,149.7h-4.2v-12.1h-3.8v-3.4h11.8v3.4h-3.8V149.7z"/>
		<path class="st10" d="M180,149.7h-4.2v-6.3H171v6.3h-4.2v-15.5h4.2v5.8h4.9v-5.8h4.2V149.7z"/>
		<path class="st10" d="M196.6,134.2v9.3c0,2-0.6,3.6-1.7,4.7s-2.8,1.7-5,1.7c-2.1,0-3.7-0.5-4.9-1.6s-1.7-2.6-1.7-4.7v-9.4h4.2v9.1
			c0,1.1,0.2,1.9,0.6,2.4s1,0.7,1.8,0.7c0.9,0,1.5-0.2,1.9-0.7c0.4-0.5,0.6-1.3,0.6-2.4v-9.1H196.6z"/>
		<path class="st10" d="M203.4,146.5l0.1,0.2c-0.7,2.7-1.3,4.7-1.9,6h-3c0.2-1,0.4-2.1,0.6-3.3c0.2-1.2,0.4-2.2,0.4-2.9H203.4z"/>
		<path class="st10" d="M227,149.7h-5.5l-5.7-10.9h-0.1c0.1,1.7,0.2,3,0.2,3.9v7h-3.7v-15.5h5.5l5.6,10.8h0.1
			c-0.1-1.6-0.1-2.8-0.1-3.8v-7h3.7V149.7z"/>
		<path class="st10" d="M244.8,141.9c0,2.6-0.6,4.6-1.9,6c-1.3,1.4-3.2,2-5.6,2c-2.4,0-4.3-0.7-5.6-2c-1.3-1.4-1.9-3.4-1.9-6
			c0-2.6,0.6-4.6,1.9-5.9c1.3-1.4,3.2-2,5.6-2c2.5,0,4.3,0.7,5.6,2C244.2,137.3,244.8,139.3,244.8,141.9z M234.2,141.9
			c0,3,1,4.5,3.1,4.5c1.1,0,1.8-0.4,2.4-1.1c0.5-0.7,0.8-1.9,0.8-3.4c0-1.5-0.3-2.7-0.8-3.4s-1.3-1.1-2.3-1.1
			C235.2,137.4,234.2,138.9,234.2,141.9z"/>
		<path class="st10" d="M256.4,134.2h4.7l-5.1,15.5H251l-5.1-15.5h4.7l2.1,7.9c0.4,1.7,0.7,3,0.7,3.7c0-0.5,0.1-1.1,0.3-1.9
			c0.1-0.7,0.3-1.3,0.4-1.8L256.4,134.2z"/>
		<path class="st10" d="M271.9,149.7h-9.2v-15.5h9.2v3.4h-5v2.4h4.6v3.4h-4.6v2.9h5V149.7z"/>
		<path class="st10" d="M281.4,149.7l-3.2-11.2h-0.1c0.1,1.9,0.2,3.4,0.2,4.4v6.7h-3.7v-15.5h5.6l3.2,11h0.1l3.2-11h5.6v15.5h-3.9
			v-6.8c0-0.4,0-0.7,0-1.2c0-0.4,0.1-1.5,0.1-3.2h-0.1l-3.1,11.2H281.4z"/>
		<path class="st10" d="M295.7,134.2h5.4c2.1,0,3.7,0.3,4.7,0.9c1,0.6,1.5,1.6,1.5,2.9c0,0.9-0.2,1.6-0.7,2.2s-1,1-1.8,1.2v0.1
			c1,0.3,1.7,0.7,2.1,1.3c0.4,0.6,0.6,1.4,0.6,2.3c0,1.4-0.5,2.5-1.6,3.3c-1.1,0.8-2.5,1.2-4.3,1.2h-6V134.2z M299.8,140.1h1.3
			c0.6,0,1.1-0.1,1.4-0.4c0.3-0.2,0.5-0.6,0.5-1.1c0-0.9-0.7-1.3-2-1.3h-1.2V140.1z M299.8,143.2v3.3h1.5c1.3,0,2-0.6,2-1.7
			c0-0.5-0.2-0.9-0.5-1.2c-0.4-0.3-0.9-0.4-1.5-0.4H299.8z"/>
		<path class="st10" d="M319.5,149.7h-9.2v-15.5h9.2v3.4h-5v2.4h4.6v3.4h-4.6v2.9h5V149.7z"/>
		<path class="st10" d="M326.4,144v5.6h-4.2v-15.5h5.1c4.2,0,6.3,1.5,6.3,4.6c0,1.8-0.9,3.2-2.6,4.2l4.5,6.8h-4.8l-3.3-5.6H326.4z
			 M326.4,140.9h0.8c1.5,0,2.2-0.6,2.2-1.9c0-1.1-0.7-1.6-2.2-1.6h-0.8V140.9z"/>
		<path class="st10" d="M343.1,149.7l5.3-12h-6.7v-3.5h11.2v2.5l-5.5,13H343.1z"/>
		<path class="st10" d="M153,166.7c0-2.2,0.3-3.9,0.9-5.3c0.6-1.3,1.5-2.3,2.7-3c1.2-0.6,2.7-1,4.5-1c0.6,0,1.4,0.1,2.2,0.2v3.3
			c-0.7-0.1-1.5-0.2-2.3-0.2c-1.4,0-2.4,0.3-3.1,0.9s-1.1,1.6-1.1,3h0.1c0.6-1.2,1.7-1.8,3.1-1.8c1.4,0,2.4,0.4,3.2,1.3
			c0.8,0.9,1.1,2.1,1.1,3.7c0,1.7-0.5,3-1.4,4c-1,1-2.3,1.5-4,1.5c-1.8,0-3.3-0.6-4.3-1.8C153.5,170.5,153,168.8,153,166.7z
			 M158.7,170.2c0.4,0,0.8-0.2,1.1-0.5c0.3-0.3,0.4-0.9,0.4-1.6c0-1.3-0.5-1.9-1.5-1.9c-0.5,0-0.9,0.2-1.2,0.5s-0.5,0.7-0.5,1.2
			c0,0.7,0.1,1.2,0.4,1.7C157.9,169.9,158.3,170.2,158.7,170.2z"/>
		<path class="st10" d="M177.9,162.7c0,1.7-0.5,3.1-1.5,4c-1,0.9-2.5,1.4-4.4,1.4h-1.2v5.1h-4.2v-15.5h5.4c2,0,3.4,0.4,4.4,1.3
			C177.4,159.9,177.9,161.1,177.9,162.7z M170.8,164.7h0.8c0.6,0,1.1-0.2,1.5-0.5c0.4-0.4,0.6-0.8,0.6-1.5c0-1-0.6-1.6-1.7-1.6h-1.1
			V164.7z"/>
		<path class="st10" d="M187.1,173.3l-3.2-11.2h-0.1c0.1,1.9,0.2,3.4,0.2,4.4v6.7h-3.7v-15.5h5.6l3.2,11h0.1l3.2-11h5.6v15.5h-3.9
			v-6.8c0-0.4,0-0.7,0-1.2c0-0.4,0.1-1.5,0.1-3.2h-0.1l-3.1,11.2H187.1z"/>
		<path class="st10" d="M206.1,168.9v-2.9h9.3v2.9H206.1z"/>
		<path class="st10" d="M233.9,164.9c0,3-0.7,5.2-2,6.6c-1.3,1.4-3.4,2-6.3,2c-0.9,0-1.7,0-2.2-0.1v-3.3c0.6,0.1,1.2,0.2,1.8,0.2
			c1.5,0,2.7-0.3,3.5-0.9s1.3-1.6,1.3-2.9H230c-0.3,0.5-0.5,0.9-0.8,1.1c-0.3,0.2-0.6,0.4-1,0.5c-0.4,0.1-0.9,0.2-1.5,0.2
			c-1.3,0-2.4-0.4-3.2-1.3c-0.8-0.9-1.1-2.1-1.1-3.7c0-1.7,0.5-3.1,1.5-4c1-1,2.3-1.5,4-1.5c1.9,0,3.4,0.6,4.4,1.9
			C233.4,160.7,233.9,162.5,233.9,164.9z M228,161c-0.5,0-0.8,0.2-1.1,0.5c-0.3,0.3-0.4,0.9-0.4,1.6c0,0.6,0.1,1,0.4,1.4
			c0.2,0.3,0.6,0.5,1.1,0.5c0.5,0,0.9-0.2,1.2-0.5c0.3-0.3,0.5-0.7,0.5-1.2c0-0.6-0.2-1.2-0.5-1.6C228.9,161.2,228.5,161,228,161z"
			/>
		<path class="st10" d="M247.5,162.7c0,1.7-0.5,3.1-1.5,4c-1,0.9-2.5,1.4-4.4,1.4h-1.2v5.1h-4.2v-15.5h5.4c2,0,3.4,0.4,4.4,1.3
			C247,159.9,247.5,161.1,247.5,162.7z M240.5,164.7h0.8c0.6,0,1.1-0.2,1.5-0.5c0.4-0.4,0.6-0.8,0.6-1.5c0-1-0.6-1.6-1.7-1.6h-1.1
			V164.7z"/>
		<path class="st10" d="M256.8,173.3l-3.2-11.2h-0.1c0.1,1.9,0.2,3.4,0.2,4.4v6.7H250v-15.5h5.6l3.2,11h0.1l3.2-11h5.6v15.5h-3.9
			v-6.8c0-0.4,0-0.7,0-1.2c0-0.4,0.1-1.5,0.1-3.2h-0.1l-3.1,11.2H256.8z"/>
		<path class="st10" d="M160.1,187.8h6.7v8.4c-1.8,0.6-3.8,0.9-6,0.9c-2.4,0-4.2-0.7-5.5-2.1s-2-3.4-2-5.9c0-2.5,0.7-4.5,2.1-5.8
			s3.4-2.1,6-2.1c1,0,1.9,0.1,2.8,0.3c0.9,0.2,1.6,0.4,2.3,0.7l-1.3,3.3c-1.1-0.6-2.3-0.8-3.7-0.8c-1.2,0-2.2,0.4-2.8,1.2
			s-1,1.9-1,3.4c0,1.5,0.3,2.6,0.9,3.3c0.6,0.8,1.5,1.1,2.6,1.1c0.6,0,1.2-0.1,1.7-0.2V191h-2.8V187.8z"/>
		<path class="st10" d="M179.5,196.9l-0.8-2.9h-5l-0.8,2.9h-4.6l5.1-15.6h5.6l5.1,15.6H179.5z M177.9,190.5l-0.7-2.5
			c-0.2-0.6-0.3-1.3-0.6-2.2s-0.4-1.5-0.4-1.9c-0.1,0.4-0.2,1-0.4,1.8c-0.2,0.8-0.6,2.5-1.2,4.9H177.9z"/>
		<path class="st10" d="M185.8,196.9v-15.5h4.2v12.1h6v3.4H185.8z"/>
		<path class="st10" d="M198.4,196.9v-15.5h4.2v12.1h6v3.4H198.4z"/>
		<path class="st10" d="M220.3,196.9h-9.2v-15.5h9.2v3.4h-5v2.4h4.6v3.4h-4.6v2.9h5V196.9z"/>
		<path class="st10" d="M227.2,191.2v5.6H223v-15.5h5.1c4.2,0,6.3,1.5,6.3,4.6c0,1.8-0.9,3.2-2.6,4.2l4.5,6.8h-4.8l-3.3-5.6H227.2z
			 M227.2,188.1h0.8c1.5,0,2.2-0.6,2.2-1.9c0-1.1-0.7-1.6-2.2-1.6h-0.8V188.1z"/>
		<path class="st10" d="M243.2,187.1l2.7-5.8h4.5l-5.1,9.5v6.1h-4.2v-5.9l-5.1-9.6h4.6L243.2,187.1z"/>
		<path class="st10" d="M262.5,181.1c1.6,0,2.9,0.3,3.8,1c0.9,0.7,1.4,1.6,1.4,2.8c0,0.8-0.2,1.5-0.6,2.2c-0.4,0.6-1.1,1.2-2,1.6
			c1.1,0.7,2,1.3,2.4,1.9c0.5,0.6,0.7,1.3,0.7,2.1c0,1.4-0.5,2.4-1.5,3.2c-1,0.8-2.4,1.1-4.2,1.1c-1.8,0-3.2-0.4-4.2-1.1
			c-1-0.7-1.5-1.8-1.5-3.2c0-0.9,0.2-1.7,0.6-2.3s1.2-1.2,2.2-1.7c-0.8-0.6-1.4-1.1-1.8-1.8c-0.4-0.6-0.6-1.3-0.6-2.1
			c0-1.2,0.5-2.1,1.4-2.8C259.6,181.5,260.9,181.1,262.5,181.1z M260.7,192.6c0,0.4,0.2,0.8,0.5,1.1c0.3,0.3,0.7,0.4,1.3,0.4
			c1.2,0,1.9-0.5,1.9-1.4c0-0.3-0.1-0.7-0.4-1c-0.3-0.3-0.8-0.7-1.5-1.1c-0.6,0.3-1.1,0.7-1.4,1
			C260.8,191.9,260.7,192.2,260.7,192.6z M262.5,184.1c-0.4,0-0.7,0.1-0.9,0.3c-0.2,0.2-0.4,0.5-0.4,0.8c0,0.6,0.4,1.1,1.2,1.6
			c0.5-0.3,0.8-0.6,1-0.8s0.3-0.5,0.3-0.8c0-0.3-0.1-0.6-0.4-0.8C263.1,184.2,262.8,184.1,262.5,184.1z"/>
		<path class="st10" d="M274.1,193.7l0.1,0.2c-0.7,2.7-1.3,4.7-1.9,6h-3c0.2-1,0.4-2.1,0.6-3.3c0.2-1.2,0.4-2.2,0.4-2.9H274.1z"/>
		<path class="st10" d="M297.6,196.9h-5.5l-5.7-10.9h-0.1c0.1,1.7,0.2,3,0.2,3.9v7h-3.7v-15.5h5.5l5.6,10.8h0.1
			c-0.1-1.6-0.1-2.8-0.1-3.8v-7h3.7V196.9z"/>
		<path class="st10" d="M306.5,187.1l2.7-5.8h4.5l-5.1,9.5v6.1h-4.2v-5.9l-5.1-9.6h4.6L306.5,187.1z"/>
		<path class="st10" d="M322.3,184.6c-1,0-1.8,0.4-2.3,1.2c-0.6,0.8-0.8,1.9-0.8,3.4c0,3,1.1,4.5,3.4,4.5c0.7,0,1.4-0.1,2-0.3
			c0.6-0.2,1.3-0.4,1.9-0.7v3.5c-1.3,0.6-2.8,0.9-4.4,0.9c-2.3,0-4.1-0.7-5.4-2c-1.2-1.4-1.9-3.3-1.9-5.9c0-1.6,0.3-3,0.9-4.2
			c0.6-1.2,1.5-2.2,2.6-2.8s2.5-1,4-1c1.7,0,3.3,0.4,4.8,1.1l-1.3,3.3c-0.6-0.3-1.1-0.5-1.7-0.7C323.6,184.7,323,184.6,322.3,184.6z
			"/>
		<path class="st10" d="M156.7,209.3h-4.1v-0.9l1.5-1.5c0.4-0.5,0.7-0.8,0.9-0.9s0.2-0.3,0.3-0.5c0.1-0.1,0.1-0.3,0.1-0.5
			c0-0.2-0.1-0.4-0.2-0.5c-0.1-0.1-0.3-0.2-0.5-0.2c-0.2,0-0.5,0.1-0.7,0.2c-0.2,0.1-0.4,0.3-0.7,0.4l-0.7-0.8
			c0.3-0.2,0.5-0.4,0.7-0.5c0.2-0.1,0.4-0.2,0.6-0.2c0.2-0.1,0.5-0.1,0.8-0.1c0.4,0,0.7,0.1,1,0.2c0.3,0.1,0.5,0.3,0.7,0.6
			s0.2,0.5,0.2,0.8c0,0.3,0,0.5-0.1,0.8s-0.2,0.5-0.4,0.7c-0.2,0.2-0.6,0.6-1.1,1.1l-0.8,0.7v0.1h2.6V209.3z"/>
		<path class="st10" d="M157.2,206.8c0-1.2,0.2-2,0.7-2.6c0.5-0.6,1.2-0.9,2.2-0.9c0.3,0,0.6,0,0.8,0.1v1c-0.2-0.1-0.5-0.1-0.7-0.1
			c-0.4,0-0.8,0.1-1,0.2c-0.3,0.1-0.5,0.3-0.6,0.6c-0.1,0.3-0.2,0.6-0.2,1.1h0.1c0.3-0.5,0.7-0.7,1.3-0.7c0.5,0,0.9,0.2,1.2,0.5
			s0.4,0.8,0.4,1.4c0,0.6-0.2,1.1-0.5,1.5c-0.4,0.4-0.8,0.6-1.5,0.6c-0.4,0-0.8-0.1-1.1-0.3c-0.3-0.2-0.6-0.5-0.8-0.9
			C157.3,207.8,157.2,207.4,157.2,206.8z M159.4,208.4c0.3,0,0.5-0.1,0.6-0.3c0.1-0.2,0.2-0.4,0.2-0.8c0-0.3-0.1-0.5-0.2-0.7
			c-0.1-0.2-0.3-0.2-0.6-0.2c-0.3,0-0.5,0.1-0.6,0.2s-0.3,0.4-0.3,0.6c0,0.3,0.1,0.6,0.3,0.8S159.1,208.4,159.4,208.4z"/>
		<path class="st10" d="M166.1,206.4c0,1-0.2,1.8-0.5,2.3c-0.3,0.5-0.9,0.7-1.6,0.7c-0.7,0-1.2-0.3-1.5-0.8
			c-0.3-0.5-0.5-1.3-0.5-2.3c0-1,0.2-1.8,0.5-2.3c0.3-0.5,0.9-0.7,1.6-0.7c0.7,0,1.2,0.3,1.5,0.8
			C165.9,204.6,166.1,205.4,166.1,206.4z M163.2,206.4c0,0.7,0.1,1.2,0.2,1.6c0.1,0.3,0.3,0.5,0.6,0.5c0.3,0,0.5-0.2,0.6-0.5
			c0.1-0.3,0.2-0.8,0.2-1.6c0-0.7-0.1-1.2-0.2-1.6c-0.1-0.3-0.3-0.5-0.6-0.5c-0.3,0-0.5,0.2-0.6,0.5S163.2,205.6,163.2,206.4z"/>
		<path class="st10" d="M170.9,209.3h-4.1v-0.9l1.5-1.5c0.4-0.5,0.7-0.8,0.9-0.9s0.2-0.3,0.3-0.5c0.1-0.1,0.1-0.3,0.1-0.5
			c0-0.2-0.1-0.4-0.2-0.5c-0.1-0.1-0.3-0.2-0.5-0.2c-0.2,0-0.5,0.1-0.7,0.2c-0.2,0.1-0.4,0.3-0.7,0.4l-0.7-0.8
			c0.3-0.2,0.5-0.4,0.7-0.5c0.2-0.1,0.4-0.2,0.6-0.2c0.2-0.1,0.5-0.1,0.8-0.1c0.4,0,0.7,0.1,1,0.2c0.3,0.1,0.5,0.3,0.7,0.6
			s0.2,0.5,0.2,0.8c0,0.3,0,0.5-0.1,0.8s-0.2,0.5-0.4,0.7c-0.2,0.2-0.6,0.6-1.1,1.1l-0.8,0.7v0.1h2.6V209.3z"/>
		<path class="st10" d="M175.2,209.3H174v-5.9h3.4v1h-2.2v1.5h2v1h-2V209.3z"/>
		<path class="st10" d="M181,204.7c0.2,0,0.3,0,0.4,0l-0.1,1.2c-0.1,0-0.2,0-0.4,0c-0.4,0-0.7,0.1-0.9,0.3c-0.2,0.2-0.3,0.5-0.3,0.8
			v2.3h-1.2v-4.5h0.9l0.2,0.8h0.1c0.1-0.3,0.3-0.5,0.6-0.6S180.7,204.7,181,204.7z"/>
		<path class="st10" d="M184.3,209.4c-0.7,0-1.3-0.2-1.7-0.6c-0.4-0.4-0.6-1-0.6-1.7c0-0.8,0.2-1.3,0.6-1.8s0.9-0.6,1.6-0.6
			c0.6,0,1.1,0.2,1.5,0.5c0.4,0.4,0.5,0.9,0.5,1.5v0.6h-2.9c0,0.3,0.1,0.6,0.3,0.8c0.2,0.2,0.5,0.3,0.8,0.3c0.3,0,0.5,0,0.8-0.1
			c0.2-0.1,0.5-0.1,0.8-0.3v1c-0.2,0.1-0.4,0.2-0.7,0.2S184.6,209.4,184.3,209.4z M184.1,205.6c-0.3,0-0.5,0.1-0.6,0.2
			c-0.1,0.2-0.2,0.4-0.3,0.7h1.7c0-0.3-0.1-0.5-0.2-0.7C184.6,205.7,184.3,205.6,184.1,205.6z"/>
		<path class="st10" d="M188.5,209.4c-0.5,0-0.9-0.2-1.3-0.6s-0.5-1-0.5-1.7c0-0.7,0.2-1.3,0.5-1.7c0.3-0.4,0.7-0.6,1.3-0.6
			c0.6,0,1,0.2,1.3,0.7h0c-0.1-0.3-0.1-0.6-0.1-0.9V203h1.2v6.3h-0.9l-0.2-0.6h-0.1C189.5,209.2,189.1,209.4,188.5,209.4z
			 M189,208.4c0.3,0,0.5-0.1,0.7-0.3c0.1-0.2,0.2-0.5,0.2-0.9v-0.1c0-0.5-0.1-0.8-0.2-1s-0.4-0.3-0.7-0.3c-0.3,0-0.5,0.1-0.6,0.3
			c-0.2,0.2-0.2,0.6-0.2,1s0.1,0.8,0.2,1C188.5,208.3,188.7,208.4,189,208.4z"/>
		<path class="st10" d="M194.4,209.4c-0.7,0-1.3-0.2-1.7-0.6c-0.4-0.4-0.6-1-0.6-1.7c0-0.8,0.2-1.3,0.6-1.8s0.9-0.6,1.6-0.6
			c0.6,0,1.1,0.2,1.5,0.5c0.4,0.4,0.5,0.9,0.5,1.5v0.6h-2.9c0,0.3,0.1,0.6,0.3,0.8c0.2,0.2,0.5,0.3,0.8,0.3c0.3,0,0.5,0,0.8-0.1
			c0.2-0.1,0.5-0.1,0.8-0.3v1c-0.2,0.1-0.4,0.2-0.7,0.2S194.7,209.4,194.4,209.4z M194.2,205.6c-0.3,0-0.5,0.1-0.6,0.2
			c-0.1,0.2-0.2,0.4-0.3,0.7h1.7c0-0.3-0.1-0.5-0.2-0.7C194.7,205.7,194.5,205.6,194.2,205.6z"/>
		<path class="st10" d="M199.8,204.7c0.2,0,0.3,0,0.4,0l-0.1,1.2c-0.1,0-0.2,0-0.4,0c-0.4,0-0.7,0.1-0.9,0.3
			c-0.2,0.2-0.3,0.5-0.3,0.8v2.3h-1.2v-4.5h0.9l0.2,0.8h0.1c0.1-0.3,0.3-0.5,0.6-0.6S199.5,204.7,199.8,204.7z"/>
		<path class="st10" d="M200.9,203.6c0-0.4,0.2-0.6,0.7-0.6c0.4,0,0.7,0.2,0.7,0.6c0,0.2-0.1,0.3-0.2,0.4c-0.1,0.1-0.3,0.2-0.5,0.2
			C201.2,204.2,200.9,204,200.9,203.6z M202.2,209.3H201v-4.5h1.2V209.3z"/>
		<path class="st10" d="M205.3,209.4c-1.4,0-2.1-0.8-2.1-2.3c0-0.8,0.2-1.4,0.6-1.8s0.9-0.6,1.6-0.6c0.5,0,1,0.1,1.4,0.3l-0.4,1
			c-0.2-0.1-0.4-0.1-0.5-0.2s-0.3-0.1-0.5-0.1c-0.6,0-1,0.5-1,1.4c0,0.9,0.3,1.3,1,1.3c0.2,0,0.5,0,0.7-0.1s0.4-0.2,0.6-0.3v1.1
			c-0.2,0.1-0.4,0.2-0.6,0.3C205.9,209.4,205.7,209.4,205.3,209.4z"/>
		<path class="st10" d="M209,206.9l0.5-0.7l1.3-1.4h1.4l-1.8,2l1.9,2.6h-1.4l-1.3-1.8l-0.5,0.4v1.4h-1.2V203h1.2v2.8L209,206.9
			L209,206.9z"/>
		<path class="st10" d="M220,206.3c0,1-0.3,1.7-0.8,2.2c-0.6,0.5-1.4,0.8-2.4,0.8h-1.7v-5.9h1.9c1,0,1.7,0.3,2.2,0.8
			C219.8,204.7,220,205.4,220,206.3z M218.7,206.3c0-1.3-0.6-1.9-1.7-1.9h-0.7v3.8h0.5C218.1,208.3,218.7,207.6,218.7,206.3z"/>
		<path class="st10" d="M225.3,207.1c0,0.7-0.2,1.3-0.6,1.7c-0.4,0.4-0.9,0.6-1.6,0.6c-0.4,0-0.8-0.1-1.1-0.3
			c-0.3-0.2-0.6-0.5-0.8-0.8s-0.3-0.8-0.3-1.2c0-0.7,0.2-1.3,0.6-1.7s0.9-0.6,1.6-0.6c0.4,0,0.8,0.1,1.1,0.3
			c0.3,0.2,0.6,0.5,0.8,0.8S225.3,206.6,225.3,207.1z M222.2,207.1c0,0.4,0.1,0.8,0.2,1c0.1,0.2,0.4,0.3,0.7,0.3
			c0.3,0,0.6-0.1,0.7-0.3s0.2-0.6,0.2-1c0-0.4-0.1-0.8-0.2-1s-0.4-0.3-0.7-0.3c-0.3,0-0.6,0.1-0.7,0.3S222.2,206.6,222.2,207.1z"/>
		<path class="st10" d="M229.5,209.3l-0.2-0.6h-0.1c-0.1,0.2-0.3,0.4-0.6,0.5s-0.5,0.2-0.8,0.2c-0.5,0-0.9-0.1-1.2-0.4
			c-0.3-0.3-0.4-0.7-0.4-1.2v-2.9h1.2v2.6c0,0.3,0.1,0.6,0.2,0.7c0.1,0.2,0.3,0.2,0.6,0.2c0.3,0,0.6-0.1,0.7-0.3
			c0.2-0.2,0.2-0.6,0.2-1.1v-2.1h1.2v4.5H229.5z"/>
		<path class="st10" d="M235.7,204.8v0.6l-0.7,0.2c0.1,0.2,0.2,0.4,0.2,0.7c0,0.5-0.2,0.9-0.5,1.1s-0.8,0.4-1.4,0.4l-0.2,0l-0.2,0
			c-0.1,0.1-0.2,0.2-0.2,0.3c0,0.2,0.2,0.3,0.7,0.3h0.8c0.5,0,0.9,0.1,1.1,0.3s0.4,0.5,0.4,0.9c0,0.5-0.2,0.9-0.7,1.2
			c-0.4,0.3-1.1,0.4-1.9,0.4c-0.6,0-1.1-0.1-1.4-0.3c-0.3-0.2-0.5-0.5-0.5-0.9c0-0.3,0.1-0.5,0.3-0.7c0.2-0.2,0.4-0.3,0.7-0.4
			c-0.1-0.1-0.2-0.1-0.3-0.3c-0.1-0.1-0.1-0.3-0.1-0.4c0-0.2,0-0.3,0.1-0.4s0.2-0.2,0.4-0.3c-0.2-0.1-0.4-0.3-0.6-0.5
			c-0.1-0.2-0.2-0.5-0.2-0.8c0-0.5,0.2-0.9,0.5-1.1c0.3-0.3,0.8-0.4,1.4-0.4c0.1,0,0.3,0,0.5,0c0.2,0,0.3,0,0.3,0.1H235.7z
			 M232.2,210c0,0.2,0.1,0.3,0.2,0.4c0.2,0.1,0.4,0.1,0.7,0.1c0.4,0,0.8-0.1,1-0.2s0.4-0.3,0.4-0.5c0-0.2-0.1-0.3-0.2-0.4
			c-0.1-0.1-0.4-0.1-0.7-0.1H233c-0.2,0-0.4,0.1-0.6,0.2C232.3,209.6,232.2,209.8,232.2,210z M232.6,206.3c0,0.2,0.1,0.4,0.2,0.6
			s0.3,0.2,0.5,0.2c0.2,0,0.4-0.1,0.5-0.2c0.1-0.1,0.2-0.3,0.2-0.6c0-0.5-0.2-0.8-0.7-0.8C232.9,205.5,232.6,205.7,232.6,206.3z"/>
		<path class="st10" d="M237.6,209.3h-1.2V203h1.2V209.3z"/>
		<path class="st10" d="M241.8,209.3l-0.2-0.6h0c-0.2,0.3-0.4,0.4-0.6,0.5c-0.2,0.1-0.5,0.2-0.9,0.2c-0.4,0-0.8-0.1-1-0.4
			s-0.4-0.6-0.4-1.1c0-0.5,0.2-0.8,0.5-1.1c0.3-0.2,0.8-0.4,1.5-0.4l0.8,0v-0.2c0-0.5-0.2-0.7-0.7-0.7c-0.4,0-0.8,0.1-1.3,0.3
			l-0.4-0.8c0.5-0.3,1.1-0.4,1.7-0.4c0.6,0,1.1,0.1,1.4,0.4s0.5,0.7,0.5,1.2v3H241.8z M241.4,207.2l-0.5,0c-0.4,0-0.6,0.1-0.8,0.2
			c-0.2,0.1-0.3,0.3-0.3,0.5c0,0.3,0.2,0.5,0.6,0.5c0.3,0,0.5-0.1,0.7-0.2s0.3-0.4,0.3-0.7V207.2z"/>
		<path class="st10" d="M247.1,208c0,0.5-0.2,0.8-0.5,1.1c-0.3,0.2-0.8,0.4-1.4,0.4c-0.3,0-0.6,0-0.8-0.1c-0.2,0-0.4-0.1-0.7-0.2v-1
			c0.2,0.1,0.5,0.2,0.8,0.3c0.3,0.1,0.5,0.1,0.8,0.1c0.4,0,0.7-0.1,0.7-0.4c0-0.1,0-0.2-0.1-0.2s-0.2-0.1-0.3-0.2s-0.3-0.2-0.6-0.3
			c-0.3-0.1-0.6-0.3-0.8-0.4c-0.2-0.1-0.3-0.3-0.4-0.4c-0.1-0.2-0.1-0.4-0.1-0.6c0-0.4,0.2-0.7,0.5-0.9s0.8-0.3,1.3-0.3
			c0.5,0,1.1,0.1,1.6,0.4l-0.4,0.9c-0.2-0.1-0.4-0.2-0.6-0.2c-0.2-0.1-0.4-0.1-0.6-0.1c-0.4,0-0.5,0.1-0.5,0.3
			c0,0.1,0.1,0.2,0.2,0.3c0.1,0.1,0.4,0.2,0.8,0.4c0.4,0.1,0.6,0.3,0.8,0.4c0.2,0.1,0.3,0.3,0.4,0.4
			C247,207.6,247.1,207.8,247.1,208z"/>
		<path class="st10" d="M251.2,208c0,0.5-0.2,0.8-0.5,1.1c-0.3,0.2-0.8,0.4-1.4,0.4c-0.3,0-0.6,0-0.8-0.1c-0.2,0-0.4-0.1-0.7-0.2v-1
			c0.2,0.1,0.5,0.2,0.8,0.3c0.3,0.1,0.5,0.1,0.8,0.1c0.4,0,0.7-0.1,0.7-0.4c0-0.1,0-0.2-0.1-0.2s-0.2-0.1-0.3-0.2s-0.3-0.2-0.6-0.3
			c-0.3-0.1-0.6-0.3-0.8-0.4c-0.2-0.1-0.3-0.3-0.4-0.4c-0.1-0.2-0.1-0.4-0.1-0.6c0-0.4,0.2-0.7,0.5-0.9s0.8-0.3,1.3-0.3
			c0.5,0,1.1,0.1,1.6,0.4l-0.4,0.9c-0.2-0.1-0.4-0.2-0.6-0.2c-0.2-0.1-0.4-0.1-0.6-0.1c-0.4,0-0.5,0.1-0.5,0.3
			c0,0.1,0.1,0.2,0.2,0.3c0.1,0.1,0.4,0.2,0.8,0.4c0.4,0.1,0.6,0.3,0.8,0.4c0.2,0.1,0.3,0.3,0.4,0.4
			C251.2,207.6,251.2,207.8,251.2,208z"/>
		<path class="st10" d="M254.4,203.4h1.8c0.8,0,1.4,0.1,1.8,0.4c0.4,0.2,0.6,0.6,0.6,1.1c0,0.4-0.1,0.6-0.2,0.9s-0.4,0.4-0.7,0.4v0
			c0.4,0.1,0.6,0.2,0.8,0.5c0.2,0.2,0.2,0.5,0.2,0.9c0,0.5-0.2,1-0.6,1.3c-0.4,0.3-0.9,0.5-1.6,0.5h-2.2V203.4z M255.7,205.8h0.7
			c0.3,0,0.6-0.1,0.7-0.2c0.2-0.1,0.2-0.3,0.2-0.5c0-0.2-0.1-0.4-0.2-0.5c-0.2-0.1-0.4-0.1-0.8-0.1h-0.7V205.8z M255.7,206.7v1.5
			h0.8c0.3,0,0.6-0.1,0.8-0.2c0.2-0.1,0.2-0.3,0.2-0.6c0-0.5-0.4-0.7-1.1-0.7H255.7z"/>
		<path class="st10" d="M261.1,209.3h-1.2V203h1.2V209.3z"/>
		<path class="st10" d="M263.5,209.3l-1.7-4.5h1.3l0.9,2.6c0.1,0.3,0.2,0.6,0.2,0.9h0c0-0.3,0.1-0.6,0.2-0.9l0.9-2.6h1.3l-1.7,4.5
			H263.5z"/>
		<path class="st10" d="M268.5,209.4c-0.5,0-0.9-0.2-1.3-0.6s-0.5-1-0.5-1.7c0-0.7,0.2-1.3,0.5-1.7c0.3-0.4,0.7-0.6,1.3-0.6
			c0.6,0,1,0.2,1.3,0.7h0c-0.1-0.3-0.1-0.6-0.1-0.9V203h1.2v6.3h-0.9l-0.2-0.6h-0.1C269.5,209.2,269.1,209.4,268.5,209.4z
			 M269,208.4c0.3,0,0.5-0.1,0.7-0.3c0.1-0.2,0.2-0.5,0.2-0.9v-0.1c0-0.5-0.1-0.8-0.2-1s-0.4-0.3-0.7-0.3c-0.3,0-0.5,0.1-0.6,0.3
			c-0.2,0.2-0.2,0.6-0.2,1s0.1,0.8,0.2,1C268.5,208.3,268.7,208.4,269,208.4z"/>
		<path class="st10" d="M273.5,208.5c-0.1,0.5-0.4,1.2-0.7,1.9h-0.9c0.2-0.7,0.3-1.4,0.4-2L273.5,208.5L273.5,208.5z"/>
		<path class="st10" d="M282.2,209.3h-1.6l-2.6-4.5h0c0.1,0.8,0.1,1.4,0.1,1.7v2.8H277v-5.9h1.6l2.6,4.4h0c0-0.8-0.1-1.3-0.1-1.6
			v-2.8h1.1V209.3z"/>
		<path class="st10" d="M285.6,209.4c-0.7,0-1.3-0.2-1.7-0.6c-0.4-0.4-0.6-1-0.6-1.7c0-0.8,0.2-1.3,0.6-1.8s0.9-0.6,1.6-0.6
			c0.6,0,1.1,0.2,1.5,0.5c0.4,0.4,0.5,0.9,0.5,1.5v0.6h-2.9c0,0.3,0.1,0.6,0.3,0.8c0.2,0.2,0.5,0.3,0.8,0.3c0.3,0,0.5,0,0.8-0.1
			c0.2-0.1,0.5-0.1,0.8-0.3v1c-0.2,0.1-0.4,0.2-0.7,0.2S286,209.4,285.6,209.4z M285.5,205.6c-0.3,0-0.5,0.1-0.6,0.2
			c-0.1,0.2-0.2,0.4-0.3,0.7h1.7c0-0.3-0.1-0.5-0.2-0.7C285.9,205.7,285.7,205.6,285.5,205.6z"/>
		<path class="st10" d="M292.2,209.3l-0.3-1.6l-0.5-2h0l-0.8,3.6h-1.3l-1.3-4.5h1.2l0.5,2c0.1,0.4,0.2,0.9,0.3,1.5h0
			c0-0.2,0.1-0.5,0.1-1l0.1-0.3l0.6-2.2h1.4l0.5,2.2c0,0.1,0,0.1,0.1,0.3c0,0.1,0,0.2,0.1,0.4c0,0.1,0,0.3,0.1,0.4
			c0,0.1,0,0.2,0,0.3h0c0-0.2,0.1-0.5,0.1-0.8s0.1-0.6,0.1-0.7l0.5-2h1.2l-1.3,4.5H292.2z"/>
		<path class="st10" d="M299.7,205.8l1.2-2.4h1.3l-2,3.6v2.3H299v-2.3l-2-3.6h1.4L299.7,205.8z"/>
		<path class="st10" d="M307,207.1c0,0.7-0.2,1.3-0.6,1.7c-0.4,0.4-0.9,0.6-1.6,0.6c-0.4,0-0.8-0.1-1.1-0.3
			c-0.3-0.2-0.6-0.5-0.8-0.8s-0.3-0.8-0.3-1.2c0-0.7,0.2-1.3,0.6-1.7s0.9-0.6,1.6-0.6c0.4,0,0.8,0.1,1.1,0.3
			c0.3,0.2,0.6,0.5,0.8,0.8S307,206.6,307,207.1z M303.9,207.1c0,0.4,0.1,0.8,0.2,1c0.1,0.2,0.4,0.3,0.7,0.3c0.3,0,0.6-0.1,0.7-0.3
			s0.2-0.6,0.2-1c0-0.4-0.1-0.8-0.2-1s-0.4-0.3-0.7-0.3c-0.3,0-0.6,0.1-0.7,0.3S303.9,206.6,303.9,207.1z"/>
		<path class="st10" d="M310.5,204.7c0.2,0,0.3,0,0.4,0l-0.1,1.2c-0.1,0-0.2,0-0.4,0c-0.4,0-0.7,0.1-0.9,0.3
			c-0.2,0.2-0.3,0.5-0.3,0.8v2.3H308v-4.5h0.9l0.2,0.8h0.1c0.1-0.3,0.3-0.5,0.6-0.6S310.3,204.7,310.5,204.7z"/>
		<path class="st10" d="M313,206.9l0.5-0.7l1.3-1.4h1.4l-1.8,2l1.9,2.6h-1.4l-1.3-1.8l-0.5,0.4v1.4h-1.2V203h1.2v2.8L313,206.9
			L313,206.9z"/>
		<path class="st10" d="M318.1,208.5c-0.1,0.5-0.4,1.2-0.7,1.9h-0.9c0.2-0.7,0.3-1.4,0.4-2L318.1,208.5L318.1,208.5z"/>
		<path class="st10" d="M326.8,209.3h-1.6l-2.6-4.5h0c0.1,0.8,0.1,1.4,0.1,1.7v2.8h-1.1v-5.9h1.6l2.6,4.4h0c0-0.8-0.1-1.3-0.1-1.6
			v-2.8h1.1V209.3z"/>
		<path class="st10" d="M330.1,205.8l1.2-2.4h1.3l-2,3.6v2.3h-1.2v-2.3l-2-3.6h1.4L330.1,205.8z"/>
		<path class="st10" d="M338.3,209.3H337v-3.4l0-0.6l0-0.6c-0.2,0.2-0.4,0.3-0.4,0.4l-0.7,0.5l-0.6-0.8l1.9-1.5h1V209.3z"/>
		<path class="st10" d="M344,206.4c0,1-0.2,1.8-0.5,2.3c-0.3,0.5-0.9,0.7-1.6,0.7c-0.7,0-1.2-0.3-1.5-0.8c-0.3-0.5-0.5-1.3-0.5-2.3
			c0-1,0.2-1.8,0.5-2.3c0.3-0.5,0.9-0.7,1.6-0.7c0.7,0,1.2,0.3,1.5,0.8C343.8,204.6,344,205.4,344,206.4z M341.1,206.4
			c0,0.7,0.1,1.2,0.2,1.6c0.1,0.3,0.3,0.5,0.6,0.5c0.3,0,0.5-0.2,0.6-0.5c0.1-0.3,0.2-0.8,0.2-1.6c0-0.7-0.1-1.2-0.2-1.6
			c-0.1-0.3-0.3-0.5-0.6-0.5c-0.3,0-0.5,0.2-0.6,0.5S341.1,205.6,341.1,206.4z"/>
		<path class="st10" d="M348.7,206.4c0,1-0.2,1.8-0.5,2.3c-0.3,0.5-0.9,0.7-1.6,0.7c-0.7,0-1.2-0.3-1.5-0.8
			c-0.3-0.5-0.5-1.3-0.5-2.3c0-1,0.2-1.8,0.5-2.3c0.3-0.5,0.9-0.7,1.6-0.7c0.7,0,1.2,0.3,1.5,0.8
			C348.5,204.6,348.7,205.4,348.7,206.4z M345.8,206.4c0,0.7,0.1,1.2,0.2,1.6c0.1,0.3,0.3,0.5,0.6,0.5c0.3,0,0.5-0.2,0.6-0.5
			c0.1-0.3,0.2-0.8,0.2-1.6c0-0.7-0.1-1.2-0.2-1.6c-0.1-0.3-0.3-0.5-0.6-0.5c-0.3,0-0.5,0.2-0.6,0.5S345.8,205.6,345.8,206.4z"/>
		<path class="st10" d="M353.2,204.7c0,0.4-0.1,0.7-0.3,0.9c-0.2,0.3-0.5,0.4-0.9,0.5v0c0.5,0.1,0.8,0.2,1.1,0.4
			c0.2,0.2,0.4,0.5,0.4,0.9c0,0.6-0.2,1-0.6,1.3c-0.4,0.3-1,0.5-1.8,0.5c-0.6,0-1.2-0.1-1.7-0.3V208c0.2,0.1,0.5,0.2,0.8,0.3
			c0.3,0.1,0.5,0.1,0.8,0.1c0.4,0,0.7-0.1,0.9-0.2c0.2-0.1,0.3-0.4,0.3-0.7c0-0.3-0.1-0.5-0.3-0.6c-0.2-0.1-0.6-0.2-1.1-0.2h-0.4v-1
			h0.5c0.5,0,0.8-0.1,1-0.2s0.3-0.3,0.3-0.6c0-0.4-0.3-0.7-0.8-0.7c-0.2,0-0.4,0-0.6,0.1c-0.2,0.1-0.4,0.2-0.7,0.3l-0.6-0.9
			c0.5-0.4,1.2-0.6,1.9-0.6c0.6,0,1.1,0.1,1.4,0.4C353.1,203.9,353.2,204.3,353.2,204.7z"/>
		<path class="st10" d="M358.2,206.4c0,1-0.2,1.8-0.5,2.3c-0.3,0.5-0.9,0.7-1.6,0.7c-0.7,0-1.2-0.3-1.5-0.8
			c-0.3-0.5-0.5-1.3-0.5-2.3c0-1,0.2-1.8,0.5-2.3c0.3-0.5,0.9-0.7,1.6-0.7c0.7,0,1.2,0.3,1.5,0.8C358,204.6,358.2,205.4,358.2,206.4
			z M355.3,206.4c0,0.7,0.1,1.2,0.2,1.6c0.1,0.3,0.3,0.5,0.6,0.5c0.3,0,0.5-0.2,0.6-0.5c0.1-0.3,0.2-0.8,0.2-1.6
			c0-0.7-0.1-1.2-0.2-1.6c-0.1-0.3-0.3-0.5-0.6-0.5c-0.3,0-0.5,0.2-0.6,0.5S355.3,205.6,355.3,206.4z"/>
	</g>
</g>
</svg>
