<?xml version="1.0" encoding="utf-8"?>
<!-- Generator: Adobe Illustrator 23.0.6, SVG Export Plug-In . SVG Version: 6.00 Build 0)  -->
<svg version="1.1" id="Layer_1" xmlns="http://www.w3.org/2000/svg" xmlns:xlink="http://www.w3.org/1999/xlink" x="0px" y="0px"
	 viewBox="0 0 376.5 233.7" style="enable-background:new 0 0 376.5 233.7;" xml:space="preserve">
<style type="text/css">
	.st0{clip-path:url(#SVGID_2_);}
	.st1{clip-path:url(#SVGID_4_);}
	.st2{opacity:0.3;}
	.st3{clip-path:url(#SVGID_6_);}
	.st4{fill:#FFFFFF;}
	.st5{fill:#F299C1;}
	.st6{fill:#6ECEF5;}
	.st7{fill:#FDF49B;}
	.st8{fill:none;}
	.st9{fill:#7D644D;}
	.st10{fill:#4890A6;}
	.st11{fill:#E572A7;}
	.st12{fill:#594734;}
	.st13{opacity:0.7;}
	.st14{fill:#846F2C;}
	.st15{clip-path:url(#SVGID_8_);fill:#FFFFFF;}
	.st16{clip-path:url(#SVGID_8_);fill:#F299C1;}
	.st17{clip-path:url(#SVGID_8_);fill:#6ECEF5;}
	.st18{clip-path:url(#SVGID_8_);fill:#FDF49B;}
	.st19{clip-path:url(#SVGID_10_);fill:#FFFFFF;}
	.st20{clip-path:url(#SVGID_10_);fill:#F299C1;}
	.st21{clip-path:url(#SVGID_10_);fill:#6ECEF5;}
	.st22{clip-path:url(#SVGID_10_);fill:#FDF49B;}
	.st23{clip-path:url(#SVGID_12_);}
	.st24{fill:none;stroke:#000000;stroke-width:4;stroke-miterlimit:10;}
	.st25{clip-path:url(#SVGID_14_);}
	.st26{clip-path:url(#SVGID_16_);fill:#FFFFFF;}
	.st27{clip-path:url(#SVGID_16_);fill:#F299C1;}
	.st28{clip-path:url(#SVGID_16_);fill:#6ECEF5;}
	.st29{clip-path:url(#SVGID_16_);fill:#FDF49B;}
	.st30{clip-path:url(#SVGID_18_);fill:#FFFFFF;}
	.st31{clip-path:url(#SVGID_18_);fill:#F299C1;}
	.st32{clip-path:url(#SVGID_18_);fill:#6ECEF5;}
	.st33{clip-path:url(#SVGID_18_);fill:#FDF49B;}
	.st34{clip-path:url(#SVGID_18_);}
	.st35{clip-path:url(#SVGID_20_);}
	.st36{clip-path:url(#SVGID_22_);fill:#FFFFFF;}
	.st37{clip-path:url(#SVGID_22_);fill:#F299C1;}
	.st38{clip-path:url(#SVGID_22_);fill:#6ECEF5;}
	.st39{clip-path:url(#SVGID_22_);fill:#FDF49B;}
	.st40{opacity:0.92;fill:url(#SVGID_23_);}
	.st41{fill:#231F20;}
	.st42{fill:#FCEE23;}
	.st43{fill:none;stroke:#FFFFFF;stroke-width:0.275;stroke-miterlimit:10;}
	.st44{fill:#FCEE1F;}
	.st45{opacity:0.92;fill:url(#SVGID_24_);}
	.st46{fill:url(#SVGID_25_);}
	.st47{opacity:0.92;fill:url(#SVGID_26_);}
	.st48{opacity:0.92;fill:url(#SVGID_27_);}
	.st49{opacity:0.92;fill:url(#SVGID_28_);}
	.st50{opacity:0.92;fill:url(#SVGID_29_);}
	.st51{opacity:0.92;fill:url(#SVGID_30_);}
	.st52{opacity:0.92;fill:url(#SVGID_31_);}
	.st53{fill:#EEEDEE;}
	.st54{opacity:0.92;fill:url(#SVGID_32_);}
	.st55{opacity:0.92;fill:url(#SVGID_33_);}
	.st56{clip-path:url(#SVGID_35_);}
	.st57{opacity:0.92;fill:url(#SVGID_36_);}
	.st58{opacity:0.92;fill:url(#SVGID_37_);}
	.st59{opacity:0.92;fill:url(#SVGID_38_);}
	.st60{opacity:0.92;fill:url(#SVGID_39_);}
	.st61{opacity:0.92;fill:url(#SVGID_40_);}
</style>
<g>
	<defs>
		<rect id="SVGID_3_" x="-395.4" y="-1023.8" width="723" height="786.3"/>
	</defs>
	<clipPath id="SVGID_2_">
		<use xlink:href="#SVGID_3_"  style="overflow:visible;"/>
	</clipPath>
	<g id="fP5HP7_3_" class="st0">
		
			<image style="overflow:visible;" width="2205" height="2972" id="fP5HP7_4_" xlink:href="948CC9619054C063.png"  transform="matrix(0.3913 0 0 0.3913 -470.6003 -1060.9163)">
		</image>
	</g>
</g>
<g>
	<g>
		<defs>
			<rect id="SVGID_17_" width="376.5" height="233.7"/>
		</defs>
		<clipPath id="SVGID_4_">
			<use xlink:href="#SVGID_17_"  style="overflow:visible;"/>
		</clipPath>
		<path style="clip-path:url(#SVGID_4_);fill:#FFFFFF;" d="M76.8,124.5c0-2.5-1.5-3.8-5.2-3.8h-5.2v7.6h5.1
			C75.1,128.3,76.8,126.9,76.8,124.5z"/>
		<path style="clip-path:url(#SVGID_4_);fill:#FFFFFF;" d="M71.7,133.2h-5.3v8.3H72c3.8,0,5.5-1.5,5.5-4.2
			C77.5,134.5,75.5,133.2,71.7,133.2z"/>
		<polygon style="clip-path:url(#SVGID_4_);fill:#F299C1;" points="94.3,70.7 86.3,56.9 78.4,70.7 		"/>
		<polygon style="clip-path:url(#SVGID_4_);fill:#6ECEF5;" points="68.9,56.9 60.9,70.7 76.8,70.7 		"/>
		<path style="clip-path:url(#SVGID_4_);fill:#FFFFFF;" d="M50.7,92.1h-2.7v5h2.7c2.3,0,3.4-0.7,3.4-2.5
			C54.1,92.8,53,92.1,50.7,92.1z"/>
		<polygon style="clip-path:url(#SVGID_4_);fill:#FDF49B;" points="77.6,41.8 69.6,55.6 85.6,55.6 		"/>
		<path style="clip-path:url(#SVGID_4_);fill:#FFFFFF;" d="M126.1,94.6c0-1.8-1.1-2.5-3.4-2.5h-2.7v5h2.7
			C125,97.1,126.1,96.4,126.1,94.6z"/>
		<polygon style="clip-path:url(#SVGID_4_);fill:#FFFFFF;" points="33.2,93.9 33.2,93.9 31,100.1 35.3,100.1 		"/>
		<path style="clip-path:url(#SVGID_4_);fill:#FFFFFF;" d="M99.9,97.9c0,3.8,1.8,6.2,4.6,6.2c2.8,0,4.6-2.4,4.6-6.2
			c0-3.8-1.8-6.1-4.6-6.1C101.7,91.8,99.9,94.1,99.9,97.9z"/>
		<path style="clip-path:url(#SVGID_4_);fill:#FFFFFF;" d="M-181-25.4v263.9h651.2V-25.4H-181z M116,88.8h6.9c4.5,0,7.2,1.6,7.2,5.6
			c0,2.9-1.4,4.5-3.8,5.2l4.1,7.4h-4.2l-3.8-6.9h-2.3v6.9H116V88.8z M113.1,97.9c0,6.4-4.2,9.5-8.6,9.5c-4.4,0-8.6-3.1-8.6-9.5
			c0-6.4,4.2-9.5,8.6-9.5C108.9,88.5,113.1,91.5,113.1,97.9z M31.4,88.8h3.8l6.5,18.3h-4.1l-1.4-4.1H30l-1.4,4.1h-3.7L31.4,88.8z
			 M15.9,115.4h25.6v5.8h-9.4v25.6h-6.9v-25.6h-9.3V115.4z M28,161.3c-0.1-0.2-0.1-0.4-0.1-0.7c-0.5,0.5-1.1,0.7-1.8,0.7
			c-0.8,0-1.3-0.4-1.3-1.2c0-0.9,0.8-1.6,3.1-1.9V158c0-0.6-0.3-0.9-0.9-0.9c-0.7,0-1.2,0.3-1.7,0.7l-0.3-0.4
			c0.6-0.5,1.2-0.9,2.1-0.9c1,0,1.5,0.6,1.5,1.5v2.1c0,0.6,0,0.9,0.1,1.1H28z M32.4,157.1c0,0-0.2,0-0.2,0c-0.8,0-1.3,0.4-1.7,1.1v3
			h-0.6v-4.6h0.6v0.9h0c0.4-0.6,0.9-1,1.8-1h0.1L32.4,157.1z M35.7,161.3c-0.1,0-0.4,0.1-0.6,0.1c-0.9,0-1.2-0.3-1.2-1.1v-3h-0.8
			v-0.5h0.8V155h0.6v1.7h1.2v0.5h-1.2v2.9c0,0.5,0.2,0.8,0.7,0.8c0.2,0,0.4,0,0.5-0.1V161.3z M41.8,159.5h-1.7v-1.7h1.7V159.5z
			 M43.3,69c0-0.1,0-0.3,0.1-0.4c0.1-0.2,0.2-0.2,0.2-0.2s0.1-0.1,0,0.1c0,0.2,0.1,0.7,0.6,0.5c0.4-0.2,0.8-0.2,0.8-0.2
			c0.5,0,0.9,0.2,1.1,0.5c0,0,0,0,0,0.1c0.2,0.3,0.4,0.6,0.6,0.7c0.8,0.4,1.3,0.1,1.3-0.3c0-0.3-0.1-0.6-0.6-0.6
			c-0.2,0-0.3,0.1-0.4,0.2c-0.1,0-0.2,0-0.1-0.1c0.1-0.1,1.8-1.5,2.2,0.2c0.1,0.4,0.3,0.8,0.5,1c0.7,0.7,2.2,0.6,2.6-0.7
			c0.2-0.7-0.2-1.5-1-1.8c-1.6-0.7-3.9-0.4-4.9-0.7c-2.1-0.7-0.8-2.5-0.8-2.5c0-0.1,0.2-0.1,0.2,0.1c0,0-0.1,0.4-0.1,0.4
			c-0.1,0.5,0.4,1,1,1.1c0.6,0.1,1.3-0.3,1.3-0.7c0.1-0.4-0.1-1-0.7-1.1c-0.6-0.1-1-0.4-1.4-0.8c-0.8-1.1-0.4-2.2-0.4-2.2
			s-1.3-0.9-1.1-2c0.2-1.2,1.1-1,1.1-1s0,0,0,0c0,0-0.1,0-0.1,0.1c-0.1,0.1-0.2,0.2-0.2,0.3c-0.2,0.5,0,1,0.4,1.2
			c0.4,0.2,1,0,1.2-0.4c0-0.1,0.4-0.8-0.3-1.4c-0.1-0.1-0.2-0.2-0.3-0.2c-0.1-0.1-0.2-0.2-0.2-0.3c-0.2-0.2-0.3-0.5-0.3-0.8
			c0-0.2,0-0.3,0.1-0.5c0.2-0.6,0.7-1,1.3-1.1c0.3-0.1,0.6-0.1,0.7-0.3c0.2-0.2,0.4-0.4,0.4-0.7c0-0.4-0.3-0.7-0.8-0.9
			c0,0-0.1,0,0.1,0c0.3,0,1,0,1.4,1c0.2,0.5-0.1,1-0.4,1.4c-0.4,0.6-1,1.2-0.2,1.9c0.1,0.1,0.2,0.2,0.4,0.2c0.6,0.2,1.3-0.2,1.1-0.8
			c-0.1-0.4-0.3-0.5-0.5-0.5c-0.1,0-0.1,0-0.1,0c0.3-0.1,1.6-0.1,1.9,2.2c0.3,2,0.9,2.8,2.5,2.7c1.4-0.1,1.9-1.7,1.7-2.9
			c-0.2-1.1-1.4-1.7-2.4-2.3c0,0,0,0,0,0c-0.2-0.1-0.4-0.2-0.5-0.3c0,0,0,0,0,0c-0.8-0.6-1.3-1.5-1.3-2.6c0-0.2,0-0.4,0.1-0.6
			c0,0,0,0,0-0.1c0-0.2,0.1-0.4,0.2-0.5c0,0,0-0.1,0-0.1c0-0.1,0.1-0.1,0.1-0.2c0-0.1,0.1-0.1,0.1-0.1s0,0,0,0c0,0,0-0.1-0.1-0.2
			c-0.1-0.1-0.2-0.4-0.3-0.6C51.1,51,51,50.7,51,50.4c0-1.1,0.8-2,1.9-2.1c0,0,0,0,0,0.1c-0.3,0.2-0.7,1.3,0.5,2
			c0.3,0.2,0.6,0.2,1,0c0.1,0,0.3-0.1,0.4-0.1h0c0.2-0.1,0.4-0.2,0.5-0.4c0.5-0.7,0-1.8-1.2-2.7c-0.1-0.1-0.5-0.4-0.6-0.5
			c-0.4-0.5-0.7-1.1-0.7-1.8c0.1-1.8,1.3-2.3,1.5-2.4c0.6-0.3,1.4-0.8,1.4-1.4c0.1-1.1-1-1.5-1-1.5s-0.1,0,0-0.1
			c0.3,0,2.2-0.1,2.8,0.9c1,1.4,0,2.6-0.2,2.8c-0.7,0.8-1.7,1.5-1.1,2.2c0.7,0.8,1.6,0.4,1.7-0.3c0.1-0.7-0.6-1-0.8-1
			c-0.1,0,0-0.1,0-0.1s0.3-0.1,0.7-0.1c0.6,0,1.3,0.2,1.6,1.2c0.4,1.3-1.7,4,1,4.3c1.6,0.1,3-2.2,1.1-4.6c-1.1-1.5-1.8-2.6-1.7-4.2
			c0.1-1.6,0.5-1.1,0.2-2.1c-0.2-1-1.5-1.6-1-3.2c0.5-1.5,1.4-1.5,1.6-1.5c0,0,0,0.1,0,0.1s-0.7,2.3,0.9,1.6c0.9-0.3,0-2,0-3.3
			c0-1.3,1.2-1.1,1.8-2.4c0.3-0.7-0.9-1.4-1.1-1.6c-0.1-0.1,0.1-0.2,0.1-0.2s1.5-0.1,2.2,0.9c0.6,0.8,0.5,1.9,0.1,2.7
			c-0.4,0.9-1.3,1-0.9,2.2c0.3,0.8,1.1,0.8,1.3,0.7c0.6-0.2,1.8-0.6,3-0.1c1.2,0.6,1.9,2,1.9,2.7c0,0.1,0,0.1-0.1,0.1
			c0-0.1-0.7-1.3-2.2-1.5c-2.9-0.3-3.4,4.7-0.2,5.2c2.6,0.4,3.7-1.2,3.8-2.6c0.1-0.8,0-2.2-1.5-3.5c-1.8-1.6-2.9-3-2.9-4.8
			c0.1-2,0.8-2.1,0.8-2.1s0.1,0,0,0.2c-0.1,0.3,0,1.1,0.2,1.7c0.1,0.3,0.5,0.8,1.3,0.9c0.7,0,1.3-0.6,1.3-1.3c0-0.6-0.6-1.2-1.2-1.5
			c0,0-1.5-0.5-1.9-1.5c-0.9-1.9,0.2-3.5,2-3.9c0.1,0,0.1,0,0.1,0c-0.1,0-0.8,0.6-1,1.2c-0.2,0.6-0.2,1.3,0.8,1.7
			c1.3,0.6,2.8-0.7,3.2,1c0.1,0.5,0.2,0.5,0.4,1c0.3,0.8,0.8,1.3,1.7,1.2c1.2-0.2,2.3-2.3-0.2-3.4c-0.9-0.4-1.9-0.3-2.6-1.6
			c-0.7-1.2-0.6-2.3-0.4-3.2c0.3-1,0.7-1.4,1-1.5c0.7-0.4,1-0.2,1-0.2s0.1,0,0,0.1c-0.4,0.3-0.5,2,0.8,1.9c0.9-0.1,0.9-0.8,0.5-1.9
			C75,18.4,75,18.1,75,17.8c0.1-0.6,0.4-1,0.9-1.3c0.1-0.1,0.3-0.1,0.6-0.2c0.2,0,0.5-0.1,0.7-0.5c0.4-1-0.9-1.5-0.7-1.8
			c0.2-0.3,2.4,0.6,1.9,2.9c-0.1,0.3-0.1,0.5-0.2,0.7c-0.2,0.8-0.5,1.3-0.6,1.7c0,0.2,0,0.3,0.1,0.5c0.2,0.4,0.4,0.5,0.6,0.5
			c0.5,0.1,1.3-0.3,1.3-1.3c0-0.6-0.4-1.3,0.4-0.8c0.9,0.5,2.2,1.8,1.3,3.7c-0.3,0.6-0.7,0.8-1.2,1c-0.4,0.2-0.6,0.6-0.6,1.1
			c0,0.7,0.5,1.2,1.2,1.2c0.5,0,1.5-0.4,1.3-1.9c0-0.1-0.1-0.2-0.1-0.3c-0.2-0.2,0.1-0.1,0.1-0.1c0.3,0.1,2.9,1.4,1.1,4
			c-1.4,2.1-2.3,4-0.9,4.8c1.3,0.8,2.8-0.3,2.4-1.7c-0.1-0.5-1.2-0.8-1-2.3c0.2-1.4,1.2-1.1,1.2-1.1s0.1,0.1-0.1,0.2
			c-0.4,0.4-0.3,1.9,1,1.6c1-0.2,0.5-1.4,0-2.3c-0.5-0.9-0.8-2,0.1-2.9c0.7-0.7,1.4-0.4,1.4-0.3c0,0,0,0.1-0.1,0
			c-0.2,0-0.5,0.2-0.6,0.4c-0.2,0.2-0.2,0.5-0.2,0.8c0.1,0.3,0.4,0.6,0.9,0.8c0.5,0.2,0.8,0.7,0.8,1.3c0,0.5-0.2,0.6-0.5,1
			c-0.3,0.4-0.2,0.9,0.4,1.6c0.8,0.8,1.3,1.5,1.2,2.8c-0.2,1.5-1.6,2.3-2.2,2.9c-1.2,1.4-1.7,2.8-0.8,4.6c0.8,1.6,3.3,2.4,4.9,0.4
			c0.8-1,1.2-4-1.9-3.7c-1.2,0.1-1.6,1.2-1.6,1.6c0,0.1,0,0.1-0.1,0c-0.1-0.2-0.1-0.4-0.1-0.6c0-0.4,0.3-1.6,1.4-2.1
			c1.3-0.6,1.1-0.4,1.2-1.4c0.1-0.6,0.2-0.9,0.6-1c0.9-0.2,0,0.1,0.2,1c0.1,0.8,0.8,0.9,1.1,0.3c0.9-1.6-1.3-2.7-0.5-4.3
			c0.4-0.9,1.7-1.1,1.7-1.1s0.3,0,0,0.1c-0.3,0.2-0.8,0.8-0.7,1.4c0.2,1.3,1.8,1.3,1.8,2.8c0,1.6-1.5,2.7-0.8,3.5
			c0.4,0.4,0.9,0.3,1.2-0.1c0.2-0.3,0.3-0.7,0.1-0.9c-0.2-0.2,1.3,0.2,1.2,2c0,1.1-0.4,1.4-0.5,1.6c0,0,0,0,0,0c0,0.1-0.1,0.2,0,0.3
			c0.4,0.4,1.1-0.3,1.3-0.6c0.4-0.7,0.1-1.2,0.1-1.3c0-0.2,0.9,0.1,0.9,1.6c0,1.8-2.5,3.1-3.8,4.8c-1.5,2.1-1.5,6.2,1.1,5.9
			c1.1-0.1-0.4-1.5,0.9-3c1-1.1,1.9-0.4,1.9-0.4c0.1,0,0,0.1-0.2,0.2c-0.5,0.1-0.6,0.6-0.5,1c0.1,0.5,0.5,0.9,0.9,0.9
			c0.4,0,0.8-0.1,1-0.6c0.2-0.5,0-1.3-0.2-1.9c-0.2-0.6-1.5-2.5-0.9-3.9c0.7-1.4,1.8-1.7,2.6-1.5c0.3,0.1-1.2,0.4-1.2,1.7
			c0,1.2,3,2.3,3,4.7c0,1.7-0.6,2.4-1.6,3.2c-1.5,1.2-0.7,2.3,0.4,2.2c1.5,0,1.2-1.8,0.8-2.2c-0.3-0.3,2,0.1,2,1.8
			c0,1.5-0.6,1.8-0.6,1.8s0.6,1.2-0.2,2.6c-1,2-4,2.2-2.7,4.8c0.5,1.1,2.7,1.9,3.5-1.1c0.2-0.8,0-1.3,0.7-1.6
			c0.8-0.4,1.3,0.3,1.1,0.2c-0.5-0.1-0.8,0.3-0.8,0.8c0,0.3,0.2,0.6,0.5,0.7c0.1,0,0.3,0.1,0.5,0c0.9-0.3,0.6-1.1,0.5-1.5
			c-0.4-1.2-0.6-2.4,0.1-3.3c0.7-0.9,1.8-1.1,2-0.8c0,0,0,0-0.1,0c-0.3,0-1.4,0.3-0.7,1.9c0.3,0.7,1.8,1.6,1.2,2.6
			c-0.4,0.6-0.9,1.3-1,1.5c-0.1,0.2-0.1,0.3-0.1,0.6c0,0.5,0.4,0.9,0.8,0.9c0.4,0,0.8-0.4,0.8-0.9c0-0.2,0-0.3-0.1-0.5
			c0-0.1-0.1-0.1-0.1-0.2c-0.4-0.6,0.9-0.1,1.1,1.1c0.2,1.2-0.9,2.2-0.9,2.2s0.6,1.2-0.5,2.4c-1,1.2-2.9,0.8-4.7,1.8
			c-1,0.6-1.2,2.2-0.1,2.8c0,0,0,0,0,0c0.4,0.2,0.9,0.3,1.4,0.1c0.5-0.1,0.9-0.4,1.2-0.8c0,0,0.1-0.2,0.2-0.4
			c0.1-0.2,0.1-0.4,0.1-0.4c0-0.4,0.1-0.6,0.3-0.8c0.2-0.2,0.4-0.3,0.6-0.3c0.1,0,0.1,0,0.2,0c0.2,0,0.5,0.1,0.7,0.2
			c0.1,0.1,0.3,0.2,0.6,0.3c0.2,0,0.4-0.1,0.5-0.2c0.1-0.1,0.2-0.3,0.2-0.5c0-0.1,0-0.2,0-0.2c0.1,0,0.5,1.2-0.3,1.6
			c-0.2,0.1-0.4,0.2-0.5,0.4l0,0c-0.1,0.1-0.2,0.3-0.3,0.5c-0.1,0.3,0,0.6,0.2,1.1c0.2,0.6-0.2,1.9-1.1,2.6c-2,1.7-7.5,4.9-14.6,6.2
			c-1.4,0.2-2.9,0.4-4.3,0.4c-1.9,0.1-6.6,0.1-6.8,0.1c-3.4,0.2-4.3,1.4-4.3,1.5c0,0-0.1,0.1-0.1,0.1c0,0-0.1-0.1-0.1-0.1
			c-0.2-0.2-0.4-0.4-0.7-0.6c-1.1-0.6-2.7-0.9-4.8-0.9c-0.1,0-1.9,0-1.9,0c-2,0-5.2,0-8-0.5c-8-1.4-13.9-5.7-14.6-6.2
			c-1.3-0.9-1.9-1.9-2.1-2.8c-0.1-0.4,0-0.5-0.4-1c0,0-0.2-0.2-0.5-0.2c-0.2,0-0.2,0-0.5,0C43.6,69.7,43.3,69.4,43.3,69z
			 M48.8,157.1c0,0-0.2,0-0.2,0c-0.8,0-1.3,0.4-1.7,1.1v3h-0.6v-4.6h0.6v0.9h0c0.4-0.6,0.9-1,1.8-1h0.1L48.8,157.1z M46,146.7v-31.4
			h6.9v31.4H46z M53.2,159.1h-3.3c0,1.1,0.7,1.8,1.5,1.8c0.7,0,1.1-0.3,1.4-0.8l0.4,0.3c-0.4,0.6-1,1.1-1.8,1.1c-1.1,0-2-0.8-2-2.4
			c0-1.6,1.1-2.4,2-2.4c1.1,0,1.9,0.8,1.9,2.4V159.1z M55.7,161.3c-0.8,0-1.5-0.4-1.8-0.8l0.4-0.4c0.4,0.4,0.8,0.7,1.4,0.7
			c0.8,0,1.2-0.3,1.2-0.8c0-0.5-0.4-0.7-1.3-0.9c-1.1-0.3-1.6-0.5-1.6-1.3c0-0.7,0.6-1.2,1.6-1.2c0.8,0,1.3,0.3,1.7,0.7l-0.3,0.4
			c-0.4-0.4-0.8-0.6-1.3-0.6c-0.7,0-1,0.3-1,0.7c0,0.4,0.3,0.6,1.1,0.8c1.2,0.3,1.8,0.6,1.8,1.5C57.5,160.9,56.8,161.3,55.7,161.3z
			 M54,107.1l-3.8-6.9h-2.3v6.9H44V88.8h6.9c4.5,0,7.2,1.6,7.2,5.6c0,2.9-1.4,4.5-3.8,5.2l4.1,7.4H54z M59.3,161.3h-0.6v-4.6h0.6
			V161.3z M59.3,155.6h-0.6v-0.6h0.6V155.6z M59.5,88.8h14.9v3.4H69v14.9h-4V92.2h-5.4V88.8z M62.3,161.3c-0.8,0-1.5-0.4-1.8-0.8
			l0.4-0.4c0.4,0.4,0.8,0.7,1.4,0.7c0.8,0,1.2-0.3,1.2-0.8c0-0.5-0.4-0.7-1.3-0.9c-1.1-0.3-1.6-0.5-1.6-1.3c0-0.7,0.6-1.2,1.6-1.2
			c0.8,0,1.3,0.3,1.7,0.7l-0.3,0.4c-0.4-0.4-0.8-0.6-1.3-0.6c-0.7,0-1,0.3-1,0.7c0,0.4,0.3,0.6,1.1,0.8c1.2,0.3,1.8,0.6,1.8,1.5
			C64,160.9,63.3,161.3,62.3,161.3z M67.2,161.3c-0.1,0-0.4,0.1-0.6,0.1c-0.9,0-1.2-0.3-1.2-1.1v-3h-0.8v-0.5h0.8V155H66v1.7h1.2
			v0.5H66v2.9c0,0.5,0.2,0.8,0.7,0.8c0.2,0,0.4,0,0.5-0.1V161.3z M71.2,161.3c-0.1-0.2-0.1-0.4-0.1-0.7c-0.5,0.5-1.1,0.7-1.8,0.7
			c-0.8,0-1.3-0.4-1.3-1.2c0-0.9,0.8-1.6,3.1-1.9V158c0-0.6-0.3-0.9-0.9-0.9c-0.7,0-1.2,0.3-1.7,0.7l-0.3-0.4
			c0.6-0.5,1.2-0.9,2.1-0.9c1,0,1.5,0.6,1.5,1.5v2.1c0,0.6,0,0.9,0.1,1.1H71.2z M76.8,161.3h-0.6V158c0-0.6-0.3-1-0.9-1
			c-0.6,0-1.1,0.3-1.6,0.8v3.4h-0.6v-4.6h0.6v0.7c0.4-0.4,1-0.8,1.8-0.8c0.9,0,1.4,0.5,1.4,1.4V161.3z M79.9,161.4
			c-1.1,0-2-0.9-2-2.4c0-1.7,1-2.4,2.1-2.4c1,0,1.5,0.6,1.8,1.3l-0.5,0.2c-0.3-0.6-0.6-1-1.3-1c-0.7,0-1.4,0.5-1.4,1.9
			c0,1.2,0.6,1.9,1.4,1.9c0.6,0,1-0.3,1.3-1l0.5,0.2C81.3,160.9,80.8,161.4,79.9,161.4z M72.8,146.7H59.7v-31.4h12.5
			c5.8,0,11.2,1.4,11.2,7.8c0,4.5-2.8,6.6-6,7.2v0.1c3.8,0.7,6.8,2.7,6.8,7.7C84.2,144.4,78.7,146.7,72.8,146.7z M86.3,159.1H83
			c0,1.1,0.7,1.8,1.5,1.8c0.7,0,1.1-0.3,1.4-0.8l0.4,0.3c-0.4,0.6-1,1.1-1.8,1.1c-1.1,0-2-0.8-2-2.4c0-1.6,1.1-2.4,2-2.4
			c1.1,0,1.9,0.8,1.9,2.4V159.1z M86.8,107.1h-4V88.8h12.1v3.4h-8v4.4h5.7v3.2h-5.7V107.1z M89,115.4h21.4v5.8H95.9v6.7h10.5v5.5
			H95.9v7.8h15.2v5.6H89V115.4z M92.8,159.5h-1.7v-1.7h1.7V159.5z M99.5,155.3c-0.1,0-0.2,0-0.3,0c-0.4,0-0.8,0.2-0.8,0.7v0.7h1v0.5
			h-1v4.1h-0.6v-4.1H97v-0.5h0.8V156c0-0.8,0.4-1.2,1.3-1.2c0.1,0,0.3,0,0.4,0V155.3z M102.9,157.1c0,0-0.2,0-0.2,0
			c-0.8,0-1.3,0.4-1.7,1.1v3h-0.6v-4.6h0.6v0.9h0c0.4-0.6,0.9-1,1.8-1h0.1L102.9,157.1z M107.2,159.1h-3.3c0,1.1,0.7,1.8,1.5,1.8
			c0.7,0,1.1-0.3,1.4-0.8l0.4,0.3c-0.4,0.6-1,1.1-1.8,1.1c-1.1,0-2-0.8-2-2.4c0-1.6,1.1-2.4,2-2.4c1.1,0,1.9,0.8,1.9,2.4V159.1z
			 M112,159.1h-3.3c0,1.1,0.7,1.8,1.5,1.8c0.7,0,1.1-0.3,1.4-0.8l0.4,0.3c-0.4,0.6-1,1.1-1.8,1.1c-1.1,0-2-0.8-2-2.4
			c0-1.6,1.1-2.4,2-2.4c1.1,0,1.9,0.8,1.9,2.4V159.1z M116.4,161.3c-0.1-0.2-0.1-0.4-0.1-0.7c-0.4,0.4-0.8,0.8-1.5,0.8
			c-1.1,0-1.9-0.8-1.9-2.4c0-1.6,0.8-2.4,2-2.4c0.6,0,1.1,0.3,1.5,0.7v-2.5h0.6v5.3c0,0.6,0,0.9,0.1,1.1H116.4z M120.1,161.4
			c-1.1,0-2.1-0.9-2.1-2.4c0-1.5,1-2.4,2.1-2.4c1.1,0,2.1,0.9,2.1,2.4C122.2,160.5,121.3,161.4,120.1,161.4z M130,161.3h-0.6V158
			c0-0.6-0.2-1-0.9-1c-0.6,0-1,0.3-1.5,0.8v3.4h-0.6V158c0-0.6-0.2-1-0.9-1c-0.6,0-1,0.3-1.5,0.8v3.4h-0.6v-4.6h0.6v0.7
			c0.5-0.5,1-0.8,1.7-0.8c0.8,0,1.1,0.3,1.3,0.8c0.5-0.5,1.1-0.8,1.7-0.8c0.9,0,1.3,0.5,1.3,1.4V161.3z M139.4,121.1H130v25.6h-6.9
			v-25.6h-9.3v-5.8h25.6V121.1z"/>
		<g class="st1">
			<rect x="23.5" y="154.8" class="st4" width="110.2" height="12"/>
			<path class="st14" d="M28.7,161.1c-0.1-0.2-0.1-0.4-0.1-0.7c-0.5,0.5-1.1,0.7-1.8,0.7c-0.8,0-1.3-0.4-1.3-1.2
				c0-0.9,0.8-1.6,3.1-1.9v-0.2c0-0.6-0.3-0.9-0.9-0.9c-0.7,0-1.2,0.3-1.7,0.7l-0.3-0.4c0.6-0.5,1.2-0.9,2.1-0.9
				c1,0,1.5,0.6,1.5,1.5v2.1c0,0.6,0,0.9,0.1,1.1H28.7z M33.1,157c0,0-0.2,0-0.2,0c-0.8,0-1.3,0.4-1.7,1.1v3h-0.6v-4.6h0.6v0.9h0
				c0.4-0.6,0.9-1,1.8-1h0.1L33.1,157z M36.4,161.1c-0.1,0-0.4,0.1-0.6,0.1c-0.9,0-1.2-0.3-1.2-1.1v-3h-0.8v-0.5h0.8v-1.7h0.6v1.7
				h1.2v0.5h-1.2v2.9c0,0.5,0.2,0.8,0.7,0.8c0.2,0,0.4,0,0.5-0.1V161.1z M42.5,159.4h-1.7v-1.7h1.7V159.4z M49.5,157
				c0,0-0.2,0-0.2,0c-0.8,0-1.3,0.4-1.7,1.1v3H47v-4.6h0.6v0.9h0c0.4-0.6,0.9-1,1.8-1h0.1L49.5,157z M53.9,158.9h-3.3
				c0,1.1,0.7,1.8,1.5,1.8c0.7,0,1.1-0.3,1.4-0.8l0.4,0.3c-0.4,0.6-1,1.1-1.8,1.1c-1.1,0-2-0.8-2-2.4c0-1.6,1.1-2.4,2-2.4
				c1.1,0,1.9,0.8,1.9,2.4V158.9z M56.4,161.2c-0.8,0-1.5-0.4-1.8-0.8L55,160c0.4,0.4,0.8,0.7,1.4,0.7c0.8,0,1.2-0.3,1.2-0.8
				c0-0.5-0.4-0.7-1.3-0.9c-1.1-0.3-1.6-0.5-1.6-1.3c0-0.7,0.6-1.2,1.6-1.2c0.8,0,1.3,0.3,1.7,0.7l-0.3,0.4
				c-0.4-0.4-0.8-0.6-1.3-0.6c-0.7,0-1,0.3-1,0.7c0,0.4,0.3,0.6,1.1,0.8c1.2,0.3,1.8,0.6,1.8,1.5C58.2,160.7,57.4,161.2,56.4,161.2z
				 M60,161.1h-0.6v-4.6H60V161.1z M60,155.4h-0.6v-0.6H60V155.4z M62.9,161.2c-0.8,0-1.5-0.4-1.8-0.8l0.4-0.4
				c0.4,0.4,0.8,0.7,1.4,0.7c0.8,0,1.2-0.3,1.2-0.8c0-0.5-0.4-0.7-1.3-0.9c-1.1-0.3-1.6-0.5-1.6-1.3c0-0.7,0.6-1.2,1.6-1.2
				c0.8,0,1.3,0.3,1.7,0.7l-0.3,0.4c-0.4-0.4-0.8-0.6-1.3-0.6c-0.7,0-1,0.3-1,0.7c0,0.4,0.3,0.6,1.1,0.8c1.2,0.3,1.8,0.6,1.8,1.5
				C64.7,160.7,64,161.2,62.9,161.2z M67.9,161.1c-0.1,0-0.4,0.1-0.6,0.1c-0.9,0-1.2-0.3-1.2-1.1v-3h-0.8v-0.5h0.8v-1.7h0.6v1.7h1.2
				v0.5h-1.2v2.9c0,0.5,0.2,0.8,0.7,0.8c0.2,0,0.4,0,0.5-0.1V161.1z M71.9,161.1c-0.1-0.2-0.1-0.4-0.1-0.7c-0.5,0.5-1.1,0.7-1.8,0.7
				c-0.8,0-1.3-0.4-1.3-1.2c0-0.9,0.8-1.6,3.1-1.9v-0.2c0-0.6-0.3-0.9-0.9-0.9c-0.7,0-1.2,0.3-1.7,0.7l-0.3-0.4
				c0.6-0.5,1.2-0.9,2.1-0.9c1,0,1.5,0.6,1.5,1.5v2.1c0,0.6,0,0.9,0.1,1.1H71.9z M77.5,161.1h-0.6v-3.2c0-0.6-0.3-1-0.9-1
				c-0.6,0-1.1,0.3-1.6,0.8v3.4h-0.6v-4.6h0.6v0.7c0.4-0.4,1-0.8,1.8-0.8c0.9,0,1.4,0.5,1.4,1.4V161.1z M80.6,161.2
				c-1.1,0-2-0.9-2-2.4c0-1.7,1-2.4,2.1-2.4c1,0,1.5,0.6,1.8,1.3l-0.5,0.2c-0.3-0.6-0.6-1-1.3-1c-0.7,0-1.4,0.5-1.4,1.9
				c0,1.2,0.6,1.9,1.4,1.9c0.6,0,1-0.3,1.3-1l0.5,0.2C82,160.7,81.5,161.2,80.6,161.2z M87,158.9h-3.3c0,1.1,0.7,1.8,1.5,1.8
				c0.7,0,1.1-0.3,1.4-0.8l0.4,0.3c-0.4,0.6-1,1.1-1.8,1.1c-1.1,0-2-0.8-2-2.4c0-1.6,1.1-2.4,2-2.4c1.1,0,1.9,0.8,1.9,2.4V158.9z
				 M93.5,159.4h-1.7v-1.7h1.7V159.4z M100.2,155.2c-0.1,0-0.2,0-0.3,0c-0.4,0-0.8,0.2-0.8,0.7v0.7h1v0.5h-1v4.1h-0.6V157h-0.8v-0.5
				h0.8v-0.7c0-0.8,0.4-1.2,1.3-1.2c0.1,0,0.3,0,0.4,0V155.2z M103.5,157c0,0-0.2,0-0.2,0c-0.8,0-1.3,0.4-1.7,1.1v3H101v-4.6h0.6
				v0.9h0c0.4-0.6,0.9-1,1.8-1h0.1L103.5,157z M107.9,158.9h-3.3c0,1.1,0.7,1.8,1.5,1.8c0.7,0,1.1-0.3,1.4-0.8l0.4,0.3
				c-0.4,0.6-1,1.1-1.8,1.1c-1.1,0-2-0.8-2-2.4c0-1.6,1.1-2.4,2-2.4c1.1,0,1.9,0.8,1.9,2.4V158.9z M112.7,158.9h-3.3
				c0,1.1,0.7,1.8,1.5,1.8c0.7,0,1.1-0.3,1.4-0.8l0.4,0.3c-0.4,0.6-1,1.1-1.8,1.1c-1.1,0-2-0.8-2-2.4c0-1.6,1.1-2.4,2-2.4
				c1.1,0,1.9,0.8,1.9,2.4V158.9z M117.1,161.1c-0.1-0.2-0.1-0.4-0.1-0.7c-0.4,0.4-0.8,0.8-1.5,0.8c-1.1,0-1.9-0.8-1.9-2.4
				c0-1.6,0.8-2.4,2-2.4c0.6,0,1.1,0.3,1.5,0.7v-2.5h0.6v5.3c0,0.6,0,0.9,0.1,1.1H117.1z M120.8,161.2c-1.1,0-2.1-0.9-2.1-2.4
				c0-1.5,1-2.4,2.1-2.4c1.1,0,2.1,0.9,2.1,2.4C122.9,160.4,122,161.2,120.8,161.2z M130.7,161.1h-0.6v-3.2c0-0.6-0.2-1-0.9-1
				c-0.6,0-1,0.3-1.5,0.8v3.4h-0.6v-3.2c0-0.6-0.2-1-0.9-1c-0.6,0-1,0.3-1.5,0.8v3.4H124v-4.6h0.6v0.7c0.5-0.5,1-0.8,1.7-0.8
				c0.8,0,1.1,0.3,1.3,0.8c0.5-0.5,1.1-0.8,1.7-0.8c0.9,0,1.3,0.5,1.3,1.4V161.1z M85.1,156.9c-0.7,0-1.3,0.5-1.4,1.5h2.7
				C86.4,157.6,86,156.9,85.1,156.9z M26.1,160c0,0.5,0.3,0.7,0.8,0.7c0.6,0,1.2-0.3,1.7-0.7v-1.4C26.6,158.9,26.1,159.4,26.1,160z
				 M106,156.9c-0.7,0-1.3,0.5-1.4,1.5h2.7C107.2,157.6,106.8,156.9,106,156.9z M69.3,160c0,0.5,0.3,0.7,0.8,0.7
				c0.6,0,1.2-0.3,1.7-0.7v-1.4C69.8,158.9,69.3,159.4,69.3,160z M52,156.9c-0.7,0-1.3,0.5-1.4,1.5h2.7
				C53.2,157.6,52.8,156.9,52,156.9z M110.8,156.9c-0.7,0-1.3,0.5-1.4,1.5h2.7C112,157.6,111.6,156.9,110.8,156.9z M120.8,156.9
				c-0.9,0-1.5,0.8-1.5,1.9c0,1,0.5,1.9,1.5,1.9c0.9,0,1.5-0.8,1.5-1.9C122.3,157.8,121.8,156.9,120.8,156.9z M115.6,156.9
				c-0.8,0-1.4,0.6-1.4,1.9c0,1.3,0.6,1.9,1.4,1.9c0.6,0,1-0.3,1.4-0.8v-2.2C116.5,157.2,116.1,156.9,115.6,156.9z"/>
		</g>
	</g>
</g>
<g>
	<path class="st14" d="M152.3,48.7c0.4-1.3,1-2.4,1.8-3.3c0.8-0.9,1.8-1.7,3-2.2c1.2-0.5,2.6-0.8,4.1-0.8c1.2,0,2.3,0.2,3.4,0.6
		c1.1,0.4,2,0.9,2.8,1.6c0.8,0.7,1.5,1.5,1.9,2.5c0.5,1,0.7,2.1,0.7,3.4c0,1.3-0.2,2.4-0.6,3.3c-0.4,0.9-1,1.8-1.7,2.5
		c-0.7,0.7-1.5,1.4-2.3,2c-0.9,0.6-1.7,1.2-2.6,1.7s-1.7,1.2-2.6,1.9c-0.8,0.7-1.6,1.4-2.2,2.3h12.2v4.5h-18.9
		c0-1.5,0.2-2.8,0.6-3.9c0.4-1.1,1-2.1,1.7-3s1.6-1.7,2.6-2.4c1-0.7,2-1.5,3.1-2.2c0.6-0.4,1.2-0.8,1.8-1.2c0.6-0.4,1.2-0.9,1.7-1.3
		c0.5-0.5,1-1,1.3-1.7c0.4-0.6,0.5-1.3,0.5-2.1c0-1.2-0.4-2.2-1.1-2.9c-0.7-0.7-1.6-1-2.8-1c-0.8,0-1.4,0.2-1.9,0.5
		c-0.5,0.4-0.9,0.8-1.3,1.4c-0.3,0.6-0.5,1.2-0.7,1.9c-0.1,0.7-0.2,1.4-0.2,2.1h-5C151.8,51.3,151.9,49.9,152.3,48.7z"/>
	<path class="st14" d="M181.2,49.3c0.5-1.7,1.2-3.1,2-4.1c0.9-1,1.9-1.8,3-2.2c1.1-0.4,2.3-0.7,3.6-0.7c1.3,0,2.5,0.2,3.7,0.7
		c1.1,0.4,2.1,1.2,3,2.2c0.9,1,1.6,2.4,2.1,4.1c0.5,1.7,0.8,3.8,0.8,6.3c0,2.6-0.3,4.7-0.8,6.4c-0.5,1.7-1.2,3.1-2.1,4.1
		c-0.9,1-1.9,1.8-3,2.2c-1.1,0.4-2.4,0.7-3.7,0.7c-1.3,0-2.5-0.2-3.6-0.7c-1.1-0.4-2.1-1.2-3-2.2c-0.9-1-1.5-2.4-2-4.1
		c-0.5-1.7-0.8-3.9-0.8-6.4C180.5,53.1,180.7,51,181.2,49.3z M185.8,58.3c0,1,0.2,2,0.5,3c0.3,1,0.7,1.8,1.2,2.5
		c0.6,0.7,1.4,1,2.4,1c1.1,0,1.9-0.3,2.5-1c0.6-0.7,1-1.5,1.2-2.5c0.3-1,0.4-2,0.5-3c0-1,0.1-1.9,0.1-2.7c0-0.4,0-1,0-1.6
		c0-0.6-0.1-1.3-0.1-1.9c-0.1-0.7-0.2-1.3-0.4-2c-0.2-0.6-0.4-1.2-0.7-1.7c-0.3-0.5-0.7-0.9-1.2-1.2c-0.5-0.3-1.1-0.5-1.8-0.5
		c-0.7,0-1.3,0.2-1.8,0.5c-0.5,0.3-0.9,0.7-1.2,1.2c-0.3,0.5-0.5,1.1-0.7,1.7c-0.2,0.6-0.3,1.3-0.4,2c-0.1,0.7-0.1,1.3-0.1,1.9
		c0,0.6,0,1.2,0,1.6C185.7,56.4,185.7,57.3,185.8,58.3z"/>
	<path class="st14" d="M218.2,68.6V51.9h-6.5V48c0.9,0,1.8,0,2.6-0.2c0.8-0.2,1.6-0.4,2.3-0.8c0.7-0.4,1.2-0.9,1.7-1.6
		c0.5-0.7,0.8-1.5,0.9-2.5h4.2v25.7H218.2z"/>
	<path class="st14" d="M245.6,64.2c0.6,0.6,1.4,1,2.3,1c1,0,1.7-0.3,2.4-0.8c0.6-0.6,1.1-1.2,1.5-2c0.4-0.8,0.6-1.6,0.8-2.6
		c0.2-0.9,0.3-1.7,0.3-2.4l-0.1-0.1c-0.7,1-1.5,1.8-2.5,2.2s-2.1,0.7-3.3,0.7c-1.1,0-2.2-0.2-3.2-0.7c-1.1-0.5-1.9-1.1-2.7-1.9
		c-0.7-0.8-1.2-1.7-1.5-2.7c-0.3-1-0.5-2-0.5-3.1c0-1.3,0.2-2.6,0.6-3.7s1-2.1,1.8-3c0.8-0.8,1.7-1.5,2.8-2c1.1-0.5,2.3-0.7,3.7-0.7
		c2,0,3.6,0.4,4.8,1.2c1.3,0.8,2.3,1.8,3,3.1c0.8,1.3,1.3,2.7,1.6,4.3s0.4,3.2,0.4,4.8c0,1.6-0.2,3.2-0.6,4.8c-0.4,1.6-1,3-1.8,4.3
		c-0.8,1.3-1.8,2.3-3.1,3.1c-1.3,0.8-2.8,1.2-4.7,1.2c-1.1,0-2.1-0.2-3.1-0.5c-1-0.3-1.8-0.8-2.5-1.4c-0.7-0.6-1.3-1.4-1.8-2.2
		c-0.5-0.9-0.8-1.9-0.9-3h5C244.6,62.9,245,63.6,245.6,64.2z M250,55.8c0.5-0.3,0.9-0.6,1.3-1s0.6-0.9,0.8-1.5
		c0.2-0.6,0.3-1.2,0.3-1.8c0-0.6-0.1-1.2-0.3-1.7c-0.2-0.6-0.5-1.1-0.8-1.5c-0.4-0.5-0.8-0.8-1.3-1.1c-0.5-0.3-1.1-0.4-1.8-0.4
		c-0.6,0-1.2,0.1-1.7,0.4c-0.5,0.3-0.9,0.6-1.2,1.1c-0.3,0.4-0.6,0.9-0.8,1.5c-0.2,0.6-0.3,1.1-0.3,1.7c0,0.6,0.1,1.2,0.2,1.8
		c0.2,0.6,0.4,1.1,0.7,1.5c0.3,0.5,0.7,0.8,1.2,1.1c0.5,0.3,1.1,0.4,1.7,0.4C248.9,56.2,249.5,56.1,250,55.8z"/>
</g>
<g>
	<g>
		<rect x="152.2" y="80.8" class="st8" width="215.4" height="189.4"/>
		<path class="st9" d="M159,88.9h-0.9v-3.6h-4v3.6h-0.9v-7.6h0.9v3.2h4v-3.2h0.9V88.9z"/>
		<path class="st9" d="M165.9,86c0,0.9-0.2,1.7-0.7,2.2c-0.5,0.5-1.1,0.8-1.9,0.8c-0.5,0-1-0.1-1.4-0.4c-0.4-0.2-0.7-0.6-0.9-1
			c-0.2-0.4-0.3-1-0.3-1.6c0-0.9,0.2-1.7,0.7-2.2s1.1-0.8,1.9-0.8c0.8,0,1.4,0.3,1.9,0.8C165.7,84.4,165.9,85.1,165.9,86z M161.6,86
			c0,0.7,0.1,1.3,0.4,1.7c0.3,0.4,0.7,0.6,1.3,0.6c0.6,0,1-0.2,1.3-0.6s0.4-0.9,0.4-1.7c0-0.7-0.1-1.3-0.4-1.6s-0.7-0.6-1.3-0.6
			c-0.6,0-1,0.2-1.3,0.6C161.7,84.7,161.6,85.3,161.6,86z"/>
		<path class="st9" d="M171.3,88.9v-3.7c0-0.5-0.1-0.8-0.3-1s-0.5-0.3-1-0.3c-0.6,0-1,0.2-1.3,0.5c-0.3,0.3-0.4,0.9-0.4,1.6v3h-0.9
			v-5.7h0.7l0.1,0.8h0c0.2-0.3,0.4-0.5,0.7-0.7s0.7-0.2,1.1-0.2c0.7,0,1.2,0.2,1.5,0.5c0.3,0.3,0.5,0.9,0.5,1.6v3.7H171.3z"/>
		<path class="st9" d="M178.9,86c0,0.9-0.2,1.7-0.7,2.2c-0.5,0.5-1.1,0.8-1.9,0.8c-0.5,0-1-0.1-1.4-0.4c-0.4-0.2-0.7-0.6-0.9-1
			c-0.2-0.4-0.3-1-0.3-1.6c0-0.9,0.2-1.7,0.7-2.2s1.1-0.8,1.9-0.8c0.8,0,1.4,0.3,1.9,0.8C178.6,84.4,178.9,85.1,178.9,86z M174.5,86
			c0,0.7,0.1,1.3,0.4,1.7c0.3,0.4,0.7,0.6,1.3,0.6c0.6,0,1-0.2,1.3-0.6s0.4-0.9,0.4-1.7c0-0.7-0.1-1.3-0.4-1.6s-0.7-0.6-1.3-0.6
			c-0.6,0-1,0.2-1.3,0.6C174.7,84.7,174.5,85.3,174.5,86z"/>
		<path class="st9" d="M183,83.1c0.3,0,0.5,0,0.7,0.1l-0.1,0.8c-0.2-0.1-0.4-0.1-0.6-0.1c-0.5,0-0.9,0.2-1.2,0.6
			c-0.3,0.4-0.5,0.8-0.5,1.4v3.1h-0.9v-5.7h0.7l0.1,1.1h0c0.2-0.4,0.5-0.7,0.8-0.9C182.3,83.2,182.6,83.1,183,83.1z"/>
		<path class="st9" d="M188.2,88.9l-0.2-0.8h0c-0.3,0.4-0.6,0.6-0.8,0.7c-0.3,0.1-0.6,0.2-1.1,0.2c-0.6,0-1-0.1-1.3-0.4
			c-0.3-0.3-0.5-0.7-0.5-1.2c0-1.1,0.9-1.8,2.8-1.8l1,0v-0.4c0-0.4-0.1-0.8-0.3-1c-0.2-0.2-0.5-0.3-0.9-0.3c-0.5,0-1,0.1-1.6,0.4
			l-0.3-0.7c0.3-0.2,0.6-0.3,0.9-0.4s0.7-0.1,1-0.1c0.7,0,1.2,0.2,1.5,0.5c0.3,0.3,0.5,0.8,0.5,1.4v3.9H188.2z M186.3,88.3
			c0.5,0,1-0.1,1.3-0.4c0.3-0.3,0.5-0.7,0.5-1.2v-0.5l-0.9,0c-0.7,0-1.2,0.1-1.5,0.3c-0.3,0.2-0.5,0.5-0.5,0.9
			c0,0.3,0.1,0.5,0.3,0.7C185.7,88.2,185.9,88.3,186.3,88.3z"/>
		<path class="st9" d="M193.2,83.1c0.3,0,0.5,0,0.7,0.1l-0.1,0.8c-0.2-0.1-0.4-0.1-0.6-0.1c-0.5,0-0.9,0.2-1.2,0.6
			c-0.3,0.4-0.5,0.8-0.5,1.4v3.1h-0.9v-5.7h0.7l0.1,1.1h0c0.2-0.4,0.5-0.7,0.8-0.9C192.5,83.2,192.9,83.1,193.2,83.1z"/>
		<path class="st9" d="M194.1,83.2h0.9l1.2,3.2c0.3,0.7,0.4,1.3,0.5,1.6h0c0-0.2,0.1-0.5,0.3-0.9s0.6-1.7,1.4-3.9h0.9l-2.4,6.5
			c-0.2,0.6-0.5,1.1-0.8,1.4c-0.3,0.3-0.7,0.4-1.2,0.4c-0.3,0-0.5,0-0.8-0.1v-0.7c0.2,0,0.4,0.1,0.6,0.1c0.6,0,1-0.3,1.3-1l0.3-0.8
			L194.1,83.2z"/>
		<path class="st9" d="M205.4,89c-0.8,0-1.5-0.3-1.9-0.8c-0.5-0.5-0.7-1.2-0.7-2.2c0-1,0.2-1.7,0.7-2.2c0.5-0.5,1.1-0.8,2-0.8
			c0.3,0,0.5,0,0.8,0.1c0.3,0.1,0.5,0.1,0.6,0.2l-0.3,0.7c-0.2-0.1-0.4-0.1-0.6-0.2c-0.2,0-0.4-0.1-0.6-0.1c-1.2,0-1.7,0.7-1.7,2.2
			c0,0.7,0.1,1.2,0.4,1.6c0.3,0.4,0.7,0.6,1.3,0.6c0.5,0,1-0.1,1.5-0.3v0.8C206.4,88.9,205.9,89,205.4,89z"/>
		<path class="st9" d="M212,88.9v-3.7c0-0.5-0.1-0.8-0.3-1s-0.5-0.3-1-0.3c-0.6,0-1,0.2-1.3,0.5c-0.3,0.3-0.4,0.9-0.4,1.6v3h-0.9
			v-8.1h0.9v2.4c0,0.3,0,0.5,0,0.7h0.1c0.2-0.3,0.4-0.5,0.7-0.6c0.3-0.2,0.7-0.2,1.1-0.2c0.7,0,1.2,0.2,1.6,0.5
			c0.3,0.3,0.5,0.9,0.5,1.6v3.7H212z"/>
		<path class="st9" d="M218.2,88.9l-0.2-0.8h0c-0.3,0.4-0.6,0.6-0.8,0.7c-0.3,0.1-0.6,0.2-1.1,0.2c-0.6,0-1-0.1-1.3-0.4
			c-0.3-0.3-0.5-0.7-0.5-1.2c0-1.1,0.9-1.8,2.8-1.8l1,0v-0.4c0-0.4-0.1-0.8-0.3-1c-0.2-0.2-0.5-0.3-0.9-0.3c-0.5,0-1,0.1-1.6,0.4
			l-0.3-0.7c0.3-0.2,0.6-0.3,0.9-0.4s0.7-0.1,1-0.1c0.7,0,1.2,0.2,1.5,0.5c0.3,0.3,0.5,0.8,0.5,1.4v3.9H218.2z M216.2,88.3
			c0.5,0,1-0.1,1.3-0.4c0.3-0.3,0.5-0.7,0.5-1.2v-0.5l-0.9,0c-0.7,0-1.2,0.1-1.5,0.3c-0.3,0.2-0.5,0.5-0.5,0.9
			c0,0.3,0.1,0.5,0.3,0.7C215.6,88.2,215.9,88.3,216.2,88.3z"/>
		<path class="st9" d="M220.5,81.6c0-0.2,0-0.3,0.1-0.4c0.1-0.1,0.2-0.1,0.4-0.1c0.1,0,0.3,0,0.4,0.1c0.1,0.1,0.2,0.2,0.2,0.4
			c0,0.2-0.1,0.3-0.2,0.4c-0.1,0.1-0.2,0.1-0.4,0.1c-0.1,0-0.3,0-0.4-0.1C220.6,82,220.5,81.8,220.5,81.6z M221.4,88.9h-0.9v-5.7
			h0.9V88.9z"/>
		<path class="st9" d="M225.9,83.1c0.3,0,0.5,0,0.7,0.1l-0.1,0.8c-0.2-0.1-0.4-0.1-0.6-0.1c-0.5,0-0.9,0.2-1.2,0.6
			c-0.3,0.4-0.5,0.8-0.5,1.4v3.1h-0.9v-5.7h0.7l0.1,1.1h0c0.2-0.4,0.5-0.7,0.8-0.9C225.2,83.2,225.5,83.1,225.9,83.1z"/>
		<path class="st9" d="M230.3,89c-0.4,0-0.7-0.1-1-0.2c-0.3-0.1-0.6-0.3-0.8-0.6h-0.1c0,0.3,0.1,0.6,0.1,0.9v2.3h-0.9v-8.2h0.7
			l0.1,0.8h0c0.2-0.3,0.5-0.5,0.8-0.7c0.3-0.1,0.6-0.2,1-0.2c0.8,0,1.3,0.3,1.7,0.8c0.4,0.5,0.6,1.2,0.6,2.2c0,0.9-0.2,1.7-0.6,2.2
			C231.6,88.7,231,89,230.3,89z M230.1,83.8c-0.6,0-1,0.2-1.3,0.5c-0.3,0.3-0.4,0.8-0.4,1.5V86c0,0.8,0.1,1.4,0.4,1.7
			c0.3,0.3,0.7,0.5,1.3,0.5c0.5,0,0.9-0.2,1.2-0.6s0.4-0.9,0.4-1.6c0-0.7-0.1-1.3-0.4-1.6S230.6,83.8,230.1,83.8z"/>
		<path class="st9" d="M236.5,89c-0.8,0-1.5-0.3-2-0.8c-0.5-0.5-0.7-1.2-0.7-2.1c0-0.9,0.2-1.6,0.7-2.2c0.5-0.5,1.1-0.8,1.8-0.8
			c0.7,0,1.3,0.2,1.7,0.7c0.4,0.5,0.6,1.1,0.6,1.9v0.5h-3.9c0,0.7,0.2,1.2,0.5,1.5c0.3,0.3,0.8,0.5,1.4,0.5c0.6,0,1.2-0.1,1.8-0.4
			v0.8c-0.3,0.1-0.6,0.2-0.9,0.3C237.2,88.9,236.9,89,236.5,89z M236.3,83.8c-0.5,0-0.8,0.1-1.1,0.4c-0.3,0.3-0.4,0.7-0.5,1.2h3
			c0-0.5-0.1-1-0.4-1.2S236.8,83.8,236.3,83.8z"/>
		<path class="st9" d="M242.7,83.1c0.3,0,0.5,0,0.7,0.1l-0.1,0.8c-0.2-0.1-0.4-0.1-0.6-0.1c-0.5,0-0.9,0.2-1.2,0.6
			c-0.3,0.4-0.5,0.8-0.5,1.4v3.1h-0.9v-5.7h0.7l0.1,1.1h0c0.2-0.4,0.5-0.7,0.8-0.9C242,83.2,242.3,83.1,242.7,83.1z"/>
		<path class="st9" d="M248.1,87.3c0,0.5-0.2,0.9-0.6,1.2s-0.9,0.4-1.7,0.4c-0.8,0-1.3-0.1-1.8-0.4v-0.8c0.3,0.1,0.6,0.2,0.9,0.3
			c0.3,0.1,0.6,0.1,0.9,0.1c0.5,0,0.8-0.1,1-0.2s0.4-0.4,0.4-0.7c0-0.2-0.1-0.4-0.3-0.6c-0.2-0.2-0.6-0.3-1.1-0.6
			c-0.5-0.2-0.9-0.4-1.1-0.5s-0.4-0.3-0.5-0.5c-0.1-0.2-0.2-0.4-0.2-0.7c0-0.5,0.2-0.8,0.6-1.1c0.4-0.3,0.9-0.4,1.6-0.4
			c0.6,0,1.2,0.1,1.8,0.4l-0.3,0.7c-0.6-0.2-1.1-0.4-1.6-0.4c-0.4,0-0.7,0.1-0.9,0.2c-0.2,0.1-0.3,0.3-0.3,0.5c0,0.2,0,0.3,0.1,0.4
			c0.1,0.1,0.2,0.2,0.4,0.3c0.2,0.1,0.5,0.2,1,0.4c0.7,0.2,1.1,0.5,1.4,0.7S248.1,86.9,248.1,87.3z"/>
		<path class="st9" d="M254.4,86c0,0.9-0.2,1.7-0.7,2.2c-0.5,0.5-1.1,0.8-1.9,0.8c-0.5,0-1-0.1-1.4-0.4c-0.4-0.2-0.7-0.6-0.9-1
			c-0.2-0.4-0.3-1-0.3-1.6c0-0.9,0.2-1.7,0.7-2.2s1.1-0.8,1.9-0.8c0.8,0,1.4,0.3,1.9,0.8C254.2,84.4,254.4,85.1,254.4,86z M250.1,86
			c0,0.7,0.1,1.3,0.4,1.7c0.3,0.4,0.7,0.6,1.3,0.6c0.6,0,1-0.2,1.3-0.6s0.4-0.9,0.4-1.7c0-0.7-0.1-1.3-0.4-1.6s-0.7-0.6-1.3-0.6
			c-0.6,0-1,0.2-1.3,0.6C250.2,84.7,250.1,85.3,250.1,86z"/>
		<path class="st9" d="M259.8,88.9v-3.7c0-0.5-0.1-0.8-0.3-1s-0.5-0.3-1-0.3c-0.6,0-1,0.2-1.3,0.5c-0.3,0.3-0.4,0.9-0.4,1.6v3h-0.9
			v-5.7h0.7l0.1,0.8h0c0.2-0.3,0.4-0.5,0.7-0.7s0.7-0.2,1.1-0.2c0.7,0,1.2,0.2,1.5,0.5c0.3,0.3,0.5,0.9,0.5,1.6v3.7H259.8z"/>
		<path class="st9" d="M266.1,87.3c0,0.5-0.2,0.9-0.6,1.2s-0.9,0.4-1.7,0.4c-0.8,0-1.3-0.1-1.8-0.4v-0.8c0.3,0.1,0.6,0.2,0.9,0.3
			c0.3,0.1,0.6,0.1,0.9,0.1c0.5,0,0.8-0.1,1-0.2s0.4-0.4,0.4-0.7c0-0.2-0.1-0.4-0.3-0.6c-0.2-0.2-0.6-0.3-1.1-0.6
			c-0.5-0.2-0.9-0.4-1.1-0.5s-0.4-0.3-0.5-0.5c-0.1-0.2-0.2-0.4-0.2-0.7c0-0.5,0.2-0.8,0.6-1.1c0.4-0.3,0.9-0.4,1.6-0.4
			c0.6,0,1.2,0.1,1.8,0.4l-0.3,0.7c-0.6-0.2-1.1-0.4-1.6-0.4c-0.4,0-0.7,0.1-0.9,0.2c-0.2,0.1-0.3,0.3-0.3,0.5c0,0.2,0,0.3,0.1,0.4
			c0.1,0.1,0.2,0.2,0.4,0.3c0.2,0.1,0.5,0.2,1,0.4c0.7,0.2,1.1,0.5,1.4,0.7S266.1,86.9,266.1,87.3z"/>
		<path class="st9" d="M270.2,81.6c0-0.2,0-0.3,0.1-0.4c0.1-0.1,0.2-0.1,0.4-0.1c0.1,0,0.3,0,0.4,0.1c0.1,0.1,0.2,0.2,0.2,0.4
			c0,0.2-0.1,0.3-0.2,0.4c-0.1,0.1-0.2,0.1-0.4,0.1c-0.1,0-0.3,0-0.4-0.1C270.3,82,270.2,81.8,270.2,81.6z M271.2,88.9h-0.9v-5.7
			h0.9V88.9z"/>
		<path class="st9" d="M276.9,88.9v-3.7c0-0.5-0.1-0.8-0.3-1s-0.5-0.3-1-0.3c-0.6,0-1,0.2-1.3,0.5c-0.3,0.3-0.4,0.9-0.4,1.6v3H273
			v-5.7h0.7l0.1,0.8h0c0.2-0.3,0.4-0.5,0.7-0.7s0.7-0.2,1.1-0.2c0.7,0,1.2,0.2,1.5,0.5c0.3,0.3,0.5,0.9,0.5,1.6v3.7H276.9z"/>
		<path class="st9" d="M281.8,89c-0.8,0-1.5-0.3-1.9-0.8c-0.5-0.5-0.7-1.2-0.7-2.2c0-1,0.2-1.7,0.7-2.2c0.5-0.5,1.1-0.8,2-0.8
			c0.3,0,0.5,0,0.8,0.1c0.3,0.1,0.5,0.1,0.6,0.2l-0.3,0.7c-0.2-0.1-0.4-0.1-0.6-0.2c-0.2,0-0.4-0.1-0.6-0.1c-1.2,0-1.7,0.7-1.7,2.2
			c0,0.7,0.1,1.2,0.4,1.6c0.3,0.4,0.7,0.6,1.3,0.6c0.5,0,1-0.1,1.5-0.3v0.8C282.8,88.9,282.4,89,281.8,89z"/>
		<path class="st9" d="M285.4,88.9h-0.9v-8.1h0.9V88.9z"/>
		<path class="st9" d="M288.1,83.2v3.7c0,0.5,0.1,0.8,0.3,1s0.5,0.3,1,0.3c0.6,0,1-0.2,1.3-0.5c0.3-0.3,0.4-0.9,0.4-1.6v-3h0.9v5.7
			h-0.7l-0.1-0.8h0c-0.2,0.3-0.4,0.5-0.7,0.6c-0.3,0.1-0.7,0.2-1.1,0.2c-0.7,0-1.2-0.2-1.6-0.5c-0.3-0.3-0.5-0.9-0.5-1.6v-3.7H288.1
			z"/>
		<path class="st9" d="M297.7,88.1L297.7,88.1c-0.4,0.6-1,0.9-1.8,0.9c-0.7,0-1.3-0.3-1.7-0.8c-0.4-0.5-0.6-1.2-0.6-2.2
			c0-0.9,0.2-1.7,0.6-2.2s1-0.8,1.7-0.8c0.8,0,1.4,0.3,1.8,0.8h0.1l0-0.4l0-0.4v-2.3h0.9v8.1h-0.7L297.7,88.1z M295.9,88.3
			c0.6,0,1-0.2,1.3-0.5c0.3-0.3,0.4-0.8,0.4-1.5V86c0-0.8-0.1-1.4-0.4-1.7c-0.3-0.3-0.7-0.5-1.3-0.5c-0.5,0-0.9,0.2-1.2,0.6
			s-0.4,0.9-0.4,1.7c0,0.7,0.1,1.3,0.4,1.6C295,88.1,295.4,88.3,295.9,88.3z"/>
		<path class="st9" d="M302.7,89c-0.8,0-1.5-0.3-2-0.8c-0.5-0.5-0.7-1.2-0.7-2.1c0-0.9,0.2-1.6,0.7-2.2c0.5-0.5,1.1-0.8,1.8-0.8
			c0.7,0,1.3,0.2,1.7,0.7c0.4,0.5,0.6,1.1,0.6,1.9v0.5h-3.9c0,0.7,0.2,1.2,0.5,1.5c0.3,0.3,0.8,0.5,1.4,0.5c0.6,0,1.2-0.1,1.8-0.4
			v0.8c-0.3,0.1-0.6,0.2-0.9,0.3C303.4,88.9,303.1,89,302.7,89z M302.5,83.8c-0.5,0-0.8,0.1-1.1,0.4c-0.3,0.3-0.4,0.7-0.5,1.2h3
			c0-0.5-0.1-1-0.4-1.2S302.9,83.8,302.5,83.8z"/>
		<path class="st9" d="M306.1,83.7c0-0.5,0.2-0.7,0.6-0.7c0.4,0,0.6,0.2,0.6,0.7c0,0.2-0.1,0.4-0.2,0.5s-0.3,0.2-0.5,0.2
			c-0.2,0-0.3-0.1-0.4-0.2C306.2,84.2,306.1,84,306.1,83.7z M306.1,88.3c0-0.2,0.1-0.4,0.2-0.5c0.1-0.1,0.3-0.2,0.5-0.2
			c0.2,0,0.4,0.1,0.5,0.2c0.1,0.1,0.2,0.3,0.2,0.5c0,0.2-0.1,0.4-0.2,0.5S307,89,306.8,89c-0.2,0-0.3-0.1-0.4-0.2
			C306.2,88.7,306.1,88.6,306.1,88.3z"/>
		<path class="st9" d="M156.4,95.3c-0.6,0-1.1,0.2-1.4,0.7c-0.3,0.5-0.5,1.1-0.5,1.9c0,1.7,0.6,2.5,1.9,2.5c0.5,0,1.2-0.1,1.9-0.4
			v1.4c-0.6,0.3-1.3,0.4-2.1,0.4c-1.1,0-1.9-0.3-2.5-1c-0.6-0.7-0.9-1.6-0.9-2.9c0-0.8,0.1-1.5,0.4-2.1c0.3-0.6,0.7-1,1.2-1.4
			c0.5-0.3,1.2-0.5,1.9-0.5c0.7,0,1.5,0.2,2.2,0.5l-0.5,1.3c-0.3-0.1-0.6-0.3-0.9-0.4C157,95.3,156.7,95.3,156.4,95.3z"/>
		<path class="st9" d="M162.5,101.7c-0.9,0-1.7-0.3-2.2-0.8c-0.5-0.5-0.8-1.2-0.8-2.2c0-1,0.2-1.7,0.7-2.3s1.2-0.8,2-0.8
			c0.8,0,1.5,0.2,1.9,0.7c0.5,0.5,0.7,1.1,0.7,1.9v0.8h-3.7c0,0.5,0.2,0.8,0.4,1.1c0.2,0.3,0.6,0.4,1,0.4c0.3,0,0.7,0,1-0.1
			c0.3-0.1,0.6-0.2,1-0.3v1.2c-0.3,0.1-0.6,0.2-0.9,0.3S162.9,101.7,162.5,101.7z M162.2,96.8c-0.3,0-0.6,0.1-0.8,0.3
			c-0.2,0.2-0.3,0.5-0.3,0.9h2.2c0-0.4-0.1-0.7-0.3-0.9S162.6,96.8,162.2,96.8z"/>
		<path class="st9" d="M165.3,95.8h1.7l1.1,3.3c0.1,0.3,0.2,0.6,0.2,1h0c0-0.4,0.1-0.7,0.2-1l1.1-3.3h1.7l-2.5,6.5
			c-0.2,0.6-0.5,1.1-1,1.4c-0.4,0.3-0.9,0.5-1.5,0.5c-0.3,0-0.5,0-0.8-0.1v-1.3c0.2,0,0.4,0.1,0.6,0.1c0.3,0,0.5-0.1,0.7-0.3
			c0.2-0.2,0.4-0.4,0.5-0.8l0.1-0.3L165.3,95.8z"/>
		<path class="st9" d="M179.7,101.6l-0.6-1.8h-2.8l-0.6,1.8h-1.7l2.7-7.6h2l2.7,7.6H179.7z M178.8,98.5c-0.5-1.6-0.8-2.6-0.9-2.8
			s-0.1-0.4-0.1-0.5c-0.1,0.4-0.4,1.5-1,3.3H178.8z"/>
		<path class="st9" d="M184.1,101.7c-0.7,0-1.2-0.3-1.6-0.8c-0.4-0.5-0.6-1.3-0.6-2.2c0-1,0.2-1.7,0.6-2.2s0.9-0.8,1.6-0.8
			c0.7,0,1.3,0.3,1.7,0.9h0.1c-0.1-0.4-0.1-0.8-0.1-1.2v-1.9h1.6v8.1h-1.2l-0.3-0.8h-0.1C185.4,101.4,184.8,101.7,184.1,101.7z
			 M184.7,100.5c0.4,0,0.7-0.1,0.9-0.4c0.2-0.2,0.3-0.6,0.3-1.2v-0.2c0-0.6-0.1-1.1-0.3-1.3c-0.2-0.3-0.5-0.4-0.9-0.4
			c-0.4,0-0.6,0.1-0.8,0.4c-0.2,0.3-0.3,0.7-0.3,1.3s0.1,1,0.3,1.3C184,100.3,184.3,100.5,184.7,100.5z"/>
		<path class="st9" d="M192.7,101.6l-0.3-0.8h0c-0.3,0.3-0.5,0.6-0.8,0.7c-0.3,0.1-0.6,0.2-1.1,0.2c-0.6,0-1-0.2-1.3-0.5
			s-0.5-0.8-0.5-1.4c0-0.6,0.2-1.1,0.6-1.4c0.4-0.3,1.1-0.5,1.9-0.5l1,0v-0.3c0-0.6-0.3-0.9-0.9-0.9c-0.5,0-1,0.1-1.6,0.4l-0.5-1.1
			c0.7-0.3,1.4-0.5,2.2-0.5c0.8,0,1.4,0.2,1.8,0.5c0.4,0.3,0.6,0.9,0.6,1.5v3.9H192.7z M192.2,98.9l-0.6,0c-0.5,0-0.8,0.1-1,0.2
			s-0.3,0.4-0.3,0.7c0,0.4,0.3,0.7,0.8,0.7c0.4,0,0.7-0.1,0.9-0.3c0.2-0.2,0.3-0.5,0.3-0.8V98.9z"/>
		<path class="st9" d="M200.6,101.6H199v-3.4c0-0.4-0.1-0.7-0.2-0.9c-0.1-0.2-0.4-0.3-0.7-0.3c-0.4,0-0.7,0.1-0.9,0.4
			s-0.3,0.8-0.3,1.5v2.7h-1.6v-5.8h1.2l0.2,0.7h0.1c0.2-0.3,0.4-0.5,0.7-0.6c0.3-0.2,0.6-0.2,1-0.2c0.9,0,1.5,0.3,1.8,0.9h0.1
			c0.2-0.3,0.4-0.5,0.7-0.6c0.3-0.1,0.6-0.2,1-0.2c0.7,0,1.2,0.2,1.5,0.5c0.3,0.3,0.5,0.9,0.5,1.6v3.8h-1.6v-3.4
			c0-0.4-0.1-0.7-0.2-0.9c-0.1-0.2-0.4-0.3-0.7-0.3c-0.4,0-0.7,0.1-0.9,0.4c-0.2,0.3-0.3,0.7-0.3,1.3V101.6z"/>
		<path class="st9" d="M209.9,99.9c0,0.6-0.2,1-0.6,1.4s-1,0.5-1.9,0.5c-0.4,0-0.8,0-1.1-0.1c-0.3-0.1-0.6-0.1-0.8-0.3v-1.3
			c0.3,0.1,0.6,0.3,1,0.3s0.7,0.1,1,0.1c0.6,0,0.9-0.2,0.9-0.5c0-0.1,0-0.2-0.1-0.3s-0.2-0.2-0.4-0.3s-0.4-0.2-0.7-0.3
			c-0.4-0.2-0.8-0.4-1-0.5s-0.4-0.3-0.5-0.5s-0.1-0.5-0.1-0.8c0-0.5,0.2-0.9,0.6-1.2c0.4-0.3,1-0.4,1.7-0.4c0.7,0,1.4,0.2,2,0.5
			l-0.5,1.1c-0.3-0.1-0.6-0.2-0.8-0.3c-0.3-0.1-0.5-0.1-0.8-0.1c-0.5,0-0.7,0.1-0.7,0.4c0,0.1,0.1,0.3,0.2,0.4
			c0.2,0.1,0.5,0.3,1,0.5c0.5,0.2,0.8,0.4,1,0.5c0.2,0.2,0.4,0.3,0.5,0.5C209.9,99.4,209.9,99.6,209.9,99.9z"/>
		<path class="st9" d="M212.1,100.4l0.1,0.1c-0.1,0.3-0.2,0.7-0.4,1.2c-0.2,0.5-0.3,0.9-0.5,1.3h-0.6c0.1-0.4,0.2-0.8,0.3-1.3
			c0.1-0.5,0.2-1,0.2-1.3H212.1z"/>
		<path class="st9" d="M219.9,101.6l-1.8-6h0c0.1,1.2,0.1,2,0.1,2.4v3.5h-1.4V94h2.2l1.8,5.8h0l1.9-5.8h2.2v7.6h-1.5V98
			c0-0.2,0-0.4,0-0.6s0-0.8,0.1-1.8h0l-2,5.9H219.9z"/>
		<path class="st9" d="M230.2,101.6l-0.3-0.8h0c-0.3,0.3-0.5,0.6-0.8,0.7c-0.3,0.1-0.6,0.2-1.1,0.2c-0.6,0-1-0.2-1.3-0.5
			s-0.5-0.8-0.5-1.4c0-0.6,0.2-1.1,0.6-1.4c0.4-0.3,1.1-0.5,1.9-0.5l1,0v-0.3c0-0.6-0.3-0.9-0.9-0.9c-0.5,0-1,0.1-1.6,0.4l-0.5-1.1
			c0.7-0.3,1.4-0.5,2.2-0.5c0.8,0,1.4,0.2,1.8,0.5c0.4,0.3,0.6,0.9,0.6,1.5v3.9H230.2z M229.8,98.9l-0.6,0c-0.5,0-0.8,0.1-1,0.2
			s-0.3,0.4-0.3,0.7c0,0.4,0.3,0.7,0.8,0.7c0.4,0,0.7-0.1,0.9-0.3c0.2-0.2,0.3-0.5,0.3-0.8V98.9z"/>
		<path class="st9" d="M236.2,95.7c0.2,0,0.4,0,0.5,0l-0.1,1.5c-0.1,0-0.3-0.1-0.5-0.1c-0.5,0-0.9,0.1-1.2,0.4s-0.4,0.6-0.4,1.1v3
			H233v-5.8h1.2l0.2,1h0.1c0.2-0.3,0.4-0.6,0.7-0.8C235.5,95.8,235.8,95.7,236.2,95.7z"/>
		<path class="st9" d="M237.7,94.3c0-0.5,0.3-0.8,0.9-0.8s0.9,0.3,0.9,0.8c0,0.2-0.1,0.4-0.2,0.6s-0.4,0.2-0.6,0.2
			C238,95.1,237.7,94.8,237.7,94.3z M239.4,101.6h-1.6v-5.8h1.6V101.6z"/>
		<path class="st9" d="M243.7,101.7c-0.9,0-1.7-0.3-2.2-0.8c-0.5-0.5-0.8-1.2-0.8-2.2c0-1,0.2-1.7,0.7-2.3s1.2-0.8,2-0.8
			c0.8,0,1.5,0.2,1.9,0.7c0.5,0.5,0.7,1.1,0.7,1.9v0.8h-3.7c0,0.5,0.2,0.8,0.4,1.1c0.2,0.3,0.6,0.4,1,0.4c0.3,0,0.7,0,1-0.1
			c0.3-0.1,0.6-0.2,1-0.3v1.2c-0.3,0.1-0.6,0.2-0.9,0.3S244.1,101.7,243.7,101.7z M243.4,96.8c-0.3,0-0.6,0.1-0.8,0.3
			c-0.2,0.2-0.3,0.5-0.3,0.9h2.2c0-0.4-0.1-0.7-0.3-0.9S243.8,96.8,243.4,96.8z"/>
		<path class="st9" d="M246.8,99.4v-1.3h2.8v1.3H246.8z"/>
		<path class="st9" d="M257.2,97.8c0,1.2-0.4,2.2-1.1,2.9c-0.7,0.7-1.7,1-3.1,1h-2.1V94h2.4c1.2,0,2.2,0.3,2.9,1
			C256.8,95.7,257.2,96.6,257.2,97.8z M255.5,97.8c0-1.6-0.7-2.4-2.2-2.4h-0.9v4.9h0.7C254.7,100.3,255.5,99.5,255.5,97.8z"/>
		<path class="st9" d="M263.9,98.7c0,0.9-0.2,1.7-0.7,2.2c-0.5,0.5-1.2,0.8-2.1,0.8c-0.6,0-1-0.1-1.5-0.4c-0.4-0.2-0.8-0.6-1-1.1
			s-0.3-1-0.3-1.6c0-0.9,0.2-1.7,0.7-2.2s1.2-0.8,2.1-0.8c0.6,0,1,0.1,1.5,0.4s0.8,0.6,1,1C263.8,97.6,263.9,98.1,263.9,98.7z
			 M259.9,98.7c0,0.6,0.1,1,0.3,1.3c0.2,0.3,0.5,0.4,0.9,0.4c0.4,0,0.7-0.1,0.9-0.4c0.2-0.3,0.3-0.7,0.3-1.3c0-0.6-0.1-1-0.3-1.3
			c-0.2-0.3-0.5-0.4-0.9-0.4c-0.4,0-0.7,0.1-0.9,0.4C260,97.7,259.9,98.1,259.9,98.7z"/>
		<path class="st9" d="M266.8,101.6h-1.6v-8.1h1.6V101.6z"/>
		<path class="st9" d="M273.6,101.6h-1.6v-3.4c0-0.4-0.1-0.7-0.2-0.9c-0.1-0.2-0.4-0.3-0.7-0.3c-0.4,0-0.7,0.1-0.9,0.4
			s-0.3,0.8-0.3,1.5v2.7h-1.6v-5.8h1.2l0.2,0.7h0.1c0.2-0.3,0.4-0.5,0.7-0.6c0.3-0.2,0.6-0.2,1-0.2c0.9,0,1.5,0.3,1.8,0.9h0.1
			c0.2-0.3,0.4-0.5,0.7-0.6c0.3-0.1,0.6-0.2,1-0.2c0.7,0,1.2,0.2,1.5,0.5c0.3,0.3,0.5,0.9,0.5,1.6v3.8h-1.6v-3.4
			c0-0.4-0.1-0.7-0.2-0.9c-0.1-0.2-0.4-0.3-0.7-0.3c-0.4,0-0.7,0.1-0.9,0.4c-0.2,0.3-0.3,0.7-0.3,1.3V101.6z"/>
		<path class="st9" d="M282.6,101.6l-0.3-0.8h0c-0.3,0.3-0.5,0.6-0.8,0.7c-0.3,0.1-0.6,0.2-1.1,0.2c-0.6,0-1-0.2-1.3-0.5
			s-0.5-0.8-0.5-1.4c0-0.6,0.2-1.1,0.6-1.4c0.4-0.3,1.1-0.5,1.9-0.5l1,0v-0.3c0-0.6-0.3-0.9-0.9-0.9c-0.5,0-1,0.1-1.6,0.4l-0.5-1.1
			c0.7-0.3,1.4-0.5,2.2-0.5c0.8,0,1.4,0.2,1.8,0.5c0.4,0.3,0.6,0.9,0.6,1.5v3.9H282.6z M282.1,98.9l-0.6,0c-0.5,0-0.8,0.1-1,0.2
			s-0.3,0.4-0.3,0.7c0,0.4,0.3,0.7,0.8,0.7c0.4,0,0.7-0.1,0.9-0.3c0.2-0.2,0.3-0.5,0.3-0.8V98.9z"/>
		<path class="st9" d="M291.4,95.3c-0.6,0-1.1,0.2-1.4,0.7c-0.3,0.5-0.5,1.1-0.5,1.9c0,1.7,0.6,2.5,1.9,2.5c0.5,0,1.2-0.1,1.9-0.4
			v1.4c-0.6,0.3-1.3,0.4-2.1,0.4c-1.1,0-1.9-0.3-2.5-1c-0.6-0.7-0.9-1.6-0.9-2.9c0-0.8,0.1-1.5,0.4-2.1c0.3-0.6,0.7-1,1.2-1.4
			c0.5-0.3,1.2-0.5,1.9-0.5c0.7,0,1.5,0.2,2.2,0.5l-0.5,1.3c-0.3-0.1-0.6-0.3-0.9-0.4C292,95.3,291.7,95.3,291.4,95.3z"/>
		<path class="st9" d="M300.2,101.6h-1.6v-3.4c0-0.8-0.3-1.3-0.9-1.3c-0.4,0-0.8,0.2-1,0.5s-0.3,0.8-0.3,1.5v2.7h-1.6v-8.1h1.6v1.6
			c0,0.1,0,0.4,0,0.9l0,0.5h0.1c0.4-0.6,0.9-0.9,1.7-0.9c0.7,0,1.2,0.2,1.6,0.6c0.4,0.4,0.5,0.9,0.5,1.6V101.6z"/>
		<path class="st9" d="M307.1,98.7c0,0.9-0.2,1.7-0.7,2.2c-0.5,0.5-1.2,0.8-2.1,0.8c-0.6,0-1-0.1-1.5-0.4c-0.4-0.2-0.8-0.6-1-1.1
			s-0.3-1-0.3-1.6c0-0.9,0.2-1.7,0.7-2.2s1.2-0.8,2.1-0.8c0.6,0,1,0.1,1.5,0.4s0.8,0.6,1,1C307,97.6,307.1,98.1,307.1,98.7z
			 M303.1,98.7c0,0.6,0.1,1,0.3,1.3c0.2,0.3,0.5,0.4,0.9,0.4c0.4,0,0.7-0.1,0.9-0.4c0.2-0.3,0.3-0.7,0.3-1.3c0-0.6-0.1-1-0.3-1.3
			c-0.2-0.3-0.5-0.4-0.9-0.4c-0.4,0-0.7,0.1-0.9,0.4C303.2,97.7,303.1,98.1,303.1,98.7z"/>
		<path class="st9" d="M311.6,101.7c-0.7,0-1.2-0.2-1.6-0.7h-0.1c0.1,0.5,0.1,0.8,0.1,0.8v2.4h-1.6v-8.4h1.3l0.2,0.8h0.1
			c0.4-0.6,0.9-0.9,1.6-0.9c0.7,0,1.2,0.3,1.6,0.8c0.4,0.5,0.6,1.3,0.6,2.2c0,0.6-0.1,1.2-0.3,1.6s-0.4,0.8-0.8,1
			C312.5,101.6,312.1,101.7,311.6,101.7z M311.1,97c-0.4,0-0.7,0.1-0.9,0.4c-0.2,0.2-0.3,0.6-0.3,1.2v0.2c0,0.6,0.1,1.1,0.3,1.3
			c0.2,0.3,0.5,0.4,0.9,0.4c0.7,0,1.1-0.6,1.1-1.8c0-0.6-0.1-1-0.3-1.3S311.5,97,311.1,97z"/>
		<path class="st9" d="M320.5,101.6h-1.6v-3.4c0-0.8-0.3-1.3-0.9-1.3c-0.4,0-0.8,0.2-1,0.5s-0.3,0.8-0.3,1.5v2.7h-1.6v-8.1h1.6v1.6
			c0,0.1,0,0.4,0,0.9l0,0.5h0.1c0.4-0.6,0.9-0.9,1.7-0.9c0.7,0,1.2,0.2,1.6,0.6c0.4,0.4,0.5,0.9,0.5,1.6V101.6z"/>
		<path class="st9" d="M324.8,101.7c-0.9,0-1.7-0.3-2.2-0.8c-0.5-0.5-0.8-1.2-0.8-2.2c0-1,0.2-1.7,0.7-2.3s1.2-0.8,2-0.8
			c0.8,0,1.5,0.2,1.9,0.7c0.5,0.5,0.7,1.1,0.7,1.9v0.8h-3.7c0,0.5,0.2,0.8,0.4,1.1c0.2,0.3,0.6,0.4,1,0.4c0.3,0,0.7,0,1-0.1
			c0.3-0.1,0.6-0.2,1-0.3v1.2c-0.3,0.1-0.6,0.2-0.9,0.3S325.2,101.7,324.8,101.7z M324.5,96.8c-0.3,0-0.6,0.1-0.8,0.3
			c-0.2,0.2-0.3,0.5-0.3,0.9h2.2c0-0.4-0.1-0.7-0.3-0.9S324.9,96.8,324.5,96.8z"/>
		<path class="st9" d="M330,101.6h-1.6v-8.1h1.6V101.6z"/>
		<path class="st9" d="M332.7,100.4l0.1,0.1c-0.1,0.3-0.2,0.7-0.4,1.2c-0.2,0.5-0.3,0.9-0.5,1.3h-0.6c0.1-0.4,0.2-0.8,0.3-1.3
			c0.1-0.5,0.2-1,0.2-1.3H332.7z"/>
		<path class="st9" d="M157.7,112.3c0,0.7-0.2,1.2-0.7,1.6s-1.2,0.6-2.1,0.6c-0.8,0-1.5-0.2-2.1-0.5v-1.5c0.5,0.2,0.9,0.4,1.3,0.5
			c0.4,0.1,0.7,0.1,1,0.1c0.4,0,0.6-0.1,0.8-0.2c0.2-0.1,0.3-0.3,0.3-0.6c0-0.1,0-0.3-0.1-0.4c-0.1-0.1-0.2-0.2-0.4-0.3
			c-0.2-0.1-0.5-0.3-1-0.5c-0.5-0.2-0.8-0.4-1-0.6c-0.2-0.2-0.4-0.4-0.6-0.7c-0.1-0.3-0.2-0.6-0.2-0.9c0-0.7,0.2-1.2,0.7-1.6
			c0.5-0.4,1.1-0.6,1.9-0.6c0.4,0,0.8,0,1.1,0.1c0.4,0.1,0.7,0.2,1.1,0.4l-0.5,1.3c-0.4-0.2-0.7-0.3-1-0.3s-0.5-0.1-0.8-0.1
			c-0.3,0-0.5,0.1-0.7,0.2c-0.2,0.1-0.2,0.3-0.2,0.6c0,0.1,0,0.3,0.1,0.4c0.1,0.1,0.2,0.2,0.3,0.3c0.1,0.1,0.5,0.3,1,0.5
			c0.7,0.3,1.2,0.7,1.5,1C157.5,111.4,157.7,111.8,157.7,112.3z"/>
		<path class="st9" d="M164.3,114.4h-1.6V111c0-0.8-0.3-1.3-0.9-1.3c-0.4,0-0.8,0.2-1,0.5s-0.3,0.8-0.3,1.5v2.7h-1.6v-8.1h1.6v1.6
			c0,0.1,0,0.4,0,0.9l0,0.5h0.1c0.4-0.6,0.9-0.9,1.7-0.9c0.7,0,1.2,0.2,1.6,0.6c0.4,0.4,0.5,0.9,0.5,1.6V114.4z"/>
		<path class="st9" d="M168.5,114.5c-0.9,0-1.7-0.3-2.2-0.8c-0.5-0.5-0.8-1.2-0.8-2.2c0-1,0.2-1.7,0.7-2.3s1.2-0.8,2-0.8
			c0.8,0,1.5,0.2,1.9,0.7c0.5,0.5,0.7,1.1,0.7,1.9v0.8h-3.7c0,0.5,0.2,0.8,0.4,1.1c0.2,0.3,0.6,0.4,1,0.4c0.3,0,0.7,0,1-0.1
			c0.3-0.1,0.6-0.2,1-0.3v1.2c-0.3,0.1-0.6,0.2-0.9,0.3S169,114.5,168.5,114.5z M168.3,109.6c-0.3,0-0.6,0.1-0.8,0.3
			c-0.2,0.2-0.3,0.5-0.3,0.9h2.2c0-0.4-0.1-0.7-0.3-0.9S168.6,109.6,168.3,109.6z"/>
		<path class="st9" d="M175.4,114.5c-0.7,0-1.2-0.2-1.6-0.7h-0.1c0.1,0.5,0.1,0.8,0.1,0.8v2.4h-1.6v-8.4h1.3l0.2,0.8h0.1
			c0.4-0.6,0.9-0.9,1.6-0.9c0.7,0,1.2,0.3,1.6,0.8c0.4,0.5,0.6,1.3,0.6,2.2c0,0.6-0.1,1.2-0.3,1.6s-0.4,0.8-0.8,1
			C176.2,114.4,175.8,114.5,175.4,114.5z M174.9,109.7c-0.4,0-0.7,0.1-0.9,0.4c-0.2,0.2-0.3,0.6-0.3,1.2v0.2c0,0.6,0.1,1.1,0.3,1.3
			c0.2,0.3,0.5,0.4,0.9,0.4c0.7,0,1.1-0.6,1.1-1.8c0-0.6-0.1-1-0.3-1.3S175.3,109.7,174.9,109.7z"/>
		<path class="st9" d="M182.6,114.4l-0.3-0.8h0c-0.3,0.3-0.5,0.6-0.8,0.7c-0.3,0.1-0.6,0.2-1.1,0.2c-0.6,0-1-0.2-1.3-0.5
			s-0.5-0.8-0.5-1.4c0-0.6,0.2-1.1,0.6-1.4c0.4-0.3,1.1-0.5,1.9-0.5l1,0v-0.3c0-0.6-0.3-0.9-0.9-0.9c-0.5,0-1,0.1-1.6,0.4l-0.5-1.1
			c0.7-0.3,1.4-0.5,2.2-0.5c0.8,0,1.4,0.2,1.8,0.5c0.4,0.3,0.6,0.9,0.6,1.5v3.9H182.6z M182.1,111.7l-0.6,0c-0.5,0-0.8,0.1-1,0.2
			s-0.3,0.4-0.3,0.7c0,0.4,0.3,0.7,0.8,0.7c0.4,0,0.7-0.1,0.9-0.3c0.2-0.2,0.3-0.5,0.3-0.8V111.7z"/>
		<path class="st9" d="M188.6,108.5c0.2,0,0.4,0,0.5,0L189,110c-0.1,0-0.3-0.1-0.5-0.1c-0.5,0-0.9,0.1-1.2,0.4s-0.4,0.6-0.4,1.1v3
			h-1.6v-5.8h1.2l0.2,1h0.1c0.2-0.3,0.4-0.6,0.7-0.8C187.9,108.6,188.2,108.5,188.6,108.5z"/>
		<path class="st9" d="M192,114.5c-0.7,0-1.2-0.3-1.6-0.8c-0.4-0.5-0.6-1.3-0.6-2.2c0-1,0.2-1.7,0.6-2.2s0.9-0.8,1.6-0.8
			c0.7,0,1.3,0.3,1.7,0.9h0.1c-0.1-0.4-0.1-0.8-0.1-1.2v-1.9h1.6v8.1H194l-0.3-0.8h-0.1C193.3,114.2,192.7,114.5,192,114.5z
			 M192.6,113.2c0.4,0,0.7-0.1,0.9-0.4c0.2-0.2,0.3-0.6,0.3-1.2v-0.2c0-0.6-0.1-1.1-0.3-1.3c-0.2-0.3-0.5-0.4-0.9-0.4
			c-0.4,0-0.6,0.1-0.8,0.4c-0.2,0.3-0.3,0.7-0.3,1.3s0.1,1,0.3,1.3C191.9,113.1,192.2,113.2,192.6,113.2z"/>
		<path class="st9" d="M201.4,114.4h-1.6v-7.6h4.4v1.3h-2.8v2h2.6v1.3h-2.6V114.4z"/>
		<path class="st9" d="M209.2,114.4l-0.3-0.8h0c-0.3,0.3-0.5,0.6-0.8,0.7c-0.3,0.1-0.6,0.2-1.1,0.2c-0.6,0-1-0.2-1.3-0.5
			s-0.5-0.8-0.5-1.4c0-0.6,0.2-1.1,0.6-1.4c0.4-0.3,1.1-0.5,1.9-0.5l1,0v-0.3c0-0.6-0.3-0.9-0.9-0.9c-0.5,0-1,0.1-1.6,0.4l-0.5-1.1
			c0.7-0.3,1.4-0.5,2.2-0.5c0.8,0,1.4,0.2,1.8,0.5c0.4,0.3,0.6,0.9,0.6,1.5v3.9H209.2z M208.7,111.7l-0.6,0c-0.5,0-0.8,0.1-1,0.2
			s-0.3,0.4-0.3,0.7c0,0.4,0.3,0.7,0.8,0.7c0.4,0,0.7-0.1,0.9-0.3c0.2-0.2,0.3-0.5,0.3-0.8V111.7z"/>
		<path class="st9" d="M211.9,107.1c0-0.5,0.3-0.8,0.9-0.8s0.9,0.3,0.9,0.8c0,0.2-0.1,0.4-0.2,0.6s-0.4,0.2-0.6,0.2
			C212.1,107.9,211.9,107.6,211.9,107.1z M213.5,114.4h-1.6v-5.8h1.6V114.4z"/>
		<path class="st9" d="M218.4,108.5c0.2,0,0.4,0,0.5,0l-0.1,1.5c-0.1,0-0.3-0.1-0.5-0.1c-0.5,0-0.9,0.1-1.2,0.4s-0.4,0.6-0.4,1.1v3
			h-1.6v-5.8h1.2l0.2,1h0.1c0.2-0.3,0.4-0.6,0.7-0.8C217.7,108.6,218,108.5,218.4,108.5z"/>
		<path class="st9" d="M222.6,114.5c-0.9,0-1.7-0.3-2.2-0.8c-0.5-0.5-0.8-1.2-0.8-2.2c0-1,0.2-1.7,0.7-2.3s1.2-0.8,2-0.8
			c0.8,0,1.5,0.2,1.9,0.7c0.5,0.5,0.7,1.1,0.7,1.9v0.8h-3.7c0,0.5,0.2,0.8,0.4,1.1c0.2,0.3,0.6,0.4,1,0.4c0.3,0,0.7,0,1-0.1
			c0.3-0.1,0.6-0.2,1-0.3v1.2c-0.3,0.1-0.6,0.2-0.9,0.3S223.1,114.5,222.6,114.5z M222.4,109.6c-0.3,0-0.6,0.1-0.8,0.3
			c-0.2,0.2-0.3,0.5-0.3,0.9h2.2c0-0.4-0.1-0.7-0.3-0.9S222.7,109.6,222.4,109.6z"/>
		<path class="st9" d="M225.4,108.6h1.7l1.1,3.3c0.1,0.3,0.2,0.6,0.2,1h0c0-0.4,0.1-0.7,0.2-1l1.1-3.3h1.7l-2.5,6.5
			c-0.2,0.6-0.5,1.1-1,1.4c-0.4,0.3-0.9,0.5-1.5,0.5c-0.3,0-0.5,0-0.8-0.1v-1.3c0.2,0,0.4,0.1,0.6,0.1c0.3,0,0.5-0.1,0.7-0.3
			c0.2-0.2,0.4-0.4,0.5-0.8l0.1-0.3L225.4,108.6z"/>
		<path class="st9" d="M234.8,112.4c0-0.5,0.1-0.8,0.4-1.2c0.2-0.3,0.7-0.7,1.3-1c-0.3-0.3-0.5-0.6-0.6-0.7
			c-0.1-0.2-0.2-0.3-0.3-0.5c-0.1-0.2-0.1-0.4-0.1-0.6c0-0.5,0.2-0.9,0.5-1.2c0.3-0.3,0.8-0.4,1.4-0.4c0.6,0,1,0.1,1.3,0.4
			s0.5,0.7,0.5,1.2c0,0.4-0.1,0.7-0.4,1c-0.2,0.3-0.6,0.6-1.2,1l2.1,2c0.2-0.2,0.3-0.5,0.5-0.8c0.1-0.3,0.2-0.6,0.3-0.9h0.9
			c-0.2,1-0.6,1.7-1.1,2.3l1.6,1.5h-1.2l-1-0.9c-0.4,0.4-0.8,0.6-1.2,0.8s-0.9,0.2-1.4,0.2c-0.7,0-1.3-0.2-1.7-0.5
			S234.8,113.1,234.8,112.4z M237.2,113.7c0.8,0,1.5-0.3,2.1-0.8l-2.3-2.2c-0.4,0.2-0.7,0.4-0.8,0.6c-0.2,0.2-0.3,0.3-0.4,0.5
			c-0.1,0.2-0.1,0.4-0.1,0.6c0,0.4,0.1,0.7,0.4,1C236.4,113.6,236.8,113.7,237.2,113.7z M236.4,108.3c0,0.2,0.1,0.5,0.2,0.7
			c0.1,0.2,0.3,0.5,0.6,0.8c0.4-0.3,0.8-0.5,0.9-0.7s0.3-0.5,0.3-0.8c0-0.3-0.1-0.5-0.3-0.7s-0.4-0.3-0.7-0.3
			c-0.3,0-0.6,0.1-0.8,0.2C236.5,107.8,236.4,108,236.4,108.3z"/>
		<path class="st9" d="M251,109.2c0,0.8-0.3,1.4-0.8,1.9s-1.2,0.6-2.2,0.6h-0.7v2.7h-1.6v-7.6h2.4c0.9,0,1.6,0.2,2.1,0.6
			C250.7,107.8,251,108.4,251,109.2z M247.3,110.4h0.5c0.5,0,0.9-0.1,1.1-0.3c0.2-0.2,0.4-0.5,0.4-0.9c0-0.4-0.1-0.7-0.3-0.8
			c-0.2-0.2-0.5-0.3-1-0.3h-0.7V110.4z"/>
		<path class="st9" d="M255.5,108.5c0.2,0,0.4,0,0.5,0l-0.1,1.5c-0.1,0-0.3-0.1-0.5-0.1c-0.5,0-0.9,0.1-1.2,0.4s-0.4,0.6-0.4,1.1v3
			h-1.6v-5.8h1.2l0.2,1h0.1c0.2-0.3,0.4-0.6,0.7-0.8C254.8,108.6,255.2,108.5,255.5,108.5z"/>
		<path class="st9" d="M262.4,111.5c0,0.9-0.2,1.7-0.7,2.2c-0.5,0.5-1.2,0.8-2.1,0.8c-0.6,0-1-0.1-1.5-0.4c-0.4-0.2-0.8-0.6-1-1.1
			s-0.3-1-0.3-1.6c0-0.9,0.2-1.7,0.7-2.2s1.2-0.8,2.1-0.8c0.6,0,1,0.1,1.5,0.4s0.8,0.6,1,1C262.3,110.3,262.4,110.9,262.4,111.5z
			 M258.4,111.5c0,0.6,0.1,1,0.3,1.3c0.2,0.3,0.5,0.4,0.9,0.4c0.4,0,0.7-0.1,0.9-0.4c0.2-0.3,0.3-0.7,0.3-1.3c0-0.6-0.1-1-0.3-1.3
			c-0.2-0.3-0.5-0.4-0.9-0.4c-0.4,0-0.7,0.1-0.9,0.4C258.5,110.5,258.4,110.9,258.4,111.5z"/>
		<path class="st9" d="M266.9,109.8h-1.4v4.6H264v-4.6h-0.9V109l0.9-0.4v-0.4c0-0.7,0.2-1.1,0.5-1.4s0.8-0.5,1.6-0.5
			c0.5,0,1,0.1,1.5,0.2l-0.4,1.2c-0.3-0.1-0.6-0.2-0.9-0.2c-0.2,0-0.4,0.1-0.5,0.2c-0.1,0.1-0.2,0.3-0.2,0.5v0.4h1.4V109.8z"/>
		<path class="st9" d="M267.6,113.6c0-0.3,0.1-0.5,0.2-0.7c0.2-0.1,0.4-0.2,0.7-0.2c0.3,0,0.5,0.1,0.7,0.2s0.2,0.4,0.2,0.7
			c0,0.3-0.1,0.5-0.2,0.6c-0.2,0.2-0.4,0.2-0.7,0.2c-0.3,0-0.5-0.1-0.7-0.2S267.6,113.9,267.6,113.6z"/>
		<path class="st9" d="M275.4,111.5v2.9h-1.6v-7.6h2.2c1,0,1.8,0.2,2.3,0.6c0.5,0.4,0.7,0.9,0.7,1.7c0,0.4-0.1,0.8-0.4,1.2
			c-0.2,0.3-0.6,0.6-1,0.8c1.1,1.7,1.9,2.8,2.2,3.3H278l-1.8-2.9H275.4z M275.4,110.2h0.5c0.5,0,0.9-0.1,1.1-0.3s0.4-0.4,0.4-0.8
			c0-0.4-0.1-0.6-0.4-0.8s-0.6-0.2-1.1-0.2h-0.5V110.2z"/>
		<path class="st9" d="M285.9,111.5c0,0.9-0.2,1.7-0.7,2.2c-0.5,0.5-1.2,0.8-2.1,0.8c-0.6,0-1-0.1-1.5-0.4c-0.4-0.2-0.8-0.6-1-1.1
			s-0.3-1-0.3-1.6c0-0.9,0.2-1.7,0.7-2.2s1.2-0.8,2.1-0.8c0.6,0,1,0.1,1.5,0.4s0.8,0.6,1,1C285.8,110.3,285.9,110.9,285.9,111.5z
			 M281.9,111.5c0,0.6,0.1,1,0.3,1.3c0.2,0.3,0.5,0.4,0.9,0.4c0.4,0,0.7-0.1,0.9-0.4c0.2-0.3,0.3-0.7,0.3-1.3c0-0.6-0.1-1-0.3-1.3
			c-0.2-0.3-0.5-0.4-0.9-0.4c-0.4,0-0.7,0.1-0.9,0.4C282,110.5,281.9,110.9,281.9,111.5z"/>
		<path class="st9" d="M290.5,108.5c0.7,0,1.2,0.3,1.6,0.8c0.4,0.5,0.6,1.3,0.6,2.2c0,1-0.2,1.7-0.6,2.2s-0.9,0.8-1.6,0.8
			c-0.7,0-1.2-0.2-1.6-0.7h-0.1l-0.3,0.6h-1.2v-8.1h1.6v1.9c0,0.2,0,0.6-0.1,1.1h0.1C289.2,108.8,289.7,108.5,290.5,108.5z
			 M289.9,109.7c-0.4,0-0.7,0.1-0.9,0.4c-0.2,0.2-0.3,0.6-0.3,1.2v0.2c0,0.6,0.1,1.1,0.3,1.3c0.2,0.3,0.5,0.4,0.9,0.4
			c0.3,0,0.6-0.1,0.8-0.4c0.2-0.3,0.3-0.7,0.3-1.3s-0.1-1-0.3-1.3S290.3,109.7,289.9,109.7z"/>
		<path class="st9" d="M296.6,114.5c-0.9,0-1.7-0.3-2.2-0.8c-0.5-0.5-0.8-1.2-0.8-2.2c0-1,0.2-1.7,0.7-2.3s1.2-0.8,2-0.8
			c0.8,0,1.5,0.2,1.9,0.7c0.5,0.5,0.7,1.1,0.7,1.9v0.8h-3.7c0,0.5,0.2,0.8,0.4,1.1c0.2,0.3,0.6,0.4,1,0.4c0.3,0,0.7,0,1-0.1
			c0.3-0.1,0.6-0.2,1-0.3v1.2c-0.3,0.1-0.6,0.2-0.9,0.3S297,114.5,296.6,114.5z M296.4,109.6c-0.3,0-0.6,0.1-0.8,0.3
			c-0.2,0.2-0.3,0.5-0.3,0.9h2.2c0-0.4-0.1-0.7-0.3-0.9S296.7,109.6,296.4,109.6z"/>
		<path class="st9" d="M303.5,108.5c0.2,0,0.4,0,0.5,0l-0.1,1.5c-0.1,0-0.3-0.1-0.5-0.1c-0.5,0-0.9,0.1-1.2,0.4s-0.4,0.6-0.4,1.1v3
			h-1.6v-5.8h1.2l0.2,1h0.1c0.2-0.3,0.4-0.6,0.7-0.8C302.8,108.6,303.1,108.5,303.5,108.5z"/>
		<path class="st9" d="M307.5,113.2c0.3,0,0.6-0.1,1-0.2v1.2c-0.4,0.2-0.9,0.3-1.5,0.3c-0.6,0-1.1-0.2-1.4-0.5
			c-0.3-0.3-0.4-0.8-0.4-1.4v-2.8h-0.8v-0.7l0.9-0.5l0.5-1.2h1v1.2h1.6v1.2h-1.6v2.8c0,0.2,0.1,0.4,0.2,0.5
			C307.1,113.2,307.3,113.2,307.5,113.2z"/>
		<path class="st9" d="M315.5,114.4h-1.6v-6.3h-2.1v-1.3h5.7v1.3h-2.1V114.4z"/>
		<path class="st9" d="M324,114.4h-1.6V111c0-0.8-0.3-1.3-0.9-1.3c-0.4,0-0.8,0.2-1,0.5s-0.3,0.8-0.3,1.5v2.7h-1.6v-8.1h1.6v1.6
			c0,0.1,0,0.4,0,0.9l0,0.5h0.1c0.4-0.6,0.9-0.9,1.7-0.9c0.7,0,1.2,0.2,1.6,0.6c0.4,0.4,0.5,0.9,0.5,1.6V114.4z"/>
		<path class="st9" d="M329.7,114.4l-0.2-0.7h-0.1c-0.2,0.3-0.4,0.5-0.7,0.6c-0.3,0.1-0.7,0.2-1.1,0.2c-0.7,0-1.2-0.2-1.5-0.5
			s-0.5-0.9-0.5-1.6v-3.8h1.6v3.4c0,0.4,0.1,0.7,0.2,0.9c0.1,0.2,0.4,0.3,0.7,0.3c0.4,0,0.8-0.1,1-0.4s0.3-0.8,0.3-1.5v-2.7h1.6v5.8
			H329.7z"/>
		<path class="st9" d="M335.8,108.5c0.2,0,0.4,0,0.5,0l-0.1,1.5c-0.1,0-0.3-0.1-0.5-0.1c-0.5,0-0.9,0.1-1.2,0.4s-0.4,0.6-0.4,1.1v3
			h-1.6v-5.8h1.2l0.2,1h0.1c0.2-0.3,0.4-0.6,0.7-0.8C335.1,108.6,335.5,108.5,335.8,108.5z"/>
		<path class="st9" d="M342.6,114.4H341V111c0-0.4-0.1-0.7-0.2-0.9c-0.1-0.2-0.4-0.3-0.7-0.3c-0.4,0-0.7,0.1-0.9,0.4
			s-0.3,0.8-0.3,1.5v2.7h-1.6v-5.8h1.2l0.2,0.7h0.1c0.2-0.3,0.4-0.5,0.7-0.6c0.3-0.2,0.6-0.2,1-0.2c0.9,0,1.5,0.3,1.8,0.9h0.1
			c0.2-0.3,0.4-0.5,0.7-0.6c0.3-0.1,0.6-0.2,1-0.2c0.7,0,1.2,0.2,1.5,0.5c0.3,0.3,0.5,0.9,0.5,1.6v3.8h-1.6V111
			c0-0.4-0.1-0.7-0.2-0.9c-0.1-0.2-0.4-0.3-0.7-0.3c-0.4,0-0.7,0.1-0.9,0.4c-0.2,0.3-0.3,0.7-0.3,1.3V114.4z"/>
		<path class="st9" d="M351.5,114.4l-0.3-0.8h0c-0.3,0.3-0.5,0.6-0.8,0.7c-0.3,0.1-0.6,0.2-1.1,0.2c-0.6,0-1-0.2-1.3-0.5
			s-0.5-0.8-0.5-1.4c0-0.6,0.2-1.1,0.6-1.4c0.4-0.3,1.1-0.5,1.9-0.5l1,0v-0.3c0-0.6-0.3-0.9-0.9-0.9c-0.5,0-1,0.1-1.6,0.4L348,109
			c0.7-0.3,1.4-0.5,2.2-0.5c0.8,0,1.4,0.2,1.8,0.5c0.4,0.3,0.6,0.9,0.6,1.5v3.9H351.5z M351.1,111.7l-0.6,0c-0.5,0-0.8,0.1-1,0.2
			s-0.3,0.4-0.3,0.7c0,0.4,0.3,0.7,0.8,0.7c0.4,0,0.7-0.1,0.9-0.3c0.2-0.2,0.3-0.5,0.3-0.8V111.7z"/>
		<path class="st9" d="M359.6,114.4H358V111c0-0.4-0.1-0.7-0.2-0.9c-0.1-0.2-0.4-0.3-0.7-0.3c-0.4,0-0.8,0.1-1,0.4s-0.3,0.8-0.3,1.5
			v2.7h-1.6v-5.8h1.2l0.2,0.7h0.1c0.2-0.3,0.4-0.5,0.7-0.6c0.3-0.1,0.7-0.2,1.1-0.2c0.7,0,1.2,0.2,1.5,0.5s0.5,0.9,0.5,1.6V114.4z"
			/>
		<path class="st9" d="M361,113.6c0-0.3,0.1-0.5,0.2-0.7c0.2-0.1,0.4-0.2,0.7-0.2c0.3,0,0.5,0.1,0.7,0.2s0.2,0.4,0.2,0.7
			c0,0.3-0.1,0.5-0.2,0.6c-0.2,0.2-0.4,0.2-0.7,0.2c-0.3,0-0.5-0.1-0.7-0.2S361,113.9,361,113.6z"/>
		<path class="st10" d="M158,149.7h-4.1v-15.5h9.2v3.4h-5v3h4.6v3.4H158V149.7z"/>
		<path class="st10" d="M169.8,144v5.6h-4.2v-15.5h5.1c4.2,0,6.3,1.5,6.3,4.6c0,1.8-0.9,3.2-2.6,4.2l4.5,6.8h-4.8l-3.3-5.6H169.8z
			 M169.8,140.9h0.8c1.5,0,2.2-0.6,2.2-1.9c0-1.1-0.7-1.6-2.2-1.6h-0.8V140.9z"/>
		<path class="st10" d="M180.3,149.7v-15.5h4.2v15.5H180.3z"/>
		<path class="st10" d="M191.5,146.5l0.1,0.2c-0.7,2.7-1.3,4.7-1.9,6h-3c0.2-1,0.4-2.1,0.6-3.3c0.2-1.2,0.4-2.2,0.4-2.9H191.5z"/>
		<path class="st10" d="M215,149.7h-5.5l-5.7-10.9h-0.1c0.1,1.7,0.2,3,0.2,3.9v7h-3.7v-15.5h5.5l5.6,10.8h0.1
			c-0.1-1.6-0.1-2.8-0.1-3.8v-7h3.7V149.7z"/>
		<path class="st10" d="M232.9,141.9c0,2.6-0.6,4.6-1.9,6c-1.3,1.4-3.2,2-5.6,2c-2.4,0-4.3-0.7-5.6-2c-1.3-1.4-1.9-3.4-1.9-6
			c0-2.6,0.6-4.6,1.9-5.9c1.3-1.4,3.2-2,5.6-2c2.5,0,4.3,0.7,5.6,2C232.3,137.3,232.9,139.3,232.9,141.9z M222.2,141.9
			c0,3,1,4.5,3.1,4.5c1.1,0,1.8-0.4,2.4-1.1c0.5-0.7,0.8-1.9,0.8-3.4c0-1.5-0.3-2.7-0.8-3.4s-1.3-1.1-2.3-1.1
			C223.3,137.4,222.2,138.9,222.2,141.9z"/>
		<path class="st10" d="M244.4,134.2h4.7l-5.1,15.5h-4.9l-5.1-15.5h4.7l2.1,7.9c0.4,1.7,0.7,3,0.7,3.7c0-0.5,0.1-1.1,0.3-1.9
			c0.1-0.7,0.3-1.3,0.4-1.8L244.4,134.2z"/>
		<path class="st10" d="M260,149.7h-9.2v-15.5h9.2v3.4h-5v2.4h4.6v3.4H255v2.9h5V149.7z"/>
		<path class="st10" d="M269.5,149.7l-3.2-11.2h-0.1c0.1,1.9,0.2,3.4,0.2,4.4v6.7h-3.7v-15.5h5.6l3.2,11h0.1l3.2-11h5.6v15.5h-3.9
			v-6.8c0-0.4,0-0.7,0-1.2c0-0.4,0.1-1.5,0.1-3.2h-0.1l-3.1,11.2H269.5z"/>
		<path class="st10" d="M283.7,134.2h5.4c2.1,0,3.7,0.3,4.7,0.9c1,0.6,1.5,1.6,1.5,2.9c0,0.9-0.2,1.6-0.7,2.2s-1,1-1.8,1.2v0.1
			c1,0.3,1.7,0.7,2.1,1.3c0.4,0.6,0.6,1.4,0.6,2.3c0,1.4-0.5,2.5-1.6,3.3c-1.1,0.8-2.5,1.2-4.3,1.2h-6V134.2z M287.9,140.1h1.3
			c0.6,0,1.1-0.1,1.4-0.4c0.3-0.2,0.5-0.6,0.5-1.1c0-0.9-0.7-1.3-2-1.3h-1.2V140.1z M287.9,143.2v3.3h1.5c1.3,0,2-0.6,2-1.7
			c0-0.5-0.2-0.9-0.5-1.2c-0.4-0.3-0.9-0.4-1.5-0.4H287.9z"/>
		<path class="st10" d="M307.6,149.7h-9.2v-15.5h9.2v3.4h-5v2.4h4.6v3.4h-4.6v2.9h5V149.7z"/>
		<path class="st10" d="M314.5,144v5.6h-4.2v-15.5h5.1c4.2,0,6.3,1.5,6.3,4.6c0,1.8-0.9,3.2-2.6,4.2l4.5,6.8h-4.8l-3.3-5.6H314.5z
			 M314.5,140.9h0.8c1.5,0,2.2-0.6,2.2-1.9c0-1.1-0.7-1.6-2.2-1.6h-0.8V140.9z"/>
		<path class="st10" d="M338.9,149.7h-4.3v-8.2c0-1,0-1.9,0.1-2.7c-0.3,0.3-0.6,0.7-1,1l-1.8,1.5l-2.2-2.7l5.3-4.3h3.8V149.7z"/>
		<path class="st10" d="M348.7,139.5c0.9,0,1.7,0.2,2.4,0.6s1.3,1,1.7,1.8c0.4,0.8,0.6,1.6,0.6,2.6c0,1.7-0.5,3.1-1.6,4
			s-2.6,1.4-4.7,1.4c-1.8,0-3.3-0.3-4.4-0.8v-3.4c0.6,0.3,1.3,0.5,2.1,0.7c0.8,0.2,1.4,0.3,2,0.3c0.8,0,1.4-0.2,1.8-0.5
			c0.4-0.3,0.6-0.8,0.6-1.5c0-0.6-0.2-1.1-0.6-1.4c-0.4-0.3-1.1-0.5-1.9-0.5c-0.7,0-1.4,0.1-2.1,0.4l-1.5-0.8l0.6-8.2h8.8v3.5h-5.3
			l-0.2,2c0.6-0.1,0.9-0.2,1.2-0.2S348.5,139.5,348.7,139.5z"/>
		<path class="st10" d="M153,166.7c0-2.2,0.3-3.9,0.9-5.3c0.6-1.3,1.5-2.3,2.7-3c1.2-0.6,2.7-1,4.5-1c0.6,0,1.4,0.1,2.2,0.2v3.3
			c-0.7-0.1-1.5-0.2-2.3-0.2c-1.4,0-2.4,0.3-3.1,0.9s-1.1,1.6-1.1,3h0.1c0.6-1.2,1.7-1.8,3.1-1.8c1.4,0,2.4,0.4,3.2,1.3
			c0.8,0.9,1.1,2.1,1.1,3.7c0,1.7-0.5,3-1.4,4c-1,1-2.3,1.5-4,1.5c-1.8,0-3.3-0.6-4.3-1.8C153.5,170.5,153,168.8,153,166.7z
			 M158.7,170.2c0.4,0,0.8-0.2,1.1-0.5c0.3-0.3,0.4-0.9,0.4-1.6c0-1.3-0.5-1.9-1.5-1.9c-0.5,0-0.9,0.2-1.2,0.5s-0.5,0.7-0.5,1.2
			c0,0.7,0.1,1.2,0.4,1.7C157.9,169.9,158.3,170.2,158.7,170.2z"/>
		<path class="st10" d="M177.9,162.7c0,1.7-0.5,3.1-1.5,4c-1,0.9-2.5,1.4-4.4,1.4h-1.2v5.1h-4.2v-15.5h5.4c2,0,3.4,0.4,4.4,1.3
			C177.4,159.9,177.9,161.1,177.9,162.7z M170.8,164.7h0.8c0.6,0,1.1-0.2,1.5-0.5c0.4-0.4,0.6-0.8,0.6-1.5c0-1-0.6-1.6-1.7-1.6h-1.1
			V164.7z"/>
		<path class="st10" d="M187.1,173.3l-3.2-11.2h-0.1c0.1,1.9,0.2,3.4,0.2,4.4v6.7h-3.7v-15.5h5.6l3.2,11h0.1l3.2-11h5.6v15.5h-3.9
			v-6.8c0-0.4,0-0.7,0-1.2c0-0.4,0.1-1.5,0.1-3.2h-0.1l-3.1,11.2H187.1z"/>
		<path class="st10" d="M206.1,168.9v-2.9h9.3v2.9H206.1z"/>
		<path class="st10" d="M233.9,164.9c0,3-0.7,5.2-2,6.6c-1.3,1.4-3.4,2-6.3,2c-0.9,0-1.7,0-2.2-0.1v-3.3c0.6,0.1,1.2,0.2,1.8,0.2
			c1.5,0,2.7-0.3,3.5-0.9s1.3-1.6,1.3-2.9H230c-0.3,0.5-0.5,0.9-0.8,1.1c-0.3,0.2-0.6,0.4-1,0.5c-0.4,0.1-0.9,0.2-1.5,0.2
			c-1.3,0-2.4-0.4-3.2-1.3c-0.8-0.9-1.1-2.1-1.1-3.7c0-1.7,0.5-3.1,1.5-4c1-1,2.3-1.5,4-1.5c1.9,0,3.4,0.6,4.4,1.9
			C233.4,160.7,233.9,162.5,233.9,164.9z M228,161c-0.5,0-0.8,0.2-1.1,0.5c-0.3,0.3-0.4,0.9-0.4,1.6c0,0.6,0.1,1,0.4,1.4
			c0.2,0.3,0.6,0.5,1.1,0.5c0.5,0,0.9-0.2,1.2-0.5c0.3-0.3,0.5-0.7,0.5-1.2c0-0.6-0.2-1.2-0.5-1.6C228.9,161.2,228.5,161,228,161z"
			/>
		<path class="st10" d="M247.5,162.7c0,1.7-0.5,3.1-1.5,4c-1,0.9-2.5,1.4-4.4,1.4h-1.2v5.1h-4.2v-15.5h5.4c2,0,3.4,0.4,4.4,1.3
			C247,159.9,247.5,161.1,247.5,162.7z M240.5,164.7h0.8c0.6,0,1.1-0.2,1.5-0.5c0.4-0.4,0.6-0.8,0.6-1.5c0-1-0.6-1.6-1.7-1.6h-1.1
			V164.7z"/>
		<path class="st10" d="M256.8,173.3l-3.2-11.2h-0.1c0.1,1.9,0.2,3.4,0.2,4.4v6.7H250v-15.5h5.6l3.2,11h0.1l3.2-11h5.6v15.5h-3.9
			v-6.8c0-0.4,0-0.7,0-1.2c0-0.4,0.1-1.5,0.1-3.2h-0.1l-3.1,11.2H256.8z"/>
		<path class="st10" d="M168.7,196.9h-5.5l-5.7-10.9h-0.1c0.1,1.7,0.2,3,0.2,3.9v7h-3.7v-15.5h5.5l5.6,10.8h0.1
			c-0.1-1.6-0.1-2.8-0.1-3.8v-7h3.7V196.9z"/>
		<path class="st10" d="M181.2,196.9H172v-15.5h9.2v3.4h-5v2.4h4.6v3.4h-4.6v2.9h5V196.9z"/>
		<path class="st10" d="M200.7,196.9h-5l-1.5-6.8c-0.1-0.3-0.2-0.8-0.3-1.7c-0.2-0.8-0.3-1.5-0.3-2.1c-0.1,0.5-0.1,1-0.3,1.7
			c-0.1,0.7-0.3,1.3-0.4,1.9c-0.1,0.6-0.6,2.9-1.5,7h-5l-3.8-15.5h4l1.7,7.8c0.4,1.7,0.6,3.1,0.8,4.1c0.1-0.7,0.3-1.7,0.5-2.9
			c0.2-1.2,0.5-2.3,0.7-3.1l1.4-5.9h3.9l1.3,5.9c0.2,0.9,0.5,2,0.7,3.3c0.2,1.2,0.4,2.2,0.5,2.8c0.1-0.8,0.3-2.1,0.8-4.1l1.7-7.8h4
			L200.7,196.9z"/>
		<path class="st10" d="M217.7,187.1l2.7-5.8h4.5l-5.1,9.5v6.1h-4.2v-5.9l-5.1-9.6h4.6L217.7,187.1z"/>
		<path class="st10" d="M241.1,189.1c0,2.6-0.6,4.6-1.9,6c-1.3,1.4-3.2,2-5.6,2c-2.4,0-4.3-0.7-5.6-2c-1.3-1.4-1.9-3.4-1.9-6
			c0-2.6,0.6-4.6,1.9-5.9c1.3-1.4,3.2-2,5.6-2c2.5,0,4.3,0.7,5.6,2C240.5,184.5,241.1,186.5,241.1,189.1z M230.5,189.1
			c0,3,1,4.5,3.1,4.5c1.1,0,1.8-0.4,2.4-1.1c0.5-0.7,0.8-1.9,0.8-3.4c0-1.5-0.3-2.7-0.8-3.4s-1.3-1.1-2.3-1.1
			C231.5,184.5,230.5,186.1,230.5,189.1z"/>
		<path class="st10" d="M248.1,191.2v5.6h-4.2v-15.5h5.1c4.2,0,6.3,1.5,6.3,4.6c0,1.8-0.9,3.2-2.6,4.2l4.5,6.8h-4.8l-3.3-5.6H248.1z
			 M248.1,188.1h0.8c1.5,0,2.2-0.6,2.2-1.9c0-1.1-0.7-1.6-2.2-1.6h-0.8V188.1z"/>
		<path class="st10" d="M271.9,196.9h-4.7l-3.1-5.9l-1.2,0.7v5.2h-4.2v-15.5h4.2v6.7c0.2-0.4,0.6-1.1,1.3-2l3.3-4.8h4.6l-4.9,7
			L271.9,196.9z"/>
		<path class="st10" d="M286.1,184.6c-1,0-1.8,0.4-2.3,1.2c-0.6,0.8-0.8,1.9-0.8,3.4c0,3,1.1,4.5,3.4,4.5c0.7,0,1.4-0.1,2-0.3
			c0.6-0.2,1.3-0.4,1.9-0.7v3.5c-1.3,0.6-2.8,0.9-4.4,0.9c-2.3,0-4.1-0.7-5.4-2c-1.2-1.4-1.9-3.3-1.9-5.9c0-1.6,0.3-3,0.9-4.2
			c0.6-1.2,1.5-2.2,2.6-2.8s2.5-1,4-1c1.7,0,3.3,0.4,4.8,1.1l-1.3,3.3c-0.6-0.3-1.1-0.5-1.7-0.7
			C287.4,184.7,286.8,184.6,286.1,184.6z"/>
		<path class="st10" d="M293.3,196.9v-15.5h4.2v15.5H293.3z"/>
		<path class="st10" d="M307.7,196.9h-4.2v-12.1h-3.8v-3.4h11.8v3.4h-3.8V196.9z"/>
		<path class="st10" d="M319.2,187.1l2.7-5.8h4.5l-5.1,9.5v6.1h-4.2v-5.9l-5.1-9.6h4.6L319.2,187.1z"/>
		<path class="st10" d="M156.2,210.4h-1.6v-6.3h-2.1v-1.4h5.8v1.4h-2.1V210.4z"/>
		<path class="st10" d="M159.4,210.4v-7.7h1.6v7.7H159.4z"/>
		<path class="st10" d="M163,202.8h2.4c1.1,0,1.9,0.2,2.4,0.5s0.7,0.8,0.7,1.5c0,0.5-0.1,0.8-0.3,1.1c-0.2,0.3-0.5,0.5-0.9,0.5v0.1
			c0.5,0.1,0.8,0.3,1.1,0.6c0.2,0.3,0.3,0.7,0.3,1.2c0,0.7-0.3,1.2-0.8,1.6s-1.2,0.6-2.1,0.6H163V202.8z M164.6,205.8h0.9
			c0.4,0,0.8-0.1,1-0.2c0.2-0.1,0.3-0.4,0.3-0.7c0-0.3-0.1-0.5-0.3-0.6c-0.2-0.1-0.6-0.2-1-0.2h-0.9V205.8z M164.6,207.1v2h1.1
			c0.4,0,0.8-0.1,1-0.3c0.2-0.2,0.3-0.4,0.3-0.8c0-0.6-0.5-1-1.4-1H164.6z"/>
		<path class="st10" d="M174.6,210.4h-4.4v-7.7h4.4v1.3h-2.8v1.7h2.6v1.3h-2.6v2h2.8V210.4z"/>
		<path class="st10" d="M179.2,210.4h-1.6v-6.3h-2.1v-1.4h5.8v1.4h-2.1V210.4z"/>
		<path class="st10" d="M191.5,210.4h-1.6v-3.3h-3v3.3h-1.6v-7.7h1.6v3h3v-3h1.6V210.4z"/>
		<path class="st10" d="M200.4,206.6c0,1.3-0.3,2.2-0.9,2.9s-1.5,1-2.7,1s-2.1-0.3-2.7-1c-0.6-0.7-0.9-1.7-0.9-2.9s0.3-2.3,0.9-2.9
			c0.6-0.7,1.5-1,2.7-1s2.1,0.3,2.7,1C200.1,204.3,200.4,205.3,200.4,206.6z M194.8,206.6c0,0.9,0.2,1.5,0.5,1.9s0.8,0.7,1.5,0.7
			c1.3,0,1.9-0.9,1.9-2.6c0-1.7-0.6-2.6-1.9-2.6c-0.6,0-1.1,0.2-1.5,0.7S194.8,205.7,194.8,206.6z"/>
		<path class="st10" d="M208.2,202.8v5c0,0.6-0.1,1.1-0.4,1.5s-0.6,0.8-1.1,1c-0.5,0.2-1,0.3-1.7,0.3c-1,0-1.8-0.3-2.3-0.8
			c-0.5-0.5-0.8-1.2-0.8-2.1v-4.9h1.6v4.7c0,0.6,0.1,1,0.4,1.3s0.6,0.4,1.2,0.4c0.5,0,0.9-0.1,1.2-0.4c0.2-0.3,0.4-0.7,0.4-1.3v-4.7
			H208.2z"/>
		<path class="st10" d="M214.6,208.3c0,0.7-0.2,1.2-0.7,1.6s-1.2,0.6-2.1,0.6c-0.8,0-1.5-0.2-2.2-0.5v-1.5c0.5,0.2,1,0.4,1.3,0.5
			c0.4,0.1,0.7,0.1,1,0.1c0.4,0,0.6-0.1,0.8-0.2c0.2-0.1,0.3-0.3,0.3-0.6c0-0.2,0-0.3-0.1-0.4c-0.1-0.1-0.2-0.2-0.4-0.3
			s-0.5-0.3-1-0.5c-0.5-0.2-0.8-0.4-1.1-0.6c-0.2-0.2-0.4-0.4-0.6-0.7c-0.1-0.3-0.2-0.6-0.2-0.9c0-0.7,0.2-1.2,0.7-1.6
			c0.5-0.4,1.1-0.6,1.9-0.6c0.4,0,0.8,0,1.1,0.1c0.4,0.1,0.7,0.2,1.1,0.4l-0.5,1.3c-0.4-0.2-0.7-0.3-1-0.4s-0.5-0.1-0.8-0.1
			c-0.3,0-0.5,0.1-0.7,0.2c-0.2,0.1-0.2,0.3-0.2,0.6c0,0.1,0,0.3,0.1,0.4s0.2,0.2,0.3,0.3c0.1,0.1,0.5,0.3,1,0.5
			c0.7,0.3,1.2,0.7,1.5,1C214.5,207.4,214.6,207.8,214.6,208.3z"/>
		<path class="st10" d="M220.4,210.4H216v-7.7h4.4v1.3h-2.8v1.7h2.6v1.3h-2.6v2h2.8V210.4z"/>
		<path class="st10" d="M223.5,209.3c-0.2,0.7-0.5,1.5-0.9,2.5h-1.2c0.2-0.9,0.4-1.8,0.5-2.6h1.5L223.5,209.3z"/>
		<path class="st10" d="M232.8,210.4h-5.4v-1.1l1.9-1.9c0.6-0.6,0.9-1,1.1-1.2s0.3-0.4,0.4-0.6c0.1-0.2,0.1-0.4,0.1-0.6
			c0-0.3-0.1-0.5-0.3-0.7s-0.4-0.2-0.7-0.2c-0.3,0-0.6,0.1-0.9,0.2c-0.3,0.1-0.6,0.3-0.9,0.6l-0.9-1c0.4-0.3,0.7-0.5,0.9-0.7
			c0.2-0.1,0.5-0.2,0.8-0.3c0.3-0.1,0.6-0.1,1-0.1c0.5,0,0.9,0.1,1.3,0.3c0.4,0.2,0.7,0.4,0.9,0.7c0.2,0.3,0.3,0.7,0.3,1.1
			c0,0.4-0.1,0.7-0.2,1s-0.3,0.6-0.6,1c-0.3,0.3-0.7,0.8-1.4,1.4l-1,0.9v0.1h3.3V210.4z"/>
		<path class="st10" d="M238.9,210.4h-5.4v-1.1l1.9-1.9c0.6-0.6,0.9-1,1.1-1.2s0.3-0.4,0.4-0.6c0.1-0.2,0.1-0.4,0.1-0.6
			c0-0.3-0.1-0.5-0.3-0.7s-0.4-0.2-0.7-0.2c-0.3,0-0.6,0.1-0.9,0.2c-0.3,0.1-0.6,0.3-0.9,0.6l-0.9-1c0.4-0.3,0.7-0.5,0.9-0.7
			c0.2-0.1,0.5-0.2,0.8-0.3c0.3-0.1,0.6-0.1,1-0.1c0.5,0,0.9,0.1,1.3,0.3c0.4,0.2,0.7,0.4,0.9,0.7c0.2,0.3,0.3,0.7,0.3,1.1
			c0,0.4-0.1,0.7-0.2,1s-0.3,0.6-0.6,1c-0.3,0.3-0.7,0.8-1.4,1.4l-1,0.9v0.1h3.3V210.4z"/>
		<path class="st10" d="M247.7,210.4h-1.9l-1-4c0-0.1-0.1-0.4-0.2-0.9s-0.1-0.8-0.2-0.9c0,0.2-0.1,0.5-0.2,0.9
			c-0.1,0.4-0.1,0.7-0.2,0.9l-1,4h-1.8l-2-7.7h1.6l1,4.2c0.2,0.8,0.3,1.4,0.4,2c0-0.2,0.1-0.5,0.1-0.9s0.1-0.7,0.2-1l1.1-4.3h1.5
			l1.1,4.3c0,0.2,0.1,0.5,0.2,0.9c0.1,0.4,0.1,0.7,0.2,1c0-0.3,0.1-0.6,0.2-1c0.1-0.4,0.1-0.7,0.2-1l1-4.2h1.6L247.7,210.4z"/>
		<path class="st10" d="M256.8,210.4h-1.6V206l0-0.7l0-0.8c-0.3,0.3-0.5,0.4-0.6,0.5l-0.9,0.7l-0.8-1l2.5-2h1.3V210.4z"/>
		<path class="st10" d="M261.8,205.5c0.7,0,1.3,0.2,1.8,0.6c0.4,0.4,0.7,1,0.7,1.7c0,0.9-0.3,1.5-0.8,2c-0.5,0.5-1.3,0.7-2.3,0.7
			c-0.9,0-1.5-0.1-2.1-0.4v-1.4c0.3,0.1,0.6,0.3,1,0.4c0.4,0.1,0.7,0.1,1,0.1c1,0,1.5-0.4,1.5-1.2c0-0.8-0.5-1.2-1.5-1.2
			c-0.2,0-0.4,0-0.6,0.1c-0.2,0-0.4,0.1-0.5,0.1l-0.6-0.3l0.3-3.9h4.2v1.4h-2.7l-0.1,1.5l0.2,0C261.2,205.6,261.4,205.5,261.8,205.5
			z"/>
		<path class="st10" d="M267,206.9H266v-3.7h-1.2v-0.8h3.4v0.8H267V206.9z"/>
		<path class="st10" d="M272.5,206.9h-0.9v-1.9h-1.8v1.9h-0.9v-4.5h0.9v1.8h1.8v-1.8h0.9V206.9z"/>
		<path class="st10" d="M281.4,208.3c0,0.7-0.2,1.2-0.7,1.6s-1.2,0.6-2.1,0.6c-0.8,0-1.5-0.2-2.2-0.5v-1.5c0.5,0.2,1,0.4,1.3,0.5
			c0.4,0.1,0.7,0.1,1,0.1c0.4,0,0.6-0.1,0.8-0.2c0.2-0.1,0.3-0.3,0.3-0.6c0-0.2,0-0.3-0.1-0.4c-0.1-0.1-0.2-0.2-0.4-0.3
			s-0.5-0.3-1-0.5c-0.5-0.2-0.8-0.4-1.1-0.6c-0.2-0.2-0.4-0.4-0.6-0.7c-0.1-0.3-0.2-0.6-0.2-0.9c0-0.7,0.2-1.2,0.7-1.6
			c0.5-0.4,1.1-0.6,1.9-0.6c0.4,0,0.8,0,1.1,0.1c0.4,0.1,0.7,0.2,1.1,0.4l-0.5,1.3c-0.4-0.2-0.7-0.3-1-0.4s-0.5-0.1-0.8-0.1
			c-0.3,0-0.5,0.1-0.7,0.2c-0.2,0.1-0.2,0.3-0.2,0.6c0,0.1,0,0.3,0.1,0.4s0.2,0.2,0.3,0.3c0.1,0.1,0.5,0.3,1,0.5
			c0.7,0.3,1.2,0.7,1.5,1C281.2,207.4,281.4,207.8,281.4,208.3z"/>
		<path class="st10" d="M285.7,210.4h-1.6v-6.3H282v-1.4h5.8v1.4h-2.1V210.4z"/>
		<path class="st10" d="M288.6,209.7c0-0.3,0.1-0.5,0.2-0.7s0.4-0.2,0.7-0.2c0.3,0,0.5,0.1,0.7,0.2c0.2,0.2,0.2,0.4,0.2,0.7
			c0,0.3-0.1,0.5-0.2,0.7c-0.2,0.2-0.4,0.2-0.7,0.2c-0.3,0-0.5-0.1-0.7-0.2C288.7,210.2,288.6,210,288.6,209.7z"/>
		<path class="st10" d="M301.6,210.4h-2.1l-3.3-5.8h0c0.1,1,0.1,1.8,0.1,2.2v3.6h-1.5v-7.7h2.1l3.3,5.7h0c-0.1-1-0.1-1.7-0.1-2.1
			v-3.6h1.5V210.4z"/>
		<path class="st10" d="M305.9,205.9l1.6-3.2h1.8l-2.5,4.7v3h-1.6v-2.9l-2.5-4.7h1.8L305.9,205.9z"/>
	</g>
</g>
</svg>
