<?xml version="1.0" encoding="utf-8"?>
<!-- Generator: Adobe Illustrator 23.0.6, SVG Export Plug-In . SVG Version: 6.00 Build 0)  -->
<svg version="1.1" id="Layer_1" xmlns="http://www.w3.org/2000/svg" xmlns:xlink="http://www.w3.org/1999/xlink" x="0px" y="0px"
	 viewBox="0 0 376.5 233.7" style="enable-background:new 0 0 376.5 233.7;" xml:space="preserve">
<style type="text/css">
	.st0{clip-path:url(#SVGID_2_);}
	.st1{clip-path:url(#SVGID_4_);}
	.st2{opacity:0.3;}
	.st3{clip-path:url(#SVGID_6_);}
	.st4{fill:#FFFFFF;}
	.st5{fill:#F299C1;}
	.st6{fill:#6ECEF5;}
	.st7{fill:#FDF49B;}
	.st8{fill:#846F2C;}
	.st9{clip-path:url(#SVGID_8_);fill:#FFFFFF;}
	.st10{clip-path:url(#SVGID_8_);fill:#F299C1;}
	.st11{clip-path:url(#SVGID_8_);fill:#6ECEF5;}
	.st12{clip-path:url(#SVGID_8_);fill:#FDF49B;}
	.st13{clip-path:url(#SVGID_10_);fill:#FFFFFF;}
	.st14{clip-path:url(#SVGID_10_);fill:#F299C1;}
	.st15{clip-path:url(#SVGID_10_);fill:#6ECEF5;}
	.st16{clip-path:url(#SVGID_10_);fill:#FDF49B;}
	.st17{clip-path:url(#SVGID_12_);}
	.st18{fill:none;stroke:#000000;stroke-width:4;stroke-miterlimit:10;}
	.st19{clip-path:url(#SVGID_14_);}
	.st20{clip-path:url(#SVGID_16_);fill:#FFFFFF;}
	.st21{clip-path:url(#SVGID_16_);fill:#F299C1;}
	.st22{clip-path:url(#SVGID_16_);fill:#6ECEF5;}
	.st23{clip-path:url(#SVGID_16_);fill:#FDF49B;}
	.st24{clip-path:url(#SVGID_18_);fill:#FFFFFF;}
	.st25{clip-path:url(#SVGID_18_);fill:#F299C1;}
	.st26{clip-path:url(#SVGID_18_);fill:#6ECEF5;}
	.st27{clip-path:url(#SVGID_18_);fill:#FDF49B;}
	.st28{clip-path:url(#SVGID_18_);}
	.st29{fill:#7D644D;}
	.st30{fill:#4890A6;}
	.st31{clip-path:url(#SVGID_20_);}
	.st32{clip-path:url(#SVGID_22_);fill:#FFFFFF;}
	.st33{clip-path:url(#SVGID_22_);fill:#F299C1;}
	.st34{clip-path:url(#SVGID_22_);fill:#6ECEF5;}
	.st35{clip-path:url(#SVGID_22_);fill:#FDF49B;}
	.st36{opacity:0.92;fill:url(#SVGID_23_);}
	.st37{fill:#231F20;}
	.st38{fill:none;stroke:#FFFFFF;stroke-width:0.275;stroke-miterlimit:10;}
	.st39{opacity:0.92;fill:url(#SVGID_24_);}
	.st40{fill:url(#SVGID_25_);}
	.st41{opacity:0.92;fill:url(#SVGID_26_);}
	.st42{opacity:0.92;fill:url(#SVGID_27_);}
	.st43{opacity:0.92;fill:url(#SVGID_28_);}
	.st44{opacity:0.92;fill:url(#SVGID_29_);}
	.st45{opacity:0.92;fill:url(#SVGID_30_);}
	.st46{opacity:0.92;fill:url(#SVGID_31_);}
	.st47{fill:#EEEDEE;}
	.st48{opacity:0.92;fill:url(#SVGID_32_);}
	.st49{opacity:0.92;fill:url(#SVGID_33_);}
	.st50{clip-path:url(#SVGID_35_);}
	.st51{opacity:0.92;fill:url(#SVGID_36_);}
	.st52{opacity:0.92;fill:url(#SVGID_37_);}
	.st53{opacity:0.92;fill:url(#SVGID_38_);}
	.st54{opacity:0.92;fill:url(#SVGID_39_);}
	.st55{opacity:0.92;fill:url(#SVGID_40_);}
</style>
<g>
	<defs>
		<rect id="SVGID_3_" x="-395.4" y="-1023.8" width="723" height="786.3"/>
	</defs>
	<clipPath id="SVGID_2_">
		<use xlink:href="#SVGID_3_"  style="overflow:visible;"/>
	</clipPath>
	<g id="fP5HP7_3_" class="st0">
		
			<image style="overflow:visible;" width="2205" height="2972" id="fP5HP7_4_" xlink:href="948CC9619054C061.png"  transform="matrix(0.3913 0 0 0.3913 -470.6003 -1060.9163)">
		</image>
	</g>
</g>
<g>
	<g>
		<defs>
			<rect id="SVGID_17_" width="376.5" height="233.7"/>
		</defs>
		<clipPath id="SVGID_4_">
			<use xlink:href="#SVGID_17_"  style="overflow:visible;"/>
		</clipPath>
		<path style="clip-path:url(#SVGID_4_);fill:#FFFFFF;" d="M76.8,124.5c0-2.5-1.5-3.8-5.2-3.8h-5.2v7.6h5.1
			C75.1,128.3,76.8,126.9,76.8,124.5z"/>
		<path style="clip-path:url(#SVGID_4_);fill:#FFFFFF;" d="M71.7,133.2h-5.3v8.3H72c3.8,0,5.5-1.5,5.5-4.2
			C77.5,134.5,75.5,133.2,71.7,133.2z"/>
		<polygon style="clip-path:url(#SVGID_4_);fill:#F299C1;" points="94.3,70.7 86.3,56.9 78.4,70.7 		"/>
		<polygon style="clip-path:url(#SVGID_4_);fill:#6ECEF5;" points="68.9,56.9 60.9,70.7 76.8,70.7 		"/>
		<path style="clip-path:url(#SVGID_4_);fill:#FFFFFF;" d="M50.7,92.1h-2.7v5h2.7c2.3,0,3.4-0.7,3.4-2.5
			C54.1,92.8,53,92.1,50.7,92.1z"/>
		<polygon style="clip-path:url(#SVGID_4_);fill:#FDF49B;" points="77.6,41.8 69.6,55.6 85.6,55.6 		"/>
		<path style="clip-path:url(#SVGID_4_);fill:#FFFFFF;" d="M126.1,94.6c0-1.8-1.1-2.5-3.4-2.5h-2.7v5h2.7
			C125,97.1,126.1,96.4,126.1,94.6z"/>
		<polygon style="clip-path:url(#SVGID_4_);fill:#FFFFFF;" points="33.2,93.9 33.2,93.9 31,100.1 35.3,100.1 		"/>
		<path style="clip-path:url(#SVGID_4_);fill:#FFFFFF;" d="M99.9,97.9c0,3.8,1.8,6.2,4.6,6.2c2.8,0,4.6-2.4,4.6-6.2
			c0-3.8-1.8-6.1-4.6-6.1C101.7,91.8,99.9,94.1,99.9,97.9z"/>
		<path style="clip-path:url(#SVGID_4_);fill:#FFFFFF;" d="M-181-25.4v263.9h651.2V-25.4H-181z M116,88.8h6.9c4.5,0,7.2,1.6,7.2,5.6
			c0,2.9-1.4,4.5-3.8,5.2l4.1,7.4h-4.2l-3.8-6.9h-2.3v6.9H116V88.8z M113.1,97.9c0,6.4-4.2,9.5-8.6,9.5c-4.4,0-8.6-3.1-8.6-9.5
			c0-6.4,4.2-9.5,8.6-9.5C108.9,88.5,113.1,91.5,113.1,97.9z M31.4,88.8h3.8l6.5,18.3h-4.1l-1.4-4.1H30l-1.4,4.1h-3.7L31.4,88.8z
			 M15.9,115.4h25.6v5.8h-9.4v25.6h-6.9v-25.6h-9.3V115.4z M28,161.3c-0.1-0.2-0.1-0.4-0.1-0.7c-0.5,0.5-1.1,0.7-1.8,0.7
			c-0.8,0-1.3-0.4-1.3-1.2c0-0.9,0.8-1.6,3.1-1.9V158c0-0.6-0.3-0.9-0.9-0.9c-0.7,0-1.2,0.3-1.7,0.7l-0.3-0.4
			c0.6-0.5,1.2-0.9,2.1-0.9c1,0,1.5,0.6,1.5,1.5v2.1c0,0.6,0,0.9,0.1,1.1H28z M32.4,157.1c0,0-0.2,0-0.2,0c-0.8,0-1.3,0.4-1.7,1.1v3
			h-0.6v-4.6h0.6v0.9h0c0.4-0.6,0.9-1,1.8-1h0.1L32.4,157.1z M35.7,161.3c-0.1,0-0.4,0.1-0.6,0.1c-0.9,0-1.2-0.3-1.2-1.1v-3h-0.8
			v-0.5h0.8V155h0.6v1.7h1.2v0.5h-1.2v2.9c0,0.5,0.2,0.8,0.7,0.8c0.2,0,0.4,0,0.5-0.1V161.3z M41.8,159.5h-1.7v-1.7h1.7V159.5z
			 M43.3,69c0-0.1,0-0.3,0.1-0.4c0.1-0.2,0.2-0.2,0.2-0.2s0.1-0.1,0,0.1c0,0.2,0.1,0.7,0.6,0.5c0.4-0.2,0.8-0.2,0.8-0.2
			c0.5,0,0.9,0.2,1.1,0.5c0,0,0,0,0,0.1c0.2,0.3,0.4,0.6,0.6,0.7c0.8,0.4,1.3,0.1,1.3-0.3c0-0.3-0.1-0.6-0.6-0.6
			c-0.2,0-0.3,0.1-0.4,0.2c-0.1,0-0.2,0-0.1-0.1c0.1-0.1,1.8-1.5,2.2,0.2c0.1,0.4,0.3,0.8,0.5,1c0.7,0.7,2.2,0.6,2.6-0.7
			c0.2-0.7-0.2-1.5-1-1.8c-1.6-0.7-3.9-0.4-4.9-0.7c-2.1-0.7-0.8-2.5-0.8-2.5c0-0.1,0.2-0.1,0.2,0.1c0,0-0.1,0.4-0.1,0.4
			c-0.1,0.5,0.4,1,1,1.1c0.6,0.1,1.3-0.3,1.3-0.7c0.1-0.4-0.1-1-0.7-1.1c-0.6-0.1-1-0.4-1.4-0.8c-0.8-1.1-0.4-2.2-0.4-2.2
			s-1.3-0.9-1.1-2c0.2-1.2,1.1-1,1.1-1s0,0,0,0c0,0-0.1,0-0.1,0.1c-0.1,0.1-0.2,0.2-0.2,0.3c-0.2,0.5,0,1,0.4,1.2
			c0.4,0.2,1,0,1.2-0.4c0-0.1,0.4-0.8-0.3-1.4c-0.1-0.1-0.2-0.2-0.3-0.2c-0.1-0.1-0.2-0.2-0.2-0.3c-0.2-0.2-0.3-0.5-0.3-0.8
			c0-0.2,0-0.3,0.1-0.5c0.2-0.6,0.7-1,1.3-1.1c0.3-0.1,0.6-0.1,0.7-0.3c0.2-0.2,0.4-0.4,0.4-0.7c0-0.4-0.3-0.7-0.8-0.9
			c0,0-0.1,0,0.1,0c0.3,0,1,0,1.4,1c0.2,0.5-0.1,1-0.4,1.4c-0.4,0.6-1,1.2-0.2,1.9c0.1,0.1,0.2,0.2,0.4,0.2c0.6,0.2,1.3-0.2,1.1-0.8
			c-0.1-0.4-0.3-0.5-0.5-0.5c-0.1,0-0.1,0-0.1,0c0.3-0.1,1.6-0.1,1.9,2.2c0.3,2,0.9,2.8,2.5,2.7c1.4-0.1,1.9-1.7,1.7-2.9
			c-0.2-1.1-1.4-1.7-2.4-2.3c0,0,0,0,0,0c-0.2-0.1-0.4-0.2-0.5-0.3c0,0,0,0,0,0c-0.8-0.6-1.3-1.5-1.3-2.6c0-0.2,0-0.4,0.1-0.6
			c0,0,0,0,0-0.1c0-0.2,0.1-0.4,0.2-0.5c0,0,0-0.1,0-0.1c0-0.1,0.1-0.1,0.1-0.2c0-0.1,0.1-0.1,0.1-0.1s0,0,0,0c0,0,0-0.1-0.1-0.2
			c-0.1-0.1-0.2-0.4-0.3-0.6C51.1,51,51,50.7,51,50.4c0-1.1,0.8-2,1.9-2.1c0,0,0,0,0,0.1c-0.3,0.2-0.7,1.3,0.5,2
			c0.3,0.2,0.6,0.2,1,0c0.1,0,0.3-0.1,0.4-0.1h0c0.2-0.1,0.4-0.2,0.5-0.4c0.5-0.7,0-1.8-1.2-2.7c-0.1-0.1-0.5-0.4-0.6-0.5
			c-0.4-0.5-0.7-1.1-0.7-1.8c0.1-1.8,1.3-2.3,1.5-2.4c0.6-0.3,1.4-0.8,1.4-1.4c0.1-1.1-1-1.5-1-1.5s-0.1,0,0-0.1
			c0.3,0,2.2-0.1,2.8,0.9c1,1.4,0,2.6-0.2,2.8c-0.7,0.8-1.7,1.5-1.1,2.2c0.7,0.8,1.6,0.4,1.7-0.3c0.1-0.7-0.6-1-0.8-1
			c-0.1,0,0-0.1,0-0.1s0.3-0.1,0.7-0.1c0.6,0,1.3,0.2,1.6,1.2c0.4,1.3-1.7,4,1,4.3c1.6,0.1,3-2.2,1.1-4.6c-1.1-1.5-1.8-2.6-1.7-4.2
			c0.1-1.6,0.5-1.1,0.2-2.1c-0.2-1-1.5-1.6-1-3.2c0.5-1.5,1.4-1.5,1.6-1.5c0,0,0,0.1,0,0.1s-0.7,2.3,0.9,1.6c0.9-0.3,0-2,0-3.3
			c0-1.3,1.2-1.1,1.8-2.4c0.3-0.7-0.9-1.4-1.1-1.6c-0.1-0.1,0.1-0.2,0.1-0.2s1.5-0.1,2.2,0.9c0.6,0.8,0.5,1.9,0.1,2.7
			c-0.4,0.9-1.3,1-0.9,2.2c0.3,0.8,1.1,0.8,1.3,0.7c0.6-0.2,1.8-0.6,3-0.1c1.2,0.6,1.9,2,1.9,2.7c0,0.1,0,0.1-0.1,0.1
			c0-0.1-0.7-1.3-2.2-1.5c-2.9-0.3-3.4,4.7-0.2,5.2c2.6,0.4,3.7-1.2,3.8-2.6c0.1-0.8,0-2.2-1.5-3.5c-1.8-1.6-2.9-3-2.9-4.8
			c0.1-2,0.8-2.1,0.8-2.1s0.1,0,0,0.2c-0.1,0.3,0,1.1,0.2,1.7c0.1,0.3,0.5,0.8,1.3,0.9c0.7,0,1.3-0.6,1.3-1.3c0-0.6-0.6-1.2-1.2-1.5
			c0,0-1.5-0.5-1.9-1.5c-0.9-1.9,0.2-3.5,2-3.9c0.1,0,0.1,0,0.1,0c-0.1,0-0.8,0.6-1,1.2c-0.2,0.6-0.2,1.3,0.8,1.7
			c1.3,0.6,2.8-0.7,3.2,1c0.1,0.5,0.2,0.5,0.4,1c0.3,0.8,0.8,1.3,1.7,1.2c1.2-0.2,2.3-2.3-0.2-3.4c-0.9-0.4-1.9-0.3-2.6-1.6
			c-0.7-1.2-0.6-2.3-0.4-3.2c0.3-1,0.7-1.4,1-1.5c0.7-0.4,1-0.2,1-0.2s0.1,0,0,0.1c-0.4,0.3-0.5,2,0.8,1.9c0.9-0.1,0.9-0.8,0.5-1.9
			C75,18.4,75,18.1,75,17.8c0.1-0.6,0.4-1,0.9-1.3c0.1-0.1,0.3-0.1,0.6-0.2c0.2,0,0.5-0.1,0.7-0.5c0.4-1-0.9-1.5-0.7-1.8
			c0.2-0.3,2.4,0.6,1.9,2.9c-0.1,0.3-0.1,0.5-0.2,0.7c-0.2,0.8-0.5,1.3-0.6,1.7c0,0.2,0,0.3,0.1,0.5c0.2,0.4,0.4,0.5,0.6,0.5
			c0.5,0.1,1.3-0.3,1.3-1.3c0-0.6-0.4-1.3,0.4-0.8c0.9,0.5,2.2,1.8,1.3,3.7c-0.3,0.6-0.7,0.8-1.2,1c-0.4,0.2-0.6,0.6-0.6,1.1
			c0,0.7,0.5,1.2,1.2,1.2c0.5,0,1.5-0.4,1.3-1.9c0-0.1-0.1-0.2-0.1-0.3c-0.2-0.2,0.1-0.1,0.1-0.1c0.3,0.1,2.9,1.4,1.1,4
			c-1.4,2.1-2.3,4-0.9,4.8c1.3,0.8,2.8-0.3,2.4-1.7c-0.1-0.5-1.2-0.8-1-2.3c0.2-1.4,1.2-1.1,1.2-1.1s0.1,0.1-0.1,0.2
			c-0.4,0.4-0.3,1.9,1,1.6c1-0.2,0.5-1.4,0-2.3c-0.5-0.9-0.8-2,0.1-2.9c0.7-0.7,1.4-0.4,1.4-0.3c0,0,0,0.1-0.1,0
			c-0.2,0-0.5,0.2-0.6,0.4c-0.2,0.2-0.2,0.5-0.2,0.8c0.1,0.3,0.4,0.6,0.9,0.8c0.5,0.2,0.8,0.7,0.8,1.3c0,0.5-0.2,0.6-0.5,1
			c-0.3,0.4-0.2,0.9,0.4,1.6c0.8,0.8,1.3,1.5,1.2,2.8c-0.2,1.5-1.6,2.3-2.2,2.9c-1.2,1.4-1.7,2.8-0.8,4.6c0.8,1.6,3.3,2.4,4.9,0.4
			c0.8-1,1.2-4-1.9-3.7c-1.2,0.1-1.6,1.2-1.6,1.6c0,0.1,0,0.1-0.1,0c-0.1-0.2-0.1-0.4-0.1-0.6c0-0.4,0.3-1.6,1.4-2.1
			c1.3-0.6,1.1-0.4,1.2-1.4c0.1-0.6,0.2-0.9,0.6-1c0.9-0.2,0,0.1,0.2,1c0.1,0.8,0.8,0.9,1.1,0.3c0.9-1.6-1.3-2.7-0.5-4.3
			c0.4-0.9,1.7-1.1,1.7-1.1s0.3,0,0,0.1c-0.3,0.2-0.8,0.8-0.7,1.4c0.2,1.3,1.8,1.3,1.8,2.8c0,1.6-1.5,2.7-0.8,3.5
			c0.4,0.4,0.9,0.3,1.2-0.1c0.2-0.3,0.3-0.7,0.1-0.9c-0.2-0.2,1.3,0.2,1.2,2c0,1.1-0.4,1.4-0.5,1.6c0,0,0,0,0,0c0,0.1-0.1,0.2,0,0.3
			c0.4,0.4,1.1-0.3,1.3-0.6c0.4-0.7,0.1-1.2,0.1-1.3c0-0.2,0.9,0.1,0.9,1.6c0,1.8-2.5,3.1-3.8,4.8c-1.5,2.1-1.5,6.2,1.1,5.9
			c1.1-0.1-0.4-1.5,0.9-3c1-1.1,1.9-0.4,1.9-0.4c0.1,0,0,0.1-0.2,0.2c-0.5,0.1-0.6,0.6-0.5,1c0.1,0.5,0.5,0.9,0.9,0.9
			c0.4,0,0.8-0.1,1-0.6c0.2-0.5,0-1.3-0.2-1.9c-0.2-0.6-1.5-2.5-0.9-3.9c0.7-1.4,1.8-1.7,2.6-1.5c0.3,0.1-1.2,0.4-1.2,1.7
			c0,1.2,3,2.3,3,4.7c0,1.7-0.6,2.4-1.6,3.2c-1.5,1.2-0.7,2.3,0.4,2.2c1.5,0,1.2-1.8,0.8-2.2c-0.3-0.3,2,0.1,2,1.8
			c0,1.5-0.6,1.8-0.6,1.8s0.6,1.2-0.2,2.6c-1,2-4,2.2-2.7,4.8c0.5,1.1,2.7,1.9,3.5-1.1c0.2-0.8,0-1.3,0.7-1.6
			c0.8-0.4,1.3,0.3,1.1,0.2c-0.5-0.1-0.8,0.3-0.8,0.8c0,0.3,0.2,0.6,0.5,0.7c0.1,0,0.3,0.1,0.5,0c0.9-0.3,0.6-1.1,0.5-1.5
			c-0.4-1.2-0.6-2.4,0.1-3.3c0.7-0.9,1.8-1.1,2-0.8c0,0,0,0-0.1,0c-0.3,0-1.4,0.3-0.7,1.9c0.3,0.7,1.8,1.6,1.2,2.6
			c-0.4,0.6-0.9,1.3-1,1.5c-0.1,0.2-0.1,0.3-0.1,0.6c0,0.5,0.4,0.9,0.8,0.9c0.4,0,0.8-0.4,0.8-0.9c0-0.2,0-0.3-0.1-0.5
			c0-0.1-0.1-0.1-0.1-0.2c-0.4-0.6,0.9-0.1,1.1,1.1c0.2,1.2-0.9,2.2-0.9,2.2s0.6,1.2-0.5,2.4c-1,1.2-2.9,0.8-4.7,1.8
			c-1,0.6-1.2,2.2-0.1,2.8c0,0,0,0,0,0c0.4,0.2,0.9,0.3,1.4,0.1c0.5-0.1,0.9-0.4,1.2-0.8c0,0,0.1-0.2,0.2-0.4
			c0.1-0.2,0.1-0.4,0.1-0.4c0-0.4,0.1-0.6,0.3-0.8c0.2-0.2,0.4-0.3,0.6-0.3c0.1,0,0.1,0,0.2,0c0.2,0,0.5,0.1,0.7,0.2
			c0.1,0.1,0.3,0.2,0.6,0.3c0.2,0,0.4-0.1,0.5-0.2c0.1-0.1,0.2-0.3,0.2-0.5c0-0.1,0-0.2,0-0.2c0.1,0,0.5,1.2-0.3,1.6
			c-0.2,0.1-0.4,0.2-0.5,0.4l0,0c-0.1,0.1-0.2,0.3-0.3,0.5c-0.1,0.3,0,0.6,0.2,1.1c0.2,0.6-0.2,1.9-1.1,2.6c-2,1.7-7.5,4.9-14.6,6.2
			c-1.4,0.2-2.9,0.4-4.3,0.4c-1.9,0.1-6.6,0.1-6.8,0.1c-3.4,0.2-4.3,1.4-4.3,1.5c0,0-0.1,0.1-0.1,0.1c0,0-0.1-0.1-0.1-0.1
			c-0.2-0.2-0.4-0.4-0.7-0.6c-1.1-0.6-2.7-0.9-4.8-0.9c-0.1,0-1.9,0-1.9,0c-2,0-5.2,0-8-0.5c-8-1.4-13.9-5.7-14.6-6.2
			c-1.3-0.9-1.9-1.9-2.1-2.8c-0.1-0.4,0-0.5-0.4-1c0,0-0.2-0.2-0.5-0.2c-0.2,0-0.2,0-0.5,0C43.6,69.7,43.3,69.4,43.3,69z
			 M48.8,157.1c0,0-0.2,0-0.2,0c-0.8,0-1.3,0.4-1.7,1.1v3h-0.6v-4.6h0.6v0.9h0c0.4-0.6,0.9-1,1.8-1h0.1L48.8,157.1z M46,146.7v-31.4
			h6.9v31.4H46z M53.2,159.1h-3.3c0,1.1,0.7,1.8,1.5,1.8c0.7,0,1.1-0.3,1.4-0.8l0.4,0.3c-0.4,0.6-1,1.1-1.8,1.1c-1.1,0-2-0.8-2-2.4
			c0-1.6,1.1-2.4,2-2.4c1.1,0,1.9,0.8,1.9,2.4V159.1z M55.7,161.3c-0.8,0-1.5-0.4-1.8-0.8l0.4-0.4c0.4,0.4,0.8,0.7,1.4,0.7
			c0.8,0,1.2-0.3,1.2-0.8c0-0.5-0.4-0.7-1.3-0.9c-1.1-0.3-1.6-0.5-1.6-1.3c0-0.7,0.6-1.2,1.6-1.2c0.8,0,1.3,0.3,1.7,0.7l-0.3,0.4
			c-0.4-0.4-0.8-0.6-1.3-0.6c-0.7,0-1,0.3-1,0.7c0,0.4,0.3,0.6,1.1,0.8c1.2,0.3,1.8,0.6,1.8,1.5C57.5,160.9,56.8,161.3,55.7,161.3z
			 M54,107.1l-3.8-6.9h-2.3v6.9H44V88.8h6.9c4.5,0,7.2,1.6,7.2,5.6c0,2.9-1.4,4.5-3.8,5.2l4.1,7.4H54z M59.3,161.3h-0.6v-4.6h0.6
			V161.3z M59.3,155.6h-0.6v-0.6h0.6V155.6z M59.5,88.8h14.9v3.4H69v14.9h-4V92.2h-5.4V88.8z M62.3,161.3c-0.8,0-1.5-0.4-1.8-0.8
			l0.4-0.4c0.4,0.4,0.8,0.7,1.4,0.7c0.8,0,1.2-0.3,1.2-0.8c0-0.5-0.4-0.7-1.3-0.9c-1.1-0.3-1.6-0.5-1.6-1.3c0-0.7,0.6-1.2,1.6-1.2
			c0.8,0,1.3,0.3,1.7,0.7l-0.3,0.4c-0.4-0.4-0.8-0.6-1.3-0.6c-0.7,0-1,0.3-1,0.7c0,0.4,0.3,0.6,1.1,0.8c1.2,0.3,1.8,0.6,1.8,1.5
			C64,160.9,63.3,161.3,62.3,161.3z M67.2,161.3c-0.1,0-0.4,0.1-0.6,0.1c-0.9,0-1.2-0.3-1.2-1.1v-3h-0.8v-0.5h0.8V155H66v1.7h1.2
			v0.5H66v2.9c0,0.5,0.2,0.8,0.7,0.8c0.2,0,0.4,0,0.5-0.1V161.3z M71.2,161.3c-0.1-0.2-0.1-0.4-0.1-0.7c-0.5,0.5-1.1,0.7-1.8,0.7
			c-0.8,0-1.3-0.4-1.3-1.2c0-0.9,0.8-1.6,3.1-1.9V158c0-0.6-0.3-0.9-0.9-0.9c-0.7,0-1.2,0.3-1.7,0.7l-0.3-0.4
			c0.6-0.5,1.2-0.9,2.1-0.9c1,0,1.5,0.6,1.5,1.5v2.1c0,0.6,0,0.9,0.1,1.1H71.2z M76.8,161.3h-0.6V158c0-0.6-0.3-1-0.9-1
			c-0.6,0-1.1,0.3-1.6,0.8v3.4h-0.6v-4.6h0.6v0.7c0.4-0.4,1-0.8,1.8-0.8c0.9,0,1.4,0.5,1.4,1.4V161.3z M79.9,161.4
			c-1.1,0-2-0.9-2-2.4c0-1.7,1-2.4,2.1-2.4c1,0,1.5,0.6,1.8,1.3l-0.5,0.2c-0.3-0.6-0.6-1-1.3-1c-0.7,0-1.4,0.5-1.4,1.9
			c0,1.2,0.6,1.9,1.4,1.9c0.6,0,1-0.3,1.3-1l0.5,0.2C81.3,160.9,80.8,161.4,79.9,161.4z M72.8,146.7H59.7v-31.4h12.5
			c5.8,0,11.2,1.4,11.2,7.8c0,4.5-2.8,6.6-6,7.2v0.1c3.8,0.7,6.8,2.7,6.8,7.7C84.2,144.4,78.7,146.7,72.8,146.7z M86.3,159.1H83
			c0,1.1,0.7,1.8,1.5,1.8c0.7,0,1.1-0.3,1.4-0.8l0.4,0.3c-0.4,0.6-1,1.1-1.8,1.1c-1.1,0-2-0.8-2-2.4c0-1.6,1.1-2.4,2-2.4
			c1.1,0,1.9,0.8,1.9,2.4V159.1z M86.8,107.1h-4V88.8h12.1v3.4h-8v4.4h5.7v3.2h-5.7V107.1z M89,115.4h21.4v5.8H95.9v6.7h10.5v5.5
			H95.9v7.8h15.2v5.6H89V115.4z M92.8,159.5h-1.7v-1.7h1.7V159.5z M99.5,155.3c-0.1,0-0.2,0-0.3,0c-0.4,0-0.8,0.2-0.8,0.7v0.7h1v0.5
			h-1v4.1h-0.6v-4.1H97v-0.5h0.8V156c0-0.8,0.4-1.2,1.3-1.2c0.1,0,0.3,0,0.4,0V155.3z M102.9,157.1c0,0-0.2,0-0.2,0
			c-0.8,0-1.3,0.4-1.7,1.1v3h-0.6v-4.6h0.6v0.9h0c0.4-0.6,0.9-1,1.8-1h0.1L102.9,157.1z M107.2,159.1h-3.3c0,1.1,0.7,1.8,1.5,1.8
			c0.7,0,1.1-0.3,1.4-0.8l0.4,0.3c-0.4,0.6-1,1.1-1.8,1.1c-1.1,0-2-0.8-2-2.4c0-1.6,1.1-2.4,2-2.4c1.1,0,1.9,0.8,1.9,2.4V159.1z
			 M112,159.1h-3.3c0,1.1,0.7,1.8,1.5,1.8c0.7,0,1.1-0.3,1.4-0.8l0.4,0.3c-0.4,0.6-1,1.1-1.8,1.1c-1.1,0-2-0.8-2-2.4
			c0-1.6,1.1-2.4,2-2.4c1.1,0,1.9,0.8,1.9,2.4V159.1z M116.4,161.3c-0.1-0.2-0.1-0.4-0.1-0.7c-0.4,0.4-0.8,0.8-1.5,0.8
			c-1.1,0-1.9-0.8-1.9-2.4c0-1.6,0.8-2.4,2-2.4c0.6,0,1.1,0.3,1.5,0.7v-2.5h0.6v5.3c0,0.6,0,0.9,0.1,1.1H116.4z M120.1,161.4
			c-1.1,0-2.1-0.9-2.1-2.4c0-1.5,1-2.4,2.1-2.4c1.1,0,2.1,0.9,2.1,2.4C122.2,160.5,121.3,161.4,120.1,161.4z M130,161.3h-0.6V158
			c0-0.6-0.2-1-0.9-1c-0.6,0-1,0.3-1.5,0.8v3.4h-0.6V158c0-0.6-0.2-1-0.9-1c-0.6,0-1,0.3-1.5,0.8v3.4h-0.6v-4.6h0.6v0.7
			c0.5-0.5,1-0.8,1.7-0.8c0.8,0,1.1,0.3,1.3,0.8c0.5-0.5,1.1-0.8,1.7-0.8c0.9,0,1.3,0.5,1.3,1.4V161.3z M139.4,121.1H130v25.6h-6.9
			v-25.6h-9.3v-5.8h25.6V121.1z"/>
		<g class="st1">
			<rect x="23.5" y="154.8" class="st4" width="110.2" height="12"/>
			<path class="st8" d="M28.7,161.1c-0.1-0.2-0.1-0.4-0.1-0.7c-0.5,0.5-1.1,0.7-1.8,0.7c-0.8,0-1.3-0.4-1.3-1.2
				c0-0.9,0.8-1.6,3.1-1.9v-0.2c0-0.6-0.3-0.9-0.9-0.9c-0.7,0-1.2,0.3-1.7,0.7l-0.3-0.4c0.6-0.5,1.2-0.9,2.1-0.9
				c1,0,1.5,0.6,1.5,1.5v2.1c0,0.6,0,0.9,0.1,1.1H28.7z M33.1,157c0,0-0.2,0-0.2,0c-0.8,0-1.3,0.4-1.7,1.1v3h-0.6v-4.6h0.6v0.9h0
				c0.4-0.6,0.9-1,1.8-1h0.1L33.1,157z M36.4,161.1c-0.1,0-0.4,0.1-0.6,0.1c-0.9,0-1.2-0.3-1.2-1.1v-3h-0.8v-0.5h0.8v-1.7h0.6v1.7
				h1.2v0.5h-1.2v2.9c0,0.5,0.2,0.8,0.7,0.8c0.2,0,0.4,0,0.5-0.1V161.1z M42.5,159.4h-1.7v-1.7h1.7V159.4z M49.5,157
				c0,0-0.2,0-0.2,0c-0.8,0-1.3,0.4-1.7,1.1v3H47v-4.6h0.6v0.9h0c0.4-0.6,0.9-1,1.8-1h0.1L49.5,157z M53.9,158.9h-3.3
				c0,1.1,0.7,1.8,1.5,1.8c0.7,0,1.1-0.3,1.4-0.8l0.4,0.3c-0.4,0.6-1,1.1-1.8,1.1c-1.1,0-2-0.8-2-2.4c0-1.6,1.1-2.4,2-2.4
				c1.1,0,1.9,0.8,1.9,2.4V158.9z M56.4,161.2c-0.8,0-1.5-0.4-1.8-0.8L55,160c0.4,0.4,0.8,0.7,1.4,0.7c0.8,0,1.2-0.3,1.2-0.8
				c0-0.5-0.4-0.7-1.3-0.9c-1.1-0.3-1.6-0.5-1.6-1.3c0-0.7,0.6-1.2,1.6-1.2c0.8,0,1.3,0.3,1.7,0.7l-0.3,0.4
				c-0.4-0.4-0.8-0.6-1.3-0.6c-0.7,0-1,0.3-1,0.7c0,0.4,0.3,0.6,1.1,0.8c1.2,0.3,1.8,0.6,1.8,1.5C58.2,160.7,57.4,161.2,56.4,161.2z
				 M60,161.1h-0.6v-4.6H60V161.1z M60,155.4h-0.6v-0.6H60V155.4z M62.9,161.2c-0.8,0-1.5-0.4-1.8-0.8l0.4-0.4
				c0.4,0.4,0.8,0.7,1.4,0.7c0.8,0,1.2-0.3,1.2-0.8c0-0.5-0.4-0.7-1.3-0.9c-1.1-0.3-1.6-0.5-1.6-1.3c0-0.7,0.6-1.2,1.6-1.2
				c0.8,0,1.3,0.3,1.7,0.7l-0.3,0.4c-0.4-0.4-0.8-0.6-1.3-0.6c-0.7,0-1,0.3-1,0.7c0,0.4,0.3,0.6,1.1,0.8c1.2,0.3,1.8,0.6,1.8,1.5
				C64.7,160.7,64,161.2,62.9,161.2z M67.9,161.1c-0.1,0-0.4,0.1-0.6,0.1c-0.9,0-1.2-0.3-1.2-1.1v-3h-0.8v-0.5h0.8v-1.7h0.6v1.7h1.2
				v0.5h-1.2v2.9c0,0.5,0.2,0.8,0.7,0.8c0.2,0,0.4,0,0.5-0.1V161.1z M71.9,161.1c-0.1-0.2-0.1-0.4-0.1-0.7c-0.5,0.5-1.1,0.7-1.8,0.7
				c-0.8,0-1.3-0.4-1.3-1.2c0-0.9,0.8-1.6,3.1-1.9v-0.2c0-0.6-0.3-0.9-0.9-0.9c-0.7,0-1.2,0.3-1.7,0.7l-0.3-0.4
				c0.6-0.5,1.2-0.9,2.1-0.9c1,0,1.5,0.6,1.5,1.5v2.1c0,0.6,0,0.9,0.1,1.1H71.9z M77.5,161.1h-0.6v-3.2c0-0.6-0.3-1-0.9-1
				c-0.6,0-1.1,0.3-1.6,0.8v3.4h-0.6v-4.6h0.6v0.7c0.4-0.4,1-0.8,1.8-0.8c0.9,0,1.4,0.5,1.4,1.4V161.1z M80.6,161.2
				c-1.1,0-2-0.9-2-2.4c0-1.7,1-2.4,2.1-2.4c1,0,1.5,0.6,1.8,1.3l-0.5,0.2c-0.3-0.6-0.6-1-1.3-1c-0.7,0-1.4,0.5-1.4,1.9
				c0,1.2,0.6,1.9,1.4,1.9c0.6,0,1-0.3,1.3-1l0.5,0.2C82,160.7,81.5,161.2,80.6,161.2z M87,158.9h-3.3c0,1.1,0.7,1.8,1.5,1.8
				c0.7,0,1.1-0.3,1.4-0.8l0.4,0.3c-0.4,0.6-1,1.1-1.8,1.1c-1.1,0-2-0.8-2-2.4c0-1.6,1.1-2.4,2-2.4c1.1,0,1.9,0.8,1.9,2.4V158.9z
				 M93.5,159.4h-1.7v-1.7h1.7V159.4z M100.2,155.2c-0.1,0-0.2,0-0.3,0c-0.4,0-0.8,0.2-0.8,0.7v0.7h1v0.5h-1v4.1h-0.6V157h-0.8v-0.5
				h0.8v-0.7c0-0.8,0.4-1.2,1.3-1.2c0.1,0,0.3,0,0.4,0V155.2z M103.5,157c0,0-0.2,0-0.2,0c-0.8,0-1.3,0.4-1.7,1.1v3H101v-4.6h0.6
				v0.9h0c0.4-0.6,0.9-1,1.8-1h0.1L103.5,157z M107.9,158.9h-3.3c0,1.1,0.7,1.8,1.5,1.8c0.7,0,1.1-0.3,1.4-0.8l0.4,0.3
				c-0.4,0.6-1,1.1-1.8,1.1c-1.1,0-2-0.8-2-2.4c0-1.6,1.1-2.4,2-2.4c1.1,0,1.9,0.8,1.9,2.4V158.9z M112.7,158.9h-3.3
				c0,1.1,0.7,1.8,1.5,1.8c0.7,0,1.1-0.3,1.4-0.8l0.4,0.3c-0.4,0.6-1,1.1-1.8,1.1c-1.1,0-2-0.8-2-2.4c0-1.6,1.1-2.4,2-2.4
				c1.1,0,1.9,0.8,1.9,2.4V158.9z M117.1,161.1c-0.1-0.2-0.1-0.4-0.1-0.7c-0.4,0.4-0.8,0.8-1.5,0.8c-1.1,0-1.9-0.8-1.9-2.4
				c0-1.6,0.8-2.4,2-2.4c0.6,0,1.1,0.3,1.5,0.7v-2.5h0.6v5.3c0,0.6,0,0.9,0.1,1.1H117.1z M120.8,161.2c-1.1,0-2.1-0.9-2.1-2.4
				c0-1.5,1-2.4,2.1-2.4c1.1,0,2.1,0.9,2.1,2.4C122.9,160.4,122,161.2,120.8,161.2z M130.7,161.1h-0.6v-3.2c0-0.6-0.2-1-0.9-1
				c-0.6,0-1,0.3-1.5,0.8v3.4h-0.6v-3.2c0-0.6-0.2-1-0.9-1c-0.6,0-1,0.3-1.5,0.8v3.4H124v-4.6h0.6v0.7c0.5-0.5,1-0.8,1.7-0.8
				c0.8,0,1.1,0.3,1.3,0.8c0.5-0.5,1.1-0.8,1.7-0.8c0.9,0,1.3,0.5,1.3,1.4V161.1z M85.1,156.9c-0.7,0-1.3,0.5-1.4,1.5h2.7
				C86.4,157.6,86,156.9,85.1,156.9z M26.1,160c0,0.5,0.3,0.7,0.8,0.7c0.6,0,1.2-0.3,1.7-0.7v-1.4C26.6,158.9,26.1,159.4,26.1,160z
				 M106,156.9c-0.7,0-1.3,0.5-1.4,1.5h2.7C107.2,157.6,106.8,156.9,106,156.9z M69.3,160c0,0.5,0.3,0.7,0.8,0.7
				c0.6,0,1.2-0.3,1.7-0.7v-1.4C69.8,158.9,69.3,159.4,69.3,160z M52,156.9c-0.7,0-1.3,0.5-1.4,1.5h2.7
				C53.2,157.6,52.8,156.9,52,156.9z M110.8,156.9c-0.7,0-1.3,0.5-1.4,1.5h2.7C112,157.6,111.6,156.9,110.8,156.9z M120.8,156.9
				c-0.9,0-1.5,0.8-1.5,1.9c0,1,0.5,1.9,1.5,1.9c0.9,0,1.5-0.8,1.5-1.9C122.3,157.8,121.8,156.9,120.8,156.9z M115.6,156.9
				c-0.8,0-1.4,0.6-1.4,1.9c0,1.3,0.6,1.9,1.4,1.9c0.6,0,1-0.3,1.4-0.8v-2.2C116.5,157.2,116.1,156.9,115.6,156.9z"/>
		</g>
	</g>
</g>
<g>
	<g>
		<path class="st29" d="M167.3,97.2h-0.8v-3.4h-3.8v3.4h-0.8V90h0.8v3.1h3.8V90h0.8V97.2z"/>
		<path class="st29" d="M173.8,94.5c0,0.9-0.2,1.6-0.7,2.1c-0.4,0.5-1.1,0.7-1.8,0.7c-0.5,0-0.9-0.1-1.3-0.3c-0.4-0.2-0.7-0.6-0.9-1
			c-0.2-0.4-0.3-0.9-0.3-1.5c0-0.9,0.2-1.6,0.7-2.1c0.4-0.5,1.1-0.7,1.8-0.7c0.8,0,1.4,0.3,1.8,0.8C173.6,93,173.8,93.7,173.8,94.5z
			 M169.7,94.5c0,0.7,0.1,1.2,0.4,1.6c0.3,0.4,0.7,0.5,1.2,0.5s0.9-0.2,1.2-0.5c0.3-0.4,0.4-0.9,0.4-1.6c0-0.7-0.1-1.2-0.4-1.6
			c-0.3-0.4-0.7-0.5-1.2-0.5c-0.5,0-0.9,0.2-1.2,0.5C169.8,93.3,169.7,93.8,169.7,94.5z"/>
		<path class="st29" d="M179,97.2v-3.5c0-0.4-0.1-0.8-0.3-1c-0.2-0.2-0.5-0.3-0.9-0.3c-0.6,0-1,0.2-1.2,0.5
			c-0.3,0.3-0.4,0.8-0.4,1.5v2.8h-0.8v-5.4h0.7l0.1,0.7h0c0.2-0.3,0.4-0.5,0.7-0.6c0.3-0.1,0.6-0.2,1-0.2c0.7,0,1.1,0.2,1.5,0.5
			c0.3,0.3,0.5,0.8,0.5,1.5v3.5H179z"/>
		<path class="st29" d="M186.2,94.5c0,0.9-0.2,1.6-0.7,2.1c-0.4,0.5-1.1,0.7-1.8,0.7c-0.5,0-0.9-0.1-1.3-0.3c-0.4-0.2-0.7-0.6-0.9-1
			c-0.2-0.4-0.3-0.9-0.3-1.5c0-0.9,0.2-1.6,0.7-2.1c0.4-0.5,1.1-0.7,1.8-0.7c0.8,0,1.4,0.3,1.8,0.8C185.9,93,186.2,93.7,186.2,94.5z
			 M182,94.5c0,0.7,0.1,1.2,0.4,1.6c0.3,0.4,0.7,0.5,1.2,0.5c0.5,0,0.9-0.2,1.2-0.5c0.3-0.4,0.4-0.9,0.4-1.6c0-0.7-0.1-1.2-0.4-1.6
			c-0.3-0.4-0.7-0.5-1.2-0.5c-0.5,0-0.9,0.2-1.2,0.5C182.2,93.3,182,93.8,182,94.5z"/>
		<path class="st29" d="M190.1,91.7c0.2,0,0.5,0,0.6,0.1l-0.1,0.8c-0.2,0-0.4-0.1-0.6-0.1c-0.4,0-0.8,0.2-1.1,0.5s-0.5,0.8-0.5,1.3
			v2.9h-0.8v-5.4h0.7l0.1,1h0c0.2-0.4,0.4-0.6,0.7-0.8C189.4,91.8,189.7,91.7,190.1,91.7z"/>
		<path class="st29" d="M195.1,97.2l-0.2-0.8h0c-0.3,0.3-0.5,0.6-0.8,0.7c-0.3,0.1-0.6,0.2-1,0.2c-0.5,0-1-0.1-1.3-0.4
			c-0.3-0.3-0.5-0.7-0.5-1.2c0-1.1,0.9-1.7,2.6-1.7l0.9,0v-0.3c0-0.4-0.1-0.7-0.3-0.9c-0.2-0.2-0.5-0.3-0.9-0.3
			c-0.5,0-1,0.1-1.5,0.4l-0.3-0.6c0.3-0.1,0.6-0.3,0.9-0.3c0.3-0.1,0.6-0.1,1-0.1c0.6,0,1.1,0.1,1.4,0.4c0.3,0.3,0.5,0.7,0.5,1.4
			v3.7H195.1z M193.2,96.7c0.5,0,0.9-0.1,1.2-0.4c0.3-0.3,0.4-0.7,0.4-1.2v-0.5l-0.8,0c-0.7,0-1.1,0.1-1.4,0.3
			c-0.3,0.2-0.4,0.5-0.4,0.8c0,0.3,0.1,0.5,0.3,0.7C192.6,96.6,192.9,96.7,193.2,96.7z"/>
		<path class="st29" d="M199.8,91.7c0.2,0,0.5,0,0.6,0.1l-0.1,0.8c-0.2,0-0.4-0.1-0.6-0.1c-0.4,0-0.8,0.2-1.1,0.5
			c-0.3,0.4-0.5,0.8-0.5,1.3v2.9h-0.8v-5.4h0.7l0.1,1h0c0.2-0.4,0.4-0.6,0.7-0.8C199.2,91.8,199.5,91.7,199.8,91.7z"/>
		<path class="st29" d="M200.6,91.8h0.9l1.2,3.1c0.3,0.7,0.4,1.2,0.5,1.5h0c0-0.2,0.1-0.5,0.3-0.9c0.1-0.4,0.6-1.7,1.3-3.8h0.9
			l-2.3,6.2c-0.2,0.6-0.5,1-0.8,1.3c-0.3,0.3-0.7,0.4-1.1,0.4c-0.3,0-0.5,0-0.7-0.1v-0.7c0.2,0,0.4,0.1,0.6,0.1c0.6,0,1-0.3,1.2-0.9
			l0.3-0.8L200.6,91.8z"/>
		<path class="st29" d="M211.4,97.3c-0.8,0-1.4-0.2-1.8-0.7c-0.4-0.5-0.6-1.2-0.6-2.1c0-0.9,0.2-1.6,0.7-2.1
			c0.4-0.5,1.1-0.7,1.9-0.7c0.3,0,0.5,0,0.8,0.1c0.3,0.1,0.5,0.1,0.6,0.2l-0.3,0.7c-0.2-0.1-0.4-0.1-0.6-0.2c-0.2,0-0.4-0.1-0.6-0.1
			c-1.1,0-1.7,0.7-1.7,2.1c0,0.7,0.1,1.2,0.4,1.5c0.3,0.4,0.7,0.5,1.2,0.5c0.5,0,0.9-0.1,1.4-0.3v0.7
			C212.4,97.2,212,97.3,211.4,97.3z"/>
		<path class="st29" d="M217.8,97.2v-3.5c0-0.4-0.1-0.8-0.3-1c-0.2-0.2-0.5-0.3-0.9-0.3c-0.6,0-1,0.2-1.2,0.5
			c-0.3,0.3-0.4,0.8-0.4,1.5v2.8h-0.8v-7.7h0.8v2.3c0,0.3,0,0.5,0,0.7h0c0.2-0.3,0.4-0.5,0.7-0.6c0.3-0.2,0.6-0.2,1-0.2
			c0.7,0,1.2,0.2,1.5,0.5c0.3,0.3,0.5,0.8,0.5,1.5v3.5H217.8z"/>
		<path class="st29" d="M223.6,97.2l-0.2-0.8h0c-0.3,0.3-0.5,0.6-0.8,0.7c-0.3,0.1-0.6,0.2-1,0.2c-0.5,0-1-0.1-1.3-0.4
			c-0.3-0.3-0.5-0.7-0.5-1.2c0-1.1,0.9-1.7,2.6-1.7l0.9,0v-0.3c0-0.4-0.1-0.7-0.3-0.9c-0.2-0.2-0.5-0.3-0.9-0.3
			c-0.5,0-1,0.1-1.5,0.4l-0.3-0.6c0.3-0.1,0.6-0.3,0.9-0.3c0.3-0.1,0.6-0.1,1-0.1c0.6,0,1.1,0.1,1.4,0.4c0.3,0.3,0.5,0.7,0.5,1.4
			v3.7H223.6z M221.7,96.7c0.5,0,0.9-0.1,1.2-0.4c0.3-0.3,0.4-0.7,0.4-1.2v-0.5l-0.8,0c-0.7,0-1.1,0.1-1.4,0.3s-0.4,0.5-0.4,0.8
			c0,0.3,0.1,0.5,0.3,0.7C221.2,96.6,221.4,96.7,221.7,96.7z"/>
		<path class="st29" d="M225.8,90.4c0-0.2,0-0.3,0.1-0.4c0.1-0.1,0.2-0.1,0.3-0.1c0.1,0,0.2,0,0.3,0.1c0.1,0.1,0.1,0.2,0.1,0.4
			s0,0.3-0.1,0.4c-0.1,0.1-0.2,0.1-0.3,0.1c-0.1,0-0.3,0-0.3-0.1C225.9,90.7,225.8,90.5,225.8,90.4z M226.7,97.2h-0.8v-5.4h0.8V97.2
			z"/>
		<path class="st29" d="M230.9,91.7c0.2,0,0.5,0,0.6,0.1l-0.1,0.8c-0.2,0-0.4-0.1-0.6-0.1c-0.4,0-0.8,0.2-1.1,0.5
			c-0.3,0.4-0.5,0.8-0.5,1.3v2.9h-0.8v-5.4h0.7l0.1,1h0c0.2-0.4,0.4-0.6,0.7-0.8C230.3,91.8,230.6,91.7,230.9,91.7z"/>
		<path class="st29" d="M235.1,97.3c-0.4,0-0.7-0.1-1-0.2c-0.3-0.1-0.5-0.3-0.7-0.6h-0.1c0,0.3,0.1,0.6,0.1,0.9v2.2h-0.8v-7.9h0.7
			l0.1,0.7h0c0.2-0.3,0.5-0.5,0.7-0.6c0.3-0.1,0.6-0.2,1-0.2c0.7,0,1.3,0.2,1.7,0.7c0.4,0.5,0.6,1.2,0.6,2.1c0,0.9-0.2,1.6-0.6,2.1
			C236.4,97.1,235.8,97.3,235.1,97.3z M235,92.4c-0.6,0-1,0.2-1.2,0.5c-0.2,0.3-0.4,0.8-0.4,1.5v0.2c0,0.8,0.1,1.3,0.4,1.6
			c0.3,0.3,0.7,0.5,1.2,0.5c0.5,0,0.8-0.2,1.1-0.6s0.4-0.9,0.4-1.6c0-0.7-0.1-1.2-0.4-1.6S235.5,92.4,235,92.4z"/>
		<path class="st29" d="M241.1,97.3c-0.8,0-1.4-0.2-1.9-0.7c-0.5-0.5-0.7-1.2-0.7-2c0-0.9,0.2-1.6,0.6-2.1c0.4-0.5,1-0.8,1.7-0.8
			c0.7,0,1.2,0.2,1.6,0.7c0.4,0.4,0.6,1,0.6,1.8v0.5h-3.7c0,0.6,0.2,1.1,0.5,1.4c0.3,0.3,0.7,0.5,1.3,0.5c0.6,0,1.2-0.1,1.7-0.4V97
			c-0.3,0.1-0.6,0.2-0.8,0.3C241.8,97.3,241.5,97.3,241.1,97.3z M240.9,92.4c-0.4,0-0.8,0.1-1,0.4c-0.3,0.3-0.4,0.7-0.5,1.2h2.8
			c0-0.5-0.1-0.9-0.3-1.2C241.6,92.5,241.3,92.4,240.9,92.4z"/>
		<path class="st29" d="M247,91.7c0.2,0,0.5,0,0.6,0.1l-0.1,0.8c-0.2,0-0.4-0.1-0.6-0.1c-0.4,0-0.8,0.2-1.1,0.5
			c-0.3,0.4-0.5,0.8-0.5,1.3v2.9h-0.8v-5.4h0.7l0.1,1h0c0.2-0.4,0.4-0.6,0.7-0.8C246.3,91.8,246.6,91.7,247,91.7z"/>
		<path class="st29" d="M252.1,95.8c0,0.5-0.2,0.9-0.6,1.2c-0.4,0.3-0.9,0.4-1.6,0.4c-0.7,0-1.3-0.1-1.7-0.3v-0.8
			c0.3,0.1,0.5,0.2,0.8,0.3c0.3,0.1,0.6,0.1,0.9,0.1c0.4,0,0.8-0.1,1-0.2c0.2-0.1,0.3-0.3,0.3-0.6c0-0.2-0.1-0.4-0.3-0.5
			c-0.2-0.1-0.5-0.3-1.1-0.5c-0.5-0.2-0.9-0.4-1.1-0.5c-0.2-0.1-0.4-0.3-0.5-0.5c-0.1-0.2-0.2-0.4-0.2-0.6c0-0.4,0.2-0.8,0.5-1
			c0.4-0.3,0.9-0.4,1.5-0.4c0.6,0,1.2,0.1,1.7,0.4l-0.3,0.7c-0.5-0.2-1-0.3-1.5-0.3c-0.4,0-0.7,0.1-0.9,0.2
			c-0.2,0.1-0.3,0.3-0.3,0.5c0,0.1,0,0.3,0.1,0.4c0.1,0.1,0.2,0.2,0.4,0.3c0.2,0.1,0.5,0.2,1,0.4c0.6,0.2,1.1,0.5,1.3,0.7
			C252,95.1,252.1,95.4,252.1,95.8z"/>
		<path class="st29" d="M258.1,94.5c0,0.9-0.2,1.6-0.7,2.1c-0.4,0.5-1.1,0.7-1.8,0.7c-0.5,0-0.9-0.1-1.3-0.3c-0.4-0.2-0.7-0.6-0.9-1
			c-0.2-0.4-0.3-0.9-0.3-1.5c0-0.9,0.2-1.6,0.7-2.1c0.4-0.5,1.1-0.7,1.8-0.7c0.8,0,1.4,0.3,1.8,0.8C257.9,93,258.1,93.7,258.1,94.5z
			 M254,94.5c0,0.7,0.1,1.2,0.4,1.6c0.3,0.4,0.7,0.5,1.2,0.5c0.5,0,0.9-0.2,1.2-0.5c0.3-0.4,0.4-0.9,0.4-1.6c0-0.7-0.1-1.2-0.4-1.6
			c-0.3-0.4-0.7-0.5-1.2-0.5c-0.5,0-0.9,0.2-1.2,0.5C254.1,93.3,254,93.8,254,94.5z"/>
		<path class="st29" d="M263.3,97.2v-3.5c0-0.4-0.1-0.8-0.3-1c-0.2-0.2-0.5-0.3-0.9-0.3c-0.6,0-1,0.2-1.2,0.5
			c-0.3,0.3-0.4,0.8-0.4,1.5v2.8h-0.8v-5.4h0.7l0.1,0.7h0c0.2-0.3,0.4-0.5,0.7-0.6c0.3-0.1,0.6-0.2,1-0.2c0.7,0,1.1,0.2,1.5,0.5
			c0.3,0.3,0.5,0.8,0.5,1.5v3.5H263.3z"/>
		<path class="st29" d="M269.3,95.8c0,0.5-0.2,0.9-0.6,1.2c-0.4,0.3-0.9,0.4-1.6,0.4c-0.7,0-1.3-0.1-1.7-0.3v-0.8
			c0.3,0.1,0.5,0.2,0.8,0.3c0.3,0.1,0.6,0.1,0.9,0.1c0.4,0,0.8-0.1,1-0.2c0.2-0.1,0.3-0.3,0.3-0.6c0-0.2-0.1-0.4-0.3-0.5
			c-0.2-0.1-0.5-0.3-1.1-0.5c-0.5-0.2-0.9-0.4-1.1-0.5c-0.2-0.1-0.4-0.3-0.5-0.5c-0.1-0.2-0.2-0.4-0.2-0.6c0-0.4,0.2-0.8,0.5-1
			c0.4-0.3,0.9-0.4,1.5-0.4c0.6,0,1.2,0.1,1.7,0.4l-0.3,0.7c-0.5-0.2-1-0.3-1.5-0.3c-0.4,0-0.7,0.1-0.9,0.2
			c-0.2,0.1-0.3,0.3-0.3,0.5c0,0.1,0,0.3,0.1,0.4c0.1,0.1,0.2,0.2,0.4,0.3c0.2,0.1,0.5,0.2,1,0.4c0.6,0.2,1.1,0.5,1.3,0.7
			C269.2,95.1,269.3,95.4,269.3,95.8z"/>
		<path class="st29" d="M273.2,90.4c0-0.2,0-0.3,0.1-0.4c0.1-0.1,0.2-0.1,0.3-0.1c0.1,0,0.2,0,0.3,0.1c0.1,0.1,0.1,0.2,0.1,0.4
			s0,0.3-0.1,0.4c-0.1,0.1-0.2,0.1-0.3,0.1c-0.1,0-0.3,0-0.3-0.1C273.2,90.7,273.2,90.5,273.2,90.4z M274.1,97.2h-0.8v-5.4h0.8V97.2
			z"/>
		<path class="st29" d="M279.5,97.2v-3.5c0-0.4-0.1-0.8-0.3-1c-0.2-0.2-0.5-0.3-0.9-0.3c-0.6,0-1,0.2-1.2,0.5
			c-0.3,0.3-0.4,0.8-0.4,1.5v2.8h-0.8v-5.4h0.7l0.1,0.7h0c0.2-0.3,0.4-0.5,0.7-0.6c0.3-0.1,0.6-0.2,1-0.2c0.7,0,1.1,0.2,1.5,0.5
			c0.3,0.3,0.5,0.8,0.5,1.5v3.5H279.5z"/>
		<path class="st29" d="M284.2,97.3c-0.8,0-1.4-0.2-1.8-0.7c-0.4-0.5-0.6-1.2-0.6-2.1c0-0.9,0.2-1.6,0.7-2.1
			c0.4-0.5,1.1-0.7,1.9-0.7c0.3,0,0.5,0,0.8,0.1c0.3,0.1,0.5,0.1,0.6,0.2l-0.3,0.7c-0.2-0.1-0.4-0.1-0.6-0.2c-0.2,0-0.4-0.1-0.6-0.1
			c-1.1,0-1.7,0.7-1.7,2.1c0,0.7,0.1,1.2,0.4,1.5c0.3,0.4,0.7,0.5,1.2,0.5c0.5,0,0.9-0.1,1.4-0.3v0.7
			C285.2,97.2,284.7,97.3,284.2,97.3z"/>
		<path class="st29" d="M287.7,97.2h-0.8v-7.7h0.8V97.2z"/>
		<path class="st29" d="M290.2,91.8v3.5c0,0.4,0.1,0.8,0.3,1c0.2,0.2,0.5,0.3,0.9,0.3c0.6,0,1-0.2,1.2-0.5c0.3-0.3,0.4-0.8,0.4-1.5
			v-2.8h0.8v5.4h-0.7l-0.1-0.7h0c-0.2,0.3-0.4,0.5-0.7,0.6c-0.3,0.1-0.6,0.2-1,0.2c-0.7,0-1.2-0.2-1.5-0.5c-0.3-0.3-0.5-0.8-0.5-1.5
			v-3.5H290.2z"/>
		<path class="st29" d="M299.3,96.5L299.3,96.5c-0.4,0.6-1,0.8-1.7,0.8c-0.7,0-1.3-0.2-1.7-0.7c-0.4-0.5-0.6-1.2-0.6-2.1
			s0.2-1.6,0.6-2.1c0.4-0.5,0.9-0.7,1.7-0.7c0.7,0,1.3,0.3,1.7,0.8h0.1l0-0.4l0-0.4v-2.2h0.8v7.7h-0.7L299.3,96.5z M297.7,96.7
			c0.6,0,1-0.2,1.2-0.5c0.3-0.3,0.4-0.8,0.4-1.5v-0.2c0-0.8-0.1-1.3-0.4-1.6s-0.7-0.5-1.2-0.5c-0.5,0-0.9,0.2-1.1,0.6
			c-0.3,0.4-0.4,0.9-0.4,1.6c0,0.7,0.1,1.2,0.4,1.6C296.8,96.5,297.2,96.7,297.7,96.7z"/>
		<path class="st29" d="M304.1,97.3c-0.8,0-1.4-0.2-1.9-0.7c-0.5-0.5-0.7-1.2-0.7-2c0-0.9,0.2-1.6,0.6-2.1c0.4-0.5,1-0.8,1.7-0.8
			c0.7,0,1.2,0.2,1.6,0.7c0.4,0.4,0.6,1,0.6,1.8v0.5h-3.7c0,0.6,0.2,1.1,0.5,1.4c0.3,0.3,0.7,0.5,1.3,0.5c0.6,0,1.2-0.1,1.7-0.4V97
			c-0.3,0.1-0.6,0.2-0.8,0.3C304.8,97.3,304.5,97.3,304.1,97.3z M303.9,92.4c-0.4,0-0.8,0.1-1,0.4c-0.3,0.3-0.4,0.7-0.5,1.2h2.8
			c0-0.5-0.1-0.9-0.3-1.2C304.7,92.5,304.3,92.4,303.9,92.4z"/>
		<path class="st29" d="M307.4,92.4c0-0.4,0.2-0.7,0.6-0.7c0.4,0,0.6,0.2,0.6,0.7c0,0.2-0.1,0.4-0.2,0.5c-0.1,0.1-0.3,0.2-0.4,0.2
			c-0.2,0-0.3-0.1-0.4-0.2C307.5,92.8,307.4,92.6,307.4,92.4z M307.4,96.7c0-0.2,0-0.4,0.1-0.5c0.1-0.1,0.2-0.2,0.4-0.2
			c0.2,0,0.3,0.1,0.4,0.2c0.1,0.1,0.2,0.3,0.2,0.5c0,0.2-0.1,0.4-0.2,0.5c-0.1,0.1-0.3,0.2-0.4,0.2c-0.2,0-0.3-0.1-0.4-0.2
			C307.5,97.1,307.4,97,307.4,96.7z"/>
		<path class="st29" d="M164.8,103.3c-0.6,0-1,0.2-1.3,0.6s-0.5,1-0.5,1.8c0,1.6,0.6,2.4,1.8,2.4c0.5,0,1.1-0.1,1.8-0.4v1.3
			c-0.6,0.2-1.3,0.4-2,0.4c-1.1,0-1.9-0.3-2.4-1c-0.6-0.6-0.8-1.6-0.8-2.7c0-0.8,0.1-1.4,0.4-2c0.3-0.6,0.7-1,1.2-1.3
			c0.5-0.3,1.1-0.5,1.8-0.5c0.7,0,1.4,0.2,2.1,0.5l-0.5,1.2c-0.3-0.1-0.5-0.2-0.8-0.3C165.3,103.4,165,103.3,164.8,103.3z"/>
		<path class="st29" d="M170.6,109.5c-0.9,0-1.6-0.2-2.1-0.7c-0.5-0.5-0.8-1.2-0.8-2.1c0-0.9,0.2-1.6,0.7-2.1
			c0.5-0.5,1.1-0.8,1.9-0.8c0.8,0,1.4,0.2,1.8,0.7c0.4,0.4,0.7,1.1,0.7,1.8v0.7h-3.6c0,0.4,0.1,0.8,0.4,1c0.2,0.2,0.6,0.4,1,0.4
			c0.3,0,0.6,0,0.9-0.1c0.3-0.1,0.6-0.2,0.9-0.3v1.2c-0.3,0.1-0.5,0.2-0.8,0.3C171.3,109.5,171,109.5,170.6,109.5z M170.3,104.8
			c-0.3,0-0.6,0.1-0.8,0.3s-0.3,0.5-0.3,0.9h2.1c0-0.4-0.1-0.7-0.3-0.9C170.9,104.9,170.7,104.8,170.3,104.8z"/>
		<path class="st29" d="M173.2,103.9h1.7l1,3.1c0.1,0.3,0.1,0.6,0.2,1h0c0-0.3,0.1-0.7,0.2-1l1-3.1h1.6l-2.3,6.2
			c-0.2,0.6-0.5,1-0.9,1.3c-0.4,0.3-0.9,0.4-1.4,0.4c-0.3,0-0.5,0-0.8-0.1v-1.2c0.2,0,0.4,0.1,0.6,0.1c0.3,0,0.5-0.1,0.7-0.2
			c0.2-0.2,0.4-0.4,0.5-0.7l0.1-0.3L173.2,103.9z"/>
		<path class="st29" d="M187,109.4l-0.5-1.7h-2.6l-0.5,1.7h-1.7l2.6-7.3h1.9l2.6,7.3H187z M186.1,106.4c-0.5-1.6-0.8-2.4-0.8-2.6
			c-0.1-0.2-0.1-0.4-0.1-0.5c-0.1,0.4-0.4,1.5-0.9,3.1H186.1z"/>
		<path class="st29" d="M191.2,109.5c-0.6,0-1.2-0.3-1.5-0.8c-0.4-0.5-0.6-1.2-0.6-2.1c0-0.9,0.2-1.6,0.6-2.1
			c0.4-0.5,0.9-0.8,1.6-0.8c0.7,0,1.2,0.3,1.6,0.8h0c-0.1-0.4-0.1-0.8-0.1-1.1v-1.8h1.5v7.7h-1.2l-0.3-0.7h-0.1
			C192.4,109.2,191.9,109.5,191.2,109.5z M191.7,108.3c0.4,0,0.7-0.1,0.8-0.3c0.2-0.2,0.3-0.6,0.3-1.1v-0.2c0-0.6-0.1-1-0.3-1.3
			c-0.2-0.3-0.5-0.4-0.9-0.4c-0.3,0-0.6,0.1-0.8,0.4c-0.2,0.3-0.3,0.7-0.3,1.2c0,0.5,0.1,1,0.3,1.2
			C191.1,108.2,191.3,108.3,191.7,108.3z"/>
		<path class="st29" d="M199.3,109.4l-0.3-0.8h0c-0.3,0.3-0.5,0.5-0.8,0.7c-0.3,0.1-0.6,0.2-1.1,0.2c-0.5,0-0.9-0.2-1.3-0.5
			s-0.5-0.7-0.5-1.3c0-0.6,0.2-1,0.6-1.3c0.4-0.3,1-0.4,1.9-0.5l1,0v-0.2c0-0.6-0.3-0.8-0.9-0.8c-0.4,0-1,0.1-1.6,0.4l-0.5-1
			c0.6-0.3,1.3-0.5,2.1-0.5c0.7,0,1.3,0.2,1.7,0.5c0.4,0.3,0.6,0.8,0.6,1.5v3.7H199.3z M198.9,106.8l-0.6,0c-0.4,0-0.8,0.1-1,0.2
			c-0.2,0.1-0.3,0.4-0.3,0.7c0,0.4,0.2,0.6,0.7,0.6c0.4,0,0.6-0.1,0.8-0.3c0.2-0.2,0.3-0.5,0.3-0.8V106.8z"/>
		<path class="st29" d="M206.9,109.4h-1.5v-3.2c0-0.4-0.1-0.7-0.2-0.9c-0.1-0.2-0.3-0.3-0.6-0.3c-0.4,0-0.7,0.1-0.8,0.4
			c-0.2,0.3-0.3,0.7-0.3,1.4v2.6h-1.5v-5.5h1.2l0.2,0.7h0.1c0.1-0.3,0.4-0.5,0.6-0.6c0.3-0.1,0.6-0.2,1-0.2c0.8,0,1.4,0.3,1.7,0.8
			h0.1c0.1-0.3,0.4-0.5,0.7-0.6c0.3-0.1,0.6-0.2,1-0.2c0.6,0,1.1,0.2,1.4,0.5c0.3,0.3,0.5,0.8,0.5,1.5v3.6h-1.5v-3.2
			c0-0.4-0.1-0.7-0.2-0.9c-0.1-0.2-0.3-0.3-0.6-0.3c-0.4,0-0.6,0.1-0.8,0.4c-0.2,0.3-0.3,0.7-0.3,1.3V109.4z"/>
		<path class="st29" d="M215.7,107.8c0,0.6-0.2,1-0.6,1.3c-0.4,0.3-1,0.4-1.8,0.4c-0.4,0-0.7,0-1-0.1c-0.3-0.1-0.5-0.1-0.8-0.2v-1.2
			c0.3,0.1,0.6,0.2,0.9,0.3c0.4,0.1,0.7,0.1,0.9,0.1c0.5,0,0.8-0.2,0.8-0.5c0-0.1,0-0.2-0.1-0.3c-0.1-0.1-0.2-0.2-0.4-0.3
			c-0.2-0.1-0.4-0.2-0.7-0.3c-0.4-0.2-0.7-0.3-0.9-0.5c-0.2-0.2-0.3-0.3-0.4-0.5c-0.1-0.2-0.1-0.4-0.1-0.7c0-0.5,0.2-0.9,0.6-1.1
			c0.4-0.3,0.9-0.4,1.6-0.4c0.7,0,1.3,0.1,1.9,0.4l-0.5,1.1c-0.3-0.1-0.5-0.2-0.8-0.3c-0.2-0.1-0.5-0.1-0.7-0.1
			c-0.4,0-0.7,0.1-0.7,0.4c0,0.1,0.1,0.3,0.2,0.4c0.1,0.1,0.5,0.2,0.9,0.4c0.4,0.2,0.7,0.3,1,0.5c0.2,0.2,0.3,0.3,0.4,0.5
			C215.7,107.2,215.7,107.5,215.7,107.8z"/>
		<path class="st29" d="M217.9,108.2l0.1,0.1c-0.1,0.3-0.2,0.7-0.4,1.2c-0.2,0.4-0.3,0.8-0.5,1.2h-0.6c0.1-0.3,0.2-0.8,0.3-1.3
			c0.1-0.5,0.2-0.9,0.2-1.2H217.9z"/>
		<path class="st29" d="M225.2,109.4l-1.7-5.7h0c0.1,1.2,0.1,1.9,0.1,2.3v3.4h-1.4v-7.2h2.1l1.7,5.5h0l1.8-5.5h2.1v7.2h-1.4V106
			c0-0.2,0-0.3,0-0.6c0-0.2,0-0.8,0.1-1.7h0l-1.9,5.7H225.2z"/>
		<path class="st29" d="M235.1,109.4l-0.3-0.8h0c-0.3,0.3-0.5,0.5-0.8,0.7c-0.3,0.1-0.6,0.2-1.1,0.2c-0.5,0-0.9-0.2-1.3-0.5
			s-0.5-0.7-0.5-1.3c0-0.6,0.2-1,0.6-1.3c0.4-0.3,1-0.4,1.9-0.5l1,0v-0.2c0-0.6-0.3-0.8-0.9-0.8c-0.4,0-1,0.1-1.6,0.4l-0.5-1
			c0.6-0.3,1.3-0.5,2.1-0.5c0.7,0,1.3,0.2,1.7,0.5c0.4,0.3,0.6,0.8,0.6,1.5v3.7H235.1z M234.6,106.8l-0.6,0c-0.4,0-0.8,0.1-1,0.2
			c-0.2,0.1-0.3,0.4-0.3,0.7c0,0.4,0.2,0.6,0.7,0.6c0.4,0,0.6-0.1,0.8-0.3c0.2-0.2,0.3-0.5,0.3-0.8V106.8z"/>
		<path class="st29" d="M240.8,103.8c0.2,0,0.4,0,0.5,0l-0.1,1.4c-0.1,0-0.3,0-0.4,0c-0.5,0-0.9,0.1-1.1,0.4c-0.3,0.2-0.4,0.6-0.4,1
			v2.8h-1.5v-5.5h1.1l0.2,0.9h0.1c0.2-0.3,0.4-0.6,0.7-0.7C240.1,103.9,240.4,103.8,240.8,103.8z"/>
		<path class="st29" d="M242.2,102.4c0-0.5,0.3-0.7,0.8-0.7s0.8,0.2,0.8,0.7c0,0.2-0.1,0.4-0.2,0.5s-0.3,0.2-0.6,0.2
			C242.5,103.2,242.2,102.9,242.2,102.4z M243.8,109.4h-1.5v-5.5h1.5V109.4z"/>
		<path class="st29" d="M247.9,109.5c-0.9,0-1.6-0.2-2.1-0.7c-0.5-0.5-0.8-1.2-0.8-2.1c0-0.9,0.2-1.6,0.7-2.1
			c0.5-0.5,1.1-0.8,1.9-0.8c0.8,0,1.4,0.2,1.8,0.7c0.4,0.4,0.7,1.1,0.7,1.8v0.7h-3.6c0,0.4,0.1,0.8,0.4,1c0.2,0.2,0.6,0.4,1,0.4
			c0.3,0,0.6,0,0.9-0.1c0.3-0.1,0.6-0.2,0.9-0.3v1.2c-0.3,0.1-0.5,0.2-0.8,0.3C248.7,109.5,248.3,109.5,247.9,109.5z M247.7,104.8
			c-0.3,0-0.6,0.1-0.8,0.3c-0.2,0.2-0.3,0.5-0.3,0.9h2.1c0-0.4-0.1-0.7-0.3-0.9C248.3,104.9,248,104.8,247.7,104.8z"/>
		<path class="st29" d="M250.9,107.3v-1.2h2.7v1.2H250.9z"/>
		<path class="st29" d="M260.7,105.7c0,1.2-0.3,2.1-1,2.7c-0.7,0.6-1.7,0.9-2.9,0.9h-2v-7.2h2.3c1.2,0,2.1,0.3,2.7,0.9
			C260.4,103.7,260.7,104.6,260.7,105.7z M259.2,105.8c0-1.6-0.7-2.3-2.1-2.3h-0.8v4.7h0.7C258.4,108.1,259.2,107.3,259.2,105.8z"/>
		<path class="st29" d="M267.2,106.6c0,0.9-0.2,1.6-0.7,2.1c-0.5,0.5-1.1,0.8-2,0.8c-0.5,0-1-0.1-1.4-0.3c-0.4-0.2-0.7-0.6-0.9-1
			c-0.2-0.4-0.3-0.9-0.3-1.5c0-0.9,0.2-1.6,0.7-2.1c0.5-0.5,1.1-0.8,2-0.8c0.5,0,1,0.1,1.4,0.3c0.4,0.2,0.7,0.6,0.9,1
			C267,105.5,267.2,106,267.2,106.6z M263.3,106.6c0,0.5,0.1,1,0.3,1.2c0.2,0.3,0.5,0.4,0.9,0.4c0.4,0,0.7-0.1,0.9-0.4
			c0.2-0.3,0.3-0.7,0.3-1.2c0-0.5-0.1-1-0.3-1.2c-0.2-0.3-0.5-0.4-0.9-0.4c-0.4,0-0.7,0.1-0.9,0.4
			C263.4,105.7,263.3,106.1,263.3,106.6z"/>
		<path class="st29" d="M269.9,109.4h-1.5v-7.7h1.5V109.4z"/>
		<path class="st29" d="M276.4,109.4h-1.5v-3.2c0-0.4-0.1-0.7-0.2-0.9s-0.3-0.3-0.6-0.3c-0.4,0-0.7,0.1-0.8,0.4
			c-0.2,0.3-0.3,0.7-0.3,1.4v2.6h-1.5v-5.5h1.2l0.2,0.7h0.1c0.1-0.3,0.4-0.5,0.6-0.6c0.3-0.1,0.6-0.2,1-0.2c0.8,0,1.4,0.3,1.7,0.8
			h0.1c0.1-0.3,0.4-0.5,0.7-0.6c0.3-0.1,0.6-0.2,1-0.2c0.6,0,1.1,0.2,1.4,0.5c0.3,0.3,0.5,0.8,0.5,1.5v3.6h-1.5v-3.2
			c0-0.4-0.1-0.7-0.2-0.9c-0.1-0.2-0.3-0.3-0.6-0.3c-0.4,0-0.6,0.1-0.8,0.4c-0.2,0.3-0.3,0.7-0.3,1.3V109.4z"/>
		<path class="st29" d="M284.9,109.4l-0.3-0.8h0c-0.3,0.3-0.5,0.5-0.8,0.7c-0.3,0.1-0.6,0.2-1.1,0.2c-0.5,0-0.9-0.2-1.3-0.5
			s-0.5-0.7-0.5-1.3c0-0.6,0.2-1,0.6-1.3c0.4-0.3,1-0.4,1.9-0.5l1,0v-0.2c0-0.6-0.3-0.8-0.9-0.8c-0.4,0-1,0.1-1.6,0.4l-0.5-1
			c0.6-0.3,1.3-0.5,2.1-0.5c0.7,0,1.3,0.2,1.7,0.5c0.4,0.3,0.6,0.8,0.6,1.5v3.7H284.9z M284.5,106.8l-0.6,0c-0.4,0-0.8,0.1-1,0.2
			c-0.2,0.1-0.3,0.4-0.3,0.7c0,0.4,0.2,0.6,0.7,0.6c0.4,0,0.6-0.1,0.8-0.3c0.2-0.2,0.3-0.5,0.3-0.8V106.8z"/>
		<path class="st29" d="M293.4,103.3c-0.6,0-1,0.2-1.3,0.6s-0.5,1-0.5,1.8c0,1.6,0.6,2.4,1.8,2.4c0.5,0,1.1-0.1,1.8-0.4v1.3
			c-0.6,0.2-1.3,0.4-2,0.4c-1.1,0-1.9-0.3-2.4-1c-0.6-0.6-0.8-1.6-0.8-2.7c0-0.8,0.1-1.4,0.4-2c0.3-0.6,0.7-1,1.2-1.3
			c0.5-0.3,1.1-0.5,1.8-0.5c0.7,0,1.4,0.2,2.1,0.5l-0.5,1.2c-0.3-0.1-0.5-0.2-0.8-0.3C293.9,103.4,293.6,103.3,293.4,103.3z"/>
		<path class="st29" d="M301.7,109.4h-1.5v-3.2c0-0.8-0.3-1.2-0.9-1.2c-0.4,0-0.7,0.1-0.9,0.4c-0.2,0.3-0.3,0.8-0.3,1.4v2.6h-1.5
			v-7.7h1.5v1.6c0,0.1,0,0.4,0,0.9l0,0.4h0.1c0.3-0.5,0.9-0.8,1.6-0.8c0.6,0,1.1,0.2,1.5,0.5c0.3,0.4,0.5,0.9,0.5,1.5V109.4z"/>
		<path class="st29" d="M308.3,106.6c0,0.9-0.2,1.6-0.7,2.1c-0.5,0.5-1.1,0.8-2,0.8c-0.5,0-1-0.1-1.4-0.3c-0.4-0.2-0.7-0.6-0.9-1
			c-0.2-0.4-0.3-0.9-0.3-1.5c0-0.9,0.2-1.6,0.7-2.1c0.5-0.5,1.1-0.8,2-0.8c0.5,0,1,0.1,1.4,0.3c0.4,0.2,0.7,0.6,0.9,1
			C308.2,105.5,308.3,106,308.3,106.6z M304.5,106.6c0,0.5,0.1,1,0.3,1.2c0.2,0.3,0.5,0.4,0.9,0.4c0.4,0,0.7-0.1,0.9-0.4
			c0.2-0.3,0.3-0.7,0.3-1.2c0-0.5-0.1-1-0.3-1.2c-0.2-0.3-0.5-0.4-0.9-0.4c-0.4,0-0.7,0.1-0.9,0.4
			C304.6,105.7,304.5,106.1,304.5,106.6z"/>
		<path class="st29" d="M312.6,109.5c-0.6,0-1.2-0.2-1.5-0.7H311c0.1,0.5,0.1,0.7,0.1,0.8v2.2h-1.5v-8h1.2l0.2,0.7h0.1
			c0.4-0.5,0.9-0.8,1.6-0.8c0.7,0,1.2,0.3,1.5,0.8c0.4,0.5,0.6,1.2,0.6,2.1c0,0.6-0.1,1.1-0.3,1.5c-0.2,0.4-0.4,0.8-0.7,1
			C313.4,109.4,313,109.5,312.6,109.5z M312.2,105c-0.4,0-0.6,0.1-0.8,0.3c-0.2,0.2-0.3,0.6-0.3,1.1v0.2c0,0.6,0.1,1,0.3,1.3
			c0.2,0.3,0.5,0.4,0.8,0.4c0.7,0,1-0.6,1-1.7c0-0.5-0.1-1-0.2-1.2C312.8,105.1,312.5,105,312.2,105z"/>
		<path class="st29" d="M321.1,109.4h-1.5v-3.2c0-0.8-0.3-1.2-0.9-1.2c-0.4,0-0.7,0.1-0.9,0.4c-0.2,0.3-0.3,0.8-0.3,1.4v2.6H316
			v-7.7h1.5v1.6c0,0.1,0,0.4,0,0.9l0,0.4h0.1c0.3-0.5,0.9-0.8,1.6-0.8c0.6,0,1.1,0.2,1.5,0.5c0.3,0.4,0.5,0.9,0.5,1.5V109.4z"/>
		<path class="st29" d="M325.1,109.5c-0.9,0-1.6-0.2-2.1-0.7c-0.5-0.5-0.8-1.2-0.8-2.1c0-0.9,0.2-1.6,0.7-2.1
			c0.5-0.5,1.1-0.8,1.9-0.8c0.8,0,1.4,0.2,1.8,0.7c0.4,0.4,0.7,1.1,0.7,1.8v0.7h-3.6c0,0.4,0.1,0.8,0.4,1c0.2,0.2,0.6,0.4,1,0.4
			c0.3,0,0.6,0,0.9-0.1c0.3-0.1,0.6-0.2,0.9-0.3v1.2c-0.3,0.1-0.5,0.2-0.8,0.3C325.9,109.5,325.6,109.5,325.1,109.5z M324.9,104.8
			c-0.3,0-0.6,0.1-0.8,0.3c-0.2,0.2-0.3,0.5-0.3,0.9h2.1c0-0.4-0.1-0.7-0.3-0.9C325.5,104.9,325.2,104.8,324.9,104.8z"/>
		<path class="st29" d="M330.1,109.4h-1.5v-7.7h1.5V109.4z"/>
		<path class="st29" d="M332.6,108.2l0.1,0.1c-0.1,0.3-0.2,0.7-0.4,1.2c-0.2,0.4-0.3,0.8-0.5,1.2h-0.6c0.1-0.3,0.2-0.8,0.3-1.3
			c0.1-0.5,0.2-0.9,0.2-1.2H332.6z"/>
		<path class="st29" d="M166,119.5c0,0.7-0.2,1.2-0.7,1.5c-0.5,0.4-1.1,0.6-2,0.6c-0.8,0-1.5-0.1-2-0.4v-1.4
			c0.5,0.2,0.9,0.4,1.2,0.5c0.3,0.1,0.6,0.1,0.9,0.1c0.3,0,0.6-0.1,0.8-0.2c0.2-0.1,0.3-0.3,0.3-0.6c0-0.1,0-0.3-0.1-0.4
			c-0.1-0.1-0.2-0.2-0.3-0.3c-0.2-0.1-0.5-0.3-0.9-0.5c-0.4-0.2-0.8-0.4-1-0.6s-0.4-0.4-0.5-0.7c-0.1-0.3-0.2-0.6-0.2-0.9
			c0-0.6,0.2-1.1,0.6-1.5s1-0.5,1.8-0.5c0.4,0,0.7,0,1.1,0.1c0.3,0.1,0.7,0.2,1.1,0.4l-0.5,1.2c-0.4-0.2-0.7-0.3-1-0.3
			c-0.3-0.1-0.5-0.1-0.7-0.1c-0.3,0-0.5,0.1-0.7,0.2c-0.2,0.1-0.2,0.3-0.2,0.5c0,0.1,0,0.3,0.1,0.4c0.1,0.1,0.2,0.2,0.3,0.3
			c0.1,0.1,0.5,0.3,1,0.5c0.7,0.3,1.1,0.6,1.4,1C165.9,118.7,166,119.1,166,119.5z"/>
		<path class="st29" d="M172.3,121.6h-1.5v-3.2c0-0.8-0.3-1.2-0.9-1.2c-0.4,0-0.7,0.1-0.9,0.4c-0.2,0.3-0.3,0.8-0.3,1.4v2.6h-1.5
			v-7.7h1.5v1.6c0,0.1,0,0.4,0,0.9l0,0.4h0.1c0.3-0.5,0.9-0.8,1.6-0.8c0.6,0,1.1,0.2,1.5,0.5c0.3,0.4,0.5,0.9,0.5,1.5V121.6z"/>
		<path class="st29" d="M176.3,121.6c-0.9,0-1.6-0.2-2.1-0.7c-0.5-0.5-0.8-1.2-0.8-2.1c0-0.9,0.2-1.6,0.7-2.1
			c0.5-0.5,1.1-0.8,1.9-0.8c0.8,0,1.4,0.2,1.8,0.7c0.4,0.4,0.7,1.1,0.7,1.8v0.7H175c0,0.4,0.1,0.8,0.4,1c0.2,0.2,0.6,0.4,1,0.4
			c0.3,0,0.6,0,0.9-0.1c0.3-0.1,0.6-0.2,0.9-0.3v1.2c-0.3,0.1-0.5,0.2-0.8,0.3C177.1,121.6,176.8,121.6,176.3,121.6z M176.1,117
			c-0.3,0-0.6,0.1-0.8,0.3c-0.2,0.2-0.3,0.5-0.3,0.9h2.1c0-0.4-0.1-0.7-0.3-0.9C176.7,117.1,176.4,117,176.1,117z"/>
		<path class="st29" d="M182.9,121.6c-0.6,0-1.2-0.2-1.5-0.7h-0.1c0.1,0.5,0.1,0.7,0.1,0.8v2.2h-1.5v-8h1.2l0.2,0.7h0.1
			c0.4-0.5,0.9-0.8,1.6-0.8c0.7,0,1.2,0.3,1.5,0.8c0.4,0.5,0.6,1.2,0.6,2.1c0,0.6-0.1,1.1-0.3,1.5c-0.2,0.4-0.4,0.8-0.7,1
			C183.7,121.5,183.3,121.6,182.9,121.6z M182.4,117.1c-0.4,0-0.6,0.1-0.8,0.3c-0.2,0.2-0.3,0.6-0.3,1.1v0.2c0,0.6,0.1,1,0.3,1.3
			s0.5,0.4,0.8,0.4c0.7,0,1-0.6,1-1.7c0-0.5-0.1-1-0.2-1.2C183,117.3,182.8,117.1,182.4,117.1z"/>
		<path class="st29" d="M189.7,121.6l-0.3-0.8h0c-0.3,0.3-0.5,0.5-0.8,0.7c-0.3,0.1-0.6,0.2-1.1,0.2c-0.5,0-0.9-0.2-1.3-0.5
			c-0.3-0.3-0.5-0.7-0.5-1.3c0-0.6,0.2-1,0.6-1.3c0.4-0.3,1-0.4,1.9-0.5l1,0v-0.2c0-0.6-0.3-0.8-0.9-0.8c-0.4,0-1,0.1-1.6,0.4
			l-0.5-1c0.6-0.3,1.3-0.5,2.1-0.5c0.7,0,1.3,0.2,1.7,0.5c0.4,0.3,0.6,0.8,0.6,1.5v3.7H189.7z M189.3,119l-0.6,0
			c-0.4,0-0.8,0.1-1,0.2c-0.2,0.1-0.3,0.4-0.3,0.7c0,0.4,0.2,0.6,0.7,0.6c0.4,0,0.6-0.1,0.8-0.3c0.2-0.2,0.3-0.5,0.3-0.8V119z"/>
		<path class="st29" d="M195.4,115.9c0.2,0,0.4,0,0.5,0l-0.1,1.4c-0.1,0-0.3,0-0.4,0c-0.5,0-0.9,0.1-1.1,0.4c-0.3,0.2-0.4,0.6-0.4,1
			v2.8h-1.5V116h1.1l0.2,0.9h0.1c0.2-0.3,0.4-0.6,0.7-0.7C194.8,116,195.1,115.9,195.4,115.9z"/>
		<path class="st29" d="M198.7,121.6c-0.6,0-1.2-0.3-1.5-0.8c-0.4-0.5-0.6-1.2-0.6-2.1c0-0.9,0.2-1.6,0.6-2.1
			c0.4-0.5,0.9-0.8,1.6-0.8c0.7,0,1.2,0.3,1.6,0.8h0c-0.1-0.4-0.1-0.8-0.1-1.1v-1.8h1.5v7.7h-1.2l-0.3-0.7h-0.1
			C199.9,121.4,199.4,121.6,198.7,121.6z M199.2,120.4c0.4,0,0.7-0.1,0.8-0.3c0.2-0.2,0.3-0.6,0.3-1.1v-0.2c0-0.6-0.1-1-0.3-1.3
			c-0.2-0.3-0.5-0.4-0.9-0.4c-0.3,0-0.6,0.1-0.8,0.4c-0.2,0.3-0.3,0.7-0.3,1.2c0,0.5,0.1,1,0.3,1.2
			C198.6,120.3,198.9,120.4,199.2,120.4z"/>
		<path class="st29" d="M207.6,121.6h-1.5v-7.2h4.1v1.3h-2.6v1.9h2.5v1.3h-2.5V121.6z"/>
		<path class="st29" d="M215,121.6l-0.3-0.8h0c-0.3,0.3-0.5,0.5-0.8,0.7c-0.3,0.1-0.6,0.2-1.1,0.2c-0.5,0-0.9-0.2-1.3-0.5
			c-0.3-0.3-0.5-0.7-0.5-1.3c0-0.6,0.2-1,0.6-1.3c0.4-0.3,1-0.4,1.9-0.5l1,0v-0.2c0-0.6-0.3-0.8-0.9-0.8c-0.4,0-1,0.1-1.6,0.4
			l-0.5-1c0.6-0.3,1.3-0.5,2.1-0.5c0.7,0,1.3,0.2,1.7,0.5c0.4,0.3,0.6,0.8,0.6,1.5v3.7H215z M214.6,119l-0.6,0c-0.4,0-0.8,0.1-1,0.2
			c-0.2,0.1-0.3,0.4-0.3,0.7c0,0.4,0.2,0.6,0.7,0.6c0.4,0,0.6-0.1,0.8-0.3c0.2-0.2,0.3-0.5,0.3-0.8V119z"/>
		<path class="st29" d="M217.6,114.6c0-0.5,0.3-0.7,0.8-0.7s0.8,0.2,0.8,0.7c0,0.2-0.1,0.4-0.2,0.5c-0.1,0.1-0.3,0.2-0.6,0.2
			C217.9,115.3,217.6,115.1,217.6,114.6z M219.2,121.6h-1.5V116h1.5V121.6z"/>
		<path class="st29" d="M223.8,115.9c0.2,0,0.4,0,0.5,0l-0.1,1.4c-0.1,0-0.3,0-0.4,0c-0.5,0-0.9,0.1-1.1,0.4c-0.3,0.2-0.4,0.6-0.4,1
			v2.8h-1.5V116h1.1l0.2,0.9h0.1c0.2-0.3,0.4-0.6,0.7-0.7C223.2,116,223.5,115.9,223.8,115.9z"/>
		<path class="st29" d="M227.8,121.6c-0.9,0-1.6-0.2-2.1-0.7s-0.8-1.2-0.8-2.1c0-0.9,0.2-1.6,0.7-2.1c0.5-0.5,1.1-0.8,1.9-0.8
			c0.8,0,1.4,0.2,1.8,0.7c0.4,0.4,0.7,1.1,0.7,1.8v0.7h-3.6c0,0.4,0.1,0.8,0.4,1c0.2,0.2,0.6,0.4,1,0.4c0.3,0,0.6,0,0.9-0.1
			c0.3-0.1,0.6-0.2,0.9-0.3v1.2c-0.3,0.1-0.5,0.2-0.8,0.3C228.6,121.6,228.3,121.6,227.8,121.6z M227.6,117c-0.3,0-0.6,0.1-0.8,0.3
			c-0.2,0.2-0.3,0.5-0.3,0.9h2.1c0-0.4-0.1-0.7-0.3-0.9C228.2,117.1,228,117,227.6,117z"/>
		<path class="st29" d="M230.5,116h1.7l1,3.1c0.1,0.3,0.1,0.6,0.2,1h0c0-0.3,0.1-0.7,0.2-1l1-3.1h1.6l-2.3,6.2
			c-0.2,0.6-0.5,1-0.9,1.3c-0.4,0.3-0.9,0.4-1.4,0.4c-0.3,0-0.5,0-0.8-0.1v-1.2c0.2,0,0.4,0.1,0.6,0.1c0.3,0,0.5-0.1,0.7-0.2
			c0.2-0.2,0.4-0.4,0.5-0.7l0.1-0.3L230.5,116z"/>
		<path class="st29" d="M239.5,119.7c0-0.4,0.1-0.8,0.3-1.1c0.2-0.3,0.6-0.7,1.2-1c-0.3-0.3-0.5-0.6-0.6-0.7
			c-0.1-0.2-0.2-0.3-0.2-0.5c-0.1-0.2-0.1-0.4-0.1-0.5c0-0.5,0.2-0.9,0.5-1.2c0.3-0.3,0.8-0.4,1.3-0.4c0.5,0,1,0.1,1.3,0.4
			c0.3,0.3,0.5,0.7,0.5,1.1c0,0.4-0.1,0.7-0.3,1c-0.2,0.3-0.6,0.6-1.1,0.9l2,1.9c0.2-0.2,0.3-0.4,0.4-0.7c0.1-0.3,0.2-0.6,0.3-0.9
			h0.8c-0.2,0.9-0.6,1.7-1,2.1l1.5,1.4h-1.1l-0.9-0.9c-0.4,0.3-0.8,0.6-1.2,0.8c-0.4,0.2-0.9,0.2-1.3,0.2c-0.7,0-1.3-0.2-1.6-0.5
			C239.7,120.8,239.5,120.3,239.5,119.7z M241.7,120.9c0.8,0,1.5-0.3,2-0.8l-2.2-2.1c-0.4,0.2-0.6,0.4-0.8,0.6
			c-0.2,0.1-0.3,0.3-0.3,0.5c-0.1,0.2-0.1,0.4-0.1,0.6c0,0.4,0.1,0.7,0.4,0.9C241,120.8,241.3,120.9,241.7,120.9z M241,115.8
			c0,0.2,0.1,0.4,0.2,0.6c0.1,0.2,0.3,0.5,0.6,0.7c0.4-0.2,0.7-0.5,0.9-0.7c0.2-0.2,0.2-0.5,0.2-0.7c0-0.3-0.1-0.5-0.3-0.6
			c-0.2-0.2-0.4-0.2-0.7-0.2c-0.3,0-0.5,0.1-0.7,0.2C241.1,115.3,241,115.5,241,115.8z"/>
		<path class="st29" d="M254.9,116.6c0,0.8-0.2,1.4-0.7,1.8c-0.5,0.4-1.2,0.6-2.1,0.6h-0.7v2.6h-1.5v-7.2h2.3c0.9,0,1.5,0.2,2,0.6
			C254.6,115.3,254.9,115.8,254.9,116.6z M251.4,117.7h0.5c0.5,0,0.8-0.1,1.1-0.3c0.2-0.2,0.4-0.5,0.4-0.8c0-0.4-0.1-0.6-0.3-0.8
			c-0.2-0.2-0.5-0.3-0.9-0.3h-0.7V117.7z"/>
		<path class="st29" d="M259.2,115.9c0.2,0,0.4,0,0.5,0l-0.1,1.4c-0.1,0-0.3,0-0.4,0c-0.5,0-0.9,0.1-1.1,0.4c-0.3,0.2-0.4,0.6-0.4,1
			v2.8h-1.5V116h1.1l0.2,0.9h0.1c0.2-0.3,0.4-0.6,0.7-0.7C258.5,116,258.8,115.9,259.2,115.9z"/>
		<path class="st29" d="M265.7,118.8c0,0.9-0.2,1.6-0.7,2.1c-0.5,0.5-1.1,0.8-2,0.8c-0.5,0-1-0.1-1.4-0.3c-0.4-0.2-0.7-0.6-0.9-1
			c-0.2-0.4-0.3-0.9-0.3-1.5c0-0.9,0.2-1.6,0.7-2.1c0.5-0.5,1.1-0.8,2-0.8c0.5,0,1,0.1,1.4,0.3s0.7,0.6,0.9,1
			C265.6,117.7,265.7,118.2,265.7,118.8z M261.9,118.8c0,0.5,0.1,1,0.3,1.2c0.2,0.3,0.5,0.4,0.9,0.4c0.4,0,0.7-0.1,0.9-0.4
			c0.2-0.3,0.3-0.7,0.3-1.2c0-0.5-0.1-1-0.3-1.2c-0.2-0.3-0.5-0.4-0.9-0.4c-0.4,0-0.7,0.1-0.9,0.4
			C262,117.8,261.9,118.2,261.9,118.8z"/>
		<path class="st29" d="M270,117.2h-1.3v4.4h-1.5v-4.4h-0.8v-0.7l0.8-0.4v-0.4c0-0.6,0.2-1.1,0.5-1.4c0.3-0.3,0.8-0.4,1.5-0.4
			c0.5,0,1,0.1,1.4,0.2l-0.4,1.1c-0.3-0.1-0.6-0.1-0.8-0.1c-0.2,0-0.4,0.1-0.5,0.2c-0.1,0.1-0.1,0.3-0.1,0.5v0.3h1.3V117.2z"/>
		<path class="st29" d="M270.7,120.8c0-0.3,0.1-0.5,0.2-0.6c0.1-0.1,0.4-0.2,0.6-0.2c0.3,0,0.5,0.1,0.6,0.2c0.2,0.1,0.2,0.4,0.2,0.6
			c0,0.3-0.1,0.5-0.2,0.6c-0.2,0.1-0.4,0.2-0.6,0.2c-0.3,0-0.5-0.1-0.6-0.2C270.8,121.3,270.7,121.1,270.7,120.8z"/>
		<path class="st29" d="M278.1,118.8v2.8h-1.5v-7.2h2.1c1,0,1.7,0.2,2.2,0.5c0.5,0.4,0.7,0.9,0.7,1.6c0,0.4-0.1,0.8-0.4,1.1
			c-0.2,0.3-0.6,0.6-1,0.8c1.1,1.6,1.8,2.7,2.1,3.2h-1.7l-1.7-2.8H278.1z M278.1,117.5h0.5c0.5,0,0.8-0.1,1.1-0.2
			c0.2-0.2,0.3-0.4,0.3-0.8c0-0.3-0.1-0.6-0.4-0.7c-0.2-0.1-0.6-0.2-1.1-0.2h-0.5V117.5z"/>
		<path class="st29" d="M288.1,118.8c0,0.9-0.2,1.6-0.7,2.1c-0.5,0.5-1.1,0.8-2,0.8c-0.5,0-1-0.1-1.4-0.3c-0.4-0.2-0.7-0.6-0.9-1
			c-0.2-0.4-0.3-0.9-0.3-1.5c0-0.9,0.2-1.6,0.7-2.1c0.5-0.5,1.1-0.8,2-0.8c0.5,0,1,0.1,1.4,0.3s0.7,0.6,0.9,1
			C288,117.7,288.1,118.2,288.1,118.8z M284.3,118.8c0,0.5,0.1,1,0.3,1.2c0.2,0.3,0.5,0.4,0.9,0.4c0.4,0,0.7-0.1,0.9-0.4
			c0.2-0.3,0.3-0.7,0.3-1.2c0-0.5-0.1-1-0.3-1.2c-0.2-0.3-0.5-0.4-0.9-0.4c-0.4,0-0.7,0.1-0.9,0.4
			C284.4,117.8,284.3,118.2,284.3,118.8z"/>
		<path class="st29" d="M292.4,115.9c0.7,0,1.2,0.3,1.5,0.8c0.4,0.5,0.6,1.2,0.6,2.1c0,0.9-0.2,1.6-0.6,2.1
			c-0.4,0.5-0.9,0.8-1.6,0.8c-0.6,0-1.2-0.2-1.5-0.7h-0.1l-0.3,0.6h-1.2v-7.7h1.5v1.8c0,0.2,0,0.6-0.1,1.1h0.1
			C291.2,116.2,291.8,115.9,292.4,115.9z M292,117.1c-0.4,0-0.6,0.1-0.8,0.3c-0.2,0.2-0.3,0.6-0.3,1.1v0.2c0,0.6,0.1,1,0.3,1.3
			c0.2,0.3,0.5,0.4,0.8,0.4c0.3,0,0.6-0.1,0.7-0.4c0.2-0.3,0.3-0.7,0.3-1.2c0-0.5-0.1-1-0.3-1.2C292.5,117.3,292.3,117.1,292,117.1z
			"/>
		<path class="st29" d="M298.3,121.6c-0.9,0-1.6-0.2-2.1-0.7c-0.5-0.5-0.8-1.2-0.8-2.1c0-0.9,0.2-1.6,0.7-2.1
			c0.5-0.5,1.1-0.8,1.9-0.8c0.8,0,1.4,0.2,1.8,0.7c0.4,0.4,0.7,1.1,0.7,1.8v0.7H297c0,0.4,0.1,0.8,0.4,1c0.2,0.2,0.6,0.4,1,0.4
			c0.3,0,0.6,0,0.9-0.1c0.3-0.1,0.6-0.2,0.9-0.3v1.2c-0.3,0.1-0.5,0.2-0.8,0.3C299.1,121.6,298.7,121.6,298.3,121.6z M298.1,117
			c-0.3,0-0.6,0.1-0.8,0.3s-0.3,0.5-0.3,0.9h2.1c0-0.4-0.1-0.7-0.3-0.9C298.6,117.1,298.4,117,298.1,117z"/>
		<path class="st29" d="M304.9,115.9c0.2,0,0.4,0,0.5,0l-0.1,1.4c-0.1,0-0.3,0-0.4,0c-0.5,0-0.9,0.1-1.1,0.4c-0.3,0.2-0.4,0.6-0.4,1
			v2.8h-1.5V116h1.1l0.2,0.9h0.1c0.2-0.3,0.4-0.6,0.7-0.7C304.2,116,304.5,115.9,304.9,115.9z"/>
		<path class="st29" d="M308.7,120.4c0.3,0,0.6-0.1,1-0.2v1.1c-0.4,0.2-0.8,0.3-1.4,0.3c-0.6,0-1-0.2-1.3-0.5
			c-0.3-0.3-0.4-0.8-0.4-1.4v-2.7h-0.7v-0.6l0.8-0.5l0.4-1.2h1v1.2h1.5v1.1H308v2.7c0,0.2,0.1,0.4,0.2,0.5
			C308.3,120.4,308.5,120.4,308.7,120.4z"/>
		<path class="st29" d="M316.3,121.6h-1.5v-6h-2v-1.3h5.5v1.3h-2V121.6z"/>
		<path class="st29" d="M324.4,121.6h-1.5v-3.2c0-0.8-0.3-1.2-0.9-1.2c-0.4,0-0.7,0.1-0.9,0.4c-0.2,0.3-0.3,0.8-0.3,1.4v2.6h-1.5
			v-7.7h1.5v1.6c0,0.1,0,0.4,0,0.9l0,0.4h0.1c0.3-0.5,0.9-0.8,1.6-0.8c0.6,0,1.1,0.2,1.5,0.5c0.3,0.4,0.5,0.9,0.5,1.5V121.6z"/>
		<path class="st29" d="M329.8,121.6l-0.2-0.7h-0.1c-0.2,0.3-0.4,0.5-0.7,0.6c-0.3,0.1-0.6,0.2-1,0.2c-0.6,0-1.1-0.2-1.5-0.5
			c-0.3-0.3-0.5-0.8-0.5-1.5V116h1.5v3.2c0,0.4,0.1,0.7,0.2,0.9s0.4,0.3,0.7,0.3c0.4,0,0.7-0.1,0.9-0.4c0.2-0.3,0.3-0.7,0.3-1.4V116
			h1.5v5.5H329.8z"/>
		<path class="st29" d="M335.7,115.9c0.2,0,0.4,0,0.5,0l-0.1,1.4c-0.1,0-0.3,0-0.4,0c-0.5,0-0.9,0.1-1.1,0.4c-0.3,0.2-0.4,0.6-0.4,1
			v2.8h-1.5V116h1.1l0.2,0.9h0.1c0.2-0.3,0.4-0.6,0.7-0.7C335,116,335.3,115.9,335.7,115.9z"/>
		<path class="st29" d="M342.1,121.6h-1.5v-3.2c0-0.4-0.1-0.7-0.2-0.9c-0.1-0.2-0.3-0.3-0.6-0.3c-0.4,0-0.7,0.1-0.8,0.4
			c-0.2,0.3-0.3,0.7-0.3,1.4v2.6h-1.5V116h1.2l0.2,0.7h0.1c0.1-0.3,0.4-0.5,0.6-0.6c0.3-0.1,0.6-0.2,1-0.2c0.8,0,1.4,0.3,1.7,0.8
			h0.1c0.1-0.3,0.4-0.5,0.7-0.6c0.3-0.1,0.6-0.2,1-0.2c0.6,0,1.1,0.2,1.4,0.5c0.3,0.3,0.5,0.8,0.5,1.5v3.6h-1.5v-3.2
			c0-0.4-0.1-0.7-0.2-0.9c-0.1-0.2-0.3-0.3-0.6-0.3c-0.4,0-0.6,0.1-0.8,0.4c-0.2,0.3-0.3,0.7-0.3,1.3V121.6z"/>
		<path class="st29" d="M350.6,121.6l-0.3-0.8h0c-0.3,0.3-0.5,0.5-0.8,0.7c-0.3,0.1-0.6,0.2-1.1,0.2c-0.5,0-0.9-0.2-1.3-0.5
			c-0.3-0.3-0.5-0.7-0.5-1.3c0-0.6,0.2-1,0.6-1.3c0.4-0.3,1-0.4,1.9-0.5l1,0v-0.2c0-0.6-0.3-0.8-0.9-0.8c-0.4,0-1,0.1-1.6,0.4
			l-0.5-1c0.6-0.3,1.3-0.5,2.1-0.5c0.7,0,1.3,0.2,1.7,0.5c0.4,0.3,0.6,0.8,0.6,1.5v3.7H350.6z M350.2,119l-0.6,0
			c-0.4,0-0.8,0.1-1,0.2c-0.2,0.1-0.3,0.4-0.3,0.7c0,0.4,0.2,0.6,0.7,0.6c0.4,0,0.6-0.1,0.8-0.3c0.2-0.2,0.3-0.5,0.3-0.8V119z"/>
		<path class="st29" d="M358.3,121.6h-1.5v-3.2c0-0.4-0.1-0.7-0.2-0.9c-0.1-0.2-0.4-0.3-0.7-0.3c-0.4,0-0.7,0.1-0.9,0.4
			c-0.2,0.3-0.3,0.7-0.3,1.4v2.6h-1.5V116h1.2l0.2,0.7h0.1c0.2-0.3,0.4-0.5,0.7-0.6c0.3-0.1,0.6-0.2,1-0.2c0.6,0,1.1,0.2,1.5,0.5
			c0.3,0.3,0.5,0.9,0.5,1.5V121.6z"/>
		<path class="st29" d="M359.7,120.8c0-0.3,0.1-0.5,0.2-0.6c0.1-0.1,0.4-0.2,0.6-0.2c0.3,0,0.5,0.1,0.6,0.2c0.2,0.1,0.2,0.4,0.2,0.6
			c0,0.3-0.1,0.5-0.2,0.6c-0.2,0.1-0.4,0.2-0.6,0.2c-0.3,0-0.5-0.1-0.6-0.2C359.7,121.3,359.7,121.1,359.7,120.8z"/>
		<path class="st30" d="M166.3,155.2h-3.9v-14.8h8.7v3.2h-4.8v2.8h4.4v3.2h-4.4V155.2z"/>
		<path class="st30" d="M177.5,149.8v5.4h-4v-14.8h4.8c4,0,6,1.5,6,4.4c0,1.7-0.8,3-2.5,4l4.3,6.4h-4.5l-3.1-5.4H177.5z
			 M177.5,146.8h0.7c1.4,0,2.1-0.6,2.1-1.8c0-1-0.7-1.5-2.1-1.5h-0.8V146.8z"/>
		<path class="st30" d="M187.6,155.2v-14.8h4v14.8H187.6z"/>
		<path class="st30" d="M198.2,152.1l0.1,0.2c-0.7,2.6-1.2,4.5-1.8,5.7h-2.8c0.2-0.9,0.4-2,0.6-3.1c0.2-1.2,0.3-2.1,0.4-2.8H198.2z"
			/>
		<path class="st30" d="M220.6,155.2h-5.2l-5.4-10.4h-0.1c0.1,1.6,0.2,2.9,0.2,3.7v6.7h-3.5v-14.8h5.2l5.4,10.3h0.1
			c-0.1-1.5-0.1-2.7-0.1-3.6v-6.7h3.6V155.2z"/>
		<path class="st30" d="M237.6,147.8c0,2.5-0.6,4.4-1.8,5.7c-1.2,1.3-3,1.9-5.4,1.9c-2.3,0-4.1-0.6-5.3-2s-1.9-3.2-1.9-5.7
			c0-2.5,0.6-4.3,1.8-5.6c1.2-1.3,3-1.9,5.4-1.9c2.4,0,4.1,0.6,5.3,1.9C237,143.4,237.6,145.3,237.6,147.8z M227.5,147.8
			c0,2.9,1,4.3,3,4.3c1,0,1.8-0.3,2.2-1c0.5-0.7,0.7-1.8,0.7-3.2c0-1.5-0.2-2.6-0.7-3.3c-0.5-0.7-1.2-1.1-2.2-1.1
			C228.5,143.4,227.5,144.9,227.5,147.8z"/>
		<path class="st30" d="M248.6,140.4h4.5l-4.8,14.8h-4.7l-4.8-14.8h4.5l2,7.5c0.4,1.7,0.6,2.8,0.7,3.5c0-0.5,0.1-1.1,0.3-1.8
			c0.1-0.7,0.3-1.3,0.4-1.7L248.6,140.4z"/>
		<path class="st30" d="M263.4,155.2h-8.8v-14.8h8.8v3.2h-4.8v2.3h4.4v3.2h-4.4v2.8h4.8V155.2z"/>
		<path class="st30" d="M272.5,155.2l-3-10.6h-0.1c0.1,1.8,0.2,3.2,0.2,4.2v6.4H266v-14.8h5.3l3.1,10.5h0.1l3-10.5h5.3v14.8h-3.7
			v-6.5c0-0.3,0-0.7,0-1.1c0-0.4,0.1-1.4,0.1-3h-0.1l-3,10.6H272.5z"/>
		<path class="st30" d="M286,140.4h5.2c2,0,3.5,0.3,4.5,0.9c1,0.6,1.5,1.5,1.5,2.8c0,0.8-0.2,1.5-0.6,2.1c-0.4,0.6-1,1-1.7,1.1v0.1
			c0.9,0.2,1.6,0.6,2,1.2c0.4,0.6,0.6,1.3,0.6,2.2c0,1.3-0.5,2.4-1.5,3.2c-1,0.8-2.4,1.2-4.1,1.2H286V140.4z M290,146.1h1.2
			c0.6,0,1-0.1,1.3-0.4c0.3-0.2,0.5-0.6,0.5-1.1c0-0.8-0.6-1.2-1.9-1.2H290V146.1z M290,149v3.1h1.4c1.2,0,1.9-0.5,1.9-1.6
			c0-0.5-0.2-0.9-0.5-1.1c-0.3-0.3-0.8-0.4-1.5-0.4H290z"/>
		<path class="st30" d="M308.7,155.2H300v-14.8h8.8v3.2H304v2.3h4.4v3.2H304v2.8h4.8V155.2z"/>
		<path class="st30" d="M315.3,149.8v5.4h-4v-14.8h4.8c4,0,6,1.5,6,4.4c0,1.7-0.8,3-2.5,4l4.3,6.4h-4.5l-3.1-5.4H315.3z
			 M315.3,146.8h0.7c1.4,0,2.1-0.6,2.1-1.8c0-1-0.7-1.5-2.1-1.5h-0.8V146.8z"/>
		<path class="st30" d="M338.6,155.2h-4.1v-7.8c0-1,0-1.8,0.1-2.6c-0.2,0.3-0.6,0.6-0.9,0.9l-1.7,1.4l-2.1-2.5l5.1-4.1h3.6V155.2z"
			/>
		<path class="st30" d="M347.9,145.5c0.8,0,1.6,0.2,2.3,0.6c0.7,0.4,1.2,1,1.6,1.7c0.4,0.7,0.6,1.6,0.6,2.5c0,1.7-0.5,2.9-1.5,3.8
			c-1,0.9-2.5,1.3-4.5,1.3c-1.7,0-3.1-0.3-4.2-0.8v-3.3c0.6,0.3,1.2,0.5,2,0.7c0.7,0.2,1.4,0.3,1.9,0.3c0.7,0,1.3-0.2,1.7-0.5
			c0.4-0.3,0.6-0.8,0.6-1.4c0-0.6-0.2-1-0.6-1.3c-0.4-0.3-1-0.5-1.8-0.5c-0.6,0-1.3,0.1-2,0.4l-1.5-0.7l0.6-7.8h8.4v3.3h-5l-0.2,2
			c0.5-0.1,0.9-0.2,1.1-0.2C347.6,145.5,347.8,145.5,347.9,145.5z"/>
		<path class="st30" d="M161.5,171.4c0-2.1,0.3-3.7,0.9-5c0.6-1.3,1.5-2.2,2.6-2.8c1.1-0.6,2.6-0.9,4.2-0.9c0.6,0,1.3,0.1,2.1,0.2
			v3.1c-0.7-0.1-1.4-0.2-2.2-0.2c-1.3,0-2.3,0.3-3,0.9c-0.7,0.6-1,1.5-1.1,2.9h0.1c0.6-1.1,1.6-1.7,2.9-1.7c1.3,0,2.3,0.4,3.1,1.3
			c0.7,0.8,1.1,2,1.1,3.5c0,1.6-0.5,2.9-1.4,3.8c-0.9,0.9-2.2,1.4-3.8,1.4c-1.7,0-3.1-0.6-4.1-1.7C162,175,161.5,173.4,161.5,171.4z
			 M167,174.7c0.4,0,0.8-0.2,1-0.5s0.4-0.8,0.4-1.5c0-1.2-0.5-1.8-1.4-1.8c-0.5,0-0.8,0.2-1.1,0.5c-0.3,0.3-0.4,0.7-0.4,1.1
			c0,0.6,0.1,1.2,0.4,1.6S166.5,174.7,167,174.7z"/>
		<path class="st30" d="M185.2,167.6c0,1.7-0.5,2.9-1.5,3.8c-1,0.9-2.4,1.3-4.1,1.3h-1.1v4.9h-4v-14.8h5.1c1.9,0,3.3,0.4,4.2,1.2
			C184.8,164.9,185.2,166.1,185.2,167.6z M178.5,169.5h0.7c0.6,0,1.1-0.2,1.4-0.5c0.4-0.3,0.5-0.8,0.5-1.4c0-1-0.6-1.5-1.7-1.5h-1
			V169.5z"/>
		<path class="st30" d="M194,177.6l-3-10.6h-0.1c0.1,1.8,0.2,3.2,0.2,4.2v6.4h-3.5v-14.8h5.3l3.1,10.5h0.1l3-10.5h5.3v14.8h-3.7
			v-6.5c0-0.3,0-0.7,0-1.1c0-0.4,0.1-1.4,0.1-3h-0.1l-3,10.6H194z"/>
		<path class="st30" d="M212.1,173.4v-2.8h8.9v2.8H212.1z"/>
		<path class="st30" d="M238.6,169.6c0,2.9-0.6,5-1.9,6.3c-1.2,1.3-3.2,1.9-6,1.9c-0.9,0-1.6,0-2.1-0.1v-3.2
			c0.6,0.1,1.2,0.2,1.7,0.2c1.4,0,2.5-0.3,3.3-0.9c0.8-0.6,1.2-1.5,1.3-2.8h-0.1c-0.3,0.5-0.5,0.8-0.8,1.1c-0.3,0.2-0.6,0.4-0.9,0.5
			c-0.4,0.1-0.8,0.2-1.4,0.2c-1.3,0-2.3-0.4-3-1.3c-0.7-0.9-1.1-2-1.1-3.5c0-1.6,0.5-2.9,1.4-3.9c0.9-0.9,2.2-1.4,3.8-1.4
			c1.8,0,3.2,0.6,4.2,1.8C238.1,165.7,238.6,167.4,238.6,169.6z M233,165.9c-0.4,0-0.8,0.2-1.1,0.5c-0.3,0.3-0.4,0.8-0.4,1.5
			c0,0.6,0.1,1,0.4,1.3c0.2,0.3,0.6,0.5,1.1,0.5c0.4,0,0.8-0.2,1.1-0.5c0.3-0.3,0.5-0.7,0.5-1.1c0-0.6-0.1-1.1-0.4-1.5
			C233.8,166.1,233.5,165.9,233,165.9z"/>
		<path class="st30" d="M251.6,167.6c0,1.7-0.5,2.9-1.5,3.8c-1,0.9-2.4,1.3-4.1,1.3h-1.1v4.9h-4v-14.8h5.1c1.9,0,3.3,0.4,4.2,1.2
			C251.1,164.9,251.6,166.1,251.6,167.6z M244.8,169.5h0.7c0.6,0,1.1-0.2,1.4-0.5c0.4-0.3,0.5-0.8,0.5-1.4c0-1-0.6-1.5-1.7-1.5h-1
			V169.5z"/>
		<path class="st30" d="M260.4,177.6l-3-10.6h-0.1c0.1,1.8,0.2,3.2,0.2,4.2v6.4h-3.5v-14.8h5.3l3.1,10.5h0.1l3-10.5h5.3v14.8h-3.7
			v-6.5c0-0.3,0-0.7,0-1.1c0-0.4,0.1-1.4,0.1-3h-0.1l-3,10.6H260.4z"/>
		<path class="st30" d="M176.5,200.1h-5.2l-5.4-10.4h-0.1c0.1,1.6,0.2,2.9,0.2,3.7v6.7h-3.5v-14.8h5.2l5.4,10.3h0.1
			c-0.1-1.5-0.1-2.7-0.1-3.6v-6.7h3.6V200.1z"/>
		<path class="st30" d="M188.4,200.1h-8.8v-14.8h8.8v3.2h-4.8v2.3h4.4v3.2h-4.4v2.8h4.8V200.1z"/>
		<path class="st30" d="M207,200.1h-4.7l-1.4-6.4c-0.1-0.3-0.2-0.8-0.3-1.6c-0.1-0.8-0.3-1.5-0.3-2c-0.1,0.4-0.1,1-0.3,1.6
			c-0.1,0.7-0.2,1.2-0.4,1.8c-0.1,0.5-0.6,2.8-1.5,6.6h-4.7l-3.7-14.8h3.9l1.6,7.4c0.4,1.6,0.6,2.9,0.7,3.9c0.1-0.7,0.2-1.6,0.5-2.8
			c0.2-1.2,0.4-2.2,0.6-2.9l1.3-5.6h3.7l1.3,5.6c0.2,0.9,0.4,1.9,0.7,3.1c0.2,1.2,0.4,2,0.4,2.6c0.1-0.7,0.3-2,0.7-3.9l1.6-7.4h3.9
			L207,200.1z"/>
		<path class="st30" d="M223.2,190.8l2.5-5.5h4.3l-4.9,9v5.8h-4v-5.6l-4.9-9.1h4.3L223.2,190.8z"/>
		<path class="st30" d="M245.5,192.7c0,2.5-0.6,4.4-1.8,5.7c-1.2,1.3-3,1.9-5.4,1.9c-2.3,0-4.1-0.6-5.3-2c-1.2-1.3-1.9-3.2-1.9-5.7
			c0-2.5,0.6-4.3,1.8-5.6c1.2-1.3,3-1.9,5.4-1.9c2.4,0,4.1,0.6,5.3,1.9C244.9,188.3,245.5,190.2,245.5,192.7z M235.3,192.7
			c0,2.9,1,4.3,3,4.3c1,0,1.8-0.3,2.2-1c0.5-0.7,0.7-1.8,0.7-3.2c0-1.5-0.2-2.6-0.7-3.3c-0.5-0.7-1.2-1.1-2.2-1.1
			C236.3,188.4,235.3,189.8,235.3,192.7z"/>
		<path class="st30" d="M252.1,194.7v5.4h-4v-14.8h4.8c4,0,6,1.5,6,4.4c0,1.7-0.8,3-2.5,4l4.3,6.4h-4.5l-3.1-5.4H252.1z
			 M252.1,191.7h0.7c1.4,0,2.1-0.6,2.1-1.8c0-1-0.7-1.5-2.1-1.5h-0.8V191.7z"/>
		<path class="st30" d="M274.8,200.1h-4.5l-2.9-5.6l-1.2,0.7v4.9h-4v-14.8h4v6.4c0.2-0.4,0.6-1,1.2-1.9l3.1-4.5h4.4l-4.7,6.6
			L274.8,200.1z"/>
		<path class="st30" d="M288.3,188.4c-1,0-1.7,0.4-2.2,1.2c-0.5,0.8-0.8,1.9-0.8,3.2c0,2.8,1.1,4.3,3.2,4.3c0.7,0,1.3-0.1,1.9-0.3
			c0.6-0.2,1.2-0.4,1.8-0.7v3.4c-1.2,0.5-2.6,0.8-4.2,0.8c-2.2,0-3.9-0.6-5.1-1.9c-1.2-1.3-1.8-3.2-1.8-5.6c0-1.5,0.3-2.9,0.9-4
			c0.6-1.2,1.4-2.1,2.5-2.7c1.1-0.6,2.4-0.9,3.8-0.9c1.6,0,3.1,0.3,4.6,1l-1.2,3.1c-0.5-0.3-1.1-0.5-1.6-0.6
			C289.5,188.5,288.9,188.4,288.3,188.4z"/>
		<path class="st30" d="M295.2,200.1v-14.8h4v14.8H295.2z"/>
		<path class="st30" d="M308.9,200.1h-4v-11.5h-3.6v-3.3h11.2v3.3h-3.6V200.1z"/>
		<path class="st30" d="M319.9,190.8l2.5-5.5h4.3l-4.9,9v5.8h-4v-5.6l-4.9-9.1h4.3L319.9,190.8z"/>
		<path class="st30" d="M164.5,213H163v-6h-2v-1.3h5.5v1.3h-2V213z"/>
		<path class="st30" d="M167.6,213v-7.3h1.5v7.3H167.6z"/>
		<path class="st30" d="M171,205.7h2.3c1,0,1.8,0.1,2.3,0.4c0.5,0.3,0.7,0.8,0.7,1.4c0,0.4-0.1,0.8-0.3,1.1
			c-0.2,0.3-0.5,0.4-0.8,0.5v0c0.5,0.1,0.8,0.3,1,0.6c0.2,0.3,0.3,0.7,0.3,1.1c0,0.7-0.2,1.2-0.7,1.6c-0.5,0.4-1.1,0.6-2,0.6H171
			V205.7z M172.6,208.6h0.9c0.4,0,0.7-0.1,0.9-0.2c0.2-0.1,0.3-0.3,0.3-0.6c0-0.3-0.1-0.5-0.3-0.6c-0.2-0.1-0.5-0.2-1-0.2h-0.8
			V208.6z M172.6,209.9v1.9h1c0.4,0,0.7-0.1,0.9-0.2c0.2-0.2,0.3-0.4,0.3-0.7c0-0.6-0.4-0.9-1.3-0.9H172.6z"/>
		<path class="st30" d="M182.1,213h-4.2v-7.3h4.2v1.3h-2.7v1.6h2.5v1.3h-2.5v1.9h2.7V213z"/>
		<path class="st30" d="M186.5,213h-1.5v-6h-2v-1.3h5.5v1.3h-2V213z"/>
		<path class="st30" d="M198.2,213h-1.5v-3.2h-2.9v3.2h-1.5v-7.3h1.5v2.9h2.9v-2.9h1.5V213z"/>
		<path class="st30" d="M206.7,209.4c0,1.2-0.3,2.1-0.9,2.8c-0.6,0.6-1.5,1-2.6,1c-1.1,0-2-0.3-2.6-1s-0.9-1.6-0.9-2.8
			c0-1.2,0.3-2.1,0.9-2.8c0.6-0.6,1.5-1,2.6-1c1.1,0,2,0.3,2.6,1C206.4,207.2,206.7,208.2,206.7,209.4z M201.3,209.4
			c0,0.8,0.2,1.4,0.5,1.8c0.3,0.4,0.8,0.6,1.4,0.6c1.2,0,1.9-0.8,1.9-2.5c0-1.6-0.6-2.5-1.8-2.5c-0.6,0-1.1,0.2-1.4,0.6
			C201.5,207.9,201.3,208.6,201.3,209.4z"/>
		<path class="st30" d="M214.1,205.7v4.7c0,0.5-0.1,1-0.4,1.4c-0.2,0.4-0.6,0.7-1,0.9c-0.5,0.2-1,0.3-1.6,0.3
			c-0.9,0-1.7-0.2-2.2-0.7c-0.5-0.5-0.8-1.1-0.8-2v-4.7h1.5v4.5c0,0.6,0.1,1,0.3,1.2c0.2,0.3,0.6,0.4,1.1,0.4c0.5,0,0.9-0.1,1.1-0.4
			c0.2-0.3,0.3-0.7,0.3-1.2v-4.5H214.1z"/>
		<path class="st30" d="M220.2,211c0,0.7-0.2,1.2-0.7,1.6c-0.5,0.4-1.1,0.6-2,0.6c-0.8,0-1.5-0.1-2.1-0.4v-1.4
			c0.5,0.2,0.9,0.4,1.3,0.5c0.3,0.1,0.7,0.1,0.9,0.1c0.3,0,0.6-0.1,0.8-0.2c0.2-0.1,0.3-0.3,0.3-0.6c0-0.1,0-0.3-0.1-0.4
			c-0.1-0.1-0.2-0.2-0.4-0.3c-0.2-0.1-0.5-0.3-0.9-0.5c-0.4-0.2-0.8-0.4-1-0.6c-0.2-0.2-0.4-0.4-0.5-0.7c-0.1-0.3-0.2-0.6-0.2-0.9
			c0-0.6,0.2-1.2,0.7-1.5c0.4-0.4,1-0.6,1.8-0.6c0.4,0,0.7,0,1.1,0.1c0.3,0.1,0.7,0.2,1.1,0.4l-0.5,1.2c-0.4-0.2-0.7-0.3-1-0.3
			c-0.3-0.1-0.5-0.1-0.8-0.1c-0.3,0-0.5,0.1-0.7,0.2c-0.2,0.1-0.2,0.3-0.2,0.5c0,0.1,0,0.3,0.1,0.4c0.1,0.1,0.2,0.2,0.3,0.3
			c0.1,0.1,0.5,0.3,1,0.5c0.7,0.3,1.2,0.7,1.4,1C220.1,210.1,220.2,210.5,220.2,211z"/>
		<path class="st30" d="M225.8,213h-4.2v-7.3h4.2v1.3h-2.7v1.6h2.5v1.3h-2.5v1.9h2.7V213z"/>
		<path class="st30" d="M228.7,212c-0.2,0.7-0.5,1.5-0.9,2.4h-1.1c0.2-0.9,0.4-1.7,0.5-2.5h1.4L228.7,212z"/>
		<path class="st30" d="M237.5,213h-5.1V212l1.8-1.9c0.5-0.6,0.9-0.9,1.1-1.2s0.3-0.4,0.4-0.6c0.1-0.2,0.1-0.4,0.1-0.6
			c0-0.3-0.1-0.5-0.2-0.7c-0.2-0.1-0.4-0.2-0.6-0.2c-0.3,0-0.6,0.1-0.8,0.2c-0.3,0.1-0.5,0.3-0.8,0.6l-0.8-1
			c0.4-0.3,0.7-0.5,0.9-0.6c0.2-0.1,0.5-0.2,0.8-0.3c0.3-0.1,0.6-0.1,0.9-0.1c0.5,0,0.9,0.1,1.2,0.2c0.4,0.2,0.6,0.4,0.8,0.7
			c0.2,0.3,0.3,0.6,0.3,1c0,0.3-0.1,0.7-0.2,0.9s-0.3,0.6-0.5,0.9c-0.2,0.3-0.7,0.8-1.3,1.3l-0.9,0.9v0.1h3.2V213z"/>
		<path class="st30" d="M243.3,213h-5.1V212l1.8-1.9c0.5-0.6,0.9-0.9,1.1-1.2s0.3-0.4,0.4-0.6c0.1-0.2,0.1-0.4,0.1-0.6
			c0-0.3-0.1-0.5-0.2-0.7c-0.2-0.1-0.4-0.2-0.6-0.2c-0.3,0-0.6,0.1-0.8,0.2c-0.3,0.1-0.5,0.3-0.8,0.6l-0.8-1
			c0.4-0.3,0.7-0.5,0.9-0.6c0.2-0.1,0.5-0.2,0.8-0.3c0.3-0.1,0.6-0.1,0.9-0.1c0.5,0,0.9,0.1,1.2,0.2c0.4,0.2,0.6,0.4,0.8,0.7
			c0.2,0.3,0.3,0.6,0.3,1c0,0.3-0.1,0.7-0.2,0.9s-0.3,0.6-0.5,0.9c-0.2,0.3-0.7,0.8-1.3,1.3l-0.9,0.9v0.1h3.2V213z"/>
		<path class="st30" d="M251.7,213h-1.8l-1-3.8c0-0.1-0.1-0.4-0.2-0.8c-0.1-0.4-0.1-0.7-0.2-0.9c0,0.2-0.1,0.5-0.1,0.9
			c-0.1,0.4-0.1,0.7-0.2,0.9l-1,3.8h-1.8l-1.9-7.3h1.5l0.9,4c0.2,0.7,0.3,1.4,0.4,1.9c0-0.2,0.1-0.5,0.1-0.9
			c0.1-0.4,0.1-0.7,0.2-0.9l1.1-4.1h1.5l1.1,4.1c0,0.2,0.1,0.5,0.2,0.8c0.1,0.4,0.1,0.7,0.2,1c0-0.3,0.1-0.6,0.2-1
			c0.1-0.4,0.1-0.7,0.2-0.9l0.9-4h1.5L251.7,213z"/>
		<path class="st30" d="M260.4,213h-1.5v-4.2l0-0.7l0-0.8c-0.3,0.3-0.4,0.4-0.5,0.5l-0.8,0.7l-0.7-0.9l2.4-1.9h1.3V213z"/>
		<path class="st30" d="M265.1,208.4c0.7,0,1.3,0.2,1.7,0.6c0.4,0.4,0.6,0.9,0.6,1.6c0,0.8-0.3,1.4-0.8,1.9
			c-0.5,0.4-1.2,0.7-2.2,0.7c-0.8,0-1.5-0.1-2-0.4v-1.3c0.3,0.1,0.6,0.3,0.9,0.3c0.3,0.1,0.7,0.1,1,0.1c0.9,0,1.4-0.4,1.4-1.2
			c0-0.7-0.5-1.1-1.5-1.1c-0.2,0-0.4,0-0.6,0.1c-0.2,0-0.4,0.1-0.5,0.1l-0.6-0.3l0.3-3.7h4v1.3h-2.6l-0.1,1.4l0.2,0
			C264.6,208.4,264.8,208.4,265.1,208.4z"/>
		<path class="st30" d="M270.1,209.6h-0.9v-3.5H268v-0.8h3.2v0.8h-1.2V209.6z"/>
		<path class="st30" d="M275.4,209.6h-0.9v-1.8h-1.7v1.8h-0.9v-4.3h0.9v1.7h1.7v-1.7h0.9V209.6z"/>
		<path class="st30" d="M283.8,211c0,0.7-0.2,1.2-0.7,1.6c-0.5,0.4-1.1,0.6-2,0.6c-0.8,0-1.5-0.1-2.1-0.4v-1.4
			c0.5,0.2,0.9,0.4,1.3,0.5c0.3,0.1,0.7,0.1,0.9,0.1c0.3,0,0.6-0.1,0.8-0.2c0.2-0.1,0.3-0.3,0.3-0.6c0-0.1,0-0.3-0.1-0.4
			c-0.1-0.1-0.2-0.2-0.4-0.3c-0.2-0.1-0.5-0.3-0.9-0.5c-0.4-0.2-0.8-0.4-1-0.6c-0.2-0.2-0.4-0.4-0.5-0.7c-0.1-0.3-0.2-0.6-0.2-0.9
			c0-0.6,0.2-1.2,0.7-1.5c0.4-0.4,1-0.6,1.8-0.6c0.4,0,0.7,0,1.1,0.1c0.3,0.1,0.7,0.2,1.1,0.4l-0.5,1.2c-0.4-0.2-0.7-0.3-1-0.3
			c-0.3-0.1-0.5-0.1-0.8-0.1c-0.3,0-0.5,0.1-0.7,0.2c-0.2,0.1-0.2,0.3-0.2,0.5c0,0.1,0,0.3,0.1,0.4c0.1,0.1,0.2,0.2,0.3,0.3
			c0.1,0.1,0.5,0.3,1,0.5c0.7,0.3,1.2,0.7,1.4,1C283.7,210.1,283.8,210.5,283.8,211z"/>
		<path class="st30" d="M287.9,213h-1.5v-6h-2v-1.3h5.5v1.3h-2V213z"/>
		<path class="st30" d="M290.7,212.3c0-0.3,0.1-0.5,0.2-0.6c0.1-0.1,0.4-0.2,0.7-0.2c0.3,0,0.5,0.1,0.6,0.2c0.2,0.1,0.2,0.4,0.2,0.6
			c0,0.3-0.1,0.5-0.2,0.6c-0.2,0.2-0.4,0.2-0.6,0.2c-0.3,0-0.5-0.1-0.6-0.2C290.8,212.8,290.7,212.6,290.7,212.3z"/>
		<path class="st30" d="M303.1,213h-2l-3.2-5.5h0c0.1,1,0.1,1.7,0.1,2.1v3.4h-1.4v-7.3h2l3.2,5.5h0c-0.1-0.9-0.1-1.6-0.1-2v-3.5h1.4
			V213z"/>
		<path class="st30" d="M307.2,208.7l1.5-3h1.7l-2.4,4.5v2.8h-1.5v-2.8l-2.4-4.5h1.7L307.2,208.7z"/>
	</g>
</g>
<g>
	<path class="st8" d="M163.7,53.9c0.4-1.3,1-2.4,1.8-3.3c0.8-0.9,1.8-1.7,3-2.2c1.2-0.5,2.6-0.8,4.1-0.8c1.2,0,2.3,0.2,3.4,0.6
		c1.1,0.4,2,0.9,2.8,1.6c0.8,0.7,1.5,1.5,1.9,2.5c0.5,1,0.7,2.1,0.7,3.4c0,1.3-0.2,2.4-0.6,3.3c-0.4,0.9-1,1.8-1.7,2.5
		c-0.7,0.7-1.5,1.4-2.3,2c-0.9,0.6-1.7,1.2-2.6,1.7c-0.9,0.6-1.7,1.2-2.6,1.9c-0.8,0.7-1.6,1.4-2.2,2.3h12.2v4.5h-18.9
		c0-1.5,0.2-2.8,0.6-3.9s1-2.1,1.7-3c0.7-0.9,1.6-1.7,2.6-2.4c1-0.7,2-1.5,3.1-2.2c0.6-0.4,1.2-0.8,1.8-1.2c0.6-0.4,1.2-0.9,1.7-1.3
		c0.5-0.5,1-1,1.3-1.7c0.4-0.6,0.5-1.3,0.5-2.1c0-1.2-0.4-2.2-1.1-2.9c-0.7-0.7-1.6-1-2.8-1c-0.8,0-1.4,0.2-1.9,0.5
		c-0.5,0.4-0.9,0.8-1.3,1.4c-0.3,0.6-0.5,1.2-0.7,1.9s-0.2,1.4-0.2,2.1h-5C163.2,56.5,163.4,55.2,163.7,53.9z"/>
	<path class="st8" d="M192.7,54.6c0.5-1.7,1.2-3.1,2-4.1c0.9-1,1.9-1.8,3-2.2c1.1-0.4,2.3-0.7,3.6-0.7c1.3,0,2.5,0.2,3.7,0.7
		c1.1,0.4,2.1,1.2,3,2.2c0.9,1,1.6,2.4,2.1,4.1c0.5,1.7,0.8,3.8,0.8,6.3c0,2.6-0.3,4.7-0.8,6.4c-0.5,1.7-1.2,3.1-2.1,4.1
		c-0.9,1-1.9,1.8-3,2.2c-1.1,0.4-2.4,0.7-3.7,0.7c-1.3,0-2.5-0.2-3.6-0.7c-1.1-0.4-2.1-1.2-3-2.2c-0.9-1-1.5-2.4-2-4.1
		c-0.5-1.7-0.8-3.9-0.8-6.4C191.9,58.4,192.1,56.3,192.7,54.6z M197.2,63.5c0,1,0.2,2,0.5,3c0.3,1,0.7,1.8,1.2,2.5
		c0.6,0.7,1.4,1,2.4,1c1.1,0,1.9-0.3,2.5-1c0.6-0.7,1-1.5,1.2-2.5c0.3-1,0.4-2,0.5-3c0-1,0.1-1.9,0.1-2.7c0-0.4,0-1,0-1.6
		c0-0.6-0.1-1.3-0.1-1.9c-0.1-0.7-0.2-1.3-0.4-2c-0.2-0.6-0.4-1.2-0.7-1.7c-0.3-0.5-0.7-0.9-1.2-1.2c-0.5-0.3-1.1-0.5-1.8-0.5
		s-1.3,0.2-1.8,0.5c-0.5,0.3-0.9,0.7-1.2,1.2c-0.3,0.5-0.5,1.1-0.7,1.7c-0.2,0.6-0.3,1.3-0.4,2c-0.1,0.7-0.1,1.3-0.1,1.9
		c0,0.6,0,1.2,0,1.6C197.1,61.6,197.1,62.5,197.2,63.5z"/>
	<path class="st8" d="M229.6,73.8V57.1h-6.5v-3.9c0.9,0,1.8,0,2.6-0.2c0.8-0.2,1.6-0.4,2.3-0.8c0.7-0.4,1.2-0.9,1.7-1.6
		c0.5-0.7,0.8-1.5,0.9-2.5h4.2v25.7H229.6z"/>
	<path class="st8" d="M257,69.5c0.6,0.6,1.4,1,2.3,1c1,0,1.7-0.3,2.4-0.8c0.6-0.6,1.1-1.2,1.5-2c0.4-0.8,0.6-1.6,0.8-2.6
		c0.2-0.9,0.3-1.7,0.3-2.4l-0.1-0.1c-0.7,1-1.5,1.8-2.5,2.2c-1,0.4-2.1,0.7-3.3,0.7c-1.1,0-2.2-0.2-3.2-0.7
		c-1.1-0.5-1.9-1.1-2.7-1.9c-0.7-0.8-1.2-1.7-1.5-2.7c-0.3-1-0.5-2-0.5-3.1c0-1.3,0.2-2.6,0.6-3.7s1-2.1,1.8-3
		c0.8-0.8,1.7-1.5,2.8-2c1.1-0.5,2.3-0.7,3.7-0.7c2,0,3.6,0.4,4.8,1.2c1.3,0.8,2.3,1.8,3,3.1c0.8,1.3,1.3,2.7,1.6,4.3
		c0.3,1.6,0.4,3.2,0.4,4.8c0,1.6-0.2,3.2-0.6,4.8c-0.4,1.6-1,3-1.8,4.3c-0.8,1.3-1.8,2.3-3.1,3.1c-1.3,0.8-2.8,1.2-4.7,1.2
		c-1.1,0-2.1-0.2-3.1-0.5c-1-0.3-1.8-0.8-2.5-1.4c-0.7-0.6-1.3-1.4-1.8-2.2c-0.5-0.9-0.8-1.9-0.9-3h5C256,68.1,256.4,68.8,257,69.5z
		 M261.4,61.1c0.5-0.3,0.9-0.6,1.3-1c0.3-0.4,0.6-0.9,0.8-1.5c0.2-0.6,0.3-1.2,0.3-1.8c0-0.6-0.1-1.2-0.3-1.7
		c-0.2-0.6-0.5-1.1-0.8-1.5c-0.4-0.5-0.8-0.8-1.3-1.1c-0.5-0.3-1.1-0.4-1.8-0.4c-0.6,0-1.2,0.1-1.7,0.4c-0.5,0.3-0.9,0.6-1.2,1.1
		c-0.3,0.4-0.6,0.9-0.8,1.5c-0.2,0.6-0.3,1.1-0.3,1.7c0,0.6,0.1,1.2,0.2,1.8c0.2,0.6,0.4,1.1,0.7,1.5c0.3,0.5,0.7,0.8,1.2,1.1
		c0.5,0.3,1.1,0.4,1.7,0.4C260.3,61.4,260.9,61.3,261.4,61.1z"/>
</g>
</svg>
