<?xml version="1.0" encoding="utf-8"?>
<!-- Generator: Adobe Illustrator 23.1.1, SVG Export Plug-In . SVG Version: 6.00 Build 0)  -->
<svg version="1.1" id="Layer_1" xmlns="http://www.w3.org/2000/svg" xmlns:xlink="http://www.w3.org/1999/xlink" x="0px" y="0px"
	 viewBox="0 0 1200 300" style="enable-background:new 0 0 1200 300;" xml:space="preserve">
<style type="text/css">
	.st0{fill:#333333;}
	.st1{fill:#FFFFFF;}
	.st2{fill:#FDF49C;}
	.st3{fill:#6ECDF5;}
</style>
<g>
	<rect class="st0" width="1200" height="300"/>
</g>
<g>
	<path class="st1" d="M69.4,73.8l-2.1-6.9H56.8l-2.1,6.9h-6.6l10.2-29h7.5l10.2,29H69.4z M65.8,61.8c-1.9-6.2-3-9.7-3.3-10.6
		c-0.2-0.8-0.4-1.5-0.5-1.9c-0.4,1.7-1.7,5.8-3.7,12.5H65.8z"/>
	<path class="st1" d="M85.7,62.7v11.1h-6.1V45H88c3.9,0,6.8,0.7,8.7,2.1c1.9,1.4,2.8,3.6,2.8,6.5c0,1.7-0.5,3.2-1.4,4.5
		c-0.9,1.3-2.3,2.4-4,3.1c4.3,6.5,7.2,10.7,8.5,12.6h-6.8L89,62.7H85.7z M85.7,57.8h2c1.9,0,3.4-0.3,4.3-1c0.9-0.6,1.4-1.7,1.4-3
		c0-1.4-0.5-2.3-1.4-2.9C91,50.3,89.5,50,87.6,50h-1.9V57.8z"/>
	<path class="st1" d="M117.4,73.8h-6.1V50.1h-7.8V45h21.8v5.1h-7.8V73.8z"/>
	<path class="st1" d="M146.2,73.8h-6V45h16.5v5h-10.5v7.4h9.8v5h-9.8V73.8z"/>
	<path class="st1" d="M188.5,59.3c0,4.8-1.2,8.4-3.6,11c-2.4,2.6-5.8,3.8-10.2,3.8s-7.8-1.3-10.2-3.8c-2.4-2.6-3.6-6.2-3.6-11
		c0-4.8,1.2-8.5,3.6-11c2.4-2.5,5.8-3.8,10.2-3.8c4.4,0,7.8,1.3,10.2,3.8C187.3,50.9,188.5,54.6,188.5,59.3z M167.5,59.3
		c0,3.2,0.6,5.6,1.8,7.3c1.2,1.6,3.1,2.4,5.5,2.4c4.9,0,7.3-3.2,7.3-9.7c0-6.5-2.4-9.7-7.3-9.7c-2.4,0-4.3,0.8-5.5,2.5
		C168.1,53.7,167.5,56.1,167.5,59.3z"/>
	<path class="st1" d="M200.6,62.7v11.1h-6.1V45h8.4c3.9,0,6.8,0.7,8.7,2.1c1.9,1.4,2.8,3.6,2.8,6.5c0,1.7-0.5,3.2-1.4,4.5
		c-0.9,1.3-2.3,2.4-4,3.1c4.3,6.5,7.2,10.7,8.5,12.6h-6.8l-6.9-11.1H200.6z M200.6,57.8h2c1.9,0,3.4-0.3,4.3-1
		c0.9-0.6,1.4-1.7,1.4-3c0-1.4-0.5-2.3-1.4-2.9c-0.9-0.6-2.4-0.9-4.4-0.9h-1.9V57.8z"/>
	<path class="st1" d="M242.8,73.8h-6.1V50.1h-7.8V45h21.8v5.1h-7.8V73.8z"/>
	<path class="st1" d="M255.1,73.8V45h6.1v28.8H255.1z"/>
	<path class="st1" d="M268.4,45h9c4.1,0,7.1,0.6,8.9,1.7c1.8,1.2,2.8,3,2.8,5.6c0,1.7-0.4,3.1-1.2,4.2c-0.8,1.1-1.9,1.8-3.2,2v0.2
		c1.8,0.4,3.1,1.2,4,2.3c0.8,1.1,1.2,2.6,1.2,4.5c0,2.6-1,4.7-2.9,6.2c-1.9,1.5-4.5,2.2-7.7,2.2h-10.8V45z M274.6,56.4h3.6
		c1.7,0,2.9-0.3,3.6-0.8c0.7-0.5,1.1-1.4,1.1-2.5c0-1.1-0.4-1.9-1.2-2.4c-0.8-0.5-2.1-0.7-3.8-0.7h-3.2V56.4z M274.6,61.2v7.5h4
		c1.7,0,2.9-0.3,3.7-1s1.2-1.6,1.2-3c0-2.4-1.7-3.6-5.1-3.6H274.6z"/>
	<path class="st1" d="M312.2,73.8h-16.6V45h16.6v5h-10.5v6.3h9.8v5h-9.8v7.4h10.5V73.8z"/>
	<path class="st1" d="M329.3,73.8h-6.1V50.1h-7.8V45h21.8v5.1h-7.8V73.8z"/>
	<path class="st1" d="M340.3,54.7c0-1.1,0.3-1.9,0.9-2.5c0.6-0.6,1.5-0.8,2.6-0.8c1.1,0,1.9,0.3,2.5,0.9c0.6,0.6,0.9,1.4,0.9,2.5
		c0,1.1-0.3,1.9-0.9,2.5s-1.5,0.9-2.5,0.9c-1.1,0-2-0.3-2.6-0.9C340.6,56.6,340.3,55.8,340.3,54.7z M340.3,71c0-1.1,0.3-1.9,0.9-2.5
		c0.6-0.6,1.5-0.8,2.6-0.8c1.1,0,1.9,0.3,2.5,0.9c0.6,0.6,0.9,1.4,0.9,2.5c0,1-0.3,1.9-0.9,2.5c-0.6,0.6-1.4,0.9-2.5,0.9
		c-1.1,0-2-0.3-2.6-0.9C340.6,72.9,340.3,72.1,340.3,71z"/>
	<path class="st2" d="M389.8,59.3c0,4.8-1.2,8.4-3.6,11c-2.4,2.6-5.8,3.8-10.2,3.8s-7.8-1.3-10.2-3.8c-2.4-2.6-3.6-6.2-3.6-11
		c0-4.8,1.2-8.5,3.6-11c2.4-2.5,5.8-3.8,10.2-3.8s7.8,1.3,10.2,3.8C388.6,50.9,389.8,54.6,389.8,59.3z M368.8,59.3
		c0,3.2,0.6,5.6,1.8,7.3c1.2,1.6,3.1,2.4,5.5,2.4c4.9,0,7.3-3.2,7.3-9.7c0-6.5-2.4-9.7-7.3-9.7c-2.4,0-4.3,0.8-5.5,2.5
		S368.8,56.1,368.8,59.3z"/>
	<path class="st2" d="M421.4,73.8h-7.8L401.1,52h-0.2c0.2,3.9,0.4,6.6,0.4,8.2v13.6h-5.5V45h7.7L416,66.6h0.1
		c-0.2-3.7-0.3-6.4-0.3-8V45h5.5V73.8z"/>
	<path class="st2" d="M428.6,73.8V45h6.1v23.8h11.7v5.1H428.6z"/>
	<path class="st2" d="M451.5,73.8V45h6.1v28.8H451.5z"/>
	<path class="st2" d="M490.4,73.8h-7.8L470.1,52h-0.2c0.2,3.9,0.4,6.6,0.4,8.2v13.6h-5.5V45h7.7l12.5,21.6h0.1
		c-0.2-3.7-0.3-6.4-0.3-8V45h5.5V73.8z"/>
	<path class="st2" d="M514.3,73.8h-16.6V45h16.6v5h-10.5v6.3h9.8v5h-9.8v7.4h10.5V73.8z"/>
	<path class="st2" d="M548.5,73.8l-2.1-6.9h-10.5l-2.1,6.9h-6.6l10.2-29h7.5l10.2,29H548.5z M544.9,61.8c-1.9-6.2-3-9.7-3.3-10.6
		c-0.2-0.8-0.4-1.5-0.5-1.9c-0.4,1.7-1.7,5.8-3.7,12.5H544.9z"/>
	<path class="st2" d="M582.2,45v18.7c0,2.1-0.5,4-1.4,5.6c-1,1.6-2.3,2.8-4.1,3.7s-3.9,1.3-6.4,1.3c-3.7,0-6.6-1-8.6-2.9
		c-2.1-1.9-3.1-4.5-3.1-7.8V45h6.1v17.7c0,2.2,0.4,3.9,1.3,4.9c0.9,1,2.4,1.6,4.4,1.6c2,0,3.4-0.5,4.4-1.6c0.9-1,1.4-2.7,1.4-4.9V45
		H582.2z"/>
	<path class="st2" d="M601.5,49.6c-2.3,0-4.1,0.9-5.3,2.6c-1.3,1.7-1.9,4.1-1.9,7.2c0,6.4,2.4,9.6,7.2,9.6c2,0,4.5-0.5,7.4-1.5v5.1
		c-2.4,1-5,1.5-7.9,1.5c-4.2,0-7.4-1.3-9.6-3.8c-2.2-2.5-3.3-6.2-3.3-11c0-3,0.5-5.6,1.6-7.9s2.7-4,4.7-5.2s4.4-1.8,7.2-1.8
		c2.8,0,5.6,0.7,8.4,2l-2,5c-1.1-0.5-2.2-1-3.3-1.3S602.5,49.6,601.5,49.6z"/>
	<path class="st2" d="M626.1,73.8H620V50.1h-7.8V45h21.8v5.1h-7.8V73.8z"/>
	<path class="st2" d="M638.4,73.8V45h6.1v28.8H638.4z"/>
	<path class="st2" d="M677.9,59.3c0,4.8-1.2,8.4-3.6,11c-2.4,2.6-5.8,3.8-10.2,3.8s-7.8-1.3-10.2-3.8c-2.4-2.6-3.6-6.2-3.6-11
		c0-4.8,1.2-8.5,3.6-11c2.4-2.5,5.8-3.8,10.2-3.8s7.8,1.3,10.2,3.8C676.8,50.9,677.9,54.6,677.9,59.3z M656.9,59.3
		c0,3.2,0.6,5.6,1.8,7.3c1.2,1.6,3.1,2.4,5.5,2.4c4.9,0,7.3-3.2,7.3-9.7c0-6.5-2.4-9.7-7.3-9.7c-2.4,0-4.3,0.8-5.5,2.5
		S656.9,56.1,656.9,59.3z"/>
	<path class="st2" d="M709.5,73.8h-7.8L689.2,52H689c0.2,3.9,0.4,6.6,0.4,8.2v13.6h-5.5V45h7.7l12.5,21.6h0.1
		c-0.2-3.7-0.3-6.4-0.3-8V45h5.5V73.8z"/>
	<path class="st2" d="M752.8,73.8h-7.8L732.5,52h-0.2c0.2,3.9,0.4,6.6,0.4,8.2v13.6h-5.5V45h7.7l12.5,21.6h0.1
		c-0.2-3.7-0.3-6.4-0.3-8V45h5.5V73.8z"/>
	<path class="st2" d="M786.3,59.3c0,4.8-1.2,8.4-3.6,11c-2.4,2.6-5.8,3.8-10.2,3.8s-7.8-1.3-10.2-3.8c-2.4-2.6-3.6-6.2-3.6-11
		c0-4.8,1.2-8.5,3.6-11c2.4-2.5,5.8-3.8,10.2-3.8s7.8,1.3,10.2,3.8C785.1,50.9,786.3,54.6,786.3,59.3z M765.2,59.3
		c0,3.2,0.6,5.6,1.8,7.3c1.2,1.6,3.1,2.4,5.5,2.4c4.9,0,7.3-3.2,7.3-9.7c0-6.5-2.4-9.7-7.3-9.7c-2.4,0-4.3,0.8-5.5,2.5
		S765.2,56.1,765.2,59.3z"/>
	<path class="st2" d="M820.4,73.8h-7l-3.9-15.2c-0.1-0.5-0.4-1.7-0.7-3.3c-0.3-1.7-0.5-2.8-0.6-3.4c-0.1,0.7-0.3,1.9-0.6,3.4
		c-0.3,1.6-0.6,2.7-0.7,3.4l-3.9,15.1H796L788.6,45h6l3.7,15.7c0.6,2.9,1.1,5.4,1.4,7.6c0.1-0.7,0.3-1.9,0.5-3.5
		c0.3-1.6,0.5-2.8,0.8-3.7l4.2-16.2h5.8l4.2,16.2c0.2,0.7,0.4,1.8,0.7,3.3c0.3,1.5,0.5,2.8,0.6,3.8c0.1-1,0.3-2.3,0.6-3.8
		s0.6-2.8,0.8-3.7l3.7-15.7h6L820.4,73.8z"/>
	<path class="st2" d="M868,59.3c0,4.8-1.2,8.4-3.6,11c-2.4,2.6-5.8,3.8-10.2,3.8s-7.8-1.3-10.2-3.8c-2.4-2.6-3.6-6.2-3.6-11
		c0-4.8,1.2-8.5,3.6-11c2.4-2.5,5.8-3.8,10.2-3.8s7.8,1.3,10.2,3.8C866.8,50.9,868,54.6,868,59.3z M847,59.3c0,3.2,0.6,5.6,1.8,7.3
		c1.2,1.6,3.1,2.4,5.5,2.4c4.9,0,7.3-3.2,7.3-9.7c0-6.5-2.4-9.7-7.3-9.7c-2.4,0-4.3,0.8-5.5,2.5S847,56.1,847,59.3z"/>
	<path class="st2" d="M893.9,54c0,3.1-1,5.5-2.9,7.1c-1.9,1.6-4.7,2.5-8.3,2.5h-2.6v10.3H874V45h9.2c3.5,0,6.2,0.8,8,2.3
		C893,48.7,893.9,51,893.9,54z M880.1,58.5h2c1.9,0,3.3-0.4,4.2-1.1s1.4-1.8,1.4-3.2c0-1.4-0.4-2.5-1.2-3.2s-2-1-3.7-1h-2.8V58.5z"
		/>
	<path class="st2" d="M916,73.8h-16.6V45H916v5h-10.5v6.3h9.8v5h-9.8v7.4H916V73.8z"/>
	<path class="st2" d="M947.6,73.8h-7.8L927.3,52h-0.2c0.2,3.9,0.4,6.6,0.4,8.2v13.6H922V45h7.7l12.5,21.6h0.1
		c-0.2-3.7-0.3-6.4-0.3-8V45h5.5V73.8z"/>
</g>
<g>
	<g>
		<path class="st3" d="M50,104.8h52c20.3,0,35.3,3,45.1,9c9.8,6,14.7,15.4,14.7,28.1c0,8.4-2.1,15.5-6.4,21.4
			c-4.3,5.9-9.9,9.7-16.9,11.4v1c9.2,2.4,15.9,6.5,20.1,12.2c4.1,5.7,6.2,13.1,6.2,22.2c0,13.5-5.1,24.2-15.2,32
			c-10.2,7.8-24,11.7-41.6,11.7H50V104.8z M90.2,162h12.1c5.8,0,10.2-1.2,13.4-3.6c3.2-2.4,4.7-5.9,4.7-10.6c0-8.4-6.3-12.5-19-12.5
			H90.2V162z M90.2,191.4v31.3h14.2c12.6,0,18.9-5.3,18.9-15.9c0-5-1.7-8.8-5-11.4c-3.4-2.7-8.2-4-14.6-4H90.2z"/>
		<path class="st3" d="M188.3,253.9V104.8h40.5v149.1H188.3z"/>
		<path class="st3" d="M384.4,176.1c0,24.9-6.9,44.1-20.5,57.5c-13.7,13.5-33,20.2-57.8,20.2h-48.2V104.8h51.6
			c23.9,0,42.4,6.1,55.4,18.4C377.9,135.4,384.4,153,384.4,176.1z M342.6,177.6c0-13.7-2.7-23.8-8.1-30.4
			c-5.4-6.6-13.6-9.9-24.6-9.9h-11.7v83.5h9c12.2,0,21.2-3.6,26.9-10.7C339.7,203.1,342.6,192.2,342.6,177.6z"/>
		<path class="st3" d="M607.3,253.9h-52.8l-54.5-105h-0.9c1.3,16.5,1.9,29.1,1.9,37.8v67.2h-35.7V104.8H518l54.3,103.6h0.6
			c-1-15-1.4-27.1-1.4-36.2v-67.4h35.9V253.9z"/>
		<path class="st3" d="M775.4,179.1c0,25.1-6.2,44.2-18.5,57.2c-12.3,13.1-30.3,19.6-54.1,19.6c-23.4,0-41.3-6.6-53.8-19.7
			c-12.5-13.1-18.7-32.2-18.7-57.3c0-24.8,6.2-43.8,18.6-56.9c12.4-13.1,30.4-19.6,54.1-19.6c23.7,0,41.7,6.5,53.9,19.5
			C769.2,134.9,775.4,154,775.4,179.1z M672.8,179.1c0,28.8,10,43.2,30.1,43.2c10.2,0,17.8-3.5,22.7-10.5c4.9-7,7.4-17.9,7.4-32.7
			c0-14.9-2.5-25.9-7.5-33c-5-7.1-12.5-10.7-22.4-10.7C682.9,135.5,672.8,150,672.8,179.1z"/>
		<path class="st3" d="M956.2,253.9h-47.6l-14.3-65c-0.7-2.7-1.8-8.1-3.2-16.2c-1.5-8.1-2.5-14.9-3.2-20.3
			c-0.5,4.4-1.4,9.9-2.7,16.5c-1.2,6.6-2.4,12.6-3.6,18.1c-1.2,5.5-6.1,27.8-14.8,66.9h-47.6l-36.9-149.1h38.9l16.2,74.8
			c3.7,16.5,6.2,29.7,7.5,39.5c0.9-6.9,2.5-16.4,4.7-28.2c2.3-11.9,4.4-21.8,6.4-29.6l13.2-56.4h37.3l12.7,56.4
			c2.2,9,4.4,19.5,6.6,31.3c2.2,11.8,3.7,20.7,4.5,26.5c0.9-7.5,3.3-20.6,7.2-39.3l16.5-75H993L956.2,253.9z"/>
		<path class="st3" d="M1044.4,201.2h-33.7l-5.2-96.5h44.1L1044.4,201.2z M1006,236.9c0-6.2,1.8-11,5.5-14.4c3.7-3.4,9-5.2,16-5.2
			c6.9,0,12.2,1.7,15.8,5.2c3.6,3.4,5.4,8.2,5.4,14.4c0,6.1-1.9,10.9-5.6,14.3c-3.7,3.4-8.9,5.2-15.6,5.2c-6.7,0-12-1.7-15.8-5.2
			S1006,243,1006,236.9z"/>
	</g>
</g>
<g>
</g>
<g>
</g>
<g>
</g>
<g>
</g>
<g>
</g>
<g>
</g>
<g>
</g>
<g>
</g>
<g>
</g>
<g>
</g>
<g>
</g>
<g>
</g>
<g>
</g>
<g>
</g>
<g>
</g>
</svg>
