<svg viewBox="0 0 343 348" fill="none" xmlns="http://www.w3.org/2000/svg">
<g clip-path="url(#clip0)">
<path d="M341.75 276.302C341.594 276.302 341.75 277.079 341.75 277.39C341.75 278.322 341.281 279.409 340.656 280.031C340.031 280.652 339.093 280.963 338.156 280.963C336.593 280.808 335.656 279.876 335.031 279.565C334.093 278.943 332.843 278.477 331.593 278.477C331.124 278.477 330.811 278.477 330.499 278.633C329.249 278.788 328.155 279.565 327.217 280.342C326.28 281.429 325.811 281.895 325.655 284.226C325.655 284.381 325.498 285.313 325.342 286.401C325.03 287.333 324.405 288.576 324.405 288.576C323.154 290.44 321.123 291.838 318.467 292.46C315.81 293.081 313.31 292.77 311.278 291.838C311.278 291.838 311.122 291.838 311.122 291.683C305.497 288.731 306.434 280.186 311.747 277.39C321.123 272.418 330.499 274.127 335.812 268.224C341.281 262.165 338.468 256.106 338.468 256.106C338.468 256.106 344.25 250.979 343 244.92C341.75 238.861 335.343 236.376 337.218 239.172C337.375 239.483 337.687 239.793 337.843 240.104C338.312 240.726 338.312 241.658 338.312 242.435C338.312 244.92 336.437 246.784 334.249 246.784C332.062 246.784 330.186 244.765 330.186 242.435C330.186 241.347 330.499 240.57 330.968 239.638C331.28 238.706 334.093 234.977 336.124 231.87C339.562 226.743 331.749 222.083 330.03 218.509C326.592 210.742 332.374 208.877 333.78 209.033C334.562 209.188 334.249 208.877 334.249 208.877C333.155 207.479 327.374 208.256 323.78 213.072C320.654 217.267 321.592 223.792 323.467 229.695C324.092 231.715 325.655 235.599 321.123 237.152C319.873 237.618 318.935 237.308 318.467 236.997C317.06 236.376 315.966 234.977 315.966 233.268C315.966 231.093 317.685 228.918 320.185 229.229C321.436 229.384 318.623 225.967 314.56 227.986C311.435 229.54 312.06 232.026 311.122 236.22C307.372 251.911 295.964 247.561 293.308 241.968C286.745 228.608 302.059 227.365 307.372 217.422C311.122 210.276 308.309 204.061 308.309 204.061C308.309 204.061 311.747 202.818 311.591 194.895C311.435 186.351 299.559 184.176 301.277 185.884C303.309 187.904 304.715 197.226 297.058 197.381C291.745 197.536 287.526 191.943 295.183 185.884C300.652 181.534 303.465 177.961 303.465 169.417C303.465 157.143 288.308 151.861 288.151 145.647C287.995 138.967 295.808 137.258 294.089 136.792C289.714 135.704 284.088 137.258 280.651 144.559C277.525 151.395 284.088 161.338 285.182 164.29C286.276 167.242 287.37 171.436 286.12 173.922C285.026 176.408 283.151 177.029 281.119 177.029C278.932 177.029 276.744 174.854 276.275 172.368C275.963 170.659 276.275 167.863 278.932 167.397C280.182 167.086 280.494 166.776 280.182 166.62C279.869 166.465 275.338 163.202 270.493 168.64C263.774 176.097 271.431 183.399 265.805 184.02C252.21 185.574 252.367 164.445 260.024 153.881C266.587 145.026 279.4 138.501 279.4 129.179C279.4 121.101 274.713 119.858 274.556 120.79C274.4 121.722 276.275 123.897 273.931 127.626C273.15 129.024 269.556 132.597 267.524 130.577C266.899 129.956 267.056 129.334 267.368 128.868C267.993 127.626 269.868 126.227 270.025 120.479C270.025 111.624 262.836 109.138 263.618 110.381C264.399 111.468 264.087 113.488 262.836 115.042C261.586 116.751 258.774 117.527 256.742 115.508C252.836 111.624 260.805 106.031 260.805 97.9524C260.805 90.0291 252.679 90.1845 251.742 83.5041C251.273 80.397 254.086 76.9791 255.648 76.2024C257.211 75.2702 255.805 75.4256 255.805 75.4256C255.805 75.4256 249.085 76.3577 246.898 81.0184C242.835 89.5631 253.773 94.6899 249.398 103.079C247.679 106.186 244.554 105.409 243.772 101.37C242.991 96.7095 247.523 95.1559 242.991 96.2434C240.803 96.7095 240.178 98.2631 239.866 101.37C239.241 106.342 240.334 105.72 233.459 108.517C227.833 110.847 226.271 117.061 226.271 119.236C226.271 120.479 226.271 121.411 226.739 122.343C226.896 122.654 227.052 122.809 227.052 122.343C227.364 120.013 229.24 114.576 235.334 113.954C251.429 112.401 249.398 127.47 245.179 132.752C237.053 142.851 224.083 138.656 220.02 130.577C215.332 121.411 217.676 114.576 224.083 107.118C227.052 103.701 234.24 99.972 235.334 92.2041C236.115 85.9899 233.146 82.1059 229.24 78.0666C226.114 74.9595 225.489 72.3184 227.364 70.1434C229.083 68.1238 229.865 67.1916 229.865 64.8613C229.865 61.9095 228.458 59.2684 225.802 58.1809C223.145 57.0934 221.27 55.6952 220.958 53.9863C220.801 52.5881 220.958 51.3452 222.051 50.1024C222.833 49.1702 224.395 48.0827 225.333 48.0827C225.802 48.0827 225.958 47.9274 225.646 47.772C225.489 47.6166 222.051 46.0631 218.457 49.4809C213.613 54.1416 215.332 59.7345 217.676 64.2399C220.176 68.7452 222.677 74.8041 217.676 75.8916C211.269 77.2899 210.8 69.3666 212.832 67.5024C213.613 66.7256 213.144 66.4149 213.144 66.4149C213.144 66.4149 207.519 65.172 206.738 72.1631C205.8 79.7756 211.426 81.0184 212.051 83.8149C213.613 90.8059 205.956 96.3988 199.549 92.5149C192.205 88.0095 196.893 78.3774 204.237 67.8131C213.301 54.6077 199.706 47.9274 198.456 47.3059C198.456 47.3059 197.205 46.6845 197.987 47.772C198.143 48.0827 198.456 48.5488 198.612 49.0149C199.549 56.9381 194.705 58.8024 192.049 58.8024C188.611 58.8024 185.954 56.1613 185.954 52.7434C185.954 50.4131 187.205 48.0827 189.236 47.1506C192.049 45.7524 194.08 44.6649 195.487 41.8684C200.174 32.3916 193.611 25.7113 189.08 23.2256C184.704 20.8952 186.892 24.3131 186.892 27.5756C187.048 32.547 183.142 34.722 180.329 34.1006C179.391 33.7899 178.141 33.4791 177.047 31.4595C176.579 30.6827 176.422 29.9059 176.579 28.9738C176.891 26.9541 178.297 24.4684 179.548 20.5845C179.86 19.497 180.173 18.2541 180.485 16.8559C182.985 5.20414 171.422 0.854137 170.641 2.25235C169.859 3.49521 176.266 6.13628 174.391 11.2631C173.61 13.2827 172.047 13.4381 170.953 13.7488C169.39 14.0595 168.453 14.3702 167.828 14.6809C165.484 15.7684 163.765 18.0988 163.296 21.0506C162.984 22.6041 163.14 24.1577 163.765 25.5559C165.796 31.3041 165.64 35.0327 160.952 35.3434C154.545 35.9649 154.702 26.9541 156.889 25.7113C157.671 25.2452 157.046 24.9345 157.046 24.9345C157.046 24.9345 155.17 24.1577 151.889 26.022C150.482 26.7988 148.295 28.8184 146.888 33.9452C145.638 38.4506 145.326 44.3541 148.764 50.2577C152.514 56.7827 157.514 56.3166 162.359 58.3363C175.016 63.6184 169.703 74.6488 163.296 75.4256C158.608 76.047 156.108 73.2506 154.389 69.3666C153.451 67.0363 153.295 66.8809 152.514 64.3952C150.014 56.0059 142.669 62.3756 135.95 59.4238C130.481 57.0934 130.481 53.5202 131.731 50.5684C132.825 47.772 136.575 44.8202 136.887 44.5095C137.2 44.1988 137.2 44.0434 136.575 44.1988C127.512 46.2184 121.886 54.297 126.418 64.2399C128.605 68.9006 136.106 71.697 136.106 71.697C139.231 72.9399 142.513 76.2024 142.513 79.1541C142.513 82.8827 139.7 85.8345 135.95 85.8345C131.574 85.8345 129.856 82.8827 129.231 81.4845C127.824 78.3774 127.199 74.0273 127.98 72.6291C128.449 71.8523 127.824 71.8524 127.824 71.8524C127.824 71.8524 124.074 72.4738 123.605 82.4166C123.292 91.4273 128.918 98.2631 138.294 106.652C145.951 113.488 146.42 120.479 145.951 124.518C145.169 131.976 139.544 139.743 126.262 137.879C109.697 135.549 112.198 110.07 127.043 111.468C134.856 112.245 138.294 118.459 138.45 119.081C138.763 119.547 138.763 119.081 138.763 118.77C138.763 115.197 135.012 108.051 128.762 105.099C122.667 102.302 116.261 104.322 113.135 105.409C112.041 105.72 108.135 105.876 106.416 101.992C103.916 96.0881 108.76 95.3113 110.791 90.8059C112.823 86.4559 113.292 81.1738 110.166 76.9791C106.416 71.8523 98.759 72.4738 98.759 72.4738C98.759 72.4738 97.5089 72.7845 97.9777 73.2506C99.0715 74.3381 105.322 78.0666 103.759 81.6399C100.634 88.4756 94.5399 87.2327 94.5399 93.9131C94.5399 101 99.0715 109.138 94.5399 110.847C86.4141 114.109 89.8519 102.458 89.8519 102.458C89.8519 102.458 89.8519 102.147 89.6957 102.147C88.4456 101.992 83.9139 102.147 81.4137 109.915C78.9134 117.993 85.164 121.256 86.2579 126.383C87.3517 131.509 85.4765 129.179 85.0078 137.413C84.539 145.647 87.9768 151.551 93.6023 158.852C102.978 171.281 95.9463 183.399 87.8205 182.622C74.0693 181.379 84.539 167.552 82.5075 160.872C80.9449 155.745 77.3508 154.658 74.3818 154.658C72.1941 154.658 70.7877 154.968 70.7877 154.968C70.7877 154.968 70.4752 155.279 70.944 155.279C72.0378 155.279 75.6319 156.833 75.1631 160.406C74.6943 163.824 69.6939 165.533 66.256 161.649C63.1308 158.076 68.2875 154.192 71.7253 150.308C72.3503 149.531 77.6633 143.472 72.6629 136.17C69.2251 131.043 59.5367 131.509 58.1303 131.82C57.5052 131.976 57.974 132.131 57.974 132.131C57.974 132.131 63.7558 134.306 63.287 140.054C62.9745 143.161 59.0679 145.336 55.9426 147.201C54.38 147.977 48.2857 150.463 47.9731 159.629C47.8169 163.202 49.3795 166.465 51.7235 168.951C52.3485 169.572 54.6925 171.281 55.005 171.592C61.0993 176.252 63.9121 181.845 61.2556 185.418C60.7868 186.195 60.0055 186.817 58.9116 187.283C58.2866 187.593 57.6615 187.749 57.0364 188.059C55.005 188.681 53.1298 188.681 51.7235 187.749C45.4729 184.02 47.8169 178.272 49.2232 177.34C49.3795 177.184 49.5358 177.029 49.3795 177.029C43.9103 177.651 39.5349 182.311 39.5349 187.904C39.5349 189.147 39.8474 190.701 40.1599 191.477C40.4724 192.254 41.2538 193.808 41.7226 194.429C42.0351 194.895 42.1913 195.051 42.1913 195.206C42.1913 195.206 42.0351 195.361 41.8788 195.827C41.7226 195.983 41.7226 196.293 41.5663 196.604C41.5663 196.759 41.41 196.915 41.41 197.07C41.0975 197.847 40.785 198.624 40.6287 199.711C40.6287 199.867 40.6287 199.867 40.6287 200.022C40.4724 200.954 40.3162 202.042 40.3162 203.129C40.3162 208.411 42.8164 213.227 46.8793 216.179C47.8169 216.801 48.5982 217.267 49.5358 217.733C54.8488 220.84 60.9431 223.792 62.0369 229.384C63.287 235.443 60.6305 243.522 53.5986 243.988C45.6292 244.454 42.6601 240.26 40.9412 230.006C39.0661 218.51 32.6592 218.354 30.9403 218.976C30.9403 218.976 30.7841 219.131 31.2528 219.131C31.8779 219.131 32.9718 219.597 33.5968 221.461C34.5344 224.413 30.9403 226.433 27.9713 225.345C27.3462 225.19 26.5649 224.724 25.9399 224.258C22.0333 220.84 25.0023 217.577 27.19 214.47C28.5964 212.451 30.0027 210.276 29.0652 207.479C27.3462 202.352 23.4396 202.197 22.0333 202.197C21.4082 202.197 21.5645 202.352 21.7207 202.352C24.0647 203.284 25.6273 204.838 25.6273 206.858C25.6273 208.256 24.846 209.499 23.7522 210.431C22.8146 211.208 21.4082 211.363 19.8456 211.674C16.8765 212.295 14.22 214.626 13.2825 217.422C12.9699 218.509 12.8137 219.442 12.8137 220.218C12.8137 222.083 13.2825 223.481 14.0638 224.568C14.3763 225.19 14.8451 225.656 15.3139 226.122C15.7827 226.588 16.2515 227.054 16.7203 227.365C20.3144 230.627 18.7517 233.89 18.4392 234.511C17.3453 236.842 14.6888 237.618 12.5011 236.686C10.3134 235.754 9.53212 233.113 10.4697 230.783C10.7822 230.006 11.0948 229.54 11.5636 229.074L11.8761 228.763C11.8761 228.608 11.8761 228.608 11.8761 228.608C11.8761 228.608 7.34442 227.365 6.40683 233.579C5.46925 239.483 12.1886 243.833 12.1886 243.833C12.1886 243.833 10.3134 249.27 14.3763 254.863C15.939 257.038 17.9704 258.436 21.4082 259.058C24.846 259.679 25.4711 262.942 25.1585 264.806C24.846 266.826 21.7207 268.534 18.4392 268.068C15.1576 267.602 12.6574 265.272 13.1262 262.631C13.1262 262.631 13.4387 260.767 13.595 260.767C13.7513 259.679 12.9699 259.99 12.8137 260.301C12.8137 260.301 6.25057 269.467 16.7203 272.884C21.877 274.593 33.9093 273.04 42.0351 276.613C46.098 278.322 47.9731 282.517 47.0355 285.935C45.0041 292.926 37.3472 293.236 33.5968 289.663C32.1904 288.265 31.4091 286.09 30.7841 284.381C28.4401 276.147 19.6893 283.138 19.3768 283.449C19.0642 283.915 19.8456 283.759 20.1581 283.759C20.4706 283.604 21.2519 282.983 22.0333 282.983C24.221 282.983 24.846 284.381 24.846 285.779C24.846 287.643 22.0333 289.508 17.9704 287.333C16.7203 286.556 15.6264 284.847 14.8451 283.604C14.6888 283.449 14.6888 283.449 14.6888 283.293C13.4387 281.74 11.4073 280.652 8.90706 280.652C8.7508 280.652 7.03189 280.652 4.84419 281.585C2.50023 282.517 1.71891 279.876 1.87517 278.943C2.03144 278.322 1.56264 278.633 1.56264 278.633C1.56264 278.633 1.09385 279.099 0.625057 279.876C0.156264 280.652 0 281.429 0 282.051C0 284.226 1.40638 285.934 3.43781 286.401C4.84419 286.556 4.68793 286.401 5.93804 286.401C7.50068 286.556 8.43827 287.643 8.43827 287.643C10.3134 289.818 9.84465 290.595 10.3134 292.46C11.4073 297.276 14.5326 302.558 21.2519 307.063C24.846 309.549 55.3175 331.454 96.1025 338.445C110.791 340.931 127.043 341.086 137.356 341.086C137.356 341.086 146.42 341.242 147.201 341.242C157.827 341.242 166.421 342.795 171.734 346.058C173.141 346.99 174.391 347.922 175.485 349.165C175.641 349.32 175.954 349.786 175.954 349.786C176.11 349.476 176.266 349.32 176.579 349.009C176.735 348.699 181.423 342.329 198.768 341.397C199.862 341.397 224.239 341.242 233.771 341.086C240.959 340.931 248.616 340.31 255.648 339.067C292.527 332.542 320.342 316.074 330.811 307.529C335.656 303.49 337.687 296.965 336.749 294.013C335.812 291.372 335.187 289.974 335.656 288.265C335.968 287.333 336.437 286.556 337.218 285.779C337.843 285.002 338.781 284.381 339.875 283.915C344.406 282.206 342.219 276.147 341.75 276.302Z" fill="black"/>
<path d="M220.958 218.898L261.899 289.275H180.016L220.958 218.898Z" fill="#F299C1"/>
<path d="M176.11 141.686L217.051 212.218H135.169L176.11 141.686Z" fill="#FDF49B"/>
<path d="M131.262 218.898L172.203 289.275H90.3207L131.262 218.898Z" fill="#6ECEF5"/>
</g>
<defs>
<clipPath id="clip0">
<rect width="343" height="348" fill="white"/>
</clipPath>
</defs>
</svg>
