<?xml version="1.0" encoding="utf-8"?>
<!-- Generator: Adobe Illustrator 23.0.6, SVG Export Plug-In . SVG Version: 6.00 Build 0)  -->
<svg version="1.1" id="Layer_1" xmlns="http://www.w3.org/2000/svg" xmlns:xlink="http://www.w3.org/1999/xlink" x="0px" y="0px"
	 viewBox="0 0 1200 300" style="enable-background:new 0 0 1200 300;" xml:space="preserve">
<style type="text/css">
	.st0{fill:#333333;}
	.st1{fill:#FFFFFF;}
	.st2{fill:#6ECDF5;}
</style>
<rect class="st0" width="1200" height="300"/>
<g>
	<path class="st1" d="M73.8,87.3l-2.6-8.4H58.3l-2.6,8.4h-8.1l12.5-35.6h9.2l12.6,35.6H73.8z M69.4,72.6c-2.4-7.6-3.7-12-4-13
		c-0.3-1-0.5-1.8-0.6-2.4c-0.5,2.1-2.1,7.2-4.6,15.3H69.4z"/>
	<path class="st1" d="M93.8,73.7v13.6h-7.5V51.9h10.3c4.8,0,8.4,0.9,10.7,2.6c2.3,1.8,3.5,4.4,3.5,8c0,2.1-0.6,3.9-1.7,5.6
		c-1.1,1.6-2.8,2.9-4.9,3.8c5.3,8,8.8,13.1,10.4,15.4h-8.3l-8.5-13.6H93.8z M93.8,67.6h2.4c2.4,0,4.1-0.4,5.3-1.2
		c1.1-0.8,1.7-2,1.7-3.7c0-1.7-0.6-2.9-1.7-3.6c-1.2-0.7-2.9-1.1-5.4-1.1h-2.3V67.6z"/>
	<path class="st1" d="M132.7,87.3h-7.5V58.1h-9.6v-6.3h26.7v6.3h-9.6V87.3z"/>
	<path class="st1" d="M168.1,87.3h-7.4V51.9H181V58h-12.9v9.1h12v6.1h-12V87.3z"/>
	<path class="st1" d="M220.1,69.5c0,5.9-1.5,10.4-4.4,13.5s-7.1,4.7-12.5,4.7c-5.4,0-9.6-1.6-12.5-4.7s-4.4-7.7-4.4-13.6
		c0-5.9,1.5-10.4,4.4-13.5c2.9-3.1,7.1-4.7,12.5-4.7c5.4,0,9.6,1.6,12.5,4.7S220.1,63.7,220.1,69.5z M194.2,69.5
		c0,4,0.8,6.9,2.3,8.9c1.5,2,3.7,3,6.7,3c6,0,9-4,9-11.9c0-8-3-12-8.9-12c-3,0-5.2,1-6.8,3C195,62.6,194.2,65.6,194.2,69.5z"/>
	<path class="st1" d="M234.9,73.7v13.6h-7.5V51.9h10.3c4.8,0,8.4,0.9,10.7,2.6c2.3,1.8,3.5,4.4,3.5,8c0,2.1-0.6,3.9-1.7,5.6
		c-1.1,1.6-2.8,2.9-4.9,3.8c5.3,8,8.8,13.1,10.4,15.4h-8.3l-8.5-13.6H234.9z M234.9,67.6h2.4c2.4,0,4.1-0.4,5.3-1.2
		c1.1-0.8,1.7-2,1.7-3.7c0-1.7-0.6-2.9-1.7-3.6c-1.2-0.7-2.9-1.1-5.4-1.1h-2.3V67.6z"/>
	<path class="st1" d="M286.7,87.3h-7.5V58.1h-9.6v-6.3h26.7v6.3h-9.6V87.3z"/>
	<path class="st1" d="M301.8,87.3V51.9h7.5v35.4H301.8z"/>
	<path class="st1" d="M318.2,51.9h11c5,0,8.7,0.7,10.9,2.1c2.3,1.4,3.4,3.7,3.4,6.8c0,2.1-0.5,3.9-1.5,5.2c-1,1.4-2.3,2.2-4,2.4v0.2
		c2.2,0.5,3.9,1.4,4.9,2.8c1,1.4,1.5,3.2,1.5,5.5c0,3.2-1.2,5.8-3.5,7.6c-2.3,1.8-5.5,2.7-9.5,2.7h-13.3V51.9z M325.8,65.9h4.4
		c2,0,3.5-0.3,4.4-0.9c0.9-0.6,1.4-1.7,1.4-3.1c0-1.4-0.5-2.3-1.5-2.9c-1-0.6-2.6-0.9-4.7-0.9h-3.9V65.9z M325.8,71.9v9.2h4.9
		c2.1,0,3.6-0.4,4.6-1.2c1-0.8,1.5-2,1.5-3.6c0-2.9-2.1-4.4-6.3-4.4H325.8z"/>
	<path class="st1" d="M372,87.3h-20.4V51.9H372V58h-12.9v7.8h12V72h-12v9.1H372V87.3z"/>
	<path class="st1" d="M393,87.3h-7.5V58.1h-9.6v-6.3h26.7v6.3H393V87.3z"/>
	<path class="st1" d="M406.5,63.8c0-1.4,0.4-2.4,1.1-3.1c0.7-0.7,1.8-1,3.2-1c1.3,0,2.4,0.4,3.1,1.1c0.7,0.7,1.1,1.7,1.1,3.1
		c0,1.3-0.4,2.3-1.1,3c-0.8,0.7-1.8,1.1-3.1,1.1c-1.4,0-2.4-0.4-3.1-1.1C406.9,66.2,406.5,65.1,406.5,63.8z M406.5,83.8
		c0-1.4,0.4-2.4,1.1-3.1c0.7-0.7,1.8-1,3.2-1c1.3,0,2.4,0.4,3.1,1.1c0.7,0.7,1.1,1.7,1.1,3.1c0,1.3-0.4,2.3-1.1,3
		c-0.7,0.7-1.8,1.1-3.1,1.1c-1.4,0-2.4-0.4-3.1-1.1C406.9,86.1,406.5,85.1,406.5,83.8z"/>
	<path class="st1" d="M459.6,62.9c0,3.8-1.2,6.7-3.6,8.7c-2.4,2-5.8,3-10.2,3h-3.2v12.6h-7.5V51.9h11.3c4.3,0,7.6,0.9,9.8,2.8
		C458.5,56.5,459.6,59.2,459.6,62.9z M442.7,68.5h2.5c2.3,0,4-0.5,5.2-1.4c1.1-0.9,1.7-2.2,1.7-4c0-1.8-0.5-3.1-1.4-3.9
		c-1-0.8-2.5-1.3-4.5-1.3h-3.4V68.5z"/>
	<path class="st1" d="M473.8,73.7v13.6h-7.5V51.9h10.3c4.8,0,8.4,0.9,10.7,2.6c2.3,1.8,3.5,4.4,3.5,8c0,2.1-0.6,3.9-1.7,5.6
		c-1.1,1.6-2.8,2.9-4.9,3.8c5.3,8,8.8,13.1,10.4,15.4h-8.3l-8.5-13.6H473.8z M473.8,67.6h2.4c2.4,0,4.1-0.4,5.3-1.2
		c1.1-0.8,1.7-2,1.7-3.7c0-1.7-0.6-2.9-1.7-3.6c-1.2-0.7-2.9-1.1-5.4-1.1h-2.3V67.6z"/>
	<path class="st1" d="M499.1,87.3V51.9h7.5v35.4H499.1z"/>
	<path class="st1" d="M546.9,87.3h-9.5L522,60.5h-0.2c0.3,4.7,0.5,8.1,0.5,10.1v16.7h-6.7V51.9h9.5l15.4,26.5h0.2
		c-0.2-4.6-0.4-7.9-0.4-9.8V51.9h6.8V87.3z"/>
	<path class="st1" d="M569.5,87.3H562V58.1h-9.6v-6.3h26.7v6.3h-9.6V87.3z"/>
	<path class="st1" d="M621.9,62.9c0,3.8-1.2,6.7-3.6,8.7c-2.4,2-5.8,3-10.2,3H605v12.6h-7.5V51.9h11.3c4.3,0,7.6,0.9,9.8,2.8
		C620.8,56.5,621.9,59.2,621.9,62.9z M605,68.5h2.5c2.3,0,4-0.5,5.2-1.4c1.1-0.9,1.7-2.2,1.7-4c0-1.8-0.5-3.1-1.4-3.9
		c-1-0.8-2.5-1.3-4.5-1.3H605V68.5z"/>
	<path class="st1" d="M636.1,73.7v13.6h-7.5V51.9H639c4.8,0,8.4,0.9,10.7,2.6c2.3,1.8,3.5,4.4,3.5,8c0,2.1-0.6,3.9-1.7,5.6
		c-1.1,1.6-2.8,2.9-4.9,3.8c5.3,8,8.8,13.1,10.4,15.4h-8.3l-8.5-13.6H636.1z M636.1,67.6h2.4c2.4,0,4.1-0.4,5.3-1.2
		c1.1-0.8,1.7-2,1.7-3.7c0-1.7-0.6-2.9-1.7-3.6c-1.2-0.7-2.9-1.1-5.4-1.1h-2.3V67.6z"/>
	<path class="st1" d="M693.5,69.5c0,5.9-1.5,10.4-4.4,13.5s-7.1,4.7-12.5,4.7c-5.4,0-9.6-1.6-12.5-4.7c-2.9-3.1-4.4-7.7-4.4-13.6
		c0-5.9,1.5-10.4,4.4-13.5s7.1-4.7,12.5-4.7c5.4,0,9.6,1.6,12.5,4.7C692.1,59.1,693.5,63.7,693.5,69.5z M667.7,69.5
		c0,4,0.8,6.9,2.3,8.9c1.5,2,3.7,3,6.7,3c6,0,9-4,9-11.9c0-8-3-12-8.9-12c-3,0-5.2,1-6.8,3C668.4,62.6,667.7,65.6,667.7,69.5z"/>
	<path class="st1" d="M697.2,97.7c-1.7,0-3.2-0.2-4.4-0.5v-6.3c1.3,0.3,2.5,0.5,3.5,0.5c1.6,0,2.8-0.5,3.5-1.5
		c0.7-1,1.1-2.6,1.1-4.8V51.9h7.5V85c0,4.1-0.9,7.3-2.8,9.4S700.9,97.7,697.2,97.7z"/>
	<path class="st1" d="M737.7,87.3h-20.4V51.9h20.4V58h-12.9v7.8h12V72h-12v9.1h12.9V87.3z"/>
	<path class="st1" d="M760.1,57.6c-2.8,0-5,1.1-6.6,3.2s-2.3,5.1-2.3,8.9c0,7.9,3,11.8,8.9,11.8c2.5,0,5.5-0.6,9-1.9V86
		c-2.9,1.2-6.2,1.8-9.7,1.8c-5.2,0-9.1-1.6-11.8-4.7c-2.7-3.1-4.1-7.6-4.1-13.5c0-3.7,0.7-6.9,2-9.7s3.3-4.9,5.8-6.4
		s5.5-2.2,8.8-2.2c3.4,0,6.9,0.8,10.4,2.5l-2.4,6.1c-1.3-0.6-2.7-1.2-4-1.6C762.8,57.8,761.4,57.6,760.1,57.6z"/>
	<path class="st1" d="M790.4,87.3h-7.5V58.1h-9.6v-6.3H800v6.3h-9.6V87.3z"/>
</g>
<g>
	<path class="st2" d="M124.2,216.3c0,6.2-1.6,11.8-4.7,16.6s-7.7,8.6-13.7,11.3c-6,2.7-13,4-21,4c-6.7,0-12.3-0.5-16.9-1.4
		c-4.5-0.9-9.3-2.6-14.2-4.9v-24.2c5.2,2.7,10.6,4.7,16.2,6.2c5.6,1.5,10.7,2.2,15.4,2.2c4,0,7-0.7,8.9-2.1c1.9-1.4,2.8-3.2,2.8-5.4
		c0-1.4-0.4-2.6-1.1-3.6c-0.8-1-2-2.1-3.6-3.1c-1.7-1.1-6.1-3.2-13.4-6.5c-6.6-3-11.5-5.9-14.8-8.7c-3.3-2.8-5.7-6-7.3-9.6
		c-1.6-3.6-2.4-7.9-2.4-12.9c0-9.3,3.4-16.5,10.1-21.7c6.7-5.2,16-7.8,27.8-7.8c10.4,0,21,2.4,31.9,7.2l-8.3,21
		c-9.4-4.3-17.5-6.5-24.4-6.5c-3.5,0-6.1,0.6-7.7,1.9c-1.6,1.2-2.4,2.8-2.4,4.6c0,2,1,3.7,3.1,5.3c2,1.6,7.6,4.4,16.6,8.5
		c8.7,3.9,14.7,8.1,18.1,12.6S124.2,209.5,124.2,216.3z"/>
	<path class="st2" d="M201.5,246.8l-5-18.8h-32.7l-5.1,18.8h-29.9l32.8-101H198l33.2,101H201.5z M190.9,205.7l-4.3-16.5
		c-1-3.7-2.2-8.4-3.7-14.2c-1.4-5.8-2.4-10-2.9-12.5c-0.4,2.3-1.2,6.2-2.4,11.6c-1.2,5.4-3.9,15.9-8.1,31.7H190.9z"/>
	<path class="st2" d="M242.1,246.8V146.2h27.2v78.6H308v21.9H242.1z"/>
	<path class="st2" d="M383.8,246.8h-59.7V146.2h59.7v21.8h-32.5v15.8h30.1v21.8h-30.1v19h32.5V246.8z"/>
	<path class="st2" d="M532.1,196.4c0,16.9-4.2,29.8-12.5,38.6c-8.3,8.8-20.5,13.2-36.5,13.2c-15.8,0-27.9-4.4-36.3-13.3
		c-8.4-8.9-12.6-21.7-12.6-38.7c0-16.7,4.2-29.5,12.6-38.4c8.4-8.8,20.5-13.2,36.5-13.2c16,0,28.1,4.4,36.4,13.1
		C528,166.6,532.1,179.4,532.1,196.4z M462.9,196.4c0,19.4,6.8,29.2,20.3,29.2c6.9,0,12-2.4,15.3-7.1c3.3-4.7,5-12.1,5-22.1
		c0-10-1.7-17.5-5.1-22.3c-3.4-4.8-8.4-7.2-15.1-7.2C469.7,167,462.9,176.8,462.9,196.4z"/>
	<path class="st2" d="M646,246.8h-35.6L573.7,176H573c0.9,11.1,1.3,19.7,1.3,25.5v45.3h-24.1V146.2h35.5l36.6,69.9h0.4
		c-0.6-10.1-1-18.3-1-24.4v-45.5H646V246.8z"/>
	<path class="st2" d="M800.1,246.8h-35.6L727.8,176h-0.6c0.9,11.1,1.3,19.7,1.3,25.5v45.3h-24.1V146.2h35.5l36.6,69.9h0.4
		c-0.6-10.1-1-18.3-1-24.4v-45.5h24.2V246.8z"/>
	<path class="st2" d="M916,196.4c0,16.9-4.2,29.8-12.5,38.6c-8.3,8.8-20.5,13.2-36.5,13.2c-15.8,0-27.9-4.4-36.3-13.3
		c-8.4-8.9-12.6-21.7-12.6-38.7c0-16.7,4.2-29.5,12.6-38.4c8.4-8.8,20.5-13.2,36.5-13.2c16,0,28.1,4.4,36.4,13.1
		C911.9,166.6,916,179.4,916,196.4z M846.8,196.4c0,19.4,6.8,29.2,20.3,29.2c6.9,0,12-2.4,15.3-7.1c3.3-4.7,5-12.1,5-22.1
		c0-10-1.7-17.5-5.1-22.3c-3.4-4.8-8.4-7.2-15.1-7.2C853.6,167,846.8,176.8,846.8,196.4z"/>
	<path class="st2" d="M1042.8,246.8h-32.1L1001,203c-0.5-1.8-1.2-5.5-2.2-10.9c-1-5.5-1.7-10-2.2-13.7c-0.4,3-1,6.7-1.8,11.1
		c-0.8,4.4-1.6,8.5-2.4,12.2c-0.8,3.7-4.1,18.8-10,45.1h-32.1l-24.9-100.6h26.2l10.9,50.4c2.5,11.1,4.2,20,5.1,26.6
		c0.6-4.7,1.7-11,3.2-19.1c1.5-8,3-14.7,4.3-20l8.9-38h25.2l8.6,38c1.5,6.1,3,13.1,4.5,21.1s2.5,13.9,3,17.9
		c0.6-5.1,2.2-13.9,4.9-26.5l11.1-50.6h26.2L1042.8,246.8z"/>
	<path class="st2" d="M1101.5,211.3h-22.7l-3.5-65.1h29.7L1101.5,211.3z M1075.6,235.4c0-4.2,1.2-7.4,3.7-9.7
		c2.5-2.3,6.1-3.5,10.8-3.5c4.7,0,8.2,1.2,10.6,3.5c2.4,2.3,3.6,5.6,3.6,9.7c0,4.1-1.2,7.4-3.7,9.7c-2.5,2.3-6,3.5-10.5,3.5
		c-4.5,0-8.1-1.2-10.7-3.5S1075.6,239.5,1075.6,235.4z"/>
</g>
</svg>
